G75*
%MOIN*%
%OFA0B0*%
%FSLAX24Y24*%
%IPPOS*%
%LPD*%
%AMOC8*
5,1,8,0,0,1.08239X$1,22.5*
%
%ADD10C,0.0000*%
%ADD11C,0.0039*%
%ADD12C,0.0030*%
%ADD13C,0.0100*%
%ADD14C,0.0059*%
%ADD15C,0.0040*%
D10*
X001543Y001214D02*
X007057Y001214D01*
X007162Y001332D01*
X007163Y001992D01*
X010376Y001990D01*
X010370Y000897D01*
X017853Y000897D01*
X018407Y001214D01*
X025254Y001214D01*
X028315Y007336D01*
X028846Y007690D01*
X032212Y014373D01*
X031218Y014865D01*
X032655Y017739D01*
X033246Y017444D01*
X033393Y017483D01*
X035864Y022424D01*
X030103Y022423D01*
X030103Y022424D02*
X030103Y021647D01*
X026989Y021647D01*
X026989Y022739D01*
X019476Y022739D01*
X018689Y022424D01*
X012143Y022424D01*
X009220Y016568D01*
X008561Y015977D01*
X005204Y009265D01*
X006218Y008753D01*
X004781Y005889D01*
X004191Y006184D01*
X004004Y006145D01*
X001543Y001214D01*
X003060Y002453D02*
X003062Y002497D01*
X003068Y002541D01*
X003078Y002584D01*
X003091Y002626D01*
X003109Y002666D01*
X003130Y002705D01*
X003154Y002742D01*
X003181Y002777D01*
X003212Y002809D01*
X003245Y002838D01*
X003281Y002864D01*
X003319Y002886D01*
X003359Y002905D01*
X003400Y002921D01*
X003443Y002933D01*
X003486Y002941D01*
X003530Y002945D01*
X003574Y002945D01*
X003618Y002941D01*
X003661Y002933D01*
X003704Y002921D01*
X003745Y002905D01*
X003785Y002886D01*
X003823Y002864D01*
X003859Y002838D01*
X003892Y002809D01*
X003923Y002777D01*
X003950Y002742D01*
X003974Y002705D01*
X003995Y002666D01*
X004013Y002626D01*
X004026Y002584D01*
X004036Y002541D01*
X004042Y002497D01*
X004044Y002453D01*
X004042Y002409D01*
X004036Y002365D01*
X004026Y002322D01*
X004013Y002280D01*
X003995Y002240D01*
X003974Y002201D01*
X003950Y002164D01*
X003923Y002129D01*
X003892Y002097D01*
X003859Y002068D01*
X003823Y002042D01*
X003785Y002020D01*
X003745Y002001D01*
X003704Y001985D01*
X003661Y001973D01*
X003618Y001965D01*
X003574Y001961D01*
X003530Y001961D01*
X003486Y001965D01*
X003443Y001973D01*
X003400Y001985D01*
X003359Y002001D01*
X003319Y002020D01*
X003281Y002042D01*
X003245Y002068D01*
X003212Y002097D01*
X003181Y002129D01*
X003154Y002164D01*
X003130Y002201D01*
X003109Y002240D01*
X003091Y002280D01*
X003078Y002322D01*
X003068Y002365D01*
X003062Y002409D01*
X003060Y002453D01*
X016391Y014853D02*
X016393Y014894D01*
X016399Y014935D01*
X016409Y014975D01*
X016422Y015014D01*
X016439Y015051D01*
X016460Y015087D01*
X016484Y015121D01*
X016511Y015152D01*
X016540Y015180D01*
X016573Y015206D01*
X016607Y015228D01*
X016644Y015247D01*
X016682Y015262D01*
X016722Y015274D01*
X016762Y015282D01*
X016803Y015286D01*
X016845Y015286D01*
X016886Y015282D01*
X016926Y015274D01*
X016966Y015262D01*
X017004Y015247D01*
X017040Y015228D01*
X017075Y015206D01*
X017108Y015180D01*
X017137Y015152D01*
X017164Y015121D01*
X017188Y015087D01*
X017209Y015051D01*
X017226Y015014D01*
X017239Y014975D01*
X017249Y014935D01*
X017255Y014894D01*
X017257Y014853D01*
X017255Y014812D01*
X017249Y014771D01*
X017239Y014731D01*
X017226Y014692D01*
X017209Y014655D01*
X017188Y014619D01*
X017164Y014585D01*
X017137Y014554D01*
X017108Y014526D01*
X017075Y014500D01*
X017041Y014478D01*
X017004Y014459D01*
X016966Y014444D01*
X016926Y014432D01*
X016886Y014424D01*
X016845Y014420D01*
X016803Y014420D01*
X016762Y014424D01*
X016722Y014432D01*
X016682Y014444D01*
X016644Y014459D01*
X016608Y014478D01*
X016573Y014500D01*
X016540Y014526D01*
X016511Y014554D01*
X016484Y014585D01*
X016460Y014619D01*
X016439Y014655D01*
X016422Y014692D01*
X016409Y014731D01*
X016399Y014771D01*
X016393Y014812D01*
X016391Y014853D01*
X012163Y017582D02*
X012165Y017623D01*
X012171Y017664D01*
X012181Y017704D01*
X012194Y017743D01*
X012211Y017780D01*
X012232Y017816D01*
X012256Y017850D01*
X012283Y017881D01*
X012312Y017909D01*
X012345Y017935D01*
X012379Y017957D01*
X012416Y017976D01*
X012454Y017991D01*
X012494Y018003D01*
X012534Y018011D01*
X012575Y018015D01*
X012617Y018015D01*
X012658Y018011D01*
X012698Y018003D01*
X012738Y017991D01*
X012776Y017976D01*
X012812Y017957D01*
X012847Y017935D01*
X012880Y017909D01*
X012909Y017881D01*
X012936Y017850D01*
X012960Y017816D01*
X012981Y017780D01*
X012998Y017743D01*
X013011Y017704D01*
X013021Y017664D01*
X013027Y017623D01*
X013029Y017582D01*
X013027Y017541D01*
X013021Y017500D01*
X013011Y017460D01*
X012998Y017421D01*
X012981Y017384D01*
X012960Y017348D01*
X012936Y017314D01*
X012909Y017283D01*
X012880Y017255D01*
X012847Y017229D01*
X012813Y017207D01*
X012776Y017188D01*
X012738Y017173D01*
X012698Y017161D01*
X012658Y017153D01*
X012617Y017149D01*
X012575Y017149D01*
X012534Y017153D01*
X012494Y017161D01*
X012454Y017173D01*
X012416Y017188D01*
X012380Y017207D01*
X012345Y017229D01*
X012312Y017255D01*
X012283Y017283D01*
X012256Y017314D01*
X012232Y017348D01*
X012211Y017384D01*
X012194Y017421D01*
X012181Y017460D01*
X012171Y017500D01*
X012165Y017541D01*
X012163Y017582D01*
X013187Y018133D02*
X013189Y018174D01*
X013195Y018215D01*
X013205Y018255D01*
X013218Y018294D01*
X013235Y018331D01*
X013256Y018367D01*
X013280Y018401D01*
X013307Y018432D01*
X013336Y018460D01*
X013369Y018486D01*
X013403Y018508D01*
X013440Y018527D01*
X013478Y018542D01*
X013518Y018554D01*
X013558Y018562D01*
X013599Y018566D01*
X013641Y018566D01*
X013682Y018562D01*
X013722Y018554D01*
X013762Y018542D01*
X013800Y018527D01*
X013836Y018508D01*
X013871Y018486D01*
X013904Y018460D01*
X013933Y018432D01*
X013960Y018401D01*
X013984Y018367D01*
X014005Y018331D01*
X014022Y018294D01*
X014035Y018255D01*
X014045Y018215D01*
X014051Y018174D01*
X014053Y018133D01*
X014051Y018092D01*
X014045Y018051D01*
X014035Y018011D01*
X014022Y017972D01*
X014005Y017935D01*
X013984Y017899D01*
X013960Y017865D01*
X013933Y017834D01*
X013904Y017806D01*
X013871Y017780D01*
X013837Y017758D01*
X013800Y017739D01*
X013762Y017724D01*
X013722Y017712D01*
X013682Y017704D01*
X013641Y017700D01*
X013599Y017700D01*
X013558Y017704D01*
X013518Y017712D01*
X013478Y017724D01*
X013440Y017739D01*
X013404Y017758D01*
X013369Y017780D01*
X013336Y017806D01*
X013307Y017834D01*
X013280Y017865D01*
X013256Y017899D01*
X013235Y017935D01*
X013218Y017972D01*
X013205Y018011D01*
X013195Y018051D01*
X013189Y018092D01*
X013187Y018133D01*
X014171Y018723D02*
X014173Y018764D01*
X014179Y018805D01*
X014189Y018845D01*
X014202Y018884D01*
X014219Y018921D01*
X014240Y018957D01*
X014264Y018991D01*
X014291Y019022D01*
X014320Y019050D01*
X014353Y019076D01*
X014387Y019098D01*
X014424Y019117D01*
X014462Y019132D01*
X014502Y019144D01*
X014542Y019152D01*
X014583Y019156D01*
X014625Y019156D01*
X014666Y019152D01*
X014706Y019144D01*
X014746Y019132D01*
X014784Y019117D01*
X014820Y019098D01*
X014855Y019076D01*
X014888Y019050D01*
X014917Y019022D01*
X014944Y018991D01*
X014968Y018957D01*
X014989Y018921D01*
X015006Y018884D01*
X015019Y018845D01*
X015029Y018805D01*
X015035Y018764D01*
X015037Y018723D01*
X015035Y018682D01*
X015029Y018641D01*
X015019Y018601D01*
X015006Y018562D01*
X014989Y018525D01*
X014968Y018489D01*
X014944Y018455D01*
X014917Y018424D01*
X014888Y018396D01*
X014855Y018370D01*
X014821Y018348D01*
X014784Y018329D01*
X014746Y018314D01*
X014706Y018302D01*
X014666Y018294D01*
X014625Y018290D01*
X014583Y018290D01*
X014542Y018294D01*
X014502Y018302D01*
X014462Y018314D01*
X014424Y018329D01*
X014388Y018348D01*
X014353Y018370D01*
X014320Y018396D01*
X014291Y018424D01*
X014264Y018455D01*
X014240Y018489D01*
X014219Y018525D01*
X014202Y018562D01*
X014189Y018601D01*
X014179Y018641D01*
X014173Y018682D01*
X014171Y018723D01*
X015155Y019275D02*
X015157Y019316D01*
X015163Y019357D01*
X015173Y019397D01*
X015186Y019436D01*
X015203Y019473D01*
X015224Y019509D01*
X015248Y019543D01*
X015275Y019574D01*
X015304Y019602D01*
X015337Y019628D01*
X015371Y019650D01*
X015408Y019669D01*
X015446Y019684D01*
X015486Y019696D01*
X015526Y019704D01*
X015567Y019708D01*
X015609Y019708D01*
X015650Y019704D01*
X015690Y019696D01*
X015730Y019684D01*
X015768Y019669D01*
X015804Y019650D01*
X015839Y019628D01*
X015872Y019602D01*
X015901Y019574D01*
X015928Y019543D01*
X015952Y019509D01*
X015973Y019473D01*
X015990Y019436D01*
X016003Y019397D01*
X016013Y019357D01*
X016019Y019316D01*
X016021Y019275D01*
X016019Y019234D01*
X016013Y019193D01*
X016003Y019153D01*
X015990Y019114D01*
X015973Y019077D01*
X015952Y019041D01*
X015928Y019007D01*
X015901Y018976D01*
X015872Y018948D01*
X015839Y018922D01*
X015805Y018900D01*
X015768Y018881D01*
X015730Y018866D01*
X015690Y018854D01*
X015650Y018846D01*
X015609Y018842D01*
X015567Y018842D01*
X015526Y018846D01*
X015486Y018854D01*
X015446Y018866D01*
X015408Y018881D01*
X015372Y018900D01*
X015337Y018922D01*
X015304Y018948D01*
X015275Y018976D01*
X015248Y019007D01*
X015224Y019041D01*
X015203Y019077D01*
X015186Y019114D01*
X015173Y019153D01*
X015163Y019193D01*
X015157Y019234D01*
X015155Y019275D01*
X016140Y019865D02*
X016142Y019906D01*
X016148Y019947D01*
X016158Y019987D01*
X016171Y020026D01*
X016188Y020063D01*
X016209Y020099D01*
X016233Y020133D01*
X016260Y020164D01*
X016289Y020192D01*
X016322Y020218D01*
X016356Y020240D01*
X016393Y020259D01*
X016431Y020274D01*
X016471Y020286D01*
X016511Y020294D01*
X016552Y020298D01*
X016594Y020298D01*
X016635Y020294D01*
X016675Y020286D01*
X016715Y020274D01*
X016753Y020259D01*
X016789Y020240D01*
X016824Y020218D01*
X016857Y020192D01*
X016886Y020164D01*
X016913Y020133D01*
X016937Y020099D01*
X016958Y020063D01*
X016975Y020026D01*
X016988Y019987D01*
X016998Y019947D01*
X017004Y019906D01*
X017006Y019865D01*
X017004Y019824D01*
X016998Y019783D01*
X016988Y019743D01*
X016975Y019704D01*
X016958Y019667D01*
X016937Y019631D01*
X016913Y019597D01*
X016886Y019566D01*
X016857Y019538D01*
X016824Y019512D01*
X016790Y019490D01*
X016753Y019471D01*
X016715Y019456D01*
X016675Y019444D01*
X016635Y019436D01*
X016594Y019432D01*
X016552Y019432D01*
X016511Y019436D01*
X016471Y019444D01*
X016431Y019456D01*
X016393Y019471D01*
X016357Y019490D01*
X016322Y019512D01*
X016289Y019538D01*
X016260Y019566D01*
X016233Y019597D01*
X016209Y019631D01*
X016188Y019667D01*
X016171Y019704D01*
X016158Y019743D01*
X016148Y019783D01*
X016142Y019824D01*
X016140Y019865D01*
X012478Y021079D02*
X012480Y021123D01*
X012486Y021167D01*
X012496Y021210D01*
X012509Y021252D01*
X012527Y021292D01*
X012548Y021331D01*
X012572Y021368D01*
X012599Y021403D01*
X012630Y021435D01*
X012663Y021464D01*
X012699Y021490D01*
X012737Y021512D01*
X012777Y021531D01*
X012818Y021547D01*
X012861Y021559D01*
X012904Y021567D01*
X012948Y021571D01*
X012992Y021571D01*
X013036Y021567D01*
X013079Y021559D01*
X013122Y021547D01*
X013163Y021531D01*
X013203Y021512D01*
X013241Y021490D01*
X013277Y021464D01*
X013310Y021435D01*
X013341Y021403D01*
X013368Y021368D01*
X013392Y021331D01*
X013413Y021292D01*
X013431Y021252D01*
X013444Y021210D01*
X013454Y021167D01*
X013460Y021123D01*
X013462Y021079D01*
X013460Y021035D01*
X013454Y020991D01*
X013444Y020948D01*
X013431Y020906D01*
X013413Y020866D01*
X013392Y020827D01*
X013368Y020790D01*
X013341Y020755D01*
X013310Y020723D01*
X013277Y020694D01*
X013241Y020668D01*
X013203Y020646D01*
X013163Y020627D01*
X013122Y020611D01*
X013079Y020599D01*
X013036Y020591D01*
X012992Y020587D01*
X012948Y020587D01*
X012904Y020591D01*
X012861Y020599D01*
X012818Y020611D01*
X012777Y020627D01*
X012737Y020646D01*
X012699Y020668D01*
X012663Y020694D01*
X012630Y020723D01*
X012599Y020755D01*
X012572Y020790D01*
X012548Y020827D01*
X012527Y020866D01*
X012509Y020906D01*
X012496Y020948D01*
X012486Y020991D01*
X012480Y021035D01*
X012478Y021079D01*
X020144Y008781D02*
X020146Y008822D01*
X020152Y008863D01*
X020162Y008903D01*
X020175Y008942D01*
X020192Y008979D01*
X020213Y009015D01*
X020237Y009049D01*
X020264Y009080D01*
X020293Y009108D01*
X020326Y009134D01*
X020360Y009156D01*
X020397Y009175D01*
X020435Y009190D01*
X020475Y009202D01*
X020515Y009210D01*
X020556Y009214D01*
X020598Y009214D01*
X020639Y009210D01*
X020679Y009202D01*
X020719Y009190D01*
X020757Y009175D01*
X020793Y009156D01*
X020828Y009134D01*
X020861Y009108D01*
X020890Y009080D01*
X020917Y009049D01*
X020941Y009015D01*
X020962Y008979D01*
X020979Y008942D01*
X020992Y008903D01*
X021002Y008863D01*
X021008Y008822D01*
X021010Y008781D01*
X021008Y008740D01*
X021002Y008699D01*
X020992Y008659D01*
X020979Y008620D01*
X020962Y008583D01*
X020941Y008547D01*
X020917Y008513D01*
X020890Y008482D01*
X020861Y008454D01*
X020828Y008428D01*
X020794Y008406D01*
X020757Y008387D01*
X020719Y008372D01*
X020679Y008360D01*
X020639Y008352D01*
X020598Y008348D01*
X020556Y008348D01*
X020515Y008352D01*
X020475Y008360D01*
X020435Y008372D01*
X020397Y008387D01*
X020361Y008406D01*
X020326Y008428D01*
X020293Y008454D01*
X020264Y008482D01*
X020237Y008513D01*
X020213Y008547D01*
X020192Y008583D01*
X020175Y008620D01*
X020162Y008659D01*
X020152Y008699D01*
X020146Y008740D01*
X020144Y008781D01*
X023929Y002550D02*
X023931Y002594D01*
X023937Y002638D01*
X023947Y002681D01*
X023960Y002723D01*
X023978Y002763D01*
X023999Y002802D01*
X024023Y002839D01*
X024050Y002874D01*
X024081Y002906D01*
X024114Y002935D01*
X024150Y002961D01*
X024188Y002983D01*
X024228Y003002D01*
X024269Y003018D01*
X024312Y003030D01*
X024355Y003038D01*
X024399Y003042D01*
X024443Y003042D01*
X024487Y003038D01*
X024530Y003030D01*
X024573Y003018D01*
X024614Y003002D01*
X024654Y002983D01*
X024692Y002961D01*
X024728Y002935D01*
X024761Y002906D01*
X024792Y002874D01*
X024819Y002839D01*
X024843Y002802D01*
X024864Y002763D01*
X024882Y002723D01*
X024895Y002681D01*
X024905Y002638D01*
X024911Y002594D01*
X024913Y002550D01*
X024911Y002506D01*
X024905Y002462D01*
X024895Y002419D01*
X024882Y002377D01*
X024864Y002337D01*
X024843Y002298D01*
X024819Y002261D01*
X024792Y002226D01*
X024761Y002194D01*
X024728Y002165D01*
X024692Y002139D01*
X024654Y002117D01*
X024614Y002098D01*
X024573Y002082D01*
X024530Y002070D01*
X024487Y002062D01*
X024443Y002058D01*
X024399Y002058D01*
X024355Y002062D01*
X024312Y002070D01*
X024269Y002082D01*
X024228Y002098D01*
X024188Y002117D01*
X024150Y002139D01*
X024114Y002165D01*
X024081Y002194D01*
X024050Y002226D01*
X024023Y002261D01*
X023999Y002298D01*
X023978Y002337D01*
X023960Y002377D01*
X023947Y002419D01*
X023937Y002462D01*
X023931Y002506D01*
X023929Y002550D01*
X033359Y021185D02*
X033361Y021229D01*
X033367Y021273D01*
X033377Y021316D01*
X033390Y021358D01*
X033408Y021398D01*
X033429Y021437D01*
X033453Y021474D01*
X033480Y021509D01*
X033511Y021541D01*
X033544Y021570D01*
X033580Y021596D01*
X033618Y021618D01*
X033658Y021637D01*
X033699Y021653D01*
X033742Y021665D01*
X033785Y021673D01*
X033829Y021677D01*
X033873Y021677D01*
X033917Y021673D01*
X033960Y021665D01*
X034003Y021653D01*
X034044Y021637D01*
X034084Y021618D01*
X034122Y021596D01*
X034158Y021570D01*
X034191Y021541D01*
X034222Y021509D01*
X034249Y021474D01*
X034273Y021437D01*
X034294Y021398D01*
X034312Y021358D01*
X034325Y021316D01*
X034335Y021273D01*
X034341Y021229D01*
X034343Y021185D01*
X034341Y021141D01*
X034335Y021097D01*
X034325Y021054D01*
X034312Y021012D01*
X034294Y020972D01*
X034273Y020933D01*
X034249Y020896D01*
X034222Y020861D01*
X034191Y020829D01*
X034158Y020800D01*
X034122Y020774D01*
X034084Y020752D01*
X034044Y020733D01*
X034003Y020717D01*
X033960Y020705D01*
X033917Y020697D01*
X033873Y020693D01*
X033829Y020693D01*
X033785Y020697D01*
X033742Y020705D01*
X033699Y020717D01*
X033658Y020733D01*
X033618Y020752D01*
X033580Y020774D01*
X033544Y020800D01*
X033511Y020829D01*
X033480Y020861D01*
X033453Y020896D01*
X033429Y020933D01*
X033408Y020972D01*
X033390Y021012D01*
X033377Y021054D01*
X033367Y021097D01*
X033361Y021141D01*
X033359Y021185D01*
D11*
X030126Y021097D02*
X030126Y021609D01*
X030126Y020704D02*
X030126Y020192D01*
X030126Y019798D02*
X030126Y019286D01*
X030123Y019061D02*
X030123Y018846D01*
X029932Y018846D01*
X029808Y018850D02*
X029251Y018850D01*
X028857Y018849D02*
X028301Y018848D01*
X027907Y018847D02*
X027350Y018846D01*
X027227Y018846D02*
X026972Y018848D01*
X026972Y019085D01*
X026971Y019789D02*
X026971Y020242D01*
X026971Y020635D02*
X026971Y021088D01*
X026531Y020789D02*
X026104Y020789D01*
X025710Y020789D02*
X025283Y020789D01*
X024889Y020789D02*
X024461Y020788D01*
X024068Y020788D02*
X023640Y020788D01*
X023247Y020788D02*
X022819Y020788D01*
X022426Y020788D02*
X021998Y020788D01*
X021605Y020788D02*
X021177Y020788D01*
X020784Y020788D02*
X020356Y020788D01*
X019963Y020788D02*
X019535Y020787D01*
X019485Y020845D02*
X019486Y021474D01*
X019487Y021868D02*
X019488Y022497D01*
X022475Y016152D02*
X022477Y016174D01*
X022482Y016194D01*
X022492Y016214D01*
X022504Y016232D01*
X022519Y016247D01*
X022537Y016259D01*
X022557Y016269D01*
X022577Y016274D01*
X022599Y016276D01*
X022621Y016274D01*
X022641Y016269D01*
X022661Y016259D01*
X022679Y016247D01*
X022694Y016232D01*
X022706Y016214D01*
X022716Y016194D01*
X022721Y016174D01*
X022723Y016152D01*
X022721Y016130D01*
X022716Y016110D01*
X022706Y016090D01*
X022694Y016072D01*
X022679Y016057D01*
X022661Y016045D01*
X022641Y016035D01*
X022621Y016030D01*
X022599Y016028D01*
X022577Y016030D01*
X022557Y016035D01*
X022537Y016045D01*
X022519Y016057D01*
X022504Y016072D01*
X022492Y016090D01*
X022482Y016110D01*
X022477Y016130D01*
X022475Y016152D01*
X027609Y012716D02*
X028620Y012237D01*
X029825Y014726D01*
X028839Y015175D01*
X027609Y012716D01*
X027418Y012368D02*
X028394Y011896D01*
X027107Y009344D01*
X026109Y009823D01*
X027418Y012368D01*
X028621Y011595D02*
X028806Y011964D01*
X028982Y012316D02*
X029166Y012686D01*
X029343Y013038D02*
X029527Y013407D01*
X029703Y013759D02*
X029888Y014129D01*
X030064Y014481D02*
X030249Y014850D01*
X030342Y015032D02*
X030450Y015241D01*
X030352Y015239D02*
X029918Y015456D01*
X029566Y015632D02*
X029132Y015849D01*
X028995Y015922D02*
X028691Y016071D01*
X028840Y016370D01*
X028893Y016472D02*
X029123Y016931D01*
X029299Y017283D02*
X029529Y017743D01*
X029706Y018095D02*
X029936Y018554D01*
X029988Y018659D02*
X030105Y018891D01*
X030351Y018768D01*
X030559Y018665D02*
X030966Y018461D01*
X031318Y018285D02*
X031725Y018081D01*
X032077Y017904D02*
X032483Y017700D01*
X031301Y014725D02*
X031642Y014581D01*
X028445Y011243D02*
X028260Y010873D01*
X028084Y010521D02*
X027899Y010152D01*
X027723Y009800D02*
X027539Y009430D01*
X027363Y009078D02*
X027178Y008709D01*
X027168Y008694D02*
X027072Y008512D01*
X027249Y008423D01*
X027327Y008385D02*
X027741Y008177D01*
X028093Y008001D02*
X028508Y007794D01*
X017793Y004747D02*
X017793Y003723D01*
X017557Y003723D02*
X017557Y004747D01*
X017045Y004747D02*
X017045Y003723D01*
X016809Y003723D02*
X016809Y004747D01*
X014919Y004668D02*
X014919Y003684D01*
X014604Y003645D02*
X014604Y004708D01*
X014092Y004668D02*
X014092Y003684D01*
X013856Y003684D02*
X013856Y004668D01*
X008614Y007360D02*
X008715Y007559D01*
X008513Y007662D01*
X008400Y007716D02*
X007895Y007969D01*
X007543Y008145D02*
X007038Y008398D01*
X006955Y008403D02*
X006743Y008505D01*
X006955Y008403D02*
X007059Y008607D01*
X007099Y008684D02*
X007281Y009047D01*
X007457Y009400D02*
X007639Y009763D01*
X007816Y010115D02*
X007997Y010479D01*
X008174Y010831D02*
X008355Y011194D01*
X008532Y011546D02*
X008713Y011910D01*
X008890Y012262D02*
X009072Y012625D01*
X009248Y012977D02*
X009430Y013341D01*
X009606Y013693D02*
X009788Y014056D01*
X009964Y014408D02*
X010146Y014772D01*
X010225Y014933D02*
X010325Y015129D01*
X010184Y015199D01*
X009981Y015305D02*
X009527Y015532D01*
X009175Y015708D02*
X008721Y015935D01*
X010605Y014954D02*
X009684Y012922D01*
X010684Y012422D01*
X011605Y014454D01*
X010605Y014954D01*
X008908Y011079D02*
X007908Y009204D01*
X008908Y008704D01*
X009846Y010579D01*
X008908Y011079D01*
X008477Y007094D02*
X008263Y006667D01*
X008087Y006315D02*
X007873Y005888D01*
X007696Y005536D02*
X007482Y005109D01*
X007423Y004975D02*
X007299Y004733D01*
X007088Y004846D01*
X006837Y004973D02*
X006471Y005158D01*
X006119Y005336D02*
X005753Y005521D01*
X005402Y005699D02*
X005036Y005884D01*
D12*
X005003Y005685D02*
X005169Y005602D01*
X005004Y005271D01*
X004838Y005353D01*
X004811Y005436D01*
X004920Y005657D01*
X005003Y005685D01*
X005278Y005548D02*
X005113Y005217D01*
X005499Y005439D01*
X005334Y005107D01*
X005470Y005108D02*
X005525Y005219D01*
X005636Y005164D01*
X005801Y005220D02*
X005691Y004998D01*
X005609Y004971D01*
X005498Y005025D01*
X005470Y005108D01*
X005580Y005329D02*
X005663Y005357D01*
X005773Y005302D01*
X005801Y005220D01*
X008149Y006138D02*
X008370Y006028D01*
X008536Y006083D01*
X008480Y006249D01*
X008259Y006359D01*
X008340Y006523D02*
X008589Y006606D01*
X008479Y006385D01*
X008672Y006358D02*
X008340Y006523D01*
X008532Y006770D02*
X008504Y006853D01*
X008559Y006963D01*
X008642Y006991D01*
X008806Y007045D02*
X008916Y007266D01*
X008751Y007210D02*
X008972Y007101D01*
X008918Y006854D02*
X008587Y006742D01*
X008532Y006770D01*
X008808Y006633D02*
X008918Y006854D01*
X009377Y005230D02*
X009624Y004983D01*
X009624Y004921D01*
X009562Y004860D01*
X009439Y004860D01*
X009377Y004921D01*
X009255Y005045D02*
X009008Y005045D01*
X009132Y005168D02*
X009132Y004921D01*
X009377Y005230D02*
X009624Y005230D01*
X009745Y005045D02*
X009992Y005045D01*
X010113Y005106D02*
X010113Y004860D01*
X009930Y004860D02*
X009745Y005045D01*
X009930Y005230D02*
X009930Y004860D01*
X010113Y005106D02*
X010237Y005230D01*
X010360Y005106D01*
X010360Y004860D01*
X007255Y003208D02*
X007255Y003023D01*
X006885Y003023D01*
X006885Y003208D01*
X006947Y003269D01*
X007194Y003269D01*
X007255Y003208D01*
X007255Y002901D02*
X006885Y002901D01*
X007255Y002654D01*
X006885Y002654D01*
X006947Y002533D02*
X007070Y002533D01*
X007070Y002409D01*
X006947Y002286D02*
X007194Y002286D01*
X007255Y002348D01*
X007255Y002471D01*
X007194Y002533D01*
X006947Y002533D02*
X006885Y002471D01*
X006885Y002348D01*
X006947Y002286D01*
X017948Y010435D02*
X018169Y010546D01*
X017920Y010628D01*
X018086Y010297D01*
X018333Y010490D02*
X018415Y010462D01*
X018526Y010517D01*
X018553Y010600D01*
X018443Y010821D01*
X018360Y010848D01*
X018250Y010793D01*
X018222Y010710D01*
X014315Y014793D02*
X014199Y014751D01*
X014119Y014788D01*
X014026Y014688D02*
X013910Y014646D01*
X013968Y014667D02*
X013842Y015015D01*
X013900Y015036D02*
X013784Y014994D01*
X013690Y014894D02*
X013775Y014662D01*
X013738Y014583D01*
X013622Y014541D01*
X013543Y014578D01*
X013458Y014810D02*
X013495Y014889D01*
X013611Y014931D01*
X013690Y014894D01*
X013706Y015210D02*
X013579Y015558D01*
X013405Y015495D01*
X013368Y015416D01*
X013411Y015300D01*
X013490Y015263D01*
X013664Y015326D01*
X013548Y015284D02*
X013474Y015126D01*
X013820Y015252D02*
X014052Y015336D01*
X013925Y015684D01*
X013693Y015600D01*
X013873Y015468D02*
X013989Y015510D01*
X014166Y015378D02*
X014039Y015726D01*
X014198Y015652D01*
X014271Y015810D01*
X014398Y015462D01*
X014512Y015504D02*
X014385Y015852D01*
X014544Y015778D01*
X014617Y015936D01*
X014744Y015588D01*
X014858Y015630D02*
X014774Y015862D01*
X014848Y016020D01*
X015006Y015946D01*
X015090Y015714D01*
X015204Y015756D02*
X015436Y015840D01*
X015310Y016188D01*
X015173Y016383D02*
X015210Y016462D01*
X015173Y016383D02*
X015057Y016340D01*
X014978Y016377D01*
X014957Y016435D01*
X014994Y016514D01*
X015110Y016557D01*
X015147Y016636D01*
X015126Y016694D01*
X015046Y016731D01*
X014930Y016688D01*
X014894Y016609D01*
X014801Y016510D02*
X014885Y016278D01*
X014822Y016452D02*
X014590Y016367D01*
X014569Y016425D02*
X014653Y016193D01*
X014497Y016268D02*
X014423Y016110D01*
X014265Y016183D01*
X014180Y016415D01*
X014066Y016374D02*
X013950Y016332D01*
X014008Y016353D02*
X014135Y016005D01*
X014193Y016026D02*
X014077Y015984D01*
X013941Y016000D02*
X013857Y016232D01*
X013777Y016269D01*
X013661Y016227D01*
X013625Y016147D01*
X013709Y015915D02*
X013788Y015879D01*
X013904Y015921D01*
X013941Y016000D01*
X014497Y016268D02*
X014412Y016500D01*
X014569Y016425D02*
X014642Y016584D01*
X014801Y016510D01*
X015027Y015888D02*
X014795Y015804D01*
X015053Y015456D02*
X014979Y015298D01*
X015063Y015066D01*
X014907Y015140D02*
X014833Y014982D01*
X014675Y015056D01*
X014591Y015288D01*
X014477Y015246D02*
X014361Y015204D01*
X014419Y015225D02*
X014545Y014877D01*
X014603Y014898D02*
X014487Y014856D01*
X014351Y014872D02*
X014267Y015104D01*
X014188Y015141D01*
X014072Y015099D01*
X014035Y015020D01*
X014351Y014872D02*
X014315Y014793D01*
X014907Y015140D02*
X014823Y015372D01*
X015000Y015240D02*
X015232Y015324D01*
X015211Y015382D02*
X015053Y015456D01*
X015211Y015382D02*
X015295Y015150D01*
X015388Y015250D02*
X015468Y015213D01*
X015584Y015255D01*
X015620Y015334D01*
X015520Y015429D02*
X015404Y015387D01*
X015367Y015308D01*
X015388Y015250D01*
X015520Y015429D02*
X015557Y015508D01*
X015536Y015566D01*
X015457Y015603D01*
X015341Y015561D01*
X015304Y015482D01*
X016414Y016983D02*
X016568Y017065D01*
X016509Y017083D02*
X016686Y017028D01*
X016650Y016910D02*
X016758Y017265D01*
X016581Y017319D01*
X016504Y017278D01*
X016468Y017160D01*
X016509Y017083D01*
X016316Y017077D02*
X016239Y017036D01*
X016121Y017072D01*
X016080Y017149D01*
X016152Y017385D01*
X016229Y017426D01*
X016347Y017390D01*
X016388Y017313D01*
X016316Y017077D01*
X015946Y017126D02*
X016054Y017480D01*
X015710Y017198D01*
X015818Y017552D01*
X016373Y017687D02*
X016445Y017923D01*
X016522Y017964D01*
X016640Y017928D01*
X016681Y017851D01*
X016609Y017615D01*
X016532Y017574D01*
X016414Y017610D01*
X016373Y017687D01*
X016707Y017520D02*
X016938Y017643D01*
X016979Y017566D02*
X016815Y017875D01*
X017051Y017802D02*
X016943Y017448D01*
X017077Y017472D02*
X017118Y017395D01*
X017236Y017359D01*
X017313Y017400D01*
X017412Y017305D02*
X017530Y017269D01*
X017471Y017287D02*
X017579Y017641D01*
X017638Y017623D02*
X017520Y017659D01*
X017385Y017636D02*
X017367Y017577D01*
X017290Y017536D01*
X017172Y017572D01*
X017095Y017531D01*
X017077Y017472D01*
X017149Y017708D02*
X017226Y017749D01*
X017344Y017713D01*
X017385Y017636D01*
X017736Y017528D02*
X017813Y017569D01*
X017991Y017515D01*
X017882Y017161D01*
X017705Y017215D01*
X017664Y017292D01*
X017736Y017528D01*
X017579Y017014D02*
X017471Y016660D01*
X017355Y016695D02*
X017119Y016767D01*
X017002Y016803D02*
X017111Y017157D01*
X016934Y017211D01*
X016857Y017170D01*
X016784Y016934D01*
X016825Y016857D01*
X017002Y016803D01*
X017291Y016908D02*
X017409Y016872D01*
X017525Y016837D02*
X017761Y016764D01*
X017707Y016587D02*
X017815Y016941D01*
X017463Y017049D02*
X017227Y017121D01*
X017463Y017049D02*
X017355Y016695D01*
X019901Y016893D02*
X019928Y016838D01*
X020011Y016811D01*
X019983Y016728D01*
X020011Y016673D01*
X020094Y016645D01*
X020204Y016700D01*
X020232Y016783D01*
X020340Y016837D02*
X020423Y016810D01*
X020534Y016865D01*
X020561Y016948D01*
X020451Y017169D01*
X020368Y017196D01*
X020257Y017141D01*
X020230Y017058D01*
X020121Y017004D02*
X020038Y017031D01*
X019928Y016976D01*
X019901Y016893D01*
X020011Y016811D02*
X020066Y016838D01*
X026489Y018941D02*
X026736Y018941D01*
X026613Y018818D02*
X026613Y019065D01*
X026736Y019186D02*
X026798Y019248D01*
X026798Y019371D01*
X026736Y019433D01*
X026674Y019433D01*
X026427Y019186D01*
X026427Y019433D01*
X026613Y019554D02*
X026613Y019801D01*
X026551Y019923D02*
X026427Y020046D01*
X026551Y020170D01*
X026798Y020170D01*
X026798Y019923D02*
X026551Y019923D01*
X026427Y019740D02*
X026798Y019740D01*
X026613Y019554D01*
X030242Y020500D02*
X030304Y020438D01*
X030551Y020438D01*
X030613Y020500D01*
X030613Y020624D01*
X030551Y020685D01*
X030428Y020685D02*
X030428Y020562D01*
X030428Y020685D02*
X030304Y020685D01*
X030242Y020624D01*
X030242Y020500D01*
X030242Y020807D02*
X030613Y020807D01*
X030242Y021054D01*
X030613Y021054D01*
X030613Y021175D02*
X030242Y021175D01*
X030242Y021360D01*
X030304Y021422D01*
X030551Y021422D01*
X030613Y021360D01*
X030613Y021175D01*
X031752Y018535D02*
X031834Y018563D01*
X032000Y018481D01*
X031836Y018149D01*
X031670Y018231D01*
X031642Y018314D01*
X031752Y018535D01*
X032109Y018427D02*
X031944Y018095D01*
X032330Y018317D01*
X032165Y017985D01*
X032302Y017987D02*
X032330Y017904D01*
X032440Y017849D01*
X032523Y017877D01*
X032633Y018098D01*
X032605Y018181D01*
X032494Y018236D01*
X032411Y018208D01*
X032357Y018097D02*
X032467Y018042D01*
X032357Y018097D02*
X032302Y017987D01*
X029510Y015468D02*
X029423Y015295D01*
X029293Y015252D01*
X029250Y015382D01*
X029337Y015555D01*
X029535Y015293D02*
X029708Y015207D01*
X029643Y015401D01*
X029513Y015142D01*
X029733Y015032D02*
X029906Y014945D01*
X029820Y015205D01*
X029842Y015248D01*
X029907Y015269D01*
X029993Y015226D01*
X030015Y015161D01*
X030062Y015029D02*
X030235Y014943D01*
X030192Y015073D02*
X030105Y014900D01*
X027285Y007886D02*
X027231Y007776D01*
X027258Y007831D02*
X027590Y007666D01*
X027617Y007721D02*
X027562Y007611D01*
X027508Y007501D02*
X027176Y007666D01*
X027398Y007280D01*
X027067Y007445D01*
X027178Y007254D02*
X027069Y007033D01*
X027070Y006897D02*
X026988Y006731D01*
X026905Y006703D01*
X026794Y006758D01*
X026766Y006840D01*
X026849Y007006D01*
X027180Y006842D01*
X027015Y006786D02*
X027071Y006621D01*
X027168Y006300D02*
X027085Y006134D01*
X027113Y006051D01*
X027224Y005996D01*
X027307Y006024D01*
X027389Y006190D01*
X027500Y006135D02*
X027168Y006300D01*
X027388Y006326D02*
X027497Y006547D01*
X027386Y006738D02*
X027495Y006959D01*
X027549Y007068D02*
X027826Y006931D01*
X027908Y006959D01*
X027963Y007069D01*
X027936Y007152D01*
X027659Y007289D01*
X027768Y007371D02*
X027741Y007453D01*
X027795Y007564D01*
X027878Y007592D01*
X028099Y007482D01*
X028127Y007399D01*
X028072Y007289D01*
X027990Y007261D01*
X027768Y007371D01*
X027440Y006849D02*
X027772Y006684D01*
X027334Y006079D02*
X027390Y005914D01*
X023115Y002224D02*
X023115Y002031D01*
X023115Y002128D02*
X023018Y002224D01*
X022970Y002224D01*
X022869Y002176D02*
X022821Y002224D01*
X022724Y002224D01*
X022676Y002176D01*
X022676Y002128D01*
X022869Y002128D01*
X022869Y002176D02*
X022869Y002079D01*
X022821Y002031D01*
X022724Y002031D01*
X022767Y001845D02*
X022670Y001845D01*
X022622Y001797D01*
X022815Y001603D01*
X022767Y001555D01*
X022670Y001555D01*
X022622Y001603D01*
X022622Y001797D01*
X022767Y001845D02*
X022815Y001797D01*
X022815Y001603D01*
X022916Y001555D02*
X023110Y001555D01*
X023013Y001555D02*
X023013Y001845D01*
X023110Y001748D01*
X022521Y001555D02*
X022327Y001845D01*
X022226Y001797D02*
X022178Y001845D01*
X022081Y001845D01*
X022032Y001797D01*
X022032Y001748D01*
X022226Y001555D01*
X022032Y001555D01*
X021931Y001603D02*
X021883Y001555D01*
X021786Y001555D01*
X021738Y001603D01*
X021738Y001797D01*
X021931Y001603D01*
X021931Y001797D01*
X021883Y001845D01*
X021786Y001845D01*
X021738Y001797D01*
X021637Y001748D02*
X021540Y001845D01*
X021540Y001555D01*
X021637Y001555D02*
X021443Y001555D01*
X021342Y001700D02*
X021148Y001700D01*
X021197Y001845D02*
X021342Y001700D01*
X021197Y001555D02*
X021197Y001845D01*
X021939Y002079D02*
X021939Y002273D01*
X021988Y002321D01*
X022133Y002321D01*
X022133Y002031D01*
X021988Y002031D01*
X021939Y002079D01*
X022232Y002079D02*
X022232Y002031D01*
X022280Y002031D01*
X022280Y002079D01*
X022232Y002079D01*
X022381Y002224D02*
X022478Y002031D01*
X022575Y002224D01*
X020188Y002060D02*
X020188Y001813D01*
X020126Y001751D01*
X020003Y001751D01*
X019941Y001813D01*
X019941Y002060D01*
X020003Y002121D01*
X020126Y002121D01*
X020188Y002060D01*
X019819Y002121D02*
X019819Y001813D01*
X019758Y001751D01*
X019634Y001751D01*
X019573Y001813D01*
X019573Y002121D01*
X019451Y002121D02*
X019204Y002121D01*
X019328Y002121D02*
X019328Y001751D01*
X019083Y001936D02*
X018836Y001936D01*
X018715Y001998D02*
X018653Y001936D01*
X018529Y001936D01*
X018468Y001874D01*
X018468Y001813D01*
X018529Y001751D01*
X018653Y001751D01*
X018715Y001813D01*
X018715Y001998D02*
X018715Y002060D01*
X018653Y002121D01*
X018529Y002121D01*
X018468Y002060D01*
X010158Y016983D02*
X010075Y016955D01*
X009854Y017065D01*
X009826Y017148D01*
X009881Y017258D01*
X009964Y017286D01*
X010185Y017176D01*
X010213Y017093D01*
X010158Y016983D01*
X010294Y017257D02*
X010018Y017395D01*
X009990Y017477D01*
X010045Y017588D01*
X010128Y017616D01*
X010404Y017479D01*
X010458Y017587D02*
X010568Y017809D01*
X010513Y017698D02*
X010181Y017863D01*
X010456Y018000D02*
X010566Y018221D01*
X010785Y018247D02*
X010454Y018412D01*
X010564Y018633D01*
X015993Y021830D02*
X016116Y021830D01*
X016054Y021830D02*
X016054Y022201D01*
X015993Y022201D02*
X016116Y022201D01*
X016238Y022201D02*
X016238Y021830D01*
X016485Y022201D01*
X016485Y021830D01*
X016606Y021830D02*
X016606Y022201D01*
X016606Y022077D02*
X016792Y022077D01*
X016853Y022015D01*
X016853Y021892D01*
X016792Y021830D01*
X016606Y021830D01*
X016975Y021830D02*
X016975Y022139D01*
X017036Y022201D01*
X017160Y022201D01*
X017222Y022139D01*
X017222Y021830D01*
X017343Y021830D02*
X017590Y021830D01*
X017466Y021830D02*
X017466Y022201D01*
D13*
X004413Y001214D02*
X001539Y001213D01*
X004388Y001213D01*
X007115Y001213D01*
X007230Y001441D01*
X006758Y002071D01*
X006748Y002144D01*
X006234Y002834D01*
X006132Y002757D01*
X005911Y003053D01*
X005971Y003098D01*
X005975Y003115D01*
X005594Y003624D01*
X005298Y003031D01*
X005377Y002991D01*
X005217Y002671D01*
X005105Y002727D01*
X004719Y001954D01*
X004710Y001857D01*
X004388Y001213D01*
X004413Y001214D02*
X004305Y001214D01*
X004657Y001918D01*
X004718Y001958D01*
X005105Y002727D01*
X004991Y002783D01*
X005156Y003114D01*
X005224Y003080D01*
X005241Y003085D01*
X005525Y003653D01*
X004862Y003653D01*
X004862Y003563D01*
X004504Y003563D01*
X004504Y003689D01*
X003640Y003689D01*
X003550Y003653D01*
X002797Y003653D01*
X002461Y002979D01*
X002385Y002911D01*
X001999Y002139D01*
X002116Y002081D01*
X001950Y001751D01*
X001882Y001785D01*
X001861Y001781D01*
X001578Y001214D01*
X004305Y001214D01*
X004413Y001214D02*
X025254Y001214D01*
X027292Y005290D01*
X026510Y003726D01*
X026467Y003720D01*
X025817Y003340D01*
X025187Y003752D01*
X025091Y003771D01*
X024368Y004244D01*
X024437Y004349D01*
X024137Y004546D01*
X024088Y004471D01*
X023534Y004833D01*
X024083Y005153D01*
X024099Y005148D01*
X024138Y005082D01*
X024457Y005268D01*
X024392Y005378D01*
X025137Y005810D01*
X025210Y005810D01*
X025890Y006207D01*
X027292Y005290D01*
X027480Y005665D01*
X028245Y007197D01*
X028203Y007913D01*
X027511Y008209D01*
X027439Y008281D01*
X026646Y008621D01*
X026594Y008501D01*
X026256Y008647D01*
X026285Y008717D01*
X026280Y008738D01*
X025697Y008988D01*
X025856Y006266D01*
X026580Y005955D01*
X026624Y005897D01*
X027414Y005555D01*
X027464Y005672D01*
X027480Y005665D01*
X028315Y007336D01*
X028846Y007690D01*
X030005Y009991D01*
X030265Y010506D01*
X030214Y010503D01*
X030191Y010860D01*
X030317Y010868D01*
X030261Y011731D01*
X030219Y011819D01*
X030171Y012570D01*
X029477Y012862D01*
X029405Y012933D01*
X029506Y012931D01*
X030200Y012638D01*
X030772Y013127D01*
X030864Y013159D01*
X031520Y013720D01*
X031439Y013816D01*
X031711Y014049D01*
X031769Y013981D01*
X032201Y014350D01*
X031232Y014892D01*
X032147Y016723D01*
X032113Y017209D01*
X031418Y017497D01*
X031345Y017568D01*
X030547Y017899D01*
X030597Y018020D01*
X030257Y018161D01*
X030227Y018090D01*
X030208Y018080D01*
X029623Y018323D01*
X031684Y020108D01*
X032411Y019806D01*
X032484Y019816D01*
X033280Y019488D01*
X033328Y019606D01*
X033670Y019467D01*
X033641Y019396D01*
X033647Y019380D01*
X034224Y019144D01*
X034233Y019163D02*
X034147Y020775D01*
X034194Y020160D01*
X034068Y020151D01*
X034096Y019793D01*
X034185Y019800D01*
X034233Y019163D01*
X034187Y019070D02*
X032640Y017709D01*
X032141Y017277D01*
X031446Y017566D01*
X031345Y017568D01*
X030547Y017899D02*
X030497Y017779D01*
X030157Y017920D01*
X030186Y017990D01*
X030180Y018012D01*
X029594Y018254D01*
X029786Y015534D01*
X030512Y015232D01*
X030557Y015174D01*
X031232Y014892D01*
X031218Y014865D02*
X032212Y014373D01*
X030005Y009991D01*
X029761Y010095D01*
X029755Y010111D01*
X029785Y010181D01*
X029444Y010325D01*
X029395Y010207D01*
X028603Y010544D01*
X028559Y010602D01*
X027834Y010909D01*
X026375Y010013D02*
X026311Y010123D01*
X025992Y009937D01*
X026030Y009871D01*
X026027Y009854D01*
X025478Y009534D01*
X025435Y010195D01*
X025524Y010201D01*
X025501Y010558D01*
X025376Y010550D01*
X025321Y011413D01*
X025351Y011505D01*
X025303Y012256D01*
X025953Y012635D01*
X026016Y012715D01*
X026761Y013150D01*
X026828Y013037D01*
X027146Y013223D01*
X027108Y013289D01*
X027111Y013311D01*
X027383Y013469D01*
X026876Y013951D01*
X026782Y013989D01*
X026155Y014583D01*
X026245Y014678D01*
X025977Y014931D01*
X025925Y014876D01*
X025903Y014873D01*
X025444Y015310D01*
X028007Y016240D01*
X028578Y015698D01*
X028649Y015681D01*
X029275Y015090D01*
X029187Y014998D01*
X029196Y014990D01*
X029759Y015471D02*
X030484Y015165D01*
X030557Y015174D01*
X030450Y015241D02*
X030686Y015123D01*
X031218Y014865D02*
X032655Y017739D01*
X032668Y017733D01*
X034168Y019032D01*
X033703Y018629D01*
X033644Y018697D01*
X033373Y018463D01*
X033456Y018368D01*
X032803Y017802D01*
X032710Y017770D01*
X032668Y017733D01*
X033246Y017444D01*
X033393Y017483D01*
X034168Y019032D01*
X035864Y022424D01*
X030103Y022423D01*
X030103Y022424D02*
X030103Y021647D01*
X028408Y021647D01*
X028381Y021414D01*
X028333Y021324D01*
X028234Y020467D01*
X028104Y020482D01*
X028062Y020116D01*
X028137Y020107D01*
X028153Y020091D01*
X028079Y019462D01*
X025797Y020954D01*
X025888Y021736D01*
X025859Y021804D01*
X025956Y022659D01*
X026083Y022644D01*
X026094Y022739D01*
X025662Y022739D01*
X023893Y022751D01*
X023240Y022376D01*
X023284Y021624D01*
X023253Y021532D01*
X023304Y020669D01*
X023429Y020677D01*
X023450Y020319D01*
X023361Y020314D01*
X023399Y019653D01*
X023950Y019969D01*
X023954Y019987D01*
X023916Y020052D01*
X024236Y020237D01*
X024299Y020126D01*
X025044Y020557D01*
X025081Y020621D01*
X025763Y021013D01*
X025662Y022739D01*
X022435Y022739D01*
X019991Y022739D01*
X020090Y021195D01*
X020815Y020889D01*
X020860Y020830D01*
X021652Y020493D01*
X021701Y020611D01*
X022041Y020467D01*
X022012Y020397D01*
X022017Y020381D01*
X022603Y020134D01*
X022560Y020795D01*
X022471Y020789D01*
X022448Y021146D01*
X022573Y021155D01*
X022518Y022017D01*
X022476Y022105D01*
X022435Y022739D01*
X019991Y022739D02*
X019476Y022739D01*
X018689Y022424D01*
X017743Y022424D01*
X014942Y022424D01*
X015100Y022102D01*
X015176Y022034D01*
X015506Y021358D01*
X016259Y021352D01*
X016349Y021315D01*
X017213Y021308D01*
X017214Y021434D01*
X017572Y021431D01*
X017572Y021342D01*
X018234Y021337D01*
X017955Y021907D01*
X017938Y021912D01*
X017869Y021878D01*
X017707Y022210D01*
X017822Y022266D01*
X017743Y022424D01*
X017571Y021269D02*
X017570Y021180D01*
X017212Y021183D01*
X017213Y021308D01*
X017571Y021269D02*
X018234Y021264D01*
X017945Y020698D01*
X017928Y020694D01*
X017860Y020728D01*
X017693Y020399D01*
X017807Y020342D01*
X017413Y019576D01*
X017352Y019536D01*
X016994Y018834D01*
X014268Y018856D01*
X014555Y019421D01*
X014577Y019425D01*
X014644Y019390D01*
X014812Y019719D01*
X014696Y019778D01*
X014580Y019837D01*
X014413Y019509D01*
X014480Y019474D01*
X014489Y019454D01*
X014201Y018890D01*
X012979Y020545D01*
X014670Y022424D01*
X014968Y022019D01*
X014993Y021925D01*
X015440Y021319D01*
X015098Y020649D01*
X015088Y020547D01*
X014696Y019778D01*
X014201Y018890D02*
X013577Y018781D01*
X013560Y018795D01*
X013547Y018870D01*
X013184Y018808D01*
X013206Y018679D01*
X012356Y018531D01*
X012256Y018552D01*
X011515Y018422D01*
X011068Y019028D01*
X010985Y019079D01*
X010680Y019492D01*
X012979Y020545D01*
X012492Y021068D02*
X011390Y020915D01*
X011738Y020974D01*
X011807Y020949D01*
X012492Y021068D01*
X012789Y021490D02*
X013222Y022424D01*
X012936Y021859D01*
X012940Y021785D01*
X012789Y021490D01*
X013222Y022424D02*
X012143Y022424D01*
X010680Y019492D01*
X010565Y019262D01*
X009393Y016914D01*
X009908Y016426D01*
X009995Y016519D01*
X010264Y016266D01*
X010212Y016211D01*
X010211Y016193D01*
X010674Y015758D01*
X010864Y016392D01*
X010778Y016418D01*
X010881Y016761D01*
X011002Y016725D01*
X011250Y017552D01*
X011241Y017650D01*
X011458Y018370D01*
X010909Y018886D01*
X010866Y018978D01*
X010565Y019262D01*
X009394Y016916D01*
X007992Y014839D01*
X008082Y014756D01*
X008786Y015021D01*
X008884Y015019D01*
X009692Y015323D01*
X009648Y015440D01*
X009983Y015566D01*
X010015Y015483D01*
X010635Y015716D01*
X010169Y016148D01*
X010151Y016146D01*
X010100Y016090D01*
X009829Y016342D01*
X009916Y016435D01*
X009394Y016916D01*
X009220Y016568D01*
X010040Y015415D02*
X010660Y015648D01*
X010594Y015016D01*
X010580Y015006D01*
X010505Y015014D01*
X010673Y015008D02*
X010743Y015639D01*
X011299Y015280D01*
X011251Y015205D01*
X011552Y015011D01*
X011620Y015116D01*
X012346Y014648D01*
X012402Y014568D01*
X013034Y014160D01*
X012951Y013412D01*
X012978Y013313D01*
X012884Y012456D01*
X013014Y012441D01*
X012973Y012075D01*
X012897Y012083D01*
X012879Y012071D01*
X012810Y011441D01*
X015367Y012386D01*
X015454Y013169D01*
X015497Y013228D01*
X015594Y014083D01*
X015467Y014097D01*
X015507Y014464D01*
X015583Y014456D01*
X015597Y014466D01*
X015667Y015097D01*
X015045Y014867D01*
X015076Y014784D01*
X014740Y014660D01*
X014697Y014777D01*
X013886Y014478D01*
X013814Y014413D01*
X013108Y014152D01*
X013026Y013403D01*
X012978Y013313D01*
X012884Y012456D02*
X012754Y012469D01*
X012714Y012103D01*
X012790Y012095D01*
X012805Y012079D01*
X012735Y011449D01*
X011007Y012553D01*
X011026Y012384D02*
X011659Y011801D01*
X011572Y011708D01*
X011843Y011457D01*
X011895Y011512D01*
X011912Y011514D01*
X012378Y011082D01*
X011758Y010849D01*
X011727Y010933D01*
X011391Y010807D01*
X011436Y010689D01*
X010627Y010385D01*
X010555Y010319D01*
X009850Y010054D01*
X009773Y009305D01*
X009726Y009215D01*
X009636Y008357D01*
X009766Y008343D01*
X009728Y007976D01*
X009652Y007984D01*
X009634Y007972D01*
X009568Y007342D01*
X012120Y008302D01*
X012202Y009085D01*
X012245Y009144D01*
X012337Y010000D01*
X012463Y009986D01*
X012504Y010353D01*
X012428Y010361D01*
X012416Y010374D01*
X012486Y011006D01*
X013043Y010646D01*
X012994Y010571D01*
X013295Y010377D01*
X013363Y010482D01*
X014089Y010014D01*
X014145Y009934D01*
X014778Y009526D01*
X014695Y008778D01*
X014722Y008680D01*
X014627Y007822D01*
X014757Y007807D01*
X014716Y007441D01*
X014641Y007449D01*
X014622Y007437D01*
X014553Y006807D01*
X017111Y007752D01*
X017197Y008535D01*
X017240Y008594D01*
X017337Y009449D01*
X017464Y009434D01*
X017506Y009801D01*
X017431Y009810D01*
X017419Y009823D01*
X017492Y010454D01*
X018047Y010091D01*
X017998Y010017D01*
X018297Y009821D01*
X018366Y009926D01*
X019089Y009453D01*
X019145Y009373D01*
X019775Y008961D01*
X019688Y008213D01*
X019708Y008140D01*
X018414Y006936D01*
X017178Y007745D01*
X017269Y008527D01*
X017240Y008594D01*
X017337Y009449D02*
X017210Y009463D01*
X017251Y009830D01*
X017326Y009822D01*
X017340Y009832D01*
X017410Y010463D01*
X016789Y010234D01*
X016819Y010150D01*
X016484Y010026D01*
X016440Y010144D01*
X015630Y009844D01*
X015532Y009847D01*
X014826Y009586D01*
X014277Y010101D01*
X014183Y010138D01*
X013553Y010729D01*
X013642Y010824D01*
X013373Y011076D01*
X013321Y011021D01*
X013299Y011017D01*
X012837Y011451D01*
X015395Y012396D01*
X015969Y011858D01*
X016040Y011841D01*
X016670Y011254D01*
X016582Y011162D01*
X016852Y010909D01*
X016904Y010964D01*
X016921Y010966D01*
X017385Y010531D01*
X016763Y010302D01*
X016732Y010386D01*
X016396Y010261D01*
X016440Y010144D01*
X015630Y009844D02*
X015557Y009779D01*
X014851Y009518D01*
X014769Y008770D01*
X014722Y008680D01*
X014627Y007822D02*
X014497Y007836D01*
X014457Y007469D01*
X014533Y007461D01*
X014549Y007445D01*
X014479Y006816D01*
X012188Y008295D01*
X012274Y009077D01*
X012245Y009144D01*
X012337Y010000D02*
X012210Y010013D01*
X012248Y010380D01*
X012323Y010372D01*
X012338Y010383D01*
X012404Y011014D01*
X011784Y010781D01*
X011815Y010698D01*
X011480Y010571D01*
X011436Y010689D01*
X010627Y010385D02*
X010529Y010387D01*
X009825Y010122D01*
X009775Y010068D02*
X009564Y009345D01*
X009573Y009248D01*
X009332Y008418D01*
X009211Y008454D01*
X009111Y008110D01*
X009197Y008085D01*
X009011Y007449D01*
X008545Y007880D01*
X008546Y007898D01*
X008597Y007954D01*
X008326Y008205D01*
X008240Y008111D01*
X007610Y008698D01*
X007588Y008768D01*
X007011Y009303D01*
X006237Y009162D01*
X006180Y009115D01*
X005684Y009023D01*
X006429Y011714D01*
X006767Y011775D01*
X006791Y011647D01*
X007154Y011713D01*
X007140Y011788D01*
X007151Y011808D01*
X007774Y011921D01*
X007011Y009303D01*
X006965Y009253D02*
X007539Y008715D01*
X007610Y008698D01*
X006965Y009253D02*
X005962Y008882D01*
X006218Y008753D02*
X005684Y009023D01*
X005204Y009265D01*
X008001Y014853D01*
X008107Y014688D02*
X008030Y013939D01*
X007983Y013849D01*
X007893Y012990D01*
X008023Y012976D01*
X007984Y012610D01*
X007909Y012618D01*
X007890Y012606D01*
X007825Y011975D01*
X009690Y012561D01*
X011026Y012384D02*
X011142Y012276D01*
X008634Y011353D02*
X008545Y011257D01*
X008456Y011162D01*
X008186Y011413D01*
X008238Y011468D01*
X008239Y011490D01*
X007774Y011921D01*
X007825Y011975D02*
X008290Y011544D01*
X008311Y011548D01*
X008363Y011603D01*
X008634Y011353D01*
X005899Y010651D02*
X005828Y010510D01*
X006218Y008753D02*
X005469Y007261D01*
X005753Y006995D01*
X005796Y006903D01*
X006345Y006389D01*
X006131Y005667D01*
X006139Y005570D01*
X005893Y004742D01*
X005772Y004778D01*
X005670Y004435D01*
X005756Y004409D01*
X005567Y003774D01*
X005103Y004209D01*
X005104Y004226D01*
X005156Y004282D01*
X004886Y004534D01*
X004799Y004441D01*
X004173Y005032D01*
X004152Y005102D01*
X003696Y005529D01*
X004004Y006145D02*
X001543Y001214D01*
X001578Y001214D01*
X005651Y003672D02*
X006048Y003142D01*
X006120Y003196D01*
X006335Y002909D01*
X006234Y002834D01*
X006753Y002143D01*
X006836Y002092D01*
X007288Y001490D01*
X008028Y001625D01*
X008128Y001605D01*
X008977Y001760D01*
X008954Y001888D01*
X009317Y001954D01*
X009330Y001879D01*
X009347Y001865D01*
X009970Y001979D01*
X008334Y004160D01*
X007560Y004019D01*
X007490Y004043D01*
X006643Y003892D01*
X006622Y004017D01*
X006258Y003953D01*
X006271Y003879D01*
X006262Y003864D01*
X005636Y003754D01*
X005825Y004389D01*
X005911Y004363D01*
X006013Y004706D01*
X005893Y004742D01*
X006139Y005570D02*
X006200Y005647D01*
X006415Y006368D01*
X007156Y006498D01*
X007243Y006551D01*
X008093Y006701D01*
X008116Y006572D01*
X008010Y007000D02*
X007200Y006701D01*
X007102Y006703D01*
X006396Y006443D01*
X005847Y006958D01*
X005753Y006995D01*
X005469Y007261D02*
X004781Y005889D01*
X004191Y006184D01*
X004004Y006145D01*
X005651Y003672D02*
X006276Y003786D01*
X006289Y003775D01*
X006303Y003700D01*
X006667Y003766D01*
X006643Y003892D01*
X007490Y004043D02*
X007547Y004090D01*
X008322Y004227D01*
X008896Y003688D01*
X008918Y003618D01*
X009544Y003028D01*
X009631Y003121D01*
X009900Y002868D01*
X009848Y002813D01*
X009848Y002795D01*
X010311Y002361D01*
X010500Y002996D01*
X010415Y003021D01*
X010517Y003364D01*
X010638Y003329D01*
X010884Y004157D01*
X010945Y004233D01*
X011160Y004954D01*
X011901Y005084D01*
X011988Y005138D01*
X012838Y005287D01*
X012861Y005159D01*
X013224Y005223D01*
X013211Y005298D01*
X013221Y005317D01*
X013491Y005229D01*
X013067Y002813D01*
X013641Y002275D01*
X013663Y002204D01*
X014289Y001614D01*
X014376Y001707D01*
X014645Y001455D01*
X014593Y001399D01*
X014593Y001382D01*
X014773Y001213D01*
X015135Y001213D01*
X015245Y001582D01*
X015160Y001608D01*
X015262Y001951D01*
X015382Y001915D01*
X015629Y002743D01*
X015620Y002840D01*
X015835Y003562D01*
X015482Y003919D01*
X015494Y003973D02*
X015886Y003615D01*
X015911Y003547D02*
X015829Y002799D01*
X015781Y002709D01*
X015687Y001851D01*
X015817Y001837D01*
X015776Y001470D01*
X015700Y001479D01*
X015682Y001467D01*
X015654Y001213D01*
X016629Y001213D01*
X018170Y001782D01*
X018257Y002564D01*
X018300Y002624D01*
X018396Y003479D01*
X018523Y003464D01*
X018566Y003831D01*
X018490Y003840D01*
X018479Y003853D01*
X018552Y004484D01*
X019106Y004121D01*
X019057Y004046D01*
X019357Y003850D01*
X019426Y003955D01*
X020149Y003482D01*
X020244Y003463D01*
X020874Y003051D01*
X021524Y003431D01*
X021625Y003446D01*
X022371Y003881D01*
X022437Y003768D01*
X022755Y003954D01*
X022717Y004020D01*
X022720Y004042D01*
X023268Y004361D01*
X023443Y001639D01*
X022763Y001243D01*
X022726Y001179D01*
X021115Y001213D01*
X021111Y001289D01*
X020985Y001281D01*
X020930Y002143D01*
X020960Y002236D01*
X020912Y002987D01*
X021562Y003366D01*
X021625Y003446D01*
X022371Y003881D02*
X022305Y003994D01*
X022624Y004179D01*
X022662Y004114D01*
X022683Y004106D01*
X023230Y004425D01*
X020948Y005918D01*
X020268Y005521D01*
X020194Y005521D01*
X019450Y005089D01*
X019387Y005200D01*
X019066Y005016D01*
X019104Y004950D01*
X019101Y004933D01*
X018550Y004616D01*
X018511Y005277D01*
X018601Y005283D01*
X018580Y005640D01*
X018454Y005633D01*
X018404Y006495D01*
X018435Y006588D01*
X018414Y006936D01*
X018391Y007339D01*
X019043Y007714D01*
X019107Y007794D01*
X019855Y008224D01*
X019920Y008111D01*
X020240Y008295D01*
X020202Y008361D01*
X020205Y008383D01*
X020755Y008699D01*
X020914Y005977D01*
X021637Y005666D01*
X021681Y005608D01*
X022471Y005266D01*
X022521Y005383D01*
X022861Y005238D01*
X022831Y005168D01*
X022836Y005151D01*
X023420Y004901D01*
X023381Y005562D01*
X023292Y005557D01*
X023271Y005914D01*
X023397Y005922D01*
X023346Y006784D01*
X023377Y006877D01*
X023333Y007628D01*
X023986Y008003D01*
X024049Y008083D01*
X024797Y008513D01*
X024863Y008400D01*
X025182Y008584D01*
X025144Y008650D01*
X025147Y008672D01*
X025697Y008988D01*
X025373Y009453D02*
X024867Y009026D01*
X024809Y009094D01*
X024536Y008863D01*
X024617Y008767D01*
X023957Y008209D01*
X023865Y008178D01*
X023290Y007692D01*
X022598Y007989D01*
X022497Y007992D01*
X021704Y008332D01*
X021755Y008453D01*
X021416Y008597D01*
X021386Y008528D01*
X021366Y008517D01*
X020784Y008767D01*
X022866Y010528D01*
X022681Y011293D01*
X022701Y011364D01*
X022500Y012200D01*
X022376Y012170D01*
X022289Y012529D01*
X022363Y012547D01*
X022373Y012561D01*
X022223Y013178D01*
X021717Y012751D01*
X021775Y012682D01*
X021502Y012451D01*
X021420Y012547D01*
X020761Y011989D01*
X020715Y011903D01*
X020140Y011417D01*
X020318Y010686D01*
X020304Y010585D01*
X020508Y009746D01*
X020635Y009777D01*
X020721Y009418D01*
X020648Y009401D01*
X020634Y009383D01*
X020784Y008767D01*
X020755Y008699D02*
X021337Y008449D01*
X021343Y008428D01*
X021313Y008358D01*
X021652Y008212D01*
X021704Y008332D01*
X022497Y007992D02*
X022569Y007920D01*
X023261Y007624D01*
X023305Y006873D01*
X023346Y006784D01*
X023397Y005922D02*
X023522Y005929D01*
X023543Y005572D01*
X023454Y005566D01*
X023492Y004905D01*
X024043Y005222D01*
X024047Y005239D01*
X024009Y005305D01*
X024329Y005489D01*
X024392Y005378D01*
X025137Y005810D02*
X025174Y005873D01*
X025856Y006266D01*
X025373Y009453D02*
X024789Y009704D01*
X024773Y009696D01*
X024743Y009626D01*
X024404Y009772D01*
X024455Y009889D01*
X024504Y010007D01*
X024844Y009863D01*
X024815Y009793D01*
X024820Y009777D01*
X025405Y009530D01*
X025363Y010191D01*
X025274Y010185D01*
X025251Y010542D01*
X025376Y010550D01*
X024455Y009889D02*
X023663Y010226D01*
X023618Y010284D01*
X022893Y010591D01*
X022718Y013312D01*
X023302Y013066D01*
X023308Y013044D01*
X023278Y012975D01*
X023618Y012831D01*
X023669Y012951D01*
X024464Y012615D01*
X024537Y012544D01*
X025230Y012252D01*
X025279Y011501D01*
X025321Y011413D01*
X023663Y010226D02*
X023590Y010218D01*
X022866Y010528D01*
X020355Y011808D02*
X020445Y012589D01*
X020489Y012649D01*
X020591Y013503D01*
X020464Y013517D01*
X020506Y013884D01*
X020582Y013876D01*
X020596Y013886D01*
X020670Y014517D01*
X020047Y014291D01*
X020077Y014207D01*
X019741Y014084D01*
X019698Y014203D01*
X018886Y013908D01*
X018813Y013843D01*
X018105Y013586D01*
X018019Y012838D01*
X017971Y012749D01*
X017871Y011891D01*
X018001Y011876D01*
X017958Y011510D01*
X017883Y011519D01*
X017864Y011507D01*
X017791Y010877D01*
X020355Y011808D01*
X017971Y012749D02*
X017945Y012847D01*
X018032Y013595D01*
X017402Y014007D01*
X017346Y014087D01*
X017442Y014067D01*
X018072Y013655D01*
X018721Y014035D01*
X018822Y014050D01*
X019568Y014485D01*
X019502Y014598D01*
X019821Y014783D01*
X019859Y014718D01*
X019880Y014710D01*
X020427Y015029D01*
X018145Y016522D01*
X017465Y016125D01*
X017391Y016125D01*
X016647Y015694D01*
X016584Y015804D01*
X016263Y015620D01*
X016301Y015554D01*
X016298Y015537D01*
X015747Y015220D01*
X015708Y015882D01*
X015798Y015887D01*
X015777Y016244D01*
X015651Y016237D01*
X015601Y017100D01*
X015632Y017192D01*
X015588Y017943D01*
X016241Y018318D01*
X016304Y018398D01*
X017052Y018828D01*
X017118Y018715D01*
X017437Y018900D01*
X017399Y018965D01*
X017402Y018987D01*
X017952Y019303D01*
X018111Y016581D01*
X018834Y016270D01*
X018879Y016212D01*
X019668Y015870D01*
X019718Y015988D01*
X020058Y015842D01*
X020028Y015772D01*
X020033Y015755D01*
X020617Y015505D01*
X020578Y016166D01*
X020489Y016161D01*
X020468Y016519D01*
X020594Y016526D01*
X020543Y017389D01*
X020574Y017481D01*
X020530Y018232D01*
X021183Y018607D01*
X021246Y018687D01*
X021994Y019117D01*
X022060Y019004D01*
X022379Y019189D01*
X022341Y019254D01*
X022345Y019276D01*
X022894Y019592D01*
X023053Y016870D01*
X022371Y016477D01*
X022334Y016414D01*
X021589Y015982D01*
X021654Y015873D01*
X021335Y015686D01*
X021297Y015752D01*
X021280Y015758D01*
X020731Y015437D01*
X021286Y015075D01*
X021334Y015150D01*
X021634Y014954D01*
X021565Y014849D01*
X022288Y014376D01*
X022384Y014356D01*
X023014Y013944D01*
X023664Y014324D01*
X023765Y014339D01*
X024510Y014774D01*
X024445Y014887D01*
X024763Y015072D01*
X024802Y015007D01*
X024822Y014999D01*
X025369Y015318D01*
X023087Y016811D01*
X023178Y017593D01*
X023149Y017660D01*
X023246Y018515D01*
X023373Y018500D01*
X023415Y018867D01*
X023340Y018876D01*
X023328Y018889D01*
X023401Y019520D01*
X023956Y019158D01*
X023907Y019083D01*
X024207Y018887D01*
X024275Y018992D01*
X024998Y018519D01*
X025094Y018500D01*
X025724Y018088D01*
X026374Y018467D01*
X026475Y018483D01*
X027220Y018917D01*
X027155Y019030D01*
X027473Y019216D01*
X027512Y019150D01*
X027532Y019142D01*
X028079Y019462D01*
X028154Y019453D02*
X030717Y020383D01*
X030808Y021165D01*
X030851Y021224D01*
X030953Y022079D01*
X030826Y022093D01*
X030865Y022423D01*
X031539Y022424D02*
X031710Y020171D01*
X032439Y019873D01*
X032484Y019816D01*
X033280Y019488D02*
X033231Y019370D01*
X033572Y019229D01*
X033601Y019299D01*
X033617Y019307D01*
X034187Y019070D01*
X034046Y021623D02*
X032744Y022424D01*
X033257Y022214D01*
X033331Y022144D01*
X034028Y021860D01*
X034046Y021623D01*
X028408Y021647D02*
X028333Y021647D01*
X028307Y021423D01*
X028333Y021324D01*
X028333Y021647D02*
X026989Y021647D01*
X026989Y022739D01*
X026094Y022739D01*
X025797Y020954D02*
X025117Y020558D01*
X025044Y020557D01*
X024299Y020126D02*
X024364Y020016D01*
X024045Y019830D01*
X024006Y019895D01*
X023990Y019901D01*
X023441Y019581D01*
X023995Y019218D01*
X024044Y019293D01*
X024344Y019097D01*
X024275Y018992D01*
X024998Y018519D02*
X025054Y018439D01*
X025684Y018027D01*
X025597Y017279D01*
X025623Y017181D01*
X025524Y016324D01*
X025653Y016308D01*
X025610Y015942D01*
X025535Y015951D01*
X025516Y015939D01*
X025444Y015310D01*
X025369Y015318D02*
X025443Y015948D01*
X025427Y015963D01*
X025352Y015972D01*
X025394Y016338D01*
X025524Y016324D01*
X025623Y017181D02*
X025671Y017271D01*
X025758Y018019D01*
X026465Y018275D01*
X026538Y018340D01*
X027350Y018635D01*
X027393Y018517D01*
X027730Y018639D01*
X027699Y018723D01*
X028322Y018949D01*
X028249Y018318D01*
X028234Y018183D01*
X028159Y018317D01*
X028116Y017950D01*
X028243Y017935D01*
X028141Y017081D01*
X028098Y017022D01*
X028007Y016240D01*
X031336Y014807D02*
X031301Y014725D01*
X031336Y014807D02*
X031668Y014643D01*
X031642Y014581D01*
X027658Y013630D02*
X027383Y013469D01*
X023087Y016811D02*
X022407Y016414D01*
X022334Y016414D01*
X021589Y015982D02*
X021526Y016093D01*
X021206Y015909D01*
X021244Y015843D01*
X021240Y015826D01*
X020689Y015509D01*
X020651Y016171D01*
X020740Y016176D01*
X020719Y016533D01*
X020594Y016526D01*
X020543Y017389D02*
X020502Y017477D01*
X020458Y018228D01*
X019766Y018524D01*
X019694Y018596D01*
X018901Y018936D01*
X018952Y019057D01*
X018613Y019202D01*
X018583Y019132D01*
X018563Y019121D01*
X017981Y019372D01*
X020063Y021132D01*
X020787Y020822D01*
X020860Y020830D01*
X021652Y020493D02*
X021601Y020376D01*
X021940Y020231D01*
X021970Y020300D01*
X021986Y020308D01*
X022570Y020057D01*
X022064Y019630D01*
X022006Y019698D01*
X021733Y019467D01*
X021814Y019371D01*
X021154Y018813D01*
X021062Y018782D01*
X020487Y018296D01*
X019796Y018593D01*
X019694Y018596D01*
X018901Y018936D02*
X018849Y018817D01*
X018510Y018962D01*
X018540Y019032D01*
X018534Y019053D01*
X017952Y019303D01*
X016349Y021315D02*
X016259Y021280D01*
X015506Y021285D01*
X015164Y020615D01*
X015088Y020547D01*
X014942Y022424D02*
X014670Y022424D01*
X013222Y022424D01*
X013589Y018708D02*
X014214Y018816D01*
X013430Y016204D01*
X012655Y016070D01*
X012598Y016023D01*
X011751Y015873D01*
X011729Y015999D01*
X011365Y015935D01*
X011378Y015861D01*
X011369Y015846D01*
X010743Y015737D01*
X010934Y016371D01*
X011019Y016346D01*
X011122Y016689D01*
X011002Y016725D01*
X011250Y017552D02*
X011311Y017629D01*
X011527Y018350D01*
X012269Y018478D01*
X012356Y018531D01*
X013206Y018679D02*
X013229Y018550D01*
X013592Y018614D01*
X013579Y018689D01*
X013589Y018708D01*
X017429Y016188D02*
X017391Y016125D01*
X017429Y016188D02*
X018111Y016581D01*
X016647Y015694D02*
X016712Y015584D01*
X016392Y015397D01*
X016354Y015463D01*
X016337Y015469D01*
X015789Y015149D01*
X016343Y014786D01*
X016392Y014861D01*
X016692Y014665D01*
X016623Y014560D01*
X017346Y014087D01*
X016623Y014560D02*
X016554Y014454D01*
X016254Y014650D01*
X016303Y014725D01*
X015749Y015088D01*
X015676Y014457D01*
X015687Y014444D01*
X015763Y014435D01*
X015720Y014068D01*
X015594Y014083D01*
X015497Y013228D02*
X015526Y013161D01*
X015435Y012379D01*
X017717Y010886D01*
X017791Y011516D01*
X017775Y011531D01*
X017700Y011540D01*
X017742Y011906D01*
X017871Y011891D01*
X012985Y006697D02*
X012355Y007284D01*
X012284Y007301D01*
X011710Y007840D01*
X009152Y006894D01*
X009614Y006461D01*
X009636Y006464D01*
X009688Y006519D01*
X009957Y006268D01*
X009868Y006172D01*
X010497Y005582D01*
X010592Y005544D01*
X011141Y005029D01*
X011847Y005290D01*
X011944Y005287D01*
X012755Y005587D01*
X012711Y005705D01*
X013047Y005829D01*
X013078Y005745D01*
X013700Y005974D01*
X013236Y006409D01*
X013219Y006407D01*
X013167Y006352D01*
X012897Y006605D01*
X012985Y006697D01*
X013897Y005481D02*
X016454Y006426D01*
X017029Y005888D01*
X017100Y005871D01*
X017730Y005284D01*
X017642Y005191D01*
X017911Y004938D01*
X017963Y004994D01*
X017981Y004995D01*
X018444Y004561D01*
X018469Y004493D02*
X018400Y003862D01*
X018386Y003851D01*
X018310Y003860D01*
X018270Y003492D01*
X018396Y003479D01*
X018344Y003684D02*
X016258Y003684D01*
X016258Y004747D01*
X017557Y004747D01*
X018344Y004747D01*
X018344Y003684D01*
X018592Y004544D02*
X019146Y004182D01*
X019195Y004257D01*
X019495Y004061D01*
X019426Y003955D01*
X020149Y003482D02*
X020205Y003403D01*
X020835Y002991D01*
X020747Y002243D01*
X020774Y002145D01*
X020674Y001287D01*
X020544Y001302D01*
X020534Y001213D01*
X019097Y001213D01*
X018238Y001774D01*
X018329Y002556D01*
X018300Y002624D01*
X019097Y001213D02*
X016629Y001213D01*
X015654Y001213D02*
X015135Y001213D01*
X014773Y001213D02*
X014229Y001213D01*
X011135Y001213D01*
X010979Y001420D01*
X011079Y001496D01*
X010865Y001782D01*
X010793Y001729D01*
X010395Y002258D01*
X011020Y002372D01*
X011034Y002361D01*
X011048Y002287D01*
X011411Y002353D01*
X011388Y002478D01*
X012235Y002630D01*
X012304Y002605D01*
X013079Y002746D01*
X014229Y001213D01*
X013067Y002813D02*
X012292Y002677D01*
X012235Y002630D01*
X011388Y002478D02*
X011366Y002604D01*
X011003Y002540D01*
X011016Y002465D01*
X011007Y002450D01*
X010381Y002340D01*
X010570Y002975D01*
X010656Y002949D01*
X010758Y003293D01*
X010638Y003329D01*
X010884Y004157D02*
X010875Y004254D01*
X011090Y004975D01*
X010541Y005490D01*
X010497Y005582D01*
X009868Y006172D02*
X009778Y006077D01*
X009510Y006329D01*
X009561Y006385D01*
X009563Y006407D01*
X009101Y006840D01*
X008322Y004227D01*
X008010Y007000D02*
X007966Y007118D01*
X008302Y007242D01*
X008333Y007158D01*
X008955Y007388D01*
X008491Y007823D01*
X008474Y007821D01*
X008422Y007766D01*
X008152Y008018D01*
X008240Y008111D01*
X013491Y005229D02*
X014308Y004993D01*
X014306Y004971D01*
X014254Y004916D01*
X014523Y004663D01*
X014613Y004758D01*
X014701Y004854D01*
X014432Y005106D01*
X014380Y005050D01*
X014359Y005047D01*
X013897Y005481D01*
X013305Y004708D02*
X013305Y003645D01*
X013384Y003645D02*
X014604Y003645D01*
X015470Y003645D01*
X015470Y004708D01*
X014604Y004708D01*
X013305Y004708D01*
X011135Y001213D02*
X007115Y001213D01*
X018592Y004544D02*
X019140Y004864D01*
X019157Y004859D01*
X019195Y004793D01*
X019514Y004979D01*
X019450Y005089D01*
X020194Y005521D02*
X020231Y005584D01*
X020914Y005977D01*
X021115Y001213D02*
X020534Y001213D01*
X021115Y001213D02*
X025254Y001213D01*
X008812Y014953D02*
X008107Y014688D01*
X008812Y014953D02*
X008884Y015019D01*
X009692Y015323D02*
X009737Y015205D01*
X010072Y015331D01*
X010040Y015415D01*
X010673Y015008D02*
X010685Y014995D01*
X010760Y014987D01*
X028154Y019453D02*
X028226Y020083D01*
X028245Y020094D01*
X028320Y020086D01*
X028363Y020452D01*
X028234Y020467D01*
D14*
X028590Y014686D02*
X029531Y014238D01*
X029367Y013870D02*
X028424Y014340D01*
X028181Y013815D02*
X029140Y013350D01*
X028945Y013002D02*
X027986Y013466D01*
X027028Y011620D02*
X027967Y011169D01*
X027715Y010685D02*
X026775Y011135D01*
X026511Y010603D02*
X027463Y010143D01*
X027329Y009831D02*
X026377Y010291D01*
X011405Y013988D02*
X010441Y014466D01*
X010291Y014224D02*
X011265Y013744D01*
X011076Y013264D02*
X010103Y013738D01*
X009951Y013378D02*
X010923Y012895D01*
X009598Y010116D02*
X008656Y010583D01*
X008547Y010373D02*
X009488Y009906D01*
X009237Y009384D02*
X008278Y009858D01*
X008180Y009645D02*
X009129Y009178D01*
D15*
X022241Y016425D02*
X022548Y016732D01*
X022548Y016579D02*
X022241Y016579D01*
X022241Y016732D02*
X022548Y016425D01*
X022394Y016425D02*
X022394Y016732D01*
X023767Y010728D02*
X023928Y010647D01*
X023767Y010325D01*
X023605Y010406D01*
X023579Y010486D01*
X023686Y010701D01*
X023767Y010728D01*
X023962Y010429D02*
X024177Y010321D01*
X024096Y010563D01*
X023935Y010241D01*
X024553Y009357D02*
X024860Y009050D01*
X024707Y009050D02*
X024707Y009357D01*
X024860Y009357D02*
X024553Y009050D01*
X024553Y009204D02*
X024860Y009204D01*
M02*
