G75*
%MOIN*%
%OFA0B0*%
%FSLAX24Y24*%
%IPPOS*%
%LPD*%
%AMOC8*
5,1,8,0,0,1.08239X$1,22.5*
%
%ADD10C,0.0000*%
%ADD11C,0.0100*%
%ADD12C,0.0039*%
%ADD13C,0.0030*%
%ADD14C,0.0060*%
%ADD15C,0.0080*%
%ADD16C,0.0040*%
%ADD17R,0.0660X0.0380*%
%ADD18R,0.0492X0.2441*%
%ADD19C,0.0010*%
%ADD20C,0.0050*%
D10*
X001464Y000942D02*
X003925Y005873D01*
X004112Y005912D01*
X004642Y005647D01*
X006093Y008539D01*
X005142Y009018D01*
X008482Y015706D01*
X009141Y016296D01*
X012065Y022152D01*
X018610Y022152D01*
X019397Y022467D01*
X026907Y022467D01*
X026907Y021414D01*
X030047Y021414D01*
X030047Y022074D01*
X030145Y022152D01*
X035785Y022152D01*
X033275Y017133D01*
X033147Y017113D01*
X032557Y017408D01*
X031120Y014554D01*
X032097Y014066D01*
X028748Y007379D01*
X028236Y007064D01*
X025175Y000942D01*
X001464Y000942D01*
X002981Y002181D02*
X002983Y002225D01*
X002989Y002269D01*
X002999Y002312D01*
X003012Y002354D01*
X003030Y002394D01*
X003051Y002433D01*
X003075Y002470D01*
X003102Y002505D01*
X003133Y002537D01*
X003166Y002566D01*
X003202Y002592D01*
X003240Y002614D01*
X003280Y002633D01*
X003321Y002649D01*
X003364Y002661D01*
X003407Y002669D01*
X003451Y002673D01*
X003495Y002673D01*
X003539Y002669D01*
X003582Y002661D01*
X003625Y002649D01*
X003666Y002633D01*
X003706Y002614D01*
X003744Y002592D01*
X003780Y002566D01*
X003813Y002537D01*
X003844Y002505D01*
X003871Y002470D01*
X003895Y002433D01*
X003916Y002394D01*
X003934Y002354D01*
X003947Y002312D01*
X003957Y002269D01*
X003963Y002225D01*
X003965Y002181D01*
X003963Y002137D01*
X003957Y002093D01*
X003947Y002050D01*
X003934Y002008D01*
X003916Y001968D01*
X003895Y001929D01*
X003871Y001892D01*
X003844Y001857D01*
X003813Y001825D01*
X003780Y001796D01*
X003744Y001770D01*
X003706Y001748D01*
X003666Y001729D01*
X003625Y001713D01*
X003582Y001701D01*
X003539Y001693D01*
X003495Y001689D01*
X003451Y001689D01*
X003407Y001693D01*
X003364Y001701D01*
X003321Y001713D01*
X003280Y001729D01*
X003240Y001748D01*
X003202Y001770D01*
X003166Y001796D01*
X003133Y001825D01*
X003102Y001857D01*
X003075Y001892D01*
X003051Y001929D01*
X003030Y001968D01*
X003012Y002008D01*
X002999Y002050D01*
X002989Y002093D01*
X002983Y002137D01*
X002981Y002181D01*
X016313Y014581D02*
X016315Y014622D01*
X016321Y014663D01*
X016331Y014703D01*
X016344Y014742D01*
X016361Y014779D01*
X016382Y014815D01*
X016406Y014849D01*
X016433Y014880D01*
X016462Y014908D01*
X016495Y014934D01*
X016529Y014956D01*
X016566Y014975D01*
X016604Y014990D01*
X016644Y015002D01*
X016684Y015010D01*
X016725Y015014D01*
X016767Y015014D01*
X016808Y015010D01*
X016848Y015002D01*
X016888Y014990D01*
X016926Y014975D01*
X016962Y014956D01*
X016997Y014934D01*
X017030Y014908D01*
X017059Y014880D01*
X017086Y014849D01*
X017110Y014815D01*
X017131Y014779D01*
X017148Y014742D01*
X017161Y014703D01*
X017171Y014663D01*
X017177Y014622D01*
X017179Y014581D01*
X017177Y014540D01*
X017171Y014499D01*
X017161Y014459D01*
X017148Y014420D01*
X017131Y014383D01*
X017110Y014347D01*
X017086Y014313D01*
X017059Y014282D01*
X017030Y014254D01*
X016997Y014228D01*
X016963Y014206D01*
X016926Y014187D01*
X016888Y014172D01*
X016848Y014160D01*
X016808Y014152D01*
X016767Y014148D01*
X016725Y014148D01*
X016684Y014152D01*
X016644Y014160D01*
X016604Y014172D01*
X016566Y014187D01*
X016530Y014206D01*
X016495Y014228D01*
X016462Y014254D01*
X016433Y014282D01*
X016406Y014313D01*
X016382Y014347D01*
X016361Y014383D01*
X016344Y014420D01*
X016331Y014459D01*
X016321Y014499D01*
X016315Y014540D01*
X016313Y014581D01*
X020065Y008510D02*
X020067Y008551D01*
X020073Y008592D01*
X020083Y008632D01*
X020096Y008671D01*
X020113Y008708D01*
X020134Y008744D01*
X020158Y008778D01*
X020185Y008809D01*
X020214Y008837D01*
X020247Y008863D01*
X020281Y008885D01*
X020318Y008904D01*
X020356Y008919D01*
X020396Y008931D01*
X020436Y008939D01*
X020477Y008943D01*
X020519Y008943D01*
X020560Y008939D01*
X020600Y008931D01*
X020640Y008919D01*
X020678Y008904D01*
X020714Y008885D01*
X020749Y008863D01*
X020782Y008837D01*
X020811Y008809D01*
X020838Y008778D01*
X020862Y008744D01*
X020883Y008708D01*
X020900Y008671D01*
X020913Y008632D01*
X020923Y008592D01*
X020929Y008551D01*
X020931Y008510D01*
X020929Y008469D01*
X020923Y008428D01*
X020913Y008388D01*
X020900Y008349D01*
X020883Y008312D01*
X020862Y008276D01*
X020838Y008242D01*
X020811Y008211D01*
X020782Y008183D01*
X020749Y008157D01*
X020715Y008135D01*
X020678Y008116D01*
X020640Y008101D01*
X020600Y008089D01*
X020560Y008081D01*
X020519Y008077D01*
X020477Y008077D01*
X020436Y008081D01*
X020396Y008089D01*
X020356Y008101D01*
X020318Y008116D01*
X020282Y008135D01*
X020247Y008157D01*
X020214Y008183D01*
X020185Y008211D01*
X020158Y008242D01*
X020134Y008276D01*
X020113Y008312D01*
X020096Y008349D01*
X020083Y008388D01*
X020073Y008428D01*
X020067Y008469D01*
X020065Y008510D01*
X023282Y007346D02*
X023293Y007364D01*
X023307Y007379D01*
X023323Y007392D01*
X023341Y007402D01*
X023361Y007409D01*
X023382Y007412D01*
X023403Y007411D01*
X023423Y007407D01*
X023443Y007399D01*
X023461Y007388D01*
X023476Y007374D01*
X023489Y007358D01*
X023499Y007340D01*
X023506Y007320D01*
X023509Y007299D01*
X023508Y007278D01*
X023504Y007258D01*
X023496Y007238D01*
X023850Y002278D02*
X023852Y002322D01*
X023858Y002366D01*
X023868Y002409D01*
X023881Y002451D01*
X023899Y002491D01*
X023920Y002530D01*
X023944Y002567D01*
X023971Y002602D01*
X024002Y002634D01*
X024035Y002663D01*
X024071Y002689D01*
X024109Y002711D01*
X024149Y002730D01*
X024190Y002746D01*
X024233Y002758D01*
X024276Y002766D01*
X024320Y002770D01*
X024364Y002770D01*
X024408Y002766D01*
X024451Y002758D01*
X024494Y002746D01*
X024535Y002730D01*
X024575Y002711D01*
X024613Y002689D01*
X024649Y002663D01*
X024682Y002634D01*
X024713Y002602D01*
X024740Y002567D01*
X024764Y002530D01*
X024785Y002491D01*
X024803Y002451D01*
X024816Y002409D01*
X024826Y002366D01*
X024832Y002322D01*
X024834Y002278D01*
X024832Y002234D01*
X024826Y002190D01*
X024816Y002147D01*
X024803Y002105D01*
X024785Y002065D01*
X024764Y002026D01*
X024740Y001989D01*
X024713Y001954D01*
X024682Y001922D01*
X024649Y001893D01*
X024613Y001867D01*
X024575Y001845D01*
X024535Y001826D01*
X024494Y001810D01*
X024451Y001798D01*
X024408Y001790D01*
X024364Y001786D01*
X024320Y001786D01*
X024276Y001790D01*
X024233Y001798D01*
X024190Y001810D01*
X024149Y001826D01*
X024109Y001845D01*
X024071Y001867D01*
X024035Y001893D01*
X024002Y001922D01*
X023971Y001954D01*
X023944Y001989D01*
X023920Y002026D01*
X023899Y002065D01*
X023881Y002105D01*
X023868Y002147D01*
X023858Y002190D01*
X023852Y002234D01*
X023850Y002278D01*
X012400Y020808D02*
X012402Y020852D01*
X012408Y020896D01*
X012418Y020939D01*
X012431Y020981D01*
X012449Y021021D01*
X012470Y021060D01*
X012494Y021097D01*
X012521Y021132D01*
X012552Y021164D01*
X012585Y021193D01*
X012621Y021219D01*
X012659Y021241D01*
X012699Y021260D01*
X012740Y021276D01*
X012783Y021288D01*
X012826Y021296D01*
X012870Y021300D01*
X012914Y021300D01*
X012958Y021296D01*
X013001Y021288D01*
X013044Y021276D01*
X013085Y021260D01*
X013125Y021241D01*
X013163Y021219D01*
X013199Y021193D01*
X013232Y021164D01*
X013263Y021132D01*
X013290Y021097D01*
X013314Y021060D01*
X013335Y021021D01*
X013353Y020981D01*
X013366Y020939D01*
X013376Y020896D01*
X013382Y020852D01*
X013384Y020808D01*
X013382Y020764D01*
X013376Y020720D01*
X013366Y020677D01*
X013353Y020635D01*
X013335Y020595D01*
X013314Y020556D01*
X013290Y020519D01*
X013263Y020484D01*
X013232Y020452D01*
X013199Y020423D01*
X013163Y020397D01*
X013125Y020375D01*
X013085Y020356D01*
X013044Y020340D01*
X013001Y020328D01*
X012958Y020320D01*
X012914Y020316D01*
X012870Y020316D01*
X012826Y020320D01*
X012783Y020328D01*
X012740Y020340D01*
X012699Y020356D01*
X012659Y020375D01*
X012621Y020397D01*
X012585Y020423D01*
X012552Y020452D01*
X012521Y020484D01*
X012494Y020519D01*
X012470Y020556D01*
X012449Y020595D01*
X012431Y020635D01*
X012418Y020677D01*
X012408Y020720D01*
X012402Y020764D01*
X012400Y020808D01*
X033280Y020913D02*
X033282Y020957D01*
X033288Y021001D01*
X033298Y021044D01*
X033311Y021086D01*
X033329Y021126D01*
X033350Y021165D01*
X033374Y021202D01*
X033401Y021237D01*
X033432Y021269D01*
X033465Y021298D01*
X033501Y021324D01*
X033539Y021346D01*
X033579Y021365D01*
X033620Y021381D01*
X033663Y021393D01*
X033706Y021401D01*
X033750Y021405D01*
X033794Y021405D01*
X033838Y021401D01*
X033881Y021393D01*
X033924Y021381D01*
X033965Y021365D01*
X034005Y021346D01*
X034043Y021324D01*
X034079Y021298D01*
X034112Y021269D01*
X034143Y021237D01*
X034170Y021202D01*
X034194Y021165D01*
X034215Y021126D01*
X034233Y021086D01*
X034246Y021044D01*
X034256Y021001D01*
X034262Y020957D01*
X034264Y020913D01*
X034262Y020869D01*
X034256Y020825D01*
X034246Y020782D01*
X034233Y020740D01*
X034215Y020700D01*
X034194Y020661D01*
X034170Y020624D01*
X034143Y020589D01*
X034112Y020557D01*
X034079Y020528D01*
X034043Y020502D01*
X034005Y020480D01*
X033965Y020461D01*
X033924Y020445D01*
X033881Y020433D01*
X033838Y020425D01*
X033794Y020421D01*
X033750Y020421D01*
X033706Y020425D01*
X033663Y020433D01*
X033620Y020445D01*
X033579Y020461D01*
X033539Y020480D01*
X033501Y020502D01*
X033465Y020528D01*
X033432Y020557D01*
X033401Y020589D01*
X033374Y020624D01*
X033350Y020661D01*
X033329Y020700D01*
X033311Y020740D01*
X033298Y020782D01*
X033288Y020825D01*
X033282Y020869D01*
X033280Y020913D01*
D11*
X029112Y013668D02*
X027852Y014298D01*
X027439Y013649D02*
X028777Y012940D01*
X028403Y012231D02*
X027143Y012901D01*
X026769Y012212D02*
X028069Y011582D01*
X027695Y010873D02*
X026395Y011503D01*
X024132Y013019D02*
X023266Y012467D01*
X021179Y015814D02*
X022084Y016326D01*
X011063Y012119D02*
X009764Y012827D01*
X009405Y012100D02*
X010704Y011431D01*
X010293Y010749D02*
X009073Y011379D01*
X008675Y010688D02*
X009974Y010019D01*
X009602Y009327D02*
X008342Y009997D01*
D12*
X017761Y011861D02*
X018297Y010809D01*
X018300Y010822D02*
X019352Y011358D01*
X019361Y011381D02*
X018825Y012433D01*
X018822Y012420D02*
X017769Y011884D01*
X023771Y013255D02*
X023773Y013277D01*
X023778Y013297D01*
X023788Y013317D01*
X023800Y013335D01*
X023815Y013350D01*
X023833Y013362D01*
X023853Y013372D01*
X023873Y013377D01*
X023895Y013379D01*
X023917Y013377D01*
X023937Y013372D01*
X023957Y013362D01*
X023975Y013350D01*
X023990Y013335D01*
X024002Y013317D01*
X024012Y013297D01*
X024017Y013277D01*
X024019Y013255D01*
X024017Y013233D01*
X024012Y013213D01*
X024002Y013193D01*
X023990Y013175D01*
X023975Y013160D01*
X023957Y013148D01*
X023937Y013138D01*
X023917Y013133D01*
X023895Y013131D01*
X023873Y013133D01*
X023853Y013138D01*
X023833Y013148D01*
X023815Y013160D01*
X023800Y013175D01*
X023788Y013193D01*
X023778Y013213D01*
X023773Y013233D01*
X023771Y013255D01*
D13*
X023659Y011865D02*
X023744Y011845D01*
X023776Y011792D01*
X023756Y011708D01*
X023841Y011687D01*
X023873Y011635D01*
X023853Y011550D01*
X023747Y011485D01*
X023662Y011506D01*
X023559Y011442D02*
X023539Y011357D01*
X023433Y011293D01*
X023348Y011313D01*
X023219Y011524D01*
X023240Y011609D01*
X023345Y011673D01*
X023430Y011653D01*
X023533Y011716D02*
X023554Y011801D01*
X023659Y011865D01*
X023756Y011708D02*
X023703Y011675D01*
X020124Y009903D02*
X019914Y009774D01*
X019810Y009710D02*
X019641Y009751D01*
X019693Y009783D02*
X019535Y009686D01*
X019600Y009581D02*
X019406Y009897D01*
X019564Y009994D01*
X019649Y009973D01*
X019714Y009868D01*
X019693Y009783D01*
X019785Y009984D02*
X019826Y010154D01*
X020019Y009838D01*
X018866Y009102D02*
X018805Y008847D01*
X019016Y008976D01*
X019060Y008786D02*
X018866Y009102D01*
X018637Y008889D02*
X018552Y008909D01*
X018447Y008845D01*
X018427Y008760D01*
X018556Y008549D01*
X018640Y008529D01*
X018746Y008593D01*
X018766Y008678D01*
X015118Y006106D02*
X015056Y006168D01*
X014932Y006168D01*
X014871Y006106D01*
X014749Y006106D02*
X014688Y006168D01*
X014564Y006168D01*
X014502Y006106D01*
X014502Y005859D01*
X014564Y005797D01*
X014688Y005797D01*
X014749Y005859D01*
X014871Y005797D02*
X015118Y006044D01*
X015118Y006106D01*
X015118Y005797D02*
X014871Y005797D01*
X012969Y006111D02*
X012722Y006111D01*
X012846Y006111D02*
X012846Y006481D01*
X012722Y006357D01*
X012601Y006419D02*
X012601Y006172D01*
X012539Y006111D01*
X012354Y006111D01*
X012354Y006481D01*
X012539Y006481D01*
X012601Y006419D01*
X008300Y001912D02*
X008177Y001850D01*
X008053Y001727D01*
X008239Y001727D01*
X008300Y001665D01*
X008300Y001603D01*
X008239Y001542D01*
X008115Y001542D01*
X008053Y001603D01*
X008053Y001727D01*
X007932Y001789D02*
X007870Y001727D01*
X007747Y001727D01*
X007685Y001789D01*
X007685Y001850D01*
X007747Y001912D01*
X007870Y001912D01*
X007932Y001850D01*
X007932Y001789D01*
X007870Y001727D02*
X007932Y001665D01*
X007932Y001603D01*
X007870Y001542D01*
X007747Y001542D01*
X007685Y001603D01*
X007685Y001665D01*
X007747Y001727D01*
X007564Y001727D02*
X007564Y001603D01*
X007502Y001542D01*
X007378Y001542D01*
X007317Y001603D01*
X007317Y001727D02*
X007440Y001789D01*
X007502Y001789D01*
X007564Y001727D01*
X007564Y001912D02*
X007317Y001912D01*
X007317Y001727D01*
X007195Y001789D02*
X007195Y001850D01*
X007134Y001912D01*
X007010Y001912D01*
X006948Y001850D01*
X006827Y001912D02*
X006704Y001789D01*
X006580Y001912D01*
X006580Y001542D01*
X006459Y001542D02*
X006212Y001542D01*
X006212Y001912D01*
X006827Y001912D02*
X006827Y001542D01*
X006948Y001542D02*
X007195Y001789D01*
X007195Y001542D02*
X006948Y001542D01*
X011471Y012932D02*
X011251Y013044D01*
X011419Y013374D01*
X011227Y013265D02*
X011007Y013377D01*
X010815Y013267D02*
X010983Y013597D01*
X010763Y013709D02*
X010815Y013267D01*
X010595Y013379D02*
X010763Y013709D01*
X010655Y013764D02*
X010435Y013876D01*
X010267Y013546D01*
X010487Y013434D01*
X010461Y013655D02*
X010351Y013711D01*
X017490Y018939D02*
X017552Y019001D01*
X017552Y019063D01*
X017490Y019125D01*
X017182Y019125D01*
X017182Y019186D02*
X017182Y019063D01*
X017244Y019308D02*
X017305Y019308D01*
X017367Y019369D01*
X017367Y019493D01*
X017429Y019555D01*
X017490Y019555D01*
X017552Y019493D01*
X017552Y019369D01*
X017490Y019308D01*
X017244Y019308D02*
X017182Y019369D01*
X017182Y019493D01*
X017244Y019555D01*
X017182Y019676D02*
X017182Y019923D01*
X017182Y019800D02*
X017552Y019800D01*
X018125Y018529D02*
X018174Y018529D01*
X018222Y018481D01*
X018271Y018529D01*
X018319Y018529D01*
X018367Y018481D01*
X018367Y018384D01*
X018319Y018335D01*
X018319Y018234D02*
X018125Y018234D01*
X018077Y018186D01*
X018077Y018041D01*
X018367Y018041D01*
X018367Y018186D01*
X018319Y018234D01*
X018125Y018335D02*
X018077Y018384D01*
X018077Y018481D01*
X018125Y018529D01*
X018222Y018481D02*
X018222Y018432D01*
X018719Y018497D02*
X018719Y018351D01*
X019009Y018351D01*
X019009Y018497D01*
X018961Y018545D01*
X018767Y018545D01*
X018719Y018497D01*
X018719Y018250D02*
X019009Y018250D01*
X018719Y018057D01*
X019009Y018057D01*
X018961Y017956D02*
X018864Y017956D01*
X018864Y017859D01*
X018961Y017956D02*
X019009Y017907D01*
X019009Y017811D01*
X018961Y017762D01*
X018767Y017762D01*
X018719Y017811D01*
X018719Y017907D01*
X018767Y017956D01*
X018367Y017940D02*
X018367Y017746D01*
X018077Y017746D01*
X018077Y017940D01*
X018222Y017843D02*
X018222Y017746D01*
X018367Y017645D02*
X018367Y017452D01*
X018077Y017452D01*
X019275Y017459D02*
X019565Y017459D01*
X019565Y017653D01*
X019565Y017754D02*
X019565Y017947D01*
X019565Y018048D02*
X019565Y018194D01*
X019517Y018242D01*
X019324Y018242D01*
X019275Y018194D01*
X019275Y018048D01*
X019565Y018048D01*
X019420Y017850D02*
X019420Y017754D01*
X019275Y017754D02*
X019565Y017754D01*
X019275Y017754D02*
X019275Y017947D01*
X019372Y018343D02*
X019275Y018440D01*
X019565Y018440D01*
X019565Y018343D02*
X019565Y018537D01*
X019871Y018496D02*
X019871Y018351D01*
X020161Y018351D01*
X020161Y018496D01*
X020113Y018544D01*
X019919Y018544D01*
X019871Y018496D01*
X019871Y018250D02*
X020161Y018250D01*
X019871Y018056D01*
X020161Y018056D01*
X020113Y017955D02*
X020016Y017955D01*
X020016Y017858D01*
X019919Y017762D02*
X019871Y017810D01*
X019871Y017907D01*
X019919Y017955D01*
X019919Y017762D02*
X020113Y017762D01*
X020161Y017810D01*
X020161Y017907D01*
X020113Y017955D01*
X020451Y017949D02*
X020451Y017755D01*
X020741Y017755D01*
X020741Y017949D01*
X020741Y018050D02*
X020741Y018195D01*
X020693Y018243D01*
X020499Y018243D01*
X020451Y018195D01*
X020451Y018050D01*
X020741Y018050D01*
X020596Y017852D02*
X020596Y017755D01*
X020741Y017654D02*
X020741Y017460D01*
X020451Y017460D01*
X021051Y017810D02*
X021099Y017762D01*
X021293Y017762D01*
X021341Y017810D01*
X021341Y017907D01*
X021293Y017955D01*
X021196Y017955D01*
X021196Y017858D01*
X021099Y017955D02*
X021051Y017907D01*
X021051Y017810D01*
X021051Y018056D02*
X021341Y018250D01*
X021051Y018250D01*
X021051Y018351D02*
X021051Y018496D01*
X021099Y018544D01*
X021293Y018544D01*
X021341Y018496D01*
X021341Y018351D01*
X021051Y018351D01*
X021051Y018056D02*
X021341Y018056D01*
X021616Y018054D02*
X021907Y018054D01*
X021907Y018247D01*
X021907Y018348D02*
X021907Y018494D01*
X021858Y018542D01*
X021665Y018542D01*
X021616Y018494D01*
X021616Y018348D01*
X021907Y018348D01*
X021762Y018151D02*
X021762Y018054D01*
X021762Y017953D02*
X021810Y017904D01*
X021810Y017759D01*
X021907Y017759D02*
X021616Y017759D01*
X021616Y017904D01*
X021665Y017953D01*
X021762Y017953D01*
X021810Y017856D02*
X021907Y017953D01*
X021858Y017658D02*
X021665Y017658D01*
X021616Y017610D01*
X021616Y017465D01*
X021907Y017465D01*
X021907Y017610D01*
X021858Y017658D01*
X021907Y017363D02*
X021907Y017170D01*
X021616Y017170D01*
X021616Y017363D01*
X021762Y017267D02*
X021762Y017170D01*
X021907Y017069D02*
X021907Y016875D01*
X021616Y016875D01*
X021616Y018054D02*
X021616Y018247D01*
X020741Y018344D02*
X020548Y018538D01*
X020499Y018538D01*
X020451Y018490D01*
X020451Y018393D01*
X020499Y018344D01*
X020741Y018344D02*
X020741Y018538D01*
X024508Y018723D02*
X024508Y018908D01*
X024570Y018969D01*
X024816Y018969D01*
X024878Y018908D01*
X024878Y018723D01*
X024508Y018723D01*
X024570Y019091D02*
X024508Y019153D01*
X024508Y019276D01*
X024570Y019338D01*
X024631Y019338D01*
X024878Y019091D01*
X024878Y019338D01*
X028561Y015501D02*
X028393Y015171D01*
X028613Y015059D01*
X028721Y015004D02*
X028889Y015334D01*
X028941Y014892D01*
X029109Y015221D01*
X029134Y015001D02*
X029353Y014889D01*
X029434Y014779D02*
X029599Y014695D01*
X029682Y014722D01*
X029738Y014832D01*
X029711Y014915D01*
X029546Y014999D01*
X029378Y014669D01*
X029544Y014723D02*
X029598Y014557D01*
X028587Y015280D02*
X028477Y015336D01*
X028561Y015501D02*
X028781Y015389D01*
X027208Y008708D02*
X027381Y008622D01*
X027252Y008362D01*
X027079Y008448D01*
X027230Y008535D02*
X027317Y008492D01*
X027343Y008317D02*
X027516Y008231D01*
X027645Y008491D01*
X027200Y007588D02*
X027027Y007674D01*
X027114Y007631D02*
X026985Y007371D01*
X027162Y007283D02*
X027248Y007456D01*
X027378Y007500D01*
X027421Y007370D01*
X027335Y007197D01*
X027447Y007195D02*
X027469Y007130D01*
X027599Y007066D01*
X027728Y007326D01*
X027598Y007390D01*
X027534Y007368D01*
X027447Y007195D01*
X027400Y007327D02*
X027227Y007413D01*
X026872Y007589D02*
X026699Y007675D01*
X026720Y007718D02*
X026634Y007545D01*
X026720Y007718D02*
X026850Y007762D01*
X026894Y007632D01*
X026808Y007459D01*
X026298Y006891D02*
X026385Y006631D01*
X026363Y006696D02*
X026169Y006631D01*
X026342Y006545D02*
X026471Y006805D01*
X026735Y006674D02*
X026606Y006414D01*
X026433Y006500D01*
X026718Y006412D02*
X026740Y006347D01*
X026827Y006304D01*
X026892Y006326D01*
X026978Y006499D01*
X026956Y006564D01*
X026869Y006607D01*
X026804Y006585D01*
X026049Y005921D02*
X025919Y005985D01*
X025854Y005964D01*
X025768Y005790D01*
X025790Y005725D01*
X025920Y005661D01*
X026049Y005921D01*
X026140Y005876D02*
X026010Y005616D01*
X026313Y005790D01*
X026184Y005530D01*
X026296Y005528D02*
X026339Y005615D01*
X026426Y005572D01*
X026555Y005616D02*
X026469Y005442D01*
X026404Y005420D01*
X026318Y005463D01*
X026296Y005528D01*
X026382Y005702D02*
X026447Y005723D01*
X026533Y005680D01*
X026555Y005616D01*
X025678Y004995D02*
X025592Y004822D01*
X025636Y004692D01*
X025765Y004736D01*
X025851Y004909D01*
X025920Y004821D02*
X025899Y004778D01*
X025921Y004713D01*
X025856Y004691D01*
X025834Y004648D01*
X025856Y004583D01*
X025943Y004540D01*
X026008Y004562D01*
X025964Y004691D02*
X025921Y004713D01*
X025920Y004821D02*
X025985Y004843D01*
X026072Y004800D01*
X026094Y004735D01*
X026141Y004603D02*
X026315Y004517D01*
X026185Y004474D02*
X026271Y004647D01*
X025566Y004997D02*
X025544Y005062D01*
X025457Y005105D01*
X025393Y005083D01*
X025371Y005040D01*
X025393Y004975D01*
X025328Y004953D01*
X025307Y004910D01*
X025328Y004845D01*
X025415Y004802D01*
X025480Y004824D01*
X025436Y004953D02*
X025393Y004975D01*
X024271Y006451D02*
X024131Y006872D01*
X024061Y006731D02*
X024341Y006591D01*
X024412Y006731D02*
X023991Y006591D01*
X024131Y006521D02*
X024271Y006801D01*
D14*
X023801Y007086D02*
X023497Y007238D01*
X023282Y007345D01*
X022987Y007493D01*
X024751Y011016D02*
X025565Y010609D01*
X019683Y011049D02*
X018363Y010388D01*
X019256Y011141D02*
X019258Y011163D01*
X019264Y011185D01*
X019273Y011205D01*
X019286Y011223D01*
X019302Y011239D01*
X019320Y011252D01*
X019340Y011261D01*
X019362Y011267D01*
X019384Y011269D01*
X019406Y011267D01*
X019428Y011261D01*
X019448Y011252D01*
X019466Y011239D01*
X019482Y011223D01*
X019495Y011205D01*
X019504Y011185D01*
X019510Y011163D01*
X019512Y011141D01*
X019510Y011119D01*
X019504Y011097D01*
X019495Y011077D01*
X019482Y011059D01*
X019466Y011043D01*
X019448Y011030D01*
X019428Y011021D01*
X019406Y011015D01*
X019384Y011013D01*
X019362Y011015D01*
X019340Y011021D01*
X019320Y011030D01*
X019302Y011043D01*
X019286Y011059D01*
X019273Y011077D01*
X019264Y011097D01*
X019258Y011119D01*
X019256Y011141D01*
X018802Y012809D02*
X017482Y012148D01*
X016258Y009731D02*
X016226Y009712D01*
X016258Y009731D02*
X016591Y009188D01*
X016560Y009168D01*
X016289Y009002D02*
X015938Y008788D01*
X015668Y008622D02*
X015636Y008603D01*
X015303Y009146D01*
X015335Y009166D01*
X015605Y009331D02*
X015637Y009351D01*
X015924Y009527D02*
X015956Y009546D01*
D15*
X012040Y007818D02*
X011500Y008212D01*
X011500Y007424D01*
X012040Y007818D01*
X010608Y006250D02*
X010608Y002239D01*
X011834Y001913D02*
X012188Y001559D01*
X013291Y001559D01*
X014472Y001559D02*
X015574Y001559D01*
X015929Y001913D01*
X015929Y005653D01*
X014472Y005653D01*
X013291Y005653D02*
X011834Y005653D01*
X011834Y001913D01*
X014491Y001775D02*
X014572Y001804D01*
X014652Y001837D01*
X014730Y001873D01*
X014807Y001912D01*
X014881Y001955D01*
X014954Y002002D01*
X015024Y002051D01*
X015092Y002104D01*
X015158Y002159D01*
X015222Y002218D01*
X015282Y002279D01*
X015340Y002342D01*
X015395Y002409D01*
X015447Y002478D01*
X015495Y002548D01*
X015541Y002621D01*
X015583Y002697D01*
X015622Y002773D01*
X015658Y002852D01*
X015689Y002932D01*
X015718Y003013D01*
X015742Y003096D01*
X015763Y003179D01*
X015780Y003263D01*
X015794Y003348D01*
X015803Y003434D01*
X015809Y003520D01*
X015811Y003606D01*
X015809Y003692D01*
X015803Y003778D01*
X015794Y003864D01*
X015780Y003949D01*
X015763Y004033D01*
X015742Y004116D01*
X015718Y004199D01*
X015689Y004280D01*
X015658Y004360D01*
X015622Y004439D01*
X015583Y004515D01*
X015541Y004591D01*
X015495Y004664D01*
X015447Y004734D01*
X015395Y004803D01*
X015340Y004870D01*
X015282Y004933D01*
X015222Y004994D01*
X015158Y005053D01*
X015092Y005108D01*
X015024Y005161D01*
X014954Y005210D01*
X014881Y005257D01*
X014807Y005300D01*
X014730Y005339D01*
X014652Y005375D01*
X014572Y005408D01*
X014491Y005437D01*
X013271Y005437D02*
X013190Y005408D01*
X013110Y005375D01*
X013032Y005339D01*
X012955Y005300D01*
X012881Y005257D01*
X012808Y005210D01*
X012738Y005161D01*
X012670Y005108D01*
X012604Y005053D01*
X012540Y004994D01*
X012480Y004933D01*
X012422Y004870D01*
X012367Y004803D01*
X012315Y004734D01*
X012267Y004664D01*
X012221Y004591D01*
X012179Y004515D01*
X012140Y004439D01*
X012104Y004360D01*
X012073Y004280D01*
X012044Y004199D01*
X012020Y004116D01*
X011999Y004033D01*
X011982Y003949D01*
X011968Y003864D01*
X011959Y003778D01*
X011953Y003692D01*
X011951Y003606D01*
X011953Y003520D01*
X011959Y003434D01*
X011968Y003348D01*
X011982Y003263D01*
X011999Y003179D01*
X012020Y003096D01*
X012044Y003013D01*
X012073Y002932D01*
X012104Y002852D01*
X012140Y002773D01*
X012179Y002697D01*
X012221Y002621D01*
X012267Y002548D01*
X012315Y002478D01*
X012367Y002409D01*
X012422Y002342D01*
X012480Y002279D01*
X012540Y002218D01*
X012604Y002159D01*
X012670Y002104D01*
X012738Y002051D01*
X012808Y002002D01*
X012881Y001955D01*
X012955Y001912D01*
X013032Y001873D01*
X013110Y001837D01*
X013190Y001804D01*
X013271Y001775D01*
X009321Y008672D02*
X011412Y012776D01*
X010886Y013044D01*
X010885Y013045D02*
X010865Y013032D01*
X010843Y013021D01*
X010819Y013014D01*
X010795Y013010D01*
X010771Y013009D01*
X010746Y013012D01*
X010723Y013018D01*
X010700Y013028D01*
X010679Y013041D01*
X010660Y013056D01*
X010643Y013074D01*
X010629Y013094D01*
X010618Y013116D01*
X010611Y013139D01*
X010606Y013163D01*
X010605Y013188D01*
X010605Y013187D02*
X010079Y013456D01*
X007988Y009351D01*
X008514Y009083D01*
X008534Y009096D01*
X008556Y009107D01*
X008580Y009114D01*
X008604Y009118D01*
X008628Y009119D01*
X008653Y009116D01*
X008676Y009110D01*
X008699Y009100D01*
X008720Y009087D01*
X008739Y009072D01*
X008756Y009054D01*
X008770Y009034D01*
X008781Y009012D01*
X008788Y008989D01*
X008793Y008965D01*
X008794Y008940D01*
X009321Y008672D01*
X017696Y018670D02*
X017696Y019970D01*
X022899Y019970D01*
X022899Y018670D01*
X017696Y018670D01*
X017853Y019891D02*
X018050Y019891D01*
X018050Y019950D01*
X017853Y019950D02*
X017853Y019891D01*
X027558Y019394D02*
X028800Y020155D01*
X029807Y020772D02*
X031049Y021533D01*
X033003Y018344D01*
X032886Y017857D01*
X031946Y017281D01*
X030939Y016664D02*
X029999Y016088D01*
X029512Y016205D01*
X027558Y019394D01*
X029937Y020598D02*
X030021Y020616D01*
X030106Y020629D01*
X030191Y020639D01*
X030277Y020646D01*
X030363Y020648D01*
X030449Y020646D01*
X030535Y020641D01*
X030621Y020632D01*
X030706Y020619D01*
X030791Y020602D01*
X030874Y020582D01*
X030957Y020558D01*
X031038Y020530D01*
X031118Y020498D01*
X031197Y020463D01*
X031274Y020425D01*
X031349Y020383D01*
X031422Y020338D01*
X031494Y020289D01*
X031563Y020238D01*
X031629Y020183D01*
X031693Y020126D01*
X031755Y020065D01*
X031813Y020002D01*
X031869Y019937D01*
X031922Y019869D01*
X031972Y019799D01*
X032019Y019726D01*
X032062Y019652D01*
X032102Y019576D01*
X032138Y019498D01*
X032171Y019418D01*
X032201Y019337D01*
X032227Y019255D01*
X032249Y019172D01*
X032267Y019088D01*
X032282Y019003D01*
X032293Y018918D01*
X032300Y018832D01*
X032303Y018746D01*
X032302Y018660D01*
X032298Y018574D01*
X032289Y018488D01*
X032277Y018403D01*
X032261Y018318D01*
X032241Y018235D01*
X032218Y018152D01*
X032191Y018070D01*
X032160Y017990D01*
X032126Y017911D01*
X032088Y017833D01*
X032047Y017758D01*
X032003Y017684D01*
X031955Y017612D01*
X031904Y017543D01*
X031850Y017476D01*
X030809Y016838D02*
X030725Y016820D01*
X030640Y016807D01*
X030555Y016797D01*
X030469Y016790D01*
X030383Y016788D01*
X030297Y016790D01*
X030211Y016795D01*
X030125Y016804D01*
X030040Y016817D01*
X029955Y016834D01*
X029872Y016854D01*
X029789Y016878D01*
X029708Y016906D01*
X029628Y016938D01*
X029549Y016973D01*
X029472Y017011D01*
X029397Y017053D01*
X029324Y017098D01*
X029252Y017147D01*
X029183Y017198D01*
X029117Y017253D01*
X029053Y017310D01*
X028991Y017371D01*
X028933Y017434D01*
X028877Y017499D01*
X028824Y017567D01*
X028774Y017637D01*
X028727Y017710D01*
X028684Y017784D01*
X028644Y017860D01*
X028608Y017938D01*
X028575Y018018D01*
X028545Y018099D01*
X028519Y018181D01*
X028497Y018264D01*
X028479Y018348D01*
X028464Y018433D01*
X028453Y018518D01*
X028446Y018604D01*
X028443Y018690D01*
X028444Y018776D01*
X028448Y018862D01*
X028457Y018948D01*
X028469Y019033D01*
X028485Y019118D01*
X028505Y019201D01*
X028528Y019284D01*
X028555Y019366D01*
X028586Y019446D01*
X028620Y019525D01*
X028658Y019603D01*
X028699Y019678D01*
X028743Y019752D01*
X028791Y019824D01*
X028842Y019893D01*
X028896Y019960D01*
X028144Y014990D02*
X028670Y014722D01*
X028671Y014697D01*
X028676Y014673D01*
X028683Y014650D01*
X028694Y014628D01*
X028708Y014608D01*
X028725Y014590D01*
X028744Y014575D01*
X028765Y014562D01*
X028788Y014552D01*
X028811Y014546D01*
X028836Y014543D01*
X028860Y014544D01*
X028884Y014548D01*
X028908Y014555D01*
X028930Y014566D01*
X028950Y014579D01*
X028951Y014579D02*
X029477Y014311D01*
X027386Y010207D01*
X026860Y010475D01*
X026859Y010475D02*
X026858Y010500D01*
X026853Y010524D01*
X026846Y010547D01*
X026835Y010569D01*
X026821Y010589D01*
X026804Y010607D01*
X026785Y010622D01*
X026764Y010635D01*
X026741Y010645D01*
X026718Y010651D01*
X026693Y010654D01*
X026669Y010653D01*
X026645Y010649D01*
X026621Y010642D01*
X026599Y010631D01*
X026579Y010618D01*
X026053Y010886D01*
X028144Y014990D01*
X026562Y009446D02*
X027008Y009219D01*
X027117Y008883D01*
X026890Y008437D01*
X026554Y008328D01*
X026663Y007992D01*
X026436Y007546D01*
X026100Y007437D01*
X026209Y007101D01*
X025982Y006655D01*
X025646Y006546D01*
X025755Y006210D01*
X025528Y005764D01*
X025192Y005655D01*
X025301Y005319D01*
X025074Y004873D01*
X024738Y004764D01*
X024293Y004991D01*
X024183Y005327D01*
X024410Y005773D01*
X024747Y005882D01*
X024637Y006218D01*
X024864Y006664D01*
X025201Y006773D01*
X025091Y007109D01*
X025318Y007555D01*
X025654Y007664D01*
X025545Y008000D01*
X025772Y008446D01*
X026108Y008555D01*
X025999Y008891D01*
X026226Y009337D01*
X026562Y009446D01*
D16*
X024947Y011145D02*
X025055Y011360D01*
X025028Y011440D01*
X024867Y011521D01*
X024706Y011199D01*
X024867Y011118D01*
X024947Y011145D01*
X024672Y011417D02*
X024457Y011525D01*
X024699Y011605D01*
X024537Y011283D01*
X016264Y009206D02*
X016139Y009410D01*
X016056Y009430D01*
X015902Y009336D01*
X016091Y009029D01*
X016244Y009123D01*
X016264Y009206D01*
X015981Y008962D02*
X015777Y008836D01*
X015879Y008899D02*
X015691Y009206D01*
X015651Y009041D01*
X013115Y009040D02*
X010312Y009040D01*
X010312Y006596D02*
X013115Y006596D01*
X032903Y018791D02*
X033009Y018765D01*
X032903Y018791D02*
X032823Y018921D01*
X032848Y019027D01*
X033110Y019187D01*
X033216Y019162D01*
X033296Y019031D01*
X033270Y018926D01*
X033285Y018755D02*
X033496Y018704D01*
X033104Y018463D01*
X033184Y018333D02*
X033023Y018594D01*
D17*
X010904Y005585D03*
X010904Y004915D03*
X010904Y004245D03*
X010904Y003575D03*
X010904Y002905D03*
D18*
X012294Y007818D03*
D19*
X010150Y013212D02*
X010184Y013278D01*
X010167Y013245D02*
X010069Y013295D01*
X010085Y013246D01*
X028134Y014830D02*
X028232Y014780D01*
X028249Y014812D02*
X028215Y014747D01*
X028150Y014780D02*
X028134Y014830D01*
D20*
X024352Y017146D02*
X024173Y017146D01*
X023092Y017146D01*
X023092Y020140D01*
X023173Y020140D01*
X024352Y020140D01*
X024352Y017146D01*
X024271Y017146D02*
X024173Y017146D01*
X023897Y018363D02*
X023547Y018363D01*
X023547Y018513D02*
X023722Y018363D01*
X023897Y018513D01*
X023547Y018513D01*
X023196Y020140D02*
X023173Y020140D01*
M02*
