G75*
%MOIN*%
%OFA0B0*%
%FSLAX24Y24*%
%IPPOS*%
%LPD*%
%AMOC8*
5,1,8,0,0,1.08239X$1,22.5*
%
%ADD10C,0.0000*%
%ADD11R,0.0563X0.0138*%
%ADD12R,0.0512X0.0630*%
%ADD13R,0.0236X0.0866*%
%ADD14R,0.1575X0.0984*%
%ADD15R,0.0984X0.1575*%
%ADD16R,0.0217X0.0472*%
%ADD17R,0.4098X0.4252*%
%ADD18R,0.0850X0.0420*%
%ADD19R,0.1102X0.1496*%
%ADD20R,0.1000X0.1000*%
%ADD21R,0.0512X0.0591*%
%ADD22R,0.0810X0.0240*%
D10*
X001464Y000942D02*
X003925Y005873D01*
X004112Y005912D01*
X004642Y005647D01*
X006093Y008539D01*
X005142Y009018D01*
X008482Y015706D01*
X009141Y016296D01*
X012065Y022152D01*
X018610Y022152D01*
X019397Y022467D01*
X026907Y022467D01*
X026907Y021414D01*
X030047Y021414D01*
X030047Y022074D01*
X030145Y022152D01*
X035785Y022152D01*
X033275Y017133D01*
X033147Y017113D01*
X032557Y017408D01*
X031120Y014554D01*
X032097Y014066D01*
X028748Y007379D01*
X028236Y007064D01*
X025175Y000942D01*
X001464Y000942D01*
X002981Y002181D02*
X002983Y002225D01*
X002989Y002269D01*
X002999Y002312D01*
X003012Y002354D01*
X003030Y002394D01*
X003051Y002433D01*
X003075Y002470D01*
X003102Y002505D01*
X003133Y002537D01*
X003166Y002566D01*
X003202Y002592D01*
X003240Y002614D01*
X003280Y002633D01*
X003321Y002649D01*
X003364Y002661D01*
X003407Y002669D01*
X003451Y002673D01*
X003495Y002673D01*
X003539Y002669D01*
X003582Y002661D01*
X003625Y002649D01*
X003666Y002633D01*
X003706Y002614D01*
X003744Y002592D01*
X003780Y002566D01*
X003813Y002537D01*
X003844Y002505D01*
X003871Y002470D01*
X003895Y002433D01*
X003916Y002394D01*
X003934Y002354D01*
X003947Y002312D01*
X003957Y002269D01*
X003963Y002225D01*
X003965Y002181D01*
X003963Y002137D01*
X003957Y002093D01*
X003947Y002050D01*
X003934Y002008D01*
X003916Y001968D01*
X003895Y001929D01*
X003871Y001892D01*
X003844Y001857D01*
X003813Y001825D01*
X003780Y001796D01*
X003744Y001770D01*
X003706Y001748D01*
X003666Y001729D01*
X003625Y001713D01*
X003582Y001701D01*
X003539Y001693D01*
X003495Y001689D01*
X003451Y001689D01*
X003407Y001693D01*
X003364Y001701D01*
X003321Y001713D01*
X003280Y001729D01*
X003240Y001748D01*
X003202Y001770D01*
X003166Y001796D01*
X003133Y001825D01*
X003102Y001857D01*
X003075Y001892D01*
X003051Y001929D01*
X003030Y001968D01*
X003012Y002008D01*
X002999Y002050D01*
X002989Y002093D01*
X002983Y002137D01*
X002981Y002181D01*
X016313Y014581D02*
X016315Y014622D01*
X016321Y014663D01*
X016331Y014703D01*
X016344Y014742D01*
X016361Y014779D01*
X016382Y014815D01*
X016406Y014849D01*
X016433Y014880D01*
X016462Y014908D01*
X016495Y014934D01*
X016529Y014956D01*
X016566Y014975D01*
X016604Y014990D01*
X016644Y015002D01*
X016684Y015010D01*
X016725Y015014D01*
X016767Y015014D01*
X016808Y015010D01*
X016848Y015002D01*
X016888Y014990D01*
X016926Y014975D01*
X016962Y014956D01*
X016997Y014934D01*
X017030Y014908D01*
X017059Y014880D01*
X017086Y014849D01*
X017110Y014815D01*
X017131Y014779D01*
X017148Y014742D01*
X017161Y014703D01*
X017171Y014663D01*
X017177Y014622D01*
X017179Y014581D01*
X017177Y014540D01*
X017171Y014499D01*
X017161Y014459D01*
X017148Y014420D01*
X017131Y014383D01*
X017110Y014347D01*
X017086Y014313D01*
X017059Y014282D01*
X017030Y014254D01*
X016997Y014228D01*
X016963Y014206D01*
X016926Y014187D01*
X016888Y014172D01*
X016848Y014160D01*
X016808Y014152D01*
X016767Y014148D01*
X016725Y014148D01*
X016684Y014152D01*
X016644Y014160D01*
X016604Y014172D01*
X016566Y014187D01*
X016530Y014206D01*
X016495Y014228D01*
X016462Y014254D01*
X016433Y014282D01*
X016406Y014313D01*
X016382Y014347D01*
X016361Y014383D01*
X016344Y014420D01*
X016331Y014459D01*
X016321Y014499D01*
X016315Y014540D01*
X016313Y014581D01*
X020065Y008510D02*
X020067Y008551D01*
X020073Y008592D01*
X020083Y008632D01*
X020096Y008671D01*
X020113Y008708D01*
X020134Y008744D01*
X020158Y008778D01*
X020185Y008809D01*
X020214Y008837D01*
X020247Y008863D01*
X020281Y008885D01*
X020318Y008904D01*
X020356Y008919D01*
X020396Y008931D01*
X020436Y008939D01*
X020477Y008943D01*
X020519Y008943D01*
X020560Y008939D01*
X020600Y008931D01*
X020640Y008919D01*
X020678Y008904D01*
X020714Y008885D01*
X020749Y008863D01*
X020782Y008837D01*
X020811Y008809D01*
X020838Y008778D01*
X020862Y008744D01*
X020883Y008708D01*
X020900Y008671D01*
X020913Y008632D01*
X020923Y008592D01*
X020929Y008551D01*
X020931Y008510D01*
X020929Y008469D01*
X020923Y008428D01*
X020913Y008388D01*
X020900Y008349D01*
X020883Y008312D01*
X020862Y008276D01*
X020838Y008242D01*
X020811Y008211D01*
X020782Y008183D01*
X020749Y008157D01*
X020715Y008135D01*
X020678Y008116D01*
X020640Y008101D01*
X020600Y008089D01*
X020560Y008081D01*
X020519Y008077D01*
X020477Y008077D01*
X020436Y008081D01*
X020396Y008089D01*
X020356Y008101D01*
X020318Y008116D01*
X020282Y008135D01*
X020247Y008157D01*
X020214Y008183D01*
X020185Y008211D01*
X020158Y008242D01*
X020134Y008276D01*
X020113Y008312D01*
X020096Y008349D01*
X020083Y008388D01*
X020073Y008428D01*
X020067Y008469D01*
X020065Y008510D01*
X023850Y002278D02*
X023852Y002322D01*
X023858Y002366D01*
X023868Y002409D01*
X023881Y002451D01*
X023899Y002491D01*
X023920Y002530D01*
X023944Y002567D01*
X023971Y002602D01*
X024002Y002634D01*
X024035Y002663D01*
X024071Y002689D01*
X024109Y002711D01*
X024149Y002730D01*
X024190Y002746D01*
X024233Y002758D01*
X024276Y002766D01*
X024320Y002770D01*
X024364Y002770D01*
X024408Y002766D01*
X024451Y002758D01*
X024494Y002746D01*
X024535Y002730D01*
X024575Y002711D01*
X024613Y002689D01*
X024649Y002663D01*
X024682Y002634D01*
X024713Y002602D01*
X024740Y002567D01*
X024764Y002530D01*
X024785Y002491D01*
X024803Y002451D01*
X024816Y002409D01*
X024826Y002366D01*
X024832Y002322D01*
X024834Y002278D01*
X024832Y002234D01*
X024826Y002190D01*
X024816Y002147D01*
X024803Y002105D01*
X024785Y002065D01*
X024764Y002026D01*
X024740Y001989D01*
X024713Y001954D01*
X024682Y001922D01*
X024649Y001893D01*
X024613Y001867D01*
X024575Y001845D01*
X024535Y001826D01*
X024494Y001810D01*
X024451Y001798D01*
X024408Y001790D01*
X024364Y001786D01*
X024320Y001786D01*
X024276Y001790D01*
X024233Y001798D01*
X024190Y001810D01*
X024149Y001826D01*
X024109Y001845D01*
X024071Y001867D01*
X024035Y001893D01*
X024002Y001922D01*
X023971Y001954D01*
X023944Y001989D01*
X023920Y002026D01*
X023899Y002065D01*
X023881Y002105D01*
X023868Y002147D01*
X023858Y002190D01*
X023852Y002234D01*
X023850Y002278D01*
X012400Y020808D02*
X012402Y020852D01*
X012408Y020896D01*
X012418Y020939D01*
X012431Y020981D01*
X012449Y021021D01*
X012470Y021060D01*
X012494Y021097D01*
X012521Y021132D01*
X012552Y021164D01*
X012585Y021193D01*
X012621Y021219D01*
X012659Y021241D01*
X012699Y021260D01*
X012740Y021276D01*
X012783Y021288D01*
X012826Y021296D01*
X012870Y021300D01*
X012914Y021300D01*
X012958Y021296D01*
X013001Y021288D01*
X013044Y021276D01*
X013085Y021260D01*
X013125Y021241D01*
X013163Y021219D01*
X013199Y021193D01*
X013232Y021164D01*
X013263Y021132D01*
X013290Y021097D01*
X013314Y021060D01*
X013335Y021021D01*
X013353Y020981D01*
X013366Y020939D01*
X013376Y020896D01*
X013382Y020852D01*
X013384Y020808D01*
X013382Y020764D01*
X013376Y020720D01*
X013366Y020677D01*
X013353Y020635D01*
X013335Y020595D01*
X013314Y020556D01*
X013290Y020519D01*
X013263Y020484D01*
X013232Y020452D01*
X013199Y020423D01*
X013163Y020397D01*
X013125Y020375D01*
X013085Y020356D01*
X013044Y020340D01*
X013001Y020328D01*
X012958Y020320D01*
X012914Y020316D01*
X012870Y020316D01*
X012826Y020320D01*
X012783Y020328D01*
X012740Y020340D01*
X012699Y020356D01*
X012659Y020375D01*
X012621Y020397D01*
X012585Y020423D01*
X012552Y020452D01*
X012521Y020484D01*
X012494Y020519D01*
X012470Y020556D01*
X012449Y020595D01*
X012431Y020635D01*
X012418Y020677D01*
X012408Y020720D01*
X012402Y020764D01*
X012400Y020808D01*
X033280Y020913D02*
X033282Y020957D01*
X033288Y021001D01*
X033298Y021044D01*
X033311Y021086D01*
X033329Y021126D01*
X033350Y021165D01*
X033374Y021202D01*
X033401Y021237D01*
X033432Y021269D01*
X033465Y021298D01*
X033501Y021324D01*
X033539Y021346D01*
X033579Y021365D01*
X033620Y021381D01*
X033663Y021393D01*
X033706Y021401D01*
X033750Y021405D01*
X033794Y021405D01*
X033838Y021401D01*
X033881Y021393D01*
X033924Y021381D01*
X033965Y021365D01*
X034005Y021346D01*
X034043Y021324D01*
X034079Y021298D01*
X034112Y021269D01*
X034143Y021237D01*
X034170Y021202D01*
X034194Y021165D01*
X034215Y021126D01*
X034233Y021086D01*
X034246Y021044D01*
X034256Y021001D01*
X034262Y020957D01*
X034264Y020913D01*
X034262Y020869D01*
X034256Y020825D01*
X034246Y020782D01*
X034233Y020740D01*
X034215Y020700D01*
X034194Y020661D01*
X034170Y020624D01*
X034143Y020589D01*
X034112Y020557D01*
X034079Y020528D01*
X034043Y020502D01*
X034005Y020480D01*
X033965Y020461D01*
X033924Y020445D01*
X033881Y020433D01*
X033838Y020425D01*
X033794Y020421D01*
X033750Y020421D01*
X033706Y020425D01*
X033663Y020433D01*
X033620Y020445D01*
X033579Y020461D01*
X033539Y020480D01*
X033501Y020502D01*
X033465Y020528D01*
X033432Y020557D01*
X033401Y020589D01*
X033374Y020624D01*
X033350Y020661D01*
X033329Y020700D01*
X033311Y020740D01*
X033298Y020782D01*
X033288Y020825D01*
X033282Y020869D01*
X033280Y020913D01*
D11*
G36*
X019423Y011667D02*
X019925Y011918D01*
X019987Y011795D01*
X019485Y011544D01*
X019423Y011667D01*
G37*
G36*
X019308Y011896D02*
X019810Y012147D01*
X019872Y012024D01*
X019370Y011773D01*
X019308Y011896D01*
G37*
G36*
X019194Y012125D02*
X019696Y012376D01*
X019758Y012253D01*
X019256Y012002D01*
X019194Y012125D01*
G37*
G36*
X019079Y012354D02*
X019581Y012605D01*
X019643Y012482D01*
X019141Y012231D01*
X019079Y012354D01*
G37*
G36*
X018965Y012582D02*
X019467Y012833D01*
X019529Y012710D01*
X019027Y012459D01*
X018965Y012582D01*
G37*
G36*
X018850Y012811D02*
X019352Y013062D01*
X019414Y012939D01*
X018912Y012688D01*
X018850Y012811D01*
G37*
G36*
X016949Y011859D02*
X017451Y012110D01*
X017513Y011987D01*
X017011Y011736D01*
X016949Y011859D01*
G37*
G36*
X017064Y011630D02*
X017566Y011881D01*
X017628Y011758D01*
X017126Y011507D01*
X017064Y011630D01*
G37*
G36*
X017178Y011402D02*
X017680Y011653D01*
X017742Y011530D01*
X017240Y011279D01*
X017178Y011402D01*
G37*
G36*
X017293Y011173D02*
X017795Y011424D01*
X017857Y011301D01*
X017355Y011050D01*
X017293Y011173D01*
G37*
G36*
X017407Y010944D02*
X017909Y011195D01*
X017971Y011072D01*
X017469Y010821D01*
X017407Y010944D01*
G37*
G36*
X017522Y010715D02*
X018024Y010966D01*
X018086Y010843D01*
X017584Y010592D01*
X017522Y010715D01*
G37*
G36*
X017637Y010486D02*
X018139Y010737D01*
X018201Y010614D01*
X017699Y010363D01*
X017637Y010486D01*
G37*
G36*
X017751Y010257D02*
X018253Y010508D01*
X018315Y010385D01*
X017813Y010134D01*
X017751Y010257D01*
G37*
G36*
X019652Y011209D02*
X020154Y011460D01*
X020216Y011337D01*
X019714Y011086D01*
X019652Y011209D01*
G37*
G36*
X019537Y011438D02*
X020039Y011689D01*
X020101Y011566D01*
X019599Y011315D01*
X019537Y011438D01*
G37*
D12*
G36*
X020261Y010454D02*
X019826Y010186D01*
X019497Y010722D01*
X019932Y010990D01*
X020261Y010454D01*
G37*
G36*
X019623Y010063D02*
X019188Y009795D01*
X018859Y010331D01*
X019294Y010599D01*
X019623Y010063D01*
G37*
D13*
G36*
X023051Y012741D02*
X023174Y012540D01*
X022437Y012089D01*
X022314Y012290D01*
X023051Y012741D01*
G37*
G36*
X022789Y013167D02*
X022912Y012966D01*
X022175Y012515D01*
X022052Y012716D01*
X022789Y013167D01*
G37*
G36*
X022528Y013593D02*
X022651Y013392D01*
X021914Y012941D01*
X021791Y013142D01*
X022528Y013593D01*
G37*
G36*
X022267Y014020D02*
X022390Y013819D01*
X021653Y013368D01*
X021530Y013569D01*
X022267Y014020D01*
G37*
G36*
X022006Y014446D02*
X022129Y014245D01*
X021392Y013794D01*
X021269Y013995D01*
X022006Y014446D01*
G37*
G36*
X021744Y014872D02*
X021867Y014671D01*
X021130Y014220D01*
X021007Y014421D01*
X021744Y014872D01*
G37*
G36*
X021483Y015298D02*
X021606Y015097D01*
X020869Y014646D01*
X020746Y014847D01*
X021483Y015298D01*
G37*
G36*
X021222Y015725D02*
X021345Y015524D01*
X020608Y015073D01*
X020485Y015274D01*
X021222Y015725D01*
G37*
G36*
X022968Y016794D02*
X023091Y016593D01*
X022354Y016142D01*
X022231Y016343D01*
X022968Y016794D01*
G37*
G36*
X023229Y016368D02*
X023352Y016167D01*
X022615Y015716D01*
X022492Y015917D01*
X023229Y016368D01*
G37*
G36*
X023490Y015942D02*
X023613Y015741D01*
X022876Y015290D01*
X022753Y015491D01*
X023490Y015942D01*
G37*
G36*
X023751Y015516D02*
X023874Y015315D01*
X023137Y014864D01*
X023014Y015065D01*
X023751Y015516D01*
G37*
G36*
X024013Y015089D02*
X024136Y014888D01*
X023399Y014437D01*
X023276Y014638D01*
X024013Y015089D01*
G37*
G36*
X024274Y014663D02*
X024397Y014462D01*
X023660Y014011D01*
X023537Y014212D01*
X024274Y014663D01*
G37*
G36*
X024535Y014237D02*
X024658Y014036D01*
X023921Y013585D01*
X023798Y013786D01*
X024535Y014237D01*
G37*
G36*
X024796Y013810D02*
X024919Y013609D01*
X024182Y013158D01*
X024059Y013359D01*
X024796Y013810D01*
G37*
D14*
G36*
X031188Y016447D02*
X030366Y017788D01*
X031204Y018303D01*
X032026Y016962D01*
X031188Y016447D01*
G37*
G36*
X029542Y019133D02*
X028720Y020474D01*
X029558Y020989D01*
X030380Y019648D01*
X029542Y019133D01*
G37*
D15*
X013881Y005181D03*
X013881Y002031D03*
D16*
G36*
X015681Y008679D02*
X015865Y008792D01*
X016111Y008391D01*
X015927Y008278D01*
X015681Y008679D01*
G37*
G36*
X016318Y009070D02*
X016502Y009183D01*
X016748Y008782D01*
X016564Y008669D01*
X016318Y009070D01*
G37*
G36*
X015465Y009747D02*
X015649Y009860D01*
X015895Y009459D01*
X015711Y009346D01*
X015465Y009747D01*
G37*
G36*
X015146Y009552D02*
X015330Y009665D01*
X015576Y009264D01*
X015392Y009151D01*
X015146Y009552D01*
G37*
G36*
X015784Y009943D02*
X015968Y010056D01*
X016214Y009655D01*
X016030Y009542D01*
X015784Y009943D01*
G37*
D17*
X008474Y004245D03*
D18*
X011754Y004245D03*
X011754Y004915D03*
X011754Y005585D03*
X011754Y003575D03*
X011754Y002905D03*
D19*
X013170Y007818D03*
X010257Y007818D03*
D20*
X023722Y017713D03*
X023722Y019563D03*
D21*
G36*
X023927Y012098D02*
X023491Y011830D01*
X023183Y012332D01*
X023619Y012600D01*
X023927Y012098D01*
G37*
G36*
X023290Y011707D02*
X022854Y011439D01*
X022546Y011941D01*
X022982Y012209D01*
X023290Y011707D01*
G37*
G36*
X019253Y009413D02*
X018817Y009145D01*
X018509Y009647D01*
X018945Y009915D01*
X019253Y009413D01*
G37*
G36*
X018615Y009022D02*
X018179Y008754D01*
X017871Y009256D01*
X018307Y009524D01*
X018615Y009022D01*
G37*
D22*
G36*
X022339Y008197D02*
X023062Y007835D01*
X022955Y007621D01*
X022232Y007983D01*
X022339Y008197D01*
G37*
G36*
X022563Y008644D02*
X023286Y008282D01*
X023179Y008068D01*
X022456Y008430D01*
X022563Y008644D01*
G37*
G36*
X022787Y009091D02*
X023510Y008729D01*
X023403Y008515D01*
X022680Y008877D01*
X022787Y009091D01*
G37*
G36*
X023011Y009538D02*
X023734Y009176D01*
X023627Y008962D01*
X022904Y009324D01*
X023011Y009538D01*
G37*
G36*
X023235Y009986D02*
X023958Y009624D01*
X023851Y009410D01*
X023128Y009772D01*
X023235Y009986D01*
G37*
G36*
X023459Y010433D02*
X024182Y010071D01*
X024075Y009857D01*
X023352Y010219D01*
X023459Y010433D01*
G37*
G36*
X023683Y010880D02*
X024406Y010518D01*
X024299Y010304D01*
X023576Y010666D01*
X023683Y010880D01*
G37*
G36*
X023907Y011327D02*
X024630Y010965D01*
X024523Y010751D01*
X023800Y011113D01*
X023907Y011327D01*
G37*
G36*
X025596Y010481D02*
X026319Y010119D01*
X026212Y009905D01*
X025489Y010267D01*
X025596Y010481D01*
G37*
G36*
X025373Y010033D02*
X026096Y009671D01*
X025989Y009457D01*
X025266Y009819D01*
X025373Y010033D01*
G37*
G36*
X025149Y009586D02*
X025872Y009224D01*
X025765Y009010D01*
X025042Y009372D01*
X025149Y009586D01*
G37*
G36*
X024925Y009139D02*
X025648Y008777D01*
X025541Y008563D01*
X024818Y008925D01*
X024925Y009139D01*
G37*
G36*
X024701Y008692D02*
X025424Y008330D01*
X025317Y008116D01*
X024594Y008478D01*
X024701Y008692D01*
G37*
G36*
X024477Y008245D02*
X025200Y007883D01*
X025093Y007669D01*
X024370Y008031D01*
X024477Y008245D01*
G37*
G36*
X024253Y007798D02*
X024976Y007436D01*
X024869Y007222D01*
X024146Y007584D01*
X024253Y007798D01*
G37*
G36*
X024029Y007351D02*
X024752Y006989D01*
X024645Y006775D01*
X023922Y007137D01*
X024029Y007351D01*
G37*
M02*
