G75*
%MOIN*%
%OFA0B0*%
%FSLAX24Y24*%
%IPPOS*%
%LPD*%
%AMOC8*
5,1,8,0,0,1.08239X$1,22.5*
%
%ADD10C,0.0000*%
%ADD11R,0.0563X0.0138*%
%ADD12R,0.0512X0.0630*%
%ADD13R,0.1181X0.0984*%
%ADD14R,0.0984X0.1181*%
%ADD15C,0.0476*%
%ADD16R,0.4098X0.4252*%
%ADD17R,0.0850X0.0420*%
%ADD18R,0.1102X0.1496*%
%ADD19C,0.0740*%
%ADD20R,0.1000X0.1000*%
%ADD21C,0.0160*%
%ADD22C,0.0500*%
%ADD23C,0.0100*%
%ADD24C,0.0945*%
%ADD25C,0.0768*%
%ADD26C,0.0120*%
%ADD27C,0.0709*%
%ADD28C,0.0356*%
%ADD29C,0.0591*%
%ADD30C,0.0472*%
%ADD31C,0.0240*%
%ADD32C,0.0400*%
%ADD33C,0.0320*%
D10*
X001464Y000942D02*
X003925Y005873D01*
X004112Y005912D01*
X004642Y005647D01*
X006093Y008539D01*
X005142Y009018D01*
X008482Y015706D01*
X009141Y016296D01*
X012065Y022152D01*
X018610Y022152D01*
X019397Y022467D01*
X026907Y022467D01*
X026907Y021414D01*
X030047Y021414D01*
X030047Y022074D01*
X030145Y022152D01*
X035785Y022152D01*
X033275Y017133D01*
X033147Y017113D01*
X032557Y017408D01*
X031120Y014554D01*
X032097Y014066D01*
X028748Y007379D01*
X028236Y007064D01*
X025175Y000942D01*
X001464Y000942D01*
X002981Y002181D02*
X002983Y002225D01*
X002989Y002269D01*
X002999Y002312D01*
X003012Y002354D01*
X003030Y002394D01*
X003051Y002433D01*
X003075Y002470D01*
X003102Y002505D01*
X003133Y002537D01*
X003166Y002566D01*
X003202Y002592D01*
X003240Y002614D01*
X003280Y002633D01*
X003321Y002649D01*
X003364Y002661D01*
X003407Y002669D01*
X003451Y002673D01*
X003495Y002673D01*
X003539Y002669D01*
X003582Y002661D01*
X003625Y002649D01*
X003666Y002633D01*
X003706Y002614D01*
X003744Y002592D01*
X003780Y002566D01*
X003813Y002537D01*
X003844Y002505D01*
X003871Y002470D01*
X003895Y002433D01*
X003916Y002394D01*
X003934Y002354D01*
X003947Y002312D01*
X003957Y002269D01*
X003963Y002225D01*
X003965Y002181D01*
X003963Y002137D01*
X003957Y002093D01*
X003947Y002050D01*
X003934Y002008D01*
X003916Y001968D01*
X003895Y001929D01*
X003871Y001892D01*
X003844Y001857D01*
X003813Y001825D01*
X003780Y001796D01*
X003744Y001770D01*
X003706Y001748D01*
X003666Y001729D01*
X003625Y001713D01*
X003582Y001701D01*
X003539Y001693D01*
X003495Y001689D01*
X003451Y001689D01*
X003407Y001693D01*
X003364Y001701D01*
X003321Y001713D01*
X003280Y001729D01*
X003240Y001748D01*
X003202Y001770D01*
X003166Y001796D01*
X003133Y001825D01*
X003102Y001857D01*
X003075Y001892D01*
X003051Y001929D01*
X003030Y001968D01*
X003012Y002008D01*
X002999Y002050D01*
X002989Y002093D01*
X002983Y002137D01*
X002981Y002181D01*
X016313Y014581D02*
X016315Y014622D01*
X016321Y014663D01*
X016331Y014703D01*
X016344Y014742D01*
X016361Y014779D01*
X016382Y014815D01*
X016406Y014849D01*
X016433Y014880D01*
X016462Y014908D01*
X016495Y014934D01*
X016529Y014956D01*
X016566Y014975D01*
X016604Y014990D01*
X016644Y015002D01*
X016684Y015010D01*
X016725Y015014D01*
X016767Y015014D01*
X016808Y015010D01*
X016848Y015002D01*
X016888Y014990D01*
X016926Y014975D01*
X016962Y014956D01*
X016997Y014934D01*
X017030Y014908D01*
X017059Y014880D01*
X017086Y014849D01*
X017110Y014815D01*
X017131Y014779D01*
X017148Y014742D01*
X017161Y014703D01*
X017171Y014663D01*
X017177Y014622D01*
X017179Y014581D01*
X017177Y014540D01*
X017171Y014499D01*
X017161Y014459D01*
X017148Y014420D01*
X017131Y014383D01*
X017110Y014347D01*
X017086Y014313D01*
X017059Y014282D01*
X017030Y014254D01*
X016997Y014228D01*
X016963Y014206D01*
X016926Y014187D01*
X016888Y014172D01*
X016848Y014160D01*
X016808Y014152D01*
X016767Y014148D01*
X016725Y014148D01*
X016684Y014152D01*
X016644Y014160D01*
X016604Y014172D01*
X016566Y014187D01*
X016530Y014206D01*
X016495Y014228D01*
X016462Y014254D01*
X016433Y014282D01*
X016406Y014313D01*
X016382Y014347D01*
X016361Y014383D01*
X016344Y014420D01*
X016331Y014459D01*
X016321Y014499D01*
X016315Y014540D01*
X016313Y014581D01*
X020065Y008510D02*
X020067Y008551D01*
X020073Y008592D01*
X020083Y008632D01*
X020096Y008671D01*
X020113Y008708D01*
X020134Y008744D01*
X020158Y008778D01*
X020185Y008809D01*
X020214Y008837D01*
X020247Y008863D01*
X020281Y008885D01*
X020318Y008904D01*
X020356Y008919D01*
X020396Y008931D01*
X020436Y008939D01*
X020477Y008943D01*
X020519Y008943D01*
X020560Y008939D01*
X020600Y008931D01*
X020640Y008919D01*
X020678Y008904D01*
X020714Y008885D01*
X020749Y008863D01*
X020782Y008837D01*
X020811Y008809D01*
X020838Y008778D01*
X020862Y008744D01*
X020883Y008708D01*
X020900Y008671D01*
X020913Y008632D01*
X020923Y008592D01*
X020929Y008551D01*
X020931Y008510D01*
X020929Y008469D01*
X020923Y008428D01*
X020913Y008388D01*
X020900Y008349D01*
X020883Y008312D01*
X020862Y008276D01*
X020838Y008242D01*
X020811Y008211D01*
X020782Y008183D01*
X020749Y008157D01*
X020715Y008135D01*
X020678Y008116D01*
X020640Y008101D01*
X020600Y008089D01*
X020560Y008081D01*
X020519Y008077D01*
X020477Y008077D01*
X020436Y008081D01*
X020396Y008089D01*
X020356Y008101D01*
X020318Y008116D01*
X020282Y008135D01*
X020247Y008157D01*
X020214Y008183D01*
X020185Y008211D01*
X020158Y008242D01*
X020134Y008276D01*
X020113Y008312D01*
X020096Y008349D01*
X020083Y008388D01*
X020073Y008428D01*
X020067Y008469D01*
X020065Y008510D01*
X023850Y002278D02*
X023852Y002322D01*
X023858Y002366D01*
X023868Y002409D01*
X023881Y002451D01*
X023899Y002491D01*
X023920Y002530D01*
X023944Y002567D01*
X023971Y002602D01*
X024002Y002634D01*
X024035Y002663D01*
X024071Y002689D01*
X024109Y002711D01*
X024149Y002730D01*
X024190Y002746D01*
X024233Y002758D01*
X024276Y002766D01*
X024320Y002770D01*
X024364Y002770D01*
X024408Y002766D01*
X024451Y002758D01*
X024494Y002746D01*
X024535Y002730D01*
X024575Y002711D01*
X024613Y002689D01*
X024649Y002663D01*
X024682Y002634D01*
X024713Y002602D01*
X024740Y002567D01*
X024764Y002530D01*
X024785Y002491D01*
X024803Y002451D01*
X024816Y002409D01*
X024826Y002366D01*
X024832Y002322D01*
X024834Y002278D01*
X024832Y002234D01*
X024826Y002190D01*
X024816Y002147D01*
X024803Y002105D01*
X024785Y002065D01*
X024764Y002026D01*
X024740Y001989D01*
X024713Y001954D01*
X024682Y001922D01*
X024649Y001893D01*
X024613Y001867D01*
X024575Y001845D01*
X024535Y001826D01*
X024494Y001810D01*
X024451Y001798D01*
X024408Y001790D01*
X024364Y001786D01*
X024320Y001786D01*
X024276Y001790D01*
X024233Y001798D01*
X024190Y001810D01*
X024149Y001826D01*
X024109Y001845D01*
X024071Y001867D01*
X024035Y001893D01*
X024002Y001922D01*
X023971Y001954D01*
X023944Y001989D01*
X023920Y002026D01*
X023899Y002065D01*
X023881Y002105D01*
X023868Y002147D01*
X023858Y002190D01*
X023852Y002234D01*
X023850Y002278D01*
X012400Y020808D02*
X012402Y020852D01*
X012408Y020896D01*
X012418Y020939D01*
X012431Y020981D01*
X012449Y021021D01*
X012470Y021060D01*
X012494Y021097D01*
X012521Y021132D01*
X012552Y021164D01*
X012585Y021193D01*
X012621Y021219D01*
X012659Y021241D01*
X012699Y021260D01*
X012740Y021276D01*
X012783Y021288D01*
X012826Y021296D01*
X012870Y021300D01*
X012914Y021300D01*
X012958Y021296D01*
X013001Y021288D01*
X013044Y021276D01*
X013085Y021260D01*
X013125Y021241D01*
X013163Y021219D01*
X013199Y021193D01*
X013232Y021164D01*
X013263Y021132D01*
X013290Y021097D01*
X013314Y021060D01*
X013335Y021021D01*
X013353Y020981D01*
X013366Y020939D01*
X013376Y020896D01*
X013382Y020852D01*
X013384Y020808D01*
X013382Y020764D01*
X013376Y020720D01*
X013366Y020677D01*
X013353Y020635D01*
X013335Y020595D01*
X013314Y020556D01*
X013290Y020519D01*
X013263Y020484D01*
X013232Y020452D01*
X013199Y020423D01*
X013163Y020397D01*
X013125Y020375D01*
X013085Y020356D01*
X013044Y020340D01*
X013001Y020328D01*
X012958Y020320D01*
X012914Y020316D01*
X012870Y020316D01*
X012826Y020320D01*
X012783Y020328D01*
X012740Y020340D01*
X012699Y020356D01*
X012659Y020375D01*
X012621Y020397D01*
X012585Y020423D01*
X012552Y020452D01*
X012521Y020484D01*
X012494Y020519D01*
X012470Y020556D01*
X012449Y020595D01*
X012431Y020635D01*
X012418Y020677D01*
X012408Y020720D01*
X012402Y020764D01*
X012400Y020808D01*
X033280Y020913D02*
X033282Y020957D01*
X033288Y021001D01*
X033298Y021044D01*
X033311Y021086D01*
X033329Y021126D01*
X033350Y021165D01*
X033374Y021202D01*
X033401Y021237D01*
X033432Y021269D01*
X033465Y021298D01*
X033501Y021324D01*
X033539Y021346D01*
X033579Y021365D01*
X033620Y021381D01*
X033663Y021393D01*
X033706Y021401D01*
X033750Y021405D01*
X033794Y021405D01*
X033838Y021401D01*
X033881Y021393D01*
X033924Y021381D01*
X033965Y021365D01*
X034005Y021346D01*
X034043Y021324D01*
X034079Y021298D01*
X034112Y021269D01*
X034143Y021237D01*
X034170Y021202D01*
X034194Y021165D01*
X034215Y021126D01*
X034233Y021086D01*
X034246Y021044D01*
X034256Y021001D01*
X034262Y020957D01*
X034264Y020913D01*
X034262Y020869D01*
X034256Y020825D01*
X034246Y020782D01*
X034233Y020740D01*
X034215Y020700D01*
X034194Y020661D01*
X034170Y020624D01*
X034143Y020589D01*
X034112Y020557D01*
X034079Y020528D01*
X034043Y020502D01*
X034005Y020480D01*
X033965Y020461D01*
X033924Y020445D01*
X033881Y020433D01*
X033838Y020425D01*
X033794Y020421D01*
X033750Y020421D01*
X033706Y020425D01*
X033663Y020433D01*
X033620Y020445D01*
X033579Y020461D01*
X033539Y020480D01*
X033501Y020502D01*
X033465Y020528D01*
X033432Y020557D01*
X033401Y020589D01*
X033374Y020624D01*
X033350Y020661D01*
X033329Y020700D01*
X033311Y020740D01*
X033298Y020782D01*
X033288Y020825D01*
X033282Y020869D01*
X033280Y020913D01*
D11*
G36*
X019423Y011667D02*
X019925Y011918D01*
X019987Y011795D01*
X019485Y011544D01*
X019423Y011667D01*
G37*
G36*
X019308Y011896D02*
X019810Y012147D01*
X019872Y012024D01*
X019370Y011773D01*
X019308Y011896D01*
G37*
G36*
X019194Y012125D02*
X019696Y012376D01*
X019758Y012253D01*
X019256Y012002D01*
X019194Y012125D01*
G37*
G36*
X019079Y012354D02*
X019581Y012605D01*
X019643Y012482D01*
X019141Y012231D01*
X019079Y012354D01*
G37*
G36*
X018965Y012582D02*
X019467Y012833D01*
X019529Y012710D01*
X019027Y012459D01*
X018965Y012582D01*
G37*
G36*
X018850Y012811D02*
X019352Y013062D01*
X019414Y012939D01*
X018912Y012688D01*
X018850Y012811D01*
G37*
G36*
X016949Y011859D02*
X017451Y012110D01*
X017513Y011987D01*
X017011Y011736D01*
X016949Y011859D01*
G37*
G36*
X017064Y011630D02*
X017566Y011881D01*
X017628Y011758D01*
X017126Y011507D01*
X017064Y011630D01*
G37*
G36*
X017178Y011402D02*
X017680Y011653D01*
X017742Y011530D01*
X017240Y011279D01*
X017178Y011402D01*
G37*
G36*
X017293Y011173D02*
X017795Y011424D01*
X017857Y011301D01*
X017355Y011050D01*
X017293Y011173D01*
G37*
G36*
X017407Y010944D02*
X017909Y011195D01*
X017971Y011072D01*
X017469Y010821D01*
X017407Y010944D01*
G37*
G36*
X017522Y010715D02*
X018024Y010966D01*
X018086Y010843D01*
X017584Y010592D01*
X017522Y010715D01*
G37*
G36*
X017637Y010486D02*
X018139Y010737D01*
X018201Y010614D01*
X017699Y010363D01*
X017637Y010486D01*
G37*
G36*
X017751Y010257D02*
X018253Y010508D01*
X018315Y010385D01*
X017813Y010134D01*
X017751Y010257D01*
G37*
G36*
X019652Y011209D02*
X020154Y011460D01*
X020216Y011337D01*
X019714Y011086D01*
X019652Y011209D01*
G37*
G36*
X019537Y011438D02*
X020039Y011689D01*
X020101Y011566D01*
X019599Y011315D01*
X019537Y011438D01*
G37*
D12*
G36*
X020261Y010516D02*
X019826Y010248D01*
X019497Y010784D01*
X019932Y011052D01*
X020261Y010516D01*
G37*
G36*
X019623Y010125D02*
X019188Y009857D01*
X018859Y010393D01*
X019294Y010661D01*
X019623Y010125D01*
G37*
D13*
G36*
X030982Y016783D02*
X030366Y017788D01*
X031204Y018303D01*
X031820Y017298D01*
X030982Y016783D01*
G37*
G36*
X029542Y019133D02*
X028926Y020138D01*
X029764Y020653D01*
X030380Y019648D01*
X029542Y019133D01*
G37*
D14*
X013944Y004859D03*
X013944Y002103D03*
D15*
X017935Y019560D03*
X018525Y019560D03*
X019116Y019560D03*
X019706Y019560D03*
X020277Y019560D03*
X020868Y019560D03*
X021458Y019560D03*
X022049Y019560D03*
D16*
X008474Y004245D03*
D17*
X011754Y004245D03*
X011754Y004915D03*
X011754Y005585D03*
X011754Y003575D03*
X011754Y002905D03*
D18*
X016989Y003032D03*
X019902Y003032D03*
D19*
X024601Y005102D03*
X025055Y005993D03*
X025509Y006884D03*
X025963Y007775D03*
X026417Y008666D03*
D20*
X023722Y017713D03*
X023722Y019563D03*
D21*
X023336Y019563D01*
X024454Y020557D02*
X020954Y020557D01*
X020642Y020307D01*
X019454Y020307D01*
X017935Y019560D02*
X017935Y016827D01*
X018267Y016495D01*
X018267Y014409D01*
X018247Y014389D01*
X017892Y014182D01*
X016079Y012995D01*
X016079Y011745D01*
X016704Y011057D01*
X016829Y011432D02*
X016454Y011870D01*
X016454Y012745D01*
X020579Y015245D01*
X020579Y018120D01*
X020954Y016932D02*
X021767Y017682D01*
X023722Y017713D01*
X024892Y017557D02*
X024892Y020120D01*
X024454Y020557D01*
X020954Y016932D02*
X020954Y015057D01*
X020079Y014557D01*
X020517Y014370D02*
X020517Y014057D01*
X020517Y014370D02*
X021642Y014995D01*
X021642Y016120D01*
X021954Y016432D01*
X025954Y016432D01*
X026017Y016370D01*
X026642Y016807D02*
X021579Y016807D01*
X022267Y016057D02*
X022767Y016057D01*
X024204Y014620D01*
X024204Y013870D01*
X024236Y013838D01*
X023767Y013370D01*
X023767Y011432D01*
X021579Y007245D01*
X016454Y007245D01*
X015517Y008182D01*
X015517Y010807D01*
X014392Y010432D02*
X014392Y008245D01*
X016017Y006620D01*
X022392Y006620D01*
X025142Y011745D01*
X025642Y011745D01*
X026142Y010932D02*
X026142Y012620D01*
X024954Y013807D01*
X024267Y013807D01*
X024236Y013838D01*
X023454Y013870D02*
X022329Y013307D01*
X022267Y013245D01*
X022267Y010495D01*
X021704Y009932D01*
X021579Y009932D01*
X019879Y010650D02*
X019934Y011273D01*
X018829Y010807D02*
X018329Y010745D01*
X018829Y010807D02*
X019241Y010259D01*
X018033Y010321D02*
X017392Y009995D01*
X016704Y009995D01*
X016579Y009870D01*
X014767Y009182D02*
X014767Y008370D01*
X016204Y006932D01*
X022204Y006932D01*
X025267Y012745D01*
X026642Y013432D02*
X026642Y010682D01*
X026327Y010367D01*
X025703Y010367D01*
X025513Y010557D01*
X025517Y010557D01*
X024954Y009682D02*
X026767Y009682D01*
X027329Y010245D01*
X027329Y013932D01*
X026642Y013432D02*
X024892Y015182D01*
X023204Y014307D02*
X021267Y013245D01*
X020892Y013807D02*
X022704Y014745D01*
X022704Y015182D01*
X019704Y013682D02*
X019392Y013995D01*
X024954Y009682D02*
X022954Y005932D01*
X020517Y005932D01*
X029653Y019893D02*
X029685Y020494D01*
D22*
X029653Y019893D02*
X032582Y020061D01*
X033256Y019136D01*
X027240Y020263D02*
X026927Y020263D01*
D23*
X026747Y020238D02*
X028187Y020238D01*
X028198Y020238D02*
X026195Y020238D01*
X025991Y020337D02*
X028195Y020337D01*
X028187Y020337D02*
X026749Y020337D01*
X026750Y020435D02*
X028187Y020435D01*
X028192Y020435D02*
X025787Y020435D01*
X025583Y020534D02*
X028189Y020534D01*
X028187Y020534D02*
X026752Y020534D01*
X026754Y020632D02*
X028187Y020632D01*
X028186Y020632D02*
X025016Y020632D01*
X025078Y020570D02*
X024836Y020812D01*
X024709Y020939D01*
X024544Y021007D01*
X020979Y021007D01*
X020915Y021014D01*
X020891Y021007D01*
X020865Y021007D01*
X020805Y020982D01*
X020743Y020964D01*
X020723Y020948D01*
X020700Y020939D01*
X020654Y020893D01*
X020484Y020757D01*
X019780Y020757D01*
X019765Y020772D01*
X019564Y020855D01*
X019345Y020855D01*
X019144Y020772D01*
X018990Y020617D01*
X018984Y020603D01*
X018776Y020605D01*
X018652Y020728D01*
X018443Y020815D01*
X017654Y020815D01*
X017444Y020728D01*
X017329Y020612D01*
X016494Y020617D01*
X011829Y017847D01*
X010177Y014378D01*
X010154Y006753D01*
X010153Y006741D01*
X006352Y006741D01*
X006216Y006685D01*
X006112Y006580D01*
X006055Y006444D01*
X006055Y002045D01*
X006112Y001909D01*
X006216Y001805D01*
X006352Y001749D01*
X010597Y001749D01*
X010733Y001805D01*
X010837Y001909D01*
X010894Y002045D01*
X010894Y002303D01*
X013108Y002271D01*
X012963Y001312D01*
X002062Y001312D01*
X004144Y005483D01*
X004477Y005316D01*
X004542Y005283D01*
X004543Y005283D01*
X004616Y005278D01*
X004689Y005273D01*
X004689Y005273D01*
X004690Y005273D01*
X004759Y005296D01*
X004829Y005319D01*
X004829Y005319D01*
X004829Y005319D01*
X004884Y005367D01*
X004940Y005415D01*
X004940Y005416D01*
X004940Y005416D01*
X004973Y005481D01*
X006424Y008373D01*
X006457Y008439D01*
X006457Y008439D01*
X006457Y008439D01*
X006463Y008512D01*
X006468Y008586D01*
X006468Y008586D01*
X006468Y008586D01*
X006445Y008656D01*
X006422Y008726D01*
X006421Y008726D02*
X006373Y008782D01*
X006325Y008837D01*
X006259Y008870D01*
X005638Y009183D01*
X008782Y015477D01*
X009386Y016019D01*
X009440Y016065D01*
X009441Y016068D01*
X009443Y016070D01*
X009474Y016133D01*
X012294Y021782D01*
X018608Y021782D01*
X018679Y021782D01*
X018681Y021782D01*
X018684Y021782D01*
X018750Y021810D01*
X019469Y022097D01*
X026537Y022097D01*
X026537Y021341D01*
X026594Y021205D01*
X026698Y021101D01*
X026834Y021044D01*
X027865Y021044D01*
X028187Y021011D01*
X028187Y018806D01*
X028166Y017820D01*
X029252Y016921D01*
X028786Y016171D01*
X026702Y017831D01*
X026762Y021074D01*
X026834Y021044D01*
X028174Y021044D01*
X028226Y019259D01*
X025512Y020568D01*
X025078Y020570D01*
X024917Y020731D02*
X028183Y020731D01*
X028187Y020731D02*
X026756Y020731D01*
X026758Y020829D02*
X028187Y020829D01*
X028180Y020829D02*
X024819Y020829D01*
X024720Y020928D02*
X028177Y020928D01*
X028187Y020928D02*
X026760Y020928D01*
X026762Y021026D02*
X028040Y021026D01*
X028175Y021026D02*
X013734Y021026D01*
X013754Y020979D02*
X013623Y021296D01*
X013380Y021539D01*
X013063Y021670D01*
X012720Y021670D01*
X012403Y021539D01*
X012161Y021296D01*
X012030Y020979D01*
X012030Y020636D01*
X012161Y020319D01*
X012403Y020077D01*
X012720Y019946D01*
X013063Y019946D01*
X013380Y020077D01*
X013623Y020319D01*
X013754Y020636D01*
X013754Y020979D01*
X013754Y020928D02*
X020689Y020928D01*
X020574Y020829D02*
X019626Y020829D01*
X019283Y020829D02*
X013754Y020829D01*
X013754Y020731D02*
X017451Y020731D01*
X017348Y020632D02*
X013752Y020632D01*
X013711Y020534D02*
X016353Y020534D01*
X016187Y020435D02*
X013671Y020435D01*
X013630Y020337D02*
X016021Y020337D01*
X015856Y020238D02*
X013541Y020238D01*
X013443Y020140D02*
X015690Y020140D01*
X015524Y020041D02*
X013294Y020041D01*
X012490Y020041D02*
X011424Y020041D01*
X011375Y019943D02*
X015358Y019943D01*
X015192Y019844D02*
X011326Y019844D01*
X011277Y019746D02*
X015026Y019746D01*
X014860Y019647D02*
X011228Y019647D01*
X011178Y019549D02*
X014694Y019549D01*
X014529Y019450D02*
X011129Y019450D01*
X011080Y019352D02*
X014363Y019352D01*
X014197Y019253D02*
X011031Y019253D01*
X010982Y019155D02*
X014031Y019155D01*
X013865Y019056D02*
X010933Y019056D01*
X010883Y018958D02*
X013699Y018958D01*
X013533Y018859D02*
X010834Y018859D01*
X010785Y018761D02*
X013367Y018761D01*
X013201Y018662D02*
X010736Y018662D01*
X010687Y018564D02*
X013036Y018564D01*
X012870Y018465D02*
X010638Y018465D01*
X010588Y018367D02*
X012704Y018367D01*
X012538Y018268D02*
X010539Y018268D01*
X010490Y018170D02*
X012372Y018170D01*
X012206Y018071D02*
X010441Y018071D01*
X010392Y017973D02*
X012040Y017973D01*
X011874Y017874D02*
X010343Y017874D01*
X010293Y017776D02*
X011795Y017776D01*
X011748Y017677D02*
X010244Y017677D01*
X010195Y017579D02*
X011701Y017579D01*
X011655Y017480D02*
X010146Y017480D01*
X010097Y017382D02*
X011608Y017382D01*
X011561Y017283D02*
X010048Y017283D01*
X009998Y017185D02*
X011514Y017185D01*
X011467Y017086D02*
X009949Y017086D01*
X009900Y016988D02*
X011420Y016988D01*
X011373Y016889D02*
X009851Y016889D01*
X009802Y016791D02*
X011326Y016791D01*
X011279Y016692D02*
X009753Y016692D01*
X009703Y016594D02*
X011232Y016594D01*
X011185Y016495D02*
X009654Y016495D01*
X009605Y016397D02*
X011139Y016397D01*
X011092Y016298D02*
X009556Y016298D01*
X009507Y016200D02*
X011045Y016200D01*
X010998Y016101D02*
X009458Y016101D01*
X009368Y016003D02*
X010951Y016003D01*
X010904Y015904D02*
X009258Y015904D01*
X009148Y015806D02*
X010857Y015806D01*
X010810Y015707D02*
X009038Y015707D01*
X008928Y015609D02*
X010763Y015609D01*
X010716Y015510D02*
X008818Y015510D01*
X008749Y015412D02*
X010669Y015412D01*
X010623Y015313D02*
X008700Y015313D01*
X008650Y015215D02*
X010576Y015215D01*
X010529Y015116D02*
X008601Y015116D01*
X008552Y015018D02*
X010482Y015018D01*
X010435Y014919D02*
X008503Y014919D01*
X008454Y014821D02*
X010388Y014821D01*
X010341Y014722D02*
X008404Y014722D01*
X008355Y014624D02*
X010294Y014624D01*
X010247Y014525D02*
X008306Y014525D01*
X008257Y014427D02*
X010200Y014427D01*
X010177Y014328D02*
X008208Y014328D01*
X008158Y014230D02*
X010177Y014230D01*
X010177Y014131D02*
X008109Y014131D01*
X008060Y014033D02*
X010176Y014033D01*
X010176Y013934D02*
X008011Y013934D01*
X007962Y013836D02*
X010176Y013836D01*
X010175Y013737D02*
X007913Y013737D01*
X007863Y013639D02*
X010175Y013639D01*
X010175Y013540D02*
X007814Y013540D01*
X007765Y013442D02*
X010175Y013442D01*
X010174Y013343D02*
X007716Y013343D01*
X007667Y013245D02*
X010174Y013245D01*
X010174Y013146D02*
X007617Y013146D01*
X007568Y013048D02*
X010173Y013048D01*
X010173Y012949D02*
X007519Y012949D01*
X007470Y012851D02*
X010173Y012851D01*
X010172Y012752D02*
X007421Y012752D01*
X007371Y012654D02*
X010172Y012654D01*
X010172Y012555D02*
X007322Y012555D01*
X007273Y012457D02*
X010171Y012457D01*
X010171Y012358D02*
X007224Y012358D01*
X007175Y012260D02*
X010171Y012260D01*
X010171Y012161D02*
X007125Y012161D01*
X007076Y012063D02*
X010170Y012063D01*
X010170Y011964D02*
X007027Y011964D01*
X006978Y011866D02*
X010170Y011866D01*
X010169Y011767D02*
X006929Y011767D01*
X006880Y011669D02*
X010169Y011669D01*
X010169Y011570D02*
X006830Y011570D01*
X006781Y011472D02*
X010168Y011472D01*
X010168Y011373D02*
X006732Y011373D01*
X006683Y011275D02*
X010168Y011275D01*
X010168Y011176D02*
X006634Y011176D01*
X006584Y011078D02*
X010167Y011078D01*
X010167Y010979D02*
X006535Y010979D01*
X006486Y010881D02*
X010167Y010881D01*
X010166Y010782D02*
X006437Y010782D01*
X006388Y010684D02*
X010166Y010684D01*
X010166Y010585D02*
X006338Y010585D01*
X006289Y010487D02*
X010165Y010487D01*
X010165Y010388D02*
X006240Y010388D01*
X006191Y010290D02*
X010165Y010290D01*
X010164Y010191D02*
X006142Y010191D01*
X006092Y010093D02*
X010164Y010093D01*
X010164Y009994D02*
X006043Y009994D01*
X005994Y009896D02*
X010164Y009896D01*
X010163Y009797D02*
X005945Y009797D01*
X005896Y009699D02*
X010163Y009699D01*
X010163Y009600D02*
X005847Y009600D01*
X005797Y009502D02*
X010162Y009502D01*
X010162Y009403D02*
X005748Y009403D01*
X005699Y009305D02*
X010162Y009305D01*
X010161Y009206D02*
X005650Y009206D01*
X005787Y009108D02*
X010161Y009108D01*
X010161Y009009D02*
X005983Y009009D01*
X006179Y008911D02*
X010160Y008911D01*
X010160Y008812D02*
X006347Y008812D01*
X006325Y008837D02*
X006325Y008837D01*
X006325Y008837D01*
X006421Y008726D02*
X006422Y008726D01*
X006422Y008726D01*
X006426Y008714D02*
X010160Y008714D01*
X010160Y008615D02*
X006458Y008615D01*
X006463Y008517D02*
X010159Y008517D01*
X010159Y008418D02*
X006447Y008418D01*
X006397Y008320D02*
X010159Y008320D01*
X010158Y008221D02*
X006348Y008221D01*
X006298Y008123D02*
X010158Y008123D01*
X010158Y008024D02*
X006249Y008024D01*
X006199Y007926D02*
X010157Y007926D01*
X010157Y007827D02*
X006150Y007827D01*
X006101Y007729D02*
X010157Y007729D01*
X010157Y007630D02*
X006051Y007630D01*
X006002Y007532D02*
X010156Y007532D01*
X010156Y007433D02*
X005952Y007433D01*
X005903Y007335D02*
X010156Y007335D01*
X010155Y007236D02*
X005854Y007236D01*
X005804Y007138D02*
X010155Y007138D01*
X010155Y007039D02*
X005755Y007039D01*
X005705Y006941D02*
X010154Y006941D01*
X010154Y006842D02*
X005656Y006842D01*
X005606Y006744D02*
X010153Y006744D01*
X010574Y006733D02*
X010580Y006798D01*
X010574Y006816D01*
X010597Y014283D01*
X012154Y017551D01*
X016608Y020196D01*
X017136Y020194D01*
X016982Y020039D01*
X016919Y019889D01*
X016919Y017164D01*
X015222Y015467D01*
X015107Y015352D01*
X015044Y015201D01*
X015044Y011717D01*
X013623Y011717D01*
X013472Y011655D01*
X012847Y011030D01*
X012732Y010914D01*
X012669Y010764D01*
X012669Y005586D01*
X012453Y005338D01*
X012324Y005336D01*
X012329Y005355D01*
X012329Y005535D01*
X011804Y005535D01*
X011804Y005635D01*
X011704Y005635D01*
X011704Y005535D01*
X011179Y005535D01*
X011179Y005355D01*
X011190Y005317D01*
X011202Y005295D01*
X011119Y005212D01*
X011119Y004618D01*
X011202Y004535D01*
X011190Y004513D01*
X011179Y004475D01*
X011179Y004295D01*
X011704Y004295D01*
X011704Y004195D01*
X011179Y004195D01*
X011179Y004015D01*
X011187Y003988D01*
X010735Y003990D01*
X010674Y003965D01*
X010674Y004195D01*
X010341Y004195D01*
X010350Y004295D01*
X010674Y004295D01*
X010674Y006391D01*
X010663Y006429D01*
X010644Y006463D01*
X010616Y006491D01*
X010582Y006511D01*
X010554Y006518D01*
X010566Y006651D01*
X010574Y006669D01*
X010574Y006733D01*
X010575Y006744D02*
X012669Y006744D01*
X012669Y006842D02*
X010574Y006842D01*
X010574Y006941D02*
X012669Y006941D01*
X012669Y007039D02*
X010575Y007039D01*
X010575Y007138D02*
X012669Y007138D01*
X012669Y007236D02*
X010575Y007236D01*
X010576Y007335D02*
X012669Y007335D01*
X012669Y007433D02*
X010576Y007433D01*
X010576Y007532D02*
X012669Y007532D01*
X012669Y007630D02*
X010577Y007630D01*
X010577Y007729D02*
X012669Y007729D01*
X012669Y007827D02*
X010577Y007827D01*
X010577Y007926D02*
X012669Y007926D01*
X012669Y008024D02*
X010578Y008024D01*
X010578Y008123D02*
X012669Y008123D01*
X012669Y008221D02*
X010578Y008221D01*
X010579Y008320D02*
X012669Y008320D01*
X012669Y008418D02*
X010579Y008418D01*
X010579Y008517D02*
X012669Y008517D01*
X012669Y008615D02*
X010580Y008615D01*
X010580Y008714D02*
X012669Y008714D01*
X012669Y008812D02*
X010580Y008812D01*
X010580Y008911D02*
X012669Y008911D01*
X012669Y009009D02*
X010581Y009009D01*
X010581Y009108D02*
X012669Y009108D01*
X012669Y009206D02*
X010581Y009206D01*
X010582Y009305D02*
X012669Y009305D01*
X012669Y009403D02*
X010582Y009403D01*
X010582Y009502D02*
X012669Y009502D01*
X012669Y009600D02*
X010583Y009600D01*
X010583Y009699D02*
X012669Y009699D01*
X012669Y009797D02*
X010583Y009797D01*
X010584Y009896D02*
X012669Y009896D01*
X012669Y009994D02*
X010584Y009994D01*
X010584Y010093D02*
X012669Y010093D01*
X012669Y010191D02*
X010584Y010191D01*
X010585Y010290D02*
X012669Y010290D01*
X012669Y010388D02*
X010585Y010388D01*
X010585Y010487D02*
X012669Y010487D01*
X012669Y010585D02*
X010586Y010585D01*
X010586Y010684D02*
X012669Y010684D01*
X012677Y010782D02*
X010586Y010782D01*
X010587Y010881D02*
X012718Y010881D01*
X012797Y010979D02*
X010587Y010979D01*
X010587Y011078D02*
X012895Y011078D01*
X012994Y011176D02*
X010588Y011176D01*
X010588Y011275D02*
X013092Y011275D01*
X013191Y011373D02*
X010588Y011373D01*
X010588Y011472D02*
X013289Y011472D01*
X013388Y011570D02*
X010589Y011570D01*
X010589Y011669D02*
X013506Y011669D01*
X013874Y010897D02*
X015134Y010897D01*
X015129Y010884D01*
X015129Y010730D01*
X015188Y010587D01*
X015227Y010548D01*
X015227Y008320D01*
X015057Y008490D01*
X015057Y008923D01*
X015096Y008962D01*
X015155Y009105D01*
X015155Y009259D01*
X015096Y009402D01*
X014987Y009511D01*
X014844Y009570D01*
X014690Y009570D01*
X014682Y009567D01*
X014682Y010173D01*
X014721Y010212D01*
X014780Y010355D01*
X014780Y010509D01*
X014721Y010652D01*
X014612Y010761D01*
X014469Y010820D01*
X014315Y010820D01*
X014172Y010761D01*
X014063Y010652D01*
X014004Y010509D01*
X014004Y010355D01*
X014063Y010212D01*
X014102Y010173D01*
X014102Y008187D01*
X014146Y008080D01*
X014228Y007999D01*
X015853Y006374D01*
X015959Y006330D01*
X022378Y006330D01*
X022420Y006325D01*
X022435Y006330D01*
X022450Y006330D01*
X022490Y006346D01*
X022531Y006359D01*
X022542Y006368D01*
X022556Y006374D01*
X022587Y006404D01*
X022620Y006432D01*
X022627Y006445D01*
X022638Y006455D01*
X022654Y006495D01*
X025315Y011455D01*
X025383Y011455D01*
X025422Y011415D01*
X025565Y011356D01*
X025719Y011356D01*
X025852Y011411D01*
X025852Y011191D01*
X025813Y011152D01*
X025754Y011009D01*
X025754Y010869D01*
X025737Y010886D01*
X025594Y010945D01*
X025440Y010945D01*
X025297Y010886D01*
X025188Y010777D01*
X025129Y010634D01*
X025129Y010480D01*
X025188Y010337D01*
X025297Y010228D01*
X025440Y010169D01*
X025491Y010169D01*
X025539Y010121D01*
X025646Y010077D01*
X026385Y010077D01*
X026491Y010121D01*
X026573Y010203D01*
X026888Y010518D01*
X026932Y010624D01*
X026932Y013490D01*
X026888Y013596D01*
X026806Y013678D01*
X025280Y015204D01*
X025280Y015259D01*
X025221Y015402D01*
X025112Y015511D01*
X024969Y015570D01*
X024815Y015570D01*
X024672Y015511D01*
X024563Y015402D01*
X024504Y015259D01*
X024504Y015105D01*
X024563Y014962D01*
X024672Y014853D01*
X024815Y014794D01*
X024870Y014794D01*
X026352Y013312D01*
X026352Y012820D01*
X025200Y013971D01*
X025119Y014053D01*
X025012Y014097D01*
X024494Y014097D01*
X024494Y014677D01*
X024450Y014784D01*
X023092Y016142D01*
X025696Y016142D01*
X025797Y016040D01*
X025940Y015981D01*
X026094Y015981D01*
X026237Y016040D01*
X026346Y016150D01*
X026405Y016292D01*
X026405Y016447D01*
X026376Y016517D01*
X026383Y016517D01*
X026422Y016478D01*
X026565Y016419D01*
X026719Y016419D01*
X026862Y016478D01*
X026971Y016587D01*
X027030Y016730D01*
X027030Y016884D01*
X026971Y017027D01*
X026862Y017136D01*
X026719Y017195D01*
X026565Y017195D01*
X026422Y017136D01*
X026383Y017097D01*
X024403Y017097D01*
X024432Y017126D01*
X024432Y018300D01*
X024309Y018423D01*
X023135Y018423D01*
X023012Y018300D01*
X023012Y017992D01*
X021771Y017972D01*
X021721Y017974D01*
X021713Y017971D01*
X021705Y017971D01*
X021659Y017951D01*
X021613Y017934D01*
X021607Y017929D01*
X021599Y017925D01*
X021564Y017890D01*
X020869Y017248D01*
X020869Y017861D01*
X020909Y017900D01*
X020968Y018042D01*
X020968Y018197D01*
X020909Y018339D01*
X020799Y018449D01*
X020657Y018508D01*
X020502Y018508D01*
X020360Y018449D01*
X020250Y018339D01*
X020191Y018197D01*
X020191Y018042D01*
X020250Y017900D01*
X020289Y017861D01*
X020289Y015408D01*
X018557Y014358D01*
X018557Y016552D01*
X018513Y016659D01*
X018431Y016740D01*
X018225Y016947D01*
X018225Y018895D01*
X018357Y018762D01*
X018472Y018647D01*
X018623Y018585D01*
X021998Y018585D01*
X022149Y018647D01*
X022281Y018779D01*
X022396Y018894D01*
X022459Y019045D01*
X022459Y019380D01*
X022496Y019471D01*
X022496Y019649D01*
X022429Y019812D01*
X022949Y019812D01*
X023012Y019750D01*
X023012Y018976D01*
X023135Y018853D01*
X024309Y018853D01*
X024432Y018976D01*
X024432Y020150D01*
X024428Y020154D01*
X024448Y020154D01*
X024602Y019999D01*
X024602Y017816D01*
X024563Y017777D01*
X024504Y017634D01*
X024504Y017480D01*
X024432Y017480D01*
X024504Y017480D02*
X024563Y017337D01*
X024672Y017228D01*
X024815Y017169D01*
X024969Y017169D01*
X025112Y017228D01*
X025221Y017337D01*
X025280Y017480D01*
X026457Y017480D01*
X026483Y017468D01*
X028479Y015879D01*
X028494Y015858D01*
X028544Y015827D01*
X028590Y015791D01*
X028614Y015784D01*
X028636Y015770D01*
X028694Y015761D01*
X028751Y015744D01*
X028776Y015747D01*
X028801Y015743D01*
X028858Y015757D01*
X028917Y015763D01*
X028939Y015776D01*
X028963Y015781D01*
X029011Y015816D01*
X029063Y015844D01*
X029078Y015864D01*
X029099Y015879D01*
X029130Y015929D01*
X029167Y015975D01*
X029174Y015999D01*
X029593Y016675D01*
X029629Y016718D01*
X029637Y016746D01*
X029653Y016771D01*
X029662Y016825D01*
X029678Y016877D01*
X029675Y016907D01*
X029680Y016936D01*
X029667Y016989D01*
X029662Y017044D01*
X029648Y017070D01*
X029642Y017098D01*
X029610Y017143D01*
X029584Y017191D01*
X029561Y017210D01*
X029544Y017234D01*
X029498Y017263D01*
X028590Y018014D01*
X028605Y018718D01*
X028607Y018722D01*
X028607Y018802D01*
X028608Y018881D01*
X028607Y018885D01*
X028607Y019078D01*
X028612Y019093D01*
X028641Y019152D01*
X028642Y019170D01*
X028648Y019188D01*
X028646Y019253D01*
X028650Y019318D01*
X028644Y019336D01*
X028607Y020613D01*
X028607Y020989D01*
X028613Y021050D01*
X028607Y021072D01*
X028607Y021094D01*
X028592Y021131D01*
X028590Y021204D01*
X030134Y021204D01*
X030257Y021327D01*
X030257Y021942D01*
X035445Y021942D01*
X033148Y017348D01*
X032651Y017596D01*
X032574Y017635D01*
X032573Y017635D01*
X032491Y017608D01*
X032408Y017581D01*
X032408Y017580D01*
X032369Y017503D01*
X030971Y014726D01*
X030971Y014726D01*
X030932Y014648D01*
X030893Y014571D01*
X030893Y014570D01*
X030921Y014488D01*
X030948Y014406D01*
X030948Y014405D01*
X031026Y014366D01*
X031103Y014327D01*
X031103Y014328D01*
X031815Y013972D01*
X028587Y007526D01*
X028147Y007255D01*
X028087Y007236D01*
X028075Y007211D01*
X028052Y007197D01*
X028037Y007136D01*
X025045Y001152D01*
X015410Y001152D01*
X015441Y002642D01*
X015489Y002622D01*
X016227Y002622D01*
X016227Y002197D01*
X016350Y002074D01*
X017627Y002074D01*
X017750Y002197D01*
X017750Y003867D01*
X017627Y003990D01*
X016350Y003990D01*
X016227Y003867D01*
X016227Y003442D01*
X015740Y003442D01*
X015691Y003491D01*
X015691Y003730D01*
X015587Y003981D01*
X015395Y004173D01*
X015144Y004276D01*
X014873Y004276D01*
X014622Y004173D01*
X014434Y003985D01*
X012321Y003985D01*
X012329Y004015D01*
X012329Y004195D01*
X011804Y004195D01*
X011804Y004295D01*
X012329Y004295D01*
X012329Y004475D01*
X012319Y004513D01*
X012318Y004516D01*
X012578Y004521D01*
X012588Y004517D01*
X012660Y004522D01*
X012731Y004524D01*
X012741Y004528D01*
X012751Y004528D01*
X012815Y004560D01*
X012881Y004589D01*
X012888Y004596D01*
X012897Y004601D01*
X012944Y004655D01*
X012994Y004707D01*
X012998Y004716D01*
X013302Y005063D01*
X013302Y004909D01*
X013894Y004909D01*
X013894Y005600D01*
X013489Y005600D01*
X013489Y005647D01*
X014587Y005647D01*
X014606Y005629D01*
X014791Y005552D01*
X014992Y005552D01*
X015178Y005629D01*
X015320Y005771D01*
X015397Y005957D01*
X015397Y006158D01*
X015320Y006343D01*
X015178Y006485D01*
X014992Y006562D01*
X014791Y006562D01*
X014606Y006485D01*
X014587Y006467D01*
X013489Y006467D01*
X013489Y010512D01*
X013874Y010897D01*
X013858Y010881D02*
X015129Y010881D01*
X015129Y010782D02*
X014561Y010782D01*
X014689Y010684D02*
X015148Y010684D01*
X015190Y010585D02*
X014749Y010585D01*
X014780Y010487D02*
X015227Y010487D01*
X015227Y010388D02*
X014780Y010388D01*
X014753Y010290D02*
X015227Y010290D01*
X015227Y010191D02*
X014700Y010191D01*
X014682Y010093D02*
X015227Y010093D01*
X015227Y009994D02*
X014682Y009994D01*
X014682Y009896D02*
X015227Y009896D01*
X015227Y009797D02*
X014682Y009797D01*
X014682Y009699D02*
X015227Y009699D01*
X015227Y009600D02*
X014682Y009600D01*
X014996Y009502D02*
X015227Y009502D01*
X015227Y009403D02*
X015095Y009403D01*
X015136Y009305D02*
X015227Y009305D01*
X015227Y009206D02*
X015155Y009206D01*
X015155Y009108D02*
X015227Y009108D01*
X015227Y009009D02*
X015115Y009009D01*
X015057Y008911D02*
X015227Y008911D01*
X015227Y008812D02*
X015057Y008812D01*
X015057Y008714D02*
X015227Y008714D01*
X015227Y008615D02*
X015057Y008615D01*
X015057Y008517D02*
X015227Y008517D01*
X015227Y008418D02*
X015129Y008418D01*
X014399Y007827D02*
X013489Y007827D01*
X013489Y007729D02*
X014498Y007729D01*
X014596Y007630D02*
X013489Y007630D01*
X013489Y007532D02*
X014695Y007532D01*
X014793Y007433D02*
X013489Y007433D01*
X013489Y007335D02*
X014892Y007335D01*
X014990Y007236D02*
X013489Y007236D01*
X013489Y007138D02*
X015089Y007138D01*
X015187Y007039D02*
X013489Y007039D01*
X013489Y006941D02*
X015286Y006941D01*
X015384Y006842D02*
X013489Y006842D01*
X013489Y006744D02*
X015483Y006744D01*
X015581Y006645D02*
X013489Y006645D01*
X013489Y006547D02*
X014753Y006547D01*
X015031Y006547D02*
X015680Y006547D01*
X015778Y006448D02*
X015216Y006448D01*
X015314Y006350D02*
X015911Y006350D01*
X015397Y006153D02*
X020189Y006153D01*
X020188Y006152D02*
X020129Y006009D01*
X020129Y005855D01*
X020188Y005712D01*
X020297Y005603D01*
X020440Y005544D01*
X020594Y005544D01*
X020737Y005603D01*
X020776Y005642D01*
X022940Y005642D01*
X022984Y005638D01*
X022998Y005642D01*
X023012Y005642D01*
X023052Y005659D01*
X023094Y005671D01*
X023105Y005681D01*
X023119Y005686D01*
X023150Y005717D01*
X023183Y005745D01*
X023190Y005757D01*
X023200Y005768D01*
X023217Y005808D01*
X025128Y009392D01*
X026825Y009392D01*
X026931Y009436D01*
X027013Y009518D01*
X027575Y010080D01*
X027619Y010187D01*
X027619Y013673D01*
X027659Y013712D01*
X027718Y013855D01*
X027718Y014009D01*
X027659Y014152D01*
X027549Y014261D01*
X027407Y014320D01*
X027252Y014320D01*
X027110Y014261D01*
X027000Y014152D01*
X026941Y014009D01*
X026941Y013855D01*
X027000Y013712D01*
X027039Y013673D01*
X027039Y010365D01*
X026647Y009972D01*
X024969Y009972D01*
X024925Y009976D01*
X024911Y009972D01*
X024897Y009972D01*
X024857Y009955D01*
X024815Y009943D01*
X024804Y009933D01*
X024790Y009928D01*
X024759Y009897D01*
X024726Y009869D01*
X024719Y009857D01*
X024709Y009846D01*
X024692Y009806D01*
X022780Y006222D01*
X020776Y006222D01*
X020737Y006261D01*
X020594Y006320D01*
X020440Y006320D01*
X020297Y006261D01*
X020188Y006152D01*
X020147Y006054D02*
X015397Y006054D01*
X015397Y005956D02*
X020129Y005956D01*
X020129Y005857D02*
X015356Y005857D01*
X015308Y005759D02*
X020169Y005759D01*
X020240Y005660D02*
X015210Y005660D01*
X015016Y005562D02*
X020397Y005562D01*
X020637Y005562D02*
X024240Y005562D01*
X024272Y005594D02*
X024109Y005431D01*
X024021Y005217D01*
X024021Y004987D01*
X024109Y004774D01*
X024272Y004610D01*
X024485Y004522D01*
X024716Y004522D01*
X024920Y004607D01*
X024761Y004280D01*
X024187Y004280D01*
X023187Y005280D01*
X023036Y005342D01*
X022947Y005342D01*
X022928Y005360D01*
X022742Y005437D01*
X022541Y005437D01*
X022356Y005360D01*
X022214Y005218D01*
X022137Y005033D01*
X022137Y004832D01*
X022214Y004646D01*
X022356Y004504D01*
X022541Y004427D01*
X022742Y004427D01*
X022840Y004467D01*
X023785Y003522D01*
X023935Y003460D01*
X025005Y003460D01*
X025074Y003455D01*
X025086Y003460D01*
X025099Y003460D01*
X025162Y003486D01*
X025228Y003508D01*
X025237Y003517D01*
X025249Y003522D01*
X025298Y003571D01*
X025350Y003617D01*
X025355Y003628D01*
X025365Y003637D01*
X025391Y003701D01*
X027677Y008393D01*
X027687Y008397D01*
X027734Y008444D01*
X027784Y008487D01*
X027791Y008501D01*
X027802Y008512D01*
X027827Y008574D01*
X031549Y015954D01*
X031570Y015979D01*
X031585Y016026D01*
X031607Y016070D01*
X031610Y016103D01*
X031620Y016134D01*
X031616Y016184D01*
X031619Y016233D01*
X031609Y016264D01*
X031558Y016889D01*
X032005Y017163D01*
X032046Y017332D01*
X031338Y018488D01*
X031169Y018528D01*
X030181Y017923D01*
X030140Y017754D01*
X030745Y016767D01*
X030786Y016264D01*
X027202Y009155D01*
X026749Y009155D01*
X026745Y009158D01*
X026532Y009246D01*
X026301Y009246D01*
X026088Y009158D01*
X025925Y008995D01*
X025837Y008782D01*
X025837Y008551D01*
X025925Y008338D01*
X025967Y008295D01*
X025922Y008295D01*
X025841Y008282D01*
X025763Y008257D01*
X025690Y008220D01*
X025624Y008172D01*
X025566Y008114D01*
X025523Y008055D01*
X025941Y007842D01*
X025895Y007753D01*
X025478Y007966D01*
X025456Y007897D01*
X025443Y007816D01*
X025443Y007734D01*
X025456Y007653D01*
X025481Y007576D01*
X025518Y007503D01*
X025546Y007464D01*
X025393Y007464D01*
X025180Y007376D01*
X025017Y007213D01*
X024929Y006999D01*
X024929Y006769D01*
X025010Y006573D01*
X024939Y006573D01*
X024726Y006485D01*
X024563Y006322D01*
X024475Y006108D01*
X024475Y005878D01*
X024556Y005682D01*
X024485Y005682D01*
X024272Y005594D01*
X024432Y005660D02*
X023057Y005660D01*
X023191Y005759D02*
X024524Y005759D01*
X024483Y005857D02*
X023243Y005857D01*
X023296Y005956D02*
X024475Y005956D01*
X024475Y006054D02*
X023348Y006054D01*
X023401Y006153D02*
X024493Y006153D01*
X024534Y006251D02*
X023453Y006251D01*
X023506Y006350D02*
X024591Y006350D01*
X024689Y006448D02*
X023558Y006448D01*
X023611Y006547D02*
X024875Y006547D01*
X024980Y006645D02*
X023663Y006645D01*
X023716Y006744D02*
X024939Y006744D01*
X024929Y006842D02*
X023768Y006842D01*
X023821Y006941D02*
X024929Y006941D01*
X024945Y007039D02*
X023874Y007039D01*
X023926Y007138D02*
X024986Y007138D01*
X025040Y007236D02*
X023979Y007236D01*
X024031Y007335D02*
X025139Y007335D01*
X025318Y007433D02*
X024084Y007433D01*
X024136Y007532D02*
X025503Y007532D01*
X025463Y007630D02*
X024189Y007630D01*
X024241Y007729D02*
X025444Y007729D01*
X025444Y007827D02*
X024294Y007827D01*
X024346Y007926D02*
X025465Y007926D01*
X025557Y007926D02*
X025778Y007926D01*
X025751Y007827D02*
X025933Y007827D01*
X025584Y008024D02*
X024399Y008024D01*
X024451Y008123D02*
X025575Y008123D01*
X025692Y008221D02*
X024504Y008221D01*
X024556Y008320D02*
X025943Y008320D01*
X025892Y008418D02*
X024609Y008418D01*
X024662Y008517D02*
X025851Y008517D01*
X025837Y008615D02*
X024714Y008615D01*
X024767Y008714D02*
X025837Y008714D01*
X025849Y008812D02*
X024819Y008812D01*
X024872Y008911D02*
X025890Y008911D01*
X025939Y009009D02*
X024924Y009009D01*
X024977Y009108D02*
X026038Y009108D01*
X026205Y009206D02*
X025029Y009206D01*
X025082Y009305D02*
X027278Y009305D01*
X027327Y009403D02*
X026851Y009403D01*
X026997Y009502D02*
X027377Y009502D01*
X027427Y009600D02*
X027095Y009600D01*
X027194Y009699D02*
X027476Y009699D01*
X027526Y009797D02*
X027292Y009797D01*
X027391Y009896D02*
X027576Y009896D01*
X027625Y009994D02*
X027489Y009994D01*
X027580Y010093D02*
X027675Y010093D01*
X027725Y010191D02*
X027619Y010191D01*
X027619Y010290D02*
X027774Y010290D01*
X027824Y010388D02*
X027619Y010388D01*
X027619Y010487D02*
X027874Y010487D01*
X027923Y010585D02*
X027619Y010585D01*
X027619Y010684D02*
X027973Y010684D01*
X028023Y010782D02*
X027619Y010782D01*
X027619Y010881D02*
X028072Y010881D01*
X028122Y010979D02*
X027619Y010979D01*
X027619Y011078D02*
X028172Y011078D01*
X028221Y011176D02*
X027619Y011176D01*
X027619Y011275D02*
X028271Y011275D01*
X028321Y011373D02*
X027619Y011373D01*
X027619Y011472D02*
X028370Y011472D01*
X028420Y011570D02*
X027619Y011570D01*
X027619Y011669D02*
X028470Y011669D01*
X028519Y011767D02*
X027619Y011767D01*
X027619Y011866D02*
X028569Y011866D01*
X028619Y011964D02*
X027619Y011964D01*
X027619Y012063D02*
X028668Y012063D01*
X028718Y012161D02*
X027619Y012161D01*
X027619Y012260D02*
X028768Y012260D01*
X028817Y012358D02*
X027619Y012358D01*
X027619Y012457D02*
X028867Y012457D01*
X028917Y012555D02*
X027619Y012555D01*
X027619Y012654D02*
X028966Y012654D01*
X029016Y012752D02*
X027619Y012752D01*
X027619Y012851D02*
X029066Y012851D01*
X029115Y012949D02*
X027619Y012949D01*
X027619Y013048D02*
X029165Y013048D01*
X029215Y013146D02*
X027619Y013146D01*
X027619Y013245D02*
X029264Y013245D01*
X029314Y013343D02*
X027619Y013343D01*
X027619Y013442D02*
X029364Y013442D01*
X029413Y013540D02*
X027619Y013540D01*
X027619Y013639D02*
X029463Y013639D01*
X029513Y013737D02*
X027669Y013737D01*
X027710Y013836D02*
X029562Y013836D01*
X029612Y013934D02*
X027718Y013934D01*
X027708Y014033D02*
X029662Y014033D01*
X029711Y014131D02*
X027667Y014131D01*
X027581Y014230D02*
X029761Y014230D01*
X029811Y014328D02*
X026156Y014328D01*
X026058Y014427D02*
X029860Y014427D01*
X029910Y014525D02*
X025959Y014525D01*
X025861Y014624D02*
X029960Y014624D01*
X030009Y014722D02*
X025762Y014722D01*
X025664Y014821D02*
X030059Y014821D01*
X030109Y014919D02*
X025565Y014919D01*
X025467Y015018D02*
X030158Y015018D01*
X030208Y015116D02*
X025368Y015116D01*
X025280Y015215D02*
X030258Y015215D01*
X030307Y015313D02*
X025258Y015313D01*
X025211Y015412D02*
X030357Y015412D01*
X030407Y015510D02*
X025113Y015510D01*
X024671Y015510D02*
X023724Y015510D01*
X023626Y015609D02*
X030456Y015609D01*
X030506Y015707D02*
X023527Y015707D01*
X023429Y015806D02*
X028571Y015806D01*
X028447Y015904D02*
X023330Y015904D01*
X023232Y016003D02*
X025889Y016003D01*
X025737Y016101D02*
X023133Y016101D01*
X023823Y015412D02*
X024573Y015412D01*
X024526Y015313D02*
X023921Y015313D01*
X024020Y015215D02*
X024504Y015215D01*
X024504Y015116D02*
X024118Y015116D01*
X024217Y015018D02*
X024540Y015018D01*
X024606Y014919D02*
X024315Y014919D01*
X024414Y014821D02*
X024750Y014821D01*
X024942Y014722D02*
X024476Y014722D01*
X024494Y014624D02*
X025040Y014624D01*
X025139Y014525D02*
X024494Y014525D01*
X024494Y014427D02*
X025237Y014427D01*
X025336Y014328D02*
X024494Y014328D01*
X024494Y014230D02*
X025434Y014230D01*
X025533Y014131D02*
X024494Y014131D01*
X025139Y014033D02*
X025631Y014033D01*
X025730Y013934D02*
X025238Y013934D01*
X025336Y013836D02*
X025828Y013836D01*
X025927Y013737D02*
X025435Y013737D01*
X025533Y013639D02*
X026025Y013639D01*
X026124Y013540D02*
X025632Y013540D01*
X025730Y013442D02*
X026222Y013442D01*
X026321Y013343D02*
X025829Y013343D01*
X025927Y013245D02*
X026352Y013245D01*
X026352Y013146D02*
X026026Y013146D01*
X026124Y013048D02*
X026352Y013048D01*
X026352Y012949D02*
X026223Y012949D01*
X026321Y012851D02*
X026352Y012851D01*
X026932Y012851D02*
X027039Y012851D01*
X027039Y012949D02*
X026932Y012949D01*
X026932Y013048D02*
X027039Y013048D01*
X027039Y013146D02*
X026932Y013146D01*
X026932Y013245D02*
X027039Y013245D01*
X027039Y013343D02*
X026932Y013343D01*
X026932Y013442D02*
X027039Y013442D01*
X027039Y013540D02*
X026911Y013540D01*
X026846Y013639D02*
X027039Y013639D01*
X026990Y013737D02*
X026747Y013737D01*
X026649Y013836D02*
X026949Y013836D01*
X026941Y013934D02*
X026550Y013934D01*
X026452Y014033D02*
X026951Y014033D01*
X026992Y014131D02*
X026353Y014131D01*
X026255Y014230D02*
X027078Y014230D01*
X027039Y012752D02*
X026932Y012752D01*
X026932Y012654D02*
X027039Y012654D01*
X027039Y012555D02*
X026932Y012555D01*
X026932Y012457D02*
X027039Y012457D01*
X027039Y012358D02*
X026932Y012358D01*
X026932Y012260D02*
X027039Y012260D01*
X027039Y012161D02*
X026932Y012161D01*
X026932Y012063D02*
X027039Y012063D01*
X027039Y011964D02*
X026932Y011964D01*
X026932Y011866D02*
X027039Y011866D01*
X027039Y011767D02*
X026932Y011767D01*
X026932Y011669D02*
X027039Y011669D01*
X027039Y011570D02*
X026932Y011570D01*
X026932Y011472D02*
X027039Y011472D01*
X027039Y011373D02*
X026932Y011373D01*
X026932Y011275D02*
X027039Y011275D01*
X027039Y011176D02*
X026932Y011176D01*
X026932Y011078D02*
X027039Y011078D01*
X027039Y010979D02*
X026932Y010979D01*
X026932Y010881D02*
X027039Y010881D01*
X027039Y010782D02*
X026932Y010782D01*
X026932Y010684D02*
X027039Y010684D01*
X027039Y010585D02*
X026916Y010585D01*
X026857Y010487D02*
X027039Y010487D01*
X027039Y010388D02*
X026758Y010388D01*
X026660Y010290D02*
X026964Y010290D01*
X026866Y010191D02*
X026561Y010191D01*
X026422Y010093D02*
X026767Y010093D01*
X026669Y009994D02*
X024532Y009994D01*
X024585Y010093D02*
X025609Y010093D01*
X025386Y010191D02*
X024638Y010191D01*
X024690Y010290D02*
X025236Y010290D01*
X025167Y010388D02*
X024743Y010388D01*
X024796Y010487D02*
X025129Y010487D01*
X025129Y010585D02*
X024849Y010585D01*
X024902Y010684D02*
X025149Y010684D01*
X025193Y010782D02*
X024955Y010782D01*
X025008Y010881D02*
X025292Y010881D01*
X025060Y010979D02*
X025754Y010979D01*
X025742Y010881D02*
X025754Y010881D01*
X025782Y011078D02*
X025113Y011078D01*
X025166Y011176D02*
X025837Y011176D01*
X025852Y011275D02*
X025219Y011275D01*
X025272Y011373D02*
X025525Y011373D01*
X025759Y011373D02*
X025852Y011373D01*
X024758Y009896D02*
X024479Y009896D01*
X024426Y009797D02*
X024687Y009797D01*
X024635Y009699D02*
X024373Y009699D01*
X024320Y009600D02*
X024582Y009600D01*
X024530Y009502D02*
X024268Y009502D01*
X024215Y009403D02*
X024477Y009403D01*
X024425Y009305D02*
X024162Y009305D01*
X024109Y009206D02*
X024372Y009206D01*
X024319Y009108D02*
X024056Y009108D01*
X024003Y009009D02*
X024267Y009009D01*
X024214Y008911D02*
X023950Y008911D01*
X023898Y008812D02*
X024162Y008812D01*
X024109Y008714D02*
X023845Y008714D01*
X023792Y008615D02*
X024057Y008615D01*
X024004Y008517D02*
X023739Y008517D01*
X023686Y008418D02*
X023952Y008418D01*
X023899Y008320D02*
X023633Y008320D01*
X023580Y008221D02*
X023847Y008221D01*
X023794Y008123D02*
X023528Y008123D01*
X023475Y008024D02*
X023742Y008024D01*
X023689Y007926D02*
X023422Y007926D01*
X023369Y007827D02*
X023636Y007827D01*
X023584Y007729D02*
X023316Y007729D01*
X023263Y007630D02*
X023531Y007630D01*
X023479Y007532D02*
X023210Y007532D01*
X023158Y007433D02*
X023426Y007433D01*
X023374Y007335D02*
X023105Y007335D01*
X023052Y007236D02*
X023321Y007236D01*
X023269Y007138D02*
X022999Y007138D01*
X022946Y007039D02*
X023216Y007039D01*
X023164Y006941D02*
X022893Y006941D01*
X022840Y006842D02*
X023111Y006842D01*
X023059Y006744D02*
X022788Y006744D01*
X022735Y006645D02*
X023006Y006645D01*
X022954Y006547D02*
X022682Y006547D01*
X022631Y006448D02*
X022901Y006448D01*
X022848Y006350D02*
X022501Y006350D01*
X022796Y006251D02*
X020747Y006251D01*
X020287Y006251D02*
X015359Y006251D01*
X014768Y005562D02*
X014536Y005562D01*
X014528Y005570D02*
X014494Y005590D01*
X014456Y005600D01*
X013994Y005600D01*
X013994Y004909D01*
X014586Y004909D01*
X014586Y005469D01*
X014576Y005508D01*
X014556Y005542D01*
X014528Y005570D01*
X014586Y005463D02*
X024141Y005463D01*
X024082Y005365D02*
X022918Y005365D01*
X023200Y005266D02*
X024041Y005266D01*
X024021Y005168D02*
X023299Y005168D01*
X023397Y005069D02*
X024021Y005069D01*
X024027Y004971D02*
X023496Y004971D01*
X023594Y004872D02*
X024068Y004872D01*
X024109Y004774D02*
X023693Y004774D01*
X023791Y004675D02*
X024208Y004675D01*
X024354Y004577D02*
X023890Y004577D01*
X023988Y004478D02*
X024857Y004478D01*
X024847Y004577D02*
X024905Y004577D01*
X024809Y004380D02*
X024087Y004380D01*
X024185Y004281D02*
X024761Y004281D01*
X025482Y003887D02*
X026413Y003887D01*
X026462Y003986D02*
X025530Y003986D01*
X025578Y004084D02*
X026511Y004084D01*
X026561Y004183D02*
X025626Y004183D01*
X025674Y004281D02*
X026610Y004281D01*
X026659Y004380D02*
X025722Y004380D01*
X025770Y004478D02*
X026708Y004478D01*
X026758Y004577D02*
X025817Y004577D01*
X025865Y004675D02*
X026807Y004675D01*
X026856Y004774D02*
X025913Y004774D01*
X025961Y004872D02*
X026905Y004872D01*
X026955Y004971D02*
X026009Y004971D01*
X026057Y005069D02*
X027004Y005069D01*
X027053Y005168D02*
X026105Y005168D01*
X026153Y005266D02*
X027102Y005266D01*
X027152Y005365D02*
X026201Y005365D01*
X026249Y005463D02*
X027201Y005463D01*
X027250Y005562D02*
X026297Y005562D01*
X026345Y005660D02*
X027299Y005660D01*
X027349Y005759D02*
X026393Y005759D01*
X026441Y005857D02*
X027398Y005857D01*
X027447Y005956D02*
X026489Y005956D01*
X026537Y006054D02*
X027496Y006054D01*
X027546Y006153D02*
X026585Y006153D01*
X026633Y006251D02*
X027595Y006251D01*
X027644Y006350D02*
X026681Y006350D01*
X026729Y006448D02*
X027693Y006448D01*
X027743Y006547D02*
X026777Y006547D01*
X026825Y006645D02*
X027792Y006645D01*
X027841Y006744D02*
X026873Y006744D01*
X026921Y006842D02*
X027890Y006842D01*
X027940Y006941D02*
X026969Y006941D01*
X027017Y007039D02*
X027989Y007039D01*
X028038Y007138D02*
X027065Y007138D01*
X027113Y007236D02*
X028088Y007236D01*
X028275Y007335D02*
X027161Y007335D01*
X027209Y007433D02*
X028435Y007433D01*
X028589Y007532D02*
X027257Y007532D01*
X027305Y007630D02*
X028639Y007630D01*
X028688Y007729D02*
X027353Y007729D01*
X027401Y007827D02*
X028737Y007827D01*
X028787Y007926D02*
X027449Y007926D01*
X027497Y008024D02*
X028836Y008024D01*
X028885Y008123D02*
X027545Y008123D01*
X027593Y008221D02*
X028935Y008221D01*
X028984Y008320D02*
X027641Y008320D01*
X027708Y008418D02*
X029033Y008418D01*
X029083Y008517D02*
X027804Y008517D01*
X027848Y008615D02*
X029132Y008615D01*
X029181Y008714D02*
X027898Y008714D01*
X027948Y008812D02*
X029231Y008812D01*
X029280Y008911D02*
X027997Y008911D01*
X028047Y009009D02*
X029329Y009009D01*
X029379Y009108D02*
X028097Y009108D01*
X028146Y009206D02*
X029428Y009206D01*
X029477Y009305D02*
X028196Y009305D01*
X028246Y009403D02*
X029527Y009403D01*
X029576Y009502D02*
X028295Y009502D01*
X028345Y009600D02*
X029625Y009600D01*
X029674Y009699D02*
X028395Y009699D01*
X028444Y009797D02*
X029724Y009797D01*
X029773Y009896D02*
X028494Y009896D01*
X028544Y009994D02*
X029822Y009994D01*
X029872Y010093D02*
X028593Y010093D01*
X028643Y010191D02*
X029921Y010191D01*
X029970Y010290D02*
X028693Y010290D01*
X028742Y010388D02*
X030020Y010388D01*
X030069Y010487D02*
X028792Y010487D01*
X028842Y010585D02*
X030118Y010585D01*
X030168Y010684D02*
X028891Y010684D01*
X028941Y010782D02*
X030217Y010782D01*
X030266Y010881D02*
X028991Y010881D01*
X029040Y010979D02*
X030316Y010979D01*
X030365Y011078D02*
X029090Y011078D01*
X029140Y011176D02*
X030414Y011176D01*
X030464Y011275D02*
X029189Y011275D01*
X029239Y011373D02*
X030513Y011373D01*
X030562Y011472D02*
X029289Y011472D01*
X029338Y011570D02*
X030612Y011570D01*
X030661Y011669D02*
X029388Y011669D01*
X029438Y011767D02*
X030710Y011767D01*
X030760Y011866D02*
X029487Y011866D01*
X029537Y011964D02*
X030809Y011964D01*
X030858Y012063D02*
X029587Y012063D01*
X029636Y012161D02*
X030908Y012161D01*
X030957Y012260D02*
X029686Y012260D01*
X029736Y012358D02*
X031006Y012358D01*
X031056Y012457D02*
X029785Y012457D01*
X029835Y012555D02*
X031105Y012555D01*
X031154Y012654D02*
X029885Y012654D01*
X029934Y012752D02*
X031203Y012752D01*
X031253Y012851D02*
X029984Y012851D01*
X030034Y012949D02*
X031302Y012949D01*
X031351Y013048D02*
X030083Y013048D01*
X030133Y013146D02*
X031401Y013146D01*
X031450Y013245D02*
X030183Y013245D01*
X030232Y013343D02*
X031499Y013343D01*
X031549Y013442D02*
X030282Y013442D01*
X030332Y013540D02*
X031598Y013540D01*
X031647Y013639D02*
X030381Y013639D01*
X030431Y013737D02*
X031697Y013737D01*
X031746Y013836D02*
X030481Y013836D01*
X030530Y013934D02*
X031795Y013934D01*
X031694Y014033D02*
X030580Y014033D01*
X030630Y014131D02*
X031497Y014131D01*
X031300Y014230D02*
X030679Y014230D01*
X030729Y014328D02*
X031102Y014328D01*
X030948Y014405D02*
X030948Y014405D01*
X030941Y014427D02*
X030779Y014427D01*
X030828Y014525D02*
X030908Y014525D01*
X030893Y014570D02*
X030893Y014570D01*
X030878Y014624D02*
X030920Y014624D01*
X030928Y014722D02*
X030969Y014722D01*
X030977Y014821D02*
X031019Y014821D01*
X031027Y014919D02*
X031068Y014919D01*
X031077Y015018D02*
X031118Y015018D01*
X031126Y015116D02*
X031168Y015116D01*
X031176Y015215D02*
X031217Y015215D01*
X031226Y015313D02*
X031267Y015313D01*
X031275Y015412D02*
X031316Y015412D01*
X031325Y015510D02*
X031366Y015510D01*
X031375Y015609D02*
X031416Y015609D01*
X031424Y015707D02*
X031465Y015707D01*
X031474Y015806D02*
X031515Y015806D01*
X031524Y015904D02*
X031564Y015904D01*
X031577Y016003D02*
X031614Y016003D01*
X031610Y016101D02*
X031664Y016101D01*
X031617Y016200D02*
X031713Y016200D01*
X031763Y016298D02*
X031606Y016298D01*
X031598Y016397D02*
X031812Y016397D01*
X031862Y016495D02*
X031590Y016495D01*
X031582Y016594D02*
X031912Y016594D01*
X031961Y016692D02*
X031574Y016692D01*
X031566Y016791D02*
X032011Y016791D01*
X032060Y016889D02*
X031558Y016889D01*
X031719Y016988D02*
X032110Y016988D01*
X032159Y017086D02*
X031880Y017086D01*
X032010Y017185D02*
X032209Y017185D01*
X032259Y017283D02*
X032034Y017283D01*
X032016Y017382D02*
X032308Y017382D01*
X032358Y017480D02*
X031955Y017480D01*
X031895Y017579D02*
X032407Y017579D01*
X032408Y017580D02*
X032408Y017580D01*
X032573Y017635D02*
X032573Y017635D01*
X032686Y017579D02*
X033263Y017579D01*
X033313Y017677D02*
X031834Y017677D01*
X031774Y017776D02*
X033362Y017776D01*
X033411Y017874D02*
X031714Y017874D01*
X031653Y017973D02*
X033460Y017973D01*
X033510Y018071D02*
X031593Y018071D01*
X031533Y018170D02*
X033559Y018170D01*
X033608Y018268D02*
X031472Y018268D01*
X031412Y018367D02*
X033657Y018367D01*
X033707Y018465D02*
X031352Y018465D01*
X031066Y018465D02*
X028600Y018465D01*
X028598Y018367D02*
X030905Y018367D01*
X030744Y018268D02*
X028596Y018268D01*
X028594Y018170D02*
X030583Y018170D01*
X030423Y018071D02*
X028591Y018071D01*
X028640Y017973D02*
X030262Y017973D01*
X030169Y017874D02*
X028759Y017874D01*
X028878Y017776D02*
X030146Y017776D01*
X030187Y017677D02*
X028997Y017677D01*
X029116Y017579D02*
X030248Y017579D01*
X030308Y017480D02*
X029235Y017480D01*
X029354Y017382D02*
X030369Y017382D01*
X030429Y017283D02*
X029473Y017283D01*
X029588Y017185D02*
X030489Y017185D01*
X030550Y017086D02*
X029644Y017086D01*
X029668Y016988D02*
X030610Y016988D01*
X030670Y016889D02*
X029677Y016889D01*
X029656Y016791D02*
X030731Y016791D01*
X030751Y016692D02*
X029607Y016692D01*
X029543Y016594D02*
X030759Y016594D01*
X030767Y016495D02*
X029482Y016495D01*
X029420Y016397D02*
X030776Y016397D01*
X030784Y016298D02*
X029359Y016298D01*
X029298Y016200D02*
X030754Y016200D01*
X030705Y016101D02*
X029237Y016101D01*
X029176Y016003D02*
X030655Y016003D01*
X030605Y015904D02*
X029115Y015904D01*
X028997Y015806D02*
X030556Y015806D01*
X029110Y016692D02*
X028132Y016692D01*
X028008Y016791D02*
X029171Y016791D01*
X029232Y016889D02*
X027885Y016889D01*
X027761Y016988D02*
X029172Y016988D01*
X029053Y017086D02*
X027637Y017086D01*
X027514Y017185D02*
X028934Y017185D01*
X028815Y017283D02*
X027390Y017283D01*
X027266Y017382D02*
X028696Y017382D01*
X028577Y017480D02*
X027142Y017480D01*
X027019Y017579D02*
X028458Y017579D01*
X028339Y017677D02*
X026895Y017677D01*
X026771Y017776D02*
X028220Y017776D01*
X028167Y017874D02*
X026702Y017874D01*
X026704Y017973D02*
X028169Y017973D01*
X028171Y018071D02*
X026706Y018071D01*
X026708Y018170D02*
X028173Y018170D01*
X028175Y018268D02*
X026710Y018268D01*
X026712Y018367D02*
X028178Y018367D01*
X028180Y018465D02*
X026713Y018465D01*
X026715Y018564D02*
X028182Y018564D01*
X028184Y018662D02*
X026717Y018662D01*
X026719Y018761D02*
X028186Y018761D01*
X028187Y018859D02*
X026721Y018859D01*
X026723Y018958D02*
X028187Y018958D01*
X028187Y019056D02*
X026725Y019056D01*
X026726Y019155D02*
X028187Y019155D01*
X028187Y019253D02*
X026728Y019253D01*
X026730Y019352D02*
X028187Y019352D01*
X028223Y019352D02*
X028034Y019352D01*
X028187Y019450D02*
X026732Y019450D01*
X026734Y019549D02*
X028187Y019549D01*
X028218Y019549D02*
X027625Y019549D01*
X027421Y019647D02*
X028215Y019647D01*
X028187Y019647D02*
X026736Y019647D01*
X026737Y019746D02*
X028187Y019746D01*
X028212Y019746D02*
X027217Y019746D01*
X027012Y019844D02*
X028209Y019844D01*
X028187Y019844D02*
X026739Y019844D01*
X026741Y019943D02*
X028187Y019943D01*
X028206Y019943D02*
X026808Y019943D01*
X026743Y020041D02*
X028187Y020041D01*
X028203Y020041D02*
X026604Y020041D01*
X026745Y020140D02*
X028187Y020140D01*
X028200Y020140D02*
X026400Y020140D01*
X026250Y019746D02*
X025182Y019746D01*
X025182Y019844D02*
X026046Y019844D01*
X025841Y019943D02*
X025182Y019943D01*
X025182Y020041D02*
X025637Y020041D01*
X025433Y020140D02*
X025182Y020140D01*
X025182Y020150D02*
X025415Y020148D01*
X026317Y019713D01*
X026283Y017894D01*
X026275Y017867D01*
X026281Y017811D01*
X026280Y017755D01*
X026290Y017729D01*
X026294Y017701D01*
X026321Y017652D01*
X026341Y017600D01*
X026361Y017579D01*
X026375Y017555D01*
X026418Y017520D01*
X026457Y017480D01*
X026361Y017579D02*
X025280Y017579D01*
X025280Y017634D02*
X025221Y017777D01*
X025182Y017816D01*
X025182Y020150D01*
X024602Y019943D02*
X024432Y019943D01*
X024432Y020041D02*
X024560Y020041D01*
X024462Y020140D02*
X024432Y020140D01*
X024432Y019844D02*
X024602Y019844D01*
X024602Y019746D02*
X024432Y019746D01*
X024432Y019647D02*
X024602Y019647D01*
X024602Y019549D02*
X024432Y019549D01*
X024432Y019450D02*
X024602Y019450D01*
X024602Y019352D02*
X024432Y019352D01*
X024432Y019253D02*
X024602Y019253D01*
X024602Y019155D02*
X024432Y019155D01*
X024432Y019056D02*
X024602Y019056D01*
X024602Y018958D02*
X024414Y018958D01*
X024315Y018859D02*
X024602Y018859D01*
X024602Y018761D02*
X022262Y018761D01*
X022361Y018859D02*
X023129Y018859D01*
X023030Y018958D02*
X022422Y018958D01*
X022459Y019056D02*
X023012Y019056D01*
X023012Y019155D02*
X022459Y019155D01*
X022459Y019253D02*
X023012Y019253D01*
X023012Y019352D02*
X022459Y019352D01*
X022488Y019450D02*
X023012Y019450D01*
X023012Y019549D02*
X022496Y019549D01*
X022496Y019647D02*
X023012Y019647D01*
X023012Y019746D02*
X022456Y019746D01*
X022164Y018662D02*
X024602Y018662D01*
X024602Y018564D02*
X018225Y018564D01*
X018225Y018662D02*
X018457Y018662D01*
X018359Y018761D02*
X018225Y018761D01*
X018225Y018859D02*
X018260Y018859D01*
X018225Y018465D02*
X020400Y018465D01*
X020278Y018367D02*
X018225Y018367D01*
X018225Y018268D02*
X020221Y018268D01*
X020191Y018170D02*
X018225Y018170D01*
X018225Y018071D02*
X020191Y018071D01*
X020220Y017973D02*
X018225Y017973D01*
X018225Y017874D02*
X020276Y017874D01*
X020289Y017776D02*
X018225Y017776D01*
X018225Y017677D02*
X020289Y017677D01*
X020289Y017579D02*
X018225Y017579D01*
X018225Y017480D02*
X020289Y017480D01*
X020289Y017382D02*
X018225Y017382D01*
X018225Y017283D02*
X020289Y017283D01*
X020289Y017185D02*
X018225Y017185D01*
X018225Y017086D02*
X020289Y017086D01*
X020289Y016988D02*
X018225Y016988D01*
X018283Y016889D02*
X020289Y016889D01*
X020289Y016791D02*
X018381Y016791D01*
X018480Y016692D02*
X020289Y016692D01*
X020289Y016594D02*
X018540Y016594D01*
X018557Y016495D02*
X020289Y016495D01*
X020289Y016397D02*
X018557Y016397D01*
X018557Y016298D02*
X020289Y016298D01*
X020289Y016200D02*
X018557Y016200D01*
X018557Y016101D02*
X020289Y016101D01*
X020289Y016003D02*
X018557Y016003D01*
X018557Y015904D02*
X020289Y015904D01*
X020289Y015806D02*
X018557Y015806D01*
X018557Y015707D02*
X020289Y015707D01*
X020289Y015609D02*
X018557Y015609D01*
X018557Y015510D02*
X020289Y015510D01*
X020289Y015412D02*
X018557Y015412D01*
X018557Y015313D02*
X020133Y015313D01*
X019971Y015215D02*
X018557Y015215D01*
X018557Y015116D02*
X019808Y015116D01*
X019645Y015018D02*
X018557Y015018D01*
X018557Y014919D02*
X019483Y014919D01*
X019320Y014821D02*
X018557Y014821D01*
X018557Y014722D02*
X019158Y014722D01*
X018995Y014624D02*
X018557Y014624D01*
X018557Y014525D02*
X018833Y014525D01*
X018670Y014427D02*
X018557Y014427D01*
X017977Y014568D02*
X017789Y014458D01*
X017781Y014456D01*
X017739Y014429D01*
X017696Y014403D01*
X017691Y014397D01*
X015943Y013252D01*
X015915Y013240D01*
X015896Y013221D01*
X015872Y013205D01*
X015864Y013194D01*
X015864Y014950D01*
X017562Y016647D01*
X017656Y016741D01*
X017689Y016663D01*
X017977Y016374D01*
X017977Y014568D01*
X017977Y014624D02*
X017389Y014624D01*
X017389Y014709D02*
X017389Y014453D01*
X017291Y014217D01*
X017110Y014036D01*
X016874Y013938D01*
X016618Y013938D01*
X016381Y014036D01*
X016200Y014217D01*
X016103Y014453D01*
X016103Y014709D01*
X016200Y014945D01*
X016381Y015126D01*
X016618Y015224D01*
X016874Y015224D01*
X017110Y015126D01*
X017291Y014945D01*
X017389Y014709D01*
X017383Y014722D02*
X017977Y014722D01*
X017977Y014821D02*
X017342Y014821D01*
X017302Y014919D02*
X017977Y014919D01*
X017977Y015018D02*
X017218Y015018D01*
X017120Y015116D02*
X017977Y015116D01*
X017977Y015215D02*
X016896Y015215D01*
X016595Y015215D02*
X016129Y015215D01*
X016228Y015313D02*
X017977Y015313D01*
X017977Y015412D02*
X016326Y015412D01*
X016425Y015510D02*
X017977Y015510D01*
X017977Y015609D02*
X016523Y015609D01*
X016622Y015707D02*
X017977Y015707D01*
X017977Y015806D02*
X016720Y015806D01*
X016819Y015904D02*
X017977Y015904D01*
X017977Y016003D02*
X016917Y016003D01*
X017016Y016101D02*
X017977Y016101D01*
X017977Y016200D02*
X017114Y016200D01*
X017213Y016298D02*
X017977Y016298D01*
X017955Y016397D02*
X017311Y016397D01*
X017410Y016495D02*
X017856Y016495D01*
X017758Y016594D02*
X017508Y016594D01*
X017607Y016692D02*
X017677Y016692D01*
X016919Y017185D02*
X011979Y017185D01*
X012026Y017283D02*
X016919Y017283D01*
X016919Y017382D02*
X012073Y017382D01*
X012120Y017480D02*
X016919Y017480D01*
X016919Y017579D02*
X012199Y017579D01*
X012365Y017677D02*
X016919Y017677D01*
X016919Y017776D02*
X012531Y017776D01*
X012697Y017874D02*
X016919Y017874D01*
X016919Y017973D02*
X012863Y017973D01*
X013029Y018071D02*
X016919Y018071D01*
X016919Y018170D02*
X013195Y018170D01*
X013361Y018268D02*
X016919Y018268D01*
X016919Y018367D02*
X013526Y018367D01*
X013692Y018465D02*
X016919Y018465D01*
X016919Y018564D02*
X013858Y018564D01*
X014024Y018662D02*
X016919Y018662D01*
X016919Y018761D02*
X014190Y018761D01*
X014356Y018859D02*
X016919Y018859D01*
X016919Y018958D02*
X014522Y018958D01*
X014688Y019056D02*
X016919Y019056D01*
X016919Y019155D02*
X014854Y019155D01*
X015019Y019253D02*
X016919Y019253D01*
X016919Y019352D02*
X015185Y019352D01*
X015351Y019450D02*
X016919Y019450D01*
X016919Y019549D02*
X015517Y019549D01*
X015683Y019647D02*
X016919Y019647D01*
X016919Y019746D02*
X015849Y019746D01*
X016015Y019844D02*
X016919Y019844D01*
X016942Y019943D02*
X016181Y019943D01*
X016346Y020041D02*
X016984Y020041D01*
X017082Y020140D02*
X016512Y020140D01*
X018646Y020731D02*
X019103Y020731D01*
X019004Y020632D02*
X018748Y020632D01*
X018760Y021814D02*
X026537Y021814D01*
X026537Y021716D02*
X012260Y021716D01*
X012211Y021617D02*
X012593Y021617D01*
X012383Y021519D02*
X012162Y021519D01*
X012113Y021420D02*
X012285Y021420D01*
X012186Y021322D02*
X012063Y021322D01*
X012014Y021223D02*
X012131Y021223D01*
X012090Y021125D02*
X011965Y021125D01*
X011916Y021026D02*
X012049Y021026D01*
X012030Y020928D02*
X011867Y020928D01*
X011818Y020829D02*
X012030Y020829D01*
X012030Y020731D02*
X011768Y020731D01*
X011719Y020632D02*
X012031Y020632D01*
X012072Y020534D02*
X011670Y020534D01*
X011621Y020435D02*
X012113Y020435D01*
X012154Y020337D02*
X011572Y020337D01*
X011523Y020238D02*
X012242Y020238D01*
X012341Y020140D02*
X011473Y020140D01*
X013400Y021519D02*
X026537Y021519D01*
X026537Y021617D02*
X013190Y021617D01*
X013499Y021420D02*
X026537Y021420D01*
X026545Y021322D02*
X013597Y021322D01*
X013653Y021223D02*
X026586Y021223D01*
X026674Y021125D02*
X013694Y021125D01*
X019006Y021913D02*
X026537Y021913D01*
X026537Y022011D02*
X019253Y022011D01*
X020759Y018465D02*
X024602Y018465D01*
X024602Y018367D02*
X024365Y018367D01*
X024432Y018268D02*
X024602Y018268D01*
X024602Y018170D02*
X024432Y018170D01*
X024432Y018071D02*
X024602Y018071D01*
X024602Y017973D02*
X024432Y017973D01*
X024432Y017874D02*
X024602Y017874D01*
X024562Y017776D02*
X024432Y017776D01*
X024432Y017677D02*
X024522Y017677D01*
X024504Y017579D02*
X024432Y017579D01*
X024432Y017382D02*
X024545Y017382D01*
X024617Y017283D02*
X024432Y017283D01*
X024432Y017185D02*
X024777Y017185D01*
X025007Y017185D02*
X026539Y017185D01*
X026716Y017283D02*
X025167Y017283D01*
X025239Y017382D02*
X026592Y017382D01*
X026745Y017185D02*
X026839Y017185D01*
X026912Y017086D02*
X026963Y017086D01*
X026987Y016988D02*
X027087Y016988D01*
X027028Y016889D02*
X027210Y016889D01*
X027334Y016791D02*
X027030Y016791D01*
X027014Y016692D02*
X027458Y016692D01*
X027582Y016594D02*
X026974Y016594D01*
X026879Y016495D02*
X027705Y016495D01*
X027829Y016397D02*
X026405Y016397D01*
X026405Y016495D02*
X026385Y016495D01*
X026405Y016298D02*
X027953Y016298D01*
X028076Y016200D02*
X026367Y016200D01*
X026297Y016101D02*
X028200Y016101D01*
X028324Y016003D02*
X026145Y016003D01*
X028256Y016594D02*
X029048Y016594D01*
X028987Y016495D02*
X028379Y016495D01*
X028503Y016397D02*
X028926Y016397D01*
X028865Y016298D02*
X028627Y016298D01*
X028751Y016200D02*
X028804Y016200D01*
X026307Y017677D02*
X025262Y017677D01*
X025280Y017634D02*
X025280Y017480D01*
X025222Y017776D02*
X026280Y017776D01*
X026277Y017874D02*
X025182Y017874D01*
X025182Y017973D02*
X026284Y017973D01*
X026286Y018071D02*
X025182Y018071D01*
X025182Y018170D02*
X026288Y018170D01*
X026290Y018268D02*
X025182Y018268D01*
X025182Y018367D02*
X026292Y018367D01*
X026293Y018465D02*
X025182Y018465D01*
X025182Y018564D02*
X026295Y018564D01*
X026297Y018662D02*
X025182Y018662D01*
X025182Y018761D02*
X026299Y018761D01*
X026301Y018859D02*
X025182Y018859D01*
X025182Y018958D02*
X026303Y018958D01*
X026304Y019056D02*
X025182Y019056D01*
X025182Y019155D02*
X026306Y019155D01*
X026308Y019253D02*
X025182Y019253D01*
X025182Y019352D02*
X026310Y019352D01*
X026312Y019450D02*
X025182Y019450D01*
X025182Y019549D02*
X026314Y019549D01*
X026316Y019647D02*
X025182Y019647D01*
X023079Y018367D02*
X020881Y018367D01*
X020938Y018268D02*
X023012Y018268D01*
X023012Y018170D02*
X020968Y018170D01*
X020968Y018071D02*
X023012Y018071D01*
X021799Y017973D02*
X021759Y017973D01*
X021717Y017973D02*
X020939Y017973D01*
X020883Y017874D02*
X021547Y017874D01*
X021441Y017776D02*
X020869Y017776D01*
X020869Y017677D02*
X021334Y017677D01*
X021227Y017579D02*
X020869Y017579D01*
X020869Y017480D02*
X021121Y017480D01*
X021014Y017382D02*
X020869Y017382D01*
X020869Y017283D02*
X020907Y017283D01*
X017904Y014525D02*
X017389Y014525D01*
X017378Y014427D02*
X017736Y014427D01*
X017586Y014328D02*
X017337Y014328D01*
X017296Y014230D02*
X017435Y014230D01*
X017285Y014131D02*
X017205Y014131D01*
X017135Y014033D02*
X017102Y014033D01*
X016984Y013934D02*
X015864Y013934D01*
X015864Y013836D02*
X016834Y013836D01*
X016684Y013737D02*
X015864Y013737D01*
X015864Y013639D02*
X016533Y013639D01*
X016383Y013540D02*
X015864Y013540D01*
X015864Y013442D02*
X016233Y013442D01*
X016082Y013343D02*
X015864Y013343D01*
X015864Y013245D02*
X015925Y013245D01*
X015864Y014033D02*
X016389Y014033D01*
X016286Y014131D02*
X015864Y014131D01*
X015864Y014230D02*
X016195Y014230D01*
X016154Y014328D02*
X015864Y014328D01*
X015864Y014427D02*
X016114Y014427D01*
X016103Y014525D02*
X015864Y014525D01*
X015864Y014624D02*
X016103Y014624D01*
X016108Y014722D02*
X015864Y014722D01*
X015864Y014821D02*
X016149Y014821D01*
X016190Y014919D02*
X015864Y014919D01*
X015932Y015018D02*
X016273Y015018D01*
X016371Y015116D02*
X016031Y015116D01*
X015265Y015510D02*
X011182Y015510D01*
X011228Y015609D02*
X015364Y015609D01*
X015462Y015707D02*
X011275Y015707D01*
X011322Y015806D02*
X015561Y015806D01*
X015659Y015904D02*
X011369Y015904D01*
X011416Y016003D02*
X015758Y016003D01*
X015856Y016101D02*
X011463Y016101D01*
X011510Y016200D02*
X015955Y016200D01*
X016053Y016298D02*
X011557Y016298D01*
X011604Y016397D02*
X016152Y016397D01*
X016250Y016495D02*
X011651Y016495D01*
X011698Y016594D02*
X016349Y016594D01*
X016447Y016692D02*
X011744Y016692D01*
X011791Y016791D02*
X016546Y016791D01*
X016644Y016889D02*
X011838Y016889D01*
X011885Y016988D02*
X016743Y016988D01*
X016841Y017086D02*
X011932Y017086D01*
X011135Y015412D02*
X015167Y015412D01*
X015091Y015313D02*
X011088Y015313D01*
X011041Y015215D02*
X015050Y015215D01*
X015044Y015116D02*
X010994Y015116D01*
X010947Y015018D02*
X015044Y015018D01*
X015044Y014919D02*
X010900Y014919D01*
X010853Y014821D02*
X015044Y014821D01*
X015044Y014722D02*
X010806Y014722D01*
X010759Y014624D02*
X015044Y014624D01*
X015044Y014525D02*
X010712Y014525D01*
X010666Y014427D02*
X015044Y014427D01*
X015044Y014328D02*
X010619Y014328D01*
X010597Y014230D02*
X015044Y014230D01*
X015044Y014131D02*
X010597Y014131D01*
X010596Y014033D02*
X015044Y014033D01*
X015044Y013934D02*
X010596Y013934D01*
X010596Y013836D02*
X015044Y013836D01*
X015044Y013737D02*
X010595Y013737D01*
X010595Y013639D02*
X015044Y013639D01*
X015044Y013540D02*
X010595Y013540D01*
X010595Y013442D02*
X015044Y013442D01*
X015044Y013343D02*
X010594Y013343D01*
X010594Y013245D02*
X015044Y013245D01*
X015044Y013146D02*
X010594Y013146D01*
X010593Y013048D02*
X015044Y013048D01*
X015044Y012949D02*
X010593Y012949D01*
X010593Y012851D02*
X015044Y012851D01*
X015044Y012752D02*
X010592Y012752D01*
X010592Y012654D02*
X015044Y012654D01*
X015044Y012555D02*
X010592Y012555D01*
X010591Y012457D02*
X015044Y012457D01*
X015044Y012358D02*
X010591Y012358D01*
X010591Y012260D02*
X015044Y012260D01*
X015044Y012161D02*
X010591Y012161D01*
X010590Y012063D02*
X015044Y012063D01*
X015044Y011964D02*
X010590Y011964D01*
X010590Y011866D02*
X015044Y011866D01*
X015044Y011767D02*
X010589Y011767D01*
X013489Y010487D02*
X014004Y010487D01*
X014004Y010388D02*
X013489Y010388D01*
X013489Y010290D02*
X014031Y010290D01*
X014084Y010191D02*
X013489Y010191D01*
X013489Y010093D02*
X014102Y010093D01*
X014102Y009994D02*
X013489Y009994D01*
X013489Y009896D02*
X014102Y009896D01*
X014102Y009797D02*
X013489Y009797D01*
X013489Y009699D02*
X014102Y009699D01*
X014102Y009600D02*
X013489Y009600D01*
X013489Y009502D02*
X014102Y009502D01*
X014102Y009403D02*
X013489Y009403D01*
X013489Y009305D02*
X014102Y009305D01*
X014102Y009206D02*
X013489Y009206D01*
X013489Y009108D02*
X014102Y009108D01*
X014102Y009009D02*
X013489Y009009D01*
X013489Y008911D02*
X014102Y008911D01*
X014102Y008812D02*
X013489Y008812D01*
X013489Y008714D02*
X014102Y008714D01*
X014102Y008615D02*
X013489Y008615D01*
X013489Y008517D02*
X014102Y008517D01*
X014102Y008418D02*
X013489Y008418D01*
X013489Y008320D02*
X014102Y008320D01*
X014102Y008221D02*
X013489Y008221D01*
X013489Y008123D02*
X014129Y008123D01*
X014202Y008024D02*
X013489Y008024D01*
X013489Y007926D02*
X014301Y007926D01*
X015807Y008302D02*
X015807Y010548D01*
X015846Y010587D01*
X015905Y010730D01*
X015905Y010771D01*
X016209Y010466D01*
X016209Y008858D01*
X016266Y008722D01*
X016578Y008410D01*
X016682Y008306D01*
X016818Y008250D01*
X017459Y008250D01*
X017502Y008231D01*
X017657Y008231D01*
X017799Y008290D01*
X017909Y008400D01*
X017968Y008542D01*
X017968Y008697D01*
X017909Y008839D01*
X017799Y008949D01*
X017657Y009008D01*
X017502Y009008D01*
X017459Y008990D01*
X017045Y008990D01*
X016949Y009085D01*
X016949Y009705D01*
X017346Y009705D01*
X017357Y009701D01*
X017403Y009705D01*
X017450Y009705D01*
X017461Y009709D01*
X017472Y009710D01*
X017514Y009731D01*
X017556Y009749D01*
X017565Y009757D01*
X018216Y010089D01*
X018234Y010110D01*
X018487Y010237D01*
X018542Y010402D01*
X018506Y010474D01*
X018666Y010494D01*
X018634Y010359D01*
X019054Y009673D01*
X019223Y009633D01*
X019808Y009991D01*
X019833Y010098D01*
X019849Y010098D01*
X019887Y010110D01*
X020079Y010228D01*
X019862Y010581D01*
X019947Y010634D01*
X019895Y010719D01*
X020199Y010905D01*
X020079Y011101D01*
X020301Y011213D01*
X020331Y011239D01*
X020353Y011272D01*
X020365Y011309D01*
X020368Y011349D01*
X020360Y011387D01*
X020320Y011467D01*
X020280Y011546D01*
X020254Y011575D01*
X020253Y011576D01*
X020253Y011577D01*
X020245Y011616D01*
X020207Y011691D01*
X021382Y012312D01*
X021420Y012328D01*
X021429Y012337D01*
X021441Y012343D01*
X021467Y012375D01*
X021496Y012404D01*
X021501Y012416D01*
X021509Y012426D01*
X021521Y012465D01*
X021537Y012503D01*
X021537Y012516D01*
X021541Y012529D01*
X021537Y012570D01*
X021537Y013062D01*
X021977Y013303D01*
X021977Y013302D01*
X021977Y010615D01*
X021675Y010313D01*
X021657Y010320D01*
X021502Y010320D01*
X021360Y010261D01*
X021250Y010152D01*
X021191Y010009D01*
X021191Y009855D01*
X021250Y009712D01*
X021360Y009603D01*
X021502Y009544D01*
X021657Y009544D01*
X021799Y009603D01*
X021909Y009712D01*
X021918Y009736D01*
X021950Y009768D01*
X022513Y010330D01*
X022557Y010437D01*
X022557Y013097D01*
X023350Y013493D01*
X023377Y013481D01*
X023499Y013481D01*
X023477Y013427D01*
X023477Y011691D01*
X023438Y011652D01*
X023379Y011509D01*
X023379Y011355D01*
X023388Y011333D01*
X021404Y007535D01*
X016575Y007535D01*
X015807Y008302D01*
X015807Y008320D02*
X016669Y008320D01*
X016570Y008418D02*
X015807Y008418D01*
X015807Y008517D02*
X016472Y008517D01*
X016373Y008615D02*
X015807Y008615D01*
X015807Y008714D02*
X016275Y008714D01*
X016229Y008812D02*
X015807Y008812D01*
X015807Y008911D02*
X016209Y008911D01*
X016209Y009009D02*
X015807Y009009D01*
X015807Y009108D02*
X016209Y009108D01*
X016209Y009206D02*
X015807Y009206D01*
X015807Y009305D02*
X016209Y009305D01*
X016209Y009403D02*
X015807Y009403D01*
X015807Y009502D02*
X016209Y009502D01*
X016209Y009600D02*
X015807Y009600D01*
X015807Y009699D02*
X016209Y009699D01*
X016209Y009797D02*
X015807Y009797D01*
X015807Y009896D02*
X016209Y009896D01*
X016209Y009994D02*
X015807Y009994D01*
X015807Y010093D02*
X016209Y010093D01*
X016209Y010191D02*
X015807Y010191D01*
X015807Y010290D02*
X016209Y010290D01*
X016209Y010388D02*
X015807Y010388D01*
X015807Y010487D02*
X016189Y010487D01*
X016091Y010585D02*
X015844Y010585D01*
X015886Y010684D02*
X015992Y010684D01*
X016949Y009699D02*
X019038Y009699D01*
X018978Y009797D02*
X017643Y009797D01*
X017836Y009896D02*
X018917Y009896D01*
X018857Y009994D02*
X018029Y009994D01*
X018219Y010093D02*
X018797Y010093D01*
X018736Y010191D02*
X018395Y010191D01*
X018505Y010290D02*
X018676Y010290D01*
X018641Y010388D02*
X018538Y010388D01*
X018604Y010487D02*
X018664Y010487D01*
X019137Y010881D02*
X019250Y010881D01*
X019259Y010886D02*
X019173Y010833D01*
X019072Y010966D01*
X019053Y011001D01*
X019038Y011012D01*
X019027Y011027D01*
X018993Y011047D01*
X018962Y011071D01*
X018944Y011076D01*
X018927Y011086D01*
X018889Y011092D01*
X018851Y011102D01*
X018832Y011100D01*
X018813Y011102D01*
X018775Y011092D01*
X018236Y011025D01*
X018232Y011023D01*
X018174Y011139D01*
X018093Y011165D01*
X018075Y011201D01*
X018039Y011183D01*
X018039Y011183D01*
X018039Y011183D01*
X018075Y011201D01*
X018057Y011237D01*
X018084Y011317D01*
X017944Y011596D01*
X017855Y011775D01*
X017855Y011775D01*
X017715Y012054D01*
X017601Y012283D01*
X017436Y012338D01*
X016777Y012008D01*
X016760Y011958D01*
X016744Y011977D01*
X016744Y012581D01*
X019004Y013950D01*
X019004Y013917D01*
X019063Y013775D01*
X019172Y013665D01*
X019315Y013606D01*
X019370Y013606D01*
X019434Y013542D01*
X019434Y013257D01*
X019337Y013290D01*
X018678Y012960D01*
X018623Y012794D01*
X018762Y012516D01*
X018762Y012516D01*
X018877Y012287D01*
X018991Y012058D01*
X018991Y012058D01*
X019106Y011829D01*
X019221Y011600D01*
X019335Y011372D01*
X019416Y011345D01*
X019434Y011309D01*
X019473Y011230D01*
X019500Y011200D01*
X019501Y011199D01*
X019501Y011198D01*
X019509Y011159D01*
X019548Y011080D01*
X019582Y011013D01*
X019401Y010903D01*
X019374Y010874D01*
X019366Y010860D01*
X019259Y010886D01*
X019282Y010881D02*
X019380Y010881D01*
X019526Y010979D02*
X019065Y010979D01*
X018942Y011078D02*
X019550Y011078D01*
X019548Y011080D02*
X019934Y011273D01*
X019934Y011273D01*
X019548Y011080D01*
X019505Y011176D02*
X018088Y011176D01*
X018070Y011275D02*
X019451Y011275D01*
X019434Y011309D02*
X019469Y011327D01*
X019469Y011327D01*
X019434Y011309D01*
X019335Y011373D02*
X018056Y011373D01*
X018007Y011472D02*
X019285Y011472D01*
X019236Y011570D02*
X017958Y011570D01*
X017944Y011596D02*
X017944Y011596D01*
X017908Y011669D02*
X019187Y011669D01*
X019221Y011600D02*
X019221Y011600D01*
X019137Y011767D02*
X017859Y011767D01*
X017810Y011866D02*
X019088Y011866D01*
X019106Y011829D02*
X019106Y011829D01*
X019039Y011964D02*
X017760Y011964D01*
X017715Y012054D02*
X017715Y012054D01*
X017711Y012063D02*
X018989Y012063D01*
X018940Y012161D02*
X017662Y012161D01*
X017612Y012260D02*
X018891Y012260D01*
X018877Y012287D02*
X018877Y012287D01*
X018841Y012358D02*
X016744Y012358D01*
X016744Y012260D02*
X017280Y012260D01*
X017083Y012161D02*
X016744Y012161D01*
X016744Y012063D02*
X016886Y012063D01*
X016762Y011964D02*
X016755Y011964D01*
X016744Y012457D02*
X018792Y012457D01*
X018743Y012555D02*
X016744Y012555D01*
X016864Y012654D02*
X018693Y012654D01*
X018644Y012752D02*
X017026Y012752D01*
X017189Y012851D02*
X018641Y012851D01*
X018674Y012949D02*
X017351Y012949D01*
X017514Y013048D02*
X018853Y013048D01*
X019050Y013146D02*
X017677Y013146D01*
X017839Y013245D02*
X019247Y013245D01*
X019434Y013343D02*
X018002Y013343D01*
X018164Y013442D02*
X019434Y013442D01*
X019434Y013540D02*
X018327Y013540D01*
X018489Y013639D02*
X019237Y013639D01*
X019101Y013737D02*
X018652Y013737D01*
X018814Y013836D02*
X019038Y013836D01*
X019004Y013934D02*
X018977Y013934D01*
X021282Y012260D02*
X021977Y012260D01*
X021977Y012358D02*
X021453Y012358D01*
X021519Y012457D02*
X021977Y012457D01*
X021977Y012555D02*
X021538Y012555D01*
X021537Y012654D02*
X021977Y012654D01*
X021977Y012752D02*
X021537Y012752D01*
X021537Y012851D02*
X021977Y012851D01*
X021977Y012949D02*
X021537Y012949D01*
X021537Y013048D02*
X021977Y013048D01*
X021977Y013146D02*
X021691Y013146D01*
X021870Y013245D02*
X021977Y013245D01*
X022557Y013048D02*
X023477Y013048D01*
X023477Y013146D02*
X022656Y013146D01*
X022853Y013245D02*
X023477Y013245D01*
X023477Y013343D02*
X023050Y013343D01*
X023247Y013442D02*
X023483Y013442D01*
X023477Y012949D02*
X022557Y012949D01*
X022557Y012851D02*
X023477Y012851D01*
X023477Y012752D02*
X022557Y012752D01*
X022557Y012654D02*
X023477Y012654D01*
X023477Y012555D02*
X022557Y012555D01*
X022557Y012457D02*
X023477Y012457D01*
X023477Y012358D02*
X022557Y012358D01*
X022557Y012260D02*
X023477Y012260D01*
X023477Y012161D02*
X022557Y012161D01*
X022557Y012063D02*
X023477Y012063D01*
X023477Y011964D02*
X022557Y011964D01*
X022557Y011866D02*
X023477Y011866D01*
X023477Y011767D02*
X022557Y011767D01*
X022557Y011669D02*
X023455Y011669D01*
X023404Y011570D02*
X022557Y011570D01*
X022557Y011472D02*
X023379Y011472D01*
X023379Y011373D02*
X022557Y011373D01*
X022557Y011275D02*
X023358Y011275D01*
X023306Y011176D02*
X022557Y011176D01*
X022557Y011078D02*
X023255Y011078D01*
X023203Y010979D02*
X022557Y010979D01*
X022557Y010881D02*
X023152Y010881D01*
X023100Y010782D02*
X022557Y010782D01*
X022557Y010684D02*
X023049Y010684D01*
X022997Y010585D02*
X022557Y010585D01*
X022557Y010487D02*
X022946Y010487D01*
X022894Y010388D02*
X022537Y010388D01*
X022472Y010290D02*
X022843Y010290D01*
X022792Y010191D02*
X022374Y010191D01*
X022275Y010093D02*
X022740Y010093D01*
X022689Y009994D02*
X022177Y009994D01*
X022078Y009896D02*
X022637Y009896D01*
X022586Y009797D02*
X021980Y009797D01*
X021895Y009699D02*
X022534Y009699D01*
X022483Y009600D02*
X021792Y009600D01*
X021367Y009600D02*
X016949Y009600D01*
X016949Y009502D02*
X022431Y009502D01*
X022380Y009403D02*
X016949Y009403D01*
X016949Y009305D02*
X022328Y009305D01*
X022277Y009206D02*
X016949Y009206D01*
X016949Y009108D02*
X020261Y009108D01*
X020370Y009153D02*
X020134Y009055D01*
X019953Y008874D01*
X019855Y008637D01*
X019855Y008382D01*
X019953Y008145D01*
X020134Y007964D01*
X020370Y007866D01*
X020626Y007866D01*
X020862Y007964D01*
X021043Y008145D01*
X021141Y008382D01*
X021141Y008637D01*
X021043Y008874D01*
X020862Y009055D01*
X020626Y009153D01*
X020370Y009153D01*
X020088Y009009D02*
X017026Y009009D01*
X017837Y008911D02*
X019990Y008911D01*
X019927Y008812D02*
X017920Y008812D01*
X017961Y008714D02*
X019887Y008714D01*
X019855Y008615D02*
X017968Y008615D01*
X017957Y008517D02*
X019855Y008517D01*
X019855Y008418D02*
X017916Y008418D01*
X017828Y008320D02*
X019881Y008320D01*
X019922Y008221D02*
X015888Y008221D01*
X015987Y008123D02*
X019976Y008123D01*
X020074Y008024D02*
X016085Y008024D01*
X016184Y007926D02*
X020228Y007926D01*
X020769Y007926D02*
X021608Y007926D01*
X021660Y008024D02*
X020922Y008024D01*
X021020Y008123D02*
X021711Y008123D01*
X021762Y008221D02*
X021075Y008221D01*
X021115Y008320D02*
X021814Y008320D01*
X021865Y008418D02*
X021141Y008418D01*
X021141Y008517D02*
X021917Y008517D01*
X021968Y008615D02*
X021141Y008615D01*
X021110Y008714D02*
X022020Y008714D01*
X022071Y008812D02*
X021069Y008812D01*
X021007Y008911D02*
X022123Y008911D01*
X022174Y009009D02*
X020908Y009009D01*
X020735Y009108D02*
X022226Y009108D01*
X021264Y009699D02*
X019331Y009699D01*
X019491Y009797D02*
X021215Y009797D01*
X021191Y009896D02*
X019652Y009896D01*
X019808Y009994D02*
X021191Y009994D01*
X021226Y010093D02*
X019832Y010093D01*
X020019Y010191D02*
X021290Y010191D01*
X021428Y010290D02*
X020180Y010290D01*
X020164Y010280D02*
X020357Y010398D01*
X020384Y010426D01*
X020403Y010461D01*
X020412Y010500D01*
X020411Y010539D01*
X020400Y010577D01*
X020251Y010820D01*
X019947Y010634D01*
X020164Y010280D01*
X020158Y010290D02*
X020041Y010290D01*
X020098Y010388D02*
X019981Y010388D01*
X020038Y010487D02*
X019920Y010487D01*
X019868Y010585D02*
X019977Y010585D01*
X020029Y010684D02*
X019917Y010684D01*
X019998Y010782D02*
X020190Y010782D01*
X020274Y010782D02*
X021977Y010782D01*
X021977Y010684D02*
X020334Y010684D01*
X020395Y010585D02*
X021947Y010585D01*
X021849Y010487D02*
X020409Y010487D01*
X020341Y010388D02*
X021750Y010388D01*
X021977Y010881D02*
X020159Y010881D01*
X020153Y010979D02*
X021977Y010979D01*
X021977Y011078D02*
X020093Y011078D01*
X020228Y011176D02*
X021977Y011176D01*
X021977Y011275D02*
X020354Y011275D01*
X020363Y011373D02*
X021977Y011373D01*
X021977Y011472D02*
X020317Y011472D01*
X020320Y011467D02*
X019934Y011273D01*
X019934Y011273D01*
X020320Y011467D01*
X020259Y011570D02*
X021977Y011570D01*
X021977Y011669D02*
X020219Y011669D01*
X020351Y011767D02*
X021977Y011767D01*
X021977Y011866D02*
X020537Y011866D01*
X020723Y011964D02*
X021977Y011964D01*
X021977Y012063D02*
X020909Y012063D01*
X021096Y012161D02*
X021977Y012161D01*
X020133Y011373D02*
X020133Y011373D01*
X019936Y011275D02*
X019936Y011275D01*
X019934Y011273D02*
X019934Y011273D01*
X019836Y011469D01*
X019830Y011482D01*
X019836Y011469D01*
X019836Y011469D01*
X019858Y011426D01*
X019918Y011307D01*
X019934Y011273D01*
X019934Y011275D02*
X019934Y011275D01*
X019918Y011307D02*
X019918Y011307D01*
X019884Y011373D02*
X019884Y011373D01*
X019835Y011472D02*
X019835Y011472D01*
X019830Y011482D02*
X019830Y011482D01*
X019740Y011176D02*
X019740Y011176D01*
X018656Y011078D02*
X018204Y011078D01*
X014223Y010782D02*
X013759Y010782D01*
X013661Y010684D02*
X014095Y010684D01*
X014035Y010585D02*
X013562Y010585D01*
X016282Y007827D02*
X021557Y007827D01*
X021505Y007729D02*
X016381Y007729D01*
X016479Y007630D02*
X021454Y007630D01*
X022366Y005365D02*
X014586Y005365D01*
X014586Y005266D02*
X022261Y005266D01*
X022193Y005168D02*
X014586Y005168D01*
X014586Y005069D02*
X022152Y005069D01*
X022137Y004971D02*
X014586Y004971D01*
X014586Y004809D02*
X013994Y004809D01*
X013994Y004909D01*
X013894Y004909D01*
X013894Y004809D01*
X013994Y004809D01*
X013994Y004119D01*
X014456Y004119D01*
X014494Y004129D01*
X014528Y004149D01*
X014556Y004177D01*
X014576Y004211D01*
X014586Y004249D01*
X014586Y004809D01*
X014586Y004774D02*
X022161Y004774D01*
X022137Y004872D02*
X013994Y004872D01*
X013994Y004774D02*
X013894Y004774D01*
X013894Y004809D02*
X013894Y004119D01*
X013432Y004119D01*
X013394Y004129D01*
X013360Y004149D01*
X013332Y004177D01*
X013312Y004211D01*
X013302Y004249D01*
X013302Y004809D01*
X013894Y004809D01*
X013894Y004872D02*
X013134Y004872D01*
X013048Y004774D02*
X013302Y004774D01*
X013302Y004675D02*
X012964Y004675D01*
X012852Y004577D02*
X013302Y004577D01*
X013302Y004478D02*
X012329Y004478D01*
X012329Y004380D02*
X013302Y004380D01*
X013302Y004281D02*
X011804Y004281D01*
X011704Y004281D02*
X010349Y004281D01*
X010674Y004183D02*
X011179Y004183D01*
X011179Y004084D02*
X010674Y004084D01*
X010674Y003986D02*
X010724Y003986D01*
X010674Y004380D02*
X011179Y004380D01*
X011180Y004478D02*
X010674Y004478D01*
X010674Y004577D02*
X011161Y004577D01*
X011119Y004675D02*
X010674Y004675D01*
X010674Y004774D02*
X011119Y004774D01*
X011119Y004872D02*
X010674Y004872D01*
X010674Y004971D02*
X011119Y004971D01*
X011119Y005069D02*
X010674Y005069D01*
X010674Y005168D02*
X011119Y005168D01*
X011174Y005266D02*
X010674Y005266D01*
X010674Y005365D02*
X011179Y005365D01*
X011179Y005463D02*
X010674Y005463D01*
X010674Y005562D02*
X011704Y005562D01*
X011704Y005635D02*
X011179Y005635D01*
X011179Y005815D01*
X011190Y005853D01*
X011209Y005887D01*
X011237Y005915D01*
X011272Y005935D01*
X011310Y005945D01*
X011704Y005945D01*
X011704Y005635D01*
X011704Y005660D02*
X011804Y005660D01*
X011804Y005635D02*
X011804Y005945D01*
X012199Y005945D01*
X012237Y005935D01*
X012272Y005915D01*
X012299Y005887D01*
X012319Y005853D01*
X012329Y005815D01*
X012329Y005635D01*
X011804Y005635D01*
X011804Y005562D02*
X012648Y005562D01*
X012669Y005660D02*
X012329Y005660D01*
X012329Y005759D02*
X012669Y005759D01*
X012669Y005857D02*
X012317Y005857D01*
X012669Y005956D02*
X010674Y005956D01*
X010674Y006054D02*
X012669Y006054D01*
X012669Y006153D02*
X010674Y006153D01*
X010674Y006251D02*
X012669Y006251D01*
X012669Y006350D02*
X010674Y006350D01*
X010652Y006448D02*
X012669Y006448D01*
X012669Y006547D02*
X010557Y006547D01*
X010566Y006645D02*
X012669Y006645D01*
X011804Y005857D02*
X011704Y005857D01*
X011704Y005759D02*
X011804Y005759D01*
X012329Y005463D02*
X012562Y005463D01*
X012476Y005365D02*
X012329Y005365D01*
X013220Y004971D02*
X013302Y004971D01*
X013894Y004971D02*
X013994Y004971D01*
X013994Y005069D02*
X013894Y005069D01*
X013894Y005168D02*
X013994Y005168D01*
X013994Y005266D02*
X013894Y005266D01*
X013894Y005365D02*
X013994Y005365D01*
X013994Y005463D02*
X013894Y005463D01*
X013894Y005562D02*
X013994Y005562D01*
X013994Y004675D02*
X013894Y004675D01*
X013894Y004577D02*
X013994Y004577D01*
X013994Y004478D02*
X013894Y004478D01*
X013894Y004380D02*
X013994Y004380D01*
X013994Y004281D02*
X013894Y004281D01*
X013894Y004183D02*
X013994Y004183D01*
X014435Y003986D02*
X012321Y003986D01*
X012329Y004084D02*
X014534Y004084D01*
X014559Y004183D02*
X014646Y004183D01*
X014586Y004281D02*
X023026Y004281D01*
X023124Y004183D02*
X015371Y004183D01*
X015484Y004084D02*
X023223Y004084D01*
X023321Y003986D02*
X017632Y003986D01*
X017730Y003887D02*
X019245Y003887D01*
X019259Y003900D02*
X019231Y003872D01*
X019211Y003838D01*
X019201Y003800D01*
X019201Y003082D01*
X019852Y003082D01*
X019852Y002982D01*
X019952Y002982D01*
X019952Y002134D01*
X020473Y002134D01*
X020511Y002144D01*
X020545Y002164D01*
X020573Y002192D01*
X020593Y002226D01*
X020603Y002264D01*
X020603Y002982D01*
X019952Y002982D01*
X019952Y003082D01*
X020603Y003082D01*
X020603Y003800D01*
X020593Y003838D01*
X020573Y003872D01*
X020545Y003900D01*
X020511Y003920D01*
X020473Y003930D01*
X019952Y003930D01*
X019952Y003082D01*
X019852Y003082D01*
X019852Y003930D01*
X019331Y003930D01*
X019293Y003920D01*
X019259Y003900D01*
X019201Y003789D02*
X017750Y003789D01*
X017750Y003690D02*
X019201Y003690D01*
X019201Y003592D02*
X017750Y003592D01*
X017750Y003493D02*
X019201Y003493D01*
X019201Y003395D02*
X017750Y003395D01*
X017750Y003296D02*
X019201Y003296D01*
X019201Y003198D02*
X017750Y003198D01*
X017750Y003099D02*
X019201Y003099D01*
X019201Y002982D02*
X019201Y002264D01*
X019211Y002226D01*
X019231Y002192D01*
X019259Y002164D01*
X019293Y002144D01*
X019331Y002134D01*
X019852Y002134D01*
X019852Y002982D01*
X019201Y002982D01*
X019201Y002902D02*
X017750Y002902D01*
X017750Y002804D02*
X019201Y002804D01*
X019201Y002705D02*
X017750Y002705D01*
X017750Y002607D02*
X019201Y002607D01*
X019201Y002508D02*
X017750Y002508D01*
X017750Y002410D02*
X019201Y002410D01*
X019201Y002311D02*
X017750Y002311D01*
X017750Y002213D02*
X019219Y002213D01*
X019852Y002213D02*
X019952Y002213D01*
X019952Y002311D02*
X019852Y002311D01*
X019852Y002410D02*
X019952Y002410D01*
X019952Y002508D02*
X019852Y002508D01*
X019852Y002607D02*
X019952Y002607D01*
X019952Y002705D02*
X019852Y002705D01*
X019852Y002804D02*
X019952Y002804D01*
X019952Y002902D02*
X019852Y002902D01*
X019852Y003001D02*
X017750Y003001D01*
X017667Y002114D02*
X023650Y002114D01*
X023640Y002138D02*
X023747Y001880D01*
X023944Y001683D01*
X024202Y001576D01*
X024482Y001576D01*
X024740Y001683D01*
X024937Y001880D01*
X025044Y002138D01*
X025044Y002418D01*
X024937Y002676D01*
X024740Y002873D01*
X024482Y002980D01*
X024202Y002980D01*
X023944Y002873D01*
X023747Y002676D01*
X023640Y002418D01*
X023640Y002138D01*
X023640Y002213D02*
X020585Y002213D01*
X020603Y002311D02*
X023640Y002311D01*
X023640Y002410D02*
X020603Y002410D01*
X020603Y002508D02*
X023677Y002508D01*
X023718Y002607D02*
X020603Y002607D01*
X020603Y002705D02*
X023776Y002705D01*
X023875Y002804D02*
X020603Y002804D01*
X020603Y002902D02*
X024014Y002902D01*
X024670Y002902D02*
X025920Y002902D01*
X025871Y002804D02*
X024810Y002804D01*
X024908Y002705D02*
X025822Y002705D01*
X025773Y002607D02*
X024966Y002607D01*
X025007Y002508D02*
X025723Y002508D01*
X025674Y002410D02*
X025044Y002410D01*
X025044Y002311D02*
X025625Y002311D01*
X025576Y002213D02*
X025044Y002213D01*
X025034Y002114D02*
X025526Y002114D01*
X025477Y002016D02*
X024993Y002016D01*
X024953Y001917D02*
X025428Y001917D01*
X025379Y001819D02*
X024876Y001819D01*
X024777Y001720D02*
X025329Y001720D01*
X025280Y001622D02*
X024592Y001622D01*
X024092Y001622D02*
X015420Y001622D01*
X015422Y001720D02*
X023907Y001720D01*
X023809Y001819D02*
X015424Y001819D01*
X015426Y001917D02*
X023732Y001917D01*
X023691Y002016D02*
X015428Y002016D01*
X015430Y002114D02*
X016311Y002114D01*
X016227Y002213D02*
X015432Y002213D01*
X015434Y002311D02*
X016227Y002311D01*
X016227Y002410D02*
X015436Y002410D01*
X015438Y002508D02*
X016227Y002508D01*
X016227Y002607D02*
X015440Y002607D01*
X015691Y003493D02*
X016227Y003493D01*
X016227Y003592D02*
X015691Y003592D01*
X015691Y003690D02*
X016227Y003690D01*
X016227Y003789D02*
X015667Y003789D01*
X015626Y003887D02*
X016247Y003887D01*
X016346Y003986D02*
X015582Y003986D01*
X014586Y004380D02*
X022927Y004380D01*
X022418Y004478D02*
X014586Y004478D01*
X014586Y004577D02*
X022283Y004577D01*
X022202Y004675D02*
X014586Y004675D01*
X013328Y004183D02*
X012329Y004183D01*
X011179Y005660D02*
X010674Y005660D01*
X010674Y005759D02*
X011179Y005759D01*
X011192Y005857D02*
X010674Y005857D01*
X006176Y006645D02*
X005557Y006645D01*
X005508Y006547D02*
X006098Y006547D01*
X006057Y006448D02*
X005458Y006448D01*
X005409Y006350D02*
X006055Y006350D01*
X006055Y006251D02*
X005359Y006251D01*
X005310Y006153D02*
X006055Y006153D01*
X006055Y006054D02*
X005260Y006054D01*
X005211Y005956D02*
X006055Y005956D01*
X006055Y005857D02*
X005162Y005857D01*
X005112Y005759D02*
X006055Y005759D01*
X006055Y005660D02*
X005063Y005660D01*
X005013Y005562D02*
X006055Y005562D01*
X006055Y005463D02*
X004964Y005463D01*
X004881Y005365D02*
X006055Y005365D01*
X006055Y005266D02*
X004036Y005266D01*
X004085Y005365D02*
X004380Y005365D01*
X004543Y005283D02*
X004543Y005283D01*
X004183Y005463D02*
X004134Y005463D01*
X003986Y005168D02*
X006055Y005168D01*
X006055Y005069D02*
X003937Y005069D01*
X003888Y004971D02*
X006055Y004971D01*
X006055Y004872D02*
X003839Y004872D01*
X003790Y004774D02*
X006055Y004774D01*
X006055Y004675D02*
X003741Y004675D01*
X003692Y004577D02*
X006055Y004577D01*
X006055Y004478D02*
X003642Y004478D01*
X003593Y004380D02*
X006055Y004380D01*
X006055Y004281D02*
X003544Y004281D01*
X003495Y004183D02*
X006055Y004183D01*
X006055Y004084D02*
X003446Y004084D01*
X003397Y003986D02*
X006055Y003986D01*
X006055Y003887D02*
X003347Y003887D01*
X003298Y003789D02*
X006055Y003789D01*
X006055Y003690D02*
X003249Y003690D01*
X003200Y003592D02*
X006055Y003592D01*
X006055Y003493D02*
X003151Y003493D01*
X003102Y003395D02*
X006055Y003395D01*
X006055Y003296D02*
X003053Y003296D01*
X003003Y003198D02*
X006055Y003198D01*
X006055Y003099D02*
X002954Y003099D01*
X002905Y003001D02*
X003198Y003001D01*
X003301Y003043D02*
X002985Y002912D01*
X002742Y002670D01*
X002611Y002353D01*
X002611Y002010D01*
X002742Y001693D01*
X002985Y001450D01*
X003301Y001319D01*
X003644Y001319D01*
X003961Y001450D01*
X004204Y001693D01*
X004335Y002010D01*
X004335Y002353D01*
X004204Y002670D01*
X003961Y002912D01*
X003644Y003043D01*
X003301Y003043D01*
X002974Y002902D02*
X002856Y002902D01*
X002876Y002804D02*
X002807Y002804D01*
X002777Y002705D02*
X002758Y002705D01*
X002716Y002607D02*
X002709Y002607D01*
X002675Y002508D02*
X002659Y002508D01*
X002634Y002410D02*
X002610Y002410D01*
X002611Y002311D02*
X002561Y002311D01*
X002512Y002213D02*
X002611Y002213D01*
X002611Y002114D02*
X002463Y002114D01*
X002414Y002016D02*
X002611Y002016D01*
X002649Y001917D02*
X002364Y001917D01*
X002315Y001819D02*
X002690Y001819D01*
X002731Y001720D02*
X002266Y001720D01*
X002217Y001622D02*
X002813Y001622D01*
X002912Y001523D02*
X002168Y001523D01*
X002119Y001425D02*
X003047Y001425D01*
X003285Y001326D02*
X002070Y001326D01*
X003661Y001326D02*
X012965Y001326D01*
X012980Y001425D02*
X003899Y001425D01*
X004034Y001523D02*
X012995Y001523D01*
X013010Y001622D02*
X004132Y001622D01*
X004215Y001720D02*
X013025Y001720D01*
X013040Y001819D02*
X010747Y001819D01*
X010841Y001917D02*
X013055Y001917D01*
X013069Y002016D02*
X010881Y002016D01*
X010894Y002114D02*
X013084Y002114D01*
X013099Y002213D02*
X010894Y002213D01*
X015418Y001523D02*
X025231Y001523D01*
X025182Y001425D02*
X015416Y001425D01*
X015414Y001326D02*
X025132Y001326D01*
X025083Y001228D02*
X015412Y001228D01*
X019852Y003099D02*
X019952Y003099D01*
X019952Y003001D02*
X025970Y003001D01*
X026019Y003099D02*
X020603Y003099D01*
X020603Y003198D02*
X026068Y003198D01*
X026117Y003296D02*
X020603Y003296D01*
X020603Y003395D02*
X026167Y003395D01*
X026216Y003493D02*
X025183Y003493D01*
X025321Y003592D02*
X026265Y003592D01*
X026314Y003690D02*
X025386Y003690D01*
X025434Y003789D02*
X026364Y003789D01*
X023855Y003493D02*
X020603Y003493D01*
X020603Y003592D02*
X023715Y003592D01*
X023617Y003690D02*
X020603Y003690D01*
X020603Y003789D02*
X023518Y003789D01*
X023420Y003887D02*
X020559Y003887D01*
X019952Y003887D02*
X019852Y003887D01*
X019852Y003789D02*
X019952Y003789D01*
X019952Y003690D02*
X019852Y003690D01*
X019852Y003592D02*
X019952Y003592D01*
X019952Y003493D02*
X019852Y003493D01*
X019852Y003395D02*
X019952Y003395D01*
X019952Y003296D02*
X019852Y003296D01*
X019852Y003198D02*
X019952Y003198D01*
X026629Y009206D02*
X027228Y009206D01*
X033080Y017382D02*
X033165Y017382D01*
X033214Y017480D02*
X032883Y017480D01*
X033756Y018564D02*
X028602Y018564D01*
X028604Y018662D02*
X033805Y018662D01*
X033854Y018761D02*
X028607Y018761D01*
X028608Y018859D02*
X033904Y018859D01*
X033953Y018958D02*
X028607Y018958D01*
X028607Y019056D02*
X029413Y019056D01*
X029425Y019037D02*
X029453Y019010D01*
X029488Y018991D01*
X029526Y018982D01*
X029566Y018983D01*
X029604Y018994D01*
X029997Y019235D01*
X029637Y019824D01*
X029722Y019876D01*
X030083Y019288D01*
X030477Y019529D01*
X030504Y019558D01*
X030523Y019592D01*
X030532Y019631D01*
X030531Y019670D01*
X030520Y019708D01*
X030227Y020186D01*
X029722Y019876D01*
X029670Y019962D01*
X030175Y020271D01*
X029882Y020749D01*
X029853Y020776D01*
X029818Y020795D01*
X029780Y020804D01*
X029741Y020803D01*
X029703Y020792D01*
X029309Y020550D01*
X029670Y019962D01*
X029584Y019909D01*
X029637Y019824D01*
X029132Y019515D01*
X029425Y019037D01*
X029352Y019155D02*
X028641Y019155D01*
X028646Y019253D02*
X029292Y019253D01*
X029232Y019352D02*
X028644Y019352D01*
X028641Y019450D02*
X029171Y019450D01*
X029187Y019549D02*
X028638Y019549D01*
X028635Y019647D02*
X029051Y019647D01*
X029080Y019600D02*
X029584Y019909D01*
X029224Y020498D01*
X028830Y020257D01*
X028803Y020228D01*
X028784Y020193D01*
X028775Y020155D01*
X028776Y020116D01*
X028787Y020078D01*
X029080Y019600D01*
X029156Y019647D02*
X029348Y019647D01*
X029317Y019746D02*
X029509Y019746D01*
X029478Y019844D02*
X029624Y019844D01*
X029669Y019844D02*
X029742Y019844D01*
X029685Y019746D02*
X029802Y019746D01*
X029745Y019647D02*
X029862Y019647D01*
X029805Y019549D02*
X029923Y019549D01*
X029866Y019450D02*
X029983Y019450D01*
X029926Y019352D02*
X030043Y019352D01*
X029987Y019253D02*
X034101Y019253D01*
X034150Y019352D02*
X030187Y019352D01*
X030348Y019450D02*
X034199Y019450D01*
X034248Y019549D02*
X030495Y019549D01*
X030531Y019647D02*
X034298Y019647D01*
X034347Y019746D02*
X030496Y019746D01*
X030436Y019844D02*
X034396Y019844D01*
X034445Y019943D02*
X030376Y019943D01*
X030315Y020041D02*
X034495Y020041D01*
X034544Y020140D02*
X030255Y020140D01*
X030151Y020140D02*
X029960Y020140D01*
X029991Y020041D02*
X029799Y020041D01*
X029830Y019943D02*
X029681Y019943D01*
X029639Y019943D02*
X029564Y019943D01*
X029621Y020041D02*
X029504Y020041D01*
X029561Y020140D02*
X029443Y020140D01*
X029500Y020238D02*
X029383Y020238D01*
X029440Y020337D02*
X029323Y020337D01*
X029379Y020435D02*
X029262Y020435D01*
X029319Y020534D02*
X028609Y020534D01*
X028607Y020632D02*
X029442Y020632D01*
X029603Y020731D02*
X028607Y020731D01*
X028607Y020829D02*
X033070Y020829D01*
X033070Y020773D02*
X033177Y020515D01*
X033374Y020318D01*
X033632Y020211D01*
X033912Y020211D01*
X034170Y020318D01*
X034367Y020515D01*
X034474Y020773D01*
X034474Y021053D01*
X034367Y021311D01*
X034170Y021508D01*
X033912Y021615D01*
X033632Y021615D01*
X033374Y021508D01*
X033177Y021311D01*
X033070Y021053D01*
X033070Y020773D01*
X033088Y020731D02*
X029893Y020731D01*
X029953Y020632D02*
X033128Y020632D01*
X033169Y020534D02*
X030014Y020534D01*
X030074Y020435D02*
X033257Y020435D01*
X033355Y020337D02*
X030134Y020337D01*
X030121Y020238D02*
X033567Y020238D01*
X033977Y020238D02*
X034593Y020238D01*
X034642Y020337D02*
X034189Y020337D01*
X034287Y020435D02*
X034692Y020435D01*
X034741Y020534D02*
X034375Y020534D01*
X034416Y020632D02*
X034790Y020632D01*
X034839Y020731D02*
X034456Y020731D01*
X034474Y020829D02*
X034889Y020829D01*
X034938Y020928D02*
X034474Y020928D01*
X034474Y021026D02*
X034987Y021026D01*
X035036Y021125D02*
X034444Y021125D01*
X034404Y021223D02*
X035086Y021223D01*
X035135Y021322D02*
X034356Y021322D01*
X034258Y021420D02*
X035184Y021420D01*
X035233Y021519D02*
X034145Y021519D01*
X033399Y021519D02*
X030257Y021519D01*
X030257Y021617D02*
X035283Y021617D01*
X035332Y021716D02*
X030257Y021716D01*
X030257Y021814D02*
X035381Y021814D01*
X035430Y021913D02*
X030257Y021913D01*
X030257Y021420D02*
X033286Y021420D01*
X033188Y021322D02*
X030251Y021322D01*
X030153Y021223D02*
X033140Y021223D01*
X033100Y021125D02*
X028594Y021125D01*
X028611Y021026D02*
X033070Y021026D01*
X033070Y020928D02*
X028607Y020928D01*
X028612Y020435D02*
X029121Y020435D01*
X028960Y020337D02*
X028615Y020337D01*
X028618Y020238D02*
X028812Y020238D01*
X028775Y020140D02*
X028621Y020140D01*
X028623Y020041D02*
X028809Y020041D01*
X028870Y019943D02*
X028626Y019943D01*
X028629Y019844D02*
X028930Y019844D01*
X028990Y019746D02*
X028632Y019746D01*
X028221Y019450D02*
X027829Y019450D01*
X029705Y019056D02*
X034002Y019056D01*
X034051Y019155D02*
X029866Y019155D01*
X006055Y003001D02*
X003748Y003001D01*
X003971Y002902D02*
X006055Y002902D01*
X006055Y002804D02*
X004070Y002804D01*
X004168Y002705D02*
X006055Y002705D01*
X006055Y002607D02*
X004230Y002607D01*
X004271Y002508D02*
X006055Y002508D01*
X006055Y002410D02*
X004312Y002410D01*
X004335Y002311D02*
X006055Y002311D01*
X006055Y002213D02*
X004335Y002213D01*
X004335Y002114D02*
X006055Y002114D01*
X006068Y002016D02*
X004335Y002016D01*
X004297Y001917D02*
X006108Y001917D01*
X006202Y001819D02*
X004256Y001819D01*
D24*
X015009Y003594D03*
X032608Y020231D03*
D25*
X022645Y003260D03*
D26*
X013783Y002995D02*
X013800Y001322D01*
X010901Y001322D01*
X010894Y002021D01*
X010904Y002043D01*
X010904Y002999D01*
X011223Y002998D01*
X011254Y002985D01*
X012255Y002985D01*
X012279Y002995D01*
X013783Y002995D01*
X013783Y002947D02*
X010904Y002947D01*
X010904Y002828D02*
X013784Y002828D01*
X013786Y002710D02*
X010904Y002710D01*
X010904Y002591D02*
X013787Y002591D01*
X013788Y002473D02*
X010904Y002473D01*
X010904Y002354D02*
X013789Y002354D01*
X013790Y002236D02*
X010904Y002236D01*
X010904Y002117D02*
X013792Y002117D01*
X013793Y001999D02*
X010895Y001999D01*
X010896Y001880D02*
X013794Y001880D01*
X013795Y001762D02*
X010897Y001762D01*
X010898Y001643D02*
X013796Y001643D01*
X013798Y001525D02*
X010899Y001525D01*
X010901Y001406D02*
X013799Y001406D01*
X017088Y010370D02*
X017165Y010446D01*
X017804Y010779D01*
X017919Y010550D02*
X018329Y010745D01*
X018267Y011307D02*
X018579Y011620D01*
X018267Y011307D02*
X017689Y011008D01*
X017460Y011466D02*
X016704Y011057D01*
X016829Y011432D02*
X017346Y011694D01*
X017165Y010446D02*
X017142Y010432D01*
X017088Y010370D01*
X019590Y011960D02*
X020892Y012682D01*
X020892Y013807D01*
X020517Y013432D02*
X020517Y012745D01*
X019476Y012189D01*
X019361Y012418D02*
X020079Y012807D01*
X020079Y014557D01*
X019704Y013682D02*
X019704Y012870D01*
X019247Y012646D01*
X019705Y011731D02*
X021267Y012557D01*
X021267Y013245D01*
X019819Y011502D02*
X019934Y011273D01*
D27*
X018579Y011620D03*
X009579Y007495D03*
X008782Y007765D03*
X008017Y008057D03*
D28*
X014392Y010432D03*
X015517Y010807D03*
X017142Y010432D03*
X017579Y008620D03*
X016767Y007995D03*
X014767Y009182D03*
X020517Y005932D03*
X024603Y006827D03*
X021579Y009932D03*
X021579Y010870D03*
X023767Y011432D03*
X025642Y011745D03*
X026142Y010932D03*
X025517Y010557D03*
X025267Y012745D03*
X027329Y013932D03*
X024892Y015182D03*
X026017Y016370D03*
X026642Y016807D03*
X024892Y017557D03*
X022267Y016057D03*
X021579Y016807D03*
X020579Y018120D03*
X019454Y020307D03*
X022704Y015182D03*
X023204Y014307D03*
X023454Y013870D03*
X020517Y014057D03*
X020517Y013432D03*
X019392Y013995D03*
D29*
X013329Y015057D03*
X012079Y007557D03*
X014892Y006057D03*
X022642Y004932D03*
X026392Y014495D03*
X027704Y017745D03*
X027142Y019370D03*
X027142Y020495D03*
D30*
X020079Y017182D03*
X018829Y015620D03*
X017454Y015620D03*
X019017Y008682D03*
D31*
X018525Y019560D02*
X018485Y019680D01*
D32*
X018517Y019568D02*
X018525Y019560D01*
X018525Y019560D01*
X018517Y019552D01*
X018517Y019182D01*
X018704Y018995D01*
X019732Y018995D01*
X019706Y019020D01*
X019706Y019560D01*
X019732Y018995D02*
X020866Y018995D01*
X020868Y018996D01*
X020868Y019560D01*
X020866Y018995D02*
X021917Y018995D01*
X022049Y019127D01*
X022049Y019560D01*
X022049Y019560D01*
X018517Y019568D02*
X018517Y020057D01*
X018329Y020245D01*
X017767Y020245D01*
X017329Y019807D01*
X017329Y016995D01*
X015454Y015120D01*
X015454Y011307D01*
X013704Y011307D01*
X013079Y010682D01*
X013079Y006057D01*
X013079Y005432D01*
X012642Y004932D01*
X011754Y004915D01*
X011754Y003575D02*
X010814Y003580D01*
X011754Y003575D02*
X014990Y003575D01*
X015009Y003594D01*
X015570Y003032D01*
X016989Y003032D01*
X014892Y006057D02*
X013079Y006057D01*
X022642Y004932D02*
X022954Y004932D01*
X024017Y003870D01*
X025017Y003870D01*
X027392Y008745D01*
X026495Y008745D01*
X026417Y008666D01*
X027392Y008745D02*
X027454Y008745D01*
X031204Y016182D01*
X031093Y017543D01*
D33*
X023722Y019563D02*
X023103Y020182D01*
X021704Y020182D01*
X021454Y019932D01*
X021458Y019560D01*
X015892Y011307D02*
X015454Y011307D01*
X015892Y011307D02*
X016579Y010620D01*
X016579Y009870D01*
X016579Y008932D01*
X016892Y008620D01*
X017579Y008620D01*
M02*
