G75*
%MOIN*%
%OFA0B0*%
%FSLAX24Y24*%
%IPPOS*%
%LPD*%
%AMOC8*
5,1,8,0,0,1.08239X$1,22.5*
%
%ADD10C,0.0000*%
%ADD11R,0.0563X0.0138*%
%ADD12R,0.0512X0.0630*%
%ADD13R,0.1181X0.0984*%
%ADD14R,0.0984X0.1181*%
%ADD15C,0.0476*%
%ADD16R,0.4098X0.4252*%
%ADD17R,0.0850X0.0420*%
%ADD18R,0.1102X0.1496*%
%ADD19C,0.0740*%
%ADD20R,0.1000X0.1000*%
%ADD21R,0.1100X0.0900*%
%ADD22C,0.0160*%
%ADD23C,0.0100*%
%ADD24C,0.0945*%
%ADD25C,0.0768*%
%ADD26C,0.0120*%
%ADD27C,0.0709*%
%ADD28C,0.0356*%
%ADD29C,0.0591*%
%ADD30C,0.0472*%
%ADD31C,0.0400*%
%ADD32C,0.0560*%
%ADD33C,0.0240*%
%ADD34C,0.0320*%
%ADD35C,0.0560*%
D10*
X001543Y001214D02*
X007057Y001214D01*
X007162Y001332D01*
X007163Y001992D01*
X010376Y001990D01*
X010370Y000897D01*
X017853Y000897D01*
X018407Y001214D01*
X025254Y001214D01*
X028315Y007336D01*
X028846Y007690D01*
X032212Y014373D01*
X031218Y014865D01*
X032655Y017739D01*
X033246Y017444D01*
X033393Y017483D01*
X035864Y022424D01*
X030103Y022423D01*
X030103Y022424D02*
X030103Y021647D01*
X026989Y021647D01*
X026989Y022739D01*
X019476Y022739D01*
X018689Y022424D01*
X012143Y022424D01*
X009220Y016568D01*
X008561Y015977D01*
X005204Y009265D01*
X006218Y008753D01*
X004781Y005889D01*
X004191Y006184D01*
X004004Y006145D01*
X001543Y001214D01*
X003060Y002453D02*
X003062Y002497D01*
X003068Y002541D01*
X003078Y002584D01*
X003091Y002626D01*
X003109Y002666D01*
X003130Y002705D01*
X003154Y002742D01*
X003181Y002777D01*
X003212Y002809D01*
X003245Y002838D01*
X003281Y002864D01*
X003319Y002886D01*
X003359Y002905D01*
X003400Y002921D01*
X003443Y002933D01*
X003486Y002941D01*
X003530Y002945D01*
X003574Y002945D01*
X003618Y002941D01*
X003661Y002933D01*
X003704Y002921D01*
X003745Y002905D01*
X003785Y002886D01*
X003823Y002864D01*
X003859Y002838D01*
X003892Y002809D01*
X003923Y002777D01*
X003950Y002742D01*
X003974Y002705D01*
X003995Y002666D01*
X004013Y002626D01*
X004026Y002584D01*
X004036Y002541D01*
X004042Y002497D01*
X004044Y002453D01*
X004042Y002409D01*
X004036Y002365D01*
X004026Y002322D01*
X004013Y002280D01*
X003995Y002240D01*
X003974Y002201D01*
X003950Y002164D01*
X003923Y002129D01*
X003892Y002097D01*
X003859Y002068D01*
X003823Y002042D01*
X003785Y002020D01*
X003745Y002001D01*
X003704Y001985D01*
X003661Y001973D01*
X003618Y001965D01*
X003574Y001961D01*
X003530Y001961D01*
X003486Y001965D01*
X003443Y001973D01*
X003400Y001985D01*
X003359Y002001D01*
X003319Y002020D01*
X003281Y002042D01*
X003245Y002068D01*
X003212Y002097D01*
X003181Y002129D01*
X003154Y002164D01*
X003130Y002201D01*
X003109Y002240D01*
X003091Y002280D01*
X003078Y002322D01*
X003068Y002365D01*
X003062Y002409D01*
X003060Y002453D01*
X016391Y014853D02*
X016393Y014894D01*
X016399Y014935D01*
X016409Y014975D01*
X016422Y015014D01*
X016439Y015051D01*
X016460Y015087D01*
X016484Y015121D01*
X016511Y015152D01*
X016540Y015180D01*
X016573Y015206D01*
X016607Y015228D01*
X016644Y015247D01*
X016682Y015262D01*
X016722Y015274D01*
X016762Y015282D01*
X016803Y015286D01*
X016845Y015286D01*
X016886Y015282D01*
X016926Y015274D01*
X016966Y015262D01*
X017004Y015247D01*
X017040Y015228D01*
X017075Y015206D01*
X017108Y015180D01*
X017137Y015152D01*
X017164Y015121D01*
X017188Y015087D01*
X017209Y015051D01*
X017226Y015014D01*
X017239Y014975D01*
X017249Y014935D01*
X017255Y014894D01*
X017257Y014853D01*
X017255Y014812D01*
X017249Y014771D01*
X017239Y014731D01*
X017226Y014692D01*
X017209Y014655D01*
X017188Y014619D01*
X017164Y014585D01*
X017137Y014554D01*
X017108Y014526D01*
X017075Y014500D01*
X017041Y014478D01*
X017004Y014459D01*
X016966Y014444D01*
X016926Y014432D01*
X016886Y014424D01*
X016845Y014420D01*
X016803Y014420D01*
X016762Y014424D01*
X016722Y014432D01*
X016682Y014444D01*
X016644Y014459D01*
X016608Y014478D01*
X016573Y014500D01*
X016540Y014526D01*
X016511Y014554D01*
X016484Y014585D01*
X016460Y014619D01*
X016439Y014655D01*
X016422Y014692D01*
X016409Y014731D01*
X016399Y014771D01*
X016393Y014812D01*
X016391Y014853D01*
X012163Y017582D02*
X012165Y017623D01*
X012171Y017664D01*
X012181Y017704D01*
X012194Y017743D01*
X012211Y017780D01*
X012232Y017816D01*
X012256Y017850D01*
X012283Y017881D01*
X012312Y017909D01*
X012345Y017935D01*
X012379Y017957D01*
X012416Y017976D01*
X012454Y017991D01*
X012494Y018003D01*
X012534Y018011D01*
X012575Y018015D01*
X012617Y018015D01*
X012658Y018011D01*
X012698Y018003D01*
X012738Y017991D01*
X012776Y017976D01*
X012812Y017957D01*
X012847Y017935D01*
X012880Y017909D01*
X012909Y017881D01*
X012936Y017850D01*
X012960Y017816D01*
X012981Y017780D01*
X012998Y017743D01*
X013011Y017704D01*
X013021Y017664D01*
X013027Y017623D01*
X013029Y017582D01*
X013027Y017541D01*
X013021Y017500D01*
X013011Y017460D01*
X012998Y017421D01*
X012981Y017384D01*
X012960Y017348D01*
X012936Y017314D01*
X012909Y017283D01*
X012880Y017255D01*
X012847Y017229D01*
X012813Y017207D01*
X012776Y017188D01*
X012738Y017173D01*
X012698Y017161D01*
X012658Y017153D01*
X012617Y017149D01*
X012575Y017149D01*
X012534Y017153D01*
X012494Y017161D01*
X012454Y017173D01*
X012416Y017188D01*
X012380Y017207D01*
X012345Y017229D01*
X012312Y017255D01*
X012283Y017283D01*
X012256Y017314D01*
X012232Y017348D01*
X012211Y017384D01*
X012194Y017421D01*
X012181Y017460D01*
X012171Y017500D01*
X012165Y017541D01*
X012163Y017582D01*
X013187Y018133D02*
X013189Y018174D01*
X013195Y018215D01*
X013205Y018255D01*
X013218Y018294D01*
X013235Y018331D01*
X013256Y018367D01*
X013280Y018401D01*
X013307Y018432D01*
X013336Y018460D01*
X013369Y018486D01*
X013403Y018508D01*
X013440Y018527D01*
X013478Y018542D01*
X013518Y018554D01*
X013558Y018562D01*
X013599Y018566D01*
X013641Y018566D01*
X013682Y018562D01*
X013722Y018554D01*
X013762Y018542D01*
X013800Y018527D01*
X013836Y018508D01*
X013871Y018486D01*
X013904Y018460D01*
X013933Y018432D01*
X013960Y018401D01*
X013984Y018367D01*
X014005Y018331D01*
X014022Y018294D01*
X014035Y018255D01*
X014045Y018215D01*
X014051Y018174D01*
X014053Y018133D01*
X014051Y018092D01*
X014045Y018051D01*
X014035Y018011D01*
X014022Y017972D01*
X014005Y017935D01*
X013984Y017899D01*
X013960Y017865D01*
X013933Y017834D01*
X013904Y017806D01*
X013871Y017780D01*
X013837Y017758D01*
X013800Y017739D01*
X013762Y017724D01*
X013722Y017712D01*
X013682Y017704D01*
X013641Y017700D01*
X013599Y017700D01*
X013558Y017704D01*
X013518Y017712D01*
X013478Y017724D01*
X013440Y017739D01*
X013404Y017758D01*
X013369Y017780D01*
X013336Y017806D01*
X013307Y017834D01*
X013280Y017865D01*
X013256Y017899D01*
X013235Y017935D01*
X013218Y017972D01*
X013205Y018011D01*
X013195Y018051D01*
X013189Y018092D01*
X013187Y018133D01*
X014171Y018723D02*
X014173Y018764D01*
X014179Y018805D01*
X014189Y018845D01*
X014202Y018884D01*
X014219Y018921D01*
X014240Y018957D01*
X014264Y018991D01*
X014291Y019022D01*
X014320Y019050D01*
X014353Y019076D01*
X014387Y019098D01*
X014424Y019117D01*
X014462Y019132D01*
X014502Y019144D01*
X014542Y019152D01*
X014583Y019156D01*
X014625Y019156D01*
X014666Y019152D01*
X014706Y019144D01*
X014746Y019132D01*
X014784Y019117D01*
X014820Y019098D01*
X014855Y019076D01*
X014888Y019050D01*
X014917Y019022D01*
X014944Y018991D01*
X014968Y018957D01*
X014989Y018921D01*
X015006Y018884D01*
X015019Y018845D01*
X015029Y018805D01*
X015035Y018764D01*
X015037Y018723D01*
X015035Y018682D01*
X015029Y018641D01*
X015019Y018601D01*
X015006Y018562D01*
X014989Y018525D01*
X014968Y018489D01*
X014944Y018455D01*
X014917Y018424D01*
X014888Y018396D01*
X014855Y018370D01*
X014821Y018348D01*
X014784Y018329D01*
X014746Y018314D01*
X014706Y018302D01*
X014666Y018294D01*
X014625Y018290D01*
X014583Y018290D01*
X014542Y018294D01*
X014502Y018302D01*
X014462Y018314D01*
X014424Y018329D01*
X014388Y018348D01*
X014353Y018370D01*
X014320Y018396D01*
X014291Y018424D01*
X014264Y018455D01*
X014240Y018489D01*
X014219Y018525D01*
X014202Y018562D01*
X014189Y018601D01*
X014179Y018641D01*
X014173Y018682D01*
X014171Y018723D01*
X015155Y019275D02*
X015157Y019316D01*
X015163Y019357D01*
X015173Y019397D01*
X015186Y019436D01*
X015203Y019473D01*
X015224Y019509D01*
X015248Y019543D01*
X015275Y019574D01*
X015304Y019602D01*
X015337Y019628D01*
X015371Y019650D01*
X015408Y019669D01*
X015446Y019684D01*
X015486Y019696D01*
X015526Y019704D01*
X015567Y019708D01*
X015609Y019708D01*
X015650Y019704D01*
X015690Y019696D01*
X015730Y019684D01*
X015768Y019669D01*
X015804Y019650D01*
X015839Y019628D01*
X015872Y019602D01*
X015901Y019574D01*
X015928Y019543D01*
X015952Y019509D01*
X015973Y019473D01*
X015990Y019436D01*
X016003Y019397D01*
X016013Y019357D01*
X016019Y019316D01*
X016021Y019275D01*
X016019Y019234D01*
X016013Y019193D01*
X016003Y019153D01*
X015990Y019114D01*
X015973Y019077D01*
X015952Y019041D01*
X015928Y019007D01*
X015901Y018976D01*
X015872Y018948D01*
X015839Y018922D01*
X015805Y018900D01*
X015768Y018881D01*
X015730Y018866D01*
X015690Y018854D01*
X015650Y018846D01*
X015609Y018842D01*
X015567Y018842D01*
X015526Y018846D01*
X015486Y018854D01*
X015446Y018866D01*
X015408Y018881D01*
X015372Y018900D01*
X015337Y018922D01*
X015304Y018948D01*
X015275Y018976D01*
X015248Y019007D01*
X015224Y019041D01*
X015203Y019077D01*
X015186Y019114D01*
X015173Y019153D01*
X015163Y019193D01*
X015157Y019234D01*
X015155Y019275D01*
X016140Y019865D02*
X016142Y019906D01*
X016148Y019947D01*
X016158Y019987D01*
X016171Y020026D01*
X016188Y020063D01*
X016209Y020099D01*
X016233Y020133D01*
X016260Y020164D01*
X016289Y020192D01*
X016322Y020218D01*
X016356Y020240D01*
X016393Y020259D01*
X016431Y020274D01*
X016471Y020286D01*
X016511Y020294D01*
X016552Y020298D01*
X016594Y020298D01*
X016635Y020294D01*
X016675Y020286D01*
X016715Y020274D01*
X016753Y020259D01*
X016789Y020240D01*
X016824Y020218D01*
X016857Y020192D01*
X016886Y020164D01*
X016913Y020133D01*
X016937Y020099D01*
X016958Y020063D01*
X016975Y020026D01*
X016988Y019987D01*
X016998Y019947D01*
X017004Y019906D01*
X017006Y019865D01*
X017004Y019824D01*
X016998Y019783D01*
X016988Y019743D01*
X016975Y019704D01*
X016958Y019667D01*
X016937Y019631D01*
X016913Y019597D01*
X016886Y019566D01*
X016857Y019538D01*
X016824Y019512D01*
X016790Y019490D01*
X016753Y019471D01*
X016715Y019456D01*
X016675Y019444D01*
X016635Y019436D01*
X016594Y019432D01*
X016552Y019432D01*
X016511Y019436D01*
X016471Y019444D01*
X016431Y019456D01*
X016393Y019471D01*
X016357Y019490D01*
X016322Y019512D01*
X016289Y019538D01*
X016260Y019566D01*
X016233Y019597D01*
X016209Y019631D01*
X016188Y019667D01*
X016171Y019704D01*
X016158Y019743D01*
X016148Y019783D01*
X016142Y019824D01*
X016140Y019865D01*
X012478Y021079D02*
X012480Y021123D01*
X012486Y021167D01*
X012496Y021210D01*
X012509Y021252D01*
X012527Y021292D01*
X012548Y021331D01*
X012572Y021368D01*
X012599Y021403D01*
X012630Y021435D01*
X012663Y021464D01*
X012699Y021490D01*
X012737Y021512D01*
X012777Y021531D01*
X012818Y021547D01*
X012861Y021559D01*
X012904Y021567D01*
X012948Y021571D01*
X012992Y021571D01*
X013036Y021567D01*
X013079Y021559D01*
X013122Y021547D01*
X013163Y021531D01*
X013203Y021512D01*
X013241Y021490D01*
X013277Y021464D01*
X013310Y021435D01*
X013341Y021403D01*
X013368Y021368D01*
X013392Y021331D01*
X013413Y021292D01*
X013431Y021252D01*
X013444Y021210D01*
X013454Y021167D01*
X013460Y021123D01*
X013462Y021079D01*
X013460Y021035D01*
X013454Y020991D01*
X013444Y020948D01*
X013431Y020906D01*
X013413Y020866D01*
X013392Y020827D01*
X013368Y020790D01*
X013341Y020755D01*
X013310Y020723D01*
X013277Y020694D01*
X013241Y020668D01*
X013203Y020646D01*
X013163Y020627D01*
X013122Y020611D01*
X013079Y020599D01*
X013036Y020591D01*
X012992Y020587D01*
X012948Y020587D01*
X012904Y020591D01*
X012861Y020599D01*
X012818Y020611D01*
X012777Y020627D01*
X012737Y020646D01*
X012699Y020668D01*
X012663Y020694D01*
X012630Y020723D01*
X012599Y020755D01*
X012572Y020790D01*
X012548Y020827D01*
X012527Y020866D01*
X012509Y020906D01*
X012496Y020948D01*
X012486Y020991D01*
X012480Y021035D01*
X012478Y021079D01*
X020144Y008781D02*
X020146Y008822D01*
X020152Y008863D01*
X020162Y008903D01*
X020175Y008942D01*
X020192Y008979D01*
X020213Y009015D01*
X020237Y009049D01*
X020264Y009080D01*
X020293Y009108D01*
X020326Y009134D01*
X020360Y009156D01*
X020397Y009175D01*
X020435Y009190D01*
X020475Y009202D01*
X020515Y009210D01*
X020556Y009214D01*
X020598Y009214D01*
X020639Y009210D01*
X020679Y009202D01*
X020719Y009190D01*
X020757Y009175D01*
X020793Y009156D01*
X020828Y009134D01*
X020861Y009108D01*
X020890Y009080D01*
X020917Y009049D01*
X020941Y009015D01*
X020962Y008979D01*
X020979Y008942D01*
X020992Y008903D01*
X021002Y008863D01*
X021008Y008822D01*
X021010Y008781D01*
X021008Y008740D01*
X021002Y008699D01*
X020992Y008659D01*
X020979Y008620D01*
X020962Y008583D01*
X020941Y008547D01*
X020917Y008513D01*
X020890Y008482D01*
X020861Y008454D01*
X020828Y008428D01*
X020794Y008406D01*
X020757Y008387D01*
X020719Y008372D01*
X020679Y008360D01*
X020639Y008352D01*
X020598Y008348D01*
X020556Y008348D01*
X020515Y008352D01*
X020475Y008360D01*
X020435Y008372D01*
X020397Y008387D01*
X020361Y008406D01*
X020326Y008428D01*
X020293Y008454D01*
X020264Y008482D01*
X020237Y008513D01*
X020213Y008547D01*
X020192Y008583D01*
X020175Y008620D01*
X020162Y008659D01*
X020152Y008699D01*
X020146Y008740D01*
X020144Y008781D01*
X023929Y002550D02*
X023931Y002594D01*
X023937Y002638D01*
X023947Y002681D01*
X023960Y002723D01*
X023978Y002763D01*
X023999Y002802D01*
X024023Y002839D01*
X024050Y002874D01*
X024081Y002906D01*
X024114Y002935D01*
X024150Y002961D01*
X024188Y002983D01*
X024228Y003002D01*
X024269Y003018D01*
X024312Y003030D01*
X024355Y003038D01*
X024399Y003042D01*
X024443Y003042D01*
X024487Y003038D01*
X024530Y003030D01*
X024573Y003018D01*
X024614Y003002D01*
X024654Y002983D01*
X024692Y002961D01*
X024728Y002935D01*
X024761Y002906D01*
X024792Y002874D01*
X024819Y002839D01*
X024843Y002802D01*
X024864Y002763D01*
X024882Y002723D01*
X024895Y002681D01*
X024905Y002638D01*
X024911Y002594D01*
X024913Y002550D01*
X024911Y002506D01*
X024905Y002462D01*
X024895Y002419D01*
X024882Y002377D01*
X024864Y002337D01*
X024843Y002298D01*
X024819Y002261D01*
X024792Y002226D01*
X024761Y002194D01*
X024728Y002165D01*
X024692Y002139D01*
X024654Y002117D01*
X024614Y002098D01*
X024573Y002082D01*
X024530Y002070D01*
X024487Y002062D01*
X024443Y002058D01*
X024399Y002058D01*
X024355Y002062D01*
X024312Y002070D01*
X024269Y002082D01*
X024228Y002098D01*
X024188Y002117D01*
X024150Y002139D01*
X024114Y002165D01*
X024081Y002194D01*
X024050Y002226D01*
X024023Y002261D01*
X023999Y002298D01*
X023978Y002337D01*
X023960Y002377D01*
X023947Y002419D01*
X023937Y002462D01*
X023931Y002506D01*
X023929Y002550D01*
X033359Y021185D02*
X033361Y021229D01*
X033367Y021273D01*
X033377Y021316D01*
X033390Y021358D01*
X033408Y021398D01*
X033429Y021437D01*
X033453Y021474D01*
X033480Y021509D01*
X033511Y021541D01*
X033544Y021570D01*
X033580Y021596D01*
X033618Y021618D01*
X033658Y021637D01*
X033699Y021653D01*
X033742Y021665D01*
X033785Y021673D01*
X033829Y021677D01*
X033873Y021677D01*
X033917Y021673D01*
X033960Y021665D01*
X034003Y021653D01*
X034044Y021637D01*
X034084Y021618D01*
X034122Y021596D01*
X034158Y021570D01*
X034191Y021541D01*
X034222Y021509D01*
X034249Y021474D01*
X034273Y021437D01*
X034294Y021398D01*
X034312Y021358D01*
X034325Y021316D01*
X034335Y021273D01*
X034341Y021229D01*
X034343Y021185D01*
X034341Y021141D01*
X034335Y021097D01*
X034325Y021054D01*
X034312Y021012D01*
X034294Y020972D01*
X034273Y020933D01*
X034249Y020896D01*
X034222Y020861D01*
X034191Y020829D01*
X034158Y020800D01*
X034122Y020774D01*
X034084Y020752D01*
X034044Y020733D01*
X034003Y020717D01*
X033960Y020705D01*
X033917Y020697D01*
X033873Y020693D01*
X033829Y020693D01*
X033785Y020697D01*
X033742Y020705D01*
X033699Y020717D01*
X033658Y020733D01*
X033618Y020752D01*
X033580Y020774D01*
X033544Y020800D01*
X033511Y020829D01*
X033480Y020861D01*
X033453Y020896D01*
X033429Y020933D01*
X033408Y020972D01*
X033390Y021012D01*
X033377Y021054D01*
X033367Y021097D01*
X033361Y021141D01*
X033359Y021185D01*
D11*
G36*
X019387Y012168D02*
X019889Y012419D01*
X019951Y012296D01*
X019449Y012045D01*
X019387Y012168D01*
G37*
G36*
X019272Y012396D02*
X019774Y012647D01*
X019836Y012524D01*
X019334Y012273D01*
X019272Y012396D01*
G37*
G36*
X019158Y012625D02*
X019660Y012876D01*
X019722Y012753D01*
X019220Y012502D01*
X019158Y012625D01*
G37*
G36*
X019043Y012854D02*
X019545Y013105D01*
X019607Y012982D01*
X019105Y012731D01*
X019043Y012854D01*
G37*
G36*
X018929Y013083D02*
X019431Y013334D01*
X019493Y013211D01*
X018991Y012960D01*
X018929Y013083D01*
G37*
G36*
X019502Y011939D02*
X020004Y012190D01*
X020066Y012067D01*
X019564Y011816D01*
X019502Y011939D01*
G37*
G36*
X019616Y011710D02*
X020118Y011961D01*
X020180Y011838D01*
X019678Y011587D01*
X019616Y011710D01*
G37*
G36*
X019731Y011481D02*
X020233Y011732D01*
X020295Y011609D01*
X019793Y011358D01*
X019731Y011481D01*
G37*
G36*
X017830Y010529D02*
X018332Y010780D01*
X018394Y010657D01*
X017892Y010406D01*
X017830Y010529D01*
G37*
G36*
X017715Y010758D02*
X018217Y011009D01*
X018279Y010886D01*
X017777Y010635D01*
X017715Y010758D01*
G37*
G36*
X017601Y010987D02*
X018103Y011238D01*
X018165Y011115D01*
X017663Y010864D01*
X017601Y010987D01*
G37*
G36*
X017486Y011216D02*
X017988Y011467D01*
X018050Y011344D01*
X017548Y011093D01*
X017486Y011216D01*
G37*
G36*
X017372Y011444D02*
X017874Y011695D01*
X017936Y011572D01*
X017434Y011321D01*
X017372Y011444D01*
G37*
G36*
X017257Y011673D02*
X017759Y011924D01*
X017821Y011801D01*
X017319Y011550D01*
X017257Y011673D01*
G37*
G36*
X017142Y011902D02*
X017644Y012153D01*
X017706Y012030D01*
X017204Y011779D01*
X017142Y011902D01*
G37*
G36*
X017028Y012131D02*
X017530Y012382D01*
X017592Y012259D01*
X017090Y012008D01*
X017028Y012131D01*
G37*
D12*
G36*
X019702Y010397D02*
X019267Y010129D01*
X018938Y010665D01*
X019373Y010933D01*
X019702Y010397D01*
G37*
G36*
X020339Y010788D02*
X019904Y010520D01*
X019575Y011056D01*
X020010Y011324D01*
X020339Y010788D01*
G37*
D13*
G36*
X031061Y017055D02*
X030445Y018060D01*
X031283Y018575D01*
X031899Y017570D01*
X031061Y017055D01*
G37*
G36*
X029621Y019405D02*
X029005Y020410D01*
X029843Y020925D01*
X030459Y019920D01*
X029621Y019405D01*
G37*
D14*
X014348Y005259D03*
X014348Y002503D03*
D15*
X018013Y019831D03*
X018604Y019831D03*
X019194Y019831D03*
X019785Y019831D03*
X020356Y019831D03*
X020946Y019831D03*
X021537Y019831D03*
X022127Y019831D03*
D16*
X009054Y005220D03*
D17*
X012334Y005220D03*
X012334Y004550D03*
X012334Y003880D03*
X012334Y005890D03*
X012334Y006560D03*
D18*
X018174Y003485D03*
X021088Y003485D03*
D19*
X024679Y005374D03*
X025133Y006265D03*
X025587Y007156D03*
X026041Y008047D03*
X026495Y008938D03*
D20*
X023801Y018047D03*
X023801Y019897D03*
D21*
X006023Y005518D03*
X006023Y003907D03*
D22*
X014549Y006167D02*
X014762Y006401D01*
X020785Y006401D01*
X021056Y006176D01*
X020987Y006206D01*
X020195Y005542D02*
X020596Y005141D01*
X020195Y005542D02*
X016362Y005542D01*
X015978Y007167D02*
X014408Y008579D01*
X014408Y010766D01*
X014658Y011079D01*
X015033Y011079D01*
X015596Y011079D02*
X015596Y008454D01*
X016336Y007752D01*
X018533Y007752D01*
X018573Y008183D01*
X018971Y008519D02*
X018158Y008519D01*
X017688Y008009D01*
X016579Y008009D01*
X016096Y008454D01*
X016096Y010766D01*
X016658Y010141D02*
X016783Y010266D01*
X017471Y010266D01*
X018112Y010593D01*
X018408Y011016D02*
X018908Y011079D01*
X019320Y010531D01*
X019957Y010922D02*
X020013Y011545D01*
X021658Y010361D02*
X021783Y010401D01*
X022346Y010963D01*
X022346Y013516D01*
X022408Y013579D01*
X023533Y014141D01*
X023283Y014579D02*
X021346Y013516D01*
X020971Y014079D02*
X022783Y015016D01*
X022783Y015454D01*
X022408Y016329D02*
X023596Y016329D01*
X023846Y016079D01*
X023846Y015516D01*
X024471Y014891D01*
X024471Y014391D01*
X025346Y013454D01*
X024283Y011704D01*
X023647Y010486D01*
X023673Y010539D01*
X023739Y010657D01*
X023647Y010486D02*
X022253Y007752D01*
X018533Y007752D01*
X018971Y008519D02*
X019283Y008521D01*
X019289Y008527D01*
X019289Y009235D01*
X019570Y009516D01*
X021893Y009516D01*
X022990Y010613D01*
X022990Y012065D01*
X023223Y012299D01*
X025158Y012579D02*
X025971Y012579D01*
X026408Y012829D02*
X025783Y013454D01*
X025346Y013454D01*
X025533Y013766D02*
X024783Y014516D01*
X024783Y015016D01*
X024221Y015579D01*
X024221Y016329D01*
X023971Y016579D01*
X025033Y016141D02*
X026533Y016141D01*
X027346Y015329D01*
X027346Y014769D01*
X026846Y014269D01*
X026846Y012516D01*
X026408Y012829D02*
X026408Y011574D01*
X025971Y012016D02*
X025221Y012016D01*
X022589Y007167D01*
X015978Y007167D01*
X016126Y007479D02*
X014846Y008641D01*
X014846Y009454D01*
X016783Y011329D02*
X016158Y012016D01*
X016158Y013266D01*
X017971Y014454D01*
X018326Y014661D01*
X018346Y014681D01*
X018346Y016766D01*
X018013Y017099D01*
X018013Y019831D01*
X020783Y020329D02*
X021346Y020891D01*
X024346Y020891D01*
X024908Y020329D01*
X024908Y018026D01*
X025721Y017329D02*
X025846Y017454D01*
X025846Y019704D01*
X023801Y019897D02*
X023414Y019834D01*
X023801Y018047D02*
X023707Y017954D01*
X021658Y017954D01*
X021033Y017329D01*
X021033Y015329D01*
X020158Y014829D01*
X020783Y014391D02*
X021408Y014704D01*
X021408Y017141D01*
X021721Y017454D01*
X022533Y017454D01*
X022658Y017329D01*
X025721Y017329D01*
X026533Y017016D02*
X021846Y017016D01*
X020658Y018391D02*
X020658Y015516D01*
X016533Y013016D01*
X016533Y012141D01*
X016908Y011704D01*
X019471Y014266D02*
X019783Y013954D01*
X025158Y012579D02*
X022441Y007479D01*
X016126Y007479D01*
X022996Y006391D02*
X022996Y005366D01*
X023221Y005141D01*
X022996Y006391D02*
X025121Y010391D01*
X026471Y010391D01*
X027846Y011766D01*
X027846Y014204D01*
X026096Y013766D02*
X025533Y013766D01*
X029732Y020165D02*
X029764Y020765D01*
D23*
X029682Y021002D02*
X028685Y021002D01*
X028685Y020904D02*
X029521Y020904D01*
X029388Y020822D02*
X029748Y020233D01*
X029663Y020181D01*
X029715Y020096D01*
X029210Y019786D01*
X029503Y019309D01*
X029532Y019281D01*
X029567Y019263D01*
X029605Y019253D01*
X029644Y019254D01*
X029682Y019266D01*
X030076Y019507D01*
X029715Y020096D01*
X029801Y020148D01*
X029748Y020233D01*
X030253Y020543D01*
X029960Y021020D01*
X029932Y021048D01*
X029897Y021066D01*
X029859Y021076D01*
X029819Y021075D01*
X029781Y021063D01*
X029388Y020822D01*
X029398Y020805D02*
X028685Y020805D01*
X028685Y020707D02*
X029199Y020707D01*
X029302Y020770D02*
X028908Y020528D01*
X028881Y020500D01*
X028862Y020465D01*
X028853Y020427D01*
X028854Y020387D01*
X028865Y020349D01*
X029158Y019872D01*
X029663Y020181D01*
X029302Y020770D01*
X029341Y020707D02*
X029458Y020707D01*
X029401Y020608D02*
X029519Y020608D01*
X029462Y020510D02*
X029579Y020510D01*
X029522Y020411D02*
X029639Y020411D01*
X029582Y020313D02*
X029700Y020313D01*
X029717Y020214D02*
X029643Y020214D01*
X029703Y020116D02*
X029557Y020116D01*
X029587Y020017D02*
X029396Y020017D01*
X029427Y019919D02*
X029235Y019919D01*
X029266Y019820D02*
X028685Y019820D01*
X028685Y019722D02*
X029250Y019722D01*
X029310Y019623D02*
X028685Y019623D01*
X028685Y019525D02*
X029371Y019525D01*
X029431Y019426D02*
X028685Y019426D01*
X028685Y019328D02*
X029492Y019328D01*
X029784Y019328D02*
X034081Y019328D01*
X034130Y019426D02*
X029944Y019426D01*
X030065Y019525D02*
X034179Y019525D01*
X034229Y019623D02*
X030266Y019623D01*
X030161Y019559D02*
X030555Y019801D01*
X030582Y019829D01*
X030601Y019864D01*
X030610Y019902D01*
X030609Y019942D01*
X030598Y019980D01*
X030305Y020457D01*
X029801Y020148D01*
X030161Y019559D01*
X030122Y019623D02*
X030005Y019623D01*
X030062Y019722D02*
X029945Y019722D01*
X030001Y019820D02*
X029884Y019820D01*
X029941Y019919D02*
X029824Y019919D01*
X029881Y020017D02*
X029763Y020017D01*
X029748Y020116D02*
X029820Y020116D01*
X029760Y020214D02*
X029909Y020214D01*
X029878Y020313D02*
X030069Y020313D01*
X030039Y020411D02*
X030230Y020411D01*
X030200Y020510D02*
X033645Y020510D01*
X033711Y020483D02*
X033990Y020483D01*
X034248Y020589D01*
X034446Y020787D01*
X034553Y021045D01*
X034553Y021324D01*
X034446Y021582D01*
X034248Y021780D01*
X033990Y021887D01*
X033711Y021887D01*
X033453Y021780D01*
X033255Y021582D01*
X033149Y021324D01*
X033149Y021045D01*
X033255Y020787D01*
X033453Y020589D01*
X033711Y020483D01*
X033434Y020608D02*
X030213Y020608D01*
X030153Y020707D02*
X033336Y020707D01*
X033248Y020805D02*
X030092Y020805D01*
X030032Y020904D02*
X033207Y020904D01*
X033166Y021002D02*
X029972Y021002D01*
X030190Y021437D02*
X030313Y021560D01*
X030313Y022213D01*
X035524Y022214D01*
X033254Y017674D01*
X032827Y017888D01*
X032827Y017888D01*
X032671Y017966D01*
X032506Y017911D01*
X031069Y015036D01*
X031069Y015036D01*
X031030Y014959D01*
X030992Y014881D01*
X030991Y014880D01*
X031019Y014798D01*
X031047Y014716D01*
X031047Y014716D01*
X031047Y014716D01*
X031125Y014677D01*
X031202Y014638D01*
X031203Y014639D01*
X031930Y014279D01*
X028684Y007834D01*
X028222Y007526D01*
X028166Y007507D01*
X028152Y007479D01*
X028126Y007462D01*
X028114Y007404D01*
X025124Y001424D01*
X018436Y001424D01*
X018379Y001439D01*
X018352Y001424D01*
X018321Y001424D01*
X018279Y001382D01*
X017797Y001107D01*
X016270Y001107D01*
X016297Y003075D01*
X017413Y003075D01*
X017413Y002650D01*
X017536Y002527D01*
X018812Y002527D01*
X018935Y002650D01*
X018935Y004320D01*
X018812Y004443D01*
X017536Y004443D01*
X017413Y004320D01*
X017413Y003895D01*
X016509Y003895D01*
X016369Y004034D01*
X016254Y004150D01*
X016103Y004212D01*
X014065Y004212D01*
X013542Y004735D01*
X013586Y004779D01*
X013663Y004965D01*
X013663Y005166D01*
X013586Y005351D01*
X013444Y005493D01*
X013353Y005531D01*
X013381Y005543D01*
X013384Y005545D01*
X013387Y005547D01*
X013441Y005603D01*
X013496Y005658D01*
X013498Y005661D01*
X013500Y005664D01*
X013529Y005736D01*
X013559Y005809D01*
X013559Y005812D01*
X013606Y005932D01*
X013636Y006004D01*
X013636Y006008D01*
X013637Y006011D01*
X013636Y006089D01*
X013636Y006376D01*
X014216Y006376D01*
X014161Y006244D01*
X014161Y006090D01*
X014198Y006000D01*
X013836Y006000D01*
X013798Y005990D01*
X013763Y005970D01*
X013735Y005942D01*
X013716Y005908D01*
X013705Y005870D01*
X013705Y005309D01*
X014298Y005309D01*
X014298Y005209D01*
X014398Y005209D01*
X014398Y005309D01*
X014990Y005309D01*
X014990Y005870D01*
X014979Y005908D01*
X014960Y005942D01*
X014932Y005970D01*
X014898Y005990D01*
X014896Y005990D01*
X014938Y006090D01*
X014938Y006111D01*
X020668Y006111D01*
X020668Y006099D01*
X020727Y005956D01*
X020836Y005847D01*
X020979Y005788D01*
X021134Y005788D01*
X021276Y005847D01*
X021385Y005956D01*
X021434Y006073D01*
X021561Y005925D01*
X021561Y005247D01*
X021623Y005096D01*
X021738Y004981D01*
X022926Y003794D01*
X023077Y003731D01*
X025083Y003731D01*
X025152Y003727D01*
X025164Y003731D01*
X025177Y003731D01*
X025241Y003758D01*
X025306Y003780D01*
X025316Y003789D01*
X025328Y003794D01*
X025377Y003842D01*
X025429Y003888D01*
X025434Y003900D01*
X025443Y003909D01*
X025470Y003973D01*
X027809Y008775D01*
X027818Y008784D01*
X027844Y008846D01*
X027874Y008907D01*
X027874Y008908D01*
X027875Y008910D01*
X027876Y008923D01*
X027881Y008935D01*
X027881Y009002D01*
X027885Y009069D01*
X027885Y009071D01*
X027885Y009073D01*
X027881Y009085D01*
X027881Y009098D01*
X027879Y009102D01*
X031657Y016562D01*
X031683Y016596D01*
X031693Y016634D01*
X031711Y016668D01*
X031885Y016668D01*
X031836Y016570D02*
X031663Y016570D01*
X031711Y016668D02*
X031714Y016712D01*
X031726Y016754D01*
X031720Y016792D01*
X031723Y016831D01*
X031710Y016872D01*
X031669Y017181D01*
X032084Y017435D01*
X032124Y017604D01*
X031416Y018759D01*
X031247Y018800D01*
X030260Y018195D01*
X030219Y018026D01*
X030871Y016962D01*
X030885Y016853D01*
X027124Y009426D01*
X026827Y009426D01*
X026824Y009430D01*
X026611Y009518D01*
X026380Y009518D01*
X026167Y009430D01*
X026004Y009266D01*
X025915Y009053D01*
X025915Y008822D01*
X026004Y008609D01*
X026046Y008567D01*
X026001Y008567D01*
X025920Y008554D01*
X025842Y008529D01*
X025769Y008492D01*
X025703Y008443D01*
X025645Y008386D01*
X025602Y008327D01*
X026020Y008114D01*
X025974Y008025D01*
X025557Y008238D01*
X025534Y008169D01*
X025521Y008088D01*
X025521Y008006D01*
X025534Y007925D01*
X025560Y007847D01*
X025597Y007774D01*
X025625Y007736D01*
X025472Y007736D01*
X025259Y007648D01*
X025096Y007484D01*
X025007Y007271D01*
X025007Y007040D01*
X025088Y006845D01*
X025018Y006845D01*
X024805Y006757D01*
X024642Y006593D01*
X024553Y006380D01*
X024553Y006149D01*
X024634Y005954D01*
X024564Y005954D01*
X024351Y005866D01*
X024188Y005702D01*
X024099Y005489D01*
X024099Y005258D01*
X024188Y005045D01*
X023601Y005045D01*
X023609Y005064D02*
X023609Y005218D01*
X023550Y005361D01*
X023441Y005470D01*
X023298Y005529D01*
X023286Y005529D01*
X023286Y006319D01*
X025296Y010101D01*
X026528Y010101D01*
X026635Y010145D01*
X026717Y010227D01*
X028092Y011602D01*
X028136Y011709D01*
X028136Y013945D01*
X028175Y013984D01*
X028234Y014127D01*
X028234Y014281D01*
X028175Y014424D01*
X028066Y014533D01*
X027923Y014592D01*
X027769Y014592D01*
X027626Y014533D01*
X027517Y014424D01*
X027458Y014281D01*
X027458Y014127D01*
X027517Y013984D01*
X027556Y013945D01*
X027556Y011886D01*
X026351Y010681D01*
X025135Y010681D01*
X025092Y010685D01*
X025078Y010681D01*
X025064Y010681D01*
X025023Y010664D01*
X024981Y010652D01*
X024970Y010643D01*
X024957Y010637D01*
X024926Y010606D01*
X024892Y010578D01*
X024886Y010566D01*
X024875Y010555D01*
X024859Y010515D01*
X022761Y006566D01*
X022750Y006555D01*
X022734Y006515D01*
X022713Y006476D01*
X022712Y006462D01*
X022706Y006449D01*
X022706Y006405D01*
X022702Y006361D01*
X022706Y006348D01*
X022706Y005308D01*
X022750Y005201D01*
X022833Y005119D01*
X022833Y005064D01*
X022845Y005034D01*
X022381Y005499D01*
X022381Y006098D01*
X022318Y006248D01*
X022203Y006364D01*
X022136Y006392D01*
X021718Y006877D01*
X022574Y006877D01*
X022616Y006872D01*
X022631Y006877D01*
X022647Y006877D01*
X022686Y006893D01*
X022727Y006905D01*
X022739Y006915D01*
X022753Y006921D01*
X022783Y006951D01*
X022816Y006978D01*
X022824Y006991D01*
X022835Y007003D01*
X022851Y007042D01*
X025393Y011726D01*
X025712Y011726D01*
X025751Y011687D01*
X025894Y011628D01*
X026020Y011628D01*
X026020Y011497D01*
X026079Y011354D01*
X026188Y011245D01*
X026331Y011186D01*
X026485Y011186D01*
X026628Y011245D01*
X026737Y011354D01*
X026796Y011497D01*
X026796Y011651D01*
X026737Y011794D01*
X026698Y011833D01*
X026698Y012157D01*
X026769Y012128D01*
X026923Y012128D01*
X027066Y012187D01*
X027175Y012296D01*
X027234Y012439D01*
X027234Y012593D01*
X027175Y012736D01*
X027136Y012775D01*
X027136Y014149D01*
X027510Y014523D01*
X027592Y014604D01*
X027636Y014711D01*
X027636Y015386D01*
X027592Y015493D01*
X026779Y016305D01*
X026697Y016387D01*
X026591Y016431D01*
X025292Y016431D01*
X025253Y016470D01*
X025110Y016529D01*
X024956Y016529D01*
X024813Y016470D01*
X024704Y016361D01*
X024645Y016218D01*
X024645Y016064D01*
X024704Y015921D01*
X024813Y015812D01*
X024956Y015753D01*
X025110Y015753D01*
X025253Y015812D01*
X025292Y015851D01*
X026413Y015851D01*
X027056Y015209D01*
X027056Y014889D01*
X026600Y014433D01*
X026556Y014326D01*
X026556Y013091D01*
X026241Y013406D01*
X026316Y013437D01*
X026425Y013546D01*
X026484Y013689D01*
X026484Y013843D01*
X026425Y013986D01*
X026316Y014095D01*
X026173Y014154D01*
X026019Y014154D01*
X025876Y014095D01*
X025837Y014056D01*
X025653Y014056D01*
X025073Y014636D01*
X025073Y015074D01*
X025029Y015180D01*
X024511Y015699D01*
X024511Y016386D01*
X024467Y016493D01*
X024359Y016601D01*
X024359Y016656D01*
X024330Y016726D01*
X026274Y016726D01*
X026313Y016687D01*
X026456Y016628D01*
X026610Y016628D01*
X026753Y016687D01*
X026862Y016796D01*
X026920Y016935D01*
X028604Y016103D01*
X028605Y016103D01*
X028679Y016066D01*
X028754Y016029D01*
X028754Y016029D01*
X028755Y016029D01*
X028838Y016024D01*
X028921Y016018D01*
X028922Y016018D01*
X029000Y016045D01*
X029079Y016072D01*
X029079Y016072D01*
X029080Y016072D01*
X029142Y016127D01*
X029204Y016182D01*
X029205Y016182D01*
X029205Y016183D01*
X029242Y016257D01*
X029278Y016332D01*
X029279Y016332D01*
X029662Y017113D01*
X029696Y017173D01*
X029698Y017187D01*
X029705Y017201D01*
X029709Y017270D01*
X029718Y017338D01*
X029715Y017353D01*
X029716Y017368D01*
X029693Y017433D01*
X029675Y017500D01*
X029666Y017512D01*
X029662Y017526D01*
X029616Y017578D01*
X029574Y017632D01*
X029561Y017640D01*
X029551Y017651D01*
X029489Y017682D01*
X028700Y018139D01*
X028685Y019081D01*
X028685Y021261D01*
X028692Y021322D01*
X028685Y021344D01*
X028685Y021366D01*
X028662Y021423D01*
X028658Y021437D01*
X030190Y021437D01*
X030248Y021495D02*
X033219Y021495D01*
X033178Y021396D02*
X028673Y021396D01*
X028689Y021298D02*
X033149Y021298D01*
X033149Y021199D02*
X028685Y021199D01*
X028685Y021101D02*
X033149Y021101D01*
X033266Y021593D02*
X030313Y021593D01*
X030313Y021692D02*
X033365Y021692D01*
X033478Y021790D02*
X030313Y021790D01*
X030313Y021889D02*
X035361Y021889D01*
X035411Y021987D02*
X030313Y021987D01*
X030313Y022086D02*
X035460Y022086D01*
X035509Y022184D02*
X030313Y022184D01*
X029039Y020608D02*
X028685Y020608D01*
X028685Y020510D02*
X028891Y020510D01*
X028854Y020411D02*
X028685Y020411D01*
X028685Y020313D02*
X028888Y020313D01*
X028948Y020214D02*
X028685Y020214D01*
X028685Y020116D02*
X029009Y020116D01*
X029069Y020017D02*
X028685Y020017D01*
X028685Y019919D02*
X029129Y019919D01*
X028685Y019229D02*
X034032Y019229D01*
X033982Y019131D02*
X028685Y019131D01*
X028686Y019032D02*
X033933Y019032D01*
X033884Y018934D02*
X028688Y018934D01*
X028689Y018835D02*
X033835Y018835D01*
X033785Y018737D02*
X031430Y018737D01*
X031491Y018638D02*
X033736Y018638D01*
X033687Y018540D02*
X031551Y018540D01*
X031611Y018441D02*
X033638Y018441D01*
X033588Y018343D02*
X031672Y018343D01*
X031732Y018244D02*
X033539Y018244D01*
X033490Y018146D02*
X031792Y018146D01*
X031853Y018047D02*
X033441Y018047D01*
X033391Y017949D02*
X032706Y017949D01*
X032620Y017949D02*
X031913Y017949D01*
X031974Y017850D02*
X032476Y017850D01*
X032427Y017752D02*
X032034Y017752D01*
X032094Y017653D02*
X032378Y017653D01*
X032328Y017555D02*
X032113Y017555D01*
X032089Y017456D02*
X032279Y017456D01*
X032230Y017358D02*
X031958Y017358D01*
X031798Y017259D02*
X032181Y017259D01*
X032131Y017161D02*
X031672Y017161D01*
X031685Y017062D02*
X032082Y017062D01*
X032033Y016964D02*
X031698Y016964D01*
X031712Y016865D02*
X031984Y016865D01*
X031934Y016767D02*
X031724Y016767D01*
X031787Y016471D02*
X031611Y016471D01*
X031561Y016373D02*
X031737Y016373D01*
X031688Y016274D02*
X031511Y016274D01*
X031461Y016176D02*
X031639Y016176D01*
X031590Y016077D02*
X031412Y016077D01*
X031362Y015979D02*
X031540Y015979D01*
X031491Y015880D02*
X031312Y015880D01*
X031262Y015782D02*
X031442Y015782D01*
X031393Y015683D02*
X031212Y015683D01*
X031162Y015585D02*
X031343Y015585D01*
X031294Y015486D02*
X031112Y015486D01*
X031062Y015388D02*
X031245Y015388D01*
X031196Y015289D02*
X031012Y015289D01*
X030963Y015191D02*
X031146Y015191D01*
X031097Y015092D02*
X030913Y015092D01*
X030863Y014994D02*
X031048Y014994D01*
X030999Y014895D02*
X030813Y014895D01*
X030763Y014797D02*
X031020Y014797D01*
X030992Y014881D02*
X030992Y014881D01*
X031082Y014698D02*
X030713Y014698D01*
X030663Y014600D02*
X031281Y014600D01*
X031480Y014501D02*
X030613Y014501D01*
X030563Y014403D02*
X031679Y014403D01*
X031878Y014304D02*
X030514Y014304D01*
X030464Y014206D02*
X031893Y014206D01*
X031843Y014107D02*
X030414Y014107D01*
X030364Y014009D02*
X031794Y014009D01*
X031744Y013910D02*
X030314Y013910D01*
X030264Y013812D02*
X031695Y013812D01*
X031645Y013713D02*
X030214Y013713D01*
X030164Y013615D02*
X031595Y013615D01*
X031546Y013516D02*
X030114Y013516D01*
X030065Y013418D02*
X031496Y013418D01*
X031446Y013319D02*
X030015Y013319D01*
X029965Y013221D02*
X031397Y013221D01*
X031347Y013122D02*
X029915Y013122D01*
X029865Y013024D02*
X031298Y013024D01*
X031248Y012925D02*
X029815Y012925D01*
X029765Y012827D02*
X031198Y012827D01*
X031149Y012728D02*
X029715Y012728D01*
X029665Y012630D02*
X031099Y012630D01*
X031050Y012531D02*
X029616Y012531D01*
X029566Y012433D02*
X031000Y012433D01*
X030950Y012334D02*
X029516Y012334D01*
X029466Y012236D02*
X030901Y012236D01*
X030851Y012137D02*
X029416Y012137D01*
X029366Y012039D02*
X030801Y012039D01*
X030752Y011940D02*
X029316Y011940D01*
X029266Y011842D02*
X030702Y011842D01*
X030653Y011743D02*
X029216Y011743D01*
X029167Y011645D02*
X030603Y011645D01*
X030553Y011546D02*
X029117Y011546D01*
X029067Y011448D02*
X030504Y011448D01*
X030454Y011349D02*
X029017Y011349D01*
X028967Y011251D02*
X030405Y011251D01*
X030355Y011152D02*
X028917Y011152D01*
X028867Y011054D02*
X030305Y011054D01*
X030256Y010955D02*
X028817Y010955D01*
X028767Y010857D02*
X030206Y010857D01*
X030157Y010758D02*
X028718Y010758D01*
X028668Y010660D02*
X030107Y010660D01*
X030057Y010561D02*
X028618Y010561D01*
X028568Y010463D02*
X030008Y010463D01*
X029958Y010364D02*
X028518Y010364D01*
X028468Y010266D02*
X029908Y010266D01*
X029859Y010167D02*
X028418Y010167D01*
X028368Y010069D02*
X029809Y010069D01*
X029760Y009970D02*
X028318Y009970D01*
X028269Y009872D02*
X029710Y009872D01*
X029660Y009773D02*
X028219Y009773D01*
X028169Y009675D02*
X029611Y009675D01*
X029561Y009576D02*
X028119Y009576D01*
X028069Y009478D02*
X029512Y009478D01*
X029462Y009379D02*
X028019Y009379D01*
X027969Y009281D02*
X029412Y009281D01*
X029363Y009182D02*
X027919Y009182D01*
X027881Y009084D02*
X029313Y009084D01*
X029263Y008985D02*
X027881Y008985D01*
X027864Y008887D02*
X029214Y008887D01*
X029164Y008788D02*
X027820Y008788D01*
X027768Y008690D02*
X029115Y008690D01*
X029065Y008591D02*
X027720Y008591D01*
X027672Y008493D02*
X029015Y008493D01*
X028966Y008394D02*
X027624Y008394D01*
X027576Y008296D02*
X028916Y008296D01*
X028867Y008197D02*
X027528Y008197D01*
X027480Y008099D02*
X028817Y008099D01*
X028767Y008000D02*
X027432Y008000D01*
X027384Y007902D02*
X028718Y007902D01*
X028638Y007803D02*
X027336Y007803D01*
X027288Y007705D02*
X028490Y007705D01*
X028342Y007606D02*
X027240Y007606D01*
X027192Y007508D02*
X028167Y007508D01*
X028115Y007409D02*
X027144Y007409D01*
X027096Y007311D02*
X028067Y007311D01*
X028018Y007212D02*
X027048Y007212D01*
X027000Y007114D02*
X027969Y007114D01*
X027920Y007015D02*
X026952Y007015D01*
X026904Y006917D02*
X027870Y006917D01*
X027821Y006818D02*
X026856Y006818D01*
X026808Y006720D02*
X027772Y006720D01*
X027723Y006621D02*
X026760Y006621D01*
X026712Y006523D02*
X027673Y006523D01*
X027624Y006424D02*
X026664Y006424D01*
X026616Y006326D02*
X027575Y006326D01*
X027526Y006227D02*
X026568Y006227D01*
X026520Y006129D02*
X027476Y006129D01*
X027427Y006030D02*
X026472Y006030D01*
X026424Y005932D02*
X027378Y005932D01*
X027329Y005833D02*
X026376Y005833D01*
X026328Y005735D02*
X027279Y005735D01*
X027230Y005636D02*
X026280Y005636D01*
X026232Y005538D02*
X027181Y005538D01*
X027132Y005439D02*
X026184Y005439D01*
X026136Y005341D02*
X027082Y005341D01*
X027033Y005242D02*
X026088Y005242D01*
X026040Y005144D02*
X026984Y005144D01*
X026935Y005045D02*
X025992Y005045D01*
X025944Y004947D02*
X026885Y004947D01*
X026836Y004848D02*
X025896Y004848D01*
X025848Y004750D02*
X026787Y004750D01*
X026738Y004651D02*
X025800Y004651D01*
X025752Y004553D02*
X026688Y004553D01*
X026639Y004454D02*
X025704Y004454D01*
X025656Y004356D02*
X026590Y004356D01*
X026541Y004257D02*
X025608Y004257D01*
X025560Y004159D02*
X026491Y004159D01*
X026442Y004060D02*
X025512Y004060D01*
X025465Y003962D02*
X026393Y003962D01*
X026344Y003863D02*
X025400Y003863D01*
X025262Y003765D02*
X026294Y003765D01*
X026245Y003666D02*
X021789Y003666D01*
X021789Y003568D02*
X026196Y003568D01*
X026147Y003469D02*
X021138Y003469D01*
X021138Y003435D02*
X021138Y003535D01*
X021789Y003535D01*
X021789Y004252D01*
X021778Y004291D01*
X021759Y004325D01*
X021731Y004353D01*
X021697Y004372D01*
X021658Y004383D01*
X021138Y004383D01*
X021138Y003535D01*
X021038Y003535D01*
X021038Y004383D01*
X020517Y004383D01*
X020478Y004372D01*
X020444Y004353D01*
X020416Y004325D01*
X020397Y004291D01*
X020386Y004252D01*
X020386Y003535D01*
X021037Y003535D01*
X021037Y003435D01*
X020386Y003435D01*
X020386Y002717D01*
X020397Y002679D01*
X020416Y002644D01*
X020444Y002617D01*
X020478Y002597D01*
X020517Y002587D01*
X021038Y002587D01*
X021038Y003435D01*
X021138Y003435D01*
X021789Y003435D01*
X021789Y002717D01*
X021778Y002679D01*
X021759Y002644D01*
X021731Y002617D01*
X021697Y002597D01*
X021658Y002587D01*
X021138Y002587D01*
X021138Y003435D01*
X021138Y003371D02*
X021038Y003371D01*
X021037Y003469D02*
X018935Y003469D01*
X018935Y003371D02*
X020386Y003371D01*
X020386Y003272D02*
X018935Y003272D01*
X018935Y003174D02*
X020386Y003174D01*
X020386Y003075D02*
X018935Y003075D01*
X018935Y002977D02*
X020386Y002977D01*
X020386Y002878D02*
X018935Y002878D01*
X018935Y002780D02*
X020386Y002780D01*
X020396Y002681D02*
X018935Y002681D01*
X018868Y002583D02*
X023719Y002583D01*
X023719Y002681D02*
X021779Y002681D01*
X021789Y002780D02*
X023756Y002780D01*
X023719Y002689D02*
X023719Y002410D01*
X023826Y002152D01*
X024023Y001954D01*
X024281Y001848D01*
X024561Y001848D01*
X024819Y001954D01*
X025016Y002152D01*
X025123Y002410D01*
X025123Y002689D01*
X025016Y002947D01*
X024819Y003145D01*
X024561Y003252D01*
X024281Y003252D01*
X024023Y003145D01*
X023826Y002947D01*
X023719Y002689D01*
X023797Y002878D02*
X021789Y002878D01*
X021789Y002977D02*
X023855Y002977D01*
X023953Y003075D02*
X021789Y003075D01*
X021789Y003174D02*
X024093Y003174D01*
X024749Y003174D02*
X025999Y003174D01*
X026048Y003272D02*
X021789Y003272D01*
X021789Y003371D02*
X026097Y003371D01*
X025950Y003075D02*
X024888Y003075D01*
X024987Y002977D02*
X025900Y002977D01*
X025851Y002878D02*
X025045Y002878D01*
X025086Y002780D02*
X025802Y002780D01*
X025753Y002681D02*
X025123Y002681D01*
X025123Y002583D02*
X025703Y002583D01*
X025654Y002484D02*
X025123Y002484D01*
X025113Y002386D02*
X025605Y002386D01*
X025556Y002287D02*
X025072Y002287D01*
X025031Y002189D02*
X025506Y002189D01*
X025457Y002090D02*
X024954Y002090D01*
X024856Y001992D02*
X025408Y001992D01*
X025359Y001893D02*
X024671Y001893D01*
X024171Y001893D02*
X016281Y001893D01*
X016279Y001795D02*
X025309Y001795D01*
X025260Y001696D02*
X016278Y001696D01*
X016277Y001598D02*
X025211Y001598D01*
X025162Y001499D02*
X016275Y001499D01*
X016274Y001401D02*
X018298Y001401D01*
X018139Y001302D02*
X016273Y001302D01*
X016271Y001204D02*
X017966Y001204D01*
X016282Y001992D02*
X023986Y001992D01*
X023887Y002090D02*
X016283Y002090D01*
X016285Y002189D02*
X023810Y002189D01*
X023770Y002287D02*
X016286Y002287D01*
X016287Y002386D02*
X023729Y002386D01*
X023719Y002484D02*
X016289Y002484D01*
X016290Y002583D02*
X017480Y002583D01*
X017413Y002681D02*
X016291Y002681D01*
X016293Y002780D02*
X017413Y002780D01*
X017413Y002878D02*
X016294Y002878D01*
X016295Y002977D02*
X017413Y002977D01*
X017413Y003962D02*
X016442Y003962D01*
X016343Y004060D02*
X017413Y004060D01*
X017413Y004159D02*
X016232Y004159D01*
X017413Y004257D02*
X014020Y004257D01*
X013922Y004356D02*
X017449Y004356D01*
X016582Y005213D02*
X016439Y005154D01*
X016285Y005154D01*
X016142Y005213D01*
X016033Y005322D01*
X015974Y005465D01*
X015974Y005619D01*
X016033Y005762D01*
X016142Y005871D01*
X016285Y005930D01*
X016439Y005930D01*
X016582Y005871D01*
X016621Y005832D01*
X020253Y005832D01*
X020359Y005788D01*
X020618Y005529D01*
X020673Y005529D01*
X020816Y005470D01*
X020925Y005361D01*
X020984Y005218D01*
X020984Y005064D01*
X020925Y004921D01*
X020816Y004812D01*
X020673Y004753D01*
X020519Y004753D01*
X020376Y004812D01*
X020267Y004921D01*
X020208Y005064D01*
X020208Y005119D01*
X020075Y005252D01*
X016621Y005252D01*
X016582Y005213D01*
X016611Y005242D02*
X020085Y005242D01*
X020183Y005144D02*
X014990Y005144D01*
X014990Y005209D02*
X014398Y005209D01*
X014398Y004519D01*
X014859Y004519D01*
X014898Y004529D01*
X014932Y004549D01*
X014960Y004577D01*
X014979Y004611D01*
X014990Y004649D01*
X014990Y005209D01*
X014990Y005341D02*
X016025Y005341D01*
X015984Y005439D02*
X014990Y005439D01*
X014990Y005538D02*
X015974Y005538D01*
X015981Y005636D02*
X014990Y005636D01*
X014990Y005735D02*
X016022Y005735D01*
X016105Y005833D02*
X014990Y005833D01*
X014966Y005932D02*
X020752Y005932D01*
X020697Y006030D02*
X014913Y006030D01*
X014186Y006030D02*
X013637Y006030D01*
X013636Y006129D02*
X014161Y006129D01*
X014161Y006227D02*
X013636Y006227D01*
X013636Y006326D02*
X014195Y006326D01*
X013729Y005932D02*
X013606Y005932D01*
X013567Y005833D02*
X013705Y005833D01*
X013705Y005735D02*
X013528Y005735D01*
X013475Y005636D02*
X013705Y005636D01*
X013705Y005538D02*
X013369Y005538D01*
X013498Y005439D02*
X013705Y005439D01*
X013705Y005341D02*
X013591Y005341D01*
X013631Y005242D02*
X014298Y005242D01*
X014298Y005209D02*
X013705Y005209D01*
X013705Y004649D01*
X013716Y004611D01*
X013735Y004577D01*
X013763Y004549D01*
X013798Y004529D01*
X013836Y004519D01*
X014298Y004519D01*
X014298Y005209D01*
X014298Y005144D02*
X014398Y005144D01*
X014398Y005242D02*
X016113Y005242D01*
X016619Y005833D02*
X020870Y005833D01*
X021243Y005833D02*
X021561Y005833D01*
X021561Y005735D02*
X020412Y005735D01*
X020511Y005636D02*
X021561Y005636D01*
X021561Y005538D02*
X020609Y005538D01*
X020847Y005439D02*
X021561Y005439D01*
X021561Y005341D02*
X020933Y005341D01*
X020974Y005242D02*
X021563Y005242D01*
X021604Y005144D02*
X020984Y005144D01*
X020976Y005045D02*
X021674Y005045D01*
X021773Y004947D02*
X020935Y004947D01*
X020852Y004848D02*
X021871Y004848D01*
X021970Y004750D02*
X014990Y004750D01*
X014990Y004848D02*
X020340Y004848D01*
X020256Y004947D02*
X014990Y004947D01*
X014990Y005045D02*
X020215Y005045D01*
X021361Y005932D02*
X021555Y005932D01*
X021471Y006030D02*
X021416Y006030D01*
X022023Y006523D02*
X022737Y006523D01*
X022706Y006424D02*
X022108Y006424D01*
X022241Y006326D02*
X022706Y006326D01*
X022706Y006227D02*
X022327Y006227D01*
X022368Y006129D02*
X022706Y006129D01*
X022706Y006030D02*
X022381Y006030D01*
X022381Y005932D02*
X022706Y005932D01*
X022706Y005833D02*
X022381Y005833D01*
X022381Y005735D02*
X022706Y005735D01*
X022706Y005636D02*
X022381Y005636D01*
X022381Y005538D02*
X022706Y005538D01*
X022706Y005439D02*
X022440Y005439D01*
X022539Y005341D02*
X022706Y005341D01*
X022734Y005242D02*
X022637Y005242D01*
X022736Y005144D02*
X022808Y005144D01*
X022834Y005045D02*
X022840Y005045D01*
X023114Y004765D02*
X023144Y004753D01*
X023298Y004753D01*
X023441Y004812D01*
X023550Y004921D01*
X023609Y005064D01*
X023609Y005144D02*
X024147Y005144D01*
X024106Y005242D02*
X023599Y005242D01*
X023558Y005341D02*
X024099Y005341D01*
X024099Y005439D02*
X023472Y005439D01*
X023286Y005538D02*
X024120Y005538D01*
X024160Y005636D02*
X023286Y005636D01*
X023286Y005735D02*
X024220Y005735D01*
X024319Y005833D02*
X023286Y005833D01*
X023286Y005932D02*
X024511Y005932D01*
X024603Y006030D02*
X023286Y006030D01*
X023286Y006129D02*
X024562Y006129D01*
X024553Y006227D02*
X023286Y006227D01*
X023290Y006326D02*
X024553Y006326D01*
X024572Y006424D02*
X023342Y006424D01*
X023395Y006523D02*
X024613Y006523D01*
X024670Y006621D02*
X023447Y006621D01*
X023499Y006720D02*
X024768Y006720D01*
X024954Y006818D02*
X023552Y006818D01*
X023604Y006917D02*
X025059Y006917D01*
X025018Y007015D02*
X023656Y007015D01*
X023709Y007114D02*
X025007Y007114D01*
X025007Y007212D02*
X023761Y007212D01*
X023813Y007311D02*
X025024Y007311D01*
X025065Y007409D02*
X023866Y007409D01*
X023918Y007508D02*
X025119Y007508D01*
X025218Y007606D02*
X023970Y007606D01*
X024022Y007705D02*
X025397Y007705D01*
X025582Y007803D02*
X024075Y007803D01*
X024127Y007902D02*
X025542Y007902D01*
X025522Y008000D02*
X024179Y008000D01*
X024232Y008099D02*
X025523Y008099D01*
X025544Y008197D02*
X024284Y008197D01*
X024336Y008296D02*
X025663Y008296D01*
X025653Y008394D02*
X024389Y008394D01*
X024441Y008493D02*
X025771Y008493D01*
X026022Y008591D02*
X024493Y008591D01*
X024546Y008690D02*
X025970Y008690D01*
X025930Y008788D02*
X024598Y008788D01*
X024650Y008887D02*
X025915Y008887D01*
X025915Y008985D02*
X024703Y008985D01*
X024755Y009084D02*
X025928Y009084D01*
X025969Y009182D02*
X024807Y009182D01*
X024860Y009281D02*
X026018Y009281D01*
X026117Y009379D02*
X024912Y009379D01*
X024964Y009478D02*
X026283Y009478D01*
X026708Y009478D02*
X027150Y009478D01*
X027200Y009576D02*
X025017Y009576D01*
X025069Y009675D02*
X027250Y009675D01*
X027300Y009773D02*
X025121Y009773D01*
X025174Y009872D02*
X027349Y009872D01*
X027399Y009970D02*
X025226Y009970D01*
X025278Y010069D02*
X027449Y010069D01*
X027499Y010167D02*
X026657Y010167D01*
X026717Y010227D02*
X026717Y010227D01*
X026755Y010266D02*
X027549Y010266D01*
X027599Y010364D02*
X026854Y010364D01*
X026952Y010463D02*
X027649Y010463D01*
X027699Y010561D02*
X027051Y010561D01*
X027149Y010660D02*
X027749Y010660D01*
X027798Y010758D02*
X027248Y010758D01*
X027346Y010857D02*
X027848Y010857D01*
X027898Y010955D02*
X027445Y010955D01*
X027543Y011054D02*
X027948Y011054D01*
X027998Y011152D02*
X027642Y011152D01*
X027740Y011251D02*
X028048Y011251D01*
X028098Y011349D02*
X027839Y011349D01*
X027937Y011448D02*
X028148Y011448D01*
X028197Y011546D02*
X028036Y011546D01*
X028109Y011645D02*
X028247Y011645D01*
X028297Y011743D02*
X028136Y011743D01*
X028136Y011842D02*
X028347Y011842D01*
X028397Y011940D02*
X028136Y011940D01*
X028136Y012039D02*
X028447Y012039D01*
X028497Y012137D02*
X028136Y012137D01*
X028136Y012236D02*
X028547Y012236D01*
X028597Y012334D02*
X028136Y012334D01*
X028136Y012433D02*
X028646Y012433D01*
X028696Y012531D02*
X028136Y012531D01*
X028136Y012630D02*
X028746Y012630D01*
X028796Y012728D02*
X028136Y012728D01*
X028136Y012827D02*
X028846Y012827D01*
X028896Y012925D02*
X028136Y012925D01*
X028136Y013024D02*
X028946Y013024D01*
X028996Y013122D02*
X028136Y013122D01*
X028136Y013221D02*
X029046Y013221D01*
X029095Y013319D02*
X028136Y013319D01*
X028136Y013418D02*
X029145Y013418D01*
X029195Y013516D02*
X028136Y013516D01*
X028136Y013615D02*
X029245Y013615D01*
X029295Y013713D02*
X028136Y013713D01*
X028136Y013812D02*
X029345Y013812D01*
X029395Y013910D02*
X028136Y013910D01*
X028185Y014009D02*
X029445Y014009D01*
X029495Y014107D02*
X028226Y014107D01*
X028234Y014206D02*
X029544Y014206D01*
X029594Y014304D02*
X028224Y014304D01*
X028183Y014403D02*
X029644Y014403D01*
X029694Y014501D02*
X028097Y014501D01*
X027594Y014501D02*
X027488Y014501D01*
X027508Y014403D02*
X027390Y014403D01*
X027467Y014304D02*
X027291Y014304D01*
X027193Y014206D02*
X027458Y014206D01*
X027466Y014107D02*
X027136Y014107D01*
X027136Y014009D02*
X027506Y014009D01*
X027556Y013910D02*
X027136Y013910D01*
X027136Y013812D02*
X027556Y013812D01*
X027556Y013713D02*
X027136Y013713D01*
X027136Y013615D02*
X027556Y013615D01*
X027556Y013516D02*
X027136Y013516D01*
X027136Y013418D02*
X027556Y013418D01*
X027556Y013319D02*
X027136Y013319D01*
X027136Y013221D02*
X027556Y013221D01*
X027556Y013122D02*
X027136Y013122D01*
X027136Y013024D02*
X027556Y013024D01*
X027556Y012925D02*
X027136Y012925D01*
X027136Y012827D02*
X027556Y012827D01*
X027556Y012728D02*
X027178Y012728D01*
X027219Y012630D02*
X027556Y012630D01*
X027556Y012531D02*
X027234Y012531D01*
X027231Y012433D02*
X027556Y012433D01*
X027556Y012334D02*
X027190Y012334D01*
X027114Y012236D02*
X027556Y012236D01*
X027556Y012137D02*
X026945Y012137D01*
X026746Y012137D02*
X026698Y012137D01*
X026698Y012039D02*
X027556Y012039D01*
X027556Y011940D02*
X026698Y011940D01*
X026698Y011842D02*
X027511Y011842D01*
X027413Y011743D02*
X026758Y011743D01*
X026796Y011645D02*
X027314Y011645D01*
X027216Y011546D02*
X026796Y011546D01*
X026776Y011448D02*
X027117Y011448D01*
X027019Y011349D02*
X026732Y011349D01*
X026634Y011251D02*
X026920Y011251D01*
X026822Y011152D02*
X025082Y011152D01*
X025028Y011054D02*
X026723Y011054D01*
X026625Y010955D02*
X024975Y010955D01*
X024921Y010857D02*
X026526Y010857D01*
X026428Y010758D02*
X024868Y010758D01*
X024814Y010660D02*
X025008Y010660D01*
X024881Y010561D02*
X024761Y010561D01*
X024708Y010463D02*
X024831Y010463D01*
X024779Y010364D02*
X024654Y010364D01*
X024601Y010266D02*
X024726Y010266D01*
X024674Y010167D02*
X024547Y010167D01*
X024494Y010069D02*
X024622Y010069D01*
X024569Y009970D02*
X024440Y009970D01*
X024387Y009872D02*
X024517Y009872D01*
X024465Y009773D02*
X024333Y009773D01*
X024280Y009675D02*
X024412Y009675D01*
X024360Y009576D02*
X024226Y009576D01*
X024173Y009478D02*
X024308Y009478D01*
X024255Y009379D02*
X024120Y009379D01*
X024066Y009281D02*
X024203Y009281D01*
X024151Y009182D02*
X024013Y009182D01*
X023959Y009084D02*
X024098Y009084D01*
X024046Y008985D02*
X023906Y008985D01*
X023852Y008887D02*
X023994Y008887D01*
X023941Y008788D02*
X023799Y008788D01*
X023745Y008690D02*
X023889Y008690D01*
X023837Y008591D02*
X023692Y008591D01*
X023638Y008493D02*
X023784Y008493D01*
X023732Y008394D02*
X023585Y008394D01*
X023531Y008296D02*
X023680Y008296D01*
X023627Y008197D02*
X023478Y008197D01*
X023425Y008099D02*
X023575Y008099D01*
X023523Y008000D02*
X023371Y008000D01*
X023318Y007902D02*
X023470Y007902D01*
X023418Y007803D02*
X023264Y007803D01*
X023211Y007705D02*
X023366Y007705D01*
X023313Y007606D02*
X023157Y007606D01*
X023104Y007508D02*
X023261Y007508D01*
X023209Y007409D02*
X023050Y007409D01*
X022997Y007311D02*
X023156Y007311D01*
X023104Y007212D02*
X022943Y007212D01*
X022890Y007114D02*
X023052Y007114D01*
X022999Y007015D02*
X022840Y007015D01*
X022743Y006917D02*
X022947Y006917D01*
X022895Y006818D02*
X021769Y006818D01*
X021854Y006720D02*
X022842Y006720D01*
X022790Y006621D02*
X021938Y006621D01*
X022076Y008042D02*
X018934Y008042D01*
X018961Y008106D01*
X018961Y008229D01*
X018972Y008229D01*
X019027Y008229D01*
X019063Y008192D01*
X019206Y008133D01*
X019360Y008133D01*
X019503Y008192D01*
X019612Y008301D01*
X019671Y008444D01*
X019671Y008598D01*
X019612Y008741D01*
X019579Y008774D01*
X019579Y009115D01*
X019690Y009226D01*
X020112Y009226D01*
X020032Y009146D01*
X019934Y008909D01*
X019934Y008653D01*
X020032Y008417D01*
X020213Y008236D01*
X020449Y008138D01*
X020705Y008138D01*
X020941Y008236D01*
X021122Y008417D01*
X021220Y008653D01*
X021220Y008909D01*
X021122Y009146D01*
X021041Y009226D01*
X021951Y009226D01*
X022057Y009270D01*
X023154Y010367D01*
X023236Y010449D01*
X023280Y010555D01*
X023280Y011911D01*
X023300Y011911D01*
X023443Y011970D01*
X023552Y012079D01*
X023611Y012221D01*
X023611Y012376D01*
X023552Y012519D01*
X023443Y012628D01*
X023300Y012687D01*
X023146Y012687D01*
X023003Y012628D01*
X022894Y012519D01*
X022835Y012376D01*
X022835Y012321D01*
X022744Y012230D01*
X022700Y012123D01*
X022700Y010733D01*
X021773Y009806D01*
X019512Y009806D01*
X019406Y009762D01*
X019125Y009481D01*
X019043Y009399D01*
X018999Y009293D01*
X018999Y008809D01*
X018970Y008809D01*
X018210Y008809D01*
X018204Y008811D01*
X018152Y008809D01*
X018101Y008809D01*
X018095Y008806D01*
X018089Y008806D01*
X018042Y008784D01*
X018032Y008780D01*
X018046Y008814D01*
X018046Y008968D01*
X017987Y009111D01*
X017878Y009220D01*
X017735Y009279D01*
X017581Y009279D01*
X017478Y009236D01*
X017111Y009236D01*
X017028Y009319D01*
X017028Y009976D01*
X017425Y009976D01*
X017436Y009973D01*
X017482Y009976D01*
X017528Y009976D01*
X017539Y009981D01*
X017551Y009982D01*
X017592Y010003D01*
X017635Y010020D01*
X017643Y010029D01*
X018295Y010361D01*
X018313Y010382D01*
X018566Y010509D01*
X018621Y010674D01*
X018585Y010746D01*
X018745Y010766D01*
X018712Y010630D01*
X019132Y009945D01*
X019302Y009904D01*
X019886Y010263D01*
X019912Y010370D01*
X019928Y010370D01*
X019965Y010381D01*
X020158Y010499D01*
X019941Y010853D01*
X020026Y010905D01*
X020243Y010552D01*
X020435Y010669D01*
X020463Y010698D01*
X020481Y010733D01*
X020491Y010771D01*
X020490Y010811D01*
X020478Y010849D01*
X020330Y011091D01*
X020026Y010905D01*
X019974Y010991D01*
X020277Y011177D01*
X020157Y011373D01*
X020380Y011484D01*
X020410Y011510D01*
X020431Y011543D01*
X020444Y011581D01*
X020446Y011620D01*
X020438Y011659D01*
X020399Y011738D01*
X020013Y011545D01*
X020013Y011545D01*
X020399Y011738D01*
X020359Y011818D01*
X020333Y011847D01*
X020332Y011848D01*
X020332Y011849D01*
X020324Y011888D01*
X020286Y011963D01*
X021461Y012584D01*
X021499Y012600D01*
X021508Y012609D01*
X021519Y012615D01*
X021546Y012647D01*
X021575Y012676D01*
X021580Y012688D01*
X021588Y012698D01*
X021600Y012737D01*
X021616Y012775D01*
X021616Y012788D01*
X021620Y012800D01*
X021616Y012841D01*
X021616Y013334D01*
X022056Y013575D01*
X022056Y013574D01*
X022056Y011083D01*
X021722Y010749D01*
X021581Y010749D01*
X021438Y010690D01*
X021329Y010581D01*
X021270Y010438D01*
X021270Y010284D01*
X021329Y010141D01*
X021438Y010032D01*
X021581Y009973D01*
X021735Y009973D01*
X021878Y010032D01*
X021987Y010141D01*
X022025Y010232D01*
X022592Y010799D01*
X022636Y010905D01*
X022636Y013368D01*
X023428Y013765D01*
X023456Y013753D01*
X023610Y013753D01*
X023753Y013812D01*
X023862Y013921D01*
X023921Y014064D01*
X023921Y014218D01*
X023862Y014361D01*
X023753Y014470D01*
X023671Y014504D01*
X023671Y014656D01*
X023612Y014799D01*
X023503Y014908D01*
X023360Y014967D01*
X023206Y014967D01*
X023063Y014908D01*
X023048Y014893D01*
X023056Y014917D01*
X023073Y014959D01*
X023073Y014971D01*
X023077Y014983D01*
X023073Y015028D01*
X023073Y015195D01*
X023112Y015234D01*
X023171Y015377D01*
X023171Y015531D01*
X023112Y015674D01*
X023003Y015783D01*
X022860Y015842D01*
X022706Y015842D01*
X022563Y015783D01*
X022454Y015674D01*
X022395Y015531D01*
X022395Y015377D01*
X022454Y015234D01*
X022493Y015195D01*
X022493Y015193D01*
X021698Y014781D01*
X021698Y016657D01*
X021769Y016628D01*
X021923Y016628D01*
X022066Y016687D01*
X022105Y016726D01*
X023612Y016726D01*
X023583Y016656D01*
X023583Y016619D01*
X022667Y016619D01*
X022628Y016658D01*
X022485Y016717D01*
X022331Y016717D01*
X022188Y016658D01*
X022079Y016549D01*
X022020Y016406D01*
X022020Y016252D01*
X022079Y016109D01*
X022188Y016000D01*
X022331Y015941D01*
X022485Y015941D01*
X022628Y016000D01*
X022667Y016039D01*
X023476Y016039D01*
X023556Y015959D01*
X023556Y015459D01*
X023600Y015352D01*
X024181Y014771D01*
X024181Y014396D01*
X024179Y014344D01*
X024181Y014339D01*
X024181Y014334D01*
X024201Y014285D01*
X024219Y014236D01*
X024223Y014232D01*
X024225Y014227D01*
X024262Y014190D01*
X024984Y013416D01*
X024060Y011895D01*
X024053Y011889D01*
X024030Y011846D01*
X024005Y011805D01*
X024004Y011795D01*
X023598Y011019D01*
X023520Y010986D01*
X023410Y010877D01*
X023351Y010735D01*
X023351Y010580D01*
X023360Y010560D01*
X022076Y008042D01*
X022104Y008099D02*
X018958Y008099D01*
X018961Y008197D02*
X019058Y008197D01*
X019508Y008197D02*
X020306Y008197D01*
X020153Y008296D02*
X019607Y008296D01*
X019651Y008394D02*
X020054Y008394D01*
X020000Y008493D02*
X019671Y008493D01*
X019671Y008591D02*
X019959Y008591D01*
X019934Y008690D02*
X019633Y008690D01*
X019579Y008788D02*
X019934Y008788D01*
X019934Y008887D02*
X019579Y008887D01*
X019579Y008985D02*
X019965Y008985D01*
X020006Y009084D02*
X019579Y009084D01*
X019646Y009182D02*
X020068Y009182D01*
X019433Y009773D02*
X017028Y009773D01*
X017028Y009675D02*
X019319Y009675D01*
X019220Y009576D02*
X017028Y009576D01*
X017028Y009478D02*
X019122Y009478D01*
X019035Y009379D02*
X017028Y009379D01*
X017067Y009281D02*
X018999Y009281D01*
X018999Y009182D02*
X017916Y009182D01*
X017999Y009084D02*
X018999Y009084D01*
X018999Y008985D02*
X018039Y008985D01*
X018046Y008887D02*
X018999Y008887D01*
X018050Y008788D02*
X018036Y008788D01*
X017758Y008512D02*
X017561Y008299D01*
X016692Y008299D01*
X016386Y008581D01*
X016386Y008915D01*
X016449Y008852D01*
X016644Y008657D01*
X016748Y008553D01*
X016884Y008496D01*
X017707Y008496D01*
X017723Y008503D01*
X017735Y008503D01*
X017758Y008512D01*
X017740Y008493D02*
X016482Y008493D01*
X016386Y008591D02*
X016710Y008591D01*
X016611Y008690D02*
X016386Y008690D01*
X016386Y008788D02*
X016513Y008788D01*
X016449Y008852D02*
X016449Y008852D01*
X016414Y008887D02*
X016386Y008887D01*
X016589Y008394D02*
X017649Y008394D01*
X017028Y009872D02*
X021838Y009872D01*
X021937Y009970D02*
X019409Y009970D01*
X019570Y010069D02*
X021402Y010069D01*
X021318Y010167D02*
X019731Y010167D01*
X019887Y010266D02*
X021278Y010266D01*
X021270Y010364D02*
X019911Y010364D01*
X020098Y010463D02*
X021280Y010463D01*
X021321Y010561D02*
X020259Y010561D01*
X020237Y010561D02*
X020120Y010561D01*
X020177Y010660D02*
X020059Y010660D01*
X020116Y010758D02*
X019999Y010758D01*
X019947Y010857D02*
X020056Y010857D01*
X020108Y010955D02*
X019996Y010955D01*
X020077Y011054D02*
X020268Y011054D01*
X020353Y011054D02*
X022026Y011054D01*
X022056Y011152D02*
X020238Y011152D01*
X020232Y011251D02*
X022056Y011251D01*
X022056Y011349D02*
X020172Y011349D01*
X020307Y011448D02*
X022056Y011448D01*
X022056Y011546D02*
X020432Y011546D01*
X020441Y011645D02*
X022056Y011645D01*
X022056Y011743D02*
X020396Y011743D01*
X020337Y011842D02*
X022056Y011842D01*
X022056Y011940D02*
X020298Y011940D01*
X020429Y012039D02*
X022056Y012039D01*
X022056Y012137D02*
X020616Y012137D01*
X020802Y012236D02*
X022056Y012236D01*
X022056Y012334D02*
X020988Y012334D01*
X021174Y012433D02*
X022056Y012433D01*
X022056Y012531D02*
X021361Y012531D01*
X021532Y012630D02*
X022056Y012630D01*
X022056Y012728D02*
X021597Y012728D01*
X021617Y012827D02*
X022056Y012827D01*
X022056Y012925D02*
X021616Y012925D01*
X021616Y013024D02*
X022056Y013024D01*
X022056Y013122D02*
X021616Y013122D01*
X021616Y013221D02*
X022056Y013221D01*
X022056Y013319D02*
X021616Y013319D01*
X021769Y013418D02*
X022056Y013418D01*
X022056Y013516D02*
X021949Y013516D01*
X022636Y013319D02*
X024925Y013319D01*
X024983Y013418D02*
X022735Y013418D01*
X022932Y013516D02*
X024891Y013516D01*
X024799Y013615D02*
X023129Y013615D01*
X023326Y013713D02*
X024707Y013713D01*
X024615Y013812D02*
X023752Y013812D01*
X023851Y013910D02*
X024523Y013910D01*
X024431Y014009D02*
X023898Y014009D01*
X023921Y014107D02*
X024339Y014107D01*
X024246Y014206D02*
X023921Y014206D01*
X023886Y014304D02*
X024193Y014304D01*
X024181Y014403D02*
X023821Y014403D01*
X023678Y014501D02*
X024181Y014501D01*
X024181Y014600D02*
X023671Y014600D01*
X023654Y014698D02*
X024181Y014698D01*
X024155Y014797D02*
X023613Y014797D01*
X023516Y014895D02*
X024057Y014895D01*
X023958Y014994D02*
X023076Y014994D01*
X023073Y015092D02*
X023860Y015092D01*
X023761Y015191D02*
X023073Y015191D01*
X023135Y015289D02*
X023663Y015289D01*
X023585Y015388D02*
X023171Y015388D01*
X023171Y015486D02*
X023556Y015486D01*
X023556Y015585D02*
X023149Y015585D01*
X023103Y015683D02*
X023556Y015683D01*
X023556Y015782D02*
X023004Y015782D01*
X022562Y015782D02*
X021698Y015782D01*
X021698Y015880D02*
X023556Y015880D01*
X023536Y015979D02*
X022578Y015979D01*
X022464Y015683D02*
X021698Y015683D01*
X021698Y015585D02*
X022417Y015585D01*
X022395Y015486D02*
X021698Y015486D01*
X021698Y015388D02*
X022395Y015388D01*
X022431Y015289D02*
X021698Y015289D01*
X021698Y015191D02*
X022489Y015191D01*
X022299Y015092D02*
X021698Y015092D01*
X021698Y014994D02*
X022109Y014994D01*
X021918Y014895D02*
X021698Y014895D01*
X021698Y014797D02*
X021728Y014797D01*
X021698Y015979D02*
X022239Y015979D01*
X022111Y016077D02*
X021698Y016077D01*
X021698Y016176D02*
X022051Y016176D01*
X022020Y016274D02*
X021698Y016274D01*
X021698Y016373D02*
X022020Y016373D01*
X022047Y016471D02*
X021698Y016471D01*
X021698Y016570D02*
X022100Y016570D01*
X022020Y016668D02*
X022214Y016668D01*
X022603Y016668D02*
X023588Y016668D01*
X024354Y016668D02*
X026359Y016668D01*
X026707Y016668D02*
X027460Y016668D01*
X027660Y016570D02*
X024390Y016570D01*
X024476Y016471D02*
X024816Y016471D01*
X024716Y016373D02*
X024511Y016373D01*
X024511Y016274D02*
X024668Y016274D01*
X024645Y016176D02*
X024511Y016176D01*
X024511Y016077D02*
X024645Y016077D01*
X024680Y015979D02*
X024511Y015979D01*
X024511Y015880D02*
X024745Y015880D01*
X024887Y015782D02*
X024511Y015782D01*
X024526Y015683D02*
X026581Y015683D01*
X026680Y015585D02*
X024625Y015585D01*
X024723Y015486D02*
X026778Y015486D01*
X026877Y015388D02*
X024822Y015388D01*
X024920Y015289D02*
X026975Y015289D01*
X027056Y015191D02*
X025019Y015191D01*
X025066Y015092D02*
X027056Y015092D01*
X027056Y014994D02*
X025073Y014994D01*
X025073Y014895D02*
X027056Y014895D01*
X026964Y014797D02*
X025073Y014797D01*
X025073Y014698D02*
X026865Y014698D01*
X026767Y014600D02*
X025110Y014600D01*
X025208Y014501D02*
X026668Y014501D01*
X026587Y014403D02*
X025307Y014403D01*
X025405Y014304D02*
X026556Y014304D01*
X026556Y014206D02*
X025504Y014206D01*
X025602Y014107D02*
X025905Y014107D01*
X026287Y014107D02*
X026556Y014107D01*
X026556Y014009D02*
X026402Y014009D01*
X026456Y013910D02*
X026556Y013910D01*
X026556Y013812D02*
X026484Y013812D01*
X026484Y013713D02*
X026556Y013713D01*
X026556Y013615D02*
X026453Y013615D01*
X026395Y013516D02*
X026556Y013516D01*
X026556Y013418D02*
X026269Y013418D01*
X026328Y013319D02*
X026556Y013319D01*
X026556Y013221D02*
X026426Y013221D01*
X026525Y013122D02*
X026556Y013122D01*
X024865Y013221D02*
X022636Y013221D01*
X022636Y013122D02*
X024805Y013122D01*
X024745Y013024D02*
X022636Y013024D01*
X022636Y012925D02*
X024686Y012925D01*
X024626Y012827D02*
X022636Y012827D01*
X022636Y012728D02*
X024566Y012728D01*
X024506Y012630D02*
X023438Y012630D01*
X023539Y012531D02*
X024446Y012531D01*
X024387Y012433D02*
X023588Y012433D01*
X023611Y012334D02*
X024327Y012334D01*
X024267Y012236D02*
X023611Y012236D01*
X023576Y012137D02*
X024207Y012137D01*
X024147Y012039D02*
X023512Y012039D01*
X023372Y011940D02*
X024088Y011940D01*
X024028Y011842D02*
X023280Y011842D01*
X023280Y011743D02*
X023977Y011743D01*
X023925Y011645D02*
X023280Y011645D01*
X023280Y011546D02*
X023874Y011546D01*
X023822Y011448D02*
X023280Y011448D01*
X023280Y011349D02*
X023771Y011349D01*
X023719Y011251D02*
X023280Y011251D01*
X023280Y011152D02*
X023668Y011152D01*
X023616Y011054D02*
X023280Y011054D01*
X023280Y010955D02*
X023488Y010955D01*
X023402Y010857D02*
X023280Y010857D01*
X023280Y010758D02*
X023361Y010758D01*
X023351Y010660D02*
X023280Y010660D01*
X023280Y010561D02*
X023359Y010561D01*
X023310Y010463D02*
X023241Y010463D01*
X023259Y010364D02*
X023151Y010364D01*
X023209Y010266D02*
X023053Y010266D01*
X022954Y010167D02*
X023159Y010167D01*
X023109Y010069D02*
X022856Y010069D01*
X022757Y009970D02*
X023059Y009970D01*
X023008Y009872D02*
X022659Y009872D01*
X022560Y009773D02*
X022958Y009773D01*
X022908Y009675D02*
X022462Y009675D01*
X022363Y009576D02*
X022858Y009576D01*
X022807Y009478D02*
X022265Y009478D01*
X022166Y009379D02*
X022757Y009379D01*
X022707Y009281D02*
X022068Y009281D01*
X022556Y008985D02*
X021188Y008985D01*
X021220Y008887D02*
X022506Y008887D01*
X022456Y008788D02*
X021220Y008788D01*
X021220Y008690D02*
X022406Y008690D01*
X022355Y008591D02*
X021194Y008591D01*
X021153Y008493D02*
X022305Y008493D01*
X022255Y008394D02*
X021099Y008394D01*
X021001Y008296D02*
X022205Y008296D01*
X022154Y008197D02*
X020847Y008197D01*
X021148Y009084D02*
X022607Y009084D01*
X022657Y009182D02*
X021085Y009182D01*
X021915Y010069D02*
X022035Y010069D01*
X021998Y010167D02*
X022134Y010167D01*
X022059Y010266D02*
X022232Y010266D01*
X022157Y010364D02*
X022331Y010364D01*
X022256Y010463D02*
X022429Y010463D01*
X022354Y010561D02*
X022528Y010561D01*
X022453Y010660D02*
X022626Y010660D01*
X022700Y010758D02*
X022551Y010758D01*
X022616Y010857D02*
X022700Y010857D01*
X022700Y010955D02*
X022636Y010955D01*
X022636Y011054D02*
X022700Y011054D01*
X022700Y011152D02*
X022636Y011152D01*
X022636Y011251D02*
X022700Y011251D01*
X022700Y011349D02*
X022636Y011349D01*
X022636Y011448D02*
X022700Y011448D01*
X022700Y011546D02*
X022636Y011546D01*
X022636Y011645D02*
X022700Y011645D01*
X022700Y011743D02*
X022636Y011743D01*
X022636Y011842D02*
X022700Y011842D01*
X022700Y011940D02*
X022636Y011940D01*
X022636Y012039D02*
X022700Y012039D01*
X022706Y012137D02*
X022636Y012137D01*
X022636Y012236D02*
X022750Y012236D01*
X022835Y012334D02*
X022636Y012334D01*
X022636Y012433D02*
X022859Y012433D01*
X022907Y012531D02*
X022636Y012531D01*
X022636Y012630D02*
X023008Y012630D01*
X025242Y011448D02*
X026041Y011448D01*
X026020Y011546D02*
X025296Y011546D01*
X025349Y011645D02*
X025853Y011645D01*
X026084Y011349D02*
X025189Y011349D01*
X025135Y011251D02*
X026183Y011251D01*
X025856Y008197D02*
X025636Y008197D01*
X025829Y008099D02*
X026012Y008099D01*
X024188Y005045D02*
X024351Y004882D01*
X024564Y004794D01*
X024795Y004794D01*
X024999Y004878D01*
X024839Y004551D01*
X023328Y004551D01*
X023114Y004765D01*
X023130Y004750D02*
X024936Y004750D01*
X024926Y004848D02*
X024984Y004848D01*
X024888Y004651D02*
X023228Y004651D01*
X023327Y004553D02*
X024840Y004553D01*
X024433Y004848D02*
X023477Y004848D01*
X023560Y004947D02*
X024286Y004947D01*
X022856Y003863D02*
X021789Y003863D01*
X021789Y003765D02*
X022996Y003765D01*
X022758Y003962D02*
X021789Y003962D01*
X021789Y004060D02*
X022659Y004060D01*
X022561Y004159D02*
X021789Y004159D01*
X021787Y004257D02*
X022462Y004257D01*
X022364Y004356D02*
X021725Y004356D01*
X022068Y004651D02*
X014990Y004651D01*
X014936Y004553D02*
X022167Y004553D01*
X022265Y004454D02*
X013823Y004454D01*
X013759Y004553D02*
X013725Y004553D01*
X013705Y004651D02*
X013626Y004651D01*
X013557Y004750D02*
X013705Y004750D01*
X013705Y004848D02*
X013615Y004848D01*
X013656Y004947D02*
X013705Y004947D01*
X013705Y005045D02*
X013663Y005045D01*
X013663Y005144D02*
X013705Y005144D01*
X014298Y005045D02*
X014398Y005045D01*
X014398Y004947D02*
X014298Y004947D01*
X014298Y004848D02*
X014398Y004848D01*
X014398Y004750D02*
X014298Y004750D01*
X014298Y004651D02*
X014398Y004651D01*
X014398Y004553D02*
X014298Y004553D01*
X012284Y005170D02*
X011759Y005170D01*
X011759Y004991D01*
X011769Y004952D01*
X011782Y004930D01*
X011699Y004847D01*
X011699Y004253D01*
X011737Y004215D01*
X011699Y004177D01*
X011699Y003761D01*
X011253Y003758D01*
X011253Y005170D01*
X010588Y005170D01*
X010586Y005270D01*
X011253Y005270D01*
X011253Y007366D01*
X011243Y007404D01*
X011223Y007438D01*
X011195Y007466D01*
X011161Y007486D01*
X011123Y007496D01*
X010535Y007496D01*
X010533Y007579D01*
X010595Y014572D01*
X011960Y017437D01*
X012051Y017217D01*
X012232Y017036D01*
X012468Y016939D01*
X012724Y016939D01*
X012960Y017036D01*
X013141Y017217D01*
X013239Y017454D01*
X013239Y017604D01*
X013256Y017588D01*
X013492Y017490D01*
X013748Y017490D01*
X013984Y017588D01*
X014165Y017769D01*
X014263Y018005D01*
X014263Y018169D01*
X014476Y018080D01*
X014732Y018080D01*
X014968Y018178D01*
X015149Y018359D01*
X015247Y018595D01*
X015247Y018720D01*
X015460Y018632D01*
X015716Y018632D01*
X015953Y018729D01*
X016134Y018910D01*
X016231Y019147D01*
X016231Y019310D01*
X016445Y019222D01*
X016700Y019222D01*
X016937Y019320D01*
X016998Y019381D01*
X016998Y017436D01*
X015301Y015739D01*
X015186Y015623D01*
X015123Y015473D01*
X015123Y011989D01*
X013702Y011989D01*
X013551Y011926D01*
X012926Y011301D01*
X012811Y011186D01*
X012748Y011035D01*
X012748Y008864D01*
X012397Y008864D01*
X012309Y008900D01*
X012132Y008900D01*
X011968Y008832D01*
X011842Y008706D01*
X011774Y008542D01*
X011774Y008365D01*
X011842Y008201D01*
X011968Y008075D01*
X012132Y008007D01*
X012309Y008007D01*
X012397Y008044D01*
X012811Y008044D01*
X012811Y006912D01*
X012779Y006920D01*
X012384Y006920D01*
X012384Y006610D01*
X012284Y006610D01*
X012284Y006510D01*
X011759Y006510D01*
X011759Y006331D01*
X011769Y006292D01*
X011782Y006270D01*
X011699Y006187D01*
X011699Y005593D01*
X011782Y005510D01*
X011769Y005488D01*
X011759Y005450D01*
X011759Y005270D01*
X012284Y005270D01*
X012284Y005170D01*
X012284Y005242D02*
X010587Y005242D01*
X011253Y005144D02*
X011759Y005144D01*
X011759Y005045D02*
X011253Y005045D01*
X011253Y004947D02*
X011772Y004947D01*
X011700Y004848D02*
X011253Y004848D01*
X011253Y004750D02*
X011699Y004750D01*
X011699Y004651D02*
X011253Y004651D01*
X011253Y004553D02*
X011699Y004553D01*
X011699Y004454D02*
X011253Y004454D01*
X011253Y004356D02*
X011699Y004356D01*
X011699Y004257D02*
X011253Y004257D01*
X011253Y004159D02*
X011699Y004159D01*
X011699Y004060D02*
X011253Y004060D01*
X011253Y003962D02*
X011699Y003962D01*
X011699Y003863D02*
X011253Y003863D01*
X011253Y003765D02*
X011699Y003765D01*
X011759Y005341D02*
X011253Y005341D01*
X011253Y005439D02*
X011759Y005439D01*
X011754Y005538D02*
X011253Y005538D01*
X011253Y005636D02*
X011699Y005636D01*
X011699Y005735D02*
X011253Y005735D01*
X011253Y005833D02*
X011699Y005833D01*
X011699Y005932D02*
X011253Y005932D01*
X011253Y006030D02*
X011699Y006030D01*
X011699Y006129D02*
X011253Y006129D01*
X011253Y006227D02*
X011739Y006227D01*
X011760Y006326D02*
X011253Y006326D01*
X011253Y006424D02*
X011759Y006424D01*
X011759Y006610D02*
X012284Y006610D01*
X012284Y006920D01*
X011889Y006920D01*
X011851Y006910D01*
X011817Y006890D01*
X011789Y006862D01*
X011769Y006828D01*
X011759Y006790D01*
X011759Y006610D01*
X011759Y006621D02*
X011253Y006621D01*
X011253Y006523D02*
X012284Y006523D01*
X012284Y006621D02*
X012384Y006621D01*
X012384Y006720D02*
X012284Y006720D01*
X012284Y006818D02*
X012384Y006818D01*
X012384Y006917D02*
X012284Y006917D01*
X011876Y006917D02*
X011253Y006917D01*
X011253Y007015D02*
X012811Y007015D01*
X012811Y006917D02*
X012792Y006917D01*
X012811Y007114D02*
X011253Y007114D01*
X011253Y007212D02*
X012811Y007212D01*
X012811Y007311D02*
X011253Y007311D01*
X011240Y007409D02*
X012811Y007409D01*
X012811Y007508D02*
X010535Y007508D01*
X010533Y007606D02*
X012811Y007606D01*
X012811Y007705D02*
X010534Y007705D01*
X010535Y007803D02*
X012811Y007803D01*
X012811Y007902D02*
X010536Y007902D01*
X010537Y008000D02*
X012811Y008000D01*
X011945Y008099D02*
X011379Y008099D01*
X011309Y008070D02*
X011473Y008138D01*
X011599Y008263D01*
X011667Y008427D01*
X011667Y008605D01*
X011631Y008692D01*
X011631Y010715D01*
X011667Y010802D01*
X011667Y010980D01*
X011599Y011144D01*
X011473Y011269D01*
X011309Y011337D01*
X011132Y011337D01*
X010968Y011269D01*
X010842Y011144D01*
X010774Y010980D01*
X010774Y010802D01*
X010811Y010715D01*
X010811Y008692D01*
X010774Y008605D01*
X010774Y008427D01*
X010842Y008263D01*
X010968Y008138D01*
X011132Y008070D01*
X011309Y008070D01*
X011063Y008099D02*
X010538Y008099D01*
X010539Y008197D02*
X010909Y008197D01*
X010829Y008296D02*
X010540Y008296D01*
X010540Y008394D02*
X010788Y008394D01*
X010774Y008493D02*
X010541Y008493D01*
X010542Y008591D02*
X010774Y008591D01*
X010810Y008690D02*
X010543Y008690D01*
X010544Y008788D02*
X010811Y008788D01*
X010811Y008887D02*
X010545Y008887D01*
X010546Y008985D02*
X010811Y008985D01*
X010811Y009084D02*
X010547Y009084D01*
X010547Y009182D02*
X010811Y009182D01*
X010811Y009281D02*
X010548Y009281D01*
X010549Y009379D02*
X010811Y009379D01*
X010811Y009478D02*
X010550Y009478D01*
X010551Y009576D02*
X010811Y009576D01*
X010811Y009675D02*
X010552Y009675D01*
X010553Y009773D02*
X010811Y009773D01*
X010811Y009872D02*
X010554Y009872D01*
X010554Y009970D02*
X010811Y009970D01*
X010811Y010069D02*
X010555Y010069D01*
X010556Y010167D02*
X010811Y010167D01*
X010811Y010266D02*
X010557Y010266D01*
X010558Y010364D02*
X010811Y010364D01*
X010811Y010463D02*
X010559Y010463D01*
X010560Y010561D02*
X010811Y010561D01*
X010811Y010660D02*
X010561Y010660D01*
X010562Y010758D02*
X010793Y010758D01*
X010774Y010857D02*
X010562Y010857D01*
X010563Y010955D02*
X010774Y010955D01*
X010805Y011054D02*
X010564Y011054D01*
X010565Y011152D02*
X010851Y011152D01*
X010949Y011251D02*
X010566Y011251D01*
X010567Y011349D02*
X012974Y011349D01*
X012875Y011251D02*
X011492Y011251D01*
X011591Y011152D02*
X012797Y011152D01*
X012756Y011054D02*
X011636Y011054D01*
X011667Y010955D02*
X012748Y010955D01*
X012748Y010857D02*
X011667Y010857D01*
X011649Y010758D02*
X012748Y010758D01*
X012748Y010660D02*
X011631Y010660D01*
X011631Y010561D02*
X012748Y010561D01*
X012748Y010463D02*
X011631Y010463D01*
X011631Y010364D02*
X012748Y010364D01*
X012748Y010266D02*
X011631Y010266D01*
X011631Y010167D02*
X012748Y010167D01*
X012748Y010069D02*
X011631Y010069D01*
X011631Y009970D02*
X012748Y009970D01*
X012748Y009872D02*
X011631Y009872D01*
X011631Y009773D02*
X012748Y009773D01*
X012748Y009675D02*
X011631Y009675D01*
X011631Y009576D02*
X012748Y009576D01*
X012748Y009478D02*
X011631Y009478D01*
X011631Y009379D02*
X012748Y009379D01*
X012748Y009281D02*
X011631Y009281D01*
X011631Y009182D02*
X012748Y009182D01*
X012748Y009084D02*
X011631Y009084D01*
X011631Y008985D02*
X012748Y008985D01*
X012748Y008887D02*
X012341Y008887D01*
X012100Y008887D02*
X011631Y008887D01*
X011631Y008788D02*
X011924Y008788D01*
X011835Y008690D02*
X011632Y008690D01*
X011667Y008591D02*
X011795Y008591D01*
X011774Y008493D02*
X011667Y008493D01*
X011653Y008394D02*
X011774Y008394D01*
X011803Y008296D02*
X011612Y008296D01*
X011533Y008197D02*
X011846Y008197D01*
X010199Y008197D02*
X006264Y008197D01*
X006214Y008099D02*
X010198Y008099D01*
X010197Y008000D02*
X006165Y008000D01*
X006116Y007902D02*
X010196Y007902D01*
X010195Y007803D02*
X006066Y007803D01*
X006017Y007705D02*
X010194Y007705D01*
X010194Y007636D02*
X006947Y007636D01*
X006840Y007592D01*
X006759Y007511D01*
X006715Y007404D01*
X006715Y006021D01*
X006713Y006026D01*
X006693Y006060D01*
X006665Y006088D01*
X006631Y006108D01*
X006593Y006118D01*
X006073Y006118D01*
X006073Y005568D01*
X005973Y005568D01*
X005973Y005468D01*
X005323Y005468D01*
X005323Y005122D01*
X004840Y005122D01*
X004840Y005603D01*
X004873Y005614D01*
X004927Y005632D01*
X004927Y005632D01*
X004928Y005632D01*
X004971Y005669D01*
X005015Y005707D01*
X005015Y005707D01*
X005015Y005707D01*
X005040Y005758D01*
X006477Y008623D01*
X006503Y008674D01*
X006503Y008674D01*
X006503Y008674D01*
X006507Y008732D01*
X006512Y008789D01*
X006512Y008789D01*
X006512Y008789D01*
X006494Y008844D01*
X006476Y008898D01*
X006475Y008899D01*
X006438Y008942D01*
X006400Y008986D01*
X006400Y008986D01*
X006400Y008986D01*
X006349Y009012D01*
X005593Y009393D01*
X008795Y015798D01*
X009412Y016350D01*
X009454Y016387D01*
X009455Y016389D01*
X009457Y016390D01*
X009481Y016440D01*
X012323Y022134D01*
X018687Y022134D01*
X018743Y022133D01*
X018745Y022134D01*
X018746Y022134D01*
X018798Y022156D01*
X019532Y022449D01*
X026699Y022449D01*
X026699Y021589D01*
X026743Y021482D01*
X026825Y021401D01*
X026932Y021357D01*
X028252Y021357D01*
X028305Y019530D01*
X025590Y020840D01*
X024917Y020843D01*
X024555Y021205D01*
X024419Y021261D01*
X021272Y021261D01*
X021136Y021205D01*
X021032Y021101D01*
X020797Y020866D01*
X018740Y020877D01*
X018686Y020932D01*
X018506Y021006D01*
X017748Y021006D01*
X017568Y020932D01*
X017520Y020884D01*
X016573Y020889D01*
X011908Y018119D01*
X010256Y014650D01*
X010194Y007636D01*
X010200Y008296D02*
X006313Y008296D01*
X006363Y008394D02*
X010200Y008394D01*
X010201Y008493D02*
X006412Y008493D01*
X006462Y008591D02*
X010202Y008591D01*
X010203Y008690D02*
X006504Y008690D01*
X006512Y008788D02*
X010204Y008788D01*
X010205Y008887D02*
X006480Y008887D01*
X006475Y008899D02*
X006475Y008899D01*
X006401Y008985D02*
X010206Y008985D01*
X010207Y009084D02*
X006206Y009084D01*
X006011Y009182D02*
X010207Y009182D01*
X010208Y009281D02*
X005816Y009281D01*
X005621Y009379D02*
X010209Y009379D01*
X010210Y009478D02*
X005635Y009478D01*
X005684Y009576D02*
X010211Y009576D01*
X010212Y009675D02*
X005734Y009675D01*
X005783Y009773D02*
X010213Y009773D01*
X010214Y009872D02*
X005832Y009872D01*
X005881Y009970D02*
X010214Y009970D01*
X010215Y010069D02*
X005931Y010069D01*
X005980Y010167D02*
X010216Y010167D01*
X010217Y010266D02*
X006029Y010266D01*
X006078Y010364D02*
X010218Y010364D01*
X010219Y010463D02*
X006128Y010463D01*
X006177Y010561D02*
X010220Y010561D01*
X010221Y010660D02*
X006226Y010660D01*
X006275Y010758D02*
X010221Y010758D01*
X010222Y010857D02*
X006325Y010857D01*
X006374Y010955D02*
X010223Y010955D01*
X010224Y011054D02*
X006423Y011054D01*
X006472Y011152D02*
X010225Y011152D01*
X010226Y011251D02*
X006522Y011251D01*
X006571Y011349D02*
X010227Y011349D01*
X010228Y011448D02*
X006620Y011448D01*
X006669Y011546D02*
X010229Y011546D01*
X010229Y011645D02*
X006719Y011645D01*
X006768Y011743D02*
X010230Y011743D01*
X010231Y011842D02*
X006817Y011842D01*
X006866Y011940D02*
X010232Y011940D01*
X010233Y012039D02*
X006916Y012039D01*
X006965Y012137D02*
X010234Y012137D01*
X010235Y012236D02*
X007014Y012236D01*
X007063Y012334D02*
X010236Y012334D01*
X010236Y012433D02*
X007113Y012433D01*
X007162Y012531D02*
X010237Y012531D01*
X010238Y012630D02*
X007211Y012630D01*
X007260Y012728D02*
X010239Y012728D01*
X010240Y012827D02*
X007310Y012827D01*
X007359Y012925D02*
X010241Y012925D01*
X010242Y013024D02*
X007408Y013024D01*
X007457Y013122D02*
X010243Y013122D01*
X010243Y013221D02*
X007507Y013221D01*
X007556Y013319D02*
X010244Y013319D01*
X010245Y013418D02*
X007605Y013418D01*
X007654Y013516D02*
X010246Y013516D01*
X010247Y013615D02*
X007704Y013615D01*
X007753Y013713D02*
X010248Y013713D01*
X010249Y013812D02*
X007802Y013812D01*
X007851Y013910D02*
X010250Y013910D01*
X010250Y014009D02*
X007901Y014009D01*
X007950Y014107D02*
X010251Y014107D01*
X010252Y014206D02*
X007999Y014206D01*
X008048Y014304D02*
X010253Y014304D01*
X010254Y014403D02*
X008098Y014403D01*
X008147Y014501D02*
X010255Y014501D01*
X010256Y014600D02*
X008196Y014600D01*
X008245Y014698D02*
X010279Y014698D01*
X010326Y014797D02*
X008295Y014797D01*
X008344Y014895D02*
X010373Y014895D01*
X010420Y014994D02*
X008393Y014994D01*
X008442Y015092D02*
X010467Y015092D01*
X010514Y015191D02*
X008492Y015191D01*
X008541Y015289D02*
X010561Y015289D01*
X010607Y015388D02*
X008590Y015388D01*
X008639Y015486D02*
X010654Y015486D01*
X010701Y015585D02*
X008689Y015585D01*
X008738Y015683D02*
X010748Y015683D01*
X010795Y015782D02*
X008787Y015782D01*
X008887Y015880D02*
X010842Y015880D01*
X010889Y015979D02*
X008997Y015979D01*
X009107Y016077D02*
X010936Y016077D01*
X010983Y016176D02*
X009217Y016176D01*
X009327Y016274D02*
X011030Y016274D01*
X011077Y016373D02*
X009438Y016373D01*
X009496Y016471D02*
X011123Y016471D01*
X011170Y016570D02*
X009545Y016570D01*
X009594Y016668D02*
X011217Y016668D01*
X011264Y016767D02*
X009644Y016767D01*
X009693Y016865D02*
X011311Y016865D01*
X011358Y016964D02*
X009742Y016964D01*
X009791Y017062D02*
X011405Y017062D01*
X011452Y017161D02*
X009840Y017161D01*
X009889Y017259D02*
X011499Y017259D01*
X011546Y017358D02*
X009939Y017358D01*
X009988Y017456D02*
X011593Y017456D01*
X011639Y017555D02*
X010037Y017555D01*
X010086Y017653D02*
X011686Y017653D01*
X011733Y017752D02*
X010135Y017752D01*
X010184Y017850D02*
X011780Y017850D01*
X011827Y017949D02*
X010234Y017949D01*
X010283Y018047D02*
X011874Y018047D01*
X011953Y018146D02*
X010332Y018146D01*
X010381Y018244D02*
X012119Y018244D01*
X012285Y018343D02*
X010430Y018343D01*
X010479Y018441D02*
X012451Y018441D01*
X012617Y018540D02*
X010529Y018540D01*
X010578Y018638D02*
X012783Y018638D01*
X012948Y018737D02*
X010627Y018737D01*
X010676Y018835D02*
X013114Y018835D01*
X013280Y018934D02*
X010725Y018934D01*
X010774Y019032D02*
X013446Y019032D01*
X013612Y019131D02*
X010824Y019131D01*
X010873Y019229D02*
X013778Y019229D01*
X013944Y019328D02*
X010922Y019328D01*
X010971Y019426D02*
X014110Y019426D01*
X014276Y019525D02*
X011020Y019525D01*
X011069Y019623D02*
X014441Y019623D01*
X014607Y019722D02*
X011119Y019722D01*
X011168Y019820D02*
X014773Y019820D01*
X014939Y019919D02*
X011217Y019919D01*
X011266Y020017D02*
X015105Y020017D01*
X015271Y020116D02*
X011315Y020116D01*
X011364Y020214D02*
X015437Y020214D01*
X015603Y020313D02*
X013163Y020313D01*
X013126Y020297D02*
X013413Y020416D01*
X013633Y020636D01*
X013753Y020924D01*
X013753Y021235D01*
X013633Y021522D01*
X013413Y021742D01*
X013126Y021861D01*
X012815Y021861D01*
X012527Y021742D01*
X012307Y021522D01*
X012188Y021235D01*
X012188Y020924D01*
X012307Y020636D01*
X012527Y020416D01*
X012815Y020297D01*
X013126Y020297D01*
X013401Y020411D02*
X015768Y020411D01*
X015934Y020510D02*
X013507Y020510D01*
X013605Y020608D02*
X016100Y020608D01*
X016266Y020707D02*
X013663Y020707D01*
X013703Y020805D02*
X016432Y020805D01*
X017540Y020904D02*
X013744Y020904D01*
X013753Y021002D02*
X017739Y021002D01*
X018515Y021002D02*
X020934Y021002D01*
X021032Y021101D02*
X013753Y021101D01*
X013753Y021199D02*
X021131Y021199D01*
X020835Y020904D02*
X018714Y020904D01*
X018870Y022184D02*
X026699Y022184D01*
X026699Y022086D02*
X012299Y022086D01*
X012249Y021987D02*
X026699Y021987D01*
X026699Y021889D02*
X012200Y021889D01*
X012151Y021790D02*
X012643Y021790D01*
X012477Y021692D02*
X012102Y021692D01*
X012053Y021593D02*
X012378Y021593D01*
X012296Y021495D02*
X012004Y021495D01*
X011954Y021396D02*
X012255Y021396D01*
X012214Y021298D02*
X011905Y021298D01*
X011856Y021199D02*
X012188Y021199D01*
X012188Y021101D02*
X011807Y021101D01*
X011758Y021002D02*
X012188Y021002D01*
X012197Y020904D02*
X011709Y020904D01*
X011659Y020805D02*
X012237Y020805D01*
X012278Y020707D02*
X011610Y020707D01*
X011561Y020608D02*
X012335Y020608D01*
X012434Y020510D02*
X011512Y020510D01*
X011463Y020411D02*
X012540Y020411D01*
X012777Y020313D02*
X011414Y020313D01*
X013464Y021692D02*
X026699Y021692D01*
X026699Y021790D02*
X013298Y021790D01*
X013563Y021593D02*
X026699Y021593D01*
X026738Y021495D02*
X013645Y021495D01*
X013686Y021396D02*
X026836Y021396D01*
X026843Y021307D02*
X026859Y017466D01*
X026922Y017402D01*
X028865Y016443D01*
X029291Y017311D01*
X028284Y017895D01*
X028265Y019078D01*
X028265Y021277D01*
X026916Y021277D01*
X026843Y021307D01*
X026843Y021298D02*
X026865Y021298D01*
X026844Y021199D02*
X028265Y021199D01*
X028256Y021199D02*
X024561Y021199D01*
X024659Y021101D02*
X028259Y021101D01*
X028265Y021101D02*
X026844Y021101D01*
X026845Y021002D02*
X028265Y021002D01*
X028262Y021002D02*
X024758Y021002D01*
X024856Y020904D02*
X028265Y020904D01*
X026845Y020904D01*
X026845Y020805D02*
X028265Y020805D01*
X028268Y020805D02*
X025661Y020805D01*
X025866Y020707D02*
X028271Y020707D01*
X028265Y020707D02*
X026846Y020707D01*
X026846Y020608D02*
X028265Y020608D01*
X028273Y020608D02*
X026070Y020608D01*
X026274Y020510D02*
X028276Y020510D01*
X028265Y020510D02*
X026847Y020510D01*
X026847Y020411D02*
X028265Y020411D01*
X028279Y020411D02*
X026478Y020411D01*
X026683Y020313D02*
X028282Y020313D01*
X028265Y020313D02*
X026847Y020313D01*
X026848Y020214D02*
X028265Y020214D01*
X028285Y020214D02*
X026887Y020214D01*
X026848Y020116D02*
X028265Y020116D01*
X028288Y020116D02*
X027091Y020116D01*
X027295Y020017D02*
X028291Y020017D01*
X028265Y020017D02*
X026849Y020017D01*
X026849Y019919D02*
X028265Y019919D01*
X028294Y019919D02*
X027500Y019919D01*
X027704Y019820D02*
X028296Y019820D01*
X028265Y019820D02*
X026849Y019820D01*
X026850Y019722D02*
X028265Y019722D01*
X028299Y019722D02*
X027908Y019722D01*
X028112Y019623D02*
X028302Y019623D01*
X028265Y019623D02*
X026850Y019623D01*
X026851Y019525D02*
X028265Y019525D01*
X028265Y019426D02*
X026851Y019426D01*
X026851Y019328D02*
X028265Y019328D01*
X028265Y019229D02*
X026852Y019229D01*
X026852Y019131D02*
X028265Y019131D01*
X028266Y019032D02*
X026853Y019032D01*
X026853Y018934D02*
X028268Y018934D01*
X028269Y018835D02*
X026853Y018835D01*
X026854Y018737D02*
X028271Y018737D01*
X028272Y018638D02*
X026854Y018638D01*
X026855Y018540D02*
X028274Y018540D01*
X028276Y018441D02*
X026855Y018441D01*
X026855Y018343D02*
X028277Y018343D01*
X028279Y018244D02*
X026856Y018244D01*
X026856Y018146D02*
X028280Y018146D01*
X028282Y018047D02*
X026857Y018047D01*
X026857Y017949D02*
X028283Y017949D01*
X028361Y017850D02*
X026857Y017850D01*
X026858Y017752D02*
X028531Y017752D01*
X028701Y017653D02*
X026858Y017653D01*
X026859Y017555D02*
X028871Y017555D01*
X029041Y017456D02*
X026868Y017456D01*
X027012Y017358D02*
X029210Y017358D01*
X029266Y017259D02*
X027212Y017259D01*
X027411Y017161D02*
X029217Y017161D01*
X029169Y017062D02*
X027611Y017062D01*
X027810Y016964D02*
X029121Y016964D01*
X029072Y016865D02*
X028010Y016865D01*
X028209Y016767D02*
X029024Y016767D01*
X028976Y016668D02*
X028409Y016668D01*
X028608Y016570D02*
X028927Y016570D01*
X028879Y016471D02*
X028807Y016471D01*
X028657Y016077D02*
X027007Y016077D01*
X026909Y016176D02*
X028457Y016176D01*
X028258Y016274D02*
X026810Y016274D01*
X026712Y016373D02*
X028058Y016373D01*
X027859Y016471D02*
X025251Y016471D01*
X025180Y015782D02*
X026483Y015782D01*
X027106Y015979D02*
X030442Y015979D01*
X030492Y016077D02*
X029085Y016077D01*
X029197Y016176D02*
X030542Y016176D01*
X030592Y016274D02*
X029250Y016274D01*
X029298Y016373D02*
X030642Y016373D01*
X030692Y016471D02*
X029347Y016471D01*
X029395Y016570D02*
X030742Y016570D01*
X030792Y016668D02*
X029443Y016668D01*
X029492Y016767D02*
X030842Y016767D01*
X030884Y016865D02*
X029540Y016865D01*
X029588Y016964D02*
X030870Y016964D01*
X030809Y017062D02*
X029637Y017062D01*
X029689Y017161D02*
X030749Y017161D01*
X030689Y017259D02*
X029709Y017259D01*
X029715Y017358D02*
X030628Y017358D01*
X030568Y017456D02*
X029687Y017456D01*
X029636Y017555D02*
X030508Y017555D01*
X030447Y017653D02*
X029547Y017653D01*
X029368Y017752D02*
X030387Y017752D01*
X030327Y017850D02*
X029198Y017850D01*
X029028Y017949D02*
X030266Y017949D01*
X030224Y018047D02*
X028858Y018047D01*
X028700Y018146D02*
X030248Y018146D01*
X030341Y018244D02*
X028699Y018244D01*
X028697Y018343D02*
X030501Y018343D01*
X030662Y018441D02*
X028696Y018441D01*
X028694Y018540D02*
X030823Y018540D01*
X030984Y018638D02*
X028692Y018638D01*
X028691Y018737D02*
X031144Y018737D01*
X030427Y019722D02*
X034278Y019722D01*
X034327Y019820D02*
X030574Y019820D01*
X030610Y019919D02*
X034376Y019919D01*
X034426Y020017D02*
X030575Y020017D01*
X030515Y020116D02*
X034475Y020116D01*
X034524Y020214D02*
X030454Y020214D01*
X030394Y020313D02*
X034573Y020313D01*
X034623Y020411D02*
X030334Y020411D01*
X028253Y021298D02*
X013727Y021298D01*
X016231Y019229D02*
X016427Y019229D01*
X016225Y019131D02*
X016998Y019131D01*
X016998Y019229D02*
X016718Y019229D01*
X016945Y019328D02*
X016998Y019328D01*
X016998Y019032D02*
X016184Y019032D01*
X016143Y018934D02*
X016998Y018934D01*
X016998Y018835D02*
X016058Y018835D01*
X015960Y018737D02*
X016998Y018737D01*
X016998Y018638D02*
X015733Y018638D01*
X015444Y018638D02*
X015247Y018638D01*
X015224Y018540D02*
X016998Y018540D01*
X016998Y018441D02*
X015183Y018441D01*
X015133Y018343D02*
X016998Y018343D01*
X016998Y018244D02*
X015034Y018244D01*
X014890Y018146D02*
X016998Y018146D01*
X016998Y018047D02*
X014263Y018047D01*
X014263Y018146D02*
X014318Y018146D01*
X014240Y017949D02*
X016998Y017949D01*
X016998Y017850D02*
X014199Y017850D01*
X014148Y017752D02*
X016998Y017752D01*
X016998Y017653D02*
X014050Y017653D01*
X013905Y017555D02*
X016998Y017555D01*
X016998Y017456D02*
X013239Y017456D01*
X013239Y017555D02*
X013335Y017555D01*
X013200Y017358D02*
X016920Y017358D01*
X016821Y017259D02*
X013159Y017259D01*
X013085Y017161D02*
X016723Y017161D01*
X016624Y017062D02*
X012986Y017062D01*
X012785Y016964D02*
X016526Y016964D01*
X016427Y016865D02*
X011688Y016865D01*
X011641Y016767D02*
X016329Y016767D01*
X016230Y016668D02*
X011594Y016668D01*
X011547Y016570D02*
X016132Y016570D01*
X016033Y016471D02*
X011500Y016471D01*
X011453Y016373D02*
X015935Y016373D01*
X015836Y016274D02*
X011406Y016274D01*
X011359Y016176D02*
X015738Y016176D01*
X015639Y016077D02*
X011312Y016077D01*
X011266Y015979D02*
X015541Y015979D01*
X015442Y015880D02*
X011219Y015880D01*
X011172Y015782D02*
X015344Y015782D01*
X015301Y015739D02*
X015301Y015739D01*
X015245Y015683D02*
X011125Y015683D01*
X011078Y015585D02*
X015170Y015585D01*
X015129Y015486D02*
X011031Y015486D01*
X010984Y015388D02*
X015123Y015388D01*
X015123Y015289D02*
X010937Y015289D01*
X010890Y015191D02*
X015123Y015191D01*
X015123Y015092D02*
X010843Y015092D01*
X010796Y014994D02*
X015123Y014994D01*
X015123Y014895D02*
X010749Y014895D01*
X010703Y014797D02*
X015123Y014797D01*
X015123Y014698D02*
X010656Y014698D01*
X010609Y014600D02*
X015123Y014600D01*
X015123Y014501D02*
X010595Y014501D01*
X010594Y014403D02*
X015123Y014403D01*
X015123Y014304D02*
X010593Y014304D01*
X010592Y014206D02*
X015123Y014206D01*
X015123Y014107D02*
X010591Y014107D01*
X010590Y014009D02*
X015123Y014009D01*
X015123Y013910D02*
X010590Y013910D01*
X010589Y013812D02*
X015123Y013812D01*
X015123Y013713D02*
X010588Y013713D01*
X010587Y013615D02*
X015123Y013615D01*
X015123Y013516D02*
X010586Y013516D01*
X010585Y013418D02*
X015123Y013418D01*
X015123Y013319D02*
X010584Y013319D01*
X010583Y013221D02*
X015123Y013221D01*
X015123Y013122D02*
X010583Y013122D01*
X010582Y013024D02*
X015123Y013024D01*
X015123Y012925D02*
X010581Y012925D01*
X010580Y012827D02*
X015123Y012827D01*
X015123Y012728D02*
X010579Y012728D01*
X010578Y012630D02*
X015123Y012630D01*
X015123Y012531D02*
X010577Y012531D01*
X010576Y012433D02*
X015123Y012433D01*
X015123Y012334D02*
X010576Y012334D01*
X010575Y012236D02*
X015123Y012236D01*
X015123Y012137D02*
X010574Y012137D01*
X010573Y012039D02*
X015123Y012039D01*
X013585Y011940D02*
X010572Y011940D01*
X010571Y011842D02*
X013466Y011842D01*
X013368Y011743D02*
X010570Y011743D01*
X010569Y011645D02*
X013269Y011645D01*
X013171Y011546D02*
X010569Y011546D01*
X010568Y011448D02*
X013072Y011448D01*
X015943Y013466D02*
X015943Y015221D01*
X017640Y016919D01*
X017735Y017013D01*
X017767Y016934D01*
X018056Y016646D01*
X018056Y014839D01*
X017868Y014729D01*
X017860Y014728D01*
X017818Y014700D01*
X017775Y014675D01*
X017770Y014669D01*
X016022Y013524D01*
X015994Y013512D01*
X015974Y013492D01*
X015951Y013477D01*
X015943Y013466D01*
X015943Y013516D02*
X016004Y013516D01*
X015943Y013615D02*
X016161Y013615D01*
X016311Y013713D02*
X015943Y013713D01*
X015943Y013812D02*
X016462Y013812D01*
X016612Y013910D02*
X015943Y013910D01*
X015943Y014009D02*
X016762Y014009D01*
X016913Y014107D02*
X015943Y014107D01*
X015943Y014206D02*
X017063Y014206D01*
X016952Y014210D02*
X017189Y014307D01*
X017370Y014488D01*
X017467Y014725D01*
X017467Y014981D01*
X017370Y015217D01*
X017189Y015398D01*
X016952Y015496D01*
X016696Y015496D01*
X016460Y015398D01*
X016279Y015217D01*
X016181Y014981D01*
X016181Y014725D01*
X016279Y014488D01*
X016460Y014307D01*
X016696Y014210D01*
X016952Y014210D01*
X017181Y014304D02*
X017213Y014304D01*
X017284Y014403D02*
X017364Y014403D01*
X017375Y014501D02*
X017514Y014501D01*
X017416Y014600D02*
X017664Y014600D01*
X017814Y014698D02*
X017456Y014698D01*
X017467Y014797D02*
X017983Y014797D01*
X018056Y014895D02*
X017467Y014895D01*
X017462Y014994D02*
X018056Y014994D01*
X018056Y015092D02*
X017421Y015092D01*
X017380Y015191D02*
X018056Y015191D01*
X018056Y015289D02*
X017297Y015289D01*
X017199Y015388D02*
X018056Y015388D01*
X018056Y015486D02*
X016975Y015486D01*
X016674Y015486D02*
X016208Y015486D01*
X016110Y015388D02*
X016450Y015388D01*
X016352Y015289D02*
X016011Y015289D01*
X015943Y015191D02*
X016268Y015191D01*
X016228Y015092D02*
X015943Y015092D01*
X015943Y014994D02*
X016187Y014994D01*
X016181Y014895D02*
X015943Y014895D01*
X015943Y014797D02*
X016181Y014797D01*
X016192Y014698D02*
X015943Y014698D01*
X015943Y014600D02*
X016233Y014600D01*
X016274Y014501D02*
X015943Y014501D01*
X015943Y014403D02*
X016365Y014403D01*
X016468Y014304D02*
X015943Y014304D01*
X017430Y013221D02*
X018753Y013221D01*
X018756Y013231D02*
X018701Y013066D01*
X018841Y012787D01*
X018956Y012559D01*
X019070Y012330D01*
X019185Y012101D01*
X019299Y011872D01*
X019299Y011872D01*
X019414Y011643D01*
X019494Y011617D01*
X019512Y011581D01*
X019548Y011599D01*
X019548Y011599D01*
X019512Y011581D01*
X019552Y011501D01*
X019578Y011472D01*
X019579Y011471D01*
X019579Y011470D01*
X019587Y011431D01*
X019627Y011352D01*
X020013Y011545D01*
X019627Y011352D01*
X019660Y011285D01*
X019479Y011174D01*
X019452Y011146D01*
X019445Y011132D01*
X019338Y011158D01*
X019251Y011105D01*
X019151Y011238D01*
X019132Y011272D01*
X019117Y011284D01*
X019105Y011299D01*
X019072Y011319D01*
X019041Y011343D01*
X019022Y011348D01*
X019006Y011358D01*
X018967Y011363D01*
X018929Y011374D01*
X018911Y011371D01*
X018892Y011374D01*
X018854Y011364D01*
X018315Y011297D01*
X018310Y011294D01*
X018252Y011410D01*
X018172Y011437D01*
X018154Y011473D01*
X018136Y011509D01*
X018163Y011589D01*
X018023Y011868D01*
X017934Y012047D01*
X017794Y012326D01*
X017679Y012554D01*
X017514Y012609D01*
X016855Y012279D01*
X016839Y012230D01*
X016823Y012248D01*
X016823Y012853D01*
X019083Y014222D01*
X019083Y014189D01*
X019142Y014046D01*
X019251Y013937D01*
X019394Y013878D01*
X019449Y013878D01*
X019513Y013814D01*
X019513Y013529D01*
X019415Y013561D01*
X018756Y013231D01*
X018720Y013122D02*
X017268Y013122D01*
X017105Y013024D02*
X018723Y013024D01*
X018772Y012925D02*
X016943Y012925D01*
X016823Y012827D02*
X018821Y012827D01*
X018841Y012787D02*
X018841Y012787D01*
X018871Y012728D02*
X016823Y012728D01*
X016823Y012630D02*
X018920Y012630D01*
X018956Y012559D02*
X018956Y012559D01*
X018969Y012531D02*
X017691Y012531D01*
X017740Y012433D02*
X019019Y012433D01*
X019068Y012334D02*
X017790Y012334D01*
X017794Y012326D02*
X017794Y012326D01*
X017839Y012236D02*
X019117Y012236D01*
X019070Y012330D02*
X019070Y012330D01*
X019167Y012137D02*
X017888Y012137D01*
X017934Y012047D02*
X017934Y012047D01*
X017938Y012039D02*
X019216Y012039D01*
X019185Y012101D02*
X019185Y012101D01*
X019265Y011940D02*
X017987Y011940D01*
X018023Y011868D02*
X018023Y011868D01*
X018036Y011842D02*
X019315Y011842D01*
X019364Y011743D02*
X018086Y011743D01*
X018135Y011645D02*
X019413Y011645D01*
X019530Y011546D02*
X018149Y011546D01*
X018154Y011473D02*
X018118Y011455D01*
X018118Y011455D01*
X018118Y011455D01*
X018154Y011473D01*
X018166Y011448D02*
X019584Y011448D01*
X019628Y011349D02*
X019020Y011349D01*
X019144Y011251D02*
X019604Y011251D01*
X019459Y011152D02*
X019361Y011152D01*
X019329Y011152D02*
X019216Y011152D01*
X019818Y011448D02*
X019818Y011448D01*
X020013Y011545D02*
X020013Y011545D01*
X020013Y011545D01*
X019996Y011578D01*
X019995Y011580D01*
X019915Y011741D01*
X019915Y011741D01*
X019909Y011753D01*
X019996Y011578D01*
X020013Y011545D01*
X020012Y011546D02*
X020012Y011546D01*
X020015Y011546D02*
X020015Y011546D01*
X019996Y011578D02*
X019996Y011578D01*
X019963Y011645D02*
X019963Y011645D01*
X019914Y011743D02*
X019914Y011743D01*
X019909Y011753D02*
X019909Y011753D01*
X020212Y011645D02*
X020212Y011645D01*
X020413Y010955D02*
X021928Y010955D01*
X021829Y010857D02*
X020473Y010857D01*
X020488Y010758D02*
X021731Y010758D01*
X021408Y010660D02*
X020420Y010660D01*
X019117Y009970D02*
X017028Y009970D01*
X017722Y010069D02*
X019057Y010069D01*
X018996Y010167D02*
X017915Y010167D01*
X018108Y010266D02*
X018936Y010266D01*
X018875Y010364D02*
X018298Y010364D01*
X018474Y010463D02*
X018815Y010463D01*
X018755Y010561D02*
X018584Y010561D01*
X018616Y010660D02*
X018719Y010660D01*
X018743Y010758D02*
X018682Y010758D01*
X018734Y011349D02*
X018283Y011349D01*
X017359Y012531D02*
X016823Y012531D01*
X016823Y012433D02*
X017162Y012433D01*
X016965Y012334D02*
X016823Y012334D01*
X016834Y012236D02*
X016841Y012236D01*
X017593Y013319D02*
X018932Y013319D01*
X019129Y013418D02*
X017755Y013418D01*
X017918Y013516D02*
X019326Y013516D01*
X019513Y013615D02*
X018080Y013615D01*
X018243Y013713D02*
X019513Y013713D01*
X019513Y013812D02*
X018405Y013812D01*
X018568Y013910D02*
X019316Y013910D01*
X019179Y014009D02*
X018730Y014009D01*
X018893Y014107D02*
X019116Y014107D01*
X019083Y014206D02*
X019055Y014206D01*
X018749Y014698D02*
X018636Y014698D01*
X018636Y014630D02*
X018636Y016824D01*
X018592Y016930D01*
X018510Y017012D01*
X018303Y017219D01*
X018303Y019166D01*
X018436Y019034D01*
X018551Y018919D01*
X018702Y018856D01*
X022077Y018856D01*
X022228Y018919D01*
X022360Y019051D01*
X022475Y019166D01*
X022537Y019317D01*
X022537Y019651D01*
X022575Y019742D01*
X022575Y019920D01*
X022508Y020084D01*
X023039Y020084D01*
X023091Y020038D01*
X023091Y019310D01*
X023214Y019187D01*
X024388Y019187D01*
X024511Y019310D01*
X024511Y020316D01*
X024618Y020209D01*
X024618Y018284D01*
X024579Y018245D01*
X024520Y018103D01*
X024520Y017948D01*
X024579Y017806D01*
X024688Y017697D01*
X024831Y017637D01*
X024985Y017637D01*
X025128Y017697D01*
X025237Y017806D01*
X025296Y017948D01*
X025296Y018103D01*
X025237Y018245D01*
X025198Y018284D01*
X025198Y020386D01*
X025154Y020493D01*
X025145Y020502D01*
X025512Y020500D01*
X026428Y020058D01*
X026439Y017447D01*
X026436Y017396D01*
X026313Y017345D01*
X026274Y017306D01*
X026099Y017306D01*
X026136Y017396D01*
X026136Y019445D01*
X026175Y019484D01*
X026234Y019627D01*
X026234Y019781D01*
X026175Y019924D01*
X026066Y020033D01*
X025923Y020092D01*
X025769Y020092D01*
X025626Y020033D01*
X025517Y019924D01*
X025458Y019781D01*
X025458Y019627D01*
X025517Y019484D01*
X025556Y019445D01*
X025556Y017619D01*
X024511Y017619D01*
X024511Y018634D01*
X024388Y018757D01*
X023214Y018757D01*
X023091Y018634D01*
X023091Y018244D01*
X021017Y018244D01*
X021046Y018314D02*
X020987Y018171D01*
X020948Y018132D01*
X020948Y017654D01*
X021494Y018200D01*
X021601Y018244D01*
X023091Y018244D01*
X023091Y018343D02*
X021046Y018343D01*
X021046Y018314D02*
X021046Y018468D01*
X020987Y018611D01*
X020878Y018720D01*
X020735Y018779D01*
X020581Y018779D01*
X020438Y018720D01*
X020329Y018611D01*
X020270Y018468D01*
X020270Y018314D01*
X020329Y018171D01*
X020368Y018132D01*
X020368Y015680D01*
X018636Y014630D01*
X018636Y014797D02*
X018912Y014797D01*
X019074Y014895D02*
X018636Y014895D01*
X018636Y014994D02*
X019237Y014994D01*
X019399Y015092D02*
X018636Y015092D01*
X018636Y015191D02*
X019562Y015191D01*
X019724Y015289D02*
X018636Y015289D01*
X018636Y015388D02*
X019887Y015388D01*
X020049Y015486D02*
X018636Y015486D01*
X018636Y015585D02*
X020212Y015585D01*
X020368Y015683D02*
X018636Y015683D01*
X018636Y015782D02*
X020368Y015782D01*
X020368Y015880D02*
X018636Y015880D01*
X018636Y015979D02*
X020368Y015979D01*
X020368Y016077D02*
X018636Y016077D01*
X018636Y016176D02*
X020368Y016176D01*
X020368Y016274D02*
X018636Y016274D01*
X018636Y016373D02*
X020368Y016373D01*
X020368Y016471D02*
X018636Y016471D01*
X018636Y016570D02*
X020368Y016570D01*
X020368Y016668D02*
X018636Y016668D01*
X018636Y016767D02*
X020368Y016767D01*
X020368Y016865D02*
X018619Y016865D01*
X018558Y016964D02*
X020368Y016964D01*
X020368Y017062D02*
X018460Y017062D01*
X018361Y017161D02*
X020368Y017161D01*
X020368Y017259D02*
X018303Y017259D01*
X018303Y017358D02*
X020368Y017358D01*
X020368Y017456D02*
X018303Y017456D01*
X018303Y017555D02*
X020368Y017555D01*
X020368Y017653D02*
X018303Y017653D01*
X018303Y017752D02*
X020368Y017752D01*
X020368Y017850D02*
X018303Y017850D01*
X018303Y017949D02*
X020368Y017949D01*
X020368Y018047D02*
X018303Y018047D01*
X018303Y018146D02*
X020355Y018146D01*
X020299Y018244D02*
X018303Y018244D01*
X018303Y018343D02*
X020270Y018343D01*
X020270Y018441D02*
X018303Y018441D01*
X018303Y018540D02*
X020300Y018540D01*
X020356Y018638D02*
X018303Y018638D01*
X018303Y018737D02*
X020478Y018737D01*
X020838Y018737D02*
X023193Y018737D01*
X023095Y018638D02*
X020960Y018638D01*
X021017Y018540D02*
X023091Y018540D01*
X023091Y018441D02*
X021046Y018441D01*
X020962Y018146D02*
X021440Y018146D01*
X021342Y018047D02*
X020948Y018047D01*
X020948Y017949D02*
X021243Y017949D01*
X021145Y017850D02*
X020948Y017850D01*
X020948Y017752D02*
X021046Y017752D01*
X022243Y018934D02*
X024618Y018934D01*
X024618Y019032D02*
X022341Y019032D01*
X022440Y019131D02*
X024618Y019131D01*
X024618Y019229D02*
X024430Y019229D01*
X024511Y019328D02*
X024618Y019328D01*
X024618Y019426D02*
X024511Y019426D01*
X024511Y019525D02*
X024618Y019525D01*
X024618Y019623D02*
X024511Y019623D01*
X024511Y019722D02*
X024618Y019722D01*
X024618Y019820D02*
X024511Y019820D01*
X024511Y019919D02*
X024618Y019919D01*
X024618Y020017D02*
X024511Y020017D01*
X024511Y020116D02*
X024618Y020116D01*
X024613Y020214D02*
X024511Y020214D01*
X024511Y020313D02*
X024514Y020313D01*
X025188Y020411D02*
X025696Y020411D01*
X025900Y020313D02*
X025198Y020313D01*
X025198Y020214D02*
X026104Y020214D01*
X026081Y020017D02*
X026429Y020017D01*
X026429Y019919D02*
X026177Y019919D01*
X026218Y019820D02*
X026429Y019820D01*
X026430Y019722D02*
X026234Y019722D01*
X026232Y019623D02*
X026430Y019623D01*
X026431Y019525D02*
X026192Y019525D01*
X026136Y019426D02*
X026431Y019426D01*
X026431Y019328D02*
X026136Y019328D01*
X026136Y019229D02*
X026432Y019229D01*
X026432Y019131D02*
X026136Y019131D01*
X026136Y019032D02*
X026433Y019032D01*
X026433Y018934D02*
X026136Y018934D01*
X026136Y018835D02*
X026433Y018835D01*
X026434Y018737D02*
X026136Y018737D01*
X026136Y018638D02*
X026434Y018638D01*
X026435Y018540D02*
X026136Y018540D01*
X026136Y018441D02*
X026435Y018441D01*
X026435Y018343D02*
X026136Y018343D01*
X026136Y018244D02*
X026436Y018244D01*
X026436Y018146D02*
X026136Y018146D01*
X026136Y018047D02*
X026437Y018047D01*
X026437Y017949D02*
X026136Y017949D01*
X026136Y017850D02*
X026437Y017850D01*
X026438Y017752D02*
X026136Y017752D01*
X026136Y017653D02*
X026438Y017653D01*
X026439Y017555D02*
X026136Y017555D01*
X026136Y017456D02*
X026439Y017456D01*
X026344Y017358D02*
X026120Y017358D01*
X025556Y017653D02*
X025024Y017653D01*
X025183Y017752D02*
X025556Y017752D01*
X025556Y017850D02*
X025256Y017850D01*
X025296Y017949D02*
X025556Y017949D01*
X025556Y018047D02*
X025296Y018047D01*
X025279Y018146D02*
X025556Y018146D01*
X025556Y018244D02*
X025238Y018244D01*
X025198Y018343D02*
X025556Y018343D01*
X025556Y018441D02*
X025198Y018441D01*
X025198Y018540D02*
X025556Y018540D01*
X025556Y018638D02*
X025198Y018638D01*
X025198Y018737D02*
X025556Y018737D01*
X025556Y018835D02*
X025198Y018835D01*
X025198Y018934D02*
X025556Y018934D01*
X025556Y019032D02*
X025198Y019032D01*
X025198Y019131D02*
X025556Y019131D01*
X025556Y019229D02*
X025198Y019229D01*
X025198Y019328D02*
X025556Y019328D01*
X025556Y019426D02*
X025198Y019426D01*
X025198Y019525D02*
X025500Y019525D01*
X025459Y019623D02*
X025198Y019623D01*
X025198Y019722D02*
X025458Y019722D01*
X025474Y019820D02*
X025198Y019820D01*
X025198Y019919D02*
X025515Y019919D01*
X025610Y020017D02*
X025198Y020017D01*
X025198Y020116D02*
X026308Y020116D01*
X024618Y018835D02*
X018303Y018835D01*
X018303Y018934D02*
X018536Y018934D01*
X018437Y019032D02*
X018303Y019032D01*
X018303Y019131D02*
X018339Y019131D01*
X017755Y016964D02*
X017686Y016964D01*
X017587Y016865D02*
X017837Y016865D01*
X017935Y016767D02*
X017489Y016767D01*
X017390Y016668D02*
X018034Y016668D01*
X018056Y016570D02*
X017292Y016570D01*
X017193Y016471D02*
X018056Y016471D01*
X018056Y016373D02*
X017095Y016373D01*
X016996Y016274D02*
X018056Y016274D01*
X018056Y016176D02*
X016898Y016176D01*
X016799Y016077D02*
X018056Y016077D01*
X018056Y015979D02*
X016701Y015979D01*
X016602Y015880D02*
X018056Y015880D01*
X018056Y015782D02*
X016504Y015782D01*
X016405Y015683D02*
X018056Y015683D01*
X018056Y015585D02*
X016307Y015585D01*
X012408Y016964D02*
X011735Y016964D01*
X011782Y017062D02*
X012206Y017062D01*
X012108Y017161D02*
X011828Y017161D01*
X011875Y017259D02*
X012034Y017259D01*
X011993Y017358D02*
X011922Y017358D01*
X019116Y022283D02*
X026699Y022283D01*
X026699Y022381D02*
X019362Y022381D01*
X022535Y020017D02*
X023091Y020017D01*
X023091Y019919D02*
X022575Y019919D01*
X022575Y019820D02*
X023091Y019820D01*
X023091Y019722D02*
X022567Y019722D01*
X022537Y019623D02*
X023091Y019623D01*
X023091Y019525D02*
X022537Y019525D01*
X022537Y019426D02*
X023091Y019426D01*
X023091Y019328D02*
X022537Y019328D01*
X022501Y019229D02*
X023171Y019229D01*
X024408Y018737D02*
X024618Y018737D01*
X024618Y018638D02*
X024506Y018638D01*
X024511Y018540D02*
X024618Y018540D01*
X024618Y018441D02*
X024511Y018441D01*
X024511Y018343D02*
X024618Y018343D01*
X024579Y018244D02*
X024511Y018244D01*
X024511Y018146D02*
X024538Y018146D01*
X024520Y018047D02*
X024511Y018047D01*
X024511Y017949D02*
X024520Y017949D01*
X024511Y017850D02*
X024561Y017850D01*
X024511Y017752D02*
X024633Y017752D01*
X024511Y017653D02*
X024793Y017653D01*
X026833Y016767D02*
X027261Y016767D01*
X027061Y016865D02*
X026891Y016865D01*
X027204Y015880D02*
X030393Y015880D01*
X030343Y015782D02*
X027303Y015782D01*
X027401Y015683D02*
X030293Y015683D01*
X030243Y015585D02*
X027500Y015585D01*
X027594Y015486D02*
X030193Y015486D01*
X030143Y015388D02*
X027635Y015388D01*
X027636Y015289D02*
X030093Y015289D01*
X030043Y015191D02*
X027636Y015191D01*
X027636Y015092D02*
X029993Y015092D01*
X029944Y014994D02*
X027636Y014994D01*
X027636Y014895D02*
X029894Y014895D01*
X029844Y014797D02*
X027636Y014797D01*
X027630Y014698D02*
X029794Y014698D01*
X029744Y014600D02*
X027587Y014600D01*
X028921Y016018D02*
X028921Y016018D01*
X032903Y017850D02*
X033342Y017850D01*
X033293Y017752D02*
X033100Y017752D01*
X034056Y020510D02*
X034672Y020510D01*
X034721Y020608D02*
X034267Y020608D01*
X034366Y020707D02*
X034770Y020707D01*
X034820Y020805D02*
X034454Y020805D01*
X034494Y020904D02*
X034869Y020904D01*
X034918Y021002D02*
X034535Y021002D01*
X034553Y021101D02*
X034967Y021101D01*
X035017Y021199D02*
X034553Y021199D01*
X034553Y021298D02*
X035066Y021298D01*
X035115Y021396D02*
X034523Y021396D01*
X034482Y021495D02*
X035164Y021495D01*
X035214Y021593D02*
X034435Y021593D01*
X034337Y021692D02*
X035263Y021692D01*
X035312Y021790D02*
X034223Y021790D01*
X023051Y014895D02*
X023049Y014895D01*
X011766Y006818D02*
X011253Y006818D01*
X011253Y006720D02*
X011759Y006720D01*
X006874Y007606D02*
X005967Y007606D01*
X005918Y007508D02*
X006758Y007508D01*
X006717Y007409D02*
X005869Y007409D01*
X005819Y007311D02*
X006715Y007311D01*
X006715Y007212D02*
X005770Y007212D01*
X005720Y007114D02*
X006715Y007114D01*
X006715Y007015D02*
X005671Y007015D01*
X005621Y006917D02*
X006715Y006917D01*
X006715Y006818D02*
X005572Y006818D01*
X005523Y006720D02*
X006715Y006720D01*
X006715Y006621D02*
X005473Y006621D01*
X005424Y006523D02*
X006715Y006523D01*
X006715Y006424D02*
X005374Y006424D01*
X005325Y006326D02*
X006715Y006326D01*
X006715Y006227D02*
X005276Y006227D01*
X005226Y006129D02*
X006715Y006129D01*
X006711Y006030D02*
X006715Y006030D01*
X006073Y006030D02*
X005973Y006030D01*
X005973Y006118D02*
X005454Y006118D01*
X005415Y006108D01*
X005381Y006088D01*
X005353Y006060D01*
X005334Y006026D01*
X005323Y005988D01*
X005323Y005568D01*
X005973Y005568D01*
X005973Y006118D01*
X005973Y005932D02*
X006073Y005932D01*
X006073Y005833D02*
X005973Y005833D01*
X005973Y005735D02*
X006073Y005735D01*
X006073Y005636D02*
X005973Y005636D01*
X005973Y005538D02*
X004840Y005538D01*
X004840Y005439D02*
X005323Y005439D01*
X005323Y005341D02*
X004840Y005341D01*
X004840Y005242D02*
X005323Y005242D01*
X005323Y005144D02*
X004840Y005144D01*
X004933Y005636D02*
X005323Y005636D01*
X005323Y005735D02*
X005028Y005735D01*
X005078Y005833D02*
X005323Y005833D01*
X005323Y005932D02*
X005127Y005932D01*
X005177Y006030D02*
X005336Y006030D01*
X018899Y004356D02*
X020450Y004356D01*
X020388Y004257D02*
X018935Y004257D01*
X018935Y004159D02*
X020386Y004159D01*
X020386Y004060D02*
X018935Y004060D01*
X018935Y003962D02*
X020386Y003962D01*
X020386Y003863D02*
X018935Y003863D01*
X018935Y003765D02*
X020386Y003765D01*
X020386Y003666D02*
X018935Y003666D01*
X018935Y003568D02*
X020386Y003568D01*
X021038Y003568D02*
X021138Y003568D01*
X021138Y003666D02*
X021038Y003666D01*
X021038Y003765D02*
X021138Y003765D01*
X021138Y003863D02*
X021038Y003863D01*
X021038Y003962D02*
X021138Y003962D01*
X021138Y004060D02*
X021038Y004060D01*
X021038Y004159D02*
X021138Y004159D01*
X021138Y004257D02*
X021038Y004257D01*
X021038Y004356D02*
X021138Y004356D01*
X021138Y003272D02*
X021038Y003272D01*
X021038Y003174D02*
X021138Y003174D01*
X021138Y003075D02*
X021038Y003075D01*
X021038Y002977D02*
X021138Y002977D01*
X021138Y002878D02*
X021038Y002878D01*
X021038Y002780D02*
X021138Y002780D01*
X021138Y002681D02*
X021038Y002681D01*
D24*
X032686Y020502D03*
D25*
X022724Y003531D03*
D26*
X017166Y010641D02*
X017243Y010718D01*
X017883Y011051D01*
X017768Y011280D02*
X018346Y011579D01*
X018658Y011891D01*
X018408Y011016D02*
X017997Y010822D01*
X017243Y010718D02*
X017221Y010704D01*
X017166Y010641D01*
X016783Y011329D02*
X017539Y011737D01*
X017424Y011966D02*
X016908Y011704D01*
X019325Y012918D02*
X019783Y013141D01*
X019783Y013954D01*
X020596Y013704D02*
X020596Y013016D01*
X019554Y012460D01*
X019669Y012232D02*
X020971Y012954D01*
X020971Y014079D01*
X021346Y013516D02*
X021346Y012829D01*
X019784Y012003D01*
X019898Y011774D02*
X020013Y011545D01*
X019440Y012689D02*
X020158Y013079D01*
X020158Y014829D01*
D27*
X018658Y011891D03*
X008496Y005461D03*
D28*
X014549Y006167D03*
X015978Y007167D03*
X017121Y008424D03*
X017658Y008891D03*
X018573Y008183D03*
X019283Y008521D03*
X021658Y010361D03*
X021596Y011454D03*
X023223Y012299D03*
X023533Y014141D03*
X023283Y014579D03*
X022783Y015454D03*
X022408Y016329D03*
X021846Y017016D03*
X020658Y018391D03*
X020783Y020329D03*
X024908Y018026D03*
X026533Y017016D03*
X025033Y016141D03*
X023971Y016579D03*
X020783Y014391D03*
X020596Y013704D03*
X019471Y014266D03*
X015596Y011079D03*
X015033Y011079D03*
X016096Y010766D03*
X017221Y010704D03*
X014846Y009454D03*
X016362Y005542D03*
X020596Y005141D03*
X021056Y006176D03*
X023221Y005141D03*
X024681Y007098D03*
X023739Y010657D03*
X025971Y012016D03*
X025971Y012579D03*
X026846Y012516D03*
X026408Y011574D03*
X026096Y013766D03*
X027846Y014204D03*
X025846Y019704D03*
X026999Y020672D03*
D29*
X028029Y018251D03*
X028226Y017464D03*
X026353Y014609D03*
X013158Y005065D03*
X009565Y008369D03*
X008856Y008093D03*
X008187Y008330D03*
X012818Y015368D03*
D30*
X017533Y015891D03*
X018869Y015891D03*
X020158Y017454D03*
X022678Y018635D03*
X011221Y010891D03*
X011221Y008516D03*
X012221Y008454D03*
X018547Y009000D03*
D31*
X015533Y011579D02*
X013783Y011579D01*
X013158Y010954D01*
X013158Y008454D01*
X013221Y008391D01*
X013221Y006667D01*
X013265Y006746D01*
X013226Y006627D01*
X013226Y006086D01*
X013149Y005890D01*
X012334Y005890D01*
X012334Y005220D02*
X009054Y005220D01*
X006023Y003907D02*
X006100Y003669D01*
X006100Y002936D01*
X006334Y002702D01*
X012399Y002702D01*
X012399Y002936D01*
X012334Y003002D01*
X012334Y003880D01*
X013147Y004550D02*
X013895Y003802D01*
X016021Y003802D01*
X016339Y003485D01*
X018174Y003485D01*
X014348Y002503D02*
X014149Y002702D01*
X012399Y002702D01*
X012221Y008454D02*
X013158Y008454D01*
X011221Y008516D02*
X011221Y010891D01*
X015533Y011579D02*
X015533Y015391D01*
X017408Y017266D01*
X017408Y020079D01*
X017846Y020516D01*
X018408Y020516D01*
X018596Y020329D01*
X018596Y019840D01*
X018604Y019831D01*
X018604Y019832D01*
X018604Y019831D02*
X018596Y019823D01*
X018596Y019454D01*
X018783Y019266D01*
X019811Y019266D01*
X019785Y019292D01*
X019785Y019831D01*
X019811Y019266D02*
X020945Y019266D01*
X020946Y019268D01*
X020946Y019831D01*
X020945Y019266D02*
X021995Y019266D01*
X022127Y019398D01*
X022127Y019831D01*
X022127Y019831D01*
X031172Y017815D02*
X031308Y016781D01*
X027395Y009054D01*
X027471Y009016D01*
X025096Y004141D01*
X023158Y004141D01*
X021971Y005329D01*
X021971Y006016D01*
X026495Y008938D02*
X026574Y009016D01*
X027471Y009016D01*
D32*
X009054Y005220D02*
X008241Y005205D01*
X008496Y005461D01*
D33*
X018604Y019831D02*
X018563Y019952D01*
D34*
X021537Y019831D02*
X021533Y020204D01*
X021783Y020454D01*
X023181Y020454D01*
X023801Y019897D01*
X015971Y011579D02*
X015533Y011579D01*
X015971Y011579D02*
X016658Y010891D01*
X016658Y010141D01*
X016658Y009166D01*
X016958Y008866D01*
X017633Y008866D01*
X017658Y008891D01*
X021343Y006746D02*
X013265Y006746D01*
X013158Y005065D02*
X013147Y005055D01*
X013147Y004550D01*
X012951Y004550D01*
X012334Y004550D01*
X021343Y006746D02*
X021971Y006016D01*
D35*
X028817Y017109D03*
M02*
