%
M48
M72
T01C0.0236
T02C0.0276
T03C0.0315
T04C0.0394
T05C0.0400
T06C0.0472
T07C0.0512
T08C0.0630
T09C0.0866
T10C0.0984
%
T01
X21579Y10870
X16767Y7995
X24603Y6827
X17579Y8620
X19392Y13995
X20579Y18120
X24892Y17557
X25517Y10557
X24892Y15182
X19454Y20307
X23767Y11432
X22267Y16057
X26142Y10932
X15517Y10807
X21579Y9932
X23454Y13870
X20517Y14057
X26017Y16370
X20517Y5932
X27329Y13932
X21579Y16807
X26642Y16807
X22704Y15182
X23204Y14307
X20517Y13432
X17142Y10432
X14392Y10432
X25642Y11745
X25267Y12745
X14767Y9182
T02
X17935Y19560
X18525Y19560
X19116Y19560
X19706Y19560
X20277Y19560
X20868Y19560
X21458Y19560
X22049Y19560
T03
X17454Y15620
X18829Y15620
X20079Y17182
X19017Y8682
T04
X26392Y14495
X13329Y15057
X12079Y7557
X14892Y6057
X22642Y4932
X27142Y20495
X27704Y17745
X27142Y19370
T05
X26417Y8666
X25963Y7775
X25509Y6884
X25055Y5993
X24601Y5102
T06
X18579Y11620
X8782Y7765
X9579Y7495
X8017Y8057
T07
X22645Y3260
T08
X32608Y20231
X15009Y3594
T09
X16746Y14581
X20498Y8510
T10
X3473Y2181
X33772Y20913
X12892Y20808
X24342Y2278
M30
