G75*
%MOIN*%
%OFA0B0*%
%FSLAX24Y24*%
%IPPOS*%
%LPD*%
%AMOC8*
5,1,8,0,0,1.08239X$1,22.5*
%
%ADD10C,0.0000*%
%ADD11C,0.1024*%
%ADD12R,0.0603X0.0178*%
%ADD13R,0.0552X0.0670*%
%ADD14R,0.0276X0.0906*%
%ADD15R,0.1615X0.1024*%
%ADD16R,0.1024X0.1615*%
%ADD17R,0.0257X0.0512*%
%ADD18C,0.0516*%
%ADD19R,0.4138X0.4292*%
%ADD20R,0.0890X0.0460*%
%ADD21R,0.1142X0.1536*%
%ADD22C,0.0594*%
%ADD23C,0.0780*%
%ADD24R,0.1040X0.1040*%
%ADD25R,0.0552X0.0631*%
%ADD26R,0.0850X0.0280*%
D10*
X001464Y000942D02*
X003925Y005873D01*
X004132Y005942D01*
X005549Y008777D01*
X004663Y009219D01*
X008019Y015942D01*
X009141Y016296D01*
X012065Y022152D01*
X018610Y022152D01*
X019417Y022950D01*
X026966Y022950D01*
X026966Y022074D01*
X029978Y022074D01*
X030145Y022152D01*
X035785Y022152D01*
X033315Y017212D01*
X033147Y017133D01*
X031730Y014308D01*
X032586Y013885D01*
X029230Y007172D01*
X028236Y007064D01*
X025175Y000942D01*
X001464Y000942D01*
X003043Y002228D02*
X003045Y002272D01*
X003051Y002316D01*
X003061Y002359D01*
X003074Y002401D01*
X003092Y002441D01*
X003113Y002480D01*
X003137Y002517D01*
X003164Y002552D01*
X003195Y002584D01*
X003228Y002613D01*
X003264Y002639D01*
X003302Y002661D01*
X003342Y002680D01*
X003383Y002696D01*
X003426Y002708D01*
X003469Y002716D01*
X003513Y002720D01*
X003557Y002720D01*
X003601Y002716D01*
X003644Y002708D01*
X003687Y002696D01*
X003728Y002680D01*
X003768Y002661D01*
X003806Y002639D01*
X003842Y002613D01*
X003875Y002584D01*
X003906Y002552D01*
X003933Y002517D01*
X003957Y002480D01*
X003978Y002441D01*
X003996Y002401D01*
X004009Y002359D01*
X004019Y002316D01*
X004025Y002272D01*
X004027Y002228D01*
X004025Y002184D01*
X004019Y002140D01*
X004009Y002097D01*
X003996Y002055D01*
X003978Y002015D01*
X003957Y001976D01*
X003933Y001939D01*
X003906Y001904D01*
X003875Y001872D01*
X003842Y001843D01*
X003806Y001817D01*
X003768Y001795D01*
X003728Y001776D01*
X003687Y001760D01*
X003644Y001748D01*
X003601Y001740D01*
X003557Y001736D01*
X003513Y001736D01*
X003469Y001740D01*
X003426Y001748D01*
X003383Y001760D01*
X003342Y001776D01*
X003302Y001795D01*
X003264Y001817D01*
X003228Y001843D01*
X003195Y001872D01*
X003164Y001904D01*
X003137Y001939D01*
X003113Y001976D01*
X003092Y002015D01*
X003074Y002055D01*
X003061Y002097D01*
X003051Y002140D01*
X003045Y002184D01*
X003043Y002228D01*
X023864Y002345D02*
X023866Y002389D01*
X023872Y002433D01*
X023882Y002476D01*
X023895Y002518D01*
X023913Y002558D01*
X023934Y002597D01*
X023958Y002634D01*
X023985Y002669D01*
X024016Y002701D01*
X024049Y002730D01*
X024085Y002756D01*
X024123Y002778D01*
X024163Y002797D01*
X024204Y002813D01*
X024247Y002825D01*
X024290Y002833D01*
X024334Y002837D01*
X024378Y002837D01*
X024422Y002833D01*
X024465Y002825D01*
X024508Y002813D01*
X024549Y002797D01*
X024589Y002778D01*
X024627Y002756D01*
X024663Y002730D01*
X024696Y002701D01*
X024727Y002669D01*
X024754Y002634D01*
X024778Y002597D01*
X024799Y002558D01*
X024817Y002518D01*
X024830Y002476D01*
X024840Y002433D01*
X024846Y002389D01*
X024848Y002345D01*
X024846Y002301D01*
X024840Y002257D01*
X024830Y002214D01*
X024817Y002172D01*
X024799Y002132D01*
X024778Y002093D01*
X024754Y002056D01*
X024727Y002021D01*
X024696Y001989D01*
X024663Y001960D01*
X024627Y001934D01*
X024589Y001912D01*
X024549Y001893D01*
X024508Y001877D01*
X024465Y001865D01*
X024422Y001857D01*
X024378Y001853D01*
X024334Y001853D01*
X024290Y001857D01*
X024247Y001865D01*
X024204Y001877D01*
X024163Y001893D01*
X024123Y001912D01*
X024085Y001934D01*
X024049Y001960D01*
X024016Y001989D01*
X023985Y002021D01*
X023958Y002056D01*
X023934Y002093D01*
X023913Y002132D01*
X023895Y002172D01*
X023882Y002214D01*
X023872Y002257D01*
X023866Y002301D01*
X023864Y002345D01*
X012412Y020766D02*
X012414Y020810D01*
X012420Y020854D01*
X012430Y020897D01*
X012443Y020939D01*
X012461Y020979D01*
X012482Y021018D01*
X012506Y021055D01*
X012533Y021090D01*
X012564Y021122D01*
X012597Y021151D01*
X012633Y021177D01*
X012671Y021199D01*
X012711Y021218D01*
X012752Y021234D01*
X012795Y021246D01*
X012838Y021254D01*
X012882Y021258D01*
X012926Y021258D01*
X012970Y021254D01*
X013013Y021246D01*
X013056Y021234D01*
X013097Y021218D01*
X013137Y021199D01*
X013175Y021177D01*
X013211Y021151D01*
X013244Y021122D01*
X013275Y021090D01*
X013302Y021055D01*
X013326Y021018D01*
X013347Y020979D01*
X013365Y020939D01*
X013378Y020897D01*
X013388Y020854D01*
X013394Y020810D01*
X013396Y020766D01*
X013394Y020722D01*
X013388Y020678D01*
X013378Y020635D01*
X013365Y020593D01*
X013347Y020553D01*
X013326Y020514D01*
X013302Y020477D01*
X013275Y020442D01*
X013244Y020410D01*
X013211Y020381D01*
X013175Y020355D01*
X013137Y020333D01*
X013097Y020314D01*
X013056Y020298D01*
X013013Y020286D01*
X012970Y020278D01*
X012926Y020274D01*
X012882Y020274D01*
X012838Y020278D01*
X012795Y020286D01*
X012752Y020298D01*
X012711Y020314D01*
X012671Y020333D01*
X012633Y020355D01*
X012597Y020381D01*
X012564Y020410D01*
X012533Y020442D01*
X012506Y020477D01*
X012482Y020514D01*
X012461Y020553D01*
X012443Y020593D01*
X012430Y020635D01*
X012420Y020678D01*
X012414Y020722D01*
X012412Y020766D01*
X033282Y020898D02*
X033284Y020942D01*
X033290Y020986D01*
X033300Y021029D01*
X033313Y021071D01*
X033331Y021111D01*
X033352Y021150D01*
X033376Y021187D01*
X033403Y021222D01*
X033434Y021254D01*
X033467Y021283D01*
X033503Y021309D01*
X033541Y021331D01*
X033581Y021350D01*
X033622Y021366D01*
X033665Y021378D01*
X033708Y021386D01*
X033752Y021390D01*
X033796Y021390D01*
X033840Y021386D01*
X033883Y021378D01*
X033926Y021366D01*
X033967Y021350D01*
X034007Y021331D01*
X034045Y021309D01*
X034081Y021283D01*
X034114Y021254D01*
X034145Y021222D01*
X034172Y021187D01*
X034196Y021150D01*
X034217Y021111D01*
X034235Y021071D01*
X034248Y021029D01*
X034258Y020986D01*
X034264Y020942D01*
X034266Y020898D01*
X034264Y020854D01*
X034258Y020810D01*
X034248Y020767D01*
X034235Y020725D01*
X034217Y020685D01*
X034196Y020646D01*
X034172Y020609D01*
X034145Y020574D01*
X034114Y020542D01*
X034081Y020513D01*
X034045Y020487D01*
X034007Y020465D01*
X033967Y020446D01*
X033926Y020430D01*
X033883Y020418D01*
X033840Y020410D01*
X033796Y020406D01*
X033752Y020406D01*
X033708Y020410D01*
X033665Y020418D01*
X033622Y020430D01*
X033581Y020446D01*
X033541Y020465D01*
X033503Y020487D01*
X033467Y020513D01*
X033434Y020542D01*
X033403Y020574D01*
X033376Y020609D01*
X033352Y020646D01*
X033331Y020685D01*
X033313Y020725D01*
X033300Y020767D01*
X033290Y020810D01*
X033284Y020854D01*
X033282Y020898D01*
D11*
X033774Y020898D03*
X012904Y020766D03*
X003535Y002228D03*
X024356Y002345D03*
D12*
G36*
X017725Y010266D02*
X018262Y010535D01*
X018341Y010376D01*
X017804Y010107D01*
X017725Y010266D01*
G37*
G36*
X017611Y010495D02*
X018148Y010764D01*
X018227Y010605D01*
X017690Y010336D01*
X017611Y010495D01*
G37*
G36*
X017496Y010724D02*
X018033Y010993D01*
X018112Y010834D01*
X017575Y010565D01*
X017496Y010724D01*
G37*
G36*
X017381Y010953D02*
X017918Y011222D01*
X017997Y011063D01*
X017460Y010794D01*
X017381Y010953D01*
G37*
G36*
X017267Y011182D02*
X017804Y011451D01*
X017883Y011292D01*
X017346Y011023D01*
X017267Y011182D01*
G37*
G36*
X017152Y011411D02*
X017689Y011680D01*
X017768Y011521D01*
X017231Y011252D01*
X017152Y011411D01*
G37*
G36*
X017038Y011639D02*
X017575Y011908D01*
X017654Y011749D01*
X017117Y011480D01*
X017038Y011639D01*
G37*
G36*
X016923Y011868D02*
X017460Y012137D01*
X017539Y011978D01*
X017002Y011709D01*
X016923Y011868D01*
G37*
G36*
X018824Y012820D02*
X019361Y013089D01*
X019440Y012930D01*
X018903Y012661D01*
X018824Y012820D01*
G37*
G36*
X018939Y012591D02*
X019476Y012860D01*
X019555Y012701D01*
X019018Y012432D01*
X018939Y012591D01*
G37*
G36*
X019053Y012363D02*
X019590Y012632D01*
X019669Y012473D01*
X019132Y012204D01*
X019053Y012363D01*
G37*
G36*
X019168Y012134D02*
X019705Y012403D01*
X019784Y012244D01*
X019247Y011975D01*
X019168Y012134D01*
G37*
G36*
X019282Y011905D02*
X019819Y012174D01*
X019898Y012015D01*
X019361Y011746D01*
X019282Y011905D01*
G37*
G36*
X019397Y011676D02*
X019934Y011945D01*
X020013Y011786D01*
X019476Y011517D01*
X019397Y011676D01*
G37*
G36*
X019511Y011447D02*
X020048Y011716D01*
X020127Y011557D01*
X019590Y011288D01*
X019511Y011447D01*
G37*
G36*
X019626Y011218D02*
X020163Y011487D01*
X020242Y011328D01*
X019705Y011059D01*
X019626Y011218D01*
G37*
D13*
G36*
X018964Y009350D02*
X018676Y009820D01*
X019246Y010170D01*
X019534Y009700D01*
X018964Y009350D01*
G37*
G36*
X019355Y008712D02*
X019067Y009182D01*
X019637Y009532D01*
X019925Y009062D01*
X019355Y008712D01*
G37*
D14*
G36*
X023058Y012769D02*
X023202Y012534D01*
X022430Y012061D01*
X022286Y012296D01*
X023058Y012769D01*
G37*
G36*
X022796Y013195D02*
X022940Y012960D01*
X022168Y012487D01*
X022024Y012722D01*
X022796Y013195D01*
G37*
G36*
X022535Y013621D02*
X022679Y013386D01*
X021907Y012913D01*
X021763Y013148D01*
X022535Y013621D01*
G37*
G36*
X022274Y014048D02*
X022418Y013813D01*
X021646Y013340D01*
X021502Y013575D01*
X022274Y014048D01*
G37*
G36*
X022013Y014474D02*
X022157Y014239D01*
X021385Y013766D01*
X021241Y014001D01*
X022013Y014474D01*
G37*
G36*
X021751Y014900D02*
X021895Y014665D01*
X021123Y014192D01*
X020979Y014427D01*
X021751Y014900D01*
G37*
G36*
X021490Y015326D02*
X021634Y015091D01*
X020862Y014618D01*
X020718Y014853D01*
X021490Y015326D01*
G37*
G36*
X021229Y015753D02*
X021373Y015518D01*
X020601Y015045D01*
X020457Y015280D01*
X021229Y015753D01*
G37*
G36*
X022975Y016822D02*
X023119Y016587D01*
X022347Y016114D01*
X022203Y016349D01*
X022975Y016822D01*
G37*
G36*
X023236Y016396D02*
X023380Y016161D01*
X022608Y015688D01*
X022464Y015923D01*
X023236Y016396D01*
G37*
G36*
X023497Y015970D02*
X023641Y015735D01*
X022869Y015262D01*
X022725Y015497D01*
X023497Y015970D01*
G37*
G36*
X023758Y015544D02*
X023902Y015309D01*
X023130Y014836D01*
X022986Y015071D01*
X023758Y015544D01*
G37*
G36*
X024020Y015117D02*
X024164Y014882D01*
X023392Y014409D01*
X023248Y014644D01*
X024020Y015117D01*
G37*
G36*
X024281Y014691D02*
X024425Y014456D01*
X023653Y013983D01*
X023509Y014218D01*
X024281Y014691D01*
G37*
G36*
X024542Y014265D02*
X024686Y014030D01*
X023914Y013557D01*
X023770Y013792D01*
X024542Y014265D01*
G37*
G36*
X024803Y013838D02*
X024947Y013603D01*
X024175Y013130D01*
X024031Y013365D01*
X024803Y013838D01*
G37*
D15*
G36*
X031182Y016420D02*
X030338Y017795D01*
X031210Y018330D01*
X032054Y016955D01*
X031182Y016420D01*
G37*
G36*
X029536Y019106D02*
X028692Y020481D01*
X029564Y021016D01*
X030408Y019641D01*
X029536Y019106D01*
G37*
D16*
X013281Y005063D03*
X013281Y001913D03*
D17*
G36*
X015654Y008686D02*
X015872Y008820D01*
X016138Y008384D01*
X015920Y008250D01*
X015654Y008686D01*
G37*
G36*
X016291Y009077D02*
X016509Y009211D01*
X016775Y008775D01*
X016557Y008641D01*
X016291Y009077D01*
G37*
G36*
X015438Y009754D02*
X015656Y009888D01*
X015922Y009452D01*
X015704Y009318D01*
X015438Y009754D01*
G37*
G36*
X015119Y009559D02*
X015337Y009693D01*
X015603Y009257D01*
X015385Y009123D01*
X015119Y009559D01*
G37*
G36*
X015757Y009950D02*
X015975Y010084D01*
X016241Y009648D01*
X016023Y009514D01*
X015757Y009950D01*
G37*
D18*
X018247Y019596D03*
X018838Y019596D03*
X019428Y019596D03*
X020019Y019596D03*
X020590Y019596D03*
X021180Y019596D03*
X021771Y019596D03*
X022361Y019596D03*
D19*
X007530Y004245D03*
D20*
X010810Y004245D03*
X010810Y004915D03*
X010810Y005585D03*
X010810Y003575D03*
X010810Y002905D03*
D21*
X011724Y007818D03*
X008810Y007818D03*
D22*
X009373Y009633D03*
X008672Y009991D03*
X009029Y010692D03*
X009731Y010335D03*
X010088Y011036D03*
X009387Y011394D03*
X009744Y012095D03*
X010446Y011738D03*
X010803Y012439D03*
X010102Y012797D03*
X010459Y013499D03*
X011161Y013141D03*
X026855Y011515D03*
X027557Y011158D03*
X027914Y011859D03*
X027212Y012217D03*
X027570Y012918D03*
X028272Y012561D03*
X028629Y013262D03*
X027927Y013620D03*
X028285Y014322D03*
X028986Y013964D03*
X029344Y014666D03*
X028642Y015023D03*
D23*
X026519Y008040D03*
X026065Y007149D03*
X025611Y006258D03*
X025157Y005367D03*
X024703Y004476D03*
D24*
X023722Y017713D03*
X023722Y019563D03*
D25*
G36*
X023160Y011480D02*
X022668Y011727D01*
X022950Y012290D01*
X023442Y012043D01*
X023160Y011480D01*
G37*
G36*
X023829Y011145D02*
X023337Y011392D01*
X023619Y011955D01*
X024111Y011708D01*
X023829Y011145D01*
G37*
G36*
X018566Y008302D02*
X018319Y008794D01*
X018882Y009076D01*
X019129Y008584D01*
X018566Y008302D01*
G37*
G36*
X018231Y008971D02*
X017984Y009463D01*
X018547Y009745D01*
X018794Y009253D01*
X018231Y008971D01*
G37*
D26*
G36*
X022409Y008165D02*
X023168Y007785D01*
X023043Y007535D01*
X022284Y007915D01*
X022409Y008165D01*
G37*
G36*
X022633Y008612D02*
X023392Y008232D01*
X023267Y007982D01*
X022508Y008362D01*
X022633Y008612D01*
G37*
G36*
X022857Y009059D02*
X023616Y008679D01*
X023491Y008429D01*
X022732Y008809D01*
X022857Y009059D01*
G37*
G36*
X023081Y009506D02*
X023840Y009126D01*
X023715Y008876D01*
X022956Y009256D01*
X023081Y009506D01*
G37*
G36*
X023305Y009953D02*
X024064Y009573D01*
X023939Y009323D01*
X023180Y009703D01*
X023305Y009953D01*
G37*
G36*
X023528Y010401D02*
X024287Y010021D01*
X024162Y009771D01*
X023403Y010151D01*
X023528Y010401D01*
G37*
G36*
X023752Y010848D02*
X024511Y010468D01*
X024386Y010218D01*
X023627Y010598D01*
X023752Y010848D01*
G37*
G36*
X023976Y011295D02*
X024735Y010915D01*
X024610Y010665D01*
X023851Y011045D01*
X023976Y011295D01*
G37*
G36*
X025666Y010448D02*
X026425Y010068D01*
X026300Y009818D01*
X025541Y010198D01*
X025666Y010448D01*
G37*
G36*
X025442Y010001D02*
X026201Y009621D01*
X026076Y009371D01*
X025317Y009751D01*
X025442Y010001D01*
G37*
G36*
X025218Y009554D02*
X025977Y009174D01*
X025852Y008924D01*
X025093Y009304D01*
X025218Y009554D01*
G37*
G36*
X024995Y009107D02*
X025754Y008727D01*
X025629Y008477D01*
X024870Y008857D01*
X024995Y009107D01*
G37*
G36*
X024771Y008660D02*
X025530Y008280D01*
X025405Y008030D01*
X024646Y008410D01*
X024771Y008660D01*
G37*
G36*
X024547Y008213D02*
X025306Y007833D01*
X025181Y007583D01*
X024422Y007963D01*
X024547Y008213D01*
G37*
G36*
X024323Y007766D02*
X025082Y007386D01*
X024957Y007136D01*
X024198Y007516D01*
X024323Y007766D01*
G37*
G36*
X024099Y007319D02*
X024858Y006939D01*
X024733Y006689D01*
X023974Y007069D01*
X024099Y007319D01*
G37*
M02*
