G75*
%MOIN*%
%OFA0B0*%
%FSLAX24Y24*%
%IPPOS*%
%LPD*%
%AMOC8*
5,1,8,0,0,1.08239X$1,22.5*
%
%ADD10C,0.0000*%
%ADD11R,0.0875X0.0875*%
%ADD12R,0.0563X0.0138*%
%ADD13R,0.0512X0.0630*%
%ADD14R,0.1181X0.0984*%
%ADD15R,0.0984X0.1181*%
%ADD16R,0.4098X0.4252*%
%ADD17R,0.0850X0.0420*%
%ADD18R,0.1102X0.1496*%
%ADD19R,0.1000X0.1000*%
D10*
X001464Y001214D02*
X006978Y001214D01*
X007083Y001332D01*
X007084Y001992D01*
X010297Y001990D01*
X010291Y000897D01*
X017774Y000897D01*
X018329Y001214D01*
X025175Y001214D01*
X028236Y007336D01*
X028767Y007690D01*
X032134Y014373D01*
X031140Y014865D01*
X032577Y017739D01*
X033167Y017444D01*
X033315Y017483D01*
X035785Y022424D01*
X030024Y022423D01*
X030024Y022424D02*
X030024Y021647D01*
X026911Y021647D01*
X026911Y022739D01*
X019397Y022739D01*
X018610Y022424D01*
X012065Y022424D01*
X009141Y016568D01*
X008482Y015977D01*
X005126Y009265D01*
X006140Y008753D01*
X004703Y005889D01*
X004112Y006184D01*
X003925Y006145D01*
X001464Y001214D01*
X002981Y002453D02*
X002983Y002497D01*
X002989Y002541D01*
X002999Y002584D01*
X003012Y002626D01*
X003030Y002666D01*
X003051Y002705D01*
X003075Y002742D01*
X003102Y002777D01*
X003133Y002809D01*
X003166Y002838D01*
X003202Y002864D01*
X003240Y002886D01*
X003280Y002905D01*
X003321Y002921D01*
X003364Y002933D01*
X003407Y002941D01*
X003451Y002945D01*
X003495Y002945D01*
X003539Y002941D01*
X003582Y002933D01*
X003625Y002921D01*
X003666Y002905D01*
X003706Y002886D01*
X003744Y002864D01*
X003780Y002838D01*
X003813Y002809D01*
X003844Y002777D01*
X003871Y002742D01*
X003895Y002705D01*
X003916Y002666D01*
X003934Y002626D01*
X003947Y002584D01*
X003957Y002541D01*
X003963Y002497D01*
X003965Y002453D01*
X003963Y002409D01*
X003957Y002365D01*
X003947Y002322D01*
X003934Y002280D01*
X003916Y002240D01*
X003895Y002201D01*
X003871Y002164D01*
X003844Y002129D01*
X003813Y002097D01*
X003780Y002068D01*
X003744Y002042D01*
X003706Y002020D01*
X003666Y002001D01*
X003625Y001985D01*
X003582Y001973D01*
X003539Y001965D01*
X003495Y001961D01*
X003451Y001961D01*
X003407Y001965D01*
X003364Y001973D01*
X003321Y001985D01*
X003280Y002001D01*
X003240Y002020D01*
X003202Y002042D01*
X003166Y002068D01*
X003133Y002097D01*
X003102Y002129D01*
X003075Y002164D01*
X003051Y002201D01*
X003030Y002240D01*
X003012Y002280D01*
X002999Y002322D01*
X002989Y002365D01*
X002983Y002409D01*
X002981Y002453D01*
X016313Y014853D02*
X016315Y014894D01*
X016321Y014935D01*
X016331Y014975D01*
X016344Y015014D01*
X016361Y015051D01*
X016382Y015087D01*
X016406Y015121D01*
X016433Y015152D01*
X016462Y015180D01*
X016495Y015206D01*
X016529Y015228D01*
X016566Y015247D01*
X016604Y015262D01*
X016644Y015274D01*
X016684Y015282D01*
X016725Y015286D01*
X016767Y015286D01*
X016808Y015282D01*
X016848Y015274D01*
X016888Y015262D01*
X016926Y015247D01*
X016962Y015228D01*
X016997Y015206D01*
X017030Y015180D01*
X017059Y015152D01*
X017086Y015121D01*
X017110Y015087D01*
X017131Y015051D01*
X017148Y015014D01*
X017161Y014975D01*
X017171Y014935D01*
X017177Y014894D01*
X017179Y014853D01*
X017177Y014812D01*
X017171Y014771D01*
X017161Y014731D01*
X017148Y014692D01*
X017131Y014655D01*
X017110Y014619D01*
X017086Y014585D01*
X017059Y014554D01*
X017030Y014526D01*
X016997Y014500D01*
X016963Y014478D01*
X016926Y014459D01*
X016888Y014444D01*
X016848Y014432D01*
X016808Y014424D01*
X016767Y014420D01*
X016725Y014420D01*
X016684Y014424D01*
X016644Y014432D01*
X016604Y014444D01*
X016566Y014459D01*
X016530Y014478D01*
X016495Y014500D01*
X016462Y014526D01*
X016433Y014554D01*
X016406Y014585D01*
X016382Y014619D01*
X016361Y014655D01*
X016344Y014692D01*
X016331Y014731D01*
X016321Y014771D01*
X016315Y014812D01*
X016313Y014853D01*
X012400Y021079D02*
X012402Y021123D01*
X012408Y021167D01*
X012418Y021210D01*
X012431Y021252D01*
X012449Y021292D01*
X012470Y021331D01*
X012494Y021368D01*
X012521Y021403D01*
X012552Y021435D01*
X012585Y021464D01*
X012621Y021490D01*
X012659Y021512D01*
X012699Y021531D01*
X012740Y021547D01*
X012783Y021559D01*
X012826Y021567D01*
X012870Y021571D01*
X012914Y021571D01*
X012958Y021567D01*
X013001Y021559D01*
X013044Y021547D01*
X013085Y021531D01*
X013125Y021512D01*
X013163Y021490D01*
X013199Y021464D01*
X013232Y021435D01*
X013263Y021403D01*
X013290Y021368D01*
X013314Y021331D01*
X013335Y021292D01*
X013353Y021252D01*
X013366Y021210D01*
X013376Y021167D01*
X013382Y021123D01*
X013384Y021079D01*
X013382Y021035D01*
X013376Y020991D01*
X013366Y020948D01*
X013353Y020906D01*
X013335Y020866D01*
X013314Y020827D01*
X013290Y020790D01*
X013263Y020755D01*
X013232Y020723D01*
X013199Y020694D01*
X013163Y020668D01*
X013125Y020646D01*
X013085Y020627D01*
X013044Y020611D01*
X013001Y020599D01*
X012958Y020591D01*
X012914Y020587D01*
X012870Y020587D01*
X012826Y020591D01*
X012783Y020599D01*
X012740Y020611D01*
X012699Y020627D01*
X012659Y020646D01*
X012621Y020668D01*
X012585Y020694D01*
X012552Y020723D01*
X012521Y020755D01*
X012494Y020790D01*
X012470Y020827D01*
X012449Y020866D01*
X012431Y020906D01*
X012418Y020948D01*
X012408Y020991D01*
X012402Y021035D01*
X012400Y021079D01*
X020065Y008781D02*
X020067Y008822D01*
X020073Y008863D01*
X020083Y008903D01*
X020096Y008942D01*
X020113Y008979D01*
X020134Y009015D01*
X020158Y009049D01*
X020185Y009080D01*
X020214Y009108D01*
X020247Y009134D01*
X020281Y009156D01*
X020318Y009175D01*
X020356Y009190D01*
X020396Y009202D01*
X020436Y009210D01*
X020477Y009214D01*
X020519Y009214D01*
X020560Y009210D01*
X020600Y009202D01*
X020640Y009190D01*
X020678Y009175D01*
X020714Y009156D01*
X020749Y009134D01*
X020782Y009108D01*
X020811Y009080D01*
X020838Y009049D01*
X020862Y009015D01*
X020883Y008979D01*
X020900Y008942D01*
X020913Y008903D01*
X020923Y008863D01*
X020929Y008822D01*
X020931Y008781D01*
X020929Y008740D01*
X020923Y008699D01*
X020913Y008659D01*
X020900Y008620D01*
X020883Y008583D01*
X020862Y008547D01*
X020838Y008513D01*
X020811Y008482D01*
X020782Y008454D01*
X020749Y008428D01*
X020715Y008406D01*
X020678Y008387D01*
X020640Y008372D01*
X020600Y008360D01*
X020560Y008352D01*
X020519Y008348D01*
X020477Y008348D01*
X020436Y008352D01*
X020396Y008360D01*
X020356Y008372D01*
X020318Y008387D01*
X020282Y008406D01*
X020247Y008428D01*
X020214Y008454D01*
X020185Y008482D01*
X020158Y008513D01*
X020134Y008547D01*
X020113Y008583D01*
X020096Y008620D01*
X020083Y008659D01*
X020073Y008699D01*
X020067Y008740D01*
X020065Y008781D01*
X023850Y002550D02*
X023852Y002594D01*
X023858Y002638D01*
X023868Y002681D01*
X023881Y002723D01*
X023899Y002763D01*
X023920Y002802D01*
X023944Y002839D01*
X023971Y002874D01*
X024002Y002906D01*
X024035Y002935D01*
X024071Y002961D01*
X024109Y002983D01*
X024149Y003002D01*
X024190Y003018D01*
X024233Y003030D01*
X024276Y003038D01*
X024320Y003042D01*
X024364Y003042D01*
X024408Y003038D01*
X024451Y003030D01*
X024494Y003018D01*
X024535Y003002D01*
X024575Y002983D01*
X024613Y002961D01*
X024649Y002935D01*
X024682Y002906D01*
X024713Y002874D01*
X024740Y002839D01*
X024764Y002802D01*
X024785Y002763D01*
X024803Y002723D01*
X024816Y002681D01*
X024826Y002638D01*
X024832Y002594D01*
X024834Y002550D01*
X024832Y002506D01*
X024826Y002462D01*
X024816Y002419D01*
X024803Y002377D01*
X024785Y002337D01*
X024764Y002298D01*
X024740Y002261D01*
X024713Y002226D01*
X024682Y002194D01*
X024649Y002165D01*
X024613Y002139D01*
X024575Y002117D01*
X024535Y002098D01*
X024494Y002082D01*
X024451Y002070D01*
X024408Y002062D01*
X024364Y002058D01*
X024320Y002058D01*
X024276Y002062D01*
X024233Y002070D01*
X024190Y002082D01*
X024149Y002098D01*
X024109Y002117D01*
X024071Y002139D01*
X024035Y002165D01*
X024002Y002194D01*
X023971Y002226D01*
X023944Y002261D01*
X023920Y002298D01*
X023899Y002337D01*
X023881Y002377D01*
X023868Y002419D01*
X023858Y002462D01*
X023852Y002506D01*
X023850Y002550D01*
X033280Y021185D02*
X033282Y021229D01*
X033288Y021273D01*
X033298Y021316D01*
X033311Y021358D01*
X033329Y021398D01*
X033350Y021437D01*
X033374Y021474D01*
X033401Y021509D01*
X033432Y021541D01*
X033465Y021570D01*
X033501Y021596D01*
X033539Y021618D01*
X033579Y021637D01*
X033620Y021653D01*
X033663Y021665D01*
X033706Y021673D01*
X033750Y021677D01*
X033794Y021677D01*
X033838Y021673D01*
X033881Y021665D01*
X033924Y021653D01*
X033965Y021637D01*
X034005Y021618D01*
X034043Y021596D01*
X034079Y021570D01*
X034112Y021541D01*
X034143Y021509D01*
X034170Y021474D01*
X034194Y021437D01*
X034215Y021398D01*
X034233Y021358D01*
X034246Y021316D01*
X034256Y021273D01*
X034262Y021229D01*
X034264Y021185D01*
X034262Y021141D01*
X034256Y021097D01*
X034246Y021054D01*
X034233Y021012D01*
X034215Y020972D01*
X034194Y020933D01*
X034170Y020896D01*
X034143Y020861D01*
X034112Y020829D01*
X034079Y020800D01*
X034043Y020774D01*
X034005Y020752D01*
X033965Y020733D01*
X033924Y020717D01*
X033881Y020705D01*
X033838Y020697D01*
X033794Y020693D01*
X033750Y020693D01*
X033706Y020697D01*
X033663Y020705D01*
X033620Y020717D01*
X033579Y020733D01*
X033539Y020752D01*
X033501Y020774D01*
X033465Y020800D01*
X033432Y020829D01*
X033401Y020861D01*
X033374Y020896D01*
X033350Y020933D01*
X033329Y020972D01*
X033311Y021012D01*
X033298Y021054D01*
X033288Y021097D01*
X033282Y021141D01*
X033280Y021185D01*
D11*
G36*
X019157Y011702D02*
X018376Y011311D01*
X017985Y012092D01*
X018766Y012483D01*
X019157Y011702D01*
G37*
D12*
G36*
X019308Y012168D02*
X019810Y012419D01*
X019872Y012296D01*
X019370Y012045D01*
X019308Y012168D01*
G37*
G36*
X019194Y012396D02*
X019696Y012647D01*
X019758Y012524D01*
X019256Y012273D01*
X019194Y012396D01*
G37*
G36*
X019079Y012625D02*
X019581Y012876D01*
X019643Y012753D01*
X019141Y012502D01*
X019079Y012625D01*
G37*
G36*
X018965Y012854D02*
X019467Y013105D01*
X019529Y012982D01*
X019027Y012731D01*
X018965Y012854D01*
G37*
G36*
X018850Y013083D02*
X019352Y013334D01*
X019414Y013211D01*
X018912Y012960D01*
X018850Y013083D01*
G37*
G36*
X019423Y011939D02*
X019925Y012190D01*
X019987Y012067D01*
X019485Y011816D01*
X019423Y011939D01*
G37*
G36*
X019537Y011710D02*
X020039Y011961D01*
X020101Y011838D01*
X019599Y011587D01*
X019537Y011710D01*
G37*
G36*
X019652Y011481D02*
X020154Y011732D01*
X020216Y011609D01*
X019714Y011358D01*
X019652Y011481D01*
G37*
G36*
X017751Y010529D02*
X018253Y010780D01*
X018315Y010657D01*
X017813Y010406D01*
X017751Y010529D01*
G37*
G36*
X017637Y010758D02*
X018139Y011009D01*
X018201Y010886D01*
X017699Y010635D01*
X017637Y010758D01*
G37*
G36*
X017522Y010987D02*
X018024Y011238D01*
X018086Y011115D01*
X017584Y010864D01*
X017522Y010987D01*
G37*
G36*
X017407Y011216D02*
X017909Y011467D01*
X017971Y011344D01*
X017469Y011093D01*
X017407Y011216D01*
G37*
G36*
X017293Y011444D02*
X017795Y011695D01*
X017857Y011572D01*
X017355Y011321D01*
X017293Y011444D01*
G37*
G36*
X017178Y011673D02*
X017680Y011924D01*
X017742Y011801D01*
X017240Y011550D01*
X017178Y011673D01*
G37*
G36*
X017064Y011902D02*
X017566Y012153D01*
X017628Y012030D01*
X017126Y011779D01*
X017064Y011902D01*
G37*
G36*
X016949Y012131D02*
X017451Y012382D01*
X017513Y012259D01*
X017011Y012008D01*
X016949Y012131D01*
G37*
D13*
G36*
X019623Y010397D02*
X019188Y010129D01*
X018859Y010665D01*
X019294Y010933D01*
X019623Y010397D01*
G37*
G36*
X020261Y010788D02*
X019826Y010520D01*
X019497Y011056D01*
X019932Y011324D01*
X020261Y010788D01*
G37*
D14*
G36*
X030982Y017055D02*
X030366Y018060D01*
X031204Y018575D01*
X031820Y017570D01*
X030982Y017055D01*
G37*
G36*
X029542Y019405D02*
X028926Y020410D01*
X029764Y020925D01*
X030380Y019920D01*
X029542Y019405D01*
G37*
D15*
X015135Y005456D03*
X015135Y002700D03*
D16*
X008975Y005063D03*
D17*
X012255Y005063D03*
X012255Y005733D03*
X012255Y006403D03*
X012255Y004393D03*
X012255Y003723D03*
D18*
X018174Y003800D03*
X021088Y003800D03*
D19*
X023722Y018047D03*
X023722Y019897D03*
M02*
