G75*
%MOIN*%
%OFA0B0*%
%FSLAX24Y24*%
%IPPOS*%
%LPD*%
%AMOC8*
5,1,8,0,0,1.08239X$1,22.5*
%
%ADD10C,0.0000*%
%ADD11C,0.0039*%
%ADD12C,0.0030*%
%ADD13C,0.0100*%
%ADD14C,0.0059*%
%ADD15C,0.0040*%
D10*
X001464Y001214D02*
X006978Y001214D01*
X007083Y001332D01*
X007084Y001992D01*
X010297Y001990D01*
X010291Y000897D01*
X017774Y000897D01*
X018329Y001214D01*
X025175Y001214D01*
X028236Y007336D01*
X028767Y007690D01*
X032134Y014373D01*
X031140Y014865D01*
X032577Y017739D01*
X033167Y017444D01*
X033315Y017483D01*
X035785Y022424D01*
X030024Y022423D01*
X030024Y022424D02*
X030024Y021647D01*
X026911Y021647D01*
X026911Y022739D01*
X019397Y022739D01*
X018610Y022424D01*
X012065Y022424D01*
X009141Y016568D01*
X008482Y015977D01*
X005126Y009265D01*
X006140Y008753D01*
X004703Y005889D01*
X004112Y006184D01*
X003925Y006145D01*
X001464Y001214D01*
X002981Y002453D02*
X002983Y002497D01*
X002989Y002541D01*
X002999Y002584D01*
X003012Y002626D01*
X003030Y002666D01*
X003051Y002705D01*
X003075Y002742D01*
X003102Y002777D01*
X003133Y002809D01*
X003166Y002838D01*
X003202Y002864D01*
X003240Y002886D01*
X003280Y002905D01*
X003321Y002921D01*
X003364Y002933D01*
X003407Y002941D01*
X003451Y002945D01*
X003495Y002945D01*
X003539Y002941D01*
X003582Y002933D01*
X003625Y002921D01*
X003666Y002905D01*
X003706Y002886D01*
X003744Y002864D01*
X003780Y002838D01*
X003813Y002809D01*
X003844Y002777D01*
X003871Y002742D01*
X003895Y002705D01*
X003916Y002666D01*
X003934Y002626D01*
X003947Y002584D01*
X003957Y002541D01*
X003963Y002497D01*
X003965Y002453D01*
X003963Y002409D01*
X003957Y002365D01*
X003947Y002322D01*
X003934Y002280D01*
X003916Y002240D01*
X003895Y002201D01*
X003871Y002164D01*
X003844Y002129D01*
X003813Y002097D01*
X003780Y002068D01*
X003744Y002042D01*
X003706Y002020D01*
X003666Y002001D01*
X003625Y001985D01*
X003582Y001973D01*
X003539Y001965D01*
X003495Y001961D01*
X003451Y001961D01*
X003407Y001965D01*
X003364Y001973D01*
X003321Y001985D01*
X003280Y002001D01*
X003240Y002020D01*
X003202Y002042D01*
X003166Y002068D01*
X003133Y002097D01*
X003102Y002129D01*
X003075Y002164D01*
X003051Y002201D01*
X003030Y002240D01*
X003012Y002280D01*
X002999Y002322D01*
X002989Y002365D01*
X002983Y002409D01*
X002981Y002453D01*
X016313Y014853D02*
X016315Y014894D01*
X016321Y014935D01*
X016331Y014975D01*
X016344Y015014D01*
X016361Y015051D01*
X016382Y015087D01*
X016406Y015121D01*
X016433Y015152D01*
X016462Y015180D01*
X016495Y015206D01*
X016529Y015228D01*
X016566Y015247D01*
X016604Y015262D01*
X016644Y015274D01*
X016684Y015282D01*
X016725Y015286D01*
X016767Y015286D01*
X016808Y015282D01*
X016848Y015274D01*
X016888Y015262D01*
X016926Y015247D01*
X016962Y015228D01*
X016997Y015206D01*
X017030Y015180D01*
X017059Y015152D01*
X017086Y015121D01*
X017110Y015087D01*
X017131Y015051D01*
X017148Y015014D01*
X017161Y014975D01*
X017171Y014935D01*
X017177Y014894D01*
X017179Y014853D01*
X017177Y014812D01*
X017171Y014771D01*
X017161Y014731D01*
X017148Y014692D01*
X017131Y014655D01*
X017110Y014619D01*
X017086Y014585D01*
X017059Y014554D01*
X017030Y014526D01*
X016997Y014500D01*
X016963Y014478D01*
X016926Y014459D01*
X016888Y014444D01*
X016848Y014432D01*
X016808Y014424D01*
X016767Y014420D01*
X016725Y014420D01*
X016684Y014424D01*
X016644Y014432D01*
X016604Y014444D01*
X016566Y014459D01*
X016530Y014478D01*
X016495Y014500D01*
X016462Y014526D01*
X016433Y014554D01*
X016406Y014585D01*
X016382Y014619D01*
X016361Y014655D01*
X016344Y014692D01*
X016331Y014731D01*
X016321Y014771D01*
X016315Y014812D01*
X016313Y014853D01*
X012400Y021079D02*
X012402Y021123D01*
X012408Y021167D01*
X012418Y021210D01*
X012431Y021252D01*
X012449Y021292D01*
X012470Y021331D01*
X012494Y021368D01*
X012521Y021403D01*
X012552Y021435D01*
X012585Y021464D01*
X012621Y021490D01*
X012659Y021512D01*
X012699Y021531D01*
X012740Y021547D01*
X012783Y021559D01*
X012826Y021567D01*
X012870Y021571D01*
X012914Y021571D01*
X012958Y021567D01*
X013001Y021559D01*
X013044Y021547D01*
X013085Y021531D01*
X013125Y021512D01*
X013163Y021490D01*
X013199Y021464D01*
X013232Y021435D01*
X013263Y021403D01*
X013290Y021368D01*
X013314Y021331D01*
X013335Y021292D01*
X013353Y021252D01*
X013366Y021210D01*
X013376Y021167D01*
X013382Y021123D01*
X013384Y021079D01*
X013382Y021035D01*
X013376Y020991D01*
X013366Y020948D01*
X013353Y020906D01*
X013335Y020866D01*
X013314Y020827D01*
X013290Y020790D01*
X013263Y020755D01*
X013232Y020723D01*
X013199Y020694D01*
X013163Y020668D01*
X013125Y020646D01*
X013085Y020627D01*
X013044Y020611D01*
X013001Y020599D01*
X012958Y020591D01*
X012914Y020587D01*
X012870Y020587D01*
X012826Y020591D01*
X012783Y020599D01*
X012740Y020611D01*
X012699Y020627D01*
X012659Y020646D01*
X012621Y020668D01*
X012585Y020694D01*
X012552Y020723D01*
X012521Y020755D01*
X012494Y020790D01*
X012470Y020827D01*
X012449Y020866D01*
X012431Y020906D01*
X012418Y020948D01*
X012408Y020991D01*
X012402Y021035D01*
X012400Y021079D01*
X020065Y008781D02*
X020067Y008822D01*
X020073Y008863D01*
X020083Y008903D01*
X020096Y008942D01*
X020113Y008979D01*
X020134Y009015D01*
X020158Y009049D01*
X020185Y009080D01*
X020214Y009108D01*
X020247Y009134D01*
X020281Y009156D01*
X020318Y009175D01*
X020356Y009190D01*
X020396Y009202D01*
X020436Y009210D01*
X020477Y009214D01*
X020519Y009214D01*
X020560Y009210D01*
X020600Y009202D01*
X020640Y009190D01*
X020678Y009175D01*
X020714Y009156D01*
X020749Y009134D01*
X020782Y009108D01*
X020811Y009080D01*
X020838Y009049D01*
X020862Y009015D01*
X020883Y008979D01*
X020900Y008942D01*
X020913Y008903D01*
X020923Y008863D01*
X020929Y008822D01*
X020931Y008781D01*
X020929Y008740D01*
X020923Y008699D01*
X020913Y008659D01*
X020900Y008620D01*
X020883Y008583D01*
X020862Y008547D01*
X020838Y008513D01*
X020811Y008482D01*
X020782Y008454D01*
X020749Y008428D01*
X020715Y008406D01*
X020678Y008387D01*
X020640Y008372D01*
X020600Y008360D01*
X020560Y008352D01*
X020519Y008348D01*
X020477Y008348D01*
X020436Y008352D01*
X020396Y008360D01*
X020356Y008372D01*
X020318Y008387D01*
X020282Y008406D01*
X020247Y008428D01*
X020214Y008454D01*
X020185Y008482D01*
X020158Y008513D01*
X020134Y008547D01*
X020113Y008583D01*
X020096Y008620D01*
X020083Y008659D01*
X020073Y008699D01*
X020067Y008740D01*
X020065Y008781D01*
X023850Y002550D02*
X023852Y002594D01*
X023858Y002638D01*
X023868Y002681D01*
X023881Y002723D01*
X023899Y002763D01*
X023920Y002802D01*
X023944Y002839D01*
X023971Y002874D01*
X024002Y002906D01*
X024035Y002935D01*
X024071Y002961D01*
X024109Y002983D01*
X024149Y003002D01*
X024190Y003018D01*
X024233Y003030D01*
X024276Y003038D01*
X024320Y003042D01*
X024364Y003042D01*
X024408Y003038D01*
X024451Y003030D01*
X024494Y003018D01*
X024535Y003002D01*
X024575Y002983D01*
X024613Y002961D01*
X024649Y002935D01*
X024682Y002906D01*
X024713Y002874D01*
X024740Y002839D01*
X024764Y002802D01*
X024785Y002763D01*
X024803Y002723D01*
X024816Y002681D01*
X024826Y002638D01*
X024832Y002594D01*
X024834Y002550D01*
X024832Y002506D01*
X024826Y002462D01*
X024816Y002419D01*
X024803Y002377D01*
X024785Y002337D01*
X024764Y002298D01*
X024740Y002261D01*
X024713Y002226D01*
X024682Y002194D01*
X024649Y002165D01*
X024613Y002139D01*
X024575Y002117D01*
X024535Y002098D01*
X024494Y002082D01*
X024451Y002070D01*
X024408Y002062D01*
X024364Y002058D01*
X024320Y002058D01*
X024276Y002062D01*
X024233Y002070D01*
X024190Y002082D01*
X024149Y002098D01*
X024109Y002117D01*
X024071Y002139D01*
X024035Y002165D01*
X024002Y002194D01*
X023971Y002226D01*
X023944Y002261D01*
X023920Y002298D01*
X023899Y002337D01*
X023881Y002377D01*
X023868Y002419D01*
X023858Y002462D01*
X023852Y002506D01*
X023850Y002550D01*
X033280Y021185D02*
X033282Y021229D01*
X033288Y021273D01*
X033298Y021316D01*
X033311Y021358D01*
X033329Y021398D01*
X033350Y021437D01*
X033374Y021474D01*
X033401Y021509D01*
X033432Y021541D01*
X033465Y021570D01*
X033501Y021596D01*
X033539Y021618D01*
X033579Y021637D01*
X033620Y021653D01*
X033663Y021665D01*
X033706Y021673D01*
X033750Y021677D01*
X033794Y021677D01*
X033838Y021673D01*
X033881Y021665D01*
X033924Y021653D01*
X033965Y021637D01*
X034005Y021618D01*
X034043Y021596D01*
X034079Y021570D01*
X034112Y021541D01*
X034143Y021509D01*
X034170Y021474D01*
X034194Y021437D01*
X034215Y021398D01*
X034233Y021358D01*
X034246Y021316D01*
X034256Y021273D01*
X034262Y021229D01*
X034264Y021185D01*
X034262Y021141D01*
X034256Y021097D01*
X034246Y021054D01*
X034233Y021012D01*
X034215Y020972D01*
X034194Y020933D01*
X034170Y020896D01*
X034143Y020861D01*
X034112Y020829D01*
X034079Y020800D01*
X034043Y020774D01*
X034005Y020752D01*
X033965Y020733D01*
X033924Y020717D01*
X033881Y020705D01*
X033838Y020697D01*
X033794Y020693D01*
X033750Y020693D01*
X033706Y020697D01*
X033663Y020705D01*
X033620Y020717D01*
X033579Y020733D01*
X033539Y020752D01*
X033501Y020774D01*
X033465Y020800D01*
X033432Y020829D01*
X033401Y020861D01*
X033374Y020896D01*
X033350Y020933D01*
X033329Y020972D01*
X033311Y021012D01*
X033298Y021054D01*
X033288Y021097D01*
X033282Y021141D01*
X033280Y021185D01*
D11*
X030047Y021097D02*
X030047Y021609D01*
X030047Y020704D02*
X030047Y020192D01*
X030047Y019798D02*
X030047Y019286D01*
X030044Y019061D02*
X030044Y018846D01*
X029853Y018846D01*
X029729Y018850D02*
X029172Y018850D01*
X028779Y018849D02*
X028222Y018848D01*
X027828Y018847D02*
X027271Y018846D01*
X027148Y018846D02*
X026893Y018848D01*
X026893Y019085D01*
X026892Y019789D02*
X026892Y020242D01*
X026892Y020635D02*
X026892Y021088D01*
X026452Y020789D02*
X026025Y020789D01*
X025631Y020789D02*
X025204Y020789D01*
X024810Y020789D02*
X024383Y020788D01*
X023989Y020788D02*
X023562Y020788D01*
X023168Y020788D02*
X022741Y020788D01*
X022347Y020788D02*
X021920Y020788D01*
X021526Y020788D02*
X021099Y020788D01*
X020705Y020788D02*
X020278Y020788D01*
X019884Y020788D02*
X019457Y020787D01*
X019406Y020845D02*
X019407Y021474D01*
X019408Y021868D02*
X019409Y022497D01*
X022396Y016152D02*
X022398Y016174D01*
X022403Y016194D01*
X022413Y016214D01*
X022425Y016232D01*
X022440Y016247D01*
X022458Y016259D01*
X022478Y016269D01*
X022498Y016274D01*
X022520Y016276D01*
X022542Y016274D01*
X022562Y016269D01*
X022582Y016259D01*
X022600Y016247D01*
X022615Y016232D01*
X022627Y016214D01*
X022637Y016194D01*
X022642Y016174D01*
X022644Y016152D01*
X022642Y016130D01*
X022637Y016110D01*
X022627Y016090D01*
X022615Y016072D01*
X022600Y016057D01*
X022582Y016045D01*
X022562Y016035D01*
X022542Y016030D01*
X022520Y016028D01*
X022498Y016030D01*
X022478Y016035D01*
X022458Y016045D01*
X022440Y016057D01*
X022425Y016072D01*
X022413Y016090D01*
X022403Y016110D01*
X022398Y016130D01*
X022396Y016152D01*
X027530Y012716D02*
X028541Y012237D01*
X029746Y014726D01*
X028760Y015175D01*
X027530Y012716D01*
X027339Y012368D02*
X028315Y011896D01*
X027028Y009344D01*
X026031Y009823D01*
X027339Y012368D01*
X028542Y011595D02*
X028727Y011964D01*
X028903Y012316D02*
X029088Y012686D01*
X029264Y013038D02*
X029448Y013407D01*
X029625Y013759D02*
X029809Y014129D01*
X029985Y014481D02*
X030170Y014850D01*
X030264Y015032D02*
X030371Y015241D01*
X030274Y015239D02*
X029840Y015456D01*
X029487Y015632D02*
X029053Y015849D01*
X028917Y015922D02*
X028612Y016071D01*
X028762Y016370D01*
X028814Y016472D02*
X029044Y016931D01*
X029220Y017283D02*
X029451Y017743D01*
X029627Y018095D02*
X029857Y018554D01*
X029909Y018659D02*
X030026Y018891D01*
X030272Y018768D01*
X030480Y018665D02*
X030887Y018461D01*
X031239Y018285D02*
X031646Y018081D01*
X031998Y017904D02*
X032405Y017700D01*
X031222Y014725D02*
X031563Y014581D01*
X028366Y011243D02*
X028181Y010873D01*
X028005Y010521D02*
X027821Y010152D01*
X027645Y009800D02*
X027460Y009430D01*
X027284Y009078D02*
X027099Y008709D01*
X027089Y008694D02*
X026993Y008512D01*
X027170Y008423D01*
X027248Y008385D02*
X027662Y008177D01*
X028015Y008001D02*
X028429Y007794D01*
X017714Y004747D02*
X017714Y003723D01*
X017478Y003723D02*
X017478Y004747D01*
X016966Y004747D02*
X016966Y003723D01*
X016730Y003723D02*
X016730Y004747D01*
X014840Y004668D02*
X014840Y003684D01*
X014525Y003645D02*
X014525Y004708D01*
X014014Y004668D02*
X014014Y003684D01*
X013777Y003684D02*
X013777Y004668D01*
X008535Y007360D02*
X008636Y007559D01*
X008434Y007662D01*
X008322Y007716D02*
X007816Y007969D01*
X007464Y008145D02*
X006959Y008398D01*
X006877Y008403D02*
X006664Y008505D01*
X006877Y008403D02*
X006980Y008607D01*
X007021Y008684D02*
X007203Y009047D01*
X007379Y009400D02*
X007561Y009763D01*
X007737Y010115D02*
X007919Y010479D01*
X008095Y010831D02*
X008277Y011194D01*
X008453Y011546D02*
X008635Y011910D01*
X008811Y012262D02*
X008993Y012625D01*
X009169Y012977D02*
X009351Y013341D01*
X009527Y013693D02*
X009709Y014056D01*
X009885Y014408D02*
X010067Y014772D01*
X010147Y014933D02*
X010247Y015129D01*
X010105Y015199D01*
X009903Y015305D02*
X009449Y015532D01*
X009097Y015708D02*
X008643Y015935D01*
X010526Y014954D02*
X009605Y012922D01*
X010605Y012422D01*
X011526Y014454D01*
X010526Y014954D01*
X008829Y011079D02*
X007829Y009204D01*
X008829Y008704D01*
X009767Y010579D01*
X008829Y011079D01*
X008398Y007094D02*
X008184Y006667D01*
X008008Y006315D02*
X007794Y005888D01*
X007618Y005536D02*
X007404Y005109D01*
X007344Y004975D02*
X007220Y004733D01*
X007009Y004846D01*
X006758Y004973D02*
X006392Y005158D01*
X006041Y005336D02*
X005675Y005521D01*
X005323Y005699D02*
X004957Y005884D01*
D12*
X004924Y005685D02*
X005090Y005602D01*
X004925Y005271D01*
X004760Y005353D01*
X004732Y005436D01*
X004842Y005657D01*
X004924Y005685D01*
X005199Y005548D02*
X005034Y005217D01*
X005420Y005439D01*
X005255Y005107D01*
X005392Y005108D02*
X005446Y005219D01*
X005557Y005164D01*
X005501Y005329D02*
X005584Y005357D01*
X005695Y005302D01*
X005723Y005220D01*
X005613Y004998D01*
X005530Y004971D01*
X005419Y005025D01*
X005392Y005108D01*
X006868Y003269D02*
X007115Y003269D01*
X007177Y003208D01*
X007177Y003023D01*
X006806Y003023D01*
X006806Y003208D01*
X006868Y003269D01*
X006806Y002901D02*
X007177Y002901D01*
X007177Y002654D02*
X006806Y002654D01*
X006868Y002533D02*
X006991Y002533D01*
X006991Y002409D01*
X006868Y002286D02*
X007115Y002286D01*
X007177Y002348D01*
X007177Y002471D01*
X007115Y002533D01*
X007177Y002654D02*
X006806Y002901D01*
X006868Y002533D02*
X006806Y002471D01*
X006806Y002348D01*
X006868Y002286D01*
X009053Y004921D02*
X009053Y005168D01*
X008930Y005045D02*
X009177Y005045D01*
X009298Y004921D02*
X009360Y004860D01*
X009483Y004860D01*
X009545Y004921D01*
X009545Y004983D01*
X009298Y005230D01*
X009545Y005230D01*
X009666Y005045D02*
X009852Y004860D01*
X009852Y005230D01*
X009913Y005045D02*
X009666Y005045D01*
X010035Y005106D02*
X010035Y004860D01*
X010035Y005106D02*
X010158Y005230D01*
X010282Y005106D01*
X010282Y004860D01*
X008457Y006083D02*
X008292Y006028D01*
X008071Y006138D01*
X008180Y006359D02*
X008401Y006249D01*
X008457Y006083D01*
X008593Y006358D02*
X008262Y006523D01*
X008510Y006606D01*
X008400Y006385D01*
X008509Y006742D02*
X008453Y006770D01*
X008425Y006853D01*
X008480Y006963D01*
X008563Y006991D01*
X008728Y007045D02*
X008837Y007266D01*
X008672Y007210D02*
X008893Y007101D01*
X008840Y006854D02*
X008509Y006742D01*
X008730Y006633D02*
X008840Y006854D01*
X017842Y010628D02*
X018090Y010546D01*
X017869Y010435D01*
X017842Y010628D02*
X018007Y010297D01*
X018254Y010490D02*
X018337Y010462D01*
X018447Y010517D01*
X018475Y010600D01*
X018364Y010821D01*
X018281Y010848D01*
X018171Y010793D01*
X018143Y010710D01*
X014236Y014793D02*
X014120Y014751D01*
X014041Y014788D01*
X013948Y014688D02*
X013832Y014646D01*
X013890Y014667D02*
X013763Y015015D01*
X013821Y015036D02*
X013705Y014994D01*
X013611Y014894D02*
X013696Y014662D01*
X013659Y014583D01*
X013543Y014541D01*
X013464Y014578D01*
X013379Y014810D02*
X013416Y014889D01*
X013532Y014931D01*
X013611Y014894D01*
X013627Y015210D02*
X013500Y015558D01*
X013326Y015495D01*
X013290Y015416D01*
X013332Y015300D01*
X013411Y015263D01*
X013585Y015326D01*
X013469Y015284D02*
X013395Y015126D01*
X013741Y015252D02*
X013973Y015336D01*
X013847Y015684D01*
X013615Y015600D01*
X013794Y015468D02*
X013910Y015510D01*
X014087Y015378D02*
X013961Y015726D01*
X014119Y015652D01*
X014193Y015810D01*
X014319Y015462D01*
X014433Y015504D02*
X014307Y015852D01*
X014465Y015778D01*
X014539Y015936D01*
X014665Y015588D01*
X014780Y015630D02*
X014695Y015862D01*
X014769Y016020D01*
X014927Y015946D01*
X015012Y015714D01*
X015126Y015756D02*
X015358Y015840D01*
X015231Y016188D01*
X015094Y016383D02*
X014978Y016340D01*
X014899Y016377D01*
X014878Y016435D01*
X014915Y016514D01*
X015031Y016557D01*
X015068Y016636D01*
X015047Y016694D01*
X014968Y016731D01*
X014852Y016688D01*
X014815Y016609D01*
X014722Y016510D02*
X014806Y016278D01*
X014743Y016452D02*
X014511Y016367D01*
X014490Y016425D02*
X014574Y016193D01*
X014418Y016268D02*
X014344Y016110D01*
X014186Y016183D01*
X014102Y016415D01*
X013987Y016374D02*
X013871Y016332D01*
X013929Y016353D02*
X014056Y016005D01*
X014114Y016026D02*
X013998Y015984D01*
X013862Y016000D02*
X013778Y016232D01*
X013699Y016269D01*
X013583Y016227D01*
X013546Y016147D01*
X013630Y015915D02*
X013709Y015879D01*
X013825Y015921D01*
X013862Y016000D01*
X014418Y016268D02*
X014334Y016500D01*
X014490Y016425D02*
X014564Y016584D01*
X014722Y016510D01*
X015094Y016383D02*
X015131Y016462D01*
X014948Y015888D02*
X014716Y015804D01*
X014974Y015456D02*
X014900Y015298D01*
X014985Y015066D01*
X014828Y015140D02*
X014744Y015372D01*
X014921Y015240D02*
X015153Y015324D01*
X015132Y015382D02*
X014974Y015456D01*
X015132Y015382D02*
X015217Y015150D01*
X015310Y015250D02*
X015389Y015213D01*
X015505Y015255D01*
X015542Y015334D01*
X015441Y015429D02*
X015326Y015387D01*
X015289Y015308D01*
X015310Y015250D01*
X015441Y015429D02*
X015478Y015508D01*
X015457Y015566D01*
X015378Y015603D01*
X015262Y015561D01*
X015225Y015482D01*
X014828Y015140D02*
X014755Y014982D01*
X014596Y015056D01*
X014512Y015288D01*
X014398Y015246D02*
X014282Y015204D01*
X014340Y015225D02*
X014467Y014877D01*
X014525Y014898D02*
X014409Y014856D01*
X014273Y014872D02*
X014188Y015104D01*
X014109Y015141D01*
X013993Y015099D01*
X013956Y015020D01*
X014273Y014872D02*
X014236Y014793D01*
X013219Y016391D02*
X013327Y016745D01*
X013273Y016568D02*
X013037Y016640D01*
X012921Y016675D02*
X012803Y016711D01*
X012975Y016852D02*
X012866Y016498D01*
X012630Y016570D01*
X012514Y016606D02*
X012622Y016960D01*
X012445Y017014D01*
X012368Y016973D01*
X012296Y016737D01*
X012337Y016660D01*
X012514Y016606D01*
X012162Y016714D02*
X012270Y017068D01*
X012093Y017122D01*
X012016Y017081D01*
X011980Y016963D01*
X012021Y016886D01*
X012198Y016832D01*
X012080Y016868D02*
X011926Y016786D01*
X011828Y016880D02*
X011751Y016839D01*
X011633Y016875D01*
X011592Y016952D01*
X011664Y017189D01*
X011741Y017230D01*
X011859Y017193D01*
X011900Y017116D01*
X011828Y016880D01*
X011458Y016929D02*
X011566Y017283D01*
X011221Y017001D01*
X011330Y017355D01*
X011885Y017490D02*
X011957Y017726D01*
X012034Y017767D01*
X012152Y017731D01*
X012193Y017654D01*
X012121Y017418D01*
X012044Y017377D01*
X011926Y017413D01*
X011885Y017490D01*
X012219Y017324D02*
X012450Y017447D01*
X012491Y017369D02*
X012327Y017678D01*
X012563Y017606D02*
X012455Y017251D01*
X012589Y017275D02*
X012630Y017198D01*
X012748Y017162D01*
X012825Y017203D01*
X012924Y017108D02*
X013042Y017072D01*
X012983Y017090D02*
X013091Y017444D01*
X013150Y017426D02*
X013032Y017462D01*
X012897Y017439D02*
X012879Y017380D01*
X012802Y017339D01*
X012684Y017375D01*
X012607Y017334D01*
X012589Y017275D01*
X012661Y017511D02*
X012738Y017552D01*
X012856Y017516D01*
X012897Y017439D01*
X013248Y017332D02*
X013176Y017095D01*
X013217Y017018D01*
X013394Y016964D01*
X013502Y017318D01*
X013325Y017373D01*
X013248Y017332D01*
X013091Y016817D02*
X012983Y016463D01*
X012975Y016852D02*
X012739Y016925D01*
X010489Y017809D02*
X010379Y017587D01*
X010325Y017479D02*
X010049Y017616D01*
X009966Y017588D01*
X009911Y017477D01*
X009939Y017395D01*
X010215Y017257D01*
X010106Y017176D02*
X010134Y017093D01*
X010079Y016983D01*
X009996Y016955D01*
X009775Y017065D01*
X009747Y017148D01*
X009802Y017258D01*
X009885Y017286D01*
X010106Y017176D01*
X010434Y017698D02*
X010102Y017863D01*
X010377Y018000D02*
X010487Y018221D01*
X010707Y018247D02*
X010375Y018412D01*
X010485Y018633D01*
X015914Y021830D02*
X016037Y021830D01*
X015975Y021830D02*
X015975Y022201D01*
X015914Y022201D02*
X016037Y022201D01*
X016159Y022201D02*
X016159Y021830D01*
X016406Y022201D01*
X016406Y021830D01*
X016528Y021830D02*
X016713Y021830D01*
X016775Y021892D01*
X016775Y022015D01*
X016713Y022077D01*
X016528Y022077D01*
X016528Y022201D02*
X016528Y021830D01*
X016896Y021830D02*
X016896Y022139D01*
X016958Y022201D01*
X017081Y022201D01*
X017143Y022139D01*
X017143Y021830D01*
X017264Y021830D02*
X017511Y021830D01*
X017388Y021830D02*
X017388Y022201D01*
X019960Y017031D02*
X019849Y016976D01*
X019822Y016893D01*
X019849Y016838D01*
X019932Y016811D01*
X019905Y016728D01*
X019932Y016673D01*
X020015Y016645D01*
X020126Y016700D01*
X020153Y016783D01*
X020262Y016837D02*
X020344Y016810D01*
X020455Y016865D01*
X020482Y016948D01*
X020372Y017169D01*
X020289Y017196D01*
X020179Y017141D01*
X020151Y017058D01*
X020043Y017004D02*
X019960Y017031D01*
X019987Y016838D02*
X019932Y016811D01*
X026410Y018941D02*
X026657Y018941D01*
X026534Y018818D02*
X026534Y019065D01*
X026657Y019186D02*
X026719Y019248D01*
X026719Y019371D01*
X026657Y019433D01*
X026596Y019433D01*
X026349Y019186D01*
X026349Y019433D01*
X026534Y019554D02*
X026534Y019801D01*
X026472Y019923D02*
X026349Y020046D01*
X026472Y020170D01*
X026719Y020170D01*
X026719Y019923D02*
X026472Y019923D01*
X026349Y019740D02*
X026719Y019740D01*
X026534Y019554D01*
X030164Y020500D02*
X030225Y020438D01*
X030472Y020438D01*
X030534Y020500D01*
X030534Y020624D01*
X030472Y020685D01*
X030349Y020685D02*
X030349Y020562D01*
X030349Y020685D02*
X030225Y020685D01*
X030164Y020624D01*
X030164Y020500D01*
X030164Y020807D02*
X030534Y020807D01*
X030164Y021054D01*
X030534Y021054D01*
X030534Y021175D02*
X030164Y021175D01*
X030164Y021360D01*
X030225Y021422D01*
X030472Y021422D01*
X030534Y021360D01*
X030534Y021175D01*
X031673Y018535D02*
X031756Y018563D01*
X031922Y018481D01*
X031757Y018149D01*
X031591Y018231D01*
X031563Y018314D01*
X031673Y018535D01*
X032030Y018427D02*
X031866Y018095D01*
X032251Y018317D01*
X032087Y017985D01*
X032223Y017987D02*
X032278Y018097D01*
X032388Y018042D01*
X032223Y017987D02*
X032251Y017904D01*
X032361Y017849D01*
X032444Y017877D01*
X032554Y018098D01*
X032526Y018181D01*
X032415Y018236D01*
X032333Y018208D01*
X029431Y015468D02*
X029344Y015295D01*
X029214Y015252D01*
X029171Y015382D01*
X029258Y015555D01*
X029456Y015293D02*
X029629Y015207D01*
X029565Y015401D01*
X029435Y015142D01*
X029655Y015032D02*
X029828Y014945D01*
X029741Y015205D01*
X029763Y015248D01*
X029828Y015269D01*
X029914Y015226D01*
X029936Y015161D01*
X029983Y015029D02*
X030156Y014943D01*
X030113Y015073D02*
X030026Y014900D01*
X027207Y007886D02*
X027152Y007776D01*
X027179Y007831D02*
X027511Y007666D01*
X027538Y007721D02*
X027484Y007611D01*
X027429Y007501D02*
X027098Y007666D01*
X027319Y007280D01*
X026988Y007445D01*
X027100Y007254D02*
X026990Y007033D01*
X026991Y006897D02*
X026909Y006731D01*
X026826Y006703D01*
X026716Y006758D01*
X026688Y006840D01*
X026770Y007006D01*
X027102Y006842D01*
X026936Y006786D02*
X026992Y006621D01*
X027089Y006300D02*
X027007Y006134D01*
X027035Y006051D01*
X027145Y005996D01*
X027228Y006024D01*
X027310Y006190D01*
X027255Y006079D02*
X027311Y005914D01*
X027421Y006135D02*
X027089Y006300D01*
X027309Y006326D02*
X027419Y006547D01*
X027307Y006738D02*
X027417Y006959D01*
X027471Y007068D02*
X027747Y006931D01*
X027830Y006959D01*
X027885Y007069D01*
X027857Y007152D01*
X027580Y007289D01*
X027690Y007371D02*
X027662Y007453D01*
X027717Y007564D01*
X027799Y007592D01*
X028021Y007482D01*
X028048Y007399D01*
X027994Y007289D01*
X027911Y007261D01*
X027690Y007371D01*
X027362Y006849D02*
X027693Y006684D01*
X023036Y002224D02*
X023036Y002031D01*
X023036Y002128D02*
X022940Y002224D01*
X022891Y002224D01*
X022791Y002176D02*
X022742Y002224D01*
X022646Y002224D01*
X022597Y002176D01*
X022597Y002128D01*
X022791Y002128D01*
X022791Y002176D02*
X022791Y002079D01*
X022742Y002031D01*
X022646Y002031D01*
X022543Y001845D02*
X022640Y001797D01*
X022736Y001700D01*
X022591Y001700D01*
X022543Y001651D01*
X022543Y001603D01*
X022591Y001555D01*
X022688Y001555D01*
X022736Y001603D01*
X022736Y001700D01*
X022838Y001797D02*
X023031Y001603D01*
X022983Y001555D01*
X022886Y001555D01*
X022838Y001603D01*
X022838Y001797D01*
X022886Y001845D01*
X022983Y001845D01*
X023031Y001797D01*
X023031Y001603D01*
X022442Y001555D02*
X022248Y001845D01*
X022147Y001797D02*
X022099Y001845D01*
X022002Y001845D01*
X021954Y001797D01*
X021954Y001748D01*
X022147Y001555D01*
X021954Y001555D01*
X021853Y001603D02*
X021804Y001555D01*
X021707Y001555D01*
X021659Y001603D01*
X021659Y001797D01*
X021853Y001603D01*
X021853Y001797D01*
X021804Y001845D01*
X021707Y001845D01*
X021659Y001797D01*
X021558Y001748D02*
X021461Y001845D01*
X021461Y001555D01*
X021558Y001555D02*
X021364Y001555D01*
X021263Y001700D02*
X021070Y001700D01*
X021118Y001845D02*
X021263Y001700D01*
X021118Y001555D02*
X021118Y001845D01*
X021861Y002079D02*
X021909Y002031D01*
X022006Y002031D01*
X022054Y002079D01*
X022054Y002273D01*
X022006Y002321D01*
X021909Y002321D01*
X021861Y002273D01*
X022153Y002079D02*
X022153Y002031D01*
X022201Y002031D01*
X022201Y002079D01*
X022153Y002079D01*
X022303Y002224D02*
X022399Y002031D01*
X022496Y002224D01*
X020109Y002060D02*
X020109Y001813D01*
X020047Y001751D01*
X019924Y001751D01*
X019862Y001813D01*
X019862Y002060D01*
X019924Y002121D01*
X020047Y002121D01*
X020109Y002060D01*
X019741Y002121D02*
X019741Y001813D01*
X019679Y001751D01*
X019556Y001751D01*
X019494Y001813D01*
X019494Y002121D01*
X019372Y002121D02*
X019126Y002121D01*
X019249Y002121D02*
X019249Y001751D01*
X019004Y001936D02*
X018757Y001936D01*
X018636Y001998D02*
X018574Y001936D01*
X018451Y001936D01*
X018389Y001874D01*
X018389Y001813D01*
X018451Y001751D01*
X018574Y001751D01*
X018636Y001813D01*
X018636Y001998D02*
X018636Y002060D01*
X018574Y002121D01*
X018451Y002121D01*
X018389Y002060D01*
D13*
X004334Y001214D02*
X001461Y001213D01*
X004310Y001213D01*
X007037Y001213D01*
X007151Y001441D01*
X006679Y002071D01*
X006670Y002144D01*
X006155Y002834D01*
X006054Y002757D01*
X005832Y003053D01*
X005893Y003098D01*
X005896Y003115D01*
X005515Y003624D01*
X005219Y003031D01*
X005299Y002991D01*
X005139Y002671D01*
X005026Y002727D01*
X004640Y001954D01*
X004632Y001857D01*
X004310Y001213D01*
X004334Y001214D02*
X004226Y001214D01*
X004578Y001918D01*
X004639Y001958D01*
X005026Y002727D01*
X004912Y002783D01*
X005077Y003114D01*
X005145Y003080D01*
X005162Y003085D01*
X005446Y003653D01*
X004784Y003653D01*
X004784Y003563D01*
X004426Y003563D01*
X004426Y003689D01*
X003562Y003689D01*
X003471Y003653D01*
X002718Y003653D01*
X002382Y002979D01*
X002306Y002911D01*
X001920Y002139D01*
X002037Y002081D01*
X001872Y001751D01*
X001804Y001785D01*
X001782Y001781D01*
X001499Y001214D01*
X004226Y001214D01*
X004334Y001214D02*
X025175Y001214D01*
X027213Y005290D01*
X026431Y003726D01*
X026388Y003720D01*
X025738Y003340D01*
X025108Y003752D01*
X025013Y003771D01*
X024290Y004244D01*
X024358Y004349D01*
X024059Y004546D01*
X024010Y004471D01*
X023455Y004833D01*
X024004Y005153D01*
X024021Y005148D01*
X024059Y005082D01*
X024378Y005268D01*
X024313Y005378D01*
X025058Y005810D01*
X025132Y005810D01*
X025812Y006207D01*
X027213Y005290D01*
X027401Y005665D01*
X028166Y007197D01*
X028125Y007913D01*
X027433Y008209D01*
X027360Y008281D01*
X026567Y008621D01*
X026515Y008501D01*
X026177Y008647D01*
X026207Y008717D01*
X026201Y008738D01*
X025618Y008988D01*
X025778Y006266D01*
X026501Y005955D01*
X026545Y005897D01*
X027335Y005555D01*
X027385Y005672D01*
X027401Y005665D01*
X028236Y007336D01*
X028767Y007690D01*
X029927Y009991D01*
X030186Y010506D01*
X030136Y010503D01*
X030113Y010860D01*
X030238Y010868D01*
X030182Y011731D01*
X030141Y011819D01*
X030092Y012570D01*
X029398Y012862D01*
X029326Y012933D01*
X029428Y012931D01*
X030121Y012638D01*
X030693Y013127D01*
X030785Y013159D01*
X031442Y013720D01*
X031360Y013816D01*
X031632Y014049D01*
X031690Y013981D01*
X032122Y014350D01*
X031153Y014892D01*
X032068Y016723D01*
X032034Y017209D01*
X031339Y017497D01*
X031266Y017568D01*
X030469Y017899D01*
X030518Y018020D01*
X030178Y018161D01*
X030149Y018090D01*
X030129Y018080D01*
X029544Y018323D01*
X031606Y020108D01*
X032333Y019806D01*
X032406Y019816D01*
X033201Y019488D01*
X033249Y019606D01*
X033591Y019467D01*
X033562Y019396D01*
X033568Y019380D01*
X034145Y019144D01*
X034155Y019163D02*
X034068Y020775D01*
X034115Y020160D01*
X033990Y020151D01*
X034017Y019793D01*
X034106Y019800D01*
X034155Y019163D01*
X034108Y019070D02*
X032562Y017709D01*
X032063Y017277D01*
X031368Y017566D01*
X031266Y017568D01*
X030469Y017899D02*
X030418Y017779D01*
X030078Y017920D01*
X030107Y017990D01*
X030101Y018012D01*
X029516Y018254D01*
X029707Y015534D01*
X030434Y015232D01*
X030479Y015174D01*
X031153Y014892D01*
X031140Y014865D02*
X032134Y014373D01*
X029927Y009991D01*
X029682Y010095D01*
X029677Y010111D01*
X029706Y010181D01*
X029366Y010325D01*
X029316Y010207D01*
X028525Y010544D01*
X028480Y010602D01*
X027755Y010909D01*
X026296Y010013D02*
X026232Y010123D01*
X025913Y009937D01*
X025951Y009871D01*
X025948Y009854D01*
X025399Y009534D01*
X025357Y010195D01*
X025446Y010201D01*
X025423Y010558D01*
X025297Y010550D01*
X025242Y011413D01*
X025272Y011505D01*
X025224Y012256D01*
X025874Y012635D01*
X025937Y012715D01*
X026683Y013150D01*
X026749Y013037D01*
X027067Y013223D01*
X027029Y013289D01*
X027032Y013311D01*
X027304Y013469D01*
X026797Y013951D01*
X026703Y013989D01*
X026077Y014583D01*
X026166Y014678D01*
X025898Y014931D01*
X025846Y014876D01*
X025824Y014873D01*
X025365Y015310D01*
X027928Y016240D01*
X028499Y015698D01*
X028571Y015681D01*
X029197Y015090D01*
X029109Y014998D01*
X029117Y014990D01*
X029681Y015471D02*
X030406Y015165D01*
X030479Y015174D01*
X030371Y015241D02*
X030607Y015123D01*
X031140Y014865D02*
X032577Y017739D01*
X032589Y017733D01*
X034089Y019032D01*
X033624Y018629D01*
X033565Y018697D01*
X033295Y018463D01*
X033377Y018368D01*
X032724Y017802D01*
X032632Y017770D01*
X032589Y017733D01*
X033167Y017444D01*
X033315Y017483D01*
X034089Y019032D01*
X035785Y022424D01*
X030024Y022423D01*
X030024Y022424D02*
X030024Y021647D01*
X028329Y021647D01*
X028303Y021414D01*
X028254Y021324D01*
X028155Y020467D01*
X028025Y020482D01*
X027983Y020116D01*
X028059Y020107D01*
X028074Y020091D01*
X028001Y019462D01*
X025719Y020954D01*
X025809Y021736D01*
X025781Y021804D01*
X025877Y022659D01*
X026004Y022644D01*
X026015Y022739D01*
X025584Y022739D01*
X023814Y022751D01*
X023161Y022376D01*
X023205Y021624D01*
X023175Y021532D01*
X023225Y020669D01*
X023350Y020677D01*
X023371Y020319D01*
X023282Y020314D01*
X023321Y019653D01*
X023871Y019969D01*
X023875Y019987D01*
X023837Y020052D01*
X024157Y020237D01*
X024221Y020126D01*
X024965Y020557D01*
X025002Y020621D01*
X025685Y021013D01*
X025584Y022739D01*
X022356Y022739D01*
X019912Y022739D01*
X020011Y021195D01*
X020736Y020889D01*
X020781Y020830D01*
X021573Y020493D01*
X021622Y020611D01*
X021962Y020467D01*
X021933Y020397D01*
X021939Y020381D01*
X022524Y020134D01*
X022481Y020795D01*
X022392Y020789D01*
X022369Y021146D01*
X022494Y021155D01*
X022439Y022017D01*
X022397Y022105D01*
X022356Y022739D01*
X019912Y022739D02*
X019397Y022739D01*
X018610Y022424D01*
X017665Y022424D01*
X014864Y022424D01*
X015021Y022102D01*
X015097Y022034D01*
X015428Y021358D01*
X016180Y021352D01*
X016271Y021315D01*
X017135Y021308D01*
X017136Y021434D01*
X017494Y021431D01*
X017493Y021342D01*
X018155Y021337D01*
X017876Y021907D01*
X017859Y021912D01*
X017791Y021878D01*
X017628Y022210D01*
X017743Y022266D01*
X017665Y022424D01*
X017492Y021269D02*
X017492Y021180D01*
X017134Y021183D01*
X017135Y021308D01*
X017492Y021269D02*
X018155Y021264D01*
X017866Y020698D01*
X017849Y020694D01*
X017782Y020728D01*
X017614Y020399D01*
X017728Y020342D01*
X017335Y019576D01*
X017273Y019536D01*
X016916Y018834D01*
X014189Y018856D01*
X014476Y019421D01*
X014498Y019425D01*
X014566Y019390D01*
X014734Y019719D01*
X014617Y019778D01*
X014501Y019837D01*
X014334Y019509D01*
X014402Y019474D01*
X014411Y019454D01*
X014122Y018890D01*
X012901Y020545D01*
X014591Y022424D01*
X014890Y022019D01*
X014914Y021925D01*
X015361Y021319D01*
X015019Y020649D01*
X015009Y020547D01*
X014617Y019778D01*
X014122Y018890D02*
X013498Y018781D01*
X013482Y018795D01*
X013469Y018870D01*
X013105Y018808D01*
X013127Y018679D01*
X012277Y018531D01*
X012177Y018552D01*
X011436Y018422D01*
X010989Y019028D01*
X010906Y019079D01*
X010601Y019492D01*
X012901Y020545D01*
X012413Y021068D02*
X011311Y020915D01*
X011659Y020974D01*
X011728Y020949D01*
X012413Y021068D01*
X012710Y021490D02*
X013144Y022424D01*
X012857Y021859D01*
X012861Y021785D01*
X012710Y021490D01*
X013144Y022424D02*
X012065Y022424D01*
X010601Y019492D01*
X010486Y019262D01*
X009314Y016914D01*
X009829Y016426D01*
X009916Y016519D01*
X010185Y016266D01*
X010133Y016211D01*
X010132Y016193D01*
X010595Y015758D01*
X010785Y016392D01*
X010700Y016418D01*
X010803Y016761D01*
X010923Y016725D01*
X011171Y017552D01*
X011163Y017650D01*
X011379Y018370D01*
X010831Y018886D01*
X010787Y018978D01*
X010486Y019262D01*
X009315Y016916D01*
X007913Y014839D01*
X008003Y014756D01*
X008707Y015021D01*
X008805Y015019D01*
X009614Y015323D01*
X009569Y015440D01*
X009904Y015566D01*
X009936Y015483D01*
X010556Y015716D01*
X010090Y016148D01*
X010073Y016146D01*
X010021Y016090D01*
X009750Y016342D01*
X009837Y016435D01*
X009315Y016916D01*
X009141Y016568D01*
X009614Y015323D02*
X009658Y015205D01*
X009993Y015331D01*
X009961Y015415D01*
X010582Y015648D01*
X010516Y015016D01*
X010501Y015006D01*
X010426Y015014D01*
X010594Y015008D02*
X010664Y015639D01*
X011220Y015280D01*
X011172Y015205D01*
X011473Y015011D01*
X011541Y015116D01*
X012267Y014648D01*
X012323Y014568D01*
X012956Y014160D01*
X012873Y013412D01*
X012900Y013313D01*
X012805Y012456D01*
X012935Y012441D01*
X012894Y012075D01*
X012819Y012083D01*
X012800Y012071D01*
X012731Y011441D01*
X015289Y012386D01*
X015375Y013169D01*
X015418Y013228D01*
X015515Y014083D01*
X015388Y014097D01*
X015428Y014464D01*
X015504Y014456D01*
X015518Y014466D01*
X015588Y015097D01*
X014966Y014867D01*
X014997Y014784D01*
X014662Y014660D01*
X014618Y014777D01*
X013808Y014478D01*
X013735Y014413D01*
X013029Y014152D01*
X012947Y013403D01*
X012900Y013313D01*
X012805Y012456D02*
X012675Y012469D01*
X012635Y012103D01*
X012711Y012095D01*
X012726Y012079D01*
X012657Y011449D01*
X010928Y012553D01*
X010947Y012384D02*
X011580Y011801D01*
X011493Y011708D01*
X011764Y011457D01*
X011816Y011512D01*
X011833Y011514D01*
X012299Y011082D01*
X011679Y010849D01*
X011648Y010933D01*
X011313Y010807D01*
X011357Y010689D01*
X010548Y010385D01*
X010476Y010319D01*
X009772Y010054D01*
X009694Y009305D01*
X009647Y009215D01*
X009558Y008357D01*
X009688Y008343D01*
X009649Y007976D01*
X009573Y007984D01*
X009555Y007972D01*
X009490Y007342D01*
X012042Y008302D01*
X012123Y009085D01*
X012166Y009144D01*
X012258Y010000D01*
X012385Y009986D01*
X012425Y010353D01*
X012350Y010361D01*
X012338Y010374D01*
X012407Y011006D01*
X012964Y010646D01*
X012915Y010571D01*
X013216Y010377D01*
X013284Y010482D01*
X014010Y010014D01*
X014067Y009934D01*
X014699Y009526D01*
X014616Y008778D01*
X014643Y008680D01*
X014548Y007822D01*
X014678Y007807D01*
X014637Y007441D01*
X014562Y007449D01*
X014543Y007437D01*
X014474Y006807D01*
X017032Y007752D01*
X017118Y008535D01*
X017161Y008594D01*
X017258Y009449D01*
X017385Y009434D01*
X017427Y009801D01*
X017352Y009810D01*
X017340Y009823D01*
X017414Y010454D01*
X017968Y010091D01*
X017919Y010017D01*
X018219Y009821D01*
X018288Y009926D01*
X019011Y009453D01*
X019067Y009373D01*
X019696Y008961D01*
X019609Y008213D01*
X019629Y008140D01*
X018336Y006936D01*
X017100Y007745D01*
X017190Y008527D01*
X017161Y008594D01*
X017258Y009449D02*
X017131Y009463D01*
X017172Y009830D01*
X017247Y009822D01*
X017262Y009832D01*
X017331Y010463D01*
X016710Y010234D01*
X016741Y010150D01*
X016405Y010026D01*
X016361Y010144D01*
X015551Y009844D01*
X015453Y009847D01*
X014747Y009586D01*
X014199Y010101D01*
X014104Y010138D01*
X013474Y010729D01*
X013563Y010824D01*
X013294Y011076D01*
X013242Y011021D01*
X013220Y011017D01*
X012758Y011451D01*
X015316Y012396D01*
X015890Y011858D01*
X015962Y011841D01*
X016591Y011254D01*
X016504Y011162D01*
X016773Y010909D01*
X016825Y010964D01*
X016843Y010966D01*
X017306Y010531D01*
X016685Y010302D01*
X016654Y010386D01*
X016318Y010261D01*
X016361Y010144D01*
X015551Y009844D02*
X015478Y009779D01*
X014772Y009518D01*
X014691Y008770D01*
X014643Y008680D01*
X014548Y007822D02*
X014419Y007836D01*
X014379Y007469D01*
X014454Y007461D01*
X014470Y007445D01*
X014400Y006816D01*
X012109Y008295D01*
X012195Y009077D01*
X012166Y009144D01*
X012258Y010000D02*
X012131Y010013D01*
X012169Y010380D01*
X012245Y010372D01*
X012259Y010383D01*
X012325Y011014D01*
X011705Y010781D01*
X011736Y010698D01*
X011401Y010571D01*
X011357Y010689D01*
X010548Y010385D02*
X010451Y010387D01*
X009746Y010122D01*
X009696Y010068D02*
X009485Y009345D01*
X009495Y009248D01*
X009253Y008418D01*
X009132Y008454D01*
X009032Y008110D01*
X009118Y008085D01*
X008933Y007449D01*
X008467Y007880D01*
X008467Y007898D01*
X008519Y007954D01*
X008248Y008205D01*
X008161Y008111D01*
X007532Y008698D01*
X007510Y008768D01*
X006932Y009303D01*
X006158Y009162D01*
X006102Y009115D01*
X005605Y009023D01*
X006350Y011714D01*
X006689Y011775D01*
X006713Y011647D01*
X007075Y011713D01*
X007061Y011788D01*
X007072Y011808D01*
X007695Y011921D01*
X006932Y009303D01*
X006886Y009253D02*
X007460Y008715D01*
X007532Y008698D01*
X006886Y009253D02*
X005883Y008882D01*
X006140Y008753D02*
X005391Y007261D01*
X005674Y006995D01*
X005717Y006903D01*
X006267Y006389D01*
X006052Y005667D01*
X006061Y005570D01*
X005814Y004742D01*
X005694Y004778D01*
X005591Y004435D01*
X005677Y004409D01*
X005488Y003774D01*
X005024Y004209D01*
X005025Y004226D01*
X005077Y004282D01*
X004807Y004534D01*
X004720Y004441D01*
X004094Y005032D01*
X004073Y005102D01*
X003618Y005529D01*
X003925Y006145D02*
X001464Y001214D01*
X001499Y001214D01*
X005572Y003672D02*
X005970Y003142D01*
X006041Y003196D01*
X006256Y002909D01*
X006155Y002834D01*
X006674Y002143D01*
X006757Y002092D01*
X007209Y001490D01*
X007949Y001625D01*
X008049Y001605D01*
X008898Y001760D01*
X008875Y001888D01*
X009238Y001954D01*
X009252Y001879D01*
X009268Y001865D01*
X009892Y001979D01*
X008255Y004160D01*
X007481Y004019D01*
X007412Y004043D01*
X006565Y003892D01*
X006543Y004017D01*
X006179Y003953D01*
X006192Y003879D01*
X006183Y003864D01*
X005557Y003754D01*
X005747Y004389D01*
X005832Y004363D01*
X005934Y004706D01*
X005814Y004742D01*
X006061Y005570D02*
X006121Y005647D01*
X006336Y006368D01*
X007078Y006498D01*
X007164Y006551D01*
X008014Y006701D01*
X008037Y006572D01*
X007931Y007000D02*
X007121Y006701D01*
X007023Y006703D01*
X006317Y006443D01*
X005768Y006958D01*
X005674Y006995D01*
X005391Y007261D02*
X004703Y005889D01*
X004112Y006184D01*
X003925Y006145D01*
X005572Y003672D02*
X006197Y003786D01*
X006211Y003775D01*
X006224Y003700D01*
X006588Y003766D01*
X006565Y003892D01*
X007412Y004043D02*
X007468Y004090D01*
X008243Y004227D01*
X008818Y003688D01*
X008839Y003618D01*
X009465Y003028D01*
X009552Y003121D01*
X009822Y002868D01*
X009770Y002813D01*
X009769Y002795D01*
X010233Y002361D01*
X010422Y002996D01*
X010336Y003021D01*
X010438Y003364D01*
X010559Y003329D01*
X010805Y004157D01*
X010866Y004233D01*
X011081Y004954D01*
X011822Y005084D01*
X011909Y005138D01*
X012759Y005287D01*
X012782Y005159D01*
X013145Y005223D01*
X013132Y005298D01*
X013142Y005317D01*
X013412Y005229D01*
X012988Y002813D01*
X013562Y002275D01*
X013584Y002204D01*
X014210Y001614D01*
X014297Y001707D01*
X014566Y001455D01*
X014515Y001399D01*
X014514Y001382D01*
X014694Y001213D01*
X015057Y001213D01*
X015167Y001582D01*
X015081Y001608D01*
X015183Y001951D01*
X015304Y001915D01*
X015550Y002743D01*
X015541Y002840D01*
X015756Y003562D01*
X015404Y003919D01*
X015416Y003973D02*
X015807Y003615D01*
X015832Y003547D02*
X015750Y002799D01*
X015702Y002709D01*
X015608Y001851D01*
X015738Y001837D01*
X015697Y001470D01*
X015621Y001479D01*
X015603Y001467D01*
X015575Y001213D01*
X016551Y001213D01*
X018092Y001782D01*
X018178Y002564D01*
X018221Y002624D01*
X018318Y003479D01*
X018444Y003464D01*
X018487Y003831D01*
X018412Y003840D01*
X018400Y003853D01*
X018473Y004484D01*
X019028Y004121D01*
X018979Y004046D01*
X019278Y003850D01*
X019347Y003955D01*
X020070Y003482D01*
X020166Y003463D01*
X020796Y003051D01*
X021446Y003431D01*
X021546Y003446D01*
X022292Y003881D01*
X022358Y003768D01*
X022676Y003954D01*
X022638Y004020D01*
X022641Y004042D01*
X023189Y004361D01*
X023364Y001639D01*
X022684Y001243D01*
X022647Y001179D01*
X021037Y001213D01*
X021032Y001289D01*
X020906Y001281D01*
X020851Y002143D01*
X020881Y002236D01*
X020833Y002987D01*
X021483Y003366D01*
X021546Y003446D01*
X022292Y003881D02*
X022227Y003994D01*
X022545Y004179D01*
X022583Y004114D01*
X022604Y004106D01*
X023151Y004425D01*
X020869Y005918D01*
X020189Y005521D01*
X020116Y005521D01*
X019371Y005089D01*
X019308Y005200D01*
X018988Y005016D01*
X019025Y004950D01*
X019022Y004933D01*
X018471Y004616D01*
X018433Y005277D01*
X018522Y005283D01*
X018501Y005640D01*
X018375Y005633D01*
X018325Y006495D01*
X018356Y006588D01*
X018336Y006936D01*
X018312Y007339D01*
X018965Y007714D01*
X019028Y007794D01*
X019776Y008224D01*
X019842Y008111D01*
X020161Y008295D01*
X020123Y008361D01*
X020126Y008383D01*
X020676Y008699D01*
X020835Y005977D01*
X021558Y005666D01*
X021603Y005608D01*
X022393Y005266D01*
X022442Y005383D01*
X022782Y005238D01*
X022752Y005168D01*
X022758Y005151D01*
X023341Y004901D01*
X023303Y005562D01*
X023213Y005557D01*
X023193Y005914D01*
X023318Y005922D01*
X023268Y006784D01*
X023298Y006877D01*
X023254Y007628D01*
X023907Y008003D01*
X023971Y008083D01*
X024719Y008513D01*
X024784Y008400D01*
X025103Y008584D01*
X025065Y008650D01*
X025069Y008672D01*
X025618Y008988D01*
X025294Y009453D02*
X024710Y009704D01*
X024695Y009696D01*
X024665Y009626D01*
X024325Y009772D01*
X024376Y009889D01*
X024425Y010007D01*
X024765Y009863D01*
X024736Y009793D01*
X024741Y009777D01*
X025327Y009530D01*
X025284Y010191D01*
X025195Y010185D01*
X025172Y010542D01*
X025297Y010550D01*
X025242Y011413D02*
X025200Y011501D01*
X025152Y012252D01*
X024458Y012544D01*
X024385Y012615D01*
X023590Y012951D01*
X023539Y012831D01*
X023199Y012975D01*
X023229Y013044D01*
X023223Y013066D01*
X022639Y013312D01*
X022814Y010591D01*
X023539Y010284D01*
X023584Y010226D01*
X024376Y009889D01*
X023584Y010226D02*
X023511Y010218D01*
X022788Y010528D01*
X022602Y011293D01*
X022622Y011364D01*
X022422Y012200D01*
X022298Y012170D01*
X022211Y012529D01*
X022284Y012547D01*
X022294Y012561D01*
X022144Y013178D01*
X021639Y012751D01*
X021696Y012682D01*
X021423Y012451D01*
X021342Y012547D01*
X020682Y011989D01*
X020636Y011903D01*
X020061Y011417D01*
X020240Y010686D01*
X020225Y010585D01*
X020429Y009746D01*
X020556Y009777D01*
X020643Y009418D01*
X020569Y009401D01*
X020555Y009383D01*
X020705Y008767D01*
X022788Y010528D01*
X024457Y008863D02*
X024538Y008767D01*
X023879Y008209D01*
X023786Y008178D01*
X023211Y007692D01*
X022520Y007989D01*
X022418Y007992D01*
X021625Y008332D01*
X021676Y008453D01*
X021337Y008597D01*
X021307Y008528D01*
X021288Y008517D01*
X020705Y008767D01*
X020676Y008699D02*
X021259Y008449D01*
X021264Y008428D01*
X021234Y008358D01*
X021573Y008212D01*
X021625Y008332D01*
X022418Y007992D02*
X022490Y007920D01*
X023182Y007624D01*
X023226Y006873D01*
X023268Y006784D01*
X023318Y005922D02*
X023443Y005929D01*
X023464Y005572D01*
X023375Y005566D01*
X023414Y004905D01*
X023964Y005222D01*
X023968Y005239D01*
X023930Y005305D01*
X024250Y005489D01*
X024313Y005378D01*
X025058Y005810D02*
X025095Y005873D01*
X025778Y006266D01*
X024457Y008863D02*
X024731Y009094D01*
X024788Y009026D01*
X025294Y009453D01*
X027304Y013469D02*
X027580Y013630D01*
X025365Y015310D02*
X025438Y015939D01*
X025456Y015951D01*
X025532Y015942D01*
X025575Y016308D01*
X025445Y016324D01*
X025545Y017181D01*
X025593Y017271D01*
X025679Y018019D01*
X026387Y018275D01*
X026459Y018340D01*
X027271Y018635D01*
X027314Y018517D01*
X027651Y018639D01*
X027620Y018723D01*
X028243Y018949D01*
X028170Y018318D01*
X028156Y018183D01*
X028080Y018317D01*
X028038Y017950D01*
X028164Y017935D01*
X028063Y017081D01*
X028019Y017022D01*
X027928Y016240D01*
X025445Y016324D02*
X025315Y016338D01*
X025273Y015972D01*
X025349Y015963D01*
X025364Y015948D01*
X025291Y015318D01*
X023009Y016811D01*
X023099Y017593D01*
X023071Y017660D01*
X023167Y018515D01*
X023294Y018500D01*
X023337Y018867D01*
X023261Y018876D01*
X023249Y018889D01*
X023323Y019520D01*
X023877Y019158D01*
X023828Y019083D01*
X024128Y018887D01*
X024197Y018992D01*
X024920Y018519D01*
X025015Y018500D01*
X025645Y018088D01*
X026295Y018467D01*
X026396Y018483D01*
X027141Y018917D01*
X027076Y019030D01*
X027395Y019216D01*
X027433Y019150D01*
X027453Y019142D01*
X028001Y019462D01*
X028075Y019453D02*
X030638Y020383D01*
X030729Y021165D01*
X030773Y021224D01*
X030874Y022079D01*
X030747Y022093D01*
X030786Y022423D01*
X031460Y022424D02*
X031631Y020171D01*
X032360Y019873D01*
X032406Y019816D01*
X033201Y019488D02*
X033152Y019370D01*
X033493Y019229D01*
X033522Y019299D01*
X033538Y019307D01*
X034108Y019070D01*
X033967Y021623D02*
X032665Y022424D01*
X033179Y022214D01*
X033252Y022144D01*
X033949Y021860D01*
X033967Y021623D01*
X028329Y021647D02*
X028254Y021647D01*
X028228Y021423D01*
X028254Y021324D01*
X028254Y021647D02*
X026911Y021647D01*
X026911Y022739D01*
X026015Y022739D01*
X025719Y020954D02*
X025039Y020558D01*
X024965Y020557D01*
X024221Y020126D02*
X024285Y020016D01*
X023966Y019830D01*
X023928Y019895D01*
X023911Y019901D01*
X023362Y019581D01*
X023917Y019218D01*
X023966Y019293D01*
X024265Y019097D01*
X024197Y018992D01*
X024920Y018519D02*
X024976Y018439D01*
X025606Y018027D01*
X025518Y017279D01*
X025545Y017181D01*
X025291Y015318D02*
X024743Y014999D01*
X024723Y015007D01*
X024685Y015072D01*
X024366Y014887D01*
X024431Y014774D01*
X023686Y014339D01*
X023585Y014324D01*
X022935Y013944D01*
X022305Y014356D01*
X022210Y014376D01*
X021487Y014849D01*
X021555Y014954D01*
X021256Y015150D01*
X021207Y015075D01*
X020652Y015437D01*
X021201Y015758D01*
X021218Y015752D01*
X021256Y015686D01*
X021575Y015873D01*
X021511Y015982D01*
X022255Y016414D01*
X022329Y016414D01*
X023009Y016811D01*
X022975Y016870D02*
X022292Y016477D01*
X022255Y016414D01*
X022975Y016870D02*
X022815Y019592D01*
X022266Y019276D01*
X022263Y019254D01*
X022300Y019189D01*
X021981Y019004D01*
X021916Y019117D01*
X021168Y018687D01*
X021104Y018607D01*
X020452Y018232D01*
X020495Y017481D01*
X020465Y017389D01*
X020515Y016526D01*
X020640Y016533D01*
X020661Y016176D01*
X020572Y016171D01*
X020611Y015509D01*
X021161Y015826D01*
X021165Y015843D01*
X021127Y015909D01*
X021447Y016093D01*
X021511Y015982D01*
X020500Y016166D02*
X020538Y015505D01*
X019955Y015755D01*
X019949Y015772D01*
X019979Y015842D01*
X019639Y015988D01*
X019590Y015870D01*
X018800Y016212D01*
X018756Y016270D01*
X018032Y016581D01*
X017873Y019303D01*
X018456Y019053D01*
X018461Y019032D01*
X018431Y018962D01*
X018770Y018817D01*
X018822Y018936D01*
X018873Y019057D01*
X018534Y019202D01*
X018504Y019132D01*
X018485Y019121D01*
X017903Y019372D01*
X019985Y021132D01*
X020708Y020822D01*
X020781Y020830D01*
X021573Y020493D02*
X021522Y020376D01*
X021862Y020231D01*
X021892Y020300D01*
X021908Y020308D01*
X022491Y020057D01*
X021985Y019630D01*
X021928Y019698D01*
X021654Y019467D01*
X021735Y019371D01*
X021076Y018813D01*
X020983Y018782D01*
X020408Y018296D01*
X019717Y018593D01*
X019615Y018596D01*
X018822Y018936D01*
X019615Y018596D02*
X019687Y018524D01*
X020379Y018228D01*
X020423Y017477D01*
X020465Y017389D01*
X020515Y016526D02*
X020390Y016519D01*
X020411Y016161D01*
X020500Y016166D01*
X020348Y015029D02*
X018066Y016522D01*
X017386Y016125D01*
X017313Y016125D01*
X016568Y015694D01*
X016505Y015804D01*
X016185Y015620D01*
X016223Y015554D01*
X016219Y015537D01*
X015668Y015220D01*
X015630Y015882D01*
X015719Y015887D01*
X015698Y016244D01*
X015573Y016237D01*
X015522Y017100D01*
X015553Y017192D01*
X015509Y017943D01*
X016162Y018318D01*
X016225Y018398D01*
X016973Y018828D01*
X017039Y018715D01*
X017358Y018900D01*
X017320Y018965D01*
X017323Y018987D01*
X017873Y019303D01*
X016271Y021315D02*
X016180Y021280D01*
X015427Y021285D01*
X015086Y020615D01*
X015009Y020547D01*
X014864Y022424D02*
X014591Y022424D01*
X013144Y022424D01*
X013511Y018708D02*
X013500Y018689D01*
X013513Y018614D01*
X013150Y018550D01*
X013127Y018679D01*
X013511Y018708D02*
X014135Y018816D01*
X013351Y016204D01*
X012576Y016070D01*
X012519Y016023D01*
X011672Y015873D01*
X011650Y015999D01*
X011286Y015935D01*
X011299Y015861D01*
X011290Y015846D01*
X010664Y015737D01*
X010855Y016371D01*
X010940Y016346D01*
X011043Y016689D01*
X010923Y016725D01*
X011171Y017552D02*
X011232Y017629D01*
X011448Y018350D01*
X012190Y018478D01*
X012277Y018531D01*
X015710Y015149D02*
X016259Y015469D01*
X016275Y015463D01*
X016314Y015397D01*
X016633Y015584D01*
X016568Y015694D01*
X017313Y016125D02*
X017350Y016188D01*
X018032Y016581D01*
X016613Y014665D02*
X016313Y014861D01*
X016264Y014786D01*
X015710Y015149D01*
X015670Y015088D02*
X016225Y014725D01*
X016176Y014650D01*
X016475Y014454D01*
X016544Y014560D01*
X017267Y014087D01*
X017363Y014067D01*
X017993Y013655D01*
X018643Y014035D01*
X018743Y014050D01*
X019489Y014485D01*
X019424Y014598D01*
X019742Y014783D01*
X019780Y014718D01*
X019801Y014710D01*
X020348Y015029D01*
X020591Y014517D02*
X019968Y014291D01*
X019999Y014207D01*
X019662Y014084D01*
X019619Y014203D01*
X018807Y013908D01*
X018734Y013843D01*
X018027Y013586D01*
X017940Y012838D01*
X017892Y012749D01*
X017793Y011891D01*
X017922Y011876D01*
X017879Y011510D01*
X017804Y011519D01*
X017785Y011507D01*
X017713Y010877D01*
X020276Y011808D01*
X020367Y012589D01*
X020410Y012649D01*
X020512Y013503D01*
X020385Y013517D01*
X020428Y013884D01*
X020503Y013876D01*
X020518Y013886D01*
X020591Y014517D01*
X017953Y013595D02*
X017866Y012847D01*
X017892Y012749D01*
X017953Y013595D02*
X017323Y014007D01*
X017267Y014087D01*
X016544Y014560D02*
X016613Y014665D01*
X015684Y014435D02*
X015609Y014444D01*
X015597Y014457D01*
X015670Y015088D01*
X015684Y014435D02*
X015642Y014068D01*
X015515Y014083D01*
X015418Y013228D02*
X015447Y013161D01*
X015356Y012379D01*
X017638Y010886D01*
X017712Y011516D01*
X017696Y011531D01*
X017621Y011540D01*
X017663Y011906D01*
X017793Y011891D01*
X012906Y006697D02*
X012276Y007284D01*
X012205Y007301D01*
X011631Y007840D01*
X009073Y006894D01*
X009535Y006461D01*
X009557Y006464D01*
X009609Y006519D01*
X009878Y006268D01*
X009789Y006172D01*
X010419Y005582D01*
X010513Y005544D01*
X011062Y005029D01*
X011768Y005290D01*
X011866Y005287D01*
X012676Y005587D01*
X012633Y005705D01*
X012968Y005829D01*
X012999Y005745D01*
X013621Y005974D01*
X013157Y006409D01*
X013140Y006407D01*
X013088Y006352D01*
X012818Y006605D01*
X012906Y006697D01*
X013818Y005481D02*
X016376Y006426D01*
X016950Y005888D01*
X017021Y005871D01*
X017651Y005284D01*
X017563Y005191D01*
X017833Y004938D01*
X017885Y004994D01*
X017902Y004995D01*
X018366Y004561D01*
X018391Y004493D02*
X018321Y003862D01*
X018307Y003851D01*
X018231Y003860D01*
X018191Y003492D01*
X018318Y003479D01*
X018266Y003684D02*
X016179Y003684D01*
X016179Y004747D01*
X017478Y004747D01*
X018266Y004747D01*
X018266Y003684D01*
X018513Y004544D02*
X019067Y004182D01*
X019116Y004257D01*
X019416Y004061D01*
X019347Y003955D01*
X020070Y003482D02*
X020126Y003403D01*
X020756Y002991D01*
X020669Y002243D01*
X020695Y002145D01*
X020596Y001287D01*
X020466Y001302D01*
X020455Y001213D01*
X019018Y001213D01*
X018159Y001774D01*
X018250Y002556D01*
X018221Y002624D01*
X019018Y001213D02*
X016551Y001213D01*
X015575Y001213D02*
X015057Y001213D01*
X014694Y001213D02*
X014151Y001213D01*
X011056Y001213D01*
X010900Y001420D01*
X011001Y001496D01*
X010786Y001782D01*
X010714Y001729D01*
X010317Y002258D01*
X010942Y002372D01*
X010956Y002361D01*
X010969Y002287D01*
X011333Y002353D01*
X011309Y002478D01*
X012156Y002630D01*
X012226Y002605D01*
X013000Y002746D01*
X014151Y001213D01*
X012988Y002813D02*
X012213Y002677D01*
X012156Y002630D01*
X011309Y002478D02*
X011288Y002604D01*
X010924Y002540D01*
X010937Y002465D01*
X010928Y002450D01*
X010302Y002340D01*
X010491Y002975D01*
X010577Y002949D01*
X010679Y003293D01*
X010559Y003329D01*
X010805Y004157D02*
X010797Y004254D01*
X011012Y004975D01*
X010462Y005490D01*
X010419Y005582D01*
X009789Y006172D02*
X009699Y006077D01*
X009431Y006329D01*
X009483Y006385D01*
X009485Y006407D01*
X009022Y006840D01*
X008243Y004227D01*
X007931Y007000D02*
X007888Y007118D01*
X008224Y007242D01*
X008255Y007158D01*
X008876Y007388D01*
X008413Y007823D01*
X008395Y007821D01*
X008343Y007766D01*
X008074Y008018D01*
X008161Y008111D01*
X006140Y008753D02*
X005605Y009023D01*
X005126Y009265D01*
X007922Y014853D01*
X008028Y014688D02*
X007951Y013939D01*
X007904Y013849D01*
X007814Y012990D01*
X007944Y012976D01*
X007906Y012610D01*
X007830Y012618D01*
X007811Y012606D01*
X007746Y011975D01*
X009611Y012561D01*
X010947Y012384D02*
X011063Y012276D01*
X008555Y011353D02*
X008466Y011257D01*
X008377Y011162D01*
X008107Y011413D01*
X008159Y011468D01*
X008161Y011490D01*
X007695Y011921D01*
X007746Y011975D02*
X008211Y011544D01*
X008233Y011548D01*
X008284Y011603D01*
X008555Y011353D01*
X005820Y010651D02*
X005749Y010510D01*
X008028Y014688D02*
X008733Y014953D01*
X008805Y015019D01*
X010594Y015008D02*
X010606Y014995D01*
X010682Y014987D01*
X020153Y005584D02*
X020835Y005977D01*
X020153Y005584D02*
X020116Y005521D01*
X019371Y005089D02*
X019436Y004979D01*
X019116Y004793D01*
X019078Y004859D01*
X019062Y004864D01*
X018513Y004544D01*
X015391Y004708D02*
X015391Y003645D01*
X014525Y003645D01*
X013305Y003645D01*
X013226Y003645D02*
X013226Y004708D01*
X014525Y004708D01*
X015391Y004708D01*
X014623Y004854D02*
X014354Y005106D01*
X014302Y005050D01*
X014280Y005047D01*
X013818Y005481D01*
X013412Y005229D02*
X014229Y004993D01*
X014228Y004971D01*
X014176Y004916D01*
X014444Y004663D01*
X014534Y004758D01*
X014623Y004854D01*
X011056Y001213D02*
X007037Y001213D01*
X020455Y001213D02*
X021037Y001213D01*
X025175Y001213D01*
X031222Y014725D02*
X031257Y014807D01*
X031589Y014643D01*
X031563Y014581D01*
X028075Y019453D02*
X028148Y020083D01*
X028166Y020094D01*
X028242Y020086D01*
X028285Y020452D01*
X028155Y020467D01*
D14*
X028512Y014686D02*
X029452Y014238D01*
X029288Y013870D02*
X028345Y014340D01*
X028102Y013815D02*
X029061Y013350D01*
X028866Y013002D02*
X027907Y013466D01*
X026949Y011620D02*
X027889Y011169D01*
X027636Y010685D02*
X026696Y011135D01*
X026433Y010603D02*
X027384Y010143D01*
X027250Y009831D02*
X026299Y010291D01*
X011327Y013988D02*
X010362Y014466D01*
X010212Y014224D02*
X011186Y013744D01*
X010997Y013264D02*
X010024Y013738D01*
X009872Y013378D02*
X010845Y012895D01*
X009519Y010116D02*
X008578Y010583D01*
X008468Y010373D02*
X009409Y009906D01*
X009158Y009384D02*
X008199Y009858D01*
X008101Y009645D02*
X009050Y009178D01*
D15*
X022162Y016425D02*
X022469Y016732D01*
X022469Y016579D02*
X022162Y016579D01*
X022162Y016732D02*
X022469Y016425D01*
X022315Y016425D02*
X022315Y016732D01*
X023688Y010728D02*
X023849Y010647D01*
X023688Y010325D01*
X023527Y010406D01*
X023500Y010486D01*
X023607Y010701D01*
X023688Y010728D01*
X023883Y010429D02*
X024098Y010321D01*
X024017Y010563D01*
X023856Y010241D01*
X024474Y009357D02*
X024781Y009050D01*
X024628Y009050D02*
X024628Y009357D01*
X024781Y009357D02*
X024474Y009050D01*
X024474Y009204D02*
X024781Y009204D01*
M02*
