G75*
%MOIN*%
%OFA0B0*%
%FSLAX24Y24*%
%IPPOS*%
%LPD*%
%AMOC8*
5,1,8,0,0,1.08239X$1,22.5*
%
%ADD10C,0.0000*%
%ADD11R,0.0563X0.0138*%
%ADD12R,0.0512X0.0630*%
%ADD13R,0.0236X0.0866*%
%ADD14R,0.1575X0.0984*%
%ADD15R,0.0984X0.1575*%
%ADD16R,0.0217X0.0472*%
%ADD17R,0.4098X0.4252*%
%ADD18R,0.0850X0.0420*%
%ADD19R,0.1102X0.1496*%
%ADD20R,0.1000X0.1000*%
%ADD21R,0.0512X0.0591*%
%ADD22R,0.0810X0.0240*%
D10*
X001464Y000942D02*
X003925Y005873D01*
X004132Y005942D01*
X005549Y008777D01*
X004663Y009219D01*
X008019Y015942D01*
X009141Y016296D01*
X012065Y022152D01*
X018610Y022152D01*
X019417Y022950D01*
X026966Y022950D01*
X026966Y022074D01*
X029978Y022074D01*
X030145Y022152D01*
X035785Y022152D01*
X033315Y017212D01*
X033147Y017133D01*
X031730Y014308D01*
X032586Y013885D01*
X029230Y007172D01*
X028236Y007064D01*
X025175Y000942D01*
X001464Y000942D01*
X003043Y002228D02*
X003045Y002272D01*
X003051Y002316D01*
X003061Y002359D01*
X003074Y002401D01*
X003092Y002441D01*
X003113Y002480D01*
X003137Y002517D01*
X003164Y002552D01*
X003195Y002584D01*
X003228Y002613D01*
X003264Y002639D01*
X003302Y002661D01*
X003342Y002680D01*
X003383Y002696D01*
X003426Y002708D01*
X003469Y002716D01*
X003513Y002720D01*
X003557Y002720D01*
X003601Y002716D01*
X003644Y002708D01*
X003687Y002696D01*
X003728Y002680D01*
X003768Y002661D01*
X003806Y002639D01*
X003842Y002613D01*
X003875Y002584D01*
X003906Y002552D01*
X003933Y002517D01*
X003957Y002480D01*
X003978Y002441D01*
X003996Y002401D01*
X004009Y002359D01*
X004019Y002316D01*
X004025Y002272D01*
X004027Y002228D01*
X004025Y002184D01*
X004019Y002140D01*
X004009Y002097D01*
X003996Y002055D01*
X003978Y002015D01*
X003957Y001976D01*
X003933Y001939D01*
X003906Y001904D01*
X003875Y001872D01*
X003842Y001843D01*
X003806Y001817D01*
X003768Y001795D01*
X003728Y001776D01*
X003687Y001760D01*
X003644Y001748D01*
X003601Y001740D01*
X003557Y001736D01*
X003513Y001736D01*
X003469Y001740D01*
X003426Y001748D01*
X003383Y001760D01*
X003342Y001776D01*
X003302Y001795D01*
X003264Y001817D01*
X003228Y001843D01*
X003195Y001872D01*
X003164Y001904D01*
X003137Y001939D01*
X003113Y001976D01*
X003092Y002015D01*
X003074Y002055D01*
X003061Y002097D01*
X003051Y002140D01*
X003045Y002184D01*
X003043Y002228D01*
X023864Y002345D02*
X023866Y002389D01*
X023872Y002433D01*
X023882Y002476D01*
X023895Y002518D01*
X023913Y002558D01*
X023934Y002597D01*
X023958Y002634D01*
X023985Y002669D01*
X024016Y002701D01*
X024049Y002730D01*
X024085Y002756D01*
X024123Y002778D01*
X024163Y002797D01*
X024204Y002813D01*
X024247Y002825D01*
X024290Y002833D01*
X024334Y002837D01*
X024378Y002837D01*
X024422Y002833D01*
X024465Y002825D01*
X024508Y002813D01*
X024549Y002797D01*
X024589Y002778D01*
X024627Y002756D01*
X024663Y002730D01*
X024696Y002701D01*
X024727Y002669D01*
X024754Y002634D01*
X024778Y002597D01*
X024799Y002558D01*
X024817Y002518D01*
X024830Y002476D01*
X024840Y002433D01*
X024846Y002389D01*
X024848Y002345D01*
X024846Y002301D01*
X024840Y002257D01*
X024830Y002214D01*
X024817Y002172D01*
X024799Y002132D01*
X024778Y002093D01*
X024754Y002056D01*
X024727Y002021D01*
X024696Y001989D01*
X024663Y001960D01*
X024627Y001934D01*
X024589Y001912D01*
X024549Y001893D01*
X024508Y001877D01*
X024465Y001865D01*
X024422Y001857D01*
X024378Y001853D01*
X024334Y001853D01*
X024290Y001857D01*
X024247Y001865D01*
X024204Y001877D01*
X024163Y001893D01*
X024123Y001912D01*
X024085Y001934D01*
X024049Y001960D01*
X024016Y001989D01*
X023985Y002021D01*
X023958Y002056D01*
X023934Y002093D01*
X023913Y002132D01*
X023895Y002172D01*
X023882Y002214D01*
X023872Y002257D01*
X023866Y002301D01*
X023864Y002345D01*
X012412Y020766D02*
X012414Y020810D01*
X012420Y020854D01*
X012430Y020897D01*
X012443Y020939D01*
X012461Y020979D01*
X012482Y021018D01*
X012506Y021055D01*
X012533Y021090D01*
X012564Y021122D01*
X012597Y021151D01*
X012633Y021177D01*
X012671Y021199D01*
X012711Y021218D01*
X012752Y021234D01*
X012795Y021246D01*
X012838Y021254D01*
X012882Y021258D01*
X012926Y021258D01*
X012970Y021254D01*
X013013Y021246D01*
X013056Y021234D01*
X013097Y021218D01*
X013137Y021199D01*
X013175Y021177D01*
X013211Y021151D01*
X013244Y021122D01*
X013275Y021090D01*
X013302Y021055D01*
X013326Y021018D01*
X013347Y020979D01*
X013365Y020939D01*
X013378Y020897D01*
X013388Y020854D01*
X013394Y020810D01*
X013396Y020766D01*
X013394Y020722D01*
X013388Y020678D01*
X013378Y020635D01*
X013365Y020593D01*
X013347Y020553D01*
X013326Y020514D01*
X013302Y020477D01*
X013275Y020442D01*
X013244Y020410D01*
X013211Y020381D01*
X013175Y020355D01*
X013137Y020333D01*
X013097Y020314D01*
X013056Y020298D01*
X013013Y020286D01*
X012970Y020278D01*
X012926Y020274D01*
X012882Y020274D01*
X012838Y020278D01*
X012795Y020286D01*
X012752Y020298D01*
X012711Y020314D01*
X012671Y020333D01*
X012633Y020355D01*
X012597Y020381D01*
X012564Y020410D01*
X012533Y020442D01*
X012506Y020477D01*
X012482Y020514D01*
X012461Y020553D01*
X012443Y020593D01*
X012430Y020635D01*
X012420Y020678D01*
X012414Y020722D01*
X012412Y020766D01*
X033282Y020898D02*
X033284Y020942D01*
X033290Y020986D01*
X033300Y021029D01*
X033313Y021071D01*
X033331Y021111D01*
X033352Y021150D01*
X033376Y021187D01*
X033403Y021222D01*
X033434Y021254D01*
X033467Y021283D01*
X033503Y021309D01*
X033541Y021331D01*
X033581Y021350D01*
X033622Y021366D01*
X033665Y021378D01*
X033708Y021386D01*
X033752Y021390D01*
X033796Y021390D01*
X033840Y021386D01*
X033883Y021378D01*
X033926Y021366D01*
X033967Y021350D01*
X034007Y021331D01*
X034045Y021309D01*
X034081Y021283D01*
X034114Y021254D01*
X034145Y021222D01*
X034172Y021187D01*
X034196Y021150D01*
X034217Y021111D01*
X034235Y021071D01*
X034248Y021029D01*
X034258Y020986D01*
X034264Y020942D01*
X034266Y020898D01*
X034264Y020854D01*
X034258Y020810D01*
X034248Y020767D01*
X034235Y020725D01*
X034217Y020685D01*
X034196Y020646D01*
X034172Y020609D01*
X034145Y020574D01*
X034114Y020542D01*
X034081Y020513D01*
X034045Y020487D01*
X034007Y020465D01*
X033967Y020446D01*
X033926Y020430D01*
X033883Y020418D01*
X033840Y020410D01*
X033796Y020406D01*
X033752Y020406D01*
X033708Y020410D01*
X033665Y020418D01*
X033622Y020430D01*
X033581Y020446D01*
X033541Y020465D01*
X033503Y020487D01*
X033467Y020513D01*
X033434Y020542D01*
X033403Y020574D01*
X033376Y020609D01*
X033352Y020646D01*
X033331Y020685D01*
X033313Y020725D01*
X033300Y020767D01*
X033290Y020810D01*
X033284Y020854D01*
X033282Y020898D01*
D11*
G36*
X019423Y011667D02*
X019925Y011918D01*
X019987Y011795D01*
X019485Y011544D01*
X019423Y011667D01*
G37*
G36*
X019308Y011896D02*
X019810Y012147D01*
X019872Y012024D01*
X019370Y011773D01*
X019308Y011896D01*
G37*
G36*
X019194Y012125D02*
X019696Y012376D01*
X019758Y012253D01*
X019256Y012002D01*
X019194Y012125D01*
G37*
G36*
X019079Y012354D02*
X019581Y012605D01*
X019643Y012482D01*
X019141Y012231D01*
X019079Y012354D01*
G37*
G36*
X018965Y012582D02*
X019467Y012833D01*
X019529Y012710D01*
X019027Y012459D01*
X018965Y012582D01*
G37*
G36*
X018850Y012811D02*
X019352Y013062D01*
X019414Y012939D01*
X018912Y012688D01*
X018850Y012811D01*
G37*
G36*
X016949Y011859D02*
X017451Y012110D01*
X017513Y011987D01*
X017011Y011736D01*
X016949Y011859D01*
G37*
G36*
X017064Y011630D02*
X017566Y011881D01*
X017628Y011758D01*
X017126Y011507D01*
X017064Y011630D01*
G37*
G36*
X017178Y011402D02*
X017680Y011653D01*
X017742Y011530D01*
X017240Y011279D01*
X017178Y011402D01*
G37*
G36*
X017293Y011173D02*
X017795Y011424D01*
X017857Y011301D01*
X017355Y011050D01*
X017293Y011173D01*
G37*
G36*
X017407Y010944D02*
X017909Y011195D01*
X017971Y011072D01*
X017469Y010821D01*
X017407Y010944D01*
G37*
G36*
X017522Y010715D02*
X018024Y010966D01*
X018086Y010843D01*
X017584Y010592D01*
X017522Y010715D01*
G37*
G36*
X017637Y010486D02*
X018139Y010737D01*
X018201Y010614D01*
X017699Y010363D01*
X017637Y010486D01*
G37*
G36*
X017751Y010257D02*
X018253Y010508D01*
X018315Y010385D01*
X017813Y010134D01*
X017751Y010257D01*
G37*
G36*
X019652Y011209D02*
X020154Y011460D01*
X020216Y011337D01*
X019714Y011086D01*
X019652Y011209D01*
G37*
G36*
X019537Y011438D02*
X020039Y011689D01*
X020101Y011566D01*
X019599Y011315D01*
X019537Y011438D01*
G37*
D12*
G36*
X018971Y009378D02*
X018703Y009813D01*
X019239Y010142D01*
X019507Y009707D01*
X018971Y009378D01*
G37*
G36*
X019362Y008740D02*
X019094Y009175D01*
X019630Y009504D01*
X019898Y009069D01*
X019362Y008740D01*
G37*
D13*
G36*
X023051Y012741D02*
X023174Y012540D01*
X022437Y012089D01*
X022314Y012290D01*
X023051Y012741D01*
G37*
G36*
X022789Y013167D02*
X022912Y012966D01*
X022175Y012515D01*
X022052Y012716D01*
X022789Y013167D01*
G37*
G36*
X022528Y013593D02*
X022651Y013392D01*
X021914Y012941D01*
X021791Y013142D01*
X022528Y013593D01*
G37*
G36*
X022267Y014020D02*
X022390Y013819D01*
X021653Y013368D01*
X021530Y013569D01*
X022267Y014020D01*
G37*
G36*
X022006Y014446D02*
X022129Y014245D01*
X021392Y013794D01*
X021269Y013995D01*
X022006Y014446D01*
G37*
G36*
X021744Y014872D02*
X021867Y014671D01*
X021130Y014220D01*
X021007Y014421D01*
X021744Y014872D01*
G37*
G36*
X021483Y015298D02*
X021606Y015097D01*
X020869Y014646D01*
X020746Y014847D01*
X021483Y015298D01*
G37*
G36*
X021222Y015725D02*
X021345Y015524D01*
X020608Y015073D01*
X020485Y015274D01*
X021222Y015725D01*
G37*
G36*
X022968Y016794D02*
X023091Y016593D01*
X022354Y016142D01*
X022231Y016343D01*
X022968Y016794D01*
G37*
G36*
X023229Y016368D02*
X023352Y016167D01*
X022615Y015716D01*
X022492Y015917D01*
X023229Y016368D01*
G37*
G36*
X023490Y015942D02*
X023613Y015741D01*
X022876Y015290D01*
X022753Y015491D01*
X023490Y015942D01*
G37*
G36*
X023751Y015516D02*
X023874Y015315D01*
X023137Y014864D01*
X023014Y015065D01*
X023751Y015516D01*
G37*
G36*
X024013Y015089D02*
X024136Y014888D01*
X023399Y014437D01*
X023276Y014638D01*
X024013Y015089D01*
G37*
G36*
X024274Y014663D02*
X024397Y014462D01*
X023660Y014011D01*
X023537Y014212D01*
X024274Y014663D01*
G37*
G36*
X024535Y014237D02*
X024658Y014036D01*
X023921Y013585D01*
X023798Y013786D01*
X024535Y014237D01*
G37*
G36*
X024796Y013810D02*
X024919Y013609D01*
X024182Y013158D01*
X024059Y013359D01*
X024796Y013810D01*
G37*
D14*
G36*
X031188Y016447D02*
X030366Y017788D01*
X031204Y018303D01*
X032026Y016962D01*
X031188Y016447D01*
G37*
G36*
X029542Y019133D02*
X028720Y020474D01*
X029558Y020989D01*
X030380Y019648D01*
X029542Y019133D01*
G37*
D15*
X013281Y005063D03*
X013281Y001913D03*
D16*
G36*
X015681Y008679D02*
X015865Y008792D01*
X016111Y008391D01*
X015927Y008278D01*
X015681Y008679D01*
G37*
G36*
X016318Y009070D02*
X016502Y009183D01*
X016748Y008782D01*
X016564Y008669D01*
X016318Y009070D01*
G37*
G36*
X015465Y009747D02*
X015649Y009860D01*
X015895Y009459D01*
X015711Y009346D01*
X015465Y009747D01*
G37*
G36*
X015146Y009552D02*
X015330Y009665D01*
X015576Y009264D01*
X015392Y009151D01*
X015146Y009552D01*
G37*
G36*
X015784Y009943D02*
X015968Y010056D01*
X016214Y009655D01*
X016030Y009542D01*
X015784Y009943D01*
G37*
D17*
X007530Y004245D03*
D18*
X010810Y004245D03*
X010810Y004915D03*
X010810Y005585D03*
X010810Y003575D03*
X010810Y002905D03*
D19*
X011724Y007818D03*
X008810Y007818D03*
D20*
X023722Y017713D03*
X023722Y019563D03*
D21*
G36*
X023151Y011507D02*
X022695Y011736D01*
X022959Y012263D01*
X023415Y012034D01*
X023151Y011507D01*
G37*
G36*
X023820Y011172D02*
X023364Y011401D01*
X023628Y011928D01*
X024084Y011699D01*
X023820Y011172D01*
G37*
G36*
X018575Y008329D02*
X018346Y008785D01*
X018873Y009049D01*
X019102Y008593D01*
X018575Y008329D01*
G37*
G36*
X018240Y008998D02*
X018011Y009454D01*
X018538Y009718D01*
X018767Y009262D01*
X018240Y008998D01*
G37*
D22*
G36*
X022418Y008138D02*
X023141Y007776D01*
X023034Y007562D01*
X022311Y007924D01*
X022418Y008138D01*
G37*
G36*
X022642Y008585D02*
X023365Y008223D01*
X023258Y008009D01*
X022535Y008371D01*
X022642Y008585D01*
G37*
G36*
X022866Y009032D02*
X023589Y008670D01*
X023482Y008456D01*
X022759Y008818D01*
X022866Y009032D01*
G37*
G36*
X023090Y009479D02*
X023813Y009117D01*
X023706Y008903D01*
X022983Y009265D01*
X023090Y009479D01*
G37*
G36*
X023314Y009926D02*
X024037Y009564D01*
X023930Y009350D01*
X023207Y009712D01*
X023314Y009926D01*
G37*
G36*
X023537Y010374D02*
X024260Y010012D01*
X024153Y009798D01*
X023430Y010160D01*
X023537Y010374D01*
G37*
G36*
X023761Y010821D02*
X024484Y010459D01*
X024377Y010245D01*
X023654Y010607D01*
X023761Y010821D01*
G37*
G36*
X023985Y011268D02*
X024708Y010906D01*
X024601Y010692D01*
X023878Y011054D01*
X023985Y011268D01*
G37*
G36*
X025675Y010421D02*
X026398Y010059D01*
X026291Y009845D01*
X025568Y010207D01*
X025675Y010421D01*
G37*
G36*
X025451Y009974D02*
X026174Y009612D01*
X026067Y009398D01*
X025344Y009760D01*
X025451Y009974D01*
G37*
G36*
X025227Y009527D02*
X025950Y009165D01*
X025843Y008951D01*
X025120Y009313D01*
X025227Y009527D01*
G37*
G36*
X025004Y009080D02*
X025727Y008718D01*
X025620Y008504D01*
X024897Y008866D01*
X025004Y009080D01*
G37*
G36*
X024780Y008633D02*
X025503Y008271D01*
X025396Y008057D01*
X024673Y008419D01*
X024780Y008633D01*
G37*
G36*
X024556Y008186D02*
X025279Y007824D01*
X025172Y007610D01*
X024449Y007972D01*
X024556Y008186D01*
G37*
G36*
X024332Y007739D02*
X025055Y007377D01*
X024948Y007163D01*
X024225Y007525D01*
X024332Y007739D01*
G37*
G36*
X024108Y007292D02*
X024831Y006930D01*
X024724Y006716D01*
X024001Y007078D01*
X024108Y007292D01*
G37*
M02*
