%
M48
M72
T01C0.0236
T02C0.0276
T03C0.0315
T04C0.0394
T05C0.0400
T06C0.0472
T07C0.0512
T08C0.0630
T09C0.0866
T10C0.0984
%
T01
X21517Y11454
X17043Y8424
X24603Y7098
X17579Y8891
X19392Y14266
X20579Y18391
X23144Y12299
X26017Y13766
X20704Y20329
X24829Y18026
X23892Y16579
X16017Y10766
X19204Y8521
X22329Y16329
X26329Y11574
X15517Y11079
X18494Y8183
X23661Y10657
X21579Y10361
X23454Y14141
X26767Y12516
X24954Y16141
X20704Y14391
X25767Y19704
X20517Y5141
X27767Y14204
X23142Y5141
X16204Y5266
X21767Y17016
X20978Y6176
X14353Y6206
X26454Y17016
X22704Y15454
X23204Y14579
X20517Y13704
X17142Y10704
X14954Y11079
X25892Y12016
X15899Y7167
X14767Y9454
X25892Y12579
T02
X17935Y19831
X18525Y19831
X19116Y19831
X19706Y19831
X20277Y19831
X20868Y19831
X21458Y19831
X22049Y19831
T03
X17454Y15891
X18790Y15891
X20079Y17454
X18468Y9000
X22599Y18635
X12142Y8454
X11142Y10891
X11142Y8516
T04
X26274Y14609
X12739Y15368
X27575Y18089
X28295Y17032
X27629Y17364
X13079Y5065
T05
X26417Y8938
X25963Y8047
X25509Y7156
X25055Y6265
X24601Y5374
T06
X18579Y11891
X8418Y5461
X9058Y7840
X8253Y8171
X9648Y8430
T07
X22645Y3531
T08
X32608Y20502
T09
X16746Y14853
X20498Y8781
T10
X3473Y2453
X33772Y21185
X12892Y21079
X24342Y2550
M30
