G75*
%MOIN*%
%OFA0B0*%
%FSLAX24Y24*%
%IPPOS*%
%LPD*%
%AMOC8*
5,1,8,0,0,1.08239X$1,22.5*
%
%ADD10C,0.0000*%
%ADD11C,0.0100*%
%ADD12C,0.0039*%
%ADD13C,0.0030*%
%ADD14C,0.0020*%
%ADD15C,0.0120*%
%ADD16C,0.0060*%
%ADD17C,0.0080*%
%ADD18C,0.0040*%
%ADD19R,0.0660X0.0380*%
%ADD20R,0.0492X0.2441*%
%ADD21C,0.0050*%
D10*
X001464Y000942D02*
X003925Y005873D01*
X004112Y005912D01*
X004642Y005647D01*
X006093Y008539D01*
X005142Y009018D01*
X008482Y015706D01*
X009141Y016296D01*
X012065Y022152D01*
X018610Y022152D01*
X019397Y022467D01*
X026907Y022467D01*
X026907Y021414D01*
X030047Y021414D01*
X030047Y022074D01*
X030145Y022152D01*
X035785Y022152D01*
X033275Y017133D01*
X033147Y017113D01*
X032557Y017408D01*
X031120Y014554D01*
X032097Y014066D01*
X028748Y007379D01*
X028236Y007064D01*
X025175Y000942D01*
X001464Y000942D01*
X002981Y002181D02*
X002983Y002225D01*
X002989Y002269D01*
X002999Y002312D01*
X003012Y002354D01*
X003030Y002394D01*
X003051Y002433D01*
X003075Y002470D01*
X003102Y002505D01*
X003133Y002537D01*
X003166Y002566D01*
X003202Y002592D01*
X003240Y002614D01*
X003280Y002633D01*
X003321Y002649D01*
X003364Y002661D01*
X003407Y002669D01*
X003451Y002673D01*
X003495Y002673D01*
X003539Y002669D01*
X003582Y002661D01*
X003625Y002649D01*
X003666Y002633D01*
X003706Y002614D01*
X003744Y002592D01*
X003780Y002566D01*
X003813Y002537D01*
X003844Y002505D01*
X003871Y002470D01*
X003895Y002433D01*
X003916Y002394D01*
X003934Y002354D01*
X003947Y002312D01*
X003957Y002269D01*
X003963Y002225D01*
X003965Y002181D01*
X003963Y002137D01*
X003957Y002093D01*
X003947Y002050D01*
X003934Y002008D01*
X003916Y001968D01*
X003895Y001929D01*
X003871Y001892D01*
X003844Y001857D01*
X003813Y001825D01*
X003780Y001796D01*
X003744Y001770D01*
X003706Y001748D01*
X003666Y001729D01*
X003625Y001713D01*
X003582Y001701D01*
X003539Y001693D01*
X003495Y001689D01*
X003451Y001689D01*
X003407Y001693D01*
X003364Y001701D01*
X003321Y001713D01*
X003280Y001729D01*
X003240Y001748D01*
X003202Y001770D01*
X003166Y001796D01*
X003133Y001825D01*
X003102Y001857D01*
X003075Y001892D01*
X003051Y001929D01*
X003030Y001968D01*
X003012Y002008D01*
X002999Y002050D01*
X002989Y002093D01*
X002983Y002137D01*
X002981Y002181D01*
X016313Y014581D02*
X016315Y014622D01*
X016321Y014663D01*
X016331Y014703D01*
X016344Y014742D01*
X016361Y014779D01*
X016382Y014815D01*
X016406Y014849D01*
X016433Y014880D01*
X016462Y014908D01*
X016495Y014934D01*
X016529Y014956D01*
X016566Y014975D01*
X016604Y014990D01*
X016644Y015002D01*
X016684Y015010D01*
X016725Y015014D01*
X016767Y015014D01*
X016808Y015010D01*
X016848Y015002D01*
X016888Y014990D01*
X016926Y014975D01*
X016962Y014956D01*
X016997Y014934D01*
X017030Y014908D01*
X017059Y014880D01*
X017086Y014849D01*
X017110Y014815D01*
X017131Y014779D01*
X017148Y014742D01*
X017161Y014703D01*
X017171Y014663D01*
X017177Y014622D01*
X017179Y014581D01*
X017177Y014540D01*
X017171Y014499D01*
X017161Y014459D01*
X017148Y014420D01*
X017131Y014383D01*
X017110Y014347D01*
X017086Y014313D01*
X017059Y014282D01*
X017030Y014254D01*
X016997Y014228D01*
X016963Y014206D01*
X016926Y014187D01*
X016888Y014172D01*
X016848Y014160D01*
X016808Y014152D01*
X016767Y014148D01*
X016725Y014148D01*
X016684Y014152D01*
X016644Y014160D01*
X016604Y014172D01*
X016566Y014187D01*
X016530Y014206D01*
X016495Y014228D01*
X016462Y014254D01*
X016433Y014282D01*
X016406Y014313D01*
X016382Y014347D01*
X016361Y014383D01*
X016344Y014420D01*
X016331Y014459D01*
X016321Y014499D01*
X016315Y014540D01*
X016313Y014581D01*
X020065Y008510D02*
X020067Y008551D01*
X020073Y008592D01*
X020083Y008632D01*
X020096Y008671D01*
X020113Y008708D01*
X020134Y008744D01*
X020158Y008778D01*
X020185Y008809D01*
X020214Y008837D01*
X020247Y008863D01*
X020281Y008885D01*
X020318Y008904D01*
X020356Y008919D01*
X020396Y008931D01*
X020436Y008939D01*
X020477Y008943D01*
X020519Y008943D01*
X020560Y008939D01*
X020600Y008931D01*
X020640Y008919D01*
X020678Y008904D01*
X020714Y008885D01*
X020749Y008863D01*
X020782Y008837D01*
X020811Y008809D01*
X020838Y008778D01*
X020862Y008744D01*
X020883Y008708D01*
X020900Y008671D01*
X020913Y008632D01*
X020923Y008592D01*
X020929Y008551D01*
X020931Y008510D01*
X020929Y008469D01*
X020923Y008428D01*
X020913Y008388D01*
X020900Y008349D01*
X020883Y008312D01*
X020862Y008276D01*
X020838Y008242D01*
X020811Y008211D01*
X020782Y008183D01*
X020749Y008157D01*
X020715Y008135D01*
X020678Y008116D01*
X020640Y008101D01*
X020600Y008089D01*
X020560Y008081D01*
X020519Y008077D01*
X020477Y008077D01*
X020436Y008081D01*
X020396Y008089D01*
X020356Y008101D01*
X020318Y008116D01*
X020282Y008135D01*
X020247Y008157D01*
X020214Y008183D01*
X020185Y008211D01*
X020158Y008242D01*
X020134Y008276D01*
X020113Y008312D01*
X020096Y008349D01*
X020083Y008388D01*
X020073Y008428D01*
X020067Y008469D01*
X020065Y008510D01*
X023850Y002278D02*
X023852Y002322D01*
X023858Y002366D01*
X023868Y002409D01*
X023881Y002451D01*
X023899Y002491D01*
X023920Y002530D01*
X023944Y002567D01*
X023971Y002602D01*
X024002Y002634D01*
X024035Y002663D01*
X024071Y002689D01*
X024109Y002711D01*
X024149Y002730D01*
X024190Y002746D01*
X024233Y002758D01*
X024276Y002766D01*
X024320Y002770D01*
X024364Y002770D01*
X024408Y002766D01*
X024451Y002758D01*
X024494Y002746D01*
X024535Y002730D01*
X024575Y002711D01*
X024613Y002689D01*
X024649Y002663D01*
X024682Y002634D01*
X024713Y002602D01*
X024740Y002567D01*
X024764Y002530D01*
X024785Y002491D01*
X024803Y002451D01*
X024816Y002409D01*
X024826Y002366D01*
X024832Y002322D01*
X024834Y002278D01*
X024832Y002234D01*
X024826Y002190D01*
X024816Y002147D01*
X024803Y002105D01*
X024785Y002065D01*
X024764Y002026D01*
X024740Y001989D01*
X024713Y001954D01*
X024682Y001922D01*
X024649Y001893D01*
X024613Y001867D01*
X024575Y001845D01*
X024535Y001826D01*
X024494Y001810D01*
X024451Y001798D01*
X024408Y001790D01*
X024364Y001786D01*
X024320Y001786D01*
X024276Y001790D01*
X024233Y001798D01*
X024190Y001810D01*
X024149Y001826D01*
X024109Y001845D01*
X024071Y001867D01*
X024035Y001893D01*
X024002Y001922D01*
X023971Y001954D01*
X023944Y001989D01*
X023920Y002026D01*
X023899Y002065D01*
X023881Y002105D01*
X023868Y002147D01*
X023858Y002190D01*
X023852Y002234D01*
X023850Y002278D01*
X012400Y020808D02*
X012402Y020852D01*
X012408Y020896D01*
X012418Y020939D01*
X012431Y020981D01*
X012449Y021021D01*
X012470Y021060D01*
X012494Y021097D01*
X012521Y021132D01*
X012552Y021164D01*
X012585Y021193D01*
X012621Y021219D01*
X012659Y021241D01*
X012699Y021260D01*
X012740Y021276D01*
X012783Y021288D01*
X012826Y021296D01*
X012870Y021300D01*
X012914Y021300D01*
X012958Y021296D01*
X013001Y021288D01*
X013044Y021276D01*
X013085Y021260D01*
X013125Y021241D01*
X013163Y021219D01*
X013199Y021193D01*
X013232Y021164D01*
X013263Y021132D01*
X013290Y021097D01*
X013314Y021060D01*
X013335Y021021D01*
X013353Y020981D01*
X013366Y020939D01*
X013376Y020896D01*
X013382Y020852D01*
X013384Y020808D01*
X013382Y020764D01*
X013376Y020720D01*
X013366Y020677D01*
X013353Y020635D01*
X013335Y020595D01*
X013314Y020556D01*
X013290Y020519D01*
X013263Y020484D01*
X013232Y020452D01*
X013199Y020423D01*
X013163Y020397D01*
X013125Y020375D01*
X013085Y020356D01*
X013044Y020340D01*
X013001Y020328D01*
X012958Y020320D01*
X012914Y020316D01*
X012870Y020316D01*
X012826Y020320D01*
X012783Y020328D01*
X012740Y020340D01*
X012699Y020356D01*
X012659Y020375D01*
X012621Y020397D01*
X012585Y020423D01*
X012552Y020452D01*
X012521Y020484D01*
X012494Y020519D01*
X012470Y020556D01*
X012449Y020595D01*
X012431Y020635D01*
X012418Y020677D01*
X012408Y020720D01*
X012402Y020764D01*
X012400Y020808D01*
X033280Y020913D02*
X033282Y020957D01*
X033288Y021001D01*
X033298Y021044D01*
X033311Y021086D01*
X033329Y021126D01*
X033350Y021165D01*
X033374Y021202D01*
X033401Y021237D01*
X033432Y021269D01*
X033465Y021298D01*
X033501Y021324D01*
X033539Y021346D01*
X033579Y021365D01*
X033620Y021381D01*
X033663Y021393D01*
X033706Y021401D01*
X033750Y021405D01*
X033794Y021405D01*
X033838Y021401D01*
X033881Y021393D01*
X033924Y021381D01*
X033965Y021365D01*
X034005Y021346D01*
X034043Y021324D01*
X034079Y021298D01*
X034112Y021269D01*
X034143Y021237D01*
X034170Y021202D01*
X034194Y021165D01*
X034215Y021126D01*
X034233Y021086D01*
X034246Y021044D01*
X034256Y021001D01*
X034262Y020957D01*
X034264Y020913D01*
X034262Y020869D01*
X034256Y020825D01*
X034246Y020782D01*
X034233Y020740D01*
X034215Y020700D01*
X034194Y020661D01*
X034170Y020624D01*
X034143Y020589D01*
X034112Y020557D01*
X034079Y020528D01*
X034043Y020502D01*
X034005Y020480D01*
X033965Y020461D01*
X033924Y020445D01*
X033881Y020433D01*
X033838Y020425D01*
X033794Y020421D01*
X033750Y020421D01*
X033706Y020425D01*
X033663Y020433D01*
X033620Y020445D01*
X033579Y020461D01*
X033539Y020480D01*
X033501Y020502D01*
X033465Y020528D01*
X033432Y020557D01*
X033401Y020589D01*
X033374Y020624D01*
X033350Y020661D01*
X033329Y020700D01*
X033311Y020740D01*
X033298Y020782D01*
X033288Y020825D01*
X033282Y020869D01*
X033280Y020913D01*
D11*
X024132Y013019D02*
X023266Y012467D01*
X021179Y015814D02*
X022084Y016326D01*
D12*
X023771Y013255D02*
X023773Y013277D01*
X023778Y013297D01*
X023788Y013317D01*
X023800Y013335D01*
X023815Y013350D01*
X023833Y013362D01*
X023853Y013372D01*
X023873Y013377D01*
X023895Y013379D01*
X023917Y013377D01*
X023937Y013372D01*
X023957Y013362D01*
X023975Y013350D01*
X023990Y013335D01*
X024002Y013317D01*
X024012Y013297D01*
X024017Y013277D01*
X024019Y013255D01*
X024017Y013233D01*
X024012Y013213D01*
X024002Y013193D01*
X023990Y013175D01*
X023975Y013160D01*
X023957Y013148D01*
X023937Y013138D01*
X023917Y013133D01*
X023895Y013131D01*
X023873Y013133D01*
X023853Y013138D01*
X023833Y013148D01*
X023815Y013160D01*
X023800Y013175D01*
X023788Y013193D01*
X023778Y013213D01*
X023773Y013233D01*
X023771Y013255D01*
X019361Y011381D02*
X018825Y012433D01*
X018822Y012420D02*
X017769Y011884D01*
X017761Y011861D02*
X018297Y010809D01*
X018300Y010822D02*
X019352Y011358D01*
X027132Y008480D02*
X027324Y008862D01*
X027500Y009214D02*
X027691Y009596D01*
X027867Y009948D02*
X028059Y010331D01*
X028235Y010683D02*
X028426Y011065D01*
X028602Y011417D02*
X028794Y011799D01*
X028970Y012151D02*
X029161Y012533D01*
X029337Y012885D02*
X029529Y013267D01*
X029705Y013619D02*
X029896Y014002D01*
X030072Y014354D02*
X030263Y014736D01*
X030146Y015049D02*
X029741Y015252D01*
X029389Y015428D02*
X028984Y015631D01*
X028896Y016260D02*
X029144Y016758D01*
X029320Y017111D02*
X029569Y017609D01*
X029744Y017961D02*
X029993Y018459D01*
X030268Y018489D02*
X030726Y018260D01*
X031078Y018084D02*
X031536Y017855D01*
X031888Y017678D02*
X032345Y017449D01*
X030047Y018765D02*
X030047Y019277D01*
X030047Y019670D02*
X030047Y020182D01*
X030047Y020576D02*
X030047Y021088D01*
X029604Y018579D02*
X029047Y018578D01*
X028654Y018577D02*
X028097Y018576D01*
X027703Y018576D02*
X027146Y018575D01*
X026892Y018705D02*
X026892Y019219D01*
X026892Y019612D02*
X026892Y020126D01*
X026892Y020520D02*
X026892Y021034D01*
X026892Y021427D02*
X026892Y021941D01*
X026452Y020517D02*
X026014Y020517D01*
X025620Y020517D02*
X025182Y020517D01*
X024789Y020516D02*
X024351Y020516D01*
X023957Y020516D02*
X023519Y020516D01*
X019406Y021511D02*
X019409Y022226D01*
X010145Y014922D02*
X009583Y015205D01*
X009231Y015382D02*
X008669Y015665D01*
X010138Y014611D02*
X009947Y014229D01*
X009771Y013877D02*
X009580Y013494D01*
X009404Y013142D02*
X009212Y012760D01*
X009036Y012408D02*
X008845Y012026D01*
X008669Y011674D02*
X008477Y011292D01*
X008301Y010940D02*
X008110Y010558D01*
X007934Y010206D02*
X007742Y009823D01*
X007566Y009471D02*
X007375Y009089D01*
X007199Y008737D02*
X007007Y008355D01*
X007109Y008006D02*
X007514Y007803D01*
X007866Y007627D02*
X008271Y007424D01*
X008493Y006959D02*
X008244Y006461D01*
X008069Y006109D02*
X007820Y005611D01*
X007644Y005258D02*
X007396Y004760D01*
X007095Y004574D02*
X006638Y004803D01*
X006286Y004980D02*
X005828Y005209D01*
X005476Y005385D02*
X005018Y005614D01*
X027169Y008165D02*
X027731Y007882D01*
X028083Y007705D02*
X028645Y007422D01*
D13*
X025980Y008683D02*
X025937Y008661D01*
X025872Y008683D01*
X025850Y008618D01*
X025807Y008597D01*
X025742Y008618D01*
X025699Y008705D01*
X025721Y008770D01*
X025719Y008882D02*
X025893Y008968D01*
X025894Y008856D02*
X025959Y008834D01*
X026002Y008747D01*
X025980Y008683D01*
X025872Y008683D02*
X025851Y008726D01*
X025719Y008882D02*
X025590Y008926D01*
X025633Y009055D01*
X025807Y009141D01*
X025718Y009210D02*
X025675Y009189D01*
X025610Y009211D01*
X025588Y009146D01*
X025545Y009124D01*
X025480Y009146D01*
X025437Y009233D01*
X025459Y009298D01*
X025589Y009254D02*
X025610Y009211D01*
X025718Y009210D02*
X025740Y009275D01*
X025697Y009362D01*
X025632Y009384D01*
X025501Y009431D02*
X025415Y009605D01*
X025544Y009561D02*
X025371Y009475D01*
X025201Y008783D02*
X025027Y008697D01*
X025005Y008632D01*
X025048Y008545D01*
X025113Y008523D01*
X025200Y008566D01*
X025157Y008653D01*
X025287Y008609D02*
X025308Y008674D01*
X025265Y008761D01*
X025201Y008783D01*
X025375Y008540D02*
X025201Y008238D01*
X025461Y008367D01*
X025506Y008276D02*
X025570Y008146D01*
X025549Y008082D01*
X025375Y007996D01*
X025310Y008017D01*
X025246Y008147D01*
X025506Y008276D01*
X025375Y008540D02*
X025115Y008411D01*
X024899Y007933D02*
X024834Y007955D01*
X024661Y007869D01*
X024639Y007804D01*
X024682Y007718D01*
X024747Y007696D01*
X024749Y007584D02*
X024835Y007410D01*
X024880Y007320D02*
X025140Y007449D01*
X025031Y007341D02*
X024966Y007146D01*
X024966Y007363D02*
X025226Y007275D01*
X025009Y007713D02*
X024749Y007584D01*
X024920Y007782D02*
X024942Y007847D01*
X024899Y007933D01*
X024098Y006893D02*
X024163Y006763D01*
X024141Y006699D01*
X023967Y006612D01*
X023903Y006634D01*
X023838Y006764D01*
X024098Y006893D01*
X024142Y006586D02*
X024272Y006543D01*
X024228Y006413D01*
X024055Y006327D01*
X024185Y006392D02*
X024099Y006565D01*
X024142Y006586D02*
X023969Y006500D01*
X024143Y006150D02*
X024403Y006279D01*
X024360Y006366D02*
X024446Y006192D01*
X024404Y006059D02*
X024534Y006015D01*
X024490Y005885D01*
X024317Y005799D01*
X024447Y005864D02*
X024361Y006037D01*
X024404Y006059D02*
X024231Y005973D01*
X024014Y005810D02*
X023754Y005681D01*
X023840Y005508D01*
X023885Y005417D02*
X023971Y005244D01*
X024058Y005395D02*
X024015Y005482D01*
X024145Y005546D02*
X023885Y005417D01*
X024145Y005546D02*
X024231Y005373D01*
X018747Y009161D02*
X018554Y009477D01*
X018493Y009222D01*
X018703Y009351D01*
X018454Y009053D02*
X018433Y008968D01*
X018328Y008904D01*
X018243Y008924D01*
X018114Y009135D01*
X018134Y009220D01*
X018240Y009284D01*
X018325Y009264D01*
X019406Y009959D02*
X019564Y010056D01*
X019649Y010036D01*
X019714Y009931D01*
X019693Y009846D01*
X019535Y009749D01*
X019600Y009644D02*
X019406Y009959D01*
X019641Y009813D02*
X019810Y009773D01*
X019914Y009836D02*
X020124Y009965D01*
X020019Y009901D02*
X019826Y010216D01*
X019785Y010047D01*
X017591Y012392D02*
X017504Y012349D01*
X017440Y012370D01*
X017439Y012479D02*
X017375Y012500D01*
X017353Y012543D01*
X017374Y012608D01*
X017461Y012652D01*
X017526Y012630D01*
X017526Y012522D02*
X017591Y012500D01*
X017613Y012457D01*
X017591Y012392D01*
X017526Y012522D02*
X017439Y012479D01*
X017595Y012719D02*
X017768Y012805D01*
X017681Y012762D02*
X017811Y012502D01*
X017988Y012591D02*
X017858Y012851D01*
X017988Y012916D01*
X018053Y012894D01*
X018096Y012807D01*
X018075Y012742D01*
X017945Y012678D01*
X018230Y012766D02*
X018316Y013026D01*
X018403Y012853D01*
X018381Y012788D01*
X018295Y012745D01*
X018230Y012766D01*
X018143Y012939D01*
X018165Y013004D01*
X018251Y013047D01*
X018316Y013026D01*
X018450Y012985D02*
X018623Y013071D01*
X018645Y012920D02*
X018515Y013179D01*
X018450Y012985D01*
X022395Y017173D02*
X022580Y017173D01*
X022642Y017235D01*
X022642Y017482D01*
X022580Y017544D01*
X022395Y017544D01*
X022395Y017173D01*
X022763Y017173D02*
X023010Y017420D01*
X023010Y017482D01*
X022948Y017544D01*
X022825Y017544D01*
X022763Y017482D01*
X022763Y017173D02*
X023010Y017173D01*
X022532Y020206D02*
X022326Y020411D01*
X022429Y020514D01*
X022497Y020514D01*
X022566Y020445D01*
X022566Y020377D01*
X022463Y020274D01*
X022532Y020342D02*
X022668Y020342D01*
X022740Y020414D02*
X022877Y020551D01*
X022948Y020622D02*
X023051Y020725D01*
X023051Y020793D01*
X022914Y020930D01*
X022846Y020930D01*
X022743Y020828D01*
X022948Y020622D01*
X022706Y020585D02*
X022637Y020517D01*
X022535Y020619D02*
X022740Y020414D01*
X022535Y020619D02*
X022672Y020756D01*
X022488Y020725D02*
X022488Y020793D01*
X022352Y020930D01*
X022283Y020930D01*
X022181Y020828D01*
X022386Y020622D01*
X022488Y020725D01*
X022492Y020933D02*
X022628Y021070D01*
X022314Y021176D02*
X022109Y021381D01*
X022283Y021350D02*
X022420Y021487D01*
X022283Y021487D02*
X022420Y021350D01*
X022314Y021176D02*
X021972Y021244D01*
X022178Y021039D01*
X022106Y020968D02*
X021969Y020831D01*
X021764Y021036D01*
X021901Y021173D01*
X021935Y021002D02*
X021867Y020933D01*
X021898Y020759D02*
X021761Y020622D01*
X021556Y020828D01*
X021692Y020964D01*
X021553Y021039D02*
X021347Y021244D01*
X021689Y021176D01*
X021484Y021381D01*
X021658Y021350D02*
X021795Y021487D01*
X021481Y020968D02*
X021344Y020831D01*
X021139Y021036D01*
X021276Y021173D01*
X021310Y021002D02*
X021242Y020933D01*
X021273Y020759D02*
X021136Y020622D01*
X020931Y020828D01*
X021067Y020964D01*
X021102Y020793D02*
X021033Y020725D01*
X020962Y020653D02*
X020962Y020585D01*
X020859Y020482D01*
X020927Y020414D02*
X020722Y020619D01*
X020825Y020722D01*
X020893Y020722D01*
X020962Y020653D01*
X020927Y020551D02*
X021064Y020551D01*
X021173Y020445D02*
X021173Y020377D01*
X021310Y020240D01*
X021378Y020240D01*
X021447Y020308D01*
X021447Y020377D01*
X021378Y020445D01*
X021310Y020377D01*
X021310Y020514D02*
X021241Y020514D01*
X021173Y020445D01*
X021347Y020619D02*
X021450Y020722D01*
X021518Y020722D01*
X021587Y020653D01*
X021587Y020585D01*
X021484Y020482D01*
X021552Y020414D02*
X021347Y020619D01*
X021552Y020551D02*
X021689Y020551D01*
X021764Y020411D02*
X021866Y020514D01*
X021935Y020514D01*
X022003Y020445D01*
X022003Y020377D01*
X021901Y020274D01*
X021969Y020206D02*
X021764Y020411D01*
X021969Y020342D02*
X022106Y020342D01*
X022177Y020414D02*
X022314Y020551D01*
X022143Y020585D02*
X022075Y020517D01*
X021972Y020619D02*
X022177Y020414D01*
X021972Y020619D02*
X022109Y020756D01*
X021727Y020793D02*
X021658Y020725D01*
X020962Y021142D02*
X020825Y021279D01*
X020825Y021142D02*
X020962Y021279D01*
X020651Y021173D02*
X020514Y021036D01*
X020719Y020831D01*
X020856Y020968D01*
X020685Y021002D02*
X020617Y020933D01*
X020613Y020793D02*
X020442Y020964D01*
X020293Y020968D02*
X020157Y020831D01*
X019951Y021036D01*
X020088Y021173D01*
X020122Y021002D02*
X020054Y020933D01*
X020051Y020793D02*
X019880Y020964D01*
X019807Y021106D02*
X019671Y020970D01*
X019465Y021175D01*
X019602Y021312D01*
X019636Y021141D02*
X019568Y021072D01*
X019394Y021103D02*
X019257Y020967D01*
X019325Y021035D02*
X019531Y020830D01*
X019392Y020691D02*
X019323Y020622D01*
X019358Y020657D02*
X019152Y020862D01*
X019118Y020828D02*
X019186Y020896D01*
X019046Y020970D02*
X019182Y021106D01*
X019011Y021141D02*
X018943Y021072D01*
X019046Y020970D02*
X018840Y021175D01*
X018977Y021312D01*
X019151Y021281D02*
X019288Y021417D01*
X019776Y021417D02*
X019913Y021281D01*
X019913Y021417D02*
X019776Y021281D01*
X020262Y021142D02*
X020399Y021279D01*
X020306Y020828D02*
X020477Y020657D01*
X020545Y020657D01*
X020613Y020725D01*
X020613Y020793D01*
X020616Y020514D02*
X020548Y020445D01*
X020548Y020377D01*
X020685Y020240D01*
X020753Y020240D01*
X020822Y020308D01*
X020822Y020377D01*
X020753Y020445D01*
X020685Y020377D01*
X020685Y020514D02*
X020616Y020514D01*
X020439Y020551D02*
X020302Y020414D01*
X020097Y020619D01*
X020060Y020514D02*
X019991Y020514D01*
X019889Y020411D01*
X020094Y020206D01*
X020197Y020308D01*
X020197Y020377D01*
X020163Y020411D01*
X020094Y020411D01*
X019991Y020308D01*
X020094Y020411D02*
X020094Y020479D01*
X020060Y020514D01*
X019983Y020657D02*
X020051Y020725D01*
X020051Y020793D01*
X019983Y020657D02*
X019914Y020657D01*
X019743Y020828D01*
X019535Y020619D02*
X019740Y020414D01*
X019877Y020551D01*
X019634Y020377D02*
X019634Y020308D01*
X019532Y020206D01*
X019326Y020411D01*
X019429Y020514D01*
X019497Y020514D01*
X019532Y020479D01*
X019532Y020411D01*
X019429Y020308D01*
X019532Y020411D02*
X019600Y020411D01*
X019634Y020377D01*
X019252Y020551D02*
X019047Y020756D01*
X019149Y020653D02*
X019012Y020517D01*
X018910Y020619D02*
X019115Y020414D01*
X019043Y020342D02*
X018838Y020548D01*
X018733Y020657D02*
X018527Y020862D01*
X018493Y020828D02*
X018561Y020896D01*
X018632Y020967D02*
X018769Y021103D01*
X018700Y021035D02*
X018906Y020830D01*
X018767Y020691D02*
X018698Y020622D01*
X018627Y020551D02*
X018422Y020756D01*
X018524Y020653D02*
X018387Y020517D01*
X018285Y020619D02*
X018490Y020414D01*
X018418Y020342D02*
X018213Y020548D01*
X018076Y020411D02*
X018282Y020206D01*
X018282Y020342D01*
X018418Y020342D01*
X018701Y020411D02*
X018907Y020206D01*
X018907Y020342D01*
X019043Y020342D01*
X017490Y019675D02*
X017119Y019675D01*
X017119Y019798D02*
X017119Y019551D01*
X017181Y019430D02*
X017119Y019368D01*
X017119Y019244D01*
X017181Y019183D01*
X017243Y019183D01*
X017304Y019244D01*
X017304Y019368D01*
X017366Y019430D01*
X017428Y019430D01*
X017490Y019368D01*
X017490Y019244D01*
X017428Y019183D01*
X017428Y019000D02*
X017119Y019000D01*
X017119Y019061D02*
X017119Y018938D01*
X017428Y019000D02*
X017490Y018938D01*
X017490Y018876D01*
X017428Y018814D01*
X023054Y020933D02*
X023191Y021070D01*
X023054Y021070D02*
X023191Y020933D01*
X027175Y020939D02*
X027175Y021133D01*
X027271Y021230D01*
X027368Y021133D01*
X027368Y020939D01*
X027518Y020939D02*
X027518Y021230D01*
X027469Y021084D02*
X027663Y021084D01*
X027518Y020939D01*
X027764Y020988D02*
X027812Y020939D01*
X027909Y020939D01*
X027957Y020988D01*
X028058Y021084D02*
X028252Y021084D01*
X028155Y020988D02*
X028155Y021181D01*
X027957Y021230D02*
X027764Y021230D01*
X027957Y021230D02*
X027764Y021036D01*
X027764Y020988D01*
X028952Y020988D02*
X029001Y020939D01*
X029146Y020939D01*
X029146Y021230D01*
X029001Y021230D01*
X028952Y021181D01*
X028952Y020988D01*
X029247Y020939D02*
X029247Y021230D01*
X029441Y020939D01*
X029441Y021230D01*
X029542Y021181D02*
X029590Y021230D01*
X029687Y021230D01*
X029735Y021181D01*
X029735Y020988D01*
X029687Y020939D01*
X029590Y020939D01*
X029542Y020988D01*
X029542Y021084D02*
X029638Y021084D01*
X029542Y021084D02*
X029542Y021181D01*
X031892Y017051D02*
X031827Y016922D01*
X032087Y016792D01*
X032152Y016921D01*
X032130Y016986D01*
X031957Y017073D01*
X031892Y017051D01*
X031782Y016831D02*
X032041Y016701D01*
X031695Y016658D01*
X031955Y016528D01*
X031866Y016459D02*
X031780Y016503D01*
X031736Y016416D01*
X031607Y016373D02*
X031780Y016286D01*
X031844Y016308D01*
X031888Y016394D01*
X031866Y016459D01*
X031693Y016546D02*
X031628Y016524D01*
X031585Y016438D01*
X031607Y016373D01*
X031296Y015921D02*
X031469Y015834D01*
X031512Y015704D01*
X031382Y015661D01*
X031209Y015747D01*
X031142Y015614D02*
X031207Y015419D01*
X031294Y015592D01*
X031402Y015484D02*
X031142Y015614D01*
X031075Y015372D02*
X031010Y015350D01*
X030967Y015264D01*
X030988Y015199D01*
X031030Y015065D02*
X030943Y014892D01*
X030900Y015022D02*
X031073Y014935D01*
X031205Y015091D02*
X031118Y015350D01*
X031075Y015372D01*
X031291Y015264D02*
X031205Y015091D01*
X016840Y004615D02*
X016840Y004245D01*
X016717Y004245D02*
X016964Y004245D01*
X016717Y004492D02*
X016840Y004615D01*
X016595Y004553D02*
X016534Y004615D01*
X016348Y004615D01*
X016348Y004245D01*
X016534Y004245D01*
X016595Y004306D01*
X016595Y004553D01*
X014055Y005547D02*
X013808Y005547D01*
X014055Y005794D01*
X014055Y005856D01*
X013993Y005918D01*
X013870Y005918D01*
X013808Y005856D01*
X013687Y005856D02*
X013625Y005918D01*
X013502Y005918D01*
X013440Y005856D01*
X013440Y005609D01*
X013502Y005547D01*
X013625Y005547D01*
X013687Y005609D01*
X008300Y001912D02*
X008177Y001850D01*
X008053Y001727D01*
X008239Y001727D01*
X008300Y001665D01*
X008300Y001603D01*
X008239Y001542D01*
X008115Y001542D01*
X008053Y001603D01*
X008053Y001727D01*
X007932Y001789D02*
X007870Y001727D01*
X007747Y001727D01*
X007685Y001789D01*
X007685Y001850D01*
X007747Y001912D01*
X007870Y001912D01*
X007932Y001850D01*
X007932Y001789D01*
X007870Y001727D02*
X007932Y001665D01*
X007932Y001603D01*
X007870Y001542D01*
X007747Y001542D01*
X007685Y001603D01*
X007685Y001665D01*
X007747Y001727D01*
X007564Y001727D02*
X007564Y001603D01*
X007502Y001542D01*
X007378Y001542D01*
X007317Y001603D01*
X007317Y001727D02*
X007440Y001789D01*
X007502Y001789D01*
X007564Y001727D01*
X007564Y001912D02*
X007317Y001912D01*
X007317Y001727D01*
X007195Y001789D02*
X007195Y001850D01*
X007134Y001912D01*
X007010Y001912D01*
X006948Y001850D01*
X006827Y001912D02*
X006704Y001789D01*
X006580Y001912D01*
X006580Y001542D01*
X006459Y001542D02*
X006212Y001542D01*
X006212Y001912D01*
X006827Y001912D02*
X006827Y001542D01*
X006948Y001542D02*
X007195Y001789D01*
X007195Y001542D02*
X006948Y001542D01*
X005326Y005996D02*
X005391Y006126D01*
X005131Y006256D01*
X005066Y006126D01*
X005088Y006061D01*
X005261Y005975D01*
X005326Y005996D01*
X005436Y006217D02*
X005177Y006347D01*
X005523Y006390D01*
X005263Y006520D01*
X005352Y006588D02*
X005438Y006545D01*
X005482Y006632D01*
X005611Y006675D02*
X005438Y006761D01*
X005373Y006740D01*
X005330Y006653D01*
X005352Y006588D01*
X005525Y006502D02*
X005590Y006523D01*
X005633Y006610D01*
X005611Y006675D01*
X005856Y007009D02*
X005683Y007096D01*
X005640Y007226D01*
X005769Y007269D01*
X005942Y007183D01*
X006009Y007316D02*
X005945Y007511D01*
X005858Y007338D01*
X005750Y007446D02*
X006009Y007316D01*
X006076Y007558D02*
X006141Y007580D01*
X006185Y007666D01*
X006163Y007731D01*
X006122Y007865D02*
X006208Y008038D01*
X006079Y007995D02*
X006252Y007908D01*
X005947Y007839D02*
X006033Y007580D01*
X006076Y007558D01*
X005860Y007666D02*
X005947Y007839D01*
D14*
X005739Y009202D02*
X005805Y009334D01*
X005740Y009449D02*
X005805Y009580D01*
X006002Y009482D01*
X005937Y009351D01*
X005871Y009466D02*
X005904Y009531D01*
X006003Y009565D02*
X006052Y009581D01*
X006085Y009647D01*
X006068Y009696D01*
X005937Y009762D01*
X005888Y009745D01*
X005855Y009680D01*
X005871Y009630D01*
X006003Y009565D01*
X006298Y010321D02*
X006364Y010453D01*
X006396Y010354D02*
X006265Y010420D01*
X006298Y010568D02*
X006364Y010700D01*
X006561Y010601D01*
X006495Y010470D01*
X006430Y010585D02*
X006463Y010650D01*
X006561Y010684D02*
X006430Y010749D01*
X006414Y010799D01*
X006447Y010864D01*
X006496Y010881D01*
X006627Y010815D01*
X006644Y010766D01*
X006611Y010700D01*
X006561Y010684D01*
X006844Y011414D02*
X006909Y011546D01*
X006877Y011645D02*
X007008Y011579D01*
X007058Y011596D01*
X007107Y011694D01*
X006910Y011793D01*
X006861Y011694D01*
X006877Y011645D01*
X007402Y012471D02*
X007468Y012602D01*
X007501Y012504D02*
X007370Y012570D01*
X007436Y012702D02*
X007567Y012636D01*
X007616Y012652D01*
X007666Y012751D01*
X007469Y012849D01*
X007419Y012751D01*
X007436Y012702D01*
X007839Y013321D02*
X007905Y013452D01*
X008036Y013469D02*
X007971Y013666D01*
X007987Y013617D02*
X007839Y013568D01*
X007905Y013699D02*
X008102Y013600D01*
X008201Y013798D02*
X008004Y013897D01*
X007938Y013765D01*
X008070Y013946D02*
X008054Y013996D01*
X008087Y014061D01*
X008136Y014078D01*
X008267Y014012D01*
X008283Y013963D01*
X008251Y013897D01*
X008201Y013881D01*
X008398Y014440D02*
X008463Y014571D01*
X008496Y014473D02*
X008365Y014538D01*
X008398Y014687D02*
X008546Y014736D01*
X008529Y014785D02*
X008595Y014588D01*
X008661Y014719D02*
X008464Y014818D01*
X008497Y014884D02*
X008563Y015016D01*
X008760Y014917D01*
X008760Y015000D02*
X008809Y015016D01*
X008842Y015082D01*
X008826Y015131D01*
X008695Y015197D01*
X008645Y015180D01*
X008612Y015115D01*
X008629Y015066D01*
X019822Y022016D02*
X019969Y022016D01*
X019896Y021943D02*
X019896Y022090D01*
X020043Y022126D02*
X020153Y022016D01*
X020190Y022053D02*
X020043Y021906D01*
X020190Y021906D02*
X020190Y022126D01*
X020264Y022126D02*
X020411Y022126D01*
X020411Y021906D01*
X020485Y021943D02*
X020522Y021906D01*
X020595Y021906D01*
X020632Y021943D01*
X020632Y022090D01*
X020595Y022126D01*
X020522Y022126D01*
X020485Y022090D01*
X020947Y022016D02*
X021094Y022016D01*
X021168Y021906D02*
X021315Y022053D01*
X021278Y022016D02*
X021168Y022126D01*
X021315Y022126D02*
X021315Y021906D01*
X021536Y021906D02*
X021536Y022126D01*
X021389Y022126D01*
X021610Y022090D02*
X021647Y022126D01*
X021720Y022126D01*
X021757Y022090D01*
X021757Y021943D01*
X021720Y021906D01*
X021647Y021906D01*
X021610Y021943D01*
X022327Y021999D02*
X022474Y021999D01*
X022548Y021926D02*
X022584Y021889D01*
X022694Y021889D01*
X022694Y022110D01*
X022584Y022110D01*
X022548Y022073D01*
X022548Y021926D01*
X022400Y021926D02*
X022400Y022073D01*
X023514Y021999D02*
X023661Y021999D01*
X023735Y021926D02*
X023772Y021889D01*
X023882Y021889D01*
X023882Y022110D01*
X023772Y022110D01*
X023735Y022073D01*
X023735Y021926D01*
X024606Y021999D02*
X024753Y021999D01*
X024679Y021926D02*
X024679Y022073D01*
X024827Y022110D02*
X024974Y022110D01*
X024974Y021889D01*
X024827Y021889D01*
X024900Y021999D02*
X024974Y021999D01*
X025048Y021926D02*
X025084Y021889D01*
X025158Y021889D01*
X025194Y021926D01*
X025194Y022073D01*
X025158Y022110D01*
X025084Y022110D01*
X025048Y022073D01*
X025048Y021926D01*
X025793Y021999D02*
X025940Y021999D01*
X026014Y021889D02*
X026161Y021889D01*
X026161Y022110D01*
X026014Y022110D01*
X026088Y021999D02*
X026161Y021999D01*
X026235Y021926D02*
X026272Y021889D01*
X026345Y021889D01*
X026382Y021926D01*
X026382Y022073D01*
X026345Y022110D01*
X026272Y022110D01*
X026235Y022073D01*
X026235Y021926D01*
X031467Y013821D02*
X031401Y013690D01*
X031269Y013673D02*
X031204Y013541D01*
X031400Y013443D01*
X031466Y013574D01*
X031335Y013558D02*
X031302Y013492D01*
X031334Y013393D02*
X031203Y013459D01*
X031154Y013442D01*
X031121Y013377D01*
X031137Y013327D01*
X031269Y013262D01*
X031318Y013278D01*
X031351Y013344D01*
X031334Y013393D01*
X030970Y012764D02*
X030905Y012633D01*
X031003Y012666D02*
X030872Y012732D01*
X030773Y012616D02*
X030707Y012485D01*
X030904Y012386D01*
X030970Y012518D01*
X030839Y012501D02*
X030806Y012436D01*
X030838Y012336D02*
X030707Y012402D01*
X030658Y012386D01*
X030625Y012320D01*
X030641Y012271D01*
X030772Y012205D01*
X030822Y012222D01*
X030855Y012287D01*
X030838Y012336D01*
X030362Y011609D02*
X030296Y011478D01*
X030198Y011444D02*
X030148Y011428D01*
X030099Y011329D01*
X030296Y011231D01*
X030345Y011329D01*
X030329Y011378D01*
X030198Y011444D01*
X029866Y010615D02*
X029800Y010484D01*
X029767Y010582D02*
X029899Y010516D01*
X029833Y010384D02*
X029701Y010450D01*
X029652Y010434D01*
X029603Y010335D01*
X029800Y010237D01*
X029849Y010335D01*
X029833Y010384D01*
X029430Y009703D02*
X029364Y009571D01*
X029429Y009456D02*
X029281Y009406D01*
X029298Y009357D02*
X029232Y009554D01*
X029166Y009423D02*
X029363Y009324D01*
X029330Y009258D02*
X029264Y009127D01*
X029067Y009225D01*
X029067Y009143D02*
X029018Y009126D01*
X028985Y009061D01*
X029001Y009011D01*
X029133Y008946D01*
X029182Y008962D01*
X029215Y009028D01*
X029198Y009077D01*
X028933Y008708D02*
X028868Y008577D01*
X028966Y008610D02*
X028835Y008676D01*
X028736Y008560D02*
X028801Y008363D01*
X028785Y008412D02*
X028933Y008462D01*
X028867Y008330D02*
X028670Y008429D01*
X028571Y008231D02*
X028768Y008133D01*
X028834Y008264D01*
X028702Y008083D02*
X028718Y008034D01*
X028686Y007968D01*
X028636Y007952D01*
X028505Y008017D01*
X028489Y008066D01*
X028522Y008132D01*
X028571Y008148D01*
D15*
X023079Y019682D02*
X022954Y019682D01*
X017704Y019682D02*
X017579Y019682D01*
D16*
X018802Y012809D02*
X017482Y012148D01*
X019256Y011141D02*
X019258Y011163D01*
X019264Y011185D01*
X019273Y011205D01*
X019286Y011223D01*
X019302Y011239D01*
X019320Y011252D01*
X019340Y011261D01*
X019362Y011267D01*
X019384Y011269D01*
X019406Y011267D01*
X019428Y011261D01*
X019448Y011252D01*
X019466Y011239D01*
X019482Y011223D01*
X019495Y011205D01*
X019504Y011185D01*
X019510Y011163D01*
X019512Y011141D01*
X019510Y011119D01*
X019504Y011097D01*
X019495Y011077D01*
X019482Y011059D01*
X019466Y011043D01*
X019448Y011030D01*
X019428Y011021D01*
X019406Y011015D01*
X019384Y011013D01*
X019362Y011015D01*
X019340Y011021D01*
X019320Y011030D01*
X019302Y011043D01*
X019286Y011059D01*
X019273Y011077D01*
X019264Y011097D01*
X019258Y011119D01*
X019256Y011141D01*
X019683Y011049D02*
X018363Y010388D01*
D17*
X025075Y006701D02*
X025184Y006365D01*
X024848Y006255D01*
X024621Y005810D01*
X024730Y005474D01*
X024394Y005364D01*
X024167Y004919D01*
X024276Y004583D01*
X024722Y004356D01*
X025058Y004465D01*
X025285Y004910D01*
X025175Y005247D01*
X025512Y005356D01*
X025739Y005801D01*
X025629Y006138D01*
X025966Y006247D01*
X026193Y006692D01*
X026083Y007029D01*
X026420Y007138D01*
X026647Y007583D01*
X026537Y007920D01*
X026874Y008029D01*
X027101Y008474D01*
X026991Y008811D01*
X026546Y009038D01*
X026210Y008928D01*
X025983Y008483D01*
X026092Y008147D01*
X025756Y008037D01*
X025529Y007592D01*
X025638Y007256D01*
X025302Y007146D01*
X025075Y006701D01*
X018659Y003426D02*
X018659Y002639D01*
X018119Y003032D01*
X018659Y003426D01*
X015683Y002221D02*
X015683Y005095D01*
X014679Y005095D01*
X013459Y005095D02*
X012455Y005095D01*
X012455Y002221D01*
X012809Y001867D01*
X013459Y001867D01*
X014659Y001867D02*
X015329Y001867D01*
X015683Y002221D01*
X013498Y002064D02*
X013427Y002094D01*
X013358Y002129D01*
X013291Y002166D01*
X013225Y002207D01*
X013162Y002251D01*
X013101Y002299D01*
X013042Y002349D01*
X012986Y002403D01*
X012933Y002459D01*
X012883Y002517D01*
X012836Y002578D01*
X012792Y002642D01*
X012751Y002708D01*
X012714Y002775D01*
X012680Y002844D01*
X012650Y002915D01*
X012623Y002988D01*
X012600Y003062D01*
X012580Y003136D01*
X012565Y003212D01*
X012553Y003288D01*
X012545Y003365D01*
X012541Y003442D01*
X012541Y003520D01*
X012545Y003597D01*
X012553Y003674D01*
X012565Y003750D01*
X012580Y003826D01*
X012600Y003900D01*
X012623Y003974D01*
X012650Y004047D01*
X012680Y004118D01*
X012714Y004187D01*
X012751Y004254D01*
X012792Y004320D01*
X012836Y004384D01*
X012883Y004445D01*
X012933Y004503D01*
X012986Y004559D01*
X013042Y004613D01*
X013101Y004663D01*
X013162Y004711D01*
X013225Y004755D01*
X013291Y004796D01*
X013358Y004833D01*
X013427Y004868D01*
X013498Y004898D01*
X014640Y004898D02*
X014711Y004868D01*
X014780Y004833D01*
X014847Y004796D01*
X014913Y004755D01*
X014976Y004711D01*
X015037Y004663D01*
X015096Y004613D01*
X015152Y004559D01*
X015205Y004503D01*
X015255Y004445D01*
X015302Y004384D01*
X015346Y004320D01*
X015387Y004254D01*
X015424Y004187D01*
X015458Y004118D01*
X015488Y004047D01*
X015515Y003974D01*
X015538Y003900D01*
X015558Y003826D01*
X015573Y003750D01*
X015585Y003674D01*
X015593Y003597D01*
X015597Y003520D01*
X015597Y003442D01*
X015593Y003365D01*
X015585Y003288D01*
X015573Y003212D01*
X015558Y003136D01*
X015538Y003062D01*
X015515Y002988D01*
X015488Y002915D01*
X015458Y002844D01*
X015424Y002775D01*
X015387Y002708D01*
X015346Y002642D01*
X015302Y002578D01*
X015255Y002517D01*
X015205Y002459D01*
X015152Y002403D01*
X015096Y002349D01*
X015037Y002299D01*
X014976Y002251D01*
X014913Y002207D01*
X014847Y002166D01*
X014780Y002129D01*
X014711Y002094D01*
X014640Y002064D01*
X010608Y002239D02*
X010608Y006250D01*
X017696Y018670D02*
X017696Y019970D01*
X022899Y019970D01*
X022899Y018670D01*
X017696Y018670D01*
X017853Y019891D02*
X018050Y019891D01*
X018050Y019950D01*
X017853Y019950D02*
X017853Y019891D01*
X028153Y019251D02*
X029009Y019775D01*
X028153Y019251D02*
X029655Y016800D01*
X030142Y016683D01*
X030696Y017023D01*
X031720Y017650D02*
X032291Y018000D01*
X032408Y018487D01*
X030906Y020938D01*
X030050Y020413D01*
X030119Y020225D02*
X030196Y020236D01*
X030273Y020243D01*
X030350Y020246D01*
X030427Y020245D01*
X030504Y020240D01*
X030581Y020232D01*
X030657Y020219D01*
X030733Y020203D01*
X030807Y020183D01*
X030881Y020159D01*
X030953Y020132D01*
X031023Y020101D01*
X031092Y020066D01*
X031160Y020028D01*
X031225Y019987D01*
X031288Y019942D01*
X031349Y019894D01*
X031407Y019843D01*
X031462Y019790D01*
X031515Y019733D01*
X031565Y019674D01*
X031612Y019613D01*
X031655Y019549D01*
X031696Y019483D01*
X031733Y019415D01*
X031766Y019346D01*
X031796Y019275D01*
X031822Y019202D01*
X031845Y019128D01*
X031864Y019053D01*
X031879Y018978D01*
X031890Y018901D01*
X031897Y018824D01*
X031901Y018747D01*
X031900Y018670D01*
X031896Y018593D01*
X031888Y018516D01*
X031875Y018440D01*
X031859Y018364D01*
X031840Y018289D01*
X031816Y018216D01*
X031789Y018144D01*
X031758Y018073D01*
X031724Y018004D01*
X031686Y017936D01*
X031645Y017871D01*
X031600Y017808D01*
X030627Y017211D02*
X030550Y017200D01*
X030473Y017193D01*
X030396Y017190D01*
X030319Y017191D01*
X030242Y017196D01*
X030165Y017204D01*
X030089Y017217D01*
X030013Y017233D01*
X029939Y017253D01*
X029865Y017277D01*
X029793Y017304D01*
X029723Y017335D01*
X029654Y017370D01*
X029586Y017408D01*
X029521Y017449D01*
X029458Y017494D01*
X029397Y017542D01*
X029339Y017593D01*
X029284Y017646D01*
X029231Y017703D01*
X029181Y017762D01*
X029134Y017823D01*
X029091Y017887D01*
X029050Y017953D01*
X029013Y018021D01*
X028980Y018090D01*
X028950Y018161D01*
X028924Y018234D01*
X028901Y018308D01*
X028882Y018383D01*
X028867Y018458D01*
X028856Y018535D01*
X028849Y018612D01*
X028845Y018689D01*
X028846Y018766D01*
X028850Y018843D01*
X028858Y018920D01*
X028871Y018996D01*
X028887Y019072D01*
X028906Y019147D01*
X028930Y019220D01*
X028957Y019292D01*
X028988Y019363D01*
X029022Y019432D01*
X029060Y019500D01*
X029101Y019565D01*
X029146Y019628D01*
D18*
X030297Y020763D02*
X030403Y020738D01*
X030533Y020818D01*
X030559Y020924D01*
X030730Y020939D02*
X030991Y021099D01*
X030861Y021019D02*
X030620Y021411D01*
X030569Y021200D01*
X030398Y021185D02*
X030293Y021211D01*
X030162Y021131D01*
X030137Y021025D01*
X030297Y020763D01*
X019847Y004255D02*
X017043Y004255D01*
X017043Y001810D02*
X019847Y001810D01*
D19*
X010904Y002905D03*
X010904Y003575D03*
X010904Y004245D03*
X010904Y004915D03*
X010904Y005585D03*
D20*
X017865Y003032D03*
D21*
X023092Y017146D02*
X023092Y020140D01*
X023173Y020140D01*
X024352Y020140D01*
X024352Y017146D01*
X024173Y017146D01*
X023092Y017146D01*
X024173Y017146D02*
X024271Y017146D01*
X023897Y018363D02*
X023547Y018363D01*
X023547Y018513D02*
X023722Y018363D01*
X023897Y018513D01*
X023547Y018513D01*
X023196Y020140D02*
X023173Y020140D01*
M02*
