%
M48
M72
T01C0.0236
T02C0.0276
T03C0.0315
T04C0.0354
T05C0.0394
T06C0.0400
T07C0.0472
T08C0.0512
T09C0.0551
T10C0.0630
T11C0.0866
T12C0.0984
%
T01
X22285Y17293
X16578Y10648
X21179Y9849
X24407Y11523
X13580Y6601
X24687Y9129
X21394Y11233
X18445Y9957
X12593Y4871
X23378Y6459
X19712Y14044
X19770Y14979
X15556Y12354
X23167Y20460
X24801Y13096
X18042Y15527
X20431Y11641
X21612Y16404
X24053Y16070
X22006Y10814
X22360Y15184
X26179Y18964
X22636Y10971
X22084Y15696
X18817Y15046
X25293Y14495
X23256Y13422
X10854Y10676
X25431Y12123
X20943Y20282
X23423Y10971
X23344Y12822
X26632Y15007
X20923Y11916
X20844Y12723
X23019Y14269
X21947Y12064
X21782Y12588
X22760Y14730
X20982Y13156
X17017Y9111
X17011Y10234
X16238Y7979
X15077Y9928
X17380Y12920
X20057Y12979
T02
X18247Y19497
X18838Y19497
X19428Y19497
X20019Y19497
X20590Y19497
X21180Y19497
X21771Y19497
X22361Y19497
T03
X20195Y15558
X16882Y18387
X17800Y17401
X22714Y18334
T04
X28308Y14531
X29009Y14174
X27950Y13829
X28652Y13472
X27593Y13128
X28294Y12770
X27235Y12426
X27937Y12069
X26878Y11725
X27579Y11367
X26520Y11023
X27222Y10666
X10243Y12997
X10944Y12639
X9885Y12295
X10587Y11938
X9528Y11593
X10229Y11236
X9170Y10892
X9872Y10534
X8813Y10190
X9514Y9833
X8455Y9489
X9157Y9131
T05
X27787Y16469
X9019Y7865
X33069Y19574
X16277Y12802
X26927Y20263
X27704Y18658
T06
X24742Y5323
X25196Y6214
X25650Y7105
X26104Y7996
X26558Y8887
T07
X18432Y4040
T08
X12990Y16641
X22832Y3885
X13974Y12664
X3935Y3609
X4683Y2901
X28108Y18019
T09
X4407Y4515
T10
X18604Y11556
X32045Y21168
X11238Y1906
X15048Y3791
T11
X16746Y14581
X20498Y8510
T12
X3473Y2181
X33772Y20913
X12892Y20808
X24342Y2278
M30
