G75*
%MOIN*%
%OFA0B0*%
%FSLAX24Y24*%
%IPPOS*%
%LPD*%
%AMOC8*
5,1,8,0,0,1.08239X$1,22.5*
%
%ADD10C,0.0000*%
%ADD11C,0.0060*%
%ADD12C,0.0050*%
%ADD13C,0.0040*%
%ADD14C,0.0080*%
%ADD15R,0.0660X0.0380*%
%ADD16R,0.0492X0.2441*%
%ADD17C,0.0010*%
%ADD18C,0.0030*%
D10*
X001464Y000942D02*
X003925Y005873D01*
X004132Y005942D01*
X005549Y008777D01*
X004663Y009219D01*
X008019Y015942D01*
X009141Y016296D01*
X012065Y022152D01*
X018610Y022152D01*
X019417Y022950D01*
X026966Y022950D01*
X026966Y022074D01*
X029978Y022074D01*
X030145Y022152D01*
X035785Y022152D01*
X033315Y017212D01*
X033147Y017133D01*
X031730Y014308D01*
X032586Y013885D01*
X029230Y007172D01*
X028236Y007064D01*
X025175Y000942D01*
X001464Y000942D01*
X003043Y002228D02*
X003045Y002272D01*
X003051Y002316D01*
X003061Y002359D01*
X003074Y002401D01*
X003092Y002441D01*
X003113Y002480D01*
X003137Y002517D01*
X003164Y002552D01*
X003195Y002584D01*
X003228Y002613D01*
X003264Y002639D01*
X003302Y002661D01*
X003342Y002680D01*
X003383Y002696D01*
X003426Y002708D01*
X003469Y002716D01*
X003513Y002720D01*
X003557Y002720D01*
X003601Y002716D01*
X003644Y002708D01*
X003687Y002696D01*
X003728Y002680D01*
X003768Y002661D01*
X003806Y002639D01*
X003842Y002613D01*
X003875Y002584D01*
X003906Y002552D01*
X003933Y002517D01*
X003957Y002480D01*
X003978Y002441D01*
X003996Y002401D01*
X004009Y002359D01*
X004019Y002316D01*
X004025Y002272D01*
X004027Y002228D01*
X004025Y002184D01*
X004019Y002140D01*
X004009Y002097D01*
X003996Y002055D01*
X003978Y002015D01*
X003957Y001976D01*
X003933Y001939D01*
X003906Y001904D01*
X003875Y001872D01*
X003842Y001843D01*
X003806Y001817D01*
X003768Y001795D01*
X003728Y001776D01*
X003687Y001760D01*
X003644Y001748D01*
X003601Y001740D01*
X003557Y001736D01*
X003513Y001736D01*
X003469Y001740D01*
X003426Y001748D01*
X003383Y001760D01*
X003342Y001776D01*
X003302Y001795D01*
X003264Y001817D01*
X003228Y001843D01*
X003195Y001872D01*
X003164Y001904D01*
X003137Y001939D01*
X003113Y001976D01*
X003092Y002015D01*
X003074Y002055D01*
X003061Y002097D01*
X003051Y002140D01*
X003045Y002184D01*
X003043Y002228D01*
X005965Y012041D02*
X005958Y012056D01*
X005947Y012069D01*
X005934Y012080D01*
X005920Y012089D01*
X005904Y012094D01*
X005825Y012112D01*
X005860Y012182D02*
X005922Y012129D01*
X005922Y012130D02*
X005936Y012120D01*
X005951Y012113D01*
X005968Y012110D01*
X005984Y012109D01*
X006001Y012112D01*
X012412Y020766D02*
X012414Y020810D01*
X012420Y020854D01*
X012430Y020897D01*
X012443Y020939D01*
X012461Y020979D01*
X012482Y021018D01*
X012506Y021055D01*
X012533Y021090D01*
X012564Y021122D01*
X012597Y021151D01*
X012633Y021177D01*
X012671Y021199D01*
X012711Y021218D01*
X012752Y021234D01*
X012795Y021246D01*
X012838Y021254D01*
X012882Y021258D01*
X012926Y021258D01*
X012970Y021254D01*
X013013Y021246D01*
X013056Y021234D01*
X013097Y021218D01*
X013137Y021199D01*
X013175Y021177D01*
X013211Y021151D01*
X013244Y021122D01*
X013275Y021090D01*
X013302Y021055D01*
X013326Y021018D01*
X013347Y020979D01*
X013365Y020939D01*
X013378Y020897D01*
X013388Y020854D01*
X013394Y020810D01*
X013396Y020766D01*
X013394Y020722D01*
X013388Y020678D01*
X013378Y020635D01*
X013365Y020593D01*
X013347Y020553D01*
X013326Y020514D01*
X013302Y020477D01*
X013275Y020442D01*
X013244Y020410D01*
X013211Y020381D01*
X013175Y020355D01*
X013137Y020333D01*
X013097Y020314D01*
X013056Y020298D01*
X013013Y020286D01*
X012970Y020278D01*
X012926Y020274D01*
X012882Y020274D01*
X012838Y020278D01*
X012795Y020286D01*
X012752Y020298D01*
X012711Y020314D01*
X012671Y020333D01*
X012633Y020355D01*
X012597Y020381D01*
X012564Y020410D01*
X012533Y020442D01*
X012506Y020477D01*
X012482Y020514D01*
X012461Y020553D01*
X012443Y020593D01*
X012430Y020635D01*
X012420Y020678D01*
X012414Y020722D01*
X012412Y020766D01*
X022582Y023094D02*
X022592Y023108D01*
X022599Y023123D01*
X022603Y023139D01*
X022604Y023156D01*
X022601Y023173D01*
X022582Y023252D01*
X022660Y023252D02*
X022641Y023173D01*
X022638Y023156D01*
X022639Y023139D01*
X022643Y023123D01*
X022650Y023108D01*
X022660Y023094D01*
X033282Y020898D02*
X033284Y020942D01*
X033290Y020986D01*
X033300Y021029D01*
X033313Y021071D01*
X033331Y021111D01*
X033352Y021150D01*
X033376Y021187D01*
X033403Y021222D01*
X033434Y021254D01*
X033467Y021283D01*
X033503Y021309D01*
X033541Y021331D01*
X033581Y021350D01*
X033622Y021366D01*
X033665Y021378D01*
X033708Y021386D01*
X033752Y021390D01*
X033796Y021390D01*
X033840Y021386D01*
X033883Y021378D01*
X033926Y021366D01*
X033967Y021350D01*
X034007Y021331D01*
X034045Y021309D01*
X034081Y021283D01*
X034114Y021254D01*
X034145Y021222D01*
X034172Y021187D01*
X034196Y021150D01*
X034217Y021111D01*
X034235Y021071D01*
X034248Y021029D01*
X034258Y020986D01*
X034264Y020942D01*
X034266Y020898D01*
X034264Y020854D01*
X034258Y020810D01*
X034248Y020767D01*
X034235Y020725D01*
X034217Y020685D01*
X034196Y020646D01*
X034172Y020609D01*
X034145Y020574D01*
X034114Y020542D01*
X034081Y020513D01*
X034045Y020487D01*
X034007Y020465D01*
X033967Y020446D01*
X033926Y020430D01*
X033883Y020418D01*
X033840Y020410D01*
X033796Y020406D01*
X033752Y020406D01*
X033708Y020410D01*
X033665Y020418D01*
X033622Y020430D01*
X033581Y020446D01*
X033541Y020465D01*
X033503Y020487D01*
X033467Y020513D01*
X033434Y020542D01*
X033403Y020574D01*
X033376Y020609D01*
X033352Y020646D01*
X033331Y020685D01*
X033313Y020725D01*
X033300Y020767D01*
X033290Y020810D01*
X033284Y020854D01*
X033282Y020898D01*
X031283Y011054D02*
X031290Y011039D01*
X031301Y011026D01*
X031314Y011015D01*
X031328Y011006D01*
X031344Y011001D01*
X031345Y011000D02*
X031424Y010983D01*
X031389Y010912D02*
X031327Y010965D01*
X031313Y010975D01*
X031298Y010982D01*
X031281Y010985D01*
X031265Y010986D01*
X031248Y010983D01*
X023575Y007179D02*
X023583Y007199D01*
X023587Y007219D01*
X023588Y007240D01*
X023585Y007261D01*
X023578Y007281D01*
X023568Y007299D01*
X023555Y007315D01*
X023540Y007329D01*
X023522Y007340D01*
X023502Y007348D01*
X023482Y007352D01*
X023461Y007353D01*
X023440Y007350D01*
X023420Y007343D01*
X023402Y007333D01*
X023386Y007320D01*
X023372Y007305D01*
X023361Y007287D01*
X023864Y002345D02*
X023866Y002389D01*
X023872Y002433D01*
X023882Y002476D01*
X023895Y002518D01*
X023913Y002558D01*
X023934Y002597D01*
X023958Y002634D01*
X023985Y002669D01*
X024016Y002701D01*
X024049Y002730D01*
X024085Y002756D01*
X024123Y002778D01*
X024163Y002797D01*
X024204Y002813D01*
X024247Y002825D01*
X024290Y002833D01*
X024334Y002837D01*
X024378Y002837D01*
X024422Y002833D01*
X024465Y002825D01*
X024508Y002813D01*
X024549Y002797D01*
X024589Y002778D01*
X024627Y002756D01*
X024663Y002730D01*
X024696Y002701D01*
X024727Y002669D01*
X024754Y002634D01*
X024778Y002597D01*
X024799Y002558D01*
X024817Y002518D01*
X024830Y002476D01*
X024840Y002433D01*
X024846Y002389D01*
X024848Y002345D01*
X024846Y002301D01*
X024840Y002257D01*
X024830Y002214D01*
X024817Y002172D01*
X024799Y002132D01*
X024778Y002093D01*
X024754Y002056D01*
X024727Y002021D01*
X024696Y001989D01*
X024663Y001960D01*
X024627Y001934D01*
X024589Y001912D01*
X024549Y001893D01*
X024508Y001877D01*
X024465Y001865D01*
X024422Y001857D01*
X024378Y001853D01*
X024334Y001853D01*
X024290Y001857D01*
X024247Y001865D01*
X024204Y001877D01*
X024163Y001893D01*
X024123Y001912D01*
X024085Y001934D01*
X024049Y001960D01*
X024016Y001989D01*
X023985Y002021D01*
X023958Y002056D01*
X023934Y002093D01*
X023913Y002132D01*
X023895Y002172D01*
X023882Y002214D01*
X023872Y002257D01*
X023866Y002301D01*
X023864Y002345D01*
D11*
X023879Y007027D02*
X023575Y007179D01*
X023361Y007286D01*
X023066Y007434D01*
X024830Y010957D02*
X025644Y010550D01*
X019683Y011049D02*
X018363Y010388D01*
X019256Y011141D02*
X019258Y011163D01*
X019264Y011185D01*
X019273Y011205D01*
X019286Y011223D01*
X019302Y011239D01*
X019320Y011252D01*
X019340Y011261D01*
X019362Y011267D01*
X019384Y011269D01*
X019406Y011267D01*
X019428Y011261D01*
X019448Y011252D01*
X019466Y011239D01*
X019482Y011223D01*
X019495Y011205D01*
X019504Y011185D01*
X019510Y011163D01*
X019512Y011141D01*
X019510Y011119D01*
X019504Y011097D01*
X019495Y011077D01*
X019482Y011059D01*
X019466Y011043D01*
X019448Y011030D01*
X019428Y011021D01*
X019406Y011015D01*
X019384Y011013D01*
X019362Y011015D01*
X019340Y011021D01*
X019320Y011030D01*
X019302Y011043D01*
X019286Y011059D01*
X019273Y011077D01*
X019264Y011097D01*
X019258Y011119D01*
X019256Y011141D01*
X018802Y012809D02*
X017482Y012148D01*
X016258Y009731D02*
X016226Y009712D01*
X016258Y009731D02*
X016591Y009188D01*
X016559Y009168D01*
X016289Y009002D02*
X015938Y008788D01*
X015668Y008622D02*
X015636Y008603D01*
X015303Y009146D01*
X015335Y009166D01*
X015605Y009331D02*
X015637Y009351D01*
X015924Y009527D02*
X015956Y009546D01*
D12*
X016643Y008538D02*
X016771Y008617D01*
X016874Y008592D01*
X016913Y008528D01*
X016888Y008425D01*
X016992Y008400D01*
X017031Y008336D01*
X017006Y008233D01*
X016878Y008154D01*
X016775Y008179D01*
X016638Y008095D02*
X016599Y008159D01*
X016496Y008184D01*
X016368Y008106D01*
X016265Y008130D01*
X016225Y008194D01*
X016250Y008298D01*
X016378Y008376D01*
X016481Y008351D01*
X016618Y008435D02*
X016643Y008538D01*
X016824Y008385D02*
X016888Y008425D01*
X016275Y008401D02*
X016589Y007889D01*
X016614Y007992D02*
X016638Y008095D01*
X016614Y007992D02*
X016486Y007914D01*
X016382Y007938D01*
X016246Y007855D02*
X016050Y008175D01*
X015794Y008018D02*
X015990Y007698D01*
X016093Y007673D01*
X016221Y007751D01*
X016246Y007855D01*
X019170Y010187D02*
X019271Y010154D01*
X019405Y010221D01*
X019439Y010322D01*
X019271Y010657D01*
X019448Y010662D02*
X019481Y010763D01*
X019615Y010830D01*
X019716Y010796D01*
X019716Y010628D02*
X019582Y010561D01*
X019481Y010595D01*
X019448Y010662D01*
X019515Y010863D02*
X019784Y010326D01*
X019817Y010427D02*
X019851Y010528D01*
X019817Y010595D01*
X019716Y010628D01*
X019817Y010427D02*
X019683Y010360D01*
X019582Y010393D01*
X019170Y010187D02*
X019002Y010523D01*
X019893Y010801D02*
X019960Y011002D01*
X020162Y010600D01*
X020296Y010667D02*
X020027Y010532D01*
X023522Y012423D02*
X023718Y012103D01*
X023821Y012078D01*
X023949Y012156D01*
X023974Y012259D01*
X023778Y012579D01*
X023953Y012599D02*
X023978Y012702D01*
X024106Y012781D01*
X024209Y012756D01*
X024346Y012840D02*
X024371Y012943D01*
X024499Y013021D01*
X024602Y012997D01*
X024641Y012933D01*
X024542Y012520D01*
X024798Y012677D01*
X024366Y012500D02*
X024341Y012397D01*
X024213Y012318D01*
X024110Y012343D01*
X024096Y012510D02*
X023993Y012535D01*
X023953Y012599D01*
X024096Y012510D02*
X024224Y012589D01*
X024327Y012564D01*
X024366Y012500D01*
X024317Y012294D02*
X024003Y012806D01*
X024173Y017146D02*
X023092Y017146D01*
X023092Y020140D01*
X023173Y020140D01*
X024352Y020140D01*
X024352Y017146D01*
X024173Y017146D01*
X024271Y017146D01*
X023897Y018363D02*
X023547Y018363D01*
X023547Y018513D02*
X023722Y018363D01*
X023897Y018513D01*
X023547Y018513D01*
X023196Y020140D02*
X023173Y020140D01*
X023895Y005523D02*
X024296Y005319D01*
X024228Y005185D02*
X024364Y005453D01*
X023960Y005321D02*
X023895Y005523D01*
X023821Y005213D02*
X023954Y005145D01*
X023987Y005044D01*
X023885Y004843D01*
X024019Y004775D02*
X023618Y004979D01*
X023720Y005180D01*
X023821Y005213D01*
X023545Y004837D02*
X023477Y004703D01*
X023511Y004770D02*
X023845Y004599D01*
X023878Y004498D01*
X023844Y004432D01*
X023743Y004399D01*
D13*
X019861Y009330D02*
X019701Y009592D01*
X019620Y009723D02*
X019671Y009934D01*
X019711Y009868D02*
X019591Y010064D01*
X019460Y009984D02*
X019853Y010225D01*
X019973Y010029D01*
X019948Y009923D01*
X019817Y009843D01*
X019711Y009868D01*
X019962Y009752D02*
X020173Y009701D01*
X019781Y009461D01*
X019527Y009274D02*
X019218Y009377D01*
X019356Y009103D01*
X019527Y009274D02*
X019115Y009068D01*
X019012Y009446D02*
X018909Y009480D01*
X018841Y009617D01*
X018875Y009720D01*
X019149Y009857D01*
X019252Y009823D01*
X019321Y009686D01*
X019287Y009583D01*
X023262Y012363D02*
X023399Y012295D01*
X023502Y012329D01*
X023639Y012260D02*
X023673Y012157D01*
X023810Y012088D01*
X023913Y012123D01*
X023948Y012191D01*
X023913Y012294D01*
X023845Y012329D01*
X023913Y012294D02*
X024016Y012328D01*
X024051Y012397D01*
X024017Y012500D01*
X023879Y012569D01*
X023776Y012534D01*
X023639Y012603D02*
X023605Y012706D01*
X023468Y012775D01*
X023365Y012741D01*
X023227Y012466D01*
X023262Y012363D01*
X027376Y014931D02*
X027926Y014996D01*
X027995Y015133D02*
X028135Y015406D01*
X028065Y015269D02*
X027655Y015478D01*
X027722Y015272D01*
X027515Y015205D02*
X027786Y014722D01*
X031570Y020970D02*
X031409Y021232D01*
X031489Y021101D02*
X031882Y021342D01*
X031671Y021392D01*
X031656Y021563D02*
X031682Y021669D01*
X031601Y021800D01*
X031496Y021825D01*
X031234Y021665D01*
X031209Y021559D01*
X031289Y021428D01*
X031395Y021403D01*
X018904Y020436D02*
X018597Y020436D01*
X018827Y020667D01*
X018827Y020206D01*
X018444Y020283D02*
X018444Y020360D01*
X018367Y020436D01*
X018214Y020436D01*
X018137Y020513D01*
X018137Y020590D01*
X018214Y020667D01*
X018367Y020667D01*
X018444Y020590D01*
X018290Y020743D02*
X018290Y020129D01*
X018214Y020206D02*
X018367Y020206D01*
X018444Y020283D01*
X018214Y020206D02*
X018137Y020283D01*
X017983Y020283D02*
X017983Y020667D01*
X017676Y020667D02*
X017676Y020283D01*
X017753Y020206D01*
X017907Y020206D01*
X017983Y020283D01*
X009678Y014021D02*
X009609Y014056D01*
X009506Y014022D01*
X009437Y013885D01*
X009470Y013782D01*
X009332Y013680D02*
X009603Y013198D01*
X009742Y013471D02*
X009193Y013407D01*
X009812Y013608D02*
X009678Y014021D01*
X009951Y013881D02*
X009812Y013608D01*
X008865Y009040D02*
X011669Y009040D01*
X011669Y006596D02*
X008865Y006596D01*
X010728Y006476D02*
X010728Y006016D01*
X010958Y006016D01*
X011035Y006092D01*
X011035Y006399D01*
X010958Y006476D01*
X010728Y006476D01*
X011188Y006322D02*
X011342Y006476D01*
X011342Y006016D01*
X011495Y006016D02*
X011188Y006016D01*
X015478Y005361D02*
X015478Y005207D01*
X015554Y005130D01*
X015554Y004977D02*
X015478Y004900D01*
X015478Y004747D01*
X015554Y004670D01*
X015861Y004670D01*
X015938Y004747D01*
X015938Y004900D01*
X015861Y004977D01*
X015938Y005130D02*
X015631Y005437D01*
X015554Y005437D01*
X015478Y005361D01*
X015938Y005437D02*
X015938Y005130D01*
X010596Y001565D02*
X010289Y001565D01*
X010443Y001565D02*
X010443Y002025D01*
X010289Y001872D01*
X010136Y001949D02*
X010059Y002025D01*
X009905Y002025D01*
X009829Y001949D01*
X009829Y001642D01*
X009905Y001565D01*
X010059Y001565D01*
X010136Y001642D01*
X009675Y001565D02*
X009522Y001565D01*
X009599Y001565D02*
X009599Y002025D01*
X009675Y002025D02*
X009522Y002025D01*
D14*
X009663Y002239D02*
X009663Y006250D01*
X010053Y007424D02*
X010053Y008212D01*
X010594Y007818D01*
X010053Y007424D01*
X009537Y009174D02*
X011628Y013278D01*
X011102Y013546D01*
X011102Y013547D02*
X011082Y013534D01*
X011060Y013523D01*
X011036Y013516D01*
X011012Y013512D01*
X010988Y013511D01*
X010963Y013514D01*
X010940Y013520D01*
X010917Y013530D01*
X010896Y013543D01*
X010877Y013558D01*
X010860Y013576D01*
X010846Y013596D01*
X010835Y013618D01*
X010828Y013641D01*
X010823Y013665D01*
X010822Y013690D01*
X010822Y013689D02*
X010295Y013958D01*
X008204Y009853D01*
X008730Y009585D01*
X008731Y009585D02*
X008751Y009598D01*
X008773Y009609D01*
X008797Y009616D01*
X008821Y009620D01*
X008845Y009621D01*
X008870Y009618D01*
X008893Y009612D01*
X008916Y009602D01*
X008937Y009589D01*
X008956Y009574D01*
X008973Y009556D01*
X008987Y009536D01*
X008998Y009514D01*
X009005Y009491D01*
X009010Y009467D01*
X009011Y009442D01*
X009537Y009174D01*
X011234Y005535D02*
X012690Y005535D01*
X013871Y005535D02*
X015328Y005535D01*
X015328Y001795D01*
X014974Y001441D01*
X013871Y001441D01*
X012690Y001441D02*
X011588Y001441D01*
X011234Y001795D01*
X011234Y005535D01*
X013891Y005319D02*
X013972Y005290D01*
X014052Y005257D01*
X014130Y005221D01*
X014207Y005182D01*
X014281Y005139D01*
X014354Y005092D01*
X014424Y005043D01*
X014492Y004990D01*
X014558Y004935D01*
X014622Y004876D01*
X014682Y004815D01*
X014740Y004752D01*
X014795Y004685D01*
X014847Y004616D01*
X014895Y004546D01*
X014941Y004473D01*
X014983Y004397D01*
X015022Y004321D01*
X015058Y004242D01*
X015089Y004162D01*
X015118Y004081D01*
X015142Y003998D01*
X015163Y003915D01*
X015180Y003831D01*
X015194Y003746D01*
X015203Y003660D01*
X015209Y003574D01*
X015211Y003488D01*
X015209Y003402D01*
X015203Y003316D01*
X015194Y003230D01*
X015180Y003145D01*
X015163Y003061D01*
X015142Y002978D01*
X015118Y002895D01*
X015089Y002814D01*
X015058Y002734D01*
X015022Y002655D01*
X014983Y002579D01*
X014941Y002503D01*
X014895Y002430D01*
X014847Y002360D01*
X014795Y002291D01*
X014740Y002224D01*
X014682Y002161D01*
X014622Y002100D01*
X014558Y002041D01*
X014492Y001986D01*
X014424Y001933D01*
X014354Y001884D01*
X014281Y001837D01*
X014207Y001794D01*
X014130Y001755D01*
X014052Y001719D01*
X013972Y001686D01*
X013891Y001657D01*
X012671Y001657D02*
X012590Y001686D01*
X012510Y001719D01*
X012432Y001755D01*
X012355Y001794D01*
X012281Y001837D01*
X012208Y001884D01*
X012138Y001933D01*
X012070Y001986D01*
X012004Y002041D01*
X011940Y002100D01*
X011880Y002161D01*
X011822Y002224D01*
X011767Y002291D01*
X011715Y002360D01*
X011667Y002430D01*
X011621Y002503D01*
X011579Y002579D01*
X011540Y002655D01*
X011504Y002734D01*
X011473Y002814D01*
X011444Y002895D01*
X011420Y002978D01*
X011399Y003061D01*
X011382Y003145D01*
X011368Y003230D01*
X011359Y003316D01*
X011353Y003402D01*
X011351Y003488D01*
X011353Y003574D01*
X011359Y003660D01*
X011368Y003746D01*
X011382Y003831D01*
X011399Y003915D01*
X011420Y003998D01*
X011444Y004081D01*
X011473Y004162D01*
X011504Y004242D01*
X011540Y004321D01*
X011579Y004397D01*
X011621Y004473D01*
X011667Y004546D01*
X011715Y004616D01*
X011767Y004685D01*
X011822Y004752D01*
X011880Y004815D01*
X011940Y004876D01*
X012004Y004935D01*
X012070Y004990D01*
X012138Y005043D01*
X012208Y005092D01*
X012281Y005139D01*
X012355Y005182D01*
X012432Y005221D01*
X012510Y005257D01*
X012590Y005290D01*
X012671Y005319D01*
X023693Y005811D02*
X024025Y006473D01*
X023804Y006583D02*
X024246Y006362D01*
X024424Y006135D02*
X024148Y005583D01*
X024025Y005921D02*
X023693Y005811D01*
X024424Y006135D02*
X024590Y006190D01*
X024810Y006079D01*
X024866Y005914D01*
X024589Y005362D01*
X024598Y005372D02*
X024825Y005817D01*
X025161Y005926D01*
X025052Y006263D01*
X025279Y006708D01*
X025615Y006817D01*
X025506Y007154D01*
X025733Y007599D01*
X026069Y007708D01*
X025960Y008045D01*
X026187Y008490D01*
X026523Y008599D01*
X026969Y008372D01*
X027078Y008036D01*
X026851Y007591D01*
X026515Y007481D01*
X026624Y007145D01*
X026397Y006700D01*
X026061Y006590D01*
X026170Y006254D01*
X025943Y005809D01*
X025607Y005699D01*
X025716Y005363D01*
X025489Y004918D01*
X025153Y004808D01*
X025262Y004472D01*
X025035Y004027D01*
X024699Y003917D01*
X024253Y004144D01*
X024144Y004481D01*
X024371Y004926D01*
X024707Y005035D01*
X024598Y005372D01*
X027194Y010967D02*
X027720Y010699D01*
X029812Y014803D01*
X029285Y015071D01*
X029265Y015058D01*
X029243Y015047D01*
X029219Y015040D01*
X029195Y015036D01*
X029171Y015035D01*
X029146Y015038D01*
X029123Y015044D01*
X029100Y015054D01*
X029079Y015067D01*
X029060Y015082D01*
X029043Y015100D01*
X029029Y015120D01*
X029018Y015142D01*
X029011Y015165D01*
X029006Y015189D01*
X029005Y015214D01*
X028479Y015482D01*
X026387Y011378D01*
X026914Y011110D01*
X026934Y011123D01*
X026956Y011134D01*
X026980Y011141D01*
X027004Y011145D01*
X027028Y011146D01*
X027053Y011143D01*
X027076Y011137D01*
X027099Y011127D01*
X027120Y011114D01*
X027139Y011099D01*
X027156Y011081D01*
X027170Y011061D01*
X027181Y011039D01*
X027188Y011016D01*
X027193Y010992D01*
X027194Y010967D01*
X029512Y016205D02*
X029999Y016088D01*
X030939Y016664D01*
X031946Y017281D02*
X032886Y017857D01*
X033003Y018344D01*
X031049Y021533D01*
X029807Y020772D01*
X028800Y020155D02*
X027558Y019394D01*
X029512Y016205D01*
X031850Y017476D02*
X031904Y017543D01*
X031955Y017612D01*
X032003Y017684D01*
X032047Y017758D01*
X032088Y017833D01*
X032126Y017911D01*
X032160Y017990D01*
X032191Y018070D01*
X032218Y018152D01*
X032241Y018235D01*
X032261Y018318D01*
X032277Y018403D01*
X032289Y018488D01*
X032298Y018574D01*
X032302Y018660D01*
X032303Y018746D01*
X032300Y018832D01*
X032293Y018918D01*
X032282Y019003D01*
X032267Y019088D01*
X032249Y019172D01*
X032227Y019255D01*
X032201Y019337D01*
X032171Y019418D01*
X032138Y019498D01*
X032102Y019576D01*
X032062Y019652D01*
X032019Y019726D01*
X031972Y019799D01*
X031922Y019869D01*
X031869Y019937D01*
X031813Y020002D01*
X031755Y020065D01*
X031693Y020126D01*
X031629Y020183D01*
X031563Y020238D01*
X031494Y020289D01*
X031422Y020338D01*
X031349Y020383D01*
X031274Y020425D01*
X031197Y020463D01*
X031118Y020498D01*
X031038Y020530D01*
X030957Y020558D01*
X030874Y020582D01*
X030791Y020602D01*
X030706Y020619D01*
X030621Y020632D01*
X030535Y020641D01*
X030449Y020646D01*
X030363Y020648D01*
X030277Y020646D01*
X030191Y020639D01*
X030106Y020629D01*
X030021Y020616D01*
X029937Y020598D01*
X028896Y019960D02*
X028842Y019893D01*
X028791Y019824D01*
X028743Y019752D01*
X028699Y019678D01*
X028658Y019603D01*
X028620Y019525D01*
X028586Y019446D01*
X028555Y019366D01*
X028528Y019284D01*
X028505Y019201D01*
X028485Y019118D01*
X028469Y019033D01*
X028457Y018948D01*
X028448Y018862D01*
X028444Y018776D01*
X028443Y018690D01*
X028446Y018604D01*
X028453Y018518D01*
X028464Y018433D01*
X028479Y018348D01*
X028497Y018264D01*
X028519Y018181D01*
X028545Y018099D01*
X028575Y018018D01*
X028608Y017938D01*
X028644Y017860D01*
X028684Y017784D01*
X028727Y017710D01*
X028774Y017637D01*
X028824Y017567D01*
X028877Y017499D01*
X028933Y017434D01*
X028991Y017371D01*
X029053Y017310D01*
X029117Y017253D01*
X029183Y017198D01*
X029252Y017147D01*
X029324Y017098D01*
X029397Y017053D01*
X029472Y017011D01*
X029549Y016973D01*
X029628Y016938D01*
X029708Y016906D01*
X029789Y016878D01*
X029872Y016854D01*
X029955Y016834D01*
X030040Y016817D01*
X030125Y016804D01*
X030211Y016795D01*
X030297Y016790D01*
X030383Y016788D01*
X030469Y016790D01*
X030555Y016797D01*
X030640Y016807D01*
X030725Y016820D01*
X030809Y016838D01*
X022899Y018769D02*
X022899Y020068D01*
X017696Y020068D01*
X017696Y018769D01*
X022899Y018769D01*
X018050Y019989D02*
X018050Y020048D01*
X018050Y019989D02*
X017853Y019989D01*
X017853Y020048D01*
D15*
X009960Y005585D03*
X009960Y004915D03*
X009960Y004245D03*
X009960Y003575D03*
X009960Y002905D03*
D16*
X010848Y007818D03*
D17*
X010367Y013714D02*
X010400Y013780D01*
X010383Y013747D02*
X010285Y013797D01*
X010301Y013748D01*
X022817Y017643D02*
X022817Y017718D01*
X022842Y017743D01*
X022942Y017743D01*
X022967Y017718D01*
X022967Y017643D01*
X022817Y017643D01*
X022842Y017790D02*
X022817Y017815D01*
X022817Y017865D01*
X022842Y017890D01*
X022867Y017890D01*
X022967Y017790D01*
X022967Y017890D01*
X028469Y015322D02*
X028567Y015272D01*
X028583Y015304D02*
X028550Y015239D01*
X028485Y015272D02*
X028469Y015322D01*
D18*
X024210Y006813D02*
X024350Y006392D01*
X024420Y006532D02*
X024140Y006672D01*
X024070Y006532D02*
X024490Y006672D01*
X024350Y006742D02*
X024210Y006462D01*
M02*
