G75*
%MOIN*%
%OFA0B0*%
%FSLAX24Y24*%
%IPPOS*%
%LPD*%
%AMOC8*
5,1,8,0,0,1.08239X$1,22.5*
%
%ADD10C,0.0000*%
%ADD11C,0.0039*%
%ADD12C,0.0030*%
%ADD13C,0.0100*%
%ADD14C,0.0059*%
%ADD15C,0.0040*%
D10*
X001543Y001214D02*
X007057Y001214D01*
X007162Y001332D01*
X007163Y001992D01*
X010376Y001990D01*
X010370Y000897D01*
X017853Y000897D01*
X018407Y001214D01*
X025254Y001214D01*
X028315Y007336D01*
X028846Y007690D01*
X032212Y014373D01*
X031218Y014865D01*
X032655Y017739D01*
X033246Y017444D01*
X033393Y017483D01*
X035864Y022424D01*
X030103Y022423D01*
X030103Y022424D02*
X030103Y021647D01*
X026989Y021647D01*
X026989Y022739D01*
X019476Y022739D01*
X018689Y022424D01*
X012143Y022424D01*
X009220Y016568D01*
X008561Y015977D01*
X005204Y009265D01*
X006218Y008753D01*
X004781Y005889D01*
X004191Y006184D01*
X004004Y006145D01*
X001543Y001214D01*
X003060Y002453D02*
X003062Y002497D01*
X003068Y002541D01*
X003078Y002584D01*
X003091Y002626D01*
X003109Y002666D01*
X003130Y002705D01*
X003154Y002742D01*
X003181Y002777D01*
X003212Y002809D01*
X003245Y002838D01*
X003281Y002864D01*
X003319Y002886D01*
X003359Y002905D01*
X003400Y002921D01*
X003443Y002933D01*
X003486Y002941D01*
X003530Y002945D01*
X003574Y002945D01*
X003618Y002941D01*
X003661Y002933D01*
X003704Y002921D01*
X003745Y002905D01*
X003785Y002886D01*
X003823Y002864D01*
X003859Y002838D01*
X003892Y002809D01*
X003923Y002777D01*
X003950Y002742D01*
X003974Y002705D01*
X003995Y002666D01*
X004013Y002626D01*
X004026Y002584D01*
X004036Y002541D01*
X004042Y002497D01*
X004044Y002453D01*
X004042Y002409D01*
X004036Y002365D01*
X004026Y002322D01*
X004013Y002280D01*
X003995Y002240D01*
X003974Y002201D01*
X003950Y002164D01*
X003923Y002129D01*
X003892Y002097D01*
X003859Y002068D01*
X003823Y002042D01*
X003785Y002020D01*
X003745Y002001D01*
X003704Y001985D01*
X003661Y001973D01*
X003618Y001965D01*
X003574Y001961D01*
X003530Y001961D01*
X003486Y001965D01*
X003443Y001973D01*
X003400Y001985D01*
X003359Y002001D01*
X003319Y002020D01*
X003281Y002042D01*
X003245Y002068D01*
X003212Y002097D01*
X003181Y002129D01*
X003154Y002164D01*
X003130Y002201D01*
X003109Y002240D01*
X003091Y002280D01*
X003078Y002322D01*
X003068Y002365D01*
X003062Y002409D01*
X003060Y002453D01*
X016391Y014853D02*
X016393Y014894D01*
X016399Y014935D01*
X016409Y014975D01*
X016422Y015014D01*
X016439Y015051D01*
X016460Y015087D01*
X016484Y015121D01*
X016511Y015152D01*
X016540Y015180D01*
X016573Y015206D01*
X016607Y015228D01*
X016644Y015247D01*
X016682Y015262D01*
X016722Y015274D01*
X016762Y015282D01*
X016803Y015286D01*
X016845Y015286D01*
X016886Y015282D01*
X016926Y015274D01*
X016966Y015262D01*
X017004Y015247D01*
X017040Y015228D01*
X017075Y015206D01*
X017108Y015180D01*
X017137Y015152D01*
X017164Y015121D01*
X017188Y015087D01*
X017209Y015051D01*
X017226Y015014D01*
X017239Y014975D01*
X017249Y014935D01*
X017255Y014894D01*
X017257Y014853D01*
X017255Y014812D01*
X017249Y014771D01*
X017239Y014731D01*
X017226Y014692D01*
X017209Y014655D01*
X017188Y014619D01*
X017164Y014585D01*
X017137Y014554D01*
X017108Y014526D01*
X017075Y014500D01*
X017041Y014478D01*
X017004Y014459D01*
X016966Y014444D01*
X016926Y014432D01*
X016886Y014424D01*
X016845Y014420D01*
X016803Y014420D01*
X016762Y014424D01*
X016722Y014432D01*
X016682Y014444D01*
X016644Y014459D01*
X016608Y014478D01*
X016573Y014500D01*
X016540Y014526D01*
X016511Y014554D01*
X016484Y014585D01*
X016460Y014619D01*
X016439Y014655D01*
X016422Y014692D01*
X016409Y014731D01*
X016399Y014771D01*
X016393Y014812D01*
X016391Y014853D01*
X012596Y017523D02*
X012598Y017550D01*
X012604Y017577D01*
X012613Y017603D01*
X012626Y017627D01*
X012642Y017650D01*
X012661Y017669D01*
X012683Y017686D01*
X012707Y017700D01*
X012732Y017710D01*
X012759Y017717D01*
X012786Y017720D01*
X012814Y017719D01*
X012841Y017714D01*
X012867Y017706D01*
X012891Y017694D01*
X012914Y017678D01*
X012935Y017660D01*
X012952Y017639D01*
X012967Y017615D01*
X012978Y017590D01*
X012986Y017564D01*
X012990Y017537D01*
X012990Y017509D01*
X012986Y017482D01*
X012978Y017456D01*
X012967Y017431D01*
X012952Y017407D01*
X012935Y017386D01*
X012914Y017368D01*
X012892Y017352D01*
X012867Y017340D01*
X012841Y017332D01*
X012814Y017327D01*
X012786Y017326D01*
X012759Y017329D01*
X012732Y017336D01*
X012707Y017346D01*
X012683Y017360D01*
X012661Y017377D01*
X012642Y017396D01*
X012626Y017419D01*
X012613Y017443D01*
X012604Y017469D01*
X012598Y017496D01*
X012596Y017523D01*
X012065Y017759D02*
X012067Y017786D01*
X012073Y017813D01*
X012082Y017839D01*
X012095Y017863D01*
X012111Y017886D01*
X012130Y017905D01*
X012152Y017922D01*
X012176Y017936D01*
X012201Y017946D01*
X012228Y017953D01*
X012255Y017956D01*
X012283Y017955D01*
X012310Y017950D01*
X012336Y017942D01*
X012360Y017930D01*
X012383Y017914D01*
X012404Y017896D01*
X012421Y017875D01*
X012436Y017851D01*
X012447Y017826D01*
X012455Y017800D01*
X012459Y017773D01*
X012459Y017745D01*
X012455Y017718D01*
X012447Y017692D01*
X012436Y017667D01*
X012421Y017643D01*
X012404Y017622D01*
X012383Y017604D01*
X012361Y017588D01*
X012336Y017576D01*
X012310Y017568D01*
X012283Y017563D01*
X012255Y017562D01*
X012228Y017565D01*
X012201Y017572D01*
X012176Y017582D01*
X012152Y017596D01*
X012130Y017613D01*
X012111Y017632D01*
X012095Y017655D01*
X012082Y017679D01*
X012073Y017705D01*
X012067Y017732D01*
X012065Y017759D01*
X013088Y017818D02*
X013090Y017845D01*
X013096Y017872D01*
X013105Y017898D01*
X013118Y017922D01*
X013134Y017945D01*
X013153Y017964D01*
X013175Y017981D01*
X013199Y017995D01*
X013224Y018005D01*
X013251Y018012D01*
X013278Y018015D01*
X013306Y018014D01*
X013333Y018009D01*
X013359Y018001D01*
X013383Y017989D01*
X013406Y017973D01*
X013427Y017955D01*
X013444Y017934D01*
X013459Y017910D01*
X013470Y017885D01*
X013478Y017859D01*
X013482Y017832D01*
X013482Y017804D01*
X013478Y017777D01*
X013470Y017751D01*
X013459Y017726D01*
X013444Y017702D01*
X013427Y017681D01*
X013406Y017663D01*
X013384Y017647D01*
X013359Y017635D01*
X013333Y017627D01*
X013306Y017622D01*
X013278Y017621D01*
X013251Y017624D01*
X013224Y017631D01*
X013199Y017641D01*
X013175Y017655D01*
X013153Y017672D01*
X013134Y017691D01*
X013118Y017714D01*
X013105Y017738D01*
X013096Y017764D01*
X013090Y017791D01*
X013088Y017818D01*
X013620Y018133D02*
X013622Y018160D01*
X013628Y018187D01*
X013637Y018213D01*
X013650Y018237D01*
X013666Y018260D01*
X013685Y018279D01*
X013707Y018296D01*
X013731Y018310D01*
X013756Y018320D01*
X013783Y018327D01*
X013810Y018330D01*
X013838Y018329D01*
X013865Y018324D01*
X013891Y018316D01*
X013915Y018304D01*
X013938Y018288D01*
X013959Y018270D01*
X013976Y018249D01*
X013991Y018225D01*
X014002Y018200D01*
X014010Y018174D01*
X014014Y018147D01*
X014014Y018119D01*
X014010Y018092D01*
X014002Y018066D01*
X013991Y018041D01*
X013976Y018017D01*
X013959Y017996D01*
X013938Y017978D01*
X013916Y017962D01*
X013891Y017950D01*
X013865Y017942D01*
X013838Y017937D01*
X013810Y017936D01*
X013783Y017939D01*
X013756Y017946D01*
X013731Y017956D01*
X013707Y017970D01*
X013685Y017987D01*
X013666Y018006D01*
X013650Y018029D01*
X013637Y018053D01*
X013628Y018079D01*
X013622Y018106D01*
X013620Y018133D01*
X013068Y018369D02*
X013070Y018396D01*
X013076Y018423D01*
X013085Y018449D01*
X013098Y018473D01*
X013114Y018496D01*
X013133Y018515D01*
X013155Y018532D01*
X013179Y018546D01*
X013204Y018556D01*
X013231Y018563D01*
X013258Y018566D01*
X013286Y018565D01*
X013313Y018560D01*
X013339Y018552D01*
X013363Y018540D01*
X013386Y018524D01*
X013407Y018506D01*
X013424Y018485D01*
X013439Y018461D01*
X013450Y018436D01*
X013458Y018410D01*
X013462Y018383D01*
X013462Y018355D01*
X013458Y018328D01*
X013450Y018302D01*
X013439Y018277D01*
X013424Y018253D01*
X013407Y018232D01*
X013386Y018214D01*
X013364Y018198D01*
X013339Y018186D01*
X013313Y018178D01*
X013286Y018173D01*
X013258Y018172D01*
X013231Y018175D01*
X013204Y018182D01*
X013179Y018192D01*
X013155Y018206D01*
X013133Y018223D01*
X013114Y018242D01*
X013098Y018265D01*
X013085Y018289D01*
X013076Y018315D01*
X013070Y018342D01*
X013068Y018369D01*
X014112Y018408D02*
X014114Y018435D01*
X014120Y018462D01*
X014129Y018488D01*
X014142Y018512D01*
X014158Y018535D01*
X014177Y018554D01*
X014199Y018571D01*
X014223Y018585D01*
X014248Y018595D01*
X014275Y018602D01*
X014302Y018605D01*
X014330Y018604D01*
X014357Y018599D01*
X014383Y018591D01*
X014407Y018579D01*
X014430Y018563D01*
X014451Y018545D01*
X014468Y018524D01*
X014483Y018500D01*
X014494Y018475D01*
X014502Y018449D01*
X014506Y018422D01*
X014506Y018394D01*
X014502Y018367D01*
X014494Y018341D01*
X014483Y018316D01*
X014468Y018292D01*
X014451Y018271D01*
X014430Y018253D01*
X014408Y018237D01*
X014383Y018225D01*
X014357Y018217D01*
X014330Y018212D01*
X014302Y018211D01*
X014275Y018214D01*
X014248Y018221D01*
X014223Y018231D01*
X014199Y018245D01*
X014177Y018262D01*
X014158Y018281D01*
X014142Y018304D01*
X014129Y018328D01*
X014120Y018354D01*
X014114Y018381D01*
X014112Y018408D01*
X014624Y018684D02*
X014626Y018711D01*
X014632Y018738D01*
X014641Y018764D01*
X014654Y018788D01*
X014670Y018811D01*
X014689Y018830D01*
X014711Y018847D01*
X014735Y018861D01*
X014760Y018871D01*
X014787Y018878D01*
X014814Y018881D01*
X014842Y018880D01*
X014869Y018875D01*
X014895Y018867D01*
X014919Y018855D01*
X014942Y018839D01*
X014963Y018821D01*
X014980Y018800D01*
X014995Y018776D01*
X015006Y018751D01*
X015014Y018725D01*
X015018Y018698D01*
X015018Y018670D01*
X015014Y018643D01*
X015006Y018617D01*
X014995Y018592D01*
X014980Y018568D01*
X014963Y018547D01*
X014942Y018529D01*
X014920Y018513D01*
X014895Y018501D01*
X014869Y018493D01*
X014842Y018488D01*
X014814Y018487D01*
X014787Y018490D01*
X014760Y018497D01*
X014735Y018507D01*
X014711Y018521D01*
X014689Y018538D01*
X014670Y018557D01*
X014654Y018580D01*
X014641Y018604D01*
X014632Y018630D01*
X014626Y018657D01*
X014624Y018684D01*
X014112Y018960D02*
X014114Y018987D01*
X014120Y019014D01*
X014129Y019040D01*
X014142Y019064D01*
X014158Y019087D01*
X014177Y019106D01*
X014199Y019123D01*
X014223Y019137D01*
X014248Y019147D01*
X014275Y019154D01*
X014302Y019157D01*
X014330Y019156D01*
X014357Y019151D01*
X014383Y019143D01*
X014407Y019131D01*
X014430Y019115D01*
X014451Y019097D01*
X014468Y019076D01*
X014483Y019052D01*
X014494Y019027D01*
X014502Y019001D01*
X014506Y018974D01*
X014506Y018946D01*
X014502Y018919D01*
X014494Y018893D01*
X014483Y018868D01*
X014468Y018844D01*
X014451Y018823D01*
X014430Y018805D01*
X014408Y018789D01*
X014383Y018777D01*
X014357Y018769D01*
X014330Y018764D01*
X014302Y018763D01*
X014275Y018766D01*
X014248Y018773D01*
X014223Y018783D01*
X014199Y018797D01*
X014177Y018814D01*
X014158Y018833D01*
X014142Y018856D01*
X014129Y018880D01*
X014120Y018906D01*
X014114Y018933D01*
X014112Y018960D01*
X015057Y019452D02*
X015059Y019479D01*
X015065Y019506D01*
X015074Y019532D01*
X015087Y019556D01*
X015103Y019579D01*
X015122Y019598D01*
X015144Y019615D01*
X015168Y019629D01*
X015193Y019639D01*
X015220Y019646D01*
X015247Y019649D01*
X015275Y019648D01*
X015302Y019643D01*
X015328Y019635D01*
X015352Y019623D01*
X015375Y019607D01*
X015396Y019589D01*
X015413Y019568D01*
X015428Y019544D01*
X015439Y019519D01*
X015447Y019493D01*
X015451Y019466D01*
X015451Y019438D01*
X015447Y019411D01*
X015439Y019385D01*
X015428Y019360D01*
X015413Y019336D01*
X015396Y019315D01*
X015375Y019297D01*
X015353Y019281D01*
X015328Y019269D01*
X015302Y019261D01*
X015275Y019256D01*
X015247Y019255D01*
X015220Y019258D01*
X015193Y019265D01*
X015168Y019275D01*
X015144Y019289D01*
X015122Y019306D01*
X015103Y019325D01*
X015087Y019348D01*
X015074Y019372D01*
X015065Y019398D01*
X015059Y019425D01*
X015057Y019452D01*
X015116Y018920D02*
X015118Y018947D01*
X015124Y018974D01*
X015133Y019000D01*
X015146Y019024D01*
X015162Y019047D01*
X015181Y019066D01*
X015203Y019083D01*
X015227Y019097D01*
X015252Y019107D01*
X015279Y019114D01*
X015306Y019117D01*
X015334Y019116D01*
X015361Y019111D01*
X015387Y019103D01*
X015411Y019091D01*
X015434Y019075D01*
X015455Y019057D01*
X015472Y019036D01*
X015487Y019012D01*
X015498Y018987D01*
X015506Y018961D01*
X015510Y018934D01*
X015510Y018906D01*
X015506Y018879D01*
X015498Y018853D01*
X015487Y018828D01*
X015472Y018804D01*
X015455Y018783D01*
X015434Y018765D01*
X015412Y018749D01*
X015387Y018737D01*
X015361Y018729D01*
X015334Y018724D01*
X015306Y018723D01*
X015279Y018726D01*
X015252Y018733D01*
X015227Y018743D01*
X015203Y018757D01*
X015181Y018774D01*
X015162Y018793D01*
X015146Y018816D01*
X015133Y018840D01*
X015124Y018866D01*
X015118Y018893D01*
X015116Y018920D01*
X015608Y019176D02*
X015610Y019203D01*
X015616Y019230D01*
X015625Y019256D01*
X015638Y019280D01*
X015654Y019303D01*
X015673Y019322D01*
X015695Y019339D01*
X015719Y019353D01*
X015744Y019363D01*
X015771Y019370D01*
X015798Y019373D01*
X015826Y019372D01*
X015853Y019367D01*
X015879Y019359D01*
X015903Y019347D01*
X015926Y019331D01*
X015947Y019313D01*
X015964Y019292D01*
X015979Y019268D01*
X015990Y019243D01*
X015998Y019217D01*
X016002Y019190D01*
X016002Y019162D01*
X015998Y019135D01*
X015990Y019109D01*
X015979Y019084D01*
X015964Y019060D01*
X015947Y019039D01*
X015926Y019021D01*
X015904Y019005D01*
X015879Y018993D01*
X015853Y018985D01*
X015826Y018980D01*
X015798Y018979D01*
X015771Y018982D01*
X015744Y018989D01*
X015719Y018999D01*
X015695Y019013D01*
X015673Y019030D01*
X015654Y019049D01*
X015638Y019072D01*
X015625Y019096D01*
X015616Y019122D01*
X015610Y019149D01*
X015608Y019176D01*
X016120Y019412D02*
X016122Y019439D01*
X016128Y019466D01*
X016137Y019492D01*
X016150Y019516D01*
X016166Y019539D01*
X016185Y019558D01*
X016207Y019575D01*
X016231Y019589D01*
X016256Y019599D01*
X016283Y019606D01*
X016310Y019609D01*
X016338Y019608D01*
X016365Y019603D01*
X016391Y019595D01*
X016415Y019583D01*
X016438Y019567D01*
X016459Y019549D01*
X016476Y019528D01*
X016491Y019504D01*
X016502Y019479D01*
X016510Y019453D01*
X016514Y019426D01*
X016514Y019398D01*
X016510Y019371D01*
X016502Y019345D01*
X016491Y019320D01*
X016476Y019296D01*
X016459Y019275D01*
X016438Y019257D01*
X016416Y019241D01*
X016391Y019229D01*
X016365Y019221D01*
X016338Y019216D01*
X016310Y019215D01*
X016283Y019218D01*
X016256Y019225D01*
X016231Y019235D01*
X016207Y019249D01*
X016185Y019266D01*
X016166Y019285D01*
X016150Y019308D01*
X016137Y019332D01*
X016128Y019358D01*
X016122Y019385D01*
X016120Y019412D01*
X016120Y019944D02*
X016122Y019971D01*
X016128Y019998D01*
X016137Y020024D01*
X016150Y020048D01*
X016166Y020071D01*
X016185Y020090D01*
X016207Y020107D01*
X016231Y020121D01*
X016256Y020131D01*
X016283Y020138D01*
X016310Y020141D01*
X016338Y020140D01*
X016365Y020135D01*
X016391Y020127D01*
X016415Y020115D01*
X016438Y020099D01*
X016459Y020081D01*
X016476Y020060D01*
X016491Y020036D01*
X016502Y020011D01*
X016510Y019985D01*
X016514Y019958D01*
X016514Y019930D01*
X016510Y019903D01*
X016502Y019877D01*
X016491Y019852D01*
X016476Y019828D01*
X016459Y019807D01*
X016438Y019789D01*
X016416Y019773D01*
X016391Y019761D01*
X016365Y019753D01*
X016338Y019748D01*
X016310Y019747D01*
X016283Y019750D01*
X016256Y019757D01*
X016231Y019767D01*
X016207Y019781D01*
X016185Y019798D01*
X016166Y019817D01*
X016150Y019840D01*
X016137Y019864D01*
X016128Y019890D01*
X016122Y019917D01*
X016120Y019944D01*
X012478Y021079D02*
X012480Y021123D01*
X012486Y021167D01*
X012496Y021210D01*
X012509Y021252D01*
X012527Y021292D01*
X012548Y021331D01*
X012572Y021368D01*
X012599Y021403D01*
X012630Y021435D01*
X012663Y021464D01*
X012699Y021490D01*
X012737Y021512D01*
X012777Y021531D01*
X012818Y021547D01*
X012861Y021559D01*
X012904Y021567D01*
X012948Y021571D01*
X012992Y021571D01*
X013036Y021567D01*
X013079Y021559D01*
X013122Y021547D01*
X013163Y021531D01*
X013203Y021512D01*
X013241Y021490D01*
X013277Y021464D01*
X013310Y021435D01*
X013341Y021403D01*
X013368Y021368D01*
X013392Y021331D01*
X013413Y021292D01*
X013431Y021252D01*
X013444Y021210D01*
X013454Y021167D01*
X013460Y021123D01*
X013462Y021079D01*
X013460Y021035D01*
X013454Y020991D01*
X013444Y020948D01*
X013431Y020906D01*
X013413Y020866D01*
X013392Y020827D01*
X013368Y020790D01*
X013341Y020755D01*
X013310Y020723D01*
X013277Y020694D01*
X013241Y020668D01*
X013203Y020646D01*
X013163Y020627D01*
X013122Y020611D01*
X013079Y020599D01*
X013036Y020591D01*
X012992Y020587D01*
X012948Y020587D01*
X012904Y020591D01*
X012861Y020599D01*
X012818Y020611D01*
X012777Y020627D01*
X012737Y020646D01*
X012699Y020668D01*
X012663Y020694D01*
X012630Y020723D01*
X012599Y020755D01*
X012572Y020790D01*
X012548Y020827D01*
X012527Y020866D01*
X012509Y020906D01*
X012496Y020948D01*
X012486Y020991D01*
X012480Y021035D01*
X012478Y021079D01*
X020144Y008781D02*
X020146Y008822D01*
X020152Y008863D01*
X020162Y008903D01*
X020175Y008942D01*
X020192Y008979D01*
X020213Y009015D01*
X020237Y009049D01*
X020264Y009080D01*
X020293Y009108D01*
X020326Y009134D01*
X020360Y009156D01*
X020397Y009175D01*
X020435Y009190D01*
X020475Y009202D01*
X020515Y009210D01*
X020556Y009214D01*
X020598Y009214D01*
X020639Y009210D01*
X020679Y009202D01*
X020719Y009190D01*
X020757Y009175D01*
X020793Y009156D01*
X020828Y009134D01*
X020861Y009108D01*
X020890Y009080D01*
X020917Y009049D01*
X020941Y009015D01*
X020962Y008979D01*
X020979Y008942D01*
X020992Y008903D01*
X021002Y008863D01*
X021008Y008822D01*
X021010Y008781D01*
X021008Y008740D01*
X021002Y008699D01*
X020992Y008659D01*
X020979Y008620D01*
X020962Y008583D01*
X020941Y008547D01*
X020917Y008513D01*
X020890Y008482D01*
X020861Y008454D01*
X020828Y008428D01*
X020794Y008406D01*
X020757Y008387D01*
X020719Y008372D01*
X020679Y008360D01*
X020639Y008352D01*
X020598Y008348D01*
X020556Y008348D01*
X020515Y008352D01*
X020475Y008360D01*
X020435Y008372D01*
X020397Y008387D01*
X020361Y008406D01*
X020326Y008428D01*
X020293Y008454D01*
X020264Y008482D01*
X020237Y008513D01*
X020213Y008547D01*
X020192Y008583D01*
X020175Y008620D01*
X020162Y008659D01*
X020152Y008699D01*
X020146Y008740D01*
X020144Y008781D01*
X023929Y002550D02*
X023931Y002594D01*
X023937Y002638D01*
X023947Y002681D01*
X023960Y002723D01*
X023978Y002763D01*
X023999Y002802D01*
X024023Y002839D01*
X024050Y002874D01*
X024081Y002906D01*
X024114Y002935D01*
X024150Y002961D01*
X024188Y002983D01*
X024228Y003002D01*
X024269Y003018D01*
X024312Y003030D01*
X024355Y003038D01*
X024399Y003042D01*
X024443Y003042D01*
X024487Y003038D01*
X024530Y003030D01*
X024573Y003018D01*
X024614Y003002D01*
X024654Y002983D01*
X024692Y002961D01*
X024728Y002935D01*
X024761Y002906D01*
X024792Y002874D01*
X024819Y002839D01*
X024843Y002802D01*
X024864Y002763D01*
X024882Y002723D01*
X024895Y002681D01*
X024905Y002638D01*
X024911Y002594D01*
X024913Y002550D01*
X024911Y002506D01*
X024905Y002462D01*
X024895Y002419D01*
X024882Y002377D01*
X024864Y002337D01*
X024843Y002298D01*
X024819Y002261D01*
X024792Y002226D01*
X024761Y002194D01*
X024728Y002165D01*
X024692Y002139D01*
X024654Y002117D01*
X024614Y002098D01*
X024573Y002082D01*
X024530Y002070D01*
X024487Y002062D01*
X024443Y002058D01*
X024399Y002058D01*
X024355Y002062D01*
X024312Y002070D01*
X024269Y002082D01*
X024228Y002098D01*
X024188Y002117D01*
X024150Y002139D01*
X024114Y002165D01*
X024081Y002194D01*
X024050Y002226D01*
X024023Y002261D01*
X023999Y002298D01*
X023978Y002337D01*
X023960Y002377D01*
X023947Y002419D01*
X023937Y002462D01*
X023931Y002506D01*
X023929Y002550D01*
X033359Y021185D02*
X033361Y021229D01*
X033367Y021273D01*
X033377Y021316D01*
X033390Y021358D01*
X033408Y021398D01*
X033429Y021437D01*
X033453Y021474D01*
X033480Y021509D01*
X033511Y021541D01*
X033544Y021570D01*
X033580Y021596D01*
X033618Y021618D01*
X033658Y021637D01*
X033699Y021653D01*
X033742Y021665D01*
X033785Y021673D01*
X033829Y021677D01*
X033873Y021677D01*
X033917Y021673D01*
X033960Y021665D01*
X034003Y021653D01*
X034044Y021637D01*
X034084Y021618D01*
X034122Y021596D01*
X034158Y021570D01*
X034191Y021541D01*
X034222Y021509D01*
X034249Y021474D01*
X034273Y021437D01*
X034294Y021398D01*
X034312Y021358D01*
X034325Y021316D01*
X034335Y021273D01*
X034341Y021229D01*
X034343Y021185D01*
X034341Y021141D01*
X034335Y021097D01*
X034325Y021054D01*
X034312Y021012D01*
X034294Y020972D01*
X034273Y020933D01*
X034249Y020896D01*
X034222Y020861D01*
X034191Y020829D01*
X034158Y020800D01*
X034122Y020774D01*
X034084Y020752D01*
X034044Y020733D01*
X034003Y020717D01*
X033960Y020705D01*
X033917Y020697D01*
X033873Y020693D01*
X033829Y020693D01*
X033785Y020697D01*
X033742Y020705D01*
X033699Y020717D01*
X033658Y020733D01*
X033618Y020752D01*
X033580Y020774D01*
X033544Y020800D01*
X033511Y020829D01*
X033480Y020861D01*
X033453Y020896D01*
X033429Y020933D01*
X033408Y020972D01*
X033390Y021012D01*
X033377Y021054D01*
X033367Y021097D01*
X033361Y021141D01*
X033359Y021185D01*
D11*
X030126Y021097D02*
X030126Y021609D01*
X030126Y020704D02*
X030126Y020192D01*
X030126Y019798D02*
X030126Y019286D01*
X030123Y019061D02*
X030123Y018846D01*
X029932Y018846D01*
X029808Y018850D02*
X029251Y018850D01*
X028857Y018849D02*
X028301Y018848D01*
X027907Y018847D02*
X027350Y018846D01*
X027227Y018846D02*
X026972Y018848D01*
X026972Y019085D01*
X026971Y019789D02*
X026971Y020242D01*
X026971Y020635D02*
X026971Y021088D01*
X026531Y020789D02*
X026104Y020789D01*
X025710Y020789D02*
X025283Y020789D01*
X024889Y020789D02*
X024461Y020788D01*
X024068Y020788D02*
X023640Y020788D01*
X023247Y020788D02*
X022819Y020788D01*
X022426Y020788D02*
X021998Y020788D01*
X021605Y020788D02*
X021177Y020788D01*
X020784Y020788D02*
X020356Y020788D01*
X019963Y020788D02*
X019535Y020787D01*
X019485Y020845D02*
X019486Y021474D01*
X019487Y021868D02*
X019488Y022497D01*
X022475Y016152D02*
X022477Y016174D01*
X022482Y016194D01*
X022492Y016214D01*
X022504Y016232D01*
X022519Y016247D01*
X022537Y016259D01*
X022557Y016269D01*
X022577Y016274D01*
X022599Y016276D01*
X022621Y016274D01*
X022641Y016269D01*
X022661Y016259D01*
X022679Y016247D01*
X022694Y016232D01*
X022706Y016214D01*
X022716Y016194D01*
X022721Y016174D01*
X022723Y016152D01*
X022721Y016130D01*
X022716Y016110D01*
X022706Y016090D01*
X022694Y016072D01*
X022679Y016057D01*
X022661Y016045D01*
X022641Y016035D01*
X022621Y016030D01*
X022599Y016028D01*
X022577Y016030D01*
X022557Y016035D01*
X022537Y016045D01*
X022519Y016057D01*
X022504Y016072D01*
X022492Y016090D01*
X022482Y016110D01*
X022477Y016130D01*
X022475Y016152D01*
X027609Y012716D02*
X028620Y012237D01*
X029825Y014726D01*
X028839Y015175D01*
X027609Y012716D01*
X027418Y012368D02*
X028394Y011896D01*
X027107Y009344D01*
X026109Y009823D01*
X027418Y012368D01*
X028621Y011595D02*
X028806Y011964D01*
X028982Y012316D02*
X029166Y012686D01*
X029343Y013038D02*
X029527Y013407D01*
X029703Y013759D02*
X029888Y014129D01*
X030064Y014481D02*
X030249Y014850D01*
X030342Y015032D02*
X030450Y015241D01*
X030352Y015239D02*
X029918Y015456D01*
X029566Y015632D02*
X029132Y015849D01*
X028995Y015922D02*
X028691Y016071D01*
X028840Y016370D01*
X028893Y016472D02*
X029123Y016931D01*
X029299Y017283D02*
X029529Y017743D01*
X029706Y018095D02*
X029936Y018554D01*
X029988Y018659D02*
X030105Y018891D01*
X030351Y018768D01*
X030559Y018665D02*
X030966Y018461D01*
X031318Y018285D02*
X031725Y018081D01*
X032077Y017904D02*
X032483Y017700D01*
X031301Y014725D02*
X031642Y014581D01*
X028445Y011243D02*
X028260Y010873D01*
X028084Y010521D02*
X027899Y010152D01*
X027723Y009800D02*
X027539Y009430D01*
X027363Y009078D02*
X027178Y008709D01*
X027168Y008694D02*
X027072Y008512D01*
X027249Y008423D01*
X027327Y008385D02*
X027741Y008177D01*
X028093Y008001D02*
X028508Y007794D01*
X011605Y014454D02*
X010605Y014954D01*
X009684Y012922D01*
X010684Y012422D01*
X011605Y014454D01*
X010325Y015129D02*
X010225Y014933D01*
X010146Y014772D02*
X009964Y014408D01*
X009788Y014056D02*
X009606Y013693D01*
X009430Y013341D02*
X009248Y012977D01*
X009072Y012625D02*
X008890Y012262D01*
X008713Y011910D02*
X008532Y011546D01*
X008355Y011194D02*
X008174Y010831D01*
X007997Y010479D02*
X007816Y010115D01*
X007639Y009763D02*
X007457Y009400D01*
X007281Y009047D02*
X007099Y008684D01*
X007059Y008607D02*
X006955Y008403D01*
X006743Y008505D01*
X007038Y008398D02*
X007543Y008145D01*
X007895Y007969D02*
X008400Y007716D01*
X008513Y007662D02*
X008715Y007559D01*
X008614Y007360D01*
X008477Y007094D02*
X008263Y006667D01*
X008087Y006315D02*
X007873Y005888D01*
X007696Y005536D02*
X007482Y005109D01*
X007423Y004975D02*
X007299Y004733D01*
X007088Y004846D01*
X006837Y004973D02*
X006471Y005158D01*
X006119Y005336D02*
X005753Y005521D01*
X005402Y005699D02*
X005036Y005884D01*
X007908Y009204D02*
X008908Y008704D01*
X009846Y010579D01*
X008908Y011079D01*
X007908Y009204D01*
X010325Y015129D02*
X010184Y015199D01*
X009981Y015305D02*
X009527Y015532D01*
X009175Y015708D02*
X008721Y015935D01*
D12*
X009854Y017065D02*
X009826Y017148D01*
X009881Y017258D01*
X009964Y017286D01*
X010185Y017176D01*
X010213Y017093D01*
X010158Y016983D01*
X010075Y016955D01*
X009854Y017065D01*
X010018Y017395D02*
X009990Y017477D01*
X010045Y017588D01*
X010128Y017616D01*
X010404Y017479D01*
X010458Y017587D02*
X010568Y017809D01*
X010513Y017698D02*
X010181Y017863D01*
X010456Y018000D02*
X010566Y018221D01*
X010785Y018247D02*
X010454Y018412D01*
X010564Y018633D01*
X010018Y017395D02*
X010294Y017257D01*
X015993Y021830D02*
X016116Y021830D01*
X016054Y021830D02*
X016054Y022201D01*
X015993Y022201D02*
X016116Y022201D01*
X016238Y022201D02*
X016238Y021830D01*
X016485Y022201D01*
X016485Y021830D01*
X016606Y021830D02*
X016606Y022201D01*
X016606Y022077D02*
X016792Y022077D01*
X016853Y022015D01*
X016853Y021892D01*
X016792Y021830D01*
X016606Y021830D01*
X016975Y021830D02*
X016975Y022139D01*
X017036Y022201D01*
X017160Y022201D01*
X017222Y022139D01*
X017222Y021830D01*
X017343Y021830D02*
X017590Y021830D01*
X017466Y021830D02*
X017466Y022201D01*
X030393Y022211D02*
X030393Y021841D01*
X030578Y021841D01*
X030640Y021903D01*
X030640Y022150D01*
X030578Y022211D01*
X030393Y022211D01*
X030761Y022211D02*
X030885Y022211D01*
X030823Y022211D02*
X030823Y021841D01*
X030761Y021841D02*
X030885Y021841D01*
X031007Y021903D02*
X031007Y021964D01*
X031068Y022026D01*
X031192Y022026D01*
X031254Y022088D01*
X031254Y022150D01*
X031192Y022211D01*
X031068Y022211D01*
X031007Y022150D01*
X031007Y021903D02*
X031068Y021841D01*
X031192Y021841D01*
X031254Y021903D01*
X031375Y021841D02*
X031375Y022211D01*
X031375Y022088D02*
X031622Y021841D01*
X031743Y021903D02*
X031743Y022150D01*
X031805Y022211D01*
X031928Y022211D01*
X031990Y022150D01*
X031990Y021903D01*
X031928Y021841D01*
X031805Y021841D01*
X031743Y021903D01*
X031437Y022026D02*
X031622Y022211D01*
X032112Y022211D02*
X032112Y021841D01*
X032112Y022026D02*
X032359Y022026D01*
X032480Y022026D02*
X032603Y022026D01*
X032480Y021841D02*
X032480Y022211D01*
X032727Y022211D01*
X032848Y022211D02*
X033033Y022211D01*
X033095Y022150D01*
X033095Y021903D01*
X033033Y021841D01*
X032848Y021841D01*
X032848Y022211D01*
X033217Y022211D02*
X033217Y021841D01*
X033402Y021841D01*
X033463Y021903D01*
X033463Y022026D01*
X033402Y022088D01*
X033217Y022088D01*
X033340Y022088D02*
X033463Y022211D01*
X033585Y022150D02*
X033647Y022211D01*
X033770Y022211D01*
X033832Y022150D01*
X033832Y021903D01*
X033770Y021841D01*
X033647Y021841D01*
X033585Y021903D01*
X033585Y022150D01*
X033953Y022211D02*
X033953Y021841D01*
X034200Y022211D01*
X034200Y021841D01*
X032727Y021841D02*
X032480Y021841D01*
X032359Y021841D02*
X032359Y022211D01*
X027285Y007886D02*
X027231Y007776D01*
X027258Y007831D02*
X027590Y007666D01*
X027617Y007721D02*
X027562Y007611D01*
X027508Y007501D02*
X027176Y007666D01*
X027398Y007280D01*
X027067Y007445D01*
X027178Y007254D02*
X027069Y007033D01*
X027070Y006897D02*
X026988Y006731D01*
X026905Y006703D01*
X026794Y006758D01*
X026766Y006840D01*
X026849Y007006D01*
X027180Y006842D01*
X027015Y006786D02*
X027071Y006621D01*
X027168Y006300D02*
X027085Y006134D01*
X027113Y006051D01*
X027224Y005996D01*
X027307Y006024D01*
X027389Y006190D01*
X027500Y006135D02*
X027168Y006300D01*
X027388Y006326D02*
X027497Y006547D01*
X027386Y006738D02*
X027495Y006959D01*
X027549Y007068D02*
X027826Y006931D01*
X027908Y006959D01*
X027963Y007069D01*
X027936Y007152D01*
X027659Y007289D01*
X027768Y007371D02*
X027741Y007453D01*
X027795Y007564D01*
X027878Y007592D01*
X028099Y007482D01*
X028127Y007399D01*
X028072Y007289D01*
X027990Y007261D01*
X027768Y007371D01*
X027440Y006849D02*
X027772Y006684D01*
X027334Y006079D02*
X027390Y005914D01*
X023115Y002224D02*
X023115Y002031D01*
X023115Y002128D02*
X023018Y002224D01*
X022970Y002224D01*
X022869Y002176D02*
X022821Y002224D01*
X022724Y002224D01*
X022676Y002176D01*
X022676Y002128D01*
X022869Y002128D01*
X022869Y002176D02*
X022869Y002079D01*
X022821Y002031D01*
X022724Y002031D01*
X022767Y001845D02*
X022670Y001845D01*
X022622Y001797D01*
X022622Y001748D01*
X022670Y001700D01*
X022622Y001651D01*
X022622Y001603D01*
X022670Y001555D01*
X022767Y001555D01*
X022815Y001603D01*
X022916Y001603D02*
X022965Y001555D01*
X023061Y001555D01*
X023110Y001603D01*
X022916Y001797D01*
X022916Y001603D01*
X022916Y001797D02*
X022965Y001845D01*
X023061Y001845D01*
X023110Y001797D01*
X023110Y001603D01*
X022815Y001797D02*
X022767Y001845D01*
X022718Y001700D02*
X022670Y001700D01*
X022521Y001555D02*
X022327Y001845D01*
X022226Y001797D02*
X022178Y001845D01*
X022081Y001845D01*
X022032Y001797D01*
X022032Y001748D01*
X022226Y001555D01*
X022032Y001555D01*
X021931Y001603D02*
X021883Y001555D01*
X021786Y001555D01*
X021738Y001603D01*
X021738Y001797D01*
X021931Y001603D01*
X021931Y001797D01*
X021883Y001845D01*
X021786Y001845D01*
X021738Y001797D01*
X021637Y001748D02*
X021540Y001845D01*
X021540Y001555D01*
X021637Y001555D02*
X021443Y001555D01*
X021342Y001603D02*
X021294Y001555D01*
X021197Y001555D01*
X021148Y001603D01*
X021148Y001700D01*
X021197Y001748D01*
X021245Y001748D01*
X021342Y001700D01*
X021342Y001845D01*
X021148Y001845D01*
X020503Y001882D02*
X020503Y001636D01*
X020441Y001574D01*
X020318Y001574D01*
X020256Y001636D01*
X020256Y001882D01*
X020318Y001944D01*
X020441Y001944D01*
X020503Y001882D01*
X020134Y001944D02*
X020134Y001636D01*
X020073Y001574D01*
X019949Y001574D01*
X019888Y001636D01*
X019888Y001944D01*
X019766Y001944D02*
X019519Y001944D01*
X019643Y001944D02*
X019643Y001574D01*
X019398Y001759D02*
X019151Y001759D01*
X019029Y001821D02*
X018968Y001759D01*
X018844Y001759D01*
X018783Y001697D01*
X018783Y001636D01*
X018844Y001574D01*
X018968Y001574D01*
X019029Y001636D01*
X019029Y001821D02*
X019029Y001882D01*
X018968Y001944D01*
X018844Y001944D01*
X018783Y001882D01*
X021939Y002321D02*
X022133Y002321D01*
X022133Y002031D01*
X022232Y002031D02*
X022280Y002031D01*
X022280Y002079D01*
X022232Y002079D01*
X022232Y002031D01*
X022133Y002176D02*
X022036Y002176D01*
X022381Y002224D02*
X022478Y002031D01*
X022575Y002224D01*
X006665Y001785D02*
X006665Y001415D01*
X006541Y001538D01*
X006418Y001415D01*
X006418Y001785D01*
X006297Y001785D02*
X006297Y001415D01*
X006297Y001600D02*
X006050Y001600D01*
X006050Y001785D02*
X006050Y001415D01*
X005928Y001415D02*
X005805Y001415D01*
X005867Y001415D02*
X005867Y001785D01*
X005928Y001785D02*
X005805Y001785D01*
X005683Y001785D02*
X005436Y001785D01*
X005314Y001785D02*
X005314Y001415D01*
X005068Y001415D01*
X004946Y001415D02*
X004946Y001785D01*
X004823Y001662D01*
X004699Y001785D01*
X004699Y001415D01*
X004578Y001415D02*
X004454Y001415D01*
X004516Y001415D02*
X004516Y001785D01*
X004578Y001785D02*
X004454Y001785D01*
X004332Y001785D02*
X004332Y001415D01*
X004332Y001538D02*
X004147Y001538D01*
X004085Y001600D01*
X004085Y001724D01*
X004147Y001785D01*
X004332Y001785D01*
X004209Y001538D02*
X004085Y001415D01*
X003964Y001415D02*
X003964Y001785D01*
X003779Y001785D01*
X003717Y001724D01*
X003717Y001600D01*
X003779Y001538D01*
X003964Y001538D01*
X003841Y001538D02*
X003717Y001415D01*
X003596Y001477D02*
X003534Y001415D01*
X003410Y001415D01*
X003349Y001477D01*
X003349Y001724D01*
X003410Y001785D01*
X003534Y001785D01*
X003596Y001724D01*
X003596Y001477D01*
X003227Y001538D02*
X003042Y001538D01*
X002980Y001600D01*
X002980Y001724D01*
X003042Y001785D01*
X003227Y001785D01*
X003227Y001415D01*
X003104Y001538D02*
X002980Y001415D01*
X005068Y001785D02*
X005314Y001785D01*
X005314Y001600D02*
X005191Y001600D01*
X005559Y001415D02*
X005559Y001785D01*
D13*
X004413Y001214D02*
X001539Y001213D01*
X007115Y001213D01*
X007230Y001441D01*
X006758Y002071D01*
X006748Y002144D01*
X006234Y002834D01*
X006132Y002757D01*
X005911Y003053D01*
X005971Y003098D01*
X005975Y003115D01*
X005594Y003624D01*
X005298Y003031D01*
X005377Y002991D01*
X005217Y002671D01*
X005105Y002727D01*
X004991Y002783D01*
X005156Y003114D01*
X005224Y003080D01*
X005241Y003085D01*
X005525Y003653D01*
X004862Y003653D01*
X004862Y003563D01*
X004504Y003563D01*
X004504Y003689D01*
X003640Y003689D01*
X003550Y003653D01*
X002797Y003653D01*
X002461Y002979D01*
X002385Y002911D01*
X001999Y002139D01*
X002116Y002081D01*
X001950Y001751D01*
X001882Y001785D01*
X001861Y001781D01*
X001578Y001214D01*
X001543Y001214D01*
X004004Y006145D01*
X004191Y006184D01*
X004781Y005889D01*
X005469Y007261D01*
X005753Y006995D01*
X005796Y006903D01*
X006345Y006389D01*
X006131Y005667D01*
X006139Y005570D01*
X005893Y004742D01*
X005772Y004778D01*
X005670Y004435D01*
X005756Y004409D01*
X005567Y003774D01*
X005103Y004209D01*
X005104Y004226D01*
X005156Y004282D01*
X004886Y004534D01*
X004799Y004441D01*
X004173Y005032D01*
X004152Y005102D01*
X003696Y005529D01*
X005893Y004742D02*
X006013Y004706D01*
X005911Y004363D01*
X005825Y004389D01*
X005636Y003754D01*
X006262Y003864D01*
X006271Y003879D01*
X006258Y003953D01*
X006622Y004017D01*
X006643Y003892D01*
X007490Y004043D01*
X007547Y004090D01*
X008322Y004227D01*
X008896Y003688D01*
X008918Y003618D01*
X009544Y003028D01*
X009631Y003121D01*
X009900Y002868D01*
X009848Y002813D01*
X009848Y002795D01*
X010311Y002361D01*
X010500Y002996D01*
X010415Y003021D01*
X010517Y003364D01*
X010638Y003329D01*
X010884Y004157D01*
X010945Y004233D01*
X011160Y004954D01*
X011901Y005084D01*
X011988Y005138D01*
X012838Y005287D01*
X012861Y005159D01*
X013224Y005223D01*
X013211Y005298D01*
X013221Y005317D01*
X013491Y005229D01*
X013067Y002813D01*
X013641Y002275D01*
X013663Y002204D01*
X014289Y001614D01*
X014376Y001707D01*
X014645Y001455D01*
X014593Y001399D01*
X014593Y001382D01*
X014773Y001213D01*
X015135Y001213D01*
X015245Y001582D01*
X015160Y001608D01*
X015262Y001951D01*
X015382Y001915D01*
X015629Y002743D01*
X015620Y002840D01*
X015835Y003562D01*
X015482Y003919D01*
X015494Y003973D02*
X015886Y003615D01*
X015911Y003547D02*
X015829Y002799D01*
X015781Y002709D01*
X015687Y001851D01*
X015817Y001837D01*
X015776Y001470D01*
X015700Y001479D01*
X015682Y001467D01*
X015654Y001213D01*
X016629Y001213D01*
X018170Y001782D01*
X018257Y002564D01*
X018300Y002624D01*
X018396Y003479D01*
X018523Y003464D01*
X018566Y003831D01*
X018490Y003840D01*
X018479Y003853D01*
X018552Y004484D01*
X019106Y004121D01*
X019057Y004046D01*
X019357Y003850D01*
X019426Y003955D01*
X020149Y003482D01*
X020244Y003463D01*
X020874Y003051D01*
X021524Y003431D01*
X021625Y003446D01*
X022371Y003881D01*
X022437Y003768D01*
X022755Y003954D01*
X022717Y004020D01*
X022720Y004042D01*
X023268Y004361D01*
X023443Y001639D01*
X022763Y001243D01*
X022726Y001179D01*
X021115Y001213D01*
X021111Y001289D01*
X020985Y001281D01*
X020930Y002143D01*
X020960Y002236D01*
X020912Y002987D01*
X021562Y003366D01*
X021625Y003446D01*
X022371Y003881D02*
X022305Y003994D01*
X022624Y004179D01*
X022662Y004114D01*
X022683Y004106D01*
X023230Y004425D01*
X020948Y005918D01*
X020268Y005521D01*
X020194Y005521D01*
X019450Y005089D01*
X019387Y005200D01*
X019066Y005016D01*
X019104Y004950D01*
X019101Y004933D01*
X018550Y004616D01*
X018511Y005277D01*
X018601Y005283D01*
X018580Y005640D01*
X018454Y005633D01*
X018404Y006495D01*
X018435Y006588D01*
X018414Y006936D01*
X019708Y008140D01*
X019688Y008213D01*
X019775Y008961D01*
X019145Y009373D01*
X019089Y009453D01*
X018366Y009926D01*
X018297Y009821D01*
X017998Y010017D01*
X018047Y010091D01*
X017492Y010454D01*
X017419Y009823D01*
X017431Y009810D01*
X017506Y009801D01*
X017464Y009434D01*
X017337Y009449D01*
X017240Y008594D01*
X017269Y008527D01*
X017178Y007745D01*
X018414Y006936D01*
X018391Y007339D01*
X019043Y007714D01*
X019107Y007794D01*
X019855Y008224D01*
X019920Y008111D01*
X020240Y008295D01*
X020202Y008361D01*
X020205Y008383D01*
X020755Y008699D01*
X020914Y005977D01*
X021637Y005666D01*
X021681Y005608D01*
X022471Y005266D01*
X022521Y005383D01*
X022861Y005238D01*
X022831Y005168D01*
X022836Y005151D01*
X023420Y004901D01*
X023381Y005562D01*
X023292Y005557D01*
X023271Y005914D01*
X023397Y005922D01*
X023346Y006784D01*
X023377Y006877D01*
X023333Y007628D01*
X023986Y008003D01*
X024049Y008083D01*
X024797Y008513D01*
X024863Y008400D01*
X025182Y008584D01*
X025144Y008650D01*
X025147Y008672D01*
X025697Y008988D01*
X025856Y006266D01*
X026580Y005955D01*
X026624Y005897D01*
X027414Y005555D01*
X027464Y005672D01*
X027480Y005665D01*
X028245Y007197D01*
X028203Y007913D01*
X027511Y008209D01*
X027439Y008281D01*
X026646Y008621D01*
X026594Y008501D01*
X026256Y008647D01*
X026285Y008717D01*
X026280Y008738D01*
X025697Y008988D01*
X025373Y009453D02*
X024867Y009026D01*
X024809Y009094D01*
X024536Y008863D01*
X024617Y008767D01*
X023957Y008209D01*
X023865Y008178D01*
X023290Y007692D01*
X022598Y007989D01*
X022497Y007992D01*
X021704Y008332D01*
X021755Y008453D01*
X021416Y008597D01*
X021386Y008528D01*
X021366Y008517D01*
X020784Y008767D01*
X022866Y010528D01*
X022681Y011293D01*
X022701Y011364D01*
X022500Y012200D01*
X022376Y012170D01*
X022289Y012529D01*
X022363Y012547D01*
X022373Y012561D01*
X022223Y013178D01*
X021717Y012751D01*
X021775Y012682D01*
X021502Y012451D01*
X021420Y012547D01*
X020761Y011989D01*
X020715Y011903D01*
X020140Y011417D01*
X020318Y010686D01*
X020304Y010585D01*
X020508Y009746D01*
X020635Y009777D01*
X020721Y009418D01*
X020648Y009401D01*
X020634Y009383D01*
X020784Y008767D01*
X020755Y008699D02*
X021337Y008449D01*
X021343Y008428D01*
X021313Y008358D01*
X021652Y008212D01*
X021704Y008332D01*
X022497Y007992D02*
X022569Y007920D01*
X023261Y007624D01*
X023305Y006873D01*
X023346Y006784D01*
X023397Y005922D02*
X023522Y005929D01*
X023543Y005572D01*
X023454Y005566D01*
X023492Y004905D01*
X024043Y005222D01*
X024047Y005239D01*
X024009Y005305D01*
X024329Y005489D01*
X024392Y005378D01*
X024457Y005268D01*
X024138Y005082D01*
X024099Y005148D01*
X024083Y005153D01*
X023534Y004833D01*
X024088Y004471D01*
X024137Y004546D01*
X024437Y004349D01*
X024368Y004244D01*
X025091Y003771D01*
X025187Y003752D01*
X025817Y003340D01*
X026467Y003720D01*
X026510Y003726D01*
X027292Y005290D01*
X025890Y006207D01*
X025210Y005810D01*
X025137Y005810D01*
X024392Y005378D01*
X025137Y005810D02*
X025174Y005873D01*
X025856Y006266D01*
X027480Y005665D02*
X027292Y005290D01*
X025254Y001214D01*
X004413Y001214D01*
X004718Y001958D02*
X005105Y002727D01*
X006048Y003142D02*
X006120Y003196D01*
X006335Y002909D01*
X006234Y002834D01*
X006753Y002143D01*
X006836Y002092D01*
X007288Y001490D01*
X008028Y001625D01*
X008128Y001605D01*
X008977Y001760D01*
X008954Y001888D01*
X009317Y001954D01*
X009330Y001879D01*
X009347Y001865D01*
X009970Y001979D01*
X008334Y004160D01*
X007560Y004019D01*
X007490Y004043D01*
X008322Y004227D02*
X009101Y006840D01*
X009563Y006407D01*
X009561Y006385D01*
X009510Y006329D01*
X009778Y006077D01*
X009868Y006172D01*
X009957Y006268D01*
X009688Y006519D01*
X009636Y006464D01*
X009614Y006461D01*
X009152Y006894D01*
X011710Y007840D01*
X012284Y007301D01*
X012355Y007284D01*
X012985Y006697D01*
X012897Y006605D01*
X013167Y006352D01*
X013219Y006407D01*
X013236Y006409D01*
X013700Y005974D01*
X013078Y005745D01*
X013047Y005829D01*
X012711Y005705D01*
X012755Y005587D01*
X011944Y005287D01*
X011847Y005290D01*
X011141Y005029D01*
X010592Y005544D01*
X010497Y005582D01*
X009868Y006172D01*
X010497Y005582D02*
X010541Y005490D01*
X011090Y004975D01*
X010875Y004254D01*
X010884Y004157D01*
X010638Y003329D02*
X010758Y003293D01*
X010656Y002949D01*
X010570Y002975D01*
X010381Y002340D01*
X011007Y002450D01*
X011016Y002465D01*
X011003Y002540D01*
X011366Y002604D01*
X011388Y002478D01*
X011411Y002353D01*
X011048Y002287D01*
X011034Y002361D01*
X011020Y002372D01*
X010395Y002258D01*
X010793Y001729D01*
X010865Y001782D01*
X011079Y001496D01*
X010979Y001420D01*
X011135Y001213D01*
X014229Y001213D01*
X013079Y002746D01*
X012304Y002605D01*
X012235Y002630D01*
X011388Y002478D01*
X012235Y002630D02*
X012292Y002677D01*
X013067Y002813D01*
X013305Y003645D02*
X013305Y004708D01*
X015470Y004708D01*
X015470Y003645D01*
X013384Y003645D01*
X014523Y004663D02*
X014254Y004916D01*
X014306Y004971D01*
X014308Y004993D01*
X013491Y005229D01*
X013897Y005481D02*
X016454Y006426D01*
X017029Y005888D01*
X017100Y005871D01*
X017730Y005284D01*
X017642Y005191D01*
X017911Y004938D01*
X017963Y004994D01*
X017981Y004995D01*
X018444Y004561D01*
X018469Y004493D02*
X018400Y003862D01*
X018386Y003851D01*
X018310Y003860D01*
X018270Y003492D01*
X018396Y003479D01*
X018344Y003684D02*
X016258Y003684D01*
X016258Y004747D01*
X018344Y004747D01*
X018344Y003684D01*
X018592Y004544D02*
X019146Y004182D01*
X019195Y004257D01*
X019495Y004061D01*
X019426Y003955D01*
X020149Y003482D02*
X020205Y003403D01*
X020835Y002991D01*
X020747Y002243D01*
X020774Y002145D01*
X020674Y001287D01*
X020544Y001302D01*
X020534Y001213D01*
X019097Y001213D01*
X018238Y001774D01*
X018329Y002556D01*
X018300Y002624D01*
X019097Y001213D02*
X016629Y001213D01*
X015654Y001213D02*
X015135Y001213D01*
X014773Y001213D02*
X014229Y001213D01*
X011135Y001213D02*
X007115Y001213D01*
X006048Y003142D02*
X005651Y003672D01*
X006276Y003786D01*
X006289Y003775D01*
X006303Y003700D01*
X006667Y003766D01*
X006643Y003892D01*
X006139Y005570D02*
X006200Y005647D01*
X006415Y006368D01*
X007156Y006498D01*
X007243Y006551D01*
X008093Y006701D01*
X008116Y006572D01*
X008010Y007000D02*
X007200Y006701D01*
X007102Y006703D01*
X006396Y006443D01*
X005847Y006958D01*
X005753Y006995D01*
X005469Y007261D02*
X006218Y008753D01*
X005684Y009023D01*
X006429Y011714D01*
X006767Y011775D01*
X006791Y011647D01*
X007154Y011713D01*
X007140Y011788D01*
X007151Y011808D01*
X007774Y011921D01*
X007011Y009303D01*
X006237Y009162D01*
X006180Y009115D01*
X005684Y009023D01*
X005204Y009265D01*
X008001Y014853D01*
X007992Y014839D02*
X009394Y016916D01*
X009916Y016435D01*
X009829Y016342D01*
X010100Y016090D01*
X010151Y016146D01*
X010169Y016148D01*
X010635Y015716D01*
X010015Y015483D01*
X009983Y015566D01*
X009648Y015440D01*
X009692Y015323D01*
X008884Y015019D01*
X008786Y015021D01*
X008082Y014756D01*
X007992Y014839D01*
X008107Y014688D02*
X008030Y013939D01*
X007983Y013849D01*
X007893Y012990D01*
X008023Y012976D01*
X007984Y012610D01*
X007909Y012618D01*
X007890Y012606D01*
X007825Y011975D01*
X009690Y012561D01*
X011007Y012553D02*
X012735Y011449D01*
X012805Y012079D01*
X012790Y012095D01*
X012714Y012103D01*
X012754Y012469D01*
X012884Y012456D01*
X013014Y012441D01*
X012973Y012075D01*
X012897Y012083D01*
X012879Y012071D01*
X012810Y011441D01*
X015367Y012386D01*
X015454Y013169D01*
X015497Y013228D01*
X015594Y014083D01*
X015467Y014097D01*
X015507Y014464D01*
X015583Y014456D01*
X015597Y014466D01*
X015667Y015097D01*
X015045Y014867D01*
X015076Y014784D01*
X014740Y014660D01*
X014697Y014777D01*
X013886Y014478D01*
X013814Y014413D01*
X013108Y014152D01*
X013026Y013403D01*
X012978Y013313D01*
X012884Y012456D01*
X012978Y013313D02*
X012951Y013412D01*
X013034Y014160D01*
X012402Y014568D01*
X012346Y014648D01*
X011620Y015116D01*
X011552Y015011D01*
X011251Y015205D01*
X011299Y015280D01*
X010743Y015639D01*
X010673Y015008D01*
X010685Y014995D01*
X010760Y014987D01*
X010594Y015016D02*
X010660Y015648D01*
X010040Y015415D01*
X010072Y015331D01*
X009737Y015205D01*
X009692Y015323D01*
X008884Y015019D02*
X008812Y014953D01*
X008107Y014688D01*
X010211Y016193D02*
X010674Y015758D01*
X010864Y016392D01*
X010778Y016418D01*
X010881Y016761D01*
X011002Y016725D01*
X011250Y017552D01*
X011241Y017650D01*
X011458Y018370D01*
X010909Y018886D01*
X010866Y018978D01*
X010565Y019262D01*
X009393Y016914D01*
X009908Y016426D01*
X009995Y016519D01*
X010264Y016266D01*
X010212Y016211D01*
X010211Y016193D01*
X010743Y015737D02*
X010934Y016371D01*
X011019Y016346D01*
X011122Y016689D01*
X011002Y016725D01*
X011250Y017552D02*
X011311Y017629D01*
X011527Y018350D01*
X012269Y018478D01*
X012356Y018531D01*
X013206Y018679D01*
X013184Y018808D01*
X013547Y018870D01*
X013560Y018795D01*
X013577Y018781D01*
X014201Y018890D01*
X012979Y020545D01*
X014670Y022424D01*
X014968Y022019D01*
X014993Y021925D01*
X015440Y021319D01*
X015098Y020649D01*
X015088Y020547D01*
X014696Y019778D01*
X014580Y019837D01*
X014413Y019509D01*
X014480Y019474D01*
X014489Y019454D01*
X014201Y018890D01*
X014268Y018856D02*
X016994Y018834D01*
X017352Y019536D01*
X017413Y019576D01*
X017807Y020342D01*
X017693Y020399D01*
X017860Y020728D01*
X017928Y020694D01*
X017945Y020698D01*
X018234Y021264D01*
X017571Y021269D01*
X017570Y021180D01*
X017212Y021183D01*
X017213Y021308D01*
X016349Y021315D01*
X016259Y021352D01*
X015506Y021358D01*
X015176Y022034D01*
X015100Y022102D01*
X014942Y022424D01*
X017743Y022424D01*
X017822Y022266D01*
X017707Y022210D01*
X017869Y021878D01*
X017938Y021912D01*
X017955Y021907D01*
X018234Y021337D01*
X017572Y021342D01*
X017572Y021431D01*
X017214Y021434D01*
X017213Y021308D01*
X016349Y021315D02*
X016259Y021280D01*
X015506Y021285D01*
X015164Y020615D01*
X015088Y020547D01*
X014696Y019778D02*
X014812Y019719D01*
X014644Y019390D01*
X014577Y019425D01*
X014555Y019421D01*
X014268Y018856D01*
X014214Y018816D02*
X013430Y016204D01*
X012655Y016070D01*
X012598Y016023D01*
X011751Y015873D01*
X011729Y015999D01*
X011365Y015935D01*
X011378Y015861D01*
X011369Y015846D01*
X010743Y015737D01*
X010594Y015016D02*
X010580Y015006D01*
X010505Y015014D01*
X009220Y016568D02*
X009394Y016916D01*
X010565Y019262D01*
X010680Y019492D01*
X012979Y020545D01*
X012492Y021068D02*
X011390Y020915D01*
X011738Y020974D01*
X011807Y020949D01*
X012492Y021068D01*
X012789Y021490D02*
X013222Y022424D01*
X012936Y021859D01*
X012940Y021785D01*
X012789Y021490D01*
X013222Y022424D02*
X012143Y022424D01*
X010680Y019492D01*
X010985Y019079D01*
X011068Y019028D01*
X011515Y018422D01*
X012256Y018552D01*
X012356Y018531D01*
X013206Y018679D02*
X013229Y018550D01*
X013592Y018614D01*
X013579Y018689D01*
X013589Y018708D01*
X014214Y018816D01*
X015588Y017943D02*
X016241Y018318D01*
X016304Y018398D01*
X017052Y018828D01*
X017118Y018715D01*
X017437Y018900D01*
X017399Y018965D01*
X017402Y018987D01*
X017952Y019303D01*
X018111Y016581D01*
X018834Y016270D01*
X018879Y016212D01*
X019668Y015870D01*
X019718Y015988D01*
X020058Y015842D01*
X020028Y015772D01*
X020033Y015755D01*
X020617Y015505D01*
X020578Y016166D01*
X020489Y016161D01*
X020468Y016519D01*
X020594Y016526D01*
X020543Y017389D01*
X020574Y017481D01*
X020530Y018232D01*
X021183Y018607D01*
X021246Y018687D01*
X021994Y019117D01*
X022060Y019004D01*
X022379Y019189D01*
X022341Y019254D01*
X022345Y019276D01*
X022894Y019592D01*
X023053Y016870D01*
X022371Y016477D01*
X022334Y016414D01*
X021589Y015982D01*
X021654Y015873D01*
X021335Y015686D01*
X021297Y015752D01*
X021280Y015758D01*
X020731Y015437D01*
X021286Y015075D01*
X021334Y015150D01*
X021634Y014954D01*
X021565Y014849D01*
X022288Y014376D01*
X022384Y014356D01*
X023014Y013944D01*
X023664Y014324D01*
X023765Y014339D01*
X024510Y014774D01*
X024445Y014887D01*
X024763Y015072D01*
X024802Y015007D01*
X024822Y014999D01*
X025369Y015318D01*
X023087Y016811D01*
X023178Y017593D01*
X023149Y017660D01*
X023246Y018515D01*
X023373Y018500D01*
X023415Y018867D01*
X023340Y018876D01*
X023328Y018889D01*
X023401Y019520D01*
X023956Y019158D01*
X023907Y019083D01*
X024207Y018887D01*
X024275Y018992D01*
X024998Y018519D01*
X025094Y018500D01*
X025724Y018088D01*
X026374Y018467D01*
X026475Y018483D01*
X027220Y018917D01*
X027155Y019030D01*
X027473Y019216D01*
X027512Y019150D01*
X027532Y019142D01*
X028079Y019462D01*
X025797Y020954D01*
X025888Y021736D01*
X025859Y021804D01*
X025956Y022659D01*
X026083Y022644D01*
X026094Y022739D01*
X025662Y022739D01*
X023893Y022751D01*
X023240Y022376D01*
X023284Y021624D01*
X023253Y021532D01*
X023304Y020669D01*
X023429Y020677D01*
X023450Y020319D01*
X023361Y020314D01*
X023399Y019653D01*
X023950Y019969D01*
X023954Y019987D01*
X023916Y020052D01*
X024236Y020237D01*
X024299Y020126D01*
X025044Y020557D01*
X025081Y020621D01*
X025763Y021013D01*
X025662Y022739D01*
X022435Y022739D01*
X019991Y022739D01*
X020090Y021195D01*
X020815Y020889D01*
X020860Y020830D01*
X021652Y020493D01*
X021701Y020611D01*
X022041Y020467D01*
X022012Y020397D01*
X022017Y020381D01*
X022603Y020134D01*
X022560Y020795D01*
X022471Y020789D01*
X022448Y021146D01*
X022573Y021155D01*
X022518Y022017D01*
X022476Y022105D01*
X022435Y022739D01*
X019991Y022739D02*
X019476Y022739D01*
X018689Y022424D01*
X017743Y022424D01*
X020063Y021132D02*
X020787Y020822D01*
X020860Y020830D01*
X020063Y021132D02*
X017981Y019372D01*
X018563Y019121D01*
X018583Y019132D01*
X018613Y019202D01*
X018952Y019057D01*
X018901Y018936D01*
X019694Y018596D01*
X019796Y018593D01*
X020487Y018296D01*
X021062Y018782D01*
X021154Y018813D01*
X021814Y019371D01*
X021733Y019467D01*
X022006Y019698D01*
X022064Y019630D01*
X022570Y020057D01*
X021986Y020308D01*
X021970Y020300D01*
X021940Y020231D01*
X021601Y020376D01*
X021652Y020493D01*
X023441Y019581D02*
X023995Y019218D01*
X024044Y019293D01*
X024344Y019097D01*
X024275Y018992D01*
X024998Y018519D02*
X025054Y018439D01*
X025684Y018027D01*
X025597Y017279D01*
X025623Y017181D01*
X025524Y016324D01*
X025653Y016308D01*
X025610Y015942D01*
X025535Y015951D01*
X025516Y015939D01*
X025444Y015310D01*
X028007Y016240D01*
X028578Y015698D01*
X028649Y015681D01*
X029275Y015090D01*
X029187Y014998D01*
X029196Y014990D01*
X029759Y015471D02*
X030484Y015165D01*
X030557Y015174D01*
X031232Y014892D01*
X032147Y016723D01*
X032113Y017209D01*
X031418Y017497D01*
X031345Y017568D01*
X030547Y017899D01*
X030597Y018020D01*
X030257Y018161D01*
X030227Y018090D01*
X030208Y018080D01*
X029623Y018323D01*
X031684Y020108D01*
X032411Y019806D01*
X032484Y019816D01*
X033280Y019488D01*
X033328Y019606D01*
X033670Y019467D01*
X033641Y019396D01*
X033647Y019380D01*
X034224Y019144D01*
X034233Y019163D02*
X034147Y020775D01*
X034194Y020160D01*
X034068Y020151D01*
X034096Y019793D01*
X034185Y019800D01*
X034233Y019163D01*
X034187Y019070D02*
X032640Y017709D01*
X032141Y017277D01*
X031446Y017566D01*
X031345Y017568D01*
X030547Y017899D02*
X030497Y017779D01*
X030157Y017920D01*
X030186Y017990D01*
X030180Y018012D01*
X029594Y018254D01*
X029786Y015534D01*
X030512Y015232D01*
X030557Y015174D01*
X030450Y015241D02*
X030686Y015123D01*
X031218Y014865D02*
X032212Y014373D01*
X030005Y009991D01*
X030265Y010506D01*
X030214Y010503D01*
X030191Y010860D01*
X030317Y010868D01*
X030261Y011731D01*
X030219Y011819D01*
X030171Y012570D01*
X029477Y012862D01*
X029405Y012933D01*
X029506Y012931D01*
X030200Y012638D01*
X030772Y013127D01*
X030864Y013159D01*
X031520Y013720D01*
X031439Y013816D01*
X031711Y014049D01*
X031769Y013981D01*
X032201Y014350D01*
X031232Y014892D01*
X031218Y014865D02*
X032655Y017739D01*
X032668Y017733D01*
X034168Y019032D01*
X033703Y018629D01*
X033644Y018697D01*
X033373Y018463D01*
X033456Y018368D01*
X032803Y017802D01*
X032710Y017770D01*
X032668Y017733D01*
X033246Y017444D01*
X033393Y017483D01*
X034168Y019032D01*
X035864Y022424D01*
X030103Y022423D01*
X030103Y022424D02*
X030103Y021647D01*
X028408Y021647D01*
X028381Y021414D01*
X028333Y021324D01*
X028234Y020467D01*
X028104Y020482D01*
X028062Y020116D01*
X028137Y020107D01*
X028153Y020091D01*
X028079Y019462D01*
X028154Y019453D02*
X030717Y020383D01*
X030808Y021165D01*
X030851Y021224D01*
X030894Y021724D01*
X031578Y021617D02*
X031710Y020171D01*
X032439Y019873D01*
X032484Y019816D01*
X033280Y019488D02*
X033231Y019370D01*
X033572Y019229D01*
X033601Y019299D01*
X033617Y019307D01*
X034187Y019070D01*
X034046Y021623D02*
X034028Y021860D01*
X028408Y021647D02*
X028333Y021647D01*
X028307Y021423D01*
X028333Y021324D01*
X028333Y021647D02*
X026989Y021647D01*
X026989Y022739D01*
X026094Y022739D01*
X025797Y020954D02*
X025117Y020558D01*
X025044Y020557D01*
X024299Y020126D02*
X024364Y020016D01*
X024045Y019830D01*
X024006Y019895D01*
X023990Y019901D01*
X023441Y019581D01*
X025758Y018019D02*
X025671Y017271D01*
X025623Y017181D01*
X025758Y018019D02*
X026465Y018275D01*
X026538Y018340D01*
X027350Y018635D01*
X027393Y018517D01*
X027730Y018639D01*
X027699Y018723D01*
X028322Y018949D01*
X028249Y018318D01*
X028234Y018183D01*
X028159Y018317D01*
X028116Y017950D01*
X028243Y017935D01*
X028141Y017081D01*
X028098Y017022D01*
X028007Y016240D01*
X026245Y014678D02*
X026155Y014583D01*
X026782Y013989D01*
X026876Y013951D01*
X027383Y013469D01*
X027658Y013630D01*
X027383Y013469D02*
X027111Y013311D01*
X027108Y013289D01*
X027146Y013223D01*
X026828Y013037D01*
X026761Y013150D01*
X026016Y012715D01*
X025953Y012635D01*
X025303Y012256D01*
X025351Y011505D01*
X025321Y011413D01*
X025376Y010550D01*
X025501Y010558D01*
X025524Y010201D01*
X025435Y010195D01*
X025478Y009534D01*
X026027Y009854D01*
X026030Y009871D01*
X025992Y009937D01*
X026311Y010123D01*
X026375Y010013D01*
X025363Y010191D02*
X025405Y009530D01*
X024820Y009777D01*
X024815Y009793D01*
X024844Y009863D01*
X024504Y010007D01*
X024455Y009889D01*
X023663Y010226D01*
X023618Y010284D01*
X022893Y010591D01*
X022718Y013312D01*
X023302Y013066D01*
X023308Y013044D01*
X023278Y012975D01*
X023618Y012831D01*
X023669Y012951D01*
X024464Y012615D01*
X024537Y012544D01*
X025230Y012252D01*
X025279Y011501D01*
X025321Y011413D01*
X025376Y010550D02*
X025251Y010542D01*
X025274Y010185D01*
X025363Y010191D01*
X025373Y009453D02*
X024789Y009704D01*
X024773Y009696D01*
X024743Y009626D01*
X024404Y009772D01*
X024455Y009889D01*
X023663Y010226D02*
X023590Y010218D01*
X022866Y010528D01*
X020355Y011808D02*
X020445Y012589D01*
X020489Y012649D01*
X020591Y013503D01*
X020464Y013517D01*
X020506Y013884D01*
X020582Y013876D01*
X020596Y013886D01*
X020670Y014517D01*
X020047Y014291D01*
X020077Y014207D01*
X019741Y014084D01*
X019698Y014203D01*
X018886Y013908D01*
X018813Y013843D01*
X018105Y013586D01*
X018019Y012838D01*
X017971Y012749D01*
X017871Y011891D01*
X018001Y011876D01*
X017958Y011510D01*
X017883Y011519D01*
X017864Y011507D01*
X017791Y010877D01*
X020355Y011808D01*
X017971Y012749D02*
X017945Y012847D01*
X018032Y013595D01*
X017402Y014007D01*
X017346Y014087D01*
X017442Y014067D01*
X018072Y013655D01*
X018721Y014035D01*
X018822Y014050D01*
X019568Y014485D01*
X019502Y014598D01*
X019821Y014783D01*
X019859Y014718D01*
X019880Y014710D01*
X020427Y015029D01*
X018145Y016522D01*
X017465Y016125D01*
X017391Y016125D01*
X016647Y015694D01*
X016584Y015804D01*
X016263Y015620D01*
X016301Y015554D01*
X016298Y015537D01*
X015747Y015220D01*
X015708Y015882D01*
X015798Y015887D01*
X015777Y016244D01*
X015651Y016237D01*
X015601Y017100D01*
X015632Y017192D01*
X015588Y017943D01*
X017429Y016188D02*
X017391Y016125D01*
X017429Y016188D02*
X018111Y016581D01*
X016647Y015694D02*
X016712Y015584D01*
X016392Y015397D01*
X016354Y015463D01*
X016337Y015469D01*
X015789Y015149D01*
X016343Y014786D01*
X016392Y014861D01*
X016692Y014665D01*
X016623Y014560D01*
X017346Y014087D01*
X016623Y014560D02*
X016554Y014454D01*
X016254Y014650D01*
X016303Y014725D01*
X015749Y015088D01*
X015676Y014457D01*
X015687Y014444D01*
X015763Y014435D01*
X015720Y014068D01*
X015594Y014083D01*
X015497Y013228D02*
X015526Y013161D01*
X015435Y012379D01*
X017717Y010886D01*
X017791Y011516D01*
X017775Y011531D01*
X017700Y011540D01*
X017742Y011906D01*
X017871Y011891D01*
X016670Y011254D02*
X016582Y011162D01*
X016852Y010909D01*
X016904Y010964D01*
X016921Y010966D01*
X017385Y010531D01*
X016763Y010302D01*
X016732Y010386D01*
X016396Y010261D01*
X016440Y010144D01*
X015630Y009844D01*
X015532Y009847D01*
X014826Y009586D01*
X014277Y010101D01*
X014183Y010138D01*
X013553Y010729D01*
X013642Y010824D01*
X013373Y011076D01*
X013321Y011021D01*
X013299Y011017D01*
X012837Y011451D01*
X015395Y012396D01*
X015969Y011858D01*
X016040Y011841D01*
X016670Y011254D01*
X016789Y010234D02*
X017410Y010463D01*
X017340Y009832D01*
X017326Y009822D01*
X017251Y009830D01*
X017210Y009463D01*
X017337Y009449D01*
X016819Y010150D02*
X016789Y010234D01*
X016819Y010150D02*
X016484Y010026D01*
X016440Y010144D01*
X015630Y009844D02*
X015557Y009779D01*
X014851Y009518D01*
X014769Y008770D01*
X014722Y008680D01*
X014627Y007822D01*
X014757Y007807D01*
X014716Y007441D01*
X014641Y007449D01*
X014622Y007437D01*
X014553Y006807D01*
X017111Y007752D01*
X017197Y008535D01*
X017240Y008594D01*
X014722Y008680D02*
X014695Y008778D01*
X014778Y009526D01*
X014145Y009934D01*
X014089Y010014D01*
X013363Y010482D01*
X013295Y010377D01*
X012994Y010571D01*
X013043Y010646D01*
X012486Y011006D01*
X012416Y010374D01*
X012428Y010361D01*
X012504Y010353D01*
X012463Y009986D01*
X012337Y010000D01*
X012245Y009144D01*
X012274Y009077D01*
X012188Y008295D01*
X014479Y006816D01*
X014549Y007445D01*
X014533Y007461D01*
X014457Y007469D01*
X014497Y007836D01*
X014627Y007822D01*
X012245Y009144D02*
X012202Y009085D01*
X012120Y008302D01*
X009568Y007342D01*
X009634Y007972D01*
X009652Y007984D01*
X009728Y007976D01*
X009766Y008343D01*
X009636Y008357D01*
X009726Y009215D01*
X009773Y009305D01*
X009850Y010054D01*
X010555Y010319D01*
X010627Y010385D01*
X011436Y010689D01*
X011480Y010571D01*
X011815Y010698D01*
X011784Y010781D01*
X012404Y011014D01*
X012338Y010383D01*
X012323Y010372D01*
X012248Y010380D01*
X012210Y010013D01*
X012337Y010000D01*
X011436Y010689D02*
X011391Y010807D01*
X011727Y010933D01*
X011758Y010849D01*
X012378Y011082D01*
X011912Y011514D01*
X011895Y011512D01*
X011843Y011457D01*
X011572Y011708D01*
X011659Y011801D01*
X011026Y012384D01*
X011142Y012276D01*
X010627Y010385D02*
X010529Y010387D01*
X009825Y010122D01*
X009775Y010068D02*
X009564Y009345D01*
X009573Y009248D01*
X009332Y008418D01*
X009211Y008454D01*
X009111Y008110D01*
X009197Y008085D01*
X009011Y007449D01*
X008545Y007880D01*
X008546Y007898D01*
X008597Y007954D01*
X008326Y008205D01*
X008240Y008111D01*
X007610Y008698D01*
X007588Y008768D01*
X007011Y009303D01*
X006965Y009253D02*
X007539Y008715D01*
X007610Y008698D01*
X006965Y009253D02*
X005962Y008882D01*
X005828Y010510D02*
X005899Y010651D01*
X007774Y011921D02*
X008239Y011490D01*
X008238Y011468D01*
X008186Y011413D01*
X008456Y011162D01*
X008545Y011257D01*
X008634Y011353D01*
X008363Y011603D01*
X008311Y011548D01*
X008290Y011544D01*
X007825Y011975D01*
X008240Y008111D02*
X008152Y008018D01*
X008422Y007766D01*
X008474Y007821D01*
X008491Y007823D01*
X008955Y007388D01*
X008333Y007158D01*
X008302Y007242D01*
X007966Y007118D01*
X008010Y007000D01*
X013897Y005481D02*
X014359Y005047D01*
X014380Y005050D01*
X014432Y005106D01*
X014701Y004854D01*
X014613Y004758D01*
X014523Y004663D01*
X018592Y004544D02*
X019140Y004864D01*
X019157Y004859D01*
X019195Y004793D01*
X019514Y004979D01*
X019450Y005089D01*
X020194Y005521D02*
X020231Y005584D01*
X020914Y005977D01*
X021115Y001213D02*
X020534Y001213D01*
X021115Y001213D02*
X025254Y001213D01*
X027480Y005665D02*
X028315Y007336D01*
X028846Y007690D01*
X030005Y009991D01*
X029761Y010095D01*
X029755Y010111D01*
X029785Y010181D01*
X029444Y010325D01*
X029395Y010207D01*
X028603Y010544D01*
X028559Y010602D01*
X027834Y010909D01*
X026245Y014678D02*
X025977Y014931D01*
X025925Y014876D01*
X025903Y014873D01*
X025444Y015310D01*
X025369Y015318D02*
X025443Y015948D01*
X025427Y015963D01*
X025352Y015972D01*
X025394Y016338D01*
X025524Y016324D01*
X023087Y016811D02*
X022407Y016414D01*
X022334Y016414D01*
X021589Y015982D02*
X021526Y016093D01*
X021206Y015909D01*
X021244Y015843D01*
X021240Y015826D01*
X020689Y015509D01*
X020651Y016171D01*
X020740Y016176D01*
X020719Y016533D01*
X020594Y016526D01*
X020543Y017389D02*
X020502Y017477D01*
X020458Y018228D01*
X019766Y018524D01*
X019694Y018596D01*
X018901Y018936D02*
X018849Y018817D01*
X018510Y018962D01*
X018540Y019032D01*
X018534Y019053D01*
X017952Y019303D01*
X014942Y022424D02*
X014670Y022424D01*
X013222Y022424D01*
X028234Y020467D02*
X028363Y020452D01*
X028320Y020086D01*
X028245Y020094D01*
X028226Y020083D01*
X028154Y019453D01*
X031336Y014807D02*
X031668Y014643D01*
X031642Y014581D01*
X031301Y014725D02*
X031336Y014807D01*
D14*
X028945Y013002D02*
X027986Y013466D01*
X027028Y011620D02*
X027967Y011169D01*
D15*
X024860Y009357D02*
X024553Y009050D01*
X024707Y009050D02*
X024707Y009357D01*
X024553Y009357D02*
X024860Y009050D01*
X024860Y009204D02*
X024553Y009204D01*
X022548Y016425D02*
X022241Y016732D01*
X022241Y016579D02*
X022548Y016579D01*
X022548Y016732D02*
X022241Y016425D01*
X022394Y016425D02*
X022394Y016732D01*
M02*
