  0
SECTION
  2
HEADER
  9
$ACADVER
  1
AC1009
  9
$FILLMODE
 70
1
  9
$EXTMIN
 10
-3.4404
 20
-2.1133
 30
0.0000
  9
$EXTMAX
 10
106.6711
 20
76.6047
 30
0.0000
  0
ENDSEC
  0
SECTION
  2
TABLES
  0
TABLE
  2
LTYPE
 70
1
  0
LTYPE
  2
CONTINUOUS
 70
64
  3
Solid line
 72
65
 73
0
 40
0
  0
ENDTAB
  0
TABLE
  2
LAYER
 70
255
  0
LAYER
  2
20
 70
64
 62
7
  6
CONTINUOUS
  0
LAYER
  2
21
 70
64
 62
253
  6
CONTINUOUS
  0
LAYER
  2
22
 70
64
 62
253
  6
CONTINUOUS
  0
LAYER
  2
46
 70
64
 62
140
  6
CONTINUOUS
  0
ENDTAB
  0
ENDSEC
  0
SECTION
  2
BLOCKS
  0
BLOCK
  8
0
  2
RECT
 70
64
 10
0.0000
 20
0.0000
 30
0.0000
  3
RECT
  0
SOLID
  8
0
 10
-0.5000
 20
-0.5000
 30
0.0000
 11
0.5000
 21
-0.5000
 31
0.0000
 12
-0.5000
 22
0.5000
 32
0.0000
 13
0.5000
 23
0.5000
 33
0.0000
  0
ENDBLK
  8
0
  0
BLOCK
  8
0
  2
PIE
 70
64
 10
0.0000
 20
0.0000
 30
0.0000
  3
PIE
  0
POLYLINE
  8
0
 66
1
 10
0.0000
 20
0.0000
 30
0.0000
 40
0.5000
 41
0.5000
 70
0
  0
VERTEX
  8
0
 10
0.0000
 20
-0.2500
 30
0.0000
 42
1.0000
  0
VERTEX
  8
0
 10
0.0000
 20
0.2500
 30
0.0000
 42
1.0000
  0
VERTEX
  8
0
 10
0.0000
 20
-0.2500
 30
0.0000
  0
SEQEND
  8
0
  0
ENDBLK
  8
0
  0
BLOCK
  8
0
  2
OCTAGONP
 70
64
 10
0.0000
 20
0.0000
 30
0.0000
  3
OCTAGONP
  0
POLYLINE
  8
0
 66
1
 10
0.0000
 20
0.0000
 30
0.0000
 40
0.5000
 41
0.5000
 70
0
  0
VERTEX
  8
0
 10
-0.2500
 20
-0.1036
 30
0.0000
  0
VERTEX
  8
0
 10
-0.2500
 20
0.1036
 30
0.0000
  0
VERTEX
  8
0
 10
-0.1036
 20
0.2500
 30
0.0000
  0
VERTEX
  8
0
 10
0.1036
 20
0.2500
 30
0.0000
  0
VERTEX
  8
0
 10
0.2500
 20
0.1036
 30
0.0000
  0
VERTEX
  8
0
 10
0.2500
 20
-0.1036
 30
0.0000
  0
VERTEX
  8
0
 10
0.1036
 20
-0.2500
 30
0.0000
  0
VERTEX
  8
0
 10
-0.1036
 20
-0.2500
 30
0.0000
  0
VERTEX
  8
0
 10
-0.2500
 20
-0.1036
 30
0.0000
  0
VERTEX
  8
0
 10
-0.2500
 20
0.1036
 30
0.0000
  0
SEQEND
  8
0
  0
ENDBLK
  8
0
  0
BLOCK
  8
0
  2
SQUAREP
 70
64
 10
0.0000
 20
0.0000
 30
0.0000
  3
SQUAREP
  0
SOLID
  8
0
 10
-0.5000
 20
-0.5000
 30
0.0000
 11
0.5000
 21
-0.5000
 31
0.0000
 12
-0.5000
 22
0.5000
 32
0.0000
 13
0.5000
 23
0.5000
 33
0.0000
  0
ENDBLK
  8
0
  0
BLOCK
  8
0
  2
ROUNDP
 70
64
 10
0.0000
 20
0.0000
 30
0.0000
  3
ROUNDP
  0
POLYLINE
  8
0
 66
1
 10
0.0000
 20
0.0000
 30
0.0000
 40
0.5000
 41
0.5000
 70
0
  0
VERTEX
  8
0
 10
0.0000
 20
-0.2500
 30
0.0000
 42
1.0000
  0
VERTEX
  8
0
 10
0.0000
 20
0.2500
 30
0.0000
 42
1.0000
  0
VERTEX
  8
0
 10
0.0000
 20
-0.2500
 30
0.0000
  0
SEQEND
  8
0
  0
ENDBLK
  8
0
  0
BLOCK
  8
0
  2
ANNULUSP
 70
64
 10
0.0000
 20
0.0000
 30
0.0000
  3
ANNULUSP
  0
POLYLINE
  8
0
 66
1
 10
0.0000
 20
0.0000
 30
0.0000
 40
0.5000
 41
0.5000
 70
0
  0
VERTEX
  8
0
 10
0.0000
 20
-0.2500
 30
0.0000
 42
1.0000
  0
VERTEX
  8
0
 10
0.0000
 20
0.2500
 30
0.0000
 42
1.0000
  0
VERTEX
  8
0
 10
0.0000
 20
-0.2500
 30
0.0000
  0
SEQEND
  8
0
  0
ENDBLK
  8
0
  0
BLOCK
  8
0
  2
THERMALP
 70
64
 10
0.0000
 20
0.0000
 30
0.0000
  3
THERMALP
  0
POLYLINE
  8
0
 66
1
 10
0.0000
 20
0.0000
 30
0.0000
 40
0.1000
 41
0.1000
 70
0
  0
VERTEX
  8
0
 10
-0.2379
 20
0.4500
 30
0.0000
  0
VERTEX
  8
0
 10
0.2379
 20
0.4500
 30
0.0000
  0
SEQEND
  8
0
  0
POLYLINE
  8
0
 66
1
 10
0.0000
 20
0.0000
 30
0.0000
 40
0.0500
 41
0.0500
 70
0
  0
VERTEX
  8
0
 10
0.2379
 20
0.4250
 30
0.0000
 42
1.0000
  0
VERTEX
  8
0
 10
0.2379
 20
0.4750
 30
0.0000
  0
SEQEND
  8
0
  0
POLYLINE
  8
0
 66
1
 10
0.0000
 20
0.0000
 30
0.0000
 40
0.0500
 41
0.0500
 70
0
  0
VERTEX
  8
0
 10
-0.2379
 20
0.4750
 30
0.0000
 42
1.0000
  0
VERTEX
  8
0
 10
-0.2379
 20
0.4250
 30
0.0000
  0
SEQEND
  8
0
  0
POLYLINE
  8
0
 66
1
 10
0.0000
 20
0.0000
 30
0.0000
 40
0.1000
 41
0.1000
 70
0
  0
VERTEX
  8
0
 10
0.4500
 20
0.2379
 30
0.0000
  0
VERTEX
  8
0
 10
0.4500
 20
-0.2379
 30
0.0000
  0
SEQEND
  8
0
  0
POLYLINE
  8
0
 66
1
 10
0.0000
 20
0.0000
 30
0.0000
 40
0.0500
 41
0.0500
 70
0
  0
VERTEX
  8
0
 10
0.4250
 20
-0.2379
 30
0.0000
 42
1.0000
  0
VERTEX
  8
0
 10
0.4750
 20
-0.2379
 30
0.0000
  0
SEQEND
  8
0
  0
POLYLINE
  8
0
 66
1
 10
0.0000
 20
0.0000
 30
0.0000
 40
0.0500
 41
0.0500
 70
0
  0
VERTEX
  8
0
 10
0.4750
 20
0.2379
 30
0.0000
 42
1.0000
  0
VERTEX
  8
0
 10
0.4250
 20
0.2379
 30
0.0000
  0
SEQEND
  8
0
  0
POLYLINE
  8
0
 66
1
 10
0.0000
 20
0.0000
 30
0.0000
 40
0.1000
 41
0.1000
 70
0
  0
VERTEX
  8
0
 10
0.2379
 20
-0.4500
 30
0.0000
  0
VERTEX
  8
0
 10
-0.2379
 20
-0.4500
 30
0.0000
  0
SEQEND
  8
0
  0
POLYLINE
  8
0
 66
1
 10
0.0000
 20
0.0000
 30
0.0000
 40
0.0500
 41
0.0500
 70
0
  0
VERTEX
  8
0
 10
-0.2379
 20
-0.4250
 30
0.0000
 42
1.0000
  0
VERTEX
  8
0
 10
-0.2379
 20
-0.4750
 30
0.0000
  0
SEQEND
  8
0
  0
POLYLINE
  8
0
 66
1
 10
0.0000
 20
0.0000
 30
0.0000
 40
0.0500
 41
0.0500
 70
0
  0
VERTEX
  8
0
 10
0.2379
 20
-0.4750
 30
0.0000
 42
1.0000
  0
VERTEX
  8
0
 10
0.2379
 20
-0.4250
 30
0.0000
  0
SEQEND
  8
0
  0
POLYLINE
  8
0
 66
1
 10
0.0000
 20
0.0000
 30
0.0000
 40
0.1000
 41
0.1000
 70
0
  0
VERTEX
  8
0
 10
-0.4500
 20
-0.2379
 30
0.0000
  0
VERTEX
  8
0
 10
-0.4500
 20
0.2379
 30
0.0000
  0
SEQEND
  8
0
  0
POLYLINE
  8
0
 66
1
 10
0.0000
 20
0.0000
 30
0.0000
 40
0.0500
 41
0.0500
 70
0
  0
VERTEX
  8
0
 10
-0.4250
 20
0.2379
 30
0.0000
 42
1.0000
  0
VERTEX
  8
0
 10
-0.4750
 20
0.2379
 30
0.0000
  0
SEQEND
  8
0
  0
POLYLINE
  8
0
 66
1
 10
0.0000
 20
0.0000
 30
0.0000
 40
0.0500
 41
0.0500
 70
0
  0
VERTEX
  8
0
 10
-0.4750
 20
-0.2379
 30
0.0000
 42
1.0000
  0
VERTEX
  8
0
 10
-0.4250
 20
-0.2379
 30
0.0000
  0
SEQEND
  8
0
  0
ENDBLK
  8
0
  0
BLOCK
  8
0
  2
OCTAGONV
 70
64
 10
0.0000
 20
0.0000
 30
0.0000
  3
OCTAGONV
  0
POLYLINE
  8
0
 66
1
 10
0.0000
 20
0.0000
 30
0.0000
 40
0.5000
 41
0.5000
 70
0
  0
VERTEX
  8
0
 10
-0.2500
 20
-0.1036
 30
0.0000
  0
VERTEX
  8
0
 10
-0.2500
 20
0.1036
 30
0.0000
  0
VERTEX
  8
0
 10
-0.1036
 20
0.2500
 30
0.0000
  0
VERTEX
  8
0
 10
0.1036
 20
0.2500
 30
0.0000
  0
VERTEX
  8
0
 10
0.2500
 20
0.1036
 30
0.0000
  0
VERTEX
  8
0
 10
0.2500
 20
-0.1036
 30
0.0000
  0
VERTEX
  8
0
 10
0.1036
 20
-0.2500
 30
0.0000
  0
VERTEX
  8
0
 10
-0.1036
 20
-0.2500
 30
0.0000
  0
VERTEX
  8
0
 10
-0.2500
 20
-0.1036
 30
0.0000
  0
VERTEX
  8
0
 10
-0.2500
 20
0.1036
 30
0.0000
  0
SEQEND
  8
0
  0
ENDBLK
  8
0
  0
BLOCK
  8
0
  2
SQUAREV
 70
64
 10
0.0000
 20
0.0000
 30
0.0000
  3
SQUAREV
  0
SOLID
  8
0
 10
-0.5000
 20
-0.5000
 30
0.0000
 11
0.5000
 21
-0.5000
 31
0.0000
 12
-0.5000
 22
0.5000
 32
0.0000
 13
0.5000
 23
0.5000
 33
0.0000
  0
ENDBLK
  8
0
  0
BLOCK
  8
0
  2
ROUNDV
 70
64
 10
0.0000
 20
0.0000
 30
0.0000
  3
ROUNDV
  0
POLYLINE
  8
0
 66
1
 10
0.0000
 20
0.0000
 30
0.0000
 40
0.5000
 41
0.5000
 70
0
  0
VERTEX
  8
0
 10
0.0000
 20
-0.2500
 30
0.0000
 42
1.0000
  0
VERTEX
  8
0
 10
0.0000
 20
0.2500
 30
0.0000
 42
1.0000
  0
VERTEX
  8
0
 10
0.0000
 20
-0.2500
 30
0.0000
  0
SEQEND
  8
0
  0
ENDBLK
  8
0
  0
BLOCK
  8
0
  2
ANNULUSV
 70
64
 10
0.0000
 20
0.0000
 30
0.0000
  3
ANNULUSV
  0
POLYLINE
  8
0
 66
1
 10
0.0000
 20
0.0000
 30
0.0000
 40
0.5000
 41
0.5000
 70
0
  0
VERTEX
  8
0
 10
0.0000
 20
-0.2500
 30
0.0000
 42
1.0000
  0
VERTEX
  8
0
 10
0.0000
 20
0.2500
 30
0.0000
 42
1.0000
  0
VERTEX
  8
0
 10
0.0000
 20
-0.2500
 30
0.0000
  0
SEQEND
  8
0
  0
ENDBLK
  8
0
  0
BLOCK
  8
0
  2
THERMALV
 70
64
 10
0.0000
 20
0.0000
 30
0.0000
  3
THERMALV
  0
POLYLINE
  8
0
 66
1
 10
0.0000
 20
0.0000
 30
0.0000
 40
0.1000
 41
0.1000
 70
0
  0
VERTEX
  8
0
 10
-0.2379
 20
0.4500
 30
0.0000
  0
VERTEX
  8
0
 10
0.2379
 20
0.4500
 30
0.0000
  0
SEQEND
  8
0
  0
POLYLINE
  8
0
 66
1
 10
0.0000
 20
0.0000
 30
0.0000
 40
0.0500
 41
0.0500
 70
0
  0
VERTEX
  8
0
 10
0.2379
 20
0.4250
 30
0.0000
 42
1.0000
  0
VERTEX
  8
0
 10
0.2379
 20
0.4750
 30
0.0000
  0
SEQEND
  8
0
  0
POLYLINE
  8
0
 66
1
 10
0.0000
 20
0.0000
 30
0.0000
 40
0.0500
 41
0.0500
 70
0
  0
VERTEX
  8
0
 10
-0.2379
 20
0.4750
 30
0.0000
 42
1.0000
  0
VERTEX
  8
0
 10
-0.2379
 20
0.4250
 30
0.0000
  0
SEQEND
  8
0
  0
POLYLINE
  8
0
 66
1
 10
0.0000
 20
0.0000
 30
0.0000
 40
0.1000
 41
0.1000
 70
0
  0
VERTEX
  8
0
 10
0.4500
 20
0.2379
 30
0.0000
  0
VERTEX
  8
0
 10
0.4500
 20
-0.2379
 30
0.0000
  0
SEQEND
  8
0
  0
POLYLINE
  8
0
 66
1
 10
0.0000
 20
0.0000
 30
0.0000
 40
0.0500
 41
0.0500
 70
0
  0
VERTEX
  8
0
 10
0.4250
 20
-0.2379
 30
0.0000
 42
1.0000
  0
VERTEX
  8
0
 10
0.4750
 20
-0.2379
 30
0.0000
  0
SEQEND
  8
0
  0
POLYLINE
  8
0
 66
1
 10
0.0000
 20
0.0000
 30
0.0000
 40
0.0500
 41
0.0500
 70
0
  0
VERTEX
  8
0
 10
0.4750
 20
0.2379
 30
0.0000
 42
1.0000
  0
VERTEX
  8
0
 10
0.4250
 20
0.2379
 30
0.0000
  0
SEQEND
  8
0
  0
POLYLINE
  8
0
 66
1
 10
0.0000
 20
0.0000
 30
0.0000
 40
0.1000
 41
0.1000
 70
0
  0
VERTEX
  8
0
 10
0.2379
 20
-0.4500
 30
0.0000
  0
VERTEX
  8
0
 10
-0.2379
 20
-0.4500
 30
0.0000
  0
SEQEND
  8
0
  0
POLYLINE
  8
0
 66
1
 10
0.0000
 20
0.0000
 30
0.0000
 40
0.0500
 41
0.0500
 70
0
  0
VERTEX
  8
0
 10
-0.2379
 20
-0.4250
 30
0.0000
 42
1.0000
  0
VERTEX
  8
0
 10
-0.2379
 20
-0.4750
 30
0.0000
  0
SEQEND
  8
0
  0
POLYLINE
  8
0
 66
1
 10
0.0000
 20
0.0000
 30
0.0000
 40
0.0500
 41
0.0500
 70
0
  0
VERTEX
  8
0
 10
0.2379
 20
-0.4750
 30
0.0000
 42
1.0000
  0
VERTEX
  8
0
 10
0.2379
 20
-0.4250
 30
0.0000
  0
SEQEND
  8
0
  0
POLYLINE
  8
0
 66
1
 10
0.0000
 20
0.0000
 30
0.0000
 40
0.1000
 41
0.1000
 70
0
  0
VERTEX
  8
0
 10
-0.4500
 20
-0.2379
 30
0.0000
  0
VERTEX
  8
0
 10
-0.4500
 20
0.2379
 30
0.0000
  0
SEQEND
  8
0
  0
POLYLINE
  8
0
 66
1
 10
0.0000
 20
0.0000
 30
0.0000
 40
0.0500
 41
0.0500
 70
0
  0
VERTEX
  8
0
 10
-0.4250
 20
0.2379
 30
0.0000
 42
1.0000
  0
VERTEX
  8
0
 10
-0.4750
 20
0.2379
 30
0.0000
  0
SEQEND
  8
0
  0
POLYLINE
  8
0
 66
1
 10
0.0000
 20
0.0000
 30
0.0000
 40
0.0500
 41
0.0500
 70
0
  0
VERTEX
  8
0
 10
-0.4750
 20
-0.2379
 30
0.0000
 42
1.0000
  0
VERTEX
  8
0
 10
-0.4250
 20
-0.2379
 30
0.0000
  0
SEQEND
  8
0
  0
ENDBLK
  8
0
  0
ENDSEC
  0
SECTION
  2
ENTITIES
  0
LINE
  8
46
 10
-3.4404
 20
-2.1133
 30
0.0000
 11
-0.7834
 21
-2.1133
 31
0.0000
  0
LINE
  8
46
 10
-0.1084
 20
-2.1133
 30
0.0000
 11
0.0416
 21
-2.1133
 31
0.0000
  0
LINE
  8
46
 10
0.7166
 20
-2.1133
 30
0.0000
 11
3.3735
 21
-2.1133
 31
0.0000
  0
LINE
  8
46
 10
4.0485
 20
-2.1133
 30
0.0000
 11
4.1985
 21
-2.1133
 31
0.0000
  0
LINE
  8
46
 10
4.8735
 20
-2.1133
 30
0.0000
 11
7.5304
 21
-2.1133
 31
0.0000
  0
LINE
  8
46
 10
8.2054
 20
-2.1133
 30
0.0000
 11
8.3554
 21
-2.1133
 31
0.0000
  0
LINE
  8
46
 10
9.0304
 20
-2.1133
 30
0.0000
 11
11.6873
 21
-2.1133
 31
0.0000
  0
LINE
  8
46
 10
12.3623
 20
-2.1133
 30
0.0000
 11
12.5123
 21
-2.1133
 31
0.0000
  0
LINE
  8
46
 10
13.1873
 20
-2.1133
 30
0.0000
 11
15.8442
 21
-2.1133
 31
0.0000
  0
LINE
  8
46
 10
16.5192
 20
-2.1133
 30
0.0000
 11
16.6692
 21
-2.1133
 31
0.0000
  0
LINE
  8
46
 10
17.3442
 20
-2.1133
 30
0.0000
 11
20.0011
 21
-2.1133
 31
0.0000
  0
LINE
  8
46
 10
20.6761
 20
-2.1133
 30
0.0000
 11
20.8261
 21
-2.1133
 31
0.0000
  0
LINE
  8
46
 10
21.5011
 20
-2.1133
 30
0.0000
 11
24.1581
 21
-2.1133
 31
0.0000
  0
LINE
  8
46
 10
24.8331
 20
-2.1133
 30
0.0000
 11
24.9831
 21
-2.1133
 31
0.0000
  0
LINE
  8
46
 10
25.6581
 20
-2.1133
 30
0.0000
 11
28.3150
 21
-2.1133
 31
0.0000
  0
LINE
  8
46
 10
28.9900
 20
-2.1133
 30
0.0000
 11
29.1400
 21
-2.1133
 31
0.0000
  0
LINE
  8
46
 10
29.8150
 20
-2.1133
 30
0.0000
 11
32.4719
 21
-2.1133
 31
0.0000
  0
LINE
  8
46
 10
33.1469
 20
-2.1133
 30
0.0000
 11
33.2969
 21
-2.1133
 31
0.0000
  0
LINE
  8
46
 10
33.9719
 20
-2.1133
 30
0.0000
 11
36.6288
 21
-2.1133
 31
0.0000
  0
LINE
  8
46
 10
37.3038
 20
-2.1133
 30
0.0000
 11
37.4538
 21
-2.1133
 31
0.0000
  0
LINE
  8
46
 10
38.1288
 20
-2.1133
 30
0.0000
 11
40.7857
 21
-2.1133
 31
0.0000
  0
LINE
  8
46
 10
41.4607
 20
-2.1133
 30
0.0000
 11
41.6107
 21
-2.1133
 31
0.0000
  0
LINE
  8
46
 10
42.2857
 20
-2.1133
 30
0.0000
 11
44.9427
 21
-2.1133
 31
0.0000
  0
LINE
  8
46
 10
45.6177
 20
-2.1133
 30
0.0000
 11
45.7677
 21
-2.1133
 31
0.0000
  0
LINE
  8
46
 10
46.4427
 20
-2.1133
 30
0.0000
 11
49.0996
 21
-2.1133
 31
0.0000
  0
LINE
  8
46
 10
49.7746
 20
-2.1133
 30
0.0000
 11
49.9246
 21
-2.1133
 31
0.0000
  0
LINE
  8
46
 10
50.5996
 20
-2.1133
 30
0.0000
 11
53.2565
 21
-2.1133
 31
0.0000
  0
LINE
  8
46
 10
53.9315
 20
-2.1133
 30
0.0000
 11
54.0815
 21
-2.1133
 31
0.0000
  0
LINE
  8
46
 10
54.7565
 20
-2.1133
 30
0.0000
 11
57.4134
 21
-2.1133
 31
0.0000
  0
LINE
  8
46
 10
58.0884
 20
-2.1133
 30
0.0000
 11
58.2384
 21
-2.1133
 31
0.0000
  0
LINE
  8
46
 10
58.9134
 20
-2.1133
 30
0.0000
 11
61.5703
 21
-2.1133
 31
0.0000
  0
LINE
  8
46
 10
61.5703
 20
-2.1133
 30
0.0000
 11
62.7585
 21
0.2631
 31
0.0000
  0
LINE
  8
46
 10
63.0604
 20
0.8668
 30
0.0000
 11
63.1275
 21
1.0010
 31
0.0000
  0
LINE
  8
46
 10
63.4294
 20
1.6047
 30
0.0000
 11
64.6176
 21
3.9812
 31
0.0000
  0
LINE
  8
46
 10
64.9194
 20
4.5849
 30
0.0000
 11
64.9865
 21
4.7191
 31
0.0000
  0
LINE
  8
46
 10
65.2884
 20
5.3228
 30
0.0000
 11
66.4766
 21
7.6992
 31
0.0000
  0
LINE
  8
46
 10
66.7785
 20
8.3030
 30
0.0000
 11
66.8455
 21
8.4371
 31
0.0000
  0
LINE
  8
46
 10
67.1474
 20
9.0409
 30
0.0000
 11
68.3356
 21
11.4173
 31
0.0000
  0
LINE
  8
46
 10
68.6375
 20
12.0210
 30
0.0000
 11
68.7046
 21
12.1552
 31
0.0000
  0
LINE
  8
46
 10
69.0064
 20
12.7589
 30
0.0000
 11
70.1947
 21
15.1353
 31
0.0000
  0
LINE
  8
46
 10
70.4965
 20
15.7391
 30
0.0000
 11
70.5636
 21
15.8732
 31
0.0000
  0
LINE
  8
46
 10
70.8655
 20
16.4770
 30
0.0000
 11
72.0537
 21
18.8534
 31
0.0000
  0
LINE
  8
46
 10
72.3556
 20
19.4571
 30
0.0000
 11
72.4226
 21
19.5913
 31
0.0000
  0
LINE
  8
46
 10
72.7245
 20
20.1950
 30
0.0000
 11
73.9127
 21
22.5715
 31
0.0000
  0
LINE
  8
46
 10
74.2146
 20
23.1752
 30
0.0000
 11
74.2817
 21
23.3094
 31
0.0000
  0
LINE
  8
46
 10
74.5835
 20
23.9131
 30
0.0000
 11
75.7717
 21
26.2895
 31
0.0000
  0
LINE
  8
46
 10
76.0736
 20
26.8933
 30
0.0000
 11
76.1407
 21
27.0274
 31
0.0000
  0
LINE
  8
46
 10
76.4426
 20
27.6312
 30
0.0000
 11
77.6308
 21
30.0076
 31
0.0000
  0
LINE
  8
46
 10
77.9327
 20
30.6113
 30
0.0000
 11
77.9997
 21
30.7455
 31
0.0000
  0
LINE
  8
46
 10
78.3016
 20
31.3492
 30
0.0000
 11
79.4898
 21
33.7256
 31
0.0000
  0
LINE
  8
46
 10
79.7917
 20
34.3294
 30
0.0000
 11
79.8588
 21
34.4636
 31
0.0000
  0
LINE
  8
46
 10
80.1606
 20
35.0673
 30
0.0000
 11
81.3488
 21
37.4437
 31
0.0000
  0
LINE
  8
46
 10
81.6507
 20
38.0474
 30
0.0000
 11
81.7178
 21
38.1816
 31
0.0000
  0
LINE
  8
46
 10
82.0197
 20
38.7854
 30
0.0000
 11
83.2079
 21
41.1618
 31
0.0000
  0
LINE
  8
46
 10
83.5097
 20
41.7655
 30
0.0000
 11
83.5768
 21
41.8997
 31
0.0000
  0
LINE
  8
46
 10
83.8787
 20
42.5034
 30
0.0000
 11
85.0669
 21
44.8798
 31
0.0000
  0
LINE
  8
46
 10
85.3688
 20
45.4836
 30
0.0000
 11
85.4359
 21
45.6177
 31
0.0000
  0
LINE
  8
46
 10
85.7377
 20
46.2215
 30
0.0000
 11
86.9259
 21
48.5979
 31
0.0000
  0
LINE
  8
46
 10
87.2278
 20
49.2016
 30
0.0000
 11
87.2949
 21
49.3358
 31
0.0000
  0
LINE
  8
46
 10
87.5968
 20
49.9395
 30
0.0000
 11
88.7850
 21
52.3160
 31
0.0000
  0
LINE
  8
46
 10
89.0868
 20
52.9197
 30
0.0000
 11
89.1539
 21
53.0539
 31
0.0000
  0
LINE
  8
46
 10
89.4558
 20
53.6576
 30
0.0000
 11
90.6440
 21
56.0340
 31
0.0000
  0
LINE
  8
46
 10
90.6440
 20
56.0340
 30
0.0000
 11
87.8933
 21
56.0340
 31
0.0000
  0
LINE
  8
46
 10
87.2183
 20
56.0340
 30
0.0000
 11
87.0683
 21
56.0340
 31
0.0000
  0
LINE
  8
46
 10
86.3933
 20
56.0340
 30
0.0000
 11
83.6427
 21
56.0340
 31
0.0000
  0
LINE
  8
46
 10
82.9677
 20
56.0340
 30
0.0000
 11
82.8177
 21
56.0340
 31
0.0000
  0
LINE
  8
46
 10
82.1427
 20
56.0340
 30
0.0000
 11
79.3920
 21
56.0340
 31
0.0000
  0
LINE
  8
46
 10
78.7170
 20
56.0340
 30
0.0000
 11
78.5670
 21
56.0340
 31
0.0000
  0
LINE
  8
46
 10
77.8920
 20
56.0340
 30
0.0000
 11
75.1413
 21
56.0340
 31
0.0000
  0
LINE
  8
46
 10
74.4663
 20
56.0340
 30
0.0000
 11
74.3163
 21
56.0340
 31
0.0000
  0
LINE
  8
46
 10
73.6413
 20
56.0340
 30
0.0000
 11
70.8907
 21
56.0340
 31
0.0000
  0
LINE
  8
46
 10
70.2156
 20
56.0340
 30
0.0000
 11
70.0657
 21
56.0340
 31
0.0000
  0
LINE
  8
46
 10
69.3907
 20
56.0340
 30
0.0000
 11
66.6400
 21
56.0340
 31
0.0000
  0
LINE
  8
46
 10
65.9650
 20
56.0340
 30
0.0000
 11
65.8150
 21
56.0340
 31
0.0000
  0
LINE
  8
46
 10
65.1400
 20
56.0340
 30
0.0000
 11
62.3893
 21
56.0340
 31
0.0000
  0
LINE
  8
46
 10
61.7143
 20
56.0340
 30
0.0000
 11
61.5643
 21
56.0340
 31
0.0000
  0
LINE
  8
46
 10
60.8893
 20
56.0340
 30
0.0000
 11
58.1386
 21
56.0340
 31
0.0000
  0
LINE
  8
46
 10
58.1386
 20
56.0340
 30
0.0000
 11
55.3880
 21
56.0340
 31
0.0000
  0
LINE
  8
46
 10
54.7130
 20
56.0340
 30
0.0000
 11
54.5630
 21
56.0340
 31
0.0000
  0
LINE
  8
46
 10
53.8880
 20
56.0340
 30
0.0000
 11
51.1373
 21
56.0340
 31
0.0000
  0
LINE
  8
46
 10
50.4623
 20
56.0340
 30
0.0000
 11
50.3123
 21
56.0340
 31
0.0000
  0
LINE
  8
46
 10
49.6373
 20
56.0340
 30
0.0000
 11
46.8866
 21
56.0340
 31
0.0000
  0
LINE
  8
46
 10
46.2116
 20
56.0340
 30
0.0000
 11
46.0616
 21
56.0340
 31
0.0000
  0
LINE
  8
46
 10
45.3866
 20
56.0340
 30
0.0000
 11
42.6360
 21
56.0340
 31
0.0000
  0
LINE
  8
46
 10
41.9610
 20
56.0340
 30
0.0000
 11
41.8110
 21
56.0340
 31
0.0000
  0
LINE
  8
46
 10
41.1360
 20
56.0340
 30
0.0000
 11
38.3853
 21
56.0340
 31
0.0000
  0
LINE
  8
46
 10
37.7103
 20
56.0340
 30
0.0000
 11
37.5603
 21
56.0340
 31
0.0000
  0
LINE
  8
46
 10
36.8853
 20
56.0340
 30
0.0000
 11
34.1346
 21
56.0340
 31
0.0000
  0
LINE
  8
46
 10
33.4596
 20
56.0340
 30
0.0000
 11
33.3096
 21
56.0340
 31
0.0000
  0
LINE
  8
46
 10
32.6346
 20
56.0340
 30
0.0000
 11
29.8840
 21
56.0340
 31
0.0000
  0
LINE
  8
46
 10
29.2090
 20
56.0340
 30
0.0000
 11
29.0590
 21
56.0340
 31
0.0000
  0
LINE
  8
46
 10
28.3840
 20
56.0340
 30
0.0000
 11
25.6333
 21
56.0340
 31
0.0000
  0
LINE
  8
46
 10
25.6333
 20
56.0340
 30
0.0000
 11
24.4451
 21
53.6576
 31
0.0000
  0
LINE
  8
46
 10
24.1432
 20
53.0539
 30
0.0000
 11
24.0761
 21
52.9197
 31
0.0000
  0
LINE
  8
46
 10
23.7743
 20
52.3160
 30
0.0000
 11
22.5861
 21
49.9395
 31
0.0000
  0
LINE
  8
46
 10
22.2842
 20
49.3358
 30
0.0000
 11
22.2171
 21
49.2016
 31
0.0000
  0
LINE
  8
46
 10
21.9152
 20
48.5979
 30
0.0000
 11
20.7270
 21
46.2215
 31
0.0000
  0
LINE
  8
46
 10
20.4252
 20
45.6177
 30
0.0000
 11
20.3581
 21
45.4836
 31
0.0000
  0
LINE
  8
46
 10
20.0562
 20
44.8798
 30
0.0000
 11
18.8680
 21
42.5034
 31
0.0000
  0
LINE
  8
46
 10
18.5661
 20
41.8997
 30
0.0000
 11
18.4991
 21
41.7655
 31
0.0000
  0
LINE
  8
46
 10
18.1972
 20
41.1618
 30
0.0000
 11
17.0090
 21
38.7854
 31
0.0000
  0
LINE
  8
46
 10
16.7071
 20
38.1816
 30
0.0000
 11
16.6400
 21
38.0474
 31
0.0000
  0
LINE
  8
46
 10
16.3382
 20
37.4437
 30
0.0000
 11
15.1499
 21
35.0673
 31
0.0000
  0
LINE
  8
46
 10
14.8481
 20
34.4636
 30
0.0000
 11
14.7810
 21
34.3294
 31
0.0000
  0
LINE
  8
46
 10
14.4791
 20
33.7256
 30
0.0000
 11
13.2909
 21
31.3492
 31
0.0000
  0
LINE
  8
46
 10
12.9890
 20
30.7455
 30
0.0000
 11
12.9220
 21
30.6113
 31
0.0000
  0
LINE
  8
46
 10
12.6201
 20
30.0076
 30
0.0000
 11
11.4319
 21
27.6312
 31
0.0000
  0
LINE
  8
46
 10
11.1300
 20
27.0274
 30
0.0000
 11
11.0629
 21
26.8933
 31
0.0000
  0
LINE
  8
46
 10
10.7611
 20
26.2895
 30
0.0000
 11
9.5728
 21
23.9131
 31
0.0000
  0
LINE
  8
46
 10
9.2710
 20
23.3094
 30
0.0000
 11
9.2039
 21
23.1752
 31
0.0000
  0
LINE
  8
46
 10
8.9020
 20
22.5715
 30
0.0000
 11
7.7138
 21
20.1950
 31
0.0000
  0
LINE
  8
46
 10
7.4120
 20
19.5913
 30
0.0000
 11
7.3449
 21
19.4571
 31
0.0000
  0
LINE
  8
46
 10
7.0430
 20
18.8534
 30
0.0000
 11
5.8548
 21
16.4770
 31
0.0000
  0
LINE
  8
46
 10
5.5529
 20
15.8732
 30
0.0000
 11
5.4858
 21
15.7391
 31
0.0000
  0
LINE
  8
46
 10
5.1840
 20
15.1353
 30
0.0000
 11
3.9958
 21
12.7589
 31
0.0000
  0
LINE
  8
46
 10
3.6939
 20
12.1552
 30
0.0000
 11
3.6268
 21
12.0210
 31
0.0000
  0
LINE
  8
46
 10
3.3249
 20
11.4173
 30
0.0000
 11
2.1367
 21
9.0409
 31
0.0000
  0
LINE
  8
46
 10
1.8349
 20
8.4371
 30
0.0000
 11
1.7678
 21
8.3030
 31
0.0000
  0
LINE
  8
46
 10
1.4659
 20
7.6992
 30
0.0000
 11
0.2777
 21
5.3228
 31
0.0000
  0
LINE
  8
46
 10
-0.0242
 20
4.7191
 30
0.0000
 11
-0.0913
 21
4.5849
 31
0.0000
  0
LINE
  8
46
 10
-0.3931
 20
3.9812
 30
0.0000
 11
-1.5813
 21
1.6047
 31
0.0000
  0
LINE
  8
46
 10
-1.8832
 20
1.0010
 30
0.0000
 11
-1.9503
 21
0.8668
 31
0.0000
  0
LINE
  8
46
 10
-2.2522
 20
0.2631
 30
0.0000
 11
-3.4404
 21
-2.1133
 31
0.0000
  0
LINE
  8
46
 10
0.0158
 20
0.0227
 30
0.0000
 11
60.2502
 21
0.0227
 31
0.0000
  0
LINE
  8
46
 10
26.9534
 20
53.8980
 30
0.0000
 11
0.0158
 21
0.0227
 31
0.0000
  0
LINE
  8
46
 10
87.1878
 20
53.8980
 30
0.0000
 11
26.9534
 21
53.8980
 31
0.0000
  0
LINE
  8
46
 10
60.2502
 20
0.0227
 30
0.0000
 11
87.1878
 21
53.8980
 31
0.0000
  0
LINE
  8
46
 10
58.1386
 20
56.0340
 30
0.0000
 11
58.1386
 21
53.4428
 31
0.0000
  0
LINE
  8
46
 10
58.1386
 20
52.7678
 30
0.0000
 11
58.1386
 21
52.6178
 31
0.0000
  0
LINE
  8
46
 10
58.1386
 20
51.9428
 30
0.0000
 11
58.1386
 21
49.3516
 31
0.0000
  0
LINE
  8
46
 10
11.0965
 20
26.9604
 30
0.0000
 11
13.3575
 21
25.8299
 31
0.0000
  0
LINE
  8
46
 10
13.9612
 20
25.5280
 30
0.0000
 11
14.0954
 21
25.4609
 31
0.0000
  0
LINE
  8
46
 10
14.6991
 20
25.1590
 30
0.0000
 11
16.9601
 21
24.0285
 31
0.0000
  0
LINE
  8
46
 10
76.1072
 20
26.9604
 30
0.0000
 11
74.2276
 21
27.9001
 31
0.0000
  0
LINE
  8
46
 10
73.6239
 20
28.2020
 30
0.0000
 11
73.4897
 21
28.2691
 31
0.0000
  0
LINE
  8
46
 10
72.8860
 20
28.5709
 30
0.0000
 11
71.0065
 21
29.5107
 31
0.0000
  0
LINE
  8
20
 10
0.0250
 20
0.0250
 30
0.0000
 11
60.2500
 21
0.0250
 31
0.0000
  0
LINE
  8
20
 10
60.2500
 20
0.0250
 30
0.0000
 11
68.0250
 21
15.5750
 31
0.0000
  0
LINE
  8
20
 10
45.5750
 20
54.7000
 30
0.0000
 11
43.5750
 21
53.9000
 31
0.0000
  0
LINE
  8
20
 10
43.5750
 20
53.9000
 30
0.0000
 11
26.9500
 21
53.9000
 31
0.0000
  0
LINE
  8
20
 10
26.9500
 20
53.9000
 30
0.0000
 11
19.5250
 21
39.0250
 31
0.0000
  0
LINE
  8
20
 10
19.5250
 20
39.0250
 30
0.0000
 11
17.8500
 21
37.5250
 31
0.0000
  0
LINE
  8
20
 10
9.3667
 20
20.5377
 30
0.0000
 11
11.7831
 21
19.3230
 31
0.0000
  0
LINE
  8
20
 10
80.5000
 20
41.1000
 30
0.0000
 11
80.8250
 21
41.1500
 31
0.0000
  0
LINE
  8
20
 10
80.8250
 20
41.1500
 30
0.0000
 11
87.2000
 21
53.9000
 31
0.0000
  0
LINE
  8
20
 10
87.2000
 20
53.9000
 30
0.0000
 11
72.8750
 21
53.9000
 31
0.0000
  0
LINE
  8
20
 10
72.8750
 20
53.9000
 30
0.0000
 11
72.6250
 21
53.7000
 31
0.0000
  0
LINE
  8
20
 10
64.6500
 20
52.0250
 30
0.0000
 11
64.6500
 21
54.7000
 31
0.0000
  0
LINE
  8
20
 10
6.7500
 20
12.6500
 30
0.0000
 11
6.2750
 21
12.5500
 31
0.0000
  0
LINE
  8
20
 10
6.2750
 20
12.5500
 30
0.0000
 11
0.0250
 21
0.0250
 31
0.0000
  0
POLYLINE
  8
21
 66
1
 10
0.0000
 20
0.0000
 30
0.0000
 40
0.1000
 41
0.1000
 70
0
  0
VERTEX
  8
21
 10
41.4399
 20
27.8173
 30
0.0000
  0
VERTEX
  8
21
 10
44.1129
 20
29.1793
 30
0.0000
  0
SEQEND
  8
0
  0
POLYLINE
  8
21
 66
1
 10
0.0000
 20
0.0000
 30
0.0000
 40
0.0500
 41
0.0500
 70
0
  0
VERTEX
  8
21
 10
44.1243
 20
29.1570
 30
0.0000
 42
1.0000
  0
VERTEX
  8
21
 10
44.1016
 20
29.2016
 30
0.0000
  0
SEQEND
  8
0
  0
POLYLINE
  8
21
 66
1
 10
0.0000
 20
0.0000
 30
0.0000
 40
0.0500
 41
0.0500
 70
0
  0
VERTEX
  8
21
 10
41.4285
 20
27.8396
 30
0.0000
 42
1.0000
  0
VERTEX
  8
21
 10
41.4512
 20
27.7950
 30
0.0000
  0
SEQEND
  8
0
  0
POLYLINE
  8
21
 66
1
 10
0.0000
 20
0.0000
 30
0.0000
 40
0.1000
 41
0.1000
 70
0
  0
VERTEX
  8
21
 10
45.4827
 20
26.5399
 30
0.0000
  0
VERTEX
  8
21
 10
44.1207
 20
29.2129
 30
0.0000
  0
SEQEND
  8
0
  0
POLYLINE
  8
21
 66
1
 10
0.0000
 20
0.0000
 30
0.0000
 40
0.0500
 41
0.0500
 70
0
  0
VERTEX
  8
21
 10
44.1430
 20
29.2243
 30
0.0000
 42
1.0000
  0
VERTEX
  8
21
 10
44.0984
 20
29.2016
 30
0.0000
  0
SEQEND
  8
0
  0
POLYLINE
  8
21
 66
1
 10
0.0000
 20
0.0000
 30
0.0000
 40
0.0500
 41
0.0500
 70
0
  0
VERTEX
  8
21
 10
45.4604
 20
26.5285
 30
0.0000
 42
1.0000
  0
VERTEX
  8
21
 10
45.5050
 20
26.5512
 30
0.0000
  0
SEQEND
  8
0
  0
POLYLINE
  8
21
 66
1
 10
0.0000
 20
0.0000
 30
0.0000
 40
0.1000
 41
0.1000
 70
0
  0
VERTEX
  8
21
 10
45.4601
 20
26.4827
 30
0.0000
  0
VERTEX
  8
21
 10
42.7871
 20
25.1207
 30
0.0000
  0
SEQEND
  8
0
  0
POLYLINE
  8
21
 66
1
 10
0.0000
 20
0.0000
 30
0.0000
 40
0.0500
 41
0.0500
 70
0
  0
VERTEX
  8
21
 10
42.7757
 20
25.1430
 30
0.0000
 42
1.0000
  0
VERTEX
  8
21
 10
42.7984
 20
25.0984
 30
0.0000
  0
SEQEND
  8
0
  0
POLYLINE
  8
21
 66
1
 10
0.0000
 20
0.0000
 30
0.0000
 40
0.0500
 41
0.0500
 70
0
  0
VERTEX
  8
21
 10
45.4715
 20
26.4604
 30
0.0000
 42
1.0000
  0
VERTEX
  8
21
 10
45.4488
 20
26.5050
 30
0.0000
  0
SEQEND
  8
0
  0
POLYLINE
  8
21
 66
1
 10
0.0000
 20
0.0000
 30
0.0000
 40
0.1000
 41
0.1000
 70
0
  0
VERTEX
  8
21
 10
41.4173
 20
27.7601
 30
0.0000
  0
VERTEX
  8
21
 10
42.7793
 20
25.0871
 30
0.0000
  0
SEQEND
  8
0
  0
POLYLINE
  8
21
 66
1
 10
0.0000
 20
0.0000
 30
0.0000
 40
0.0500
 41
0.0500
 70
0
  0
VERTEX
  8
21
 10
42.7570
 20
25.0757
 30
0.0000
 42
1.0000
  0
VERTEX
  8
21
 10
42.8016
 20
25.0984
 30
0.0000
  0
SEQEND
  8
0
  0
POLYLINE
  8
21
 66
1
 10
0.0000
 20
0.0000
 30
0.0000
 40
0.0500
 41
0.0500
 70
0
  0
VERTEX
  8
21
 10
41.4396
 20
27.7715
 30
0.0000
 42
1.0000
  0
VERTEX
  8
21
 10
41.3950
 20
27.7488
 30
0.0000
  0
SEQEND
  8
0
  0
LINE
  8
20
 10
72.6250
 20
52.0250
 30
0.0000
 11
64.6500
 21
52.0250
 31
0.0000
  0
LINE
  8
20
 10
64.6500
 20
54.7000
 30
0.0000
 11
45.5750
 21
54.7000
 31
0.0000
  0
LINE
  8
20
 10
17.8500
 20
37.5250
 30
0.0000
 11
9.3667
 21
20.5377
 31
0.0000
  0
LINE
  8
20
 10
72.6250
 20
53.7000
 30
0.0000
 11
72.6250
 21
52.0250
 31
0.0000
  0
LINE
  8
20
 10
80.5000
 20
41.1000
 30
0.0000
 11
79.0000
 21
41.8500
 31
0.0000
  0
LINE
  8
20
 10
69.3250
 20
16.3750
 30
0.0000
 11
77.8307
 21
33.3615
 31
0.0000
  0
LINE
  8
20
 10
79.0000
 20
41.8500
 30
0.0000
 11
75.3500
 21
34.6000
 31
0.0000
  0
LINE
  8
20
 10
75.3500
 20
34.6000
 30
0.0000
 11
77.8307
 21
33.3615
 31
0.0000
  0
LINE
  8
20
 10
69.3250
 20
16.3750
 30
0.0000
 11
68.0250
 21
15.5750
 31
0.0000
  0
LINE
  8
20
 10
11.7831
 20
19.3230
 30
0.0000
 11
8.0973
 21
11.9764
 31
0.0000
  0
LINE
  8
20
 10
6.7500
 20
12.6500
 30
0.0000
 11
8.0973
 21
11.9764
 31
0.0000
  0
LINE
  8
20
 10
80.7125
 20
40.9500
 30
0.0000
 11
79.0375
 21
41.7875
 31
0.0000
  0
CIRCLE
  8
20
 10
5.1267
 20
3.1731
 30
0.0000
 40
1.2500
  0
CIRCLE
  8
20
 10
82.0865
 20
50.7516
 30
0.0000
 40
1.2500
  0
CIRCLE
  8
20
 10
29.0506
 20
50.4841
 30
0.0000
 40
1.2500
  0
CIRCLE
  8
20
 10
58.1346
 20
3.4188
 30
0.0000
 40
1.2500
  0
CIRCLE
  8
20
 10
38.8396
 20
34.6683
 30
0.0000
 40
1.1000
  0
CIRCLE
  8
20
 10
48.3707
 20
19.2469
 30
0.0000
 40
1.1000
  0
POLYLINE
  8
21
 66
1
 10
0.0000
 20
0.0000
 30
0.0000
 40
0.1524
 41
0.1524
 70
0
  0
VERTEX
  8
21
 10
36.0220
 20
19.4830
 30
0.0000
  0
VERTEX
  8
21
 10
35.1755
 20
20.8643
 30
0.0000
  0
SEQEND
  8
0
  0
POLYLINE
  8
21
 66
1
 10
0.0000
 20
0.0000
 30
0.0000
 40
0.0762
 41
0.0762
 70
0
  0
VERTEX
  8
21
 10
35.2080
 20
20.8842
 30
0.0000
 42
1.0000
  0
VERTEX
  8
21
 10
35.1430
 20
20.8444
 30
0.0000
  0
SEQEND
  8
0
  0
POLYLINE
  8
21
 66
1
 10
0.0000
 20
0.0000
 30
0.0000
 40
0.0762
 41
0.0762
 70
0
  0
VERTEX
  8
21
 10
35.9895
 20
19.4631
 30
0.0000
 42
1.0000
  0
VERTEX
  8
21
 10
36.0545
 20
19.5029
 30
0.0000
  0
SEQEND
  8
0
  0
POLYLINE
  8
21
 66
1
 10
0.0000
 20
0.0000
 30
0.0000
 40
0.1524
 41
0.1524
 70
0
  0
VERTEX
  8
21
 10
37.6004
 20
22.3503
 30
0.0000
  0
VERTEX
  8
21
 10
38.4469
 20
20.9690
 30
0.0000
  0
SEQEND
  8
0
  0
POLYLINE
  8
21
 66
1
 10
0.0000
 20
0.0000
 30
0.0000
 40
0.0762
 41
0.0762
 70
0
  0
VERTEX
  8
21
 10
38.4144
 20
20.9491
 30
0.0000
 42
1.0000
  0
VERTEX
  8
21
 10
38.4794
 20
20.9889
 30
0.0000
  0
SEQEND
  8
0
  0
POLYLINE
  8
21
 66
1
 10
0.0000
 20
0.0000
 30
0.0000
 40
0.0762
 41
0.0762
 70
0
  0
VERTEX
  8
21
 10
37.6329
 20
22.3702
 30
0.0000
 42
1.0000
  0
VERTEX
  8
21
 10
37.5680
 20
22.3304
 30
0.0000
  0
SEQEND
  8
0
  0
POLYLINE
  8
21
 66
1
 10
0.0000
 20
0.0000
 30
0.0000
 40
0.1524
 41
0.1524
 70
0
  0
VERTEX
  8
21
 10
37.6795
 20
20.4988
 30
0.0000
  0
VERTEX
  8
21
 10
36.7894
 20
19.9533
 30
0.0000
  0
SEQEND
  8
0
  0
POLYLINE
  8
21
 66
1
 10
0.0000
 20
0.0000
 30
0.0000
 40
0.0762
 41
0.0762
 70
0
  0
VERTEX
  8
21
 10
36.7694
 20
19.9858
 30
0.0000
 42
1.0000
  0
VERTEX
  8
21
 10
36.8093
 20
19.9208
 30
0.0000
  0
SEQEND
  8
0
  0
POLYLINE
  8
21
 66
1
 10
0.0000
 20
0.0000
 30
0.0000
 40
0.0762
 41
0.0762
 70
0
  0
VERTEX
  8
21
 10
37.6994
 20
20.4663
 30
0.0000
 42
1.0000
  0
VERTEX
  8
21
 10
37.6596
 20
20.5313
 30
0.0000
  0
SEQEND
  8
0
  0
POLYLINE
  8
21
 66
1
 10
0.0000
 20
0.0000
 30
0.0000
 40
0.1524
 41
0.1524
 70
0
  0
VERTEX
  8
21
 10
36.7529
 20
21.8309
 30
0.0000
  0
VERTEX
  8
21
 10
36.8331
 20
21.8801
 30
0.0000
  0
SEQEND
  8
0
  0
POLYLINE
  8
21
 66
1
 10
0.0000
 20
0.0000
 30
0.0000
 40
0.0762
 41
0.0762
 70
0
  0
VERTEX
  8
21
 10
36.8530
 20
21.8476
 30
0.0000
 42
1.0000
  0
VERTEX
  8
21
 10
36.8132
 20
21.9125
 30
0.0000
  0
SEQEND
  8
0
  0
POLYLINE
  8
21
 66
1
 10
0.0000
 20
0.0000
 30
0.0000
 40
0.0762
 41
0.0762
 70
0
  0
VERTEX
  8
21
 10
36.7330
 20
21.8634
 30
0.0000
 42
1.0000
  0
VERTEX
  8
21
 10
36.7728
 20
21.7984
 30
0.0000
  0
SEQEND
  8
0
  0
POLYLINE
  8
21
 66
1
 10
0.0000
 20
0.0000
 30
0.0000
 40
0.1524
 41
0.1524
 70
0
  0
VERTEX
  8
21
 10
35.9429
 20
21.3346
 30
0.0000
  0
VERTEX
  8
21
 10
36.0231
 20
21.3837
 30
0.0000
  0
SEQEND
  8
0
  0
POLYLINE
  8
21
 66
1
 10
0.0000
 20
0.0000
 30
0.0000
 40
0.0762
 41
0.0762
 70
0
  0
VERTEX
  8
21
 10
36.0430
 20
21.3512
 30
0.0000
 42
1.0000
  0
VERTEX
  8
21
 10
36.0031
 20
21.4162
 30
0.0000
  0
SEQEND
  8
0
  0
POLYLINE
  8
21
 66
1
 10
0.0000
 20
0.0000
 30
0.0000
 40
0.0762
 41
0.0762
 70
0
  0
VERTEX
  8
21
 10
35.9230
 20
21.3670
 30
0.0000
 42
1.0000
  0
VERTEX
  8
21
 10
35.9628
 20
21.3021
 30
0.0000
  0
SEQEND
  8
0
  0
POLYLINE
  8
21
 66
1
 10
0.0000
 20
0.0000
 30
0.0000
 40
0.1524
 41
0.1524
 70
0
  0
VERTEX
  8
21
 10
37.5203
 20
22.3012
 30
0.0000
  0
VERTEX
  8
21
 10
37.6004
 20
22.3503
 30
0.0000
  0
SEQEND
  8
0
  0
POLYLINE
  8
21
 66
1
 10
0.0000
 20
0.0000
 30
0.0000
 40
0.0762
 41
0.0762
 70
0
  0
VERTEX
  8
21
 10
37.6203
 20
22.3178
 30
0.0000
 42
1.0000
  0
VERTEX
  8
21
 10
37.5805
 20
22.3828
 30
0.0000
  0
SEQEND
  8
0
  0
POLYLINE
  8
21
 66
1
 10
0.0000
 20
0.0000
 30
0.0000
 40
0.0762
 41
0.0762
 70
0
  0
VERTEX
  8
21
 10
37.5004
 20
22.3337
 30
0.0000
 42
1.0000
  0
VERTEX
  8
21
 10
37.5402
 20
22.2687
 30
0.0000
  0
SEQEND
  8
0
  0
POLYLINE
  8
21
 66
1
 10
0.0000
 20
0.0000
 30
0.0000
 40
0.1524
 41
0.1524
 70
0
  0
VERTEX
  8
21
 10
35.1755
 20
20.8643
 30
0.0000
  0
VERTEX
  8
21
 10
35.2557
 20
20.9134
 30
0.0000
  0
SEQEND
  8
0
  0
POLYLINE
  8
21
 66
1
 10
0.0000
 20
0.0000
 30
0.0000
 40
0.0762
 41
0.0762
 70
0
  0
VERTEX
  8
21
 10
35.2756
 20
20.8809
 30
0.0000
 42
1.0000
  0
VERTEX
  8
21
 10
35.2358
 20
20.9459
 30
0.0000
  0
SEQEND
  8
0
  0
POLYLINE
  8
21
 66
1
 10
0.0000
 20
0.0000
 30
0.0000
 40
0.0762
 41
0.0762
 70
0
  0
VERTEX
  8
21
 10
35.1556
 20
20.8968
 30
0.0000
 42
1.0000
  0
VERTEX
  8
21
 10
35.1954
 20
20.8318
 30
0.0000
  0
SEQEND
  8
0
  0
POLYLINE
  8
21
 66
1
 10
0.0000
 20
0.0000
 30
0.0000
 40
0.1524
 41
0.1524
 70
0
  0
VERTEX
  8
21
 10
36.1021
 20
19.5322
 30
0.0000
  0
VERTEX
  8
21
 10
36.0220
 20
19.4830
 30
0.0000
  0
SEQEND
  8
0
  0
POLYLINE
  8
21
 66
1
 10
0.0000
 20
0.0000
 30
0.0000
 40
0.0762
 41
0.0762
 70
0
  0
VERTEX
  8
21
 10
36.0021
 20
19.5155
 30
0.0000
 42
1.0000
  0
VERTEX
  8
21
 10
36.0419
 20
19.4505
 30
0.0000
  0
SEQEND
  8
0
  0
POLYLINE
  8
21
 66
1
 10
0.0000
 20
0.0000
 30
0.0000
 40
0.0762
 41
0.0762
 70
0
  0
VERTEX
  8
21
 10
36.1220
 20
19.4997
 30
0.0000
 42
1.0000
  0
VERTEX
  8
21
 10
36.0822
 20
19.5646
 30
0.0000
  0
SEQEND
  8
0
  0
POLYLINE
  8
21
 66
1
 10
0.0000
 20
0.0000
 30
0.0000
 40
0.1524
 41
0.1524
 70
0
  0
VERTEX
  8
21
 10
38.4469
 20
20.9690
 30
0.0000
  0
VERTEX
  8
21
 10
38.3667
 20
20.9199
 30
0.0000
  0
SEQEND
  8
0
  0
POLYLINE
  8
21
 66
1
 10
0.0000
 20
0.0000
 30
0.0000
 40
0.0762
 41
0.0762
 70
0
  0
VERTEX
  8
21
 10
38.3468
 20
20.9524
 30
0.0000
 42
1.0000
  0
VERTEX
  8
21
 10
38.3866
 20
20.8874
 30
0.0000
  0
SEQEND
  8
0
  0
POLYLINE
  8
21
 66
1
 10
0.0000
 20
0.0000
 30
0.0000
 40
0.0762
 41
0.0762
 70
0
  0
VERTEX
  8
21
 10
38.4668
 20
20.9365
 30
0.0000
 42
1.0000
  0
VERTEX
  8
21
 10
38.4270
 20
21.0015
 30
0.0000
  0
SEQEND
  8
0
  0
POLYLINE
  8
21
 66
1
 10
0.0000
 20
0.0000
 30
0.0000
 40
0.1524
 41
0.1524
 70
0
  0
VERTEX
  8
21
 10
61.2403
 20
24.5786
 30
0.0000
  0
VERTEX
  8
21
 10
59.1735
 20
25.6135
 30
0.0000
  0
SEQEND
  8
0
  0
POLYLINE
  8
21
 66
1
 10
0.0000
 20
0.0000
 30
0.0000
 40
0.0762
 41
0.0762
 70
0
  0
VERTEX
  8
21
 10
59.1906
 20
25.6476
 30
0.0000
 42
1.0000
  0
VERTEX
  8
21
 10
59.1565
 20
25.5795
 30
0.0000
  0
SEQEND
  8
0
  0
POLYLINE
  8
21
 66
1
 10
0.0000
 20
0.0000
 30
0.0000
 40
0.0762
 41
0.0762
 70
0
  0
VERTEX
  8
21
 10
61.2232
 20
24.5445
 30
0.0000
 42
1.0000
  0
VERTEX
  8
21
 10
61.2573
 20
24.6127
 30
0.0000
  0
SEQEND
  8
0
  0
POLYLINE
  8
21
 66
1
 10
0.0000
 20
0.0000
 30
0.0000
 40
0.1524
 41
0.1524
 70
0
  0
VERTEX
  8
21
 10
54.6925
 20
16.6652
 30
0.0000
  0
VERTEX
  8
21
 10
55.4420
 20
16.2899
 30
0.0000
  0
SEQEND
  8
0
  0
POLYLINE
  8
21
 66
1
 10
0.0000
 20
0.0000
 30
0.0000
 40
0.0762
 41
0.0762
 70
0
  0
VERTEX
  8
21
 10
55.4249
 20
16.2558
 30
0.0000
 42
1.0000
  0
VERTEX
  8
21
 10
55.4591
 20
16.3240
 30
0.0000
  0
SEQEND
  8
0
  0
POLYLINE
  8
21
 66
1
 10
0.0000
 20
0.0000
 30
0.0000
 40
0.0762
 41
0.0762
 70
0
  0
VERTEX
  8
21
 10
54.7096
 20
16.6993
 30
0.0000
 42
1.0000
  0
VERTEX
  8
21
 10
54.6755
 20
16.6311
 30
0.0000
  0
SEQEND
  8
0
  0
POLYLINE
  8
21
 66
1
 10
0.0000
 20
0.0000
 30
0.0000
 40
0.1524
 41
0.1524
 70
0
  0
VERTEX
  8
21
 10
55.4420
 20
16.2899
 30
0.0000
  0
VERTEX
  8
21
 10
55.9871
 20
16.0169
 30
0.0000
  0
SEQEND
  8
0
  0
POLYLINE
  8
21
 66
1
 10
0.0000
 20
0.0000
 30
0.0000
 40
0.0762
 41
0.0762
 70
0
  0
VERTEX
  8
21
 10
55.9700
 20
15.9829
 30
0.0000
 42
1.0000
  0
VERTEX
  8
21
 10
56.0041
 20
16.0510
 30
0.0000
  0
SEQEND
  8
0
  0
POLYLINE
  8
21
 66
1
 10
0.0000
 20
0.0000
 30
0.0000
 40
0.0762
 41
0.0762
 70
0
  0
VERTEX
  8
21
 10
55.4591
 20
16.3240
 30
0.0000
 42
1.0000
  0
VERTEX
  8
21
 10
55.4249
 20
16.2558
 30
0.0000
  0
SEQEND
  8
0
  0
POLYLINE
  8
21
 66
1
 10
0.0000
 20
0.0000
 30
0.0000
 40
0.1524
 41
0.1524
 70
0
  0
VERTEX
  8
21
 10
55.9871
 20
16.0169
 30
0.0000
  0
VERTEX
  8
21
 10
56.7593
 20
15.6303
 30
0.0000
  0
SEQEND
  8
0
  0
POLYLINE
  8
21
 66
1
 10
0.0000
 20
0.0000
 30
0.0000
 40
0.0762
 41
0.0762
 70
0
  0
VERTEX
  8
21
 10
56.7422
 20
15.5962
 30
0.0000
 42
1.0000
  0
VERTEX
  8
21
 10
56.7763
 20
15.6643
 30
0.0000
  0
SEQEND
  8
0
  0
POLYLINE
  8
21
 66
1
 10
0.0000
 20
0.0000
 30
0.0000
 40
0.0762
 41
0.0762
 70
0
  0
VERTEX
  8
21
 10
56.0041
 20
16.0510
 30
0.0000
 42
1.0000
  0
VERTEX
  8
21
 10
55.9700
 20
15.9829
 30
0.0000
  0
SEQEND
  8
0
  0
ARC
  8
21
 10
55.7145
 20
16.1534
 30
0.0000
 40
0.3048
 50
333.4001
 51
153.4001
  0
POLYLINE
  8
21
 66
1
 10
0.0000
 20
0.0000
 30
0.0000
 40
0.0762
 41
0.0762
 70
0
  0
VERTEX
  8
21
 10
57.9544
 20
14.0176
 30
0.0000
  0
VERTEX
  8
21
 10
57.5988
 20
15.0865
 30
0.0000
  0
SEQEND
  8
0
  0
POLYLINE
  8
21
 66
1
 10
0.0000
 20
0.0000
 30
0.0000
 40
0.0381
 41
0.0381
 70
0
  0
VERTEX
  8
21
 10
57.6169
 20
15.0926
 30
0.0000
 42
1.0000
  0
VERTEX
  8
21
 10
57.5808
 20
15.0805
 30
0.0000
  0
SEQEND
  8
0
  0
POLYLINE
  8
21
 66
1
 10
0.0000
 20
0.0000
 30
0.0000
 40
0.0381
 41
0.0381
 70
0
  0
VERTEX
  8
21
 10
57.9363
 20
14.0116
 30
0.0000
 42
1.0000
  0
VERTEX
  8
21
 10
57.9725
 20
14.0237
 30
0.0000
  0
SEQEND
  8
0
  0
POLYLINE
  8
21
 66
1
 10
0.0000
 20
0.0000
 30
0.0000
 40
0.0762
 41
0.0762
 70
0
  0
VERTEX
  8
21
 10
58.3111
 20
14.7299
 30
0.0000
  0
VERTEX
  8
21
 10
57.2422
 20
14.3743
 30
0.0000
  0
SEQEND
  8
0
  0
POLYLINE
  8
21
 66
1
 10
0.0000
 20
0.0000
 30
0.0000
 40
0.0381
 41
0.0381
 70
0
  0
VERTEX
  8
21
 10
57.2362
 20
14.3924
 30
0.0000
 42
1.0000
  0
VERTEX
  8
21
 10
57.2482
 20
14.3562
 30
0.0000
  0
SEQEND
  8
0
  0
POLYLINE
  8
21
 66
1
 10
0.0000
 20
0.0000
 30
0.0000
 40
0.0381
 41
0.0381
 70
0
  0
VERTEX
  8
21
 10
58.3171
 20
14.7118
 30
0.0000
 42
1.0000
  0
VERTEX
  8
21
 10
58.3051
 20
14.7480
 30
0.0000
  0
SEQEND
  8
0
  0
POLYLINE
  8
21
 66
1
 10
0.0000
 20
0.0000
 30
0.0000
 40
0.0762
 41
0.0762
 70
0
  0
VERTEX
  8
21
 10
58.1327
 20
14.3738
 30
0.0000
  0
VERTEX
  8
21
 10
57.4205
 20
14.7304
 30
0.0000
  0
SEQEND
  8
0
  0
POLYLINE
  8
21
 66
1
 10
0.0000
 20
0.0000
 30
0.0000
 40
0.0381
 41
0.0381
 70
0
  0
VERTEX
  8
21
 10
57.4290
 20
14.7475
 30
0.0000
 42
1.0000
  0
VERTEX
  8
21
 10
57.4120
 20
14.7134
 30
0.0000
  0
SEQEND
  8
0
  0
POLYLINE
  8
21
 66
1
 10
0.0000
 20
0.0000
 30
0.0000
 40
0.0381
 41
0.0381
 70
0
  0
VERTEX
  8
21
 10
58.1242
 20
14.3567
 30
0.0000
 42
1.0000
  0
VERTEX
  8
21
 10
58.1413
 20
14.3908
 30
0.0000
  0
SEQEND
  8
0
  0
POLYLINE
  8
21
 66
1
 10
0.0000
 20
0.0000
 30
0.0000
 40
0.0762
 41
0.0762
 70
0
  0
VERTEX
  8
21
 10
57.9550
 20
14.9082
 30
0.0000
  0
VERTEX
  8
21
 10
57.5983
 20
14.1960
 30
0.0000
  0
SEQEND
  8
0
  0
POLYLINE
  8
21
 66
1
 10
0.0000
 20
0.0000
 30
0.0000
 40
0.0381
 41
0.0381
 70
0
  0
VERTEX
  8
21
 10
57.5813
 20
14.2045
 30
0.0000
 42
1.0000
  0
VERTEX
  8
21
 10
57.6153
 20
14.1874
 30
0.0000
  0
SEQEND
  8
0
  0
POLYLINE
  8
21
 66
1
 10
0.0000
 20
0.0000
 30
0.0000
 40
0.0381
 41
0.0381
 70
0
  0
VERTEX
  8
21
 10
57.9720
 20
14.8997
 30
0.0000
 42
1.0000
  0
VERTEX
  8
21
 10
57.9379
 20
14.9167
 30
0.0000
  0
SEQEND
  8
0
  0
POLYLINE
  8
21
 66
1
 10
0.0000
 20
0.0000
 30
0.0000
 40
0.2032
 41
0.2032
 70
0
  0
VERTEX
  8
21
 10
71.2663
 20
38.7929
 30
0.0000
  0
VERTEX
  8
21
 10
66.3026
 20
46.8930
 30
0.0000
  0
SEQEND
  8
0
  0
POLYLINE
  8
21
 66
1
 10
0.0000
 20
0.0000
 30
0.0000
 40
0.1016
 41
0.1016
 70
0
  0
VERTEX
  8
21
 10
66.3459
 20
46.9195
 30
0.0000
 42
1.0000
  0
VERTEX
  8
21
 10
66.2593
 20
46.8664
 30
0.0000
  0
SEQEND
  8
0
  0
POLYLINE
  8
21
 66
1
 10
0.0000
 20
0.0000
 30
0.0000
 40
0.1016
 41
0.1016
 70
0
  0
VERTEX
  8
21
 10
71.2230
 20
38.7663
 30
0.0000
 42
1.0000
  0
VERTEX
  8
21
 10
71.3096
 20
38.8194
 30
0.0000
  0
SEQEND
  8
0
  0
POLYLINE
  8
21
 66
1
 10
0.0000
 20
0.0000
 30
0.0000
 40
0.2032
 41
0.2032
 70
0
  0
VERTEX
  8
21
 10
66.3026
 20
46.8930
 30
0.0000
  0
VERTEX
  8
21
 10
69.4574
 20
48.8262
 30
0.0000
  0
SEQEND
  8
0
  0
POLYLINE
  8
21
 66
1
 10
0.0000
 20
0.0000
 30
0.0000
 40
0.1016
 41
0.1016
 70
0
  0
VERTEX
  8
21
 10
69.4839
 20
48.7829
 30
0.0000
 42
1.0000
  0
VERTEX
  8
21
 10
69.4308
 20
48.8695
 30
0.0000
  0
SEQEND
  8
0
  0
POLYLINE
  8
21
 66
1
 10
0.0000
 20
0.0000
 30
0.0000
 40
0.1016
 41
0.1016
 70
0
  0
VERTEX
  8
21
 10
66.2761
 20
46.9363
 30
0.0000
 42
1.0000
  0
VERTEX
  8
21
 10
66.3291
 20
46.8496
 30
0.0000
  0
SEQEND
  8
0
  0
POLYLINE
  8
21
 66
1
 10
0.0000
 20
0.0000
 30
0.0000
 40
0.2032
 41
0.2032
 70
0
  0
VERTEX
  8
21
 10
72.0153
 20
50.3937
 30
0.0000
  0
VERTEX
  8
21
 10
75.1701
 20
52.3269
 30
0.0000
  0
SEQEND
  8
0
  0
POLYLINE
  8
21
 66
1
 10
0.0000
 20
0.0000
 30
0.0000
 40
0.1016
 41
0.1016
 70
0
  0
VERTEX
  8
21
 10
75.1966
 20
52.2836
 30
0.0000
 42
1.0000
  0
VERTEX
  8
21
 10
75.1435
 20
52.3703
 30
0.0000
  0
SEQEND
  8
0
  0
POLYLINE
  8
21
 66
1
 10
0.0000
 20
0.0000
 30
0.0000
 40
0.1016
 41
0.1016
 70
0
  0
VERTEX
  8
21
 10
71.9887
 20
50.4370
 30
0.0000
 42
1.0000
  0
VERTEX
  8
21
 10
72.0418
 20
50.3504
 30
0.0000
  0
SEQEND
  8
0
  0
POLYLINE
  8
21
 66
1
 10
0.0000
 20
0.0000
 30
0.0000
 40
0.2032
 41
0.2032
 70
0
  0
VERTEX
  8
21
 10
75.1701
 20
52.3269
 30
0.0000
  0
VERTEX
  8
21
 10
80.1338
 20
44.2269
 30
0.0000
  0
SEQEND
  8
0
  0
POLYLINE
  8
21
 66
1
 10
0.0000
 20
0.0000
 30
0.0000
 40
0.1016
 41
0.1016
 70
0
  0
VERTEX
  8
21
 10
80.0905
 20
44.2003
 30
0.0000
 42
1.0000
  0
VERTEX
  8
21
 10
80.1771
 20
44.2534
 30
0.0000
  0
SEQEND
  8
0
  0
POLYLINE
  8
21
 66
1
 10
0.0000
 20
0.0000
 30
0.0000
 40
0.1016
 41
0.1016
 70
0
  0
VERTEX
  8
21
 10
75.2134
 20
52.3535
 30
0.0000
 42
1.0000
  0
VERTEX
  8
21
 10
75.1267
 20
52.3004
 30
0.0000
  0
SEQEND
  8
0
  0
POLYLINE
  8
21
 66
1
 10
0.0000
 20
0.0000
 30
0.0000
 40
0.2032
 41
0.2032
 70
0
  0
VERTEX
  8
21
 10
79.8367
 20
42.9892
 30
0.0000
  0
VERTEX
  8
21
 10
77.4493
 20
41.5262
 30
0.0000
  0
SEQEND
  8
0
  0
POLYLINE
  8
21
 66
1
 10
0.0000
 20
0.0000
 30
0.0000
 40
0.1016
 41
0.1016
 70
0
  0
VERTEX
  8
21
 10
77.4227
 20
41.5696
 30
0.0000
 42
1.0000
  0
VERTEX
  8
21
 10
77.4758
 20
41.4829
 30
0.0000
  0
SEQEND
  8
0
  0
POLYLINE
  8
21
 66
1
 10
0.0000
 20
0.0000
 30
0.0000
 40
0.1016
 41
0.1016
 70
0
  0
VERTEX
  8
21
 10
79.8632
 20
42.9459
 30
0.0000
 42
1.0000
  0
VERTEX
  8
21
 10
79.8101
 20
43.0326
 30
0.0000
  0
SEQEND
  8
0
  0
POLYLINE
  8
21
 66
1
 10
0.0000
 20
0.0000
 30
0.0000
 40
0.2032
 41
0.2032
 70
0
  0
VERTEX
  8
21
 10
74.8913
 20
39.9587
 30
0.0000
  0
VERTEX
  8
21
 10
72.5040
 20
38.4958
 30
0.0000
  0
SEQEND
  8
0
  0
POLYLINE
  8
21
 66
1
 10
0.0000
 20
0.0000
 30
0.0000
 40
0.1016
 41
0.1016
 70
0
  0
VERTEX
  8
21
 10
72.4774
 20
38.5391
 30
0.0000
 42
1.0000
  0
VERTEX
  8
21
 10
72.5305
 20
38.4524
 30
0.0000
  0
SEQEND
  8
0
  0
POLYLINE
  8
21
 66
1
 10
0.0000
 20
0.0000
 30
0.0000
 40
0.1016
 41
0.1016
 70
0
  0
VERTEX
  8
21
 10
74.9179
 20
39.9154
 30
0.0000
 42
1.0000
  0
VERTEX
  8
21
 10
74.8648
 20
40.0021
 30
0.0000
  0
SEQEND
  8
0
  0
POLYLINE
  8
21
 66
1
 10
0.0000
 20
0.0000
 30
0.0000
 40
0.2032
 41
0.2032
 70
0
  0
VERTEX
  8
21
 10
72.5040
 20
38.4958
 30
0.0000
  0
VERTEX
  8
21
 10
71.2663
 20
38.7929
 30
0.0000
  0
SEQEND
  8
0
  0
POLYLINE
  8
21
 66
1
 10
0.0000
 20
0.0000
 30
0.0000
 40
0.1016
 41
0.1016
 70
0
  0
VERTEX
  8
21
 10
71.2782
 20
38.8423
 30
0.0000
 42
1.0000
  0
VERTEX
  8
21
 10
71.2545
 20
38.7435
 30
0.0000
  0
SEQEND
  8
0
  0
POLYLINE
  8
21
 66
1
 10
0.0000
 20
0.0000
 30
0.0000
 40
0.1016
 41
0.1016
 70
0
  0
VERTEX
  8
21
 10
72.4921
 20
38.4464
 30
0.0000
 42
1.0000
  0
VERTEX
  8
21
 10
72.5158
 20
38.5451
 30
0.0000
  0
SEQEND
  8
0
  0
POLYLINE
  8
21
 66
1
 10
0.0000
 20
0.0000
 30
0.0000
 40
0.2032
 41
0.2032
 70
0
  0
VERTEX
  8
21
 10
80.1338
 20
44.2269
 30
0.0000
  0
VERTEX
  8
21
 10
79.8367
 20
42.9892
 30
0.0000
  0
SEQEND
  8
0
  0
POLYLINE
  8
21
 66
1
 10
0.0000
 20
0.0000
 30
0.0000
 40
0.1016
 41
0.1016
 70
0
  0
VERTEX
  8
21
 10
79.7873
 20
43.0011
 30
0.0000
 42
1.0000
  0
VERTEX
  8
21
 10
79.8861
 20
42.9774
 30
0.0000
  0
SEQEND
  8
0
  0
POLYLINE
  8
21
 66
1
 10
0.0000
 20
0.0000
 30
0.0000
 40
0.1016
 41
0.1016
 70
0
  0
VERTEX
  8
21
 10
80.1832
 20
44.2150
 30
0.0000
 42
1.0000
  0
VERTEX
  8
21
 10
80.0844
 20
44.2387
 30
0.0000
  0
SEQEND
  8
0
  0
POLYLINE
  8
21
 66
1
 10
0.0000
 20
0.0000
 30
0.0000
 40
0.2032
 41
0.2032
 70
0
  0
VERTEX
  8
21
 10
69.7021
 20
48.3311
 30
0.0000
 42
0.7208
  0
VERTEX
  8
21
 10
74.5613
 20
40.4016
 30
0.0000
  0
SEQEND
  8
0
  0
POLYLINE
  8
21
 66
1
 10
0.0000
 20
0.0000
 30
0.0000
 40
0.1016
 41
0.1016
 70
0
  0
VERTEX
  8
21
 10
69.7410
 20
48.2984
 30
0.0000
 42
1.0000
  0
VERTEX
  8
21
 10
69.6632
 20
48.3638
 30
0.0000
  0
SEQEND
  8
0
  0
POLYLINE
  8
21
 66
1
 10
0.0000
 20
0.0000
 30
0.0000
 40
0.1016
 41
0.1016
 70
0
  0
VERTEX
  8
21
 10
74.5728
 20
40.3521
 30
0.0000
 42
1.0000
  0
VERTEX
  8
21
 10
74.5499
 20
40.4511
 30
0.0000
  0
SEQEND
  8
0
  0
POLYLINE
  8
21
 66
1
 10
0.0000
 20
0.0000
 30
0.0000
 40
0.2032
 41
0.2032
 70
0
  0
VERTEX
  8
21
 10
77.2045
 20
42.0213
 30
0.0000
 42
0.7208
  0
VERTEX
  8
21
 10
72.3453
 20
49.9509
 30
0.0000
  0
SEQEND
  8
0
  0
POLYLINE
  8
21
 66
1
 10
0.0000
 20
0.0000
 30
0.0000
 40
0.1016
 41
0.1016
 70
0
  0
VERTEX
  8
21
 10
77.1656
 20
42.0540
 30
0.0000
 42
1.0000
  0
VERTEX
  8
21
 10
77.2434
 20
41.9886
 30
0.0000
  0
SEQEND
  8
0
  0
POLYLINE
  8
21
 66
1
 10
0.0000
 20
0.0000
 30
0.0000
 40
0.1016
 41
0.1016
 70
0
  0
VERTEX
  8
21
 10
72.3338
 20
50.0004
 30
0.0000
 42
1.0000
  0
VERTEX
  8
21
 10
72.3568
 20
49.9014
 30
0.0000
  0
SEQEND
  8
0
  0
POLYLINE
  8
21
 66
1
 10
0.0000
 20
0.0000
 30
0.0000
 40
0.2032
 41
0.2032
 70
0
  0
VERTEX
  8
21
 10
26.3640
 20
2.4926
 30
0.0000
  0
VERTEX
  8
21
 10
26.3640
 20
11.9926
 30
0.0000
  0
SEQEND
  8
0
  0
POLYLINE
  8
21
 66
1
 10
0.0000
 20
0.0000
 30
0.0000
 40
0.1016
 41
0.1016
 70
0
  0
VERTEX
  8
21
 10
26.4148
 20
11.9926
 30
0.0000
 42
1.0000
  0
VERTEX
  8
21
 10
26.3132
 20
11.9926
 30
0.0000
  0
SEQEND
  8
0
  0
POLYLINE
  8
21
 66
1
 10
0.0000
 20
0.0000
 30
0.0000
 40
0.1016
 41
0.1016
 70
0
  0
VERTEX
  8
21
 10
26.3132
 20
2.4926
 30
0.0000
 42
1.0000
  0
VERTEX
  8
21
 10
26.4148
 20
2.4926
 30
0.0000
  0
SEQEND
  8
0
  0
POLYLINE
  8
21
 66
1
 10
0.0000
 20
0.0000
 30
0.0000
 40
0.2032
 41
0.2032
 70
0
  0
VERTEX
  8
21
 10
26.3640
 20
11.9926
 30
0.0000
  0
VERTEX
  8
21
 10
30.0640
 20
11.9926
 30
0.0000
  0
SEQEND
  8
0
  0
POLYLINE
  8
21
 66
1
 10
0.0000
 20
0.0000
 30
0.0000
 40
0.1016
 41
0.1016
 70
0
  0
VERTEX
  8
21
 10
30.0640
 20
11.9418
 30
0.0000
 42
1.0000
  0
VERTEX
  8
21
 10
30.0640
 20
12.0434
 30
0.0000
  0
SEQEND
  8
0
  0
POLYLINE
  8
21
 66
1
 10
0.0000
 20
0.0000
 30
0.0000
 40
0.1016
 41
0.1016
 70
0
  0
VERTEX
  8
21
 10
26.3640
 20
12.0434
 30
0.0000
 42
1.0000
  0
VERTEX
  8
21
 10
26.3640
 20
11.9418
 30
0.0000
  0
SEQEND
  8
0
  0
POLYLINE
  8
21
 66
1
 10
0.0000
 20
0.0000
 30
0.0000
 40
0.2032
 41
0.2032
 70
0
  0
VERTEX
  8
21
 10
33.0640
 20
11.9926
 30
0.0000
  0
VERTEX
  8
21
 10
36.7640
 20
11.9926
 30
0.0000
  0
SEQEND
  8
0
  0
POLYLINE
  8
21
 66
1
 10
0.0000
 20
0.0000
 30
0.0000
 40
0.1016
 41
0.1016
 70
0
  0
VERTEX
  8
21
 10
36.7640
 20
11.9418
 30
0.0000
 42
1.0000
  0
VERTEX
  8
21
 10
36.7640
 20
12.0434
 30
0.0000
  0
SEQEND
  8
0
  0
POLYLINE
  8
21
 66
1
 10
0.0000
 20
0.0000
 30
0.0000
 40
0.1016
 41
0.1016
 70
0
  0
VERTEX
  8
21
 10
33.0640
 20
12.0434
 30
0.0000
 42
1.0000
  0
VERTEX
  8
21
 10
33.0640
 20
11.9418
 30
0.0000
  0
SEQEND
  8
0
  0
POLYLINE
  8
21
 66
1
 10
0.0000
 20
0.0000
 30
0.0000
 40
0.2032
 41
0.2032
 70
0
  0
VERTEX
  8
21
 10
36.7640
 20
11.9926
 30
0.0000
  0
VERTEX
  8
21
 10
36.7640
 20
2.4926
 30
0.0000
  0
SEQEND
  8
0
  0
POLYLINE
  8
21
 66
1
 10
0.0000
 20
0.0000
 30
0.0000
 40
0.1016
 41
0.1016
 70
0
  0
VERTEX
  8
21
 10
36.7132
 20
2.4926
 30
0.0000
 42
1.0000
  0
VERTEX
  8
21
 10
36.8148
 20
2.4926
 30
0.0000
  0
SEQEND
  8
0
  0
POLYLINE
  8
21
 66
1
 10
0.0000
 20
0.0000
 30
0.0000
 40
0.1016
 41
0.1016
 70
0
  0
VERTEX
  8
21
 10
36.8148
 20
11.9926
 30
0.0000
 42
1.0000
  0
VERTEX
  8
21
 10
36.7132
 20
11.9926
 30
0.0000
  0
SEQEND
  8
0
  0
POLYLINE
  8
21
 66
1
 10
0.0000
 20
0.0000
 30
0.0000
 40
0.2032
 41
0.2032
 70
0
  0
VERTEX
  8
21
 10
35.8640
 20
1.5926
 30
0.0000
  0
VERTEX
  8
21
 10
33.0640
 20
1.5926
 30
0.0000
  0
SEQEND
  8
0
  0
POLYLINE
  8
21
 66
1
 10
0.0000
 20
0.0000
 30
0.0000
 40
0.1016
 41
0.1016
 70
0
  0
VERTEX
  8
21
 10
33.0640
 20
1.6434
 30
0.0000
 42
1.0000
  0
VERTEX
  8
21
 10
33.0640
 20
1.5418
 30
0.0000
  0
SEQEND
  8
0
  0
POLYLINE
  8
21
 66
1
 10
0.0000
 20
0.0000
 30
0.0000
 40
0.1016
 41
0.1016
 70
0
  0
VERTEX
  8
21
 10
35.8640
 20
1.5418
 30
0.0000
 42
1.0000
  0
VERTEX
  8
21
 10
35.8640
 20
1.6434
 30
0.0000
  0
SEQEND
  8
0
  0
POLYLINE
  8
21
 66
1
 10
0.0000
 20
0.0000
 30
0.0000
 40
0.2032
 41
0.2032
 70
0
  0
VERTEX
  8
21
 10
30.0640
 20
1.5926
 30
0.0000
  0
VERTEX
  8
21
 10
27.2640
 20
1.5926
 30
0.0000
  0
SEQEND
  8
0
  0
POLYLINE
  8
21
 66
1
 10
0.0000
 20
0.0000
 30
0.0000
 40
0.1016
 41
0.1016
 70
0
  0
VERTEX
  8
21
 10
27.2640
 20
1.6434
 30
0.0000
 42
1.0000
  0
VERTEX
  8
21
 10
27.2640
 20
1.5418
 30
0.0000
  0
SEQEND
  8
0
  0
POLYLINE
  8
21
 66
1
 10
0.0000
 20
0.0000
 30
0.0000
 40
0.1016
 41
0.1016
 70
0
  0
VERTEX
  8
21
 10
30.0640
 20
1.5418
 30
0.0000
 42
1.0000
  0
VERTEX
  8
21
 10
30.0640
 20
1.6434
 30
0.0000
  0
SEQEND
  8
0
  0
POLYLINE
  8
21
 66
1
 10
0.0000
 20
0.0000
 30
0.0000
 40
0.2032
 41
0.2032
 70
0
  0
VERTEX
  8
21
 10
27.2640
 20
1.5926
 30
0.0000
  0
VERTEX
  8
21
 10
26.3640
 20
2.4926
 30
0.0000
  0
SEQEND
  8
0
  0
POLYLINE
  8
21
 66
1
 10
0.0000
 20
0.0000
 30
0.0000
 40
0.1016
 41
0.1016
 70
0
  0
VERTEX
  8
21
 10
26.4000
 20
2.5285
 30
0.0000
 42
1.0000
  0
VERTEX
  8
21
 10
26.3281
 20
2.4566
 30
0.0000
  0
SEQEND
  8
0
  0
POLYLINE
  8
21
 66
1
 10
0.0000
 20
0.0000
 30
0.0000
 40
0.1016
 41
0.1016
 70
0
  0
VERTEX
  8
21
 10
27.2281
 20
1.5566
 30
0.0000
 42
1.0000
  0
VERTEX
  8
21
 10
27.3000
 20
1.6285
 30
0.0000
  0
SEQEND
  8
0
  0
POLYLINE
  8
21
 66
1
 10
0.0000
 20
0.0000
 30
0.0000
 40
0.2032
 41
0.2032
 70
0
  0
VERTEX
  8
21
 10
36.7640
 20
2.4926
 30
0.0000
  0
VERTEX
  8
21
 10
35.8640
 20
1.5926
 30
0.0000
  0
SEQEND
  8
0
  0
POLYLINE
  8
21
 66
1
 10
0.0000
 20
0.0000
 30
0.0000
 40
0.1016
 41
0.1016
 70
0
  0
VERTEX
  8
21
 10
35.8281
 20
1.6285
 30
0.0000
 42
1.0000
  0
VERTEX
  8
21
 10
35.9000
 20
1.5566
 30
0.0000
  0
SEQEND
  8
0
  0
POLYLINE
  8
21
 66
1
 10
0.0000
 20
0.0000
 30
0.0000
 40
0.1016
 41
0.1016
 70
0
  0
VERTEX
  8
21
 10
36.8000
 20
2.4566
 30
0.0000
 42
1.0000
  0
VERTEX
  8
21
 10
36.7281
 20
2.5285
 30
0.0000
  0
SEQEND
  8
0
  0
POLYLINE
  8
21
 66
1
 10
0.0000
 20
0.0000
 30
0.0000
 40
0.2032
 41
0.2032
 70
0
  0
VERTEX
  8
21
 10
30.0140
 20
11.4426
 30
0.0000
 42
0.7208
  0
VERTEX
  8
21
 10
30.0140
 20
2.1425
 30
0.0000
  0
SEQEND
  8
0
  0
POLYLINE
  8
21
 66
1
 10
0.0000
 20
0.0000
 30
0.0000
 40
0.1016
 41
0.1016
 70
0
  0
VERTEX
  8
21
 10
30.0301
 20
11.3944
 30
0.0000
 42
1.0000
  0
VERTEX
  8
21
 10
29.9980
 20
11.4907
 30
0.0000
  0
SEQEND
  8
0
  0
POLYLINE
  8
21
 66
1
 10
0.0000
 20
0.0000
 30
0.0000
 40
0.1016
 41
0.1016
 70
0
  0
VERTEX
  8
21
 10
29.9980
 20
2.0944
 30
0.0000
 42
1.0000
  0
VERTEX
  8
21
 10
30.0301
 20
2.1907
 30
0.0000
  0
SEQEND
  8
0
  0
POLYLINE
  8
21
 66
1
 10
0.0000
 20
0.0000
 30
0.0000
 40
0.2032
 41
0.2032
 70
0
  0
VERTEX
  8
21
 10
33.1140
 20
2.1425
 30
0.0000
 42
0.7208
  0
VERTEX
  8
21
 10
33.1140
 20
11.4426
 30
0.0000
  0
SEQEND
  8
0
  0
POLYLINE
  8
21
 66
1
 10
0.0000
 20
0.0000
 30
0.0000
 40
0.1016
 41
0.1016
 70
0
  0
VERTEX
  8
21
 10
33.0980
 20
2.1907
 30
0.0000
 42
1.0000
  0
VERTEX
  8
21
 10
33.1301
 20
2.0944
 30
0.0000
  0
SEQEND
  8
0
  0
POLYLINE
  8
21
 66
1
 10
0.0000
 20
0.0000
 30
0.0000
 40
0.1016
 41
0.1016
 70
0
  0
VERTEX
  8
21
 10
33.1301
 20
11.4907
 30
0.0000
 42
1.0000
  0
VERTEX
  8
21
 10
33.0980
 20
11.3944
 30
0.0000
  0
SEQEND
  8
0
  0
POLYLINE
  8
21
 66
1
 10
0.0000
 20
0.0000
 30
0.0000
 40
0.1016
 41
0.1016
 70
0
  0
VERTEX
  8
21
 10
29.6190
 20
14.3853
 30
0.0000
  0
VERTEX
  8
21
 10
22.4978
 20
14.3853
 30
0.0000
  0
SEQEND
  8
0
  0
POLYLINE
  8
21
 66
1
 10
0.0000
 20
0.0000
 30
0.0000
 40
0.0508
 41
0.0508
 70
0
  0
VERTEX
  8
21
 10
22.4978
 20
14.4107
 30
0.0000
 42
1.0000
  0
VERTEX
  8
21
 10
22.4978
 20
14.3599
 30
0.0000
  0
SEQEND
  8
0
  0
POLYLINE
  8
21
 66
1
 10
0.0000
 20
0.0000
 30
0.0000
 40
0.0508
 41
0.0508
 70
0
  0
VERTEX
  8
21
 10
29.6190
 20
14.3599
 30
0.0000
 42
1.0000
  0
VERTEX
  8
21
 10
29.6190
 20
14.4107
 30
0.0000
  0
SEQEND
  8
0
  0
POLYLINE
  8
21
 66
1
 10
0.0000
 20
0.0000
 30
0.0000
 40
0.1016
 41
0.1016
 70
0
  0
VERTEX
  8
21
 10
29.6190
 20
20.5953
 30
0.0000
  0
VERTEX
  8
21
 10
22.4978
 20
20.5953
 30
0.0000
  0
SEQEND
  8
0
  0
POLYLINE
  8
21
 66
1
 10
0.0000
 20
0.0000
 30
0.0000
 40
0.0508
 41
0.0508
 70
0
  0
VERTEX
  8
21
 10
22.4978
 20
20.6207
 30
0.0000
 42
1.0000
  0
VERTEX
  8
21
 10
22.4978
 20
20.5699
 30
0.0000
  0
SEQEND
  8
0
  0
POLYLINE
  8
21
 66
1
 10
0.0000
 20
0.0000
 30
0.0000
 40
0.0508
 41
0.0508
 70
0
  0
VERTEX
  8
21
 10
29.6190
 20
20.5699
 30
0.0000
 42
1.0000
  0
VERTEX
  8
21
 10
29.6190
 20
20.6207
 30
0.0000
  0
SEQEND
  8
0
  0
POLYLINE
  8
21
 66
1
 10
0.0000
 20
0.0000
 30
0.0000
 40
0.2032
 41
0.2032
 70
0
  0
VERTEX
  8
21
 10
25.5154
 20
16.4903
 30
0.0000
  0
VERTEX
  8
21
 10
26.8884
 20
17.4903
 30
0.0000
  0
SEQEND
  8
0
  0
POLYLINE
  8
21
 66
1
 10
0.0000
 20
0.0000
 30
0.0000
 40
0.1016
 41
0.1016
 70
0
  0
VERTEX
  8
21
 10
26.9183
 20
17.4493
 30
0.0000
 42
1.0000
  0
VERTEX
  8
21
 10
26.8584
 20
17.5314
 30
0.0000
  0
SEQEND
  8
0
  0
POLYLINE
  8
21
 66
1
 10
0.0000
 20
0.0000
 30
0.0000
 40
0.1016
 41
0.1016
 70
0
  0
VERTEX
  8
21
 10
25.4854
 20
16.5314
 30
0.0000
 42
1.0000
  0
VERTEX
  8
21
 10
25.5453
 20
16.4493
 30
0.0000
  0
SEQEND
  8
0
  0
POLYLINE
  8
21
 66
1
 10
0.0000
 20
0.0000
 30
0.0000
 40
0.2032
 41
0.2032
 70
0
  0
VERTEX
  8
21
 10
26.8884
 20
17.4903
 30
0.0000
  0
VERTEX
  8
21
 10
25.5154
 20
18.4903
 30
0.0000
  0
SEQEND
  8
0
  0
POLYLINE
  8
21
 66
1
 10
0.0000
 20
0.0000
 30
0.0000
 40
0.1016
 41
0.1016
 70
0
  0
VERTEX
  8
21
 10
25.5453
 20
18.5314
 30
0.0000
 42
1.0000
  0
VERTEX
  8
21
 10
25.4854
 20
18.4493
 30
0.0000
  0
SEQEND
  8
0
  0
POLYLINE
  8
21
 66
1
 10
0.0000
 20
0.0000
 30
0.0000
 40
0.1016
 41
0.1016
 70
0
  0
VERTEX
  8
21
 10
26.8584
 20
17.4493
 30
0.0000
 42
1.0000
  0
VERTEX
  8
21
 10
26.9183
 20
17.5314
 30
0.0000
  0
SEQEND
  8
0
  0
POLYLINE
  8
21
 66
1
 10
0.0000
 20
0.0000
 30
0.0000
 40
0.2032
 41
0.2032
 70
0
  0
VERTEX
  8
21
 10
25.5154
 20
18.4903
 30
0.0000
  0
VERTEX
  8
21
 10
25.5154
 20
16.4903
 30
0.0000
  0
SEQEND
  8
0
  0
POLYLINE
  8
21
 66
1
 10
0.0000
 20
0.0000
 30
0.0000
 40
0.1016
 41
0.1016
 70
0
  0
VERTEX
  8
21
 10
25.4646
 20
16.4903
 30
0.0000
 42
1.0000
  0
VERTEX
  8
21
 10
25.5662
 20
16.4903
 30
0.0000
  0
SEQEND
  8
0
  0
POLYLINE
  8
21
 66
1
 10
0.0000
 20
0.0000
 30
0.0000
 40
0.1016
 41
0.1016
 70
0
  0
VERTEX
  8
21
 10
25.5662
 20
18.4903
 30
0.0000
 42
1.0000
  0
VERTEX
  8
21
 10
25.4646
 20
18.4903
 30
0.0000
  0
SEQEND
  8
0
  0
INSERT
  8
21
  2
RECT
 10
27.5334
 20
17.4903
 30
0.0000
 41
1.2500
 42
6.2000
 43
1.0000
 50
180.0000
  0
POLYLINE
  8
21
 66
1
 10
0.0000
 20
0.0000
 30
0.0000
 40
0.1270
 41
0.1270
 70
0
  0
VERTEX
  8
21
 10
57.9532
 20
41.1836
 30
0.0000
  0
VERTEX
  8
21
 10
57.7052
 20
41.1836
 30
0.0000
  0
SEQEND
  8
0
  0
POLYLINE
  8
21
 66
1
 10
0.0000
 20
0.0000
 30
0.0000
 40
0.0635
 41
0.0635
 70
0
  0
VERTEX
  8
21
 10
57.7052
 20
41.2154
 30
0.0000
 42
1.0000
  0
VERTEX
  8
21
 10
57.7052
 20
41.1518
 30
0.0000
  0
SEQEND
  8
0
  0
POLYLINE
  8
21
 66
1
 10
0.0000
 20
0.0000
 30
0.0000
 40
0.0635
 41
0.0635
 70
0
  0
VERTEX
  8
21
 10
57.9532
 20
41.1518
 30
0.0000
 42
1.0000
  0
VERTEX
  8
21
 10
57.9532
 20
41.2154
 30
0.0000
  0
SEQEND
  8
0
  0
POLYLINE
  8
21
 66
1
 10
0.0000
 20
0.0000
 30
0.0000
 40
0.1270
 41
0.1270
 70
0
  0
VERTEX
  8
21
 10
57.7052
 20
41.1836
 30
0.0000
  0
VERTEX
  8
21
 10
54.9592
 20
41.1836
 30
0.0000
  0
SEQEND
  8
0
  0
POLYLINE
  8
21
 66
1
 10
0.0000
 20
0.0000
 30
0.0000
 40
0.0635
 41
0.0635
 70
0
  0
VERTEX
  8
21
 10
54.9592
 20
41.2154
 30
0.0000
 42
1.0000
  0
VERTEX
  8
21
 10
54.9592
 20
41.1518
 30
0.0000
  0
SEQEND
  8
0
  0
POLYLINE
  8
21
 66
1
 10
0.0000
 20
0.0000
 30
0.0000
 40
0.0635
 41
0.0635
 70
0
  0
VERTEX
  8
21
 10
57.7052
 20
41.1518
 30
0.0000
 42
1.0000
  0
VERTEX
  8
21
 10
57.7052
 20
41.2154
 30
0.0000
  0
SEQEND
  8
0
  0
POLYLINE
  8
21
 66
1
 10
0.0000
 20
0.0000
 30
0.0000
 40
0.1270
 41
0.1270
 70
0
  0
VERTEX
  8
21
 10
54.9592
 20
41.1836
 30
0.0000
  0
VERTEX
  8
21
 10
54.9592
 20
48.7886
 30
0.0000
  0
SEQEND
  8
0
  0
POLYLINE
  8
21
 66
1
 10
0.0000
 20
0.0000
 30
0.0000
 40
0.0635
 41
0.0635
 70
0
  0
VERTEX
  8
21
 10
54.9909
 20
48.7886
 30
0.0000
 42
1.0000
  0
VERTEX
  8
21
 10
54.9274
 20
48.7886
 30
0.0000
  0
SEQEND
  8
0
  0
POLYLINE
  8
21
 66
1
 10
0.0000
 20
0.0000
 30
0.0000
 40
0.0635
 41
0.0635
 70
0
  0
VERTEX
  8
21
 10
54.9274
 20
41.1836
 30
0.0000
 42
1.0000
  0
VERTEX
  8
21
 10
54.9909
 20
41.1836
 30
0.0000
  0
SEQEND
  8
0
  0
POLYLINE
  8
21
 66
1
 10
0.0000
 20
0.0000
 30
0.0000
 40
0.1270
 41
0.1270
 70
0
  0
VERTEX
  8
21
 10
54.9592
 20
48.7886
 30
0.0000
  0
VERTEX
  8
21
 10
55.1652
 20
48.7886
 30
0.0000
  0
SEQEND
  8
0
  0
POLYLINE
  8
21
 66
1
 10
0.0000
 20
0.0000
 30
0.0000
 40
0.0635
 41
0.0635
 70
0
  0
VERTEX
  8
21
 10
55.1652
 20
48.7569
 30
0.0000
 42
1.0000
  0
VERTEX
  8
21
 10
55.1652
 20
48.8204
 30
0.0000
  0
SEQEND
  8
0
  0
POLYLINE
  8
21
 66
1
 10
0.0000
 20
0.0000
 30
0.0000
 40
0.0635
 41
0.0635
 70
0
  0
VERTEX
  8
21
 10
54.9592
 20
48.8204
 30
0.0000
 42
1.0000
  0
VERTEX
  8
21
 10
54.9592
 20
48.7569
 30
0.0000
  0
SEQEND
  8
0
  0
POLYLINE
  8
21
 66
1
 10
0.0000
 20
0.0000
 30
0.0000
 40
0.1270
 41
0.1270
 70
0
  0
VERTEX
  8
21
 10
55.1652
 20
48.7886
 30
0.0000
  0
VERTEX
  8
21
 10
55.2227
 20
48.7886
 30
0.0000
  0
SEQEND
  8
0
  0
POLYLINE
  8
21
 66
1
 10
0.0000
 20
0.0000
 30
0.0000
 40
0.0635
 41
0.0635
 70
0
  0
VERTEX
  8
21
 10
55.2227
 20
48.7569
 30
0.0000
 42
1.0000
  0
VERTEX
  8
21
 10
55.2227
 20
48.8204
 30
0.0000
  0
SEQEND
  8
0
  0
POLYLINE
  8
21
 66
1
 10
0.0000
 20
0.0000
 30
0.0000
 40
0.0635
 41
0.0635
 70
0
  0
VERTEX
  8
21
 10
55.1652
 20
48.8204
 30
0.0000
 42
1.0000
  0
VERTEX
  8
21
 10
55.1652
 20
48.7569
 30
0.0000
  0
SEQEND
  8
0
  0
POLYLINE
  8
21
 66
1
 10
0.0000
 20
0.0000
 30
0.0000
 40
0.1270
 41
0.1270
 70
0
  0
VERTEX
  8
21
 10
55.1652
 20
48.7886
 30
0.0000
  0
VERTEX
  8
21
 10
58.1592
 20
48.7886
 30
0.0000
  0
SEQEND
  8
0
  0
POLYLINE
  8
21
 66
1
 10
0.0000
 20
0.0000
 30
0.0000
 40
0.0635
 41
0.0635
 70
0
  0
VERTEX
  8
21
 10
58.1592
 20
48.7569
 30
0.0000
 42
1.0000
  0
VERTEX
  8
21
 10
58.1592
 20
48.8204
 30
0.0000
  0
SEQEND
  8
0
  0
POLYLINE
  8
21
 66
1
 10
0.0000
 20
0.0000
 30
0.0000
 40
0.0635
 41
0.0635
 70
0
  0
VERTEX
  8
21
 10
55.1652
 20
48.8204
 30
0.0000
 42
1.0000
  0
VERTEX
  8
21
 10
55.1652
 20
48.7569
 30
0.0000
  0
SEQEND
  8
0
  0
POLYLINE
  8
21
 66
1
 10
0.0000
 20
0.0000
 30
0.0000
 40
0.1270
 41
0.1270
 70
0
  0
VERTEX
  8
21
 10
58.1592
 20
48.7886
 30
0.0000
  0
VERTEX
  8
21
 10
58.1592
 20
41.1836
 30
0.0000
  0
SEQEND
  8
0
  0
POLYLINE
  8
21
 66
1
 10
0.0000
 20
0.0000
 30
0.0000
 40
0.0635
 41
0.0635
 70
0
  0
VERTEX
  8
21
 10
58.1274
 20
41.1836
 30
0.0000
 42
1.0000
  0
VERTEX
  8
21
 10
58.1909
 20
41.1836
 30
0.0000
  0
SEQEND
  8
0
  0
POLYLINE
  8
21
 66
1
 10
0.0000
 20
0.0000
 30
0.0000
 40
0.0635
 41
0.0635
 70
0
  0
VERTEX
  8
21
 10
58.1909
 20
48.7886
 30
0.0000
 42
1.0000
  0
VERTEX
  8
21
 10
58.1274
 20
48.7886
 30
0.0000
  0
SEQEND
  8
0
  0
POLYLINE
  8
21
 66
1
 10
0.0000
 20
0.0000
 30
0.0000
 40
0.1270
 41
0.1270
 70
0
  0
VERTEX
  8
21
 10
58.1592
 20
41.1836
 30
0.0000
  0
VERTEX
  8
21
 10
57.7052
 20
41.1836
 30
0.0000
  0
SEQEND
  8
0
  0
POLYLINE
  8
21
 66
1
 10
0.0000
 20
0.0000
 30
0.0000
 40
0.0635
 41
0.0635
 70
0
  0
VERTEX
  8
21
 10
57.7052
 20
41.2154
 30
0.0000
 42
1.0000
  0
VERTEX
  8
21
 10
57.7052
 20
41.1518
 30
0.0000
  0
SEQEND
  8
0
  0
POLYLINE
  8
21
 66
1
 10
0.0000
 20
0.0000
 30
0.0000
 40
0.0635
 41
0.0635
 70
0
  0
VERTEX
  8
21
 10
58.1592
 20
41.1518
 30
0.0000
 42
1.0000
  0
VERTEX
  8
21
 10
58.1592
 20
41.2154
 30
0.0000
  0
SEQEND
  8
0
  0
POLYLINE
  8
21
 66
1
 10
0.0000
 20
0.0000
 30
0.0000
 40
0.1270
 41
0.1270
 70
0
  0
VERTEX
  8
21
 10
57.0037
 20
44.6551
 30
0.0000
  0
VERTEX
  8
21
 10
56.1147
 20
44.6551
 30
0.0000
  0
SEQEND
  8
0
  0
POLYLINE
  8
21
 66
1
 10
0.0000
 20
0.0000
 30
0.0000
 40
0.0635
 41
0.0635
 70
0
  0
VERTEX
  8
21
 10
56.1147
 20
44.6869
 30
0.0000
 42
1.0000
  0
VERTEX
  8
21
 10
56.1147
 20
44.6234
 30
0.0000
  0
SEQEND
  8
0
  0
POLYLINE
  8
21
 66
1
 10
0.0000
 20
0.0000
 30
0.0000
 40
0.0635
 41
0.0635
 70
0
  0
VERTEX
  8
21
 10
57.0037
 20
44.6234
 30
0.0000
 42
1.0000
  0
VERTEX
  8
21
 10
57.0037
 20
44.6869
 30
0.0000
  0
SEQEND
  8
0
  0
POLYLINE
  8
21
 66
1
 10
0.0000
 20
0.0000
 30
0.0000
 40
0.1270
 41
0.1270
 70
0
  0
VERTEX
  8
21
 10
56.1147
 20
44.6551
 30
0.0000
  0
VERTEX
  8
21
 10
56.5592
 20
44.2741
 30
0.0000
  0
SEQEND
  8
0
  0
POLYLINE
  8
21
 66
1
 10
0.0000
 20
0.0000
 30
0.0000
 40
0.0635
 41
0.0635
 70
0
  0
VERTEX
  8
21
 10
56.5385
 20
44.2500
 30
0.0000
 42
1.0000
  0
VERTEX
  8
21
 10
56.5798
 20
44.2982
 30
0.0000
  0
SEQEND
  8
0
  0
POLYLINE
  8
21
 66
1
 10
0.0000
 20
0.0000
 30
0.0000
 40
0.0635
 41
0.0635
 70
0
  0
VERTEX
  8
21
 10
56.1353
 20
44.6792
 30
0.0000
 42
1.0000
  0
VERTEX
  8
21
 10
56.0940
 20
44.6310
 30
0.0000
  0
SEQEND
  8
0
  0
POLYLINE
  8
21
 66
1
 10
0.0000
 20
0.0000
 30
0.0000
 40
0.1270
 41
0.1270
 70
0
  0
VERTEX
  8
21
 10
56.5592
 20
44.2741
 30
0.0000
  0
VERTEX
  8
21
 10
57.0037
 20
44.6551
 30
0.0000
  0
SEQEND
  8
0
  0
POLYLINE
  8
21
 66
1
 10
0.0000
 20
0.0000
 30
0.0000
 40
0.0635
 41
0.0635
 70
0
  0
VERTEX
  8
21
 10
57.0243
 20
44.6310
 30
0.0000
 42
1.0000
  0
VERTEX
  8
21
 10
56.9830
 20
44.6792
 30
0.0000
  0
SEQEND
  8
0
  0
POLYLINE
  8
21
 66
1
 10
0.0000
 20
0.0000
 30
0.0000
 40
0.0635
 41
0.0635
 70
0
  0
VERTEX
  8
21
 10
56.5385
 20
44.2982
 30
0.0000
 42
1.0000
  0
VERTEX
  8
21
 10
56.5798
 20
44.2500
 30
0.0000
  0
SEQEND
  8
0
  0
POLYLINE
  8
21
 66
1
 10
0.0000
 20
0.0000
 30
0.0000
 40
0.1270
 41
0.1270
 70
0
  0
VERTEX
  8
21
 10
57.0037
 20
44.2741
 30
0.0000
  0
VERTEX
  8
21
 10
56.1147
 20
44.2741
 30
0.0000
  0
SEQEND
  8
0
  0
POLYLINE
  8
21
 66
1
 10
0.0000
 20
0.0000
 30
0.0000
 40
0.0635
 41
0.0635
 70
0
  0
VERTEX
  8
21
 10
56.1147
 20
44.3059
 30
0.0000
 42
1.0000
  0
VERTEX
  8
21
 10
56.1147
 20
44.2424
 30
0.0000
  0
SEQEND
  8
0
  0
POLYLINE
  8
21
 66
1
 10
0.0000
 20
0.0000
 30
0.0000
 40
0.0635
 41
0.0635
 70
0
  0
VERTEX
  8
21
 10
57.0037
 20
44.2424
 30
0.0000
 42
1.0000
  0
VERTEX
  8
21
 10
57.0037
 20
44.3059
 30
0.0000
  0
SEQEND
  8
0
  0
POLYLINE
  8
21
 66
1
 10
0.0000
 20
0.0000
 30
0.0000
 40
0.2032
 41
0.2032
 70
0
  0
VERTEX
  8
21
 10
21.9058
 20
31.8099
 30
0.0000
  0
VERTEX
  8
21
 10
16.5941
 20
21.3851
 30
0.0000
  0
SEQEND
  8
0
  0
POLYLINE
  8
21
 66
1
 10
0.0000
 20
0.0000
 30
0.0000
 40
0.1016
 41
0.1016
 70
0
  0
VERTEX
  8
21
 10
16.5488
 20
21.4082
 30
0.0000
 42
1.0000
  0
VERTEX
  8
21
 10
16.6393
 20
21.3620
 30
0.0000
  0
SEQEND
  8
0
  0
POLYLINE
  8
21
 66
1
 10
0.0000
 20
0.0000
 30
0.0000
 40
0.1016
 41
0.1016
 70
0
  0
VERTEX
  8
21
 10
21.9510
 20
31.7868
 30
0.0000
 42
1.0000
  0
VERTEX
  8
21
 10
21.8605
 20
31.8329
 30
0.0000
  0
SEQEND
  8
0
  0
POLYLINE
  8
21
 66
1
 10
0.0000
 20
0.0000
 30
0.0000
 40
0.2032
 41
0.2032
 70
0
  0
VERTEX
  8
21
 10
16.5941
 20
21.3851
 30
0.0000
  0
VERTEX
  8
21
 10
17.9306
 20
20.7041
 30
0.0000
  0
SEQEND
  8
0
  0
POLYLINE
  8
21
 66
1
 10
0.0000
 20
0.0000
 30
0.0000
 40
0.1016
 41
0.1016
 70
0
  0
VERTEX
  8
21
 10
17.9075
 20
20.6588
 30
0.0000
 42
1.0000
  0
VERTEX
  8
21
 10
17.9536
 20
20.7494
 30
0.0000
  0
SEQEND
  8
0
  0
POLYLINE
  8
21
 66
1
 10
0.0000
 20
0.0000
 30
0.0000
 40
0.1016
 41
0.1016
 70
0
  0
VERTEX
  8
21
 10
16.6171
 20
21.4304
 30
0.0000
 42
1.0000
  0
VERTEX
  8
21
 10
16.5710
 20
21.3398
 30
0.0000
  0
SEQEND
  8
0
  0
POLYLINE
  8
21
 66
1
 10
0.0000
 20
0.0000
 30
0.0000
 40
0.2032
 41
0.2032
 70
0
  0
VERTEX
  8
21
 10
18.6434
 20
20.3409
 30
0.0000
  0
VERTEX
  8
21
 10
19.9799
 20
19.6599
 30
0.0000
  0
SEQEND
  8
0
  0
POLYLINE
  8
21
 66
1
 10
0.0000
 20
0.0000
 30
0.0000
 40
0.1016
 41
0.1016
 70
0
  0
VERTEX
  8
21
 10
19.9568
 20
19.6147
 30
0.0000
 42
1.0000
  0
VERTEX
  8
21
 10
20.0030
 20
19.7052
 30
0.0000
  0
SEQEND
  8
0
  0
POLYLINE
  8
21
 66
1
 10
0.0000
 20
0.0000
 30
0.0000
 40
0.1016
 41
0.1016
 70
0
  0
VERTEX
  8
21
 10
18.6665
 20
20.3862
 30
0.0000
 42
1.0000
  0
VERTEX
  8
21
 10
18.6203
 20
20.2957
 30
0.0000
  0
SEQEND
  8
0
  0
POLYLINE
  8
21
 66
1
 10
0.0000
 20
0.0000
 30
0.0000
 40
0.2032
 41
0.2032
 70
0
  0
VERTEX
  8
21
 10
19.9799
 20
19.6599
 30
0.0000
  0
VERTEX
  8
21
 10
25.2916
 20
30.0847
 30
0.0000
  0
SEQEND
  8
0
  0
POLYLINE
  8
21
 66
1
 10
0.0000
 20
0.0000
 30
0.0000
 40
0.1016
 41
0.1016
 70
0
  0
VERTEX
  8
21
 10
25.3369
 20
30.0616
 30
0.0000
 42
1.0000
  0
VERTEX
  8
21
 10
25.2463
 20
30.1078
 30
0.0000
  0
SEQEND
  8
0
  0
POLYLINE
  8
21
 66
1
 10
0.0000
 20
0.0000
 30
0.0000
 40
0.1016
 41
0.1016
 70
0
  0
VERTEX
  8
21
 10
19.9346
 20
19.6830
 30
0.0000
 42
1.0000
  0
VERTEX
  8
21
 10
20.0252
 20
19.6369
 30
0.0000
  0
SEQEND
  8
0
  0
POLYLINE
  8
21
 66
1
 10
0.0000
 20
0.0000
 30
0.0000
 40
0.2032
 41
0.2032
 70
0
  0
VERTEX
  8
21
 10
25.2916
 20
30.0847
 30
0.0000
  0
VERTEX
  8
21
 10
23.9551
 20
30.7657
 30
0.0000
  0
SEQEND
  8
0
  0
POLYLINE
  8
21
 66
1
 10
0.0000
 20
0.0000
 30
0.0000
 40
0.1016
 41
0.1016
 70
0
  0
VERTEX
  8
21
 10
23.9781
 20
30.8110
 30
0.0000
 42
1.0000
  0
VERTEX
  8
21
 10
23.9320
 20
30.7204
 30
0.0000
  0
SEQEND
  8
0
  0
POLYLINE
  8
21
 66
1
 10
0.0000
 20
0.0000
 30
0.0000
 40
0.1016
 41
0.1016
 70
0
  0
VERTEX
  8
21
 10
25.2685
 20
30.0394
 30
0.0000
 42
1.0000
  0
VERTEX
  8
21
 10
25.3147
 20
30.1300
 30
0.0000
  0
SEQEND
  8
0
  0
POLYLINE
  8
21
 66
1
 10
0.0000
 20
0.0000
 30
0.0000
 40
0.2032
 41
0.2032
 70
0
  0
VERTEX
  8
21
 10
23.2423
 20
31.1289
 30
0.0000
  0
VERTEX
  8
21
 10
21.9058
 20
31.8099
 30
0.0000
  0
SEQEND
  8
0
  0
POLYLINE
  8
21
 66
1
 10
0.0000
 20
0.0000
 30
0.0000
 40
0.1016
 41
0.1016
 70
0
  0
VERTEX
  8
21
 10
21.9288
 20
31.8551
 30
0.0000
 42
1.0000
  0
VERTEX
  8
21
 10
21.8827
 20
31.7646
 30
0.0000
  0
SEQEND
  8
0
  0
POLYLINE
  8
21
 66
1
 10
0.0000
 20
0.0000
 30
0.0000
 40
0.1016
 41
0.1016
 70
0
  0
VERTEX
  8
21
 10
23.2192
 20
31.0836
 30
0.0000
 42
1.0000
  0
VERTEX
  8
21
 10
23.2653
 20
31.1742
 30
0.0000
  0
SEQEND
  8
0
  0
POLYLINE
  8
21
 66
1
 10
0.0000
 20
0.0000
 30
0.0000
 40
0.2032
 41
0.2032
 70
0
  0
VERTEX
  8
21
 10
23.2423
 20
31.1289
 30
0.0000
 42
0.6321
  0
VERTEX
  8
21
 10
23.9551
 20
30.7657
 30
0.0000
  0
SEQEND
  8
0
  0
POLYLINE
  8
21
 66
1
 10
0.0000
 20
0.0000
 30
0.0000
 40
0.1016
 41
0.1016
 70
0
  0
VERTEX
  8
21
 10
23.2931
 20
31.1275
 30
0.0000
 42
1.0000
  0
VERTEX
  8
21
 10
23.1915
 20
31.1303
 30
0.0000
  0
SEQEND
  8
0
  0
POLYLINE
  8
21
 66
1
 10
0.0000
 20
0.0000
 30
0.0000
 40
0.1016
 41
0.1016
 70
0
  0
VERTEX
  8
21
 10
23.9861
 20
30.7254
 30
0.0000
 42
1.0000
  0
VERTEX
  8
21
 10
23.9241
 20
30.8059
 30
0.0000
  0
SEQEND
  8
0
  0
POLYLINE
  8
21
 66
1
 10
0.0000
 20
0.0000
 30
0.0000
 40
0.2032
 41
0.2032
 70
0
  0
VERTEX
  8
21
 10
18.6434
 20
20.3409
 30
0.0000
 42
0.6321
  0
VERTEX
  8
21
 10
17.9306
 20
20.7041
 30
0.0000
  0
SEQEND
  8
0
  0
POLYLINE
  8
21
 66
1
 10
0.0000
 20
0.0000
 30
0.0000
 40
0.1016
 41
0.1016
 70
0
  0
VERTEX
  8
21
 10
18.5926
 20
20.3423
 30
0.0000
 42
1.0000
  0
VERTEX
  8
21
 10
18.6942
 20
20.3395
 30
0.0000
  0
SEQEND
  8
0
  0
POLYLINE
  8
21
 66
1
 10
0.0000
 20
0.0000
 30
0.0000
 40
0.1016
 41
0.1016
 70
0
  0
VERTEX
  8
21
 10
17.8996
 20
20.7444
 30
0.0000
 42
1.0000
  0
VERTEX
  8
21
 10
17.9616
 20
20.6639
 30
0.0000
  0
SEQEND
  8
0
  0
POLYLINE
  8
21
 66
1
 10
0.0000
 20
0.0000
 30
0.0000
 40
0.0254
 41
0.0254
 70
0
  0
VERTEX
  8
21
 10
21.9211
 20
31.2769
 30
0.0000
  0
VERTEX
  8
21
 10
21.8804
 20
31.4022
 30
0.0000
  0
SEQEND
  8
0
  0
POLYLINE
  8
21
 66
1
 10
0.0000
 20
0.0000
 30
0.0000
 40
0.0127
 41
0.0127
 70
0
  0
VERTEX
  8
21
 10
21.8864
 20
31.4042
 30
0.0000
 42
1.0000
  0
VERTEX
  8
21
 10
21.8743
 20
31.4003
 30
0.0000
  0
SEQEND
  8
0
  0
POLYLINE
  8
21
 66
1
 10
0.0000
 20
0.0000
 30
0.0000
 40
0.0127
 41
0.0127
 70
0
  0
VERTEX
  8
21
 10
21.9151
 20
31.2749
 30
0.0000
 42
1.0000
  0
VERTEX
  8
21
 10
21.9272
 20
31.2788
 30
0.0000
  0
SEQEND
  8
0
  0
POLYLINE
  8
21
 66
1
 10
0.0000
 20
0.0000
 30
0.0000
 40
0.0254
 41
0.0254
 70
0
  0
VERTEX
  8
21
 10
21.8804
 20
31.4022
 30
0.0000
  0
VERTEX
  8
21
 10
22.1295
 20
31.2753
 30
0.0000
  0
SEQEND
  8
0
  0
POLYLINE
  8
21
 66
1
 10
0.0000
 20
0.0000
 30
0.0000
 40
0.0127
 41
0.0127
 70
0
  0
VERTEX
  8
21
 10
22.1267
 20
31.2696
 30
0.0000
 42
1.0000
  0
VERTEX
  8
21
 10
22.1324
 20
31.2809
 30
0.0000
  0
SEQEND
  8
0
  0
POLYLINE
  8
21
 66
1
 10
0.0000
 20
0.0000
 30
0.0000
 40
0.0127
 41
0.0127
 70
0
  0
VERTEX
  8
21
 10
21.8833
 20
31.4079
 30
0.0000
 42
1.0000
  0
VERTEX
  8
21
 10
21.8775
 20
31.3966
 30
0.0000
  0
SEQEND
  8
0
  0
POLYLINE
  8
21
 66
1
 10
0.0000
 20
0.0000
 30
0.0000
 40
0.0254
 41
0.0254
 70
0
  0
VERTEX
  8
21
 10
22.0872
 20
31.1922
 30
0.0000
  0
VERTEX
  8
21
 10
22.1719
 20
31.3583
 30
0.0000
  0
SEQEND
  8
0
  0
POLYLINE
  8
21
 66
1
 10
0.0000
 20
0.0000
 30
0.0000
 40
0.0127
 41
0.0127
 70
0
  0
VERTEX
  8
21
 10
22.1775
 20
31.3554
 30
0.0000
 42
1.0000
  0
VERTEX
  8
21
 10
22.1662
 20
31.3612
 30
0.0000
  0
SEQEND
  8
0
  0
POLYLINE
  8
21
 66
1
 10
0.0000
 20
0.0000
 30
0.0000
 40
0.0127
 41
0.0127
 70
0
  0
VERTEX
  8
21
 10
22.0816
 20
31.1951
 30
0.0000
 42
1.0000
  0
VERTEX
  8
21
 10
22.0929
 20
31.1893
 30
0.0000
  0
SEQEND
  8
0
  0
POLYLINE
  8
21
 66
1
 10
0.0000
 20
0.0000
 30
0.0000
 40
0.2032
 41
0.2032
 70
0
  0
VERTEX
  8
21
 10
67.7912
 20
35.7073
 30
0.0000
  0
VERTEX
  8
21
 10
62.4795
 20
25.2825
 30
0.0000
  0
SEQEND
  8
0
  0
POLYLINE
  8
21
 66
1
 10
0.0000
 20
0.0000
 30
0.0000
 40
0.1016
 41
0.1016
 70
0
  0
VERTEX
  8
21
 10
62.4343
 20
25.3056
 30
0.0000
 42
1.0000
  0
VERTEX
  8
21
 10
62.5248
 20
25.2595
 30
0.0000
  0
SEQEND
  8
0
  0
POLYLINE
  8
21
 66
1
 10
0.0000
 20
0.0000
 30
0.0000
 40
0.1016
 41
0.1016
 70
0
  0
VERTEX
  8
21
 10
67.8365
 20
35.6842
 30
0.0000
 42
1.0000
  0
VERTEX
  8
21
 10
67.7460
 20
35.7304
 30
0.0000
  0
SEQEND
  8
0
  0
POLYLINE
  8
21
 66
1
 10
0.0000
 20
0.0000
 30
0.0000
 40
0.2032
 41
0.2032
 70
0
  0
VERTEX
  8
21
 10
62.4795
 20
25.2825
 30
0.0000
  0
VERTEX
  8
21
 10
63.8160
 20
24.6015
 30
0.0000
  0
SEQEND
  8
0
  0
POLYLINE
  8
21
 66
1
 10
0.0000
 20
0.0000
 30
0.0000
 40
0.1016
 41
0.1016
 70
0
  0
VERTEX
  8
21
 10
63.7930
 20
24.5563
 30
0.0000
 42
1.0000
  0
VERTEX
  8
21
 10
63.8391
 20
24.6468
 30
0.0000
  0
SEQEND
  8
0
  0
POLYLINE
  8
21
 66
1
 10
0.0000
 20
0.0000
 30
0.0000
 40
0.1016
 41
0.1016
 70
0
  0
VERTEX
  8
21
 10
62.5026
 20
25.3278
 30
0.0000
 42
1.0000
  0
VERTEX
  8
21
 10
62.4565
 20
25.2373
 30
0.0000
  0
SEQEND
  8
0
  0
POLYLINE
  8
21
 66
1
 10
0.0000
 20
0.0000
 30
0.0000
 40
0.2032
 41
0.2032
 70
0
  0
VERTEX
  8
21
 10
64.5288
 20
24.2384
 30
0.0000
  0
VERTEX
  8
21
 10
65.8654
 20
23.5574
 30
0.0000
  0
SEQEND
  8
0
  0
POLYLINE
  8
21
 66
1
 10
0.0000
 20
0.0000
 30
0.0000
 40
0.1016
 41
0.1016
 70
0
  0
VERTEX
  8
21
 10
65.8423
 20
23.5121
 30
0.0000
 42
1.0000
  0
VERTEX
  8
21
 10
65.8884
 20
23.6026
 30
0.0000
  0
SEQEND
  8
0
  0
POLYLINE
  8
21
 66
1
 10
0.0000
 20
0.0000
 30
0.0000
 40
0.1016
 41
0.1016
 70
0
  0
VERTEX
  8
21
 10
64.5519
 20
24.2836
 30
0.0000
 42
1.0000
  0
VERTEX
  8
21
 10
64.5058
 20
24.1931
 30
0.0000
  0
SEQEND
  8
0
  0
POLYLINE
  8
21
 66
1
 10
0.0000
 20
0.0000
 30
0.0000
 40
0.2032
 41
0.2032
 70
0
  0
VERTEX
  8
21
 10
65.8654
 20
23.5574
 30
0.0000
  0
VERTEX
  8
21
 10
71.1770
 20
33.9821
 30
0.0000
  0
SEQEND
  8
0
  0
POLYLINE
  8
21
 66
1
 10
0.0000
 20
0.0000
 30
0.0000
 40
0.1016
 41
0.1016
 70
0
  0
VERTEX
  8
21
 10
71.2223
 20
33.9591
 30
0.0000
 42
1.0000
  0
VERTEX
  8
21
 10
71.1318
 20
34.0052
 30
0.0000
  0
SEQEND
  8
0
  0
POLYLINE
  8
21
 66
1
 10
0.0000
 20
0.0000
 30
0.0000
 40
0.1016
 41
0.1016
 70
0
  0
VERTEX
  8
21
 10
65.8201
 20
23.5804
 30
0.0000
 42
1.0000
  0
VERTEX
  8
21
 10
65.9106
 20
23.5343
 30
0.0000
  0
SEQEND
  8
0
  0
POLYLINE
  8
21
 66
1
 10
0.0000
 20
0.0000
 30
0.0000
 40
0.2032
 41
0.2032
 70
0
  0
VERTEX
  8
21
 10
71.1770
 20
33.9821
 30
0.0000
  0
VERTEX
  8
21
 10
69.8405
 20
34.6631
 30
0.0000
  0
SEQEND
  8
0
  0
POLYLINE
  8
21
 66
1
 10
0.0000
 20
0.0000
 30
0.0000
 40
0.1016
 41
0.1016
 70
0
  0
VERTEX
  8
21
 10
69.8636
 20
34.7084
 30
0.0000
 42
1.0000
  0
VERTEX
  8
21
 10
69.8175
 20
34.6179
 30
0.0000
  0
SEQEND
  8
0
  0
POLYLINE
  8
21
 66
1
 10
0.0000
 20
0.0000
 30
0.0000
 40
0.1016
 41
0.1016
 70
0
  0
VERTEX
  8
21
 10
71.1540
 20
33.9369
 30
0.0000
 42
1.0000
  0
VERTEX
  8
21
 10
71.2001
 20
34.0274
 30
0.0000
  0
SEQEND
  8
0
  0
POLYLINE
  8
21
 66
1
 10
0.0000
 20
0.0000
 30
0.0000
 40
0.2032
 41
0.2032
 70
0
  0
VERTEX
  8
21
 10
69.1277
 20
35.0263
 30
0.0000
  0
VERTEX
  8
21
 10
67.7912
 20
35.7073
 30
0.0000
  0
SEQEND
  8
0
  0
POLYLINE
  8
21
 66
1
 10
0.0000
 20
0.0000
 30
0.0000
 40
0.1016
 41
0.1016
 70
0
  0
VERTEX
  8
21
 10
67.8143
 20
35.7526
 30
0.0000
 42
1.0000
  0
VERTEX
  8
21
 10
67.7682
 20
35.6620
 30
0.0000
  0
SEQEND
  8
0
  0
POLYLINE
  8
21
 66
1
 10
0.0000
 20
0.0000
 30
0.0000
 40
0.1016
 41
0.1016
 70
0
  0
VERTEX
  8
21
 10
69.1047
 20
34.9811
 30
0.0000
 42
1.0000
  0
VERTEX
  8
21
 10
69.1508
 20
35.0716
 30
0.0000
  0
SEQEND
  8
0
  0
POLYLINE
  8
21
 66
1
 10
0.0000
 20
0.0000
 30
0.0000
 40
0.2032
 41
0.2032
 70
0
  0
VERTEX
  8
21
 10
69.1277
 20
35.0263
 30
0.0000
 42
0.6321
  0
VERTEX
  8
21
 10
69.8405
 20
34.6631
 30
0.0000
  0
SEQEND
  8
0
  0
POLYLINE
  8
21
 66
1
 10
0.0000
 20
0.0000
 30
0.0000
 40
0.1016
 41
0.1016
 70
0
  0
VERTEX
  8
21
 10
69.1785
 20
35.0249
 30
0.0000
 42
1.0000
  0
VERTEX
  8
21
 10
69.0770
 20
35.0277
 30
0.0000
  0
SEQEND
  8
0
  0
POLYLINE
  8
21
 66
1
 10
0.0000
 20
0.0000
 30
0.0000
 40
0.1016
 41
0.1016
 70
0
  0
VERTEX
  8
21
 10
69.8715
 20
34.6229
 30
0.0000
 42
1.0000
  0
VERTEX
  8
21
 10
69.8095
 20
34.7034
 30
0.0000
  0
SEQEND
  8
0
  0
POLYLINE
  8
21
 66
1
 10
0.0000
 20
0.0000
 30
0.0000
 40
0.2032
 41
0.2032
 70
0
  0
VERTEX
  8
21
 10
64.5288
 20
24.2384
 30
0.0000
 42
0.6321
  0
VERTEX
  8
21
 10
63.8160
 20
24.6015
 30
0.0000
  0
SEQEND
  8
0
  0
POLYLINE
  8
21
 66
1
 10
0.0000
 20
0.0000
 30
0.0000
 40
0.1016
 41
0.1016
 70
0
  0
VERTEX
  8
21
 10
64.4781
 20
24.2398
 30
0.0000
 42
1.0000
  0
VERTEX
  8
21
 10
64.5796
 20
24.2369
 30
0.0000
  0
SEQEND
  8
0
  0
POLYLINE
  8
21
 66
1
 10
0.0000
 20
0.0000
 30
0.0000
 40
0.1016
 41
0.1016
 70
0
  0
VERTEX
  8
21
 10
63.7851
 20
24.6418
 30
0.0000
 42
1.0000
  0
VERTEX
  8
21
 10
63.8470
 20
24.5613
 30
0.0000
  0
SEQEND
  8
0
  0
POLYLINE
  8
21
 66
1
 10
0.0000
 20
0.0000
 30
0.0000
 40
0.0254
 41
0.0254
 70
0
  0
VERTEX
  8
21
 10
67.8066
 20
35.1743
 30
0.0000
  0
VERTEX
  8
21
 10
67.7658
 20
35.2997
 30
0.0000
  0
SEQEND
  8
0
  0
POLYLINE
  8
21
 66
1
 10
0.0000
 20
0.0000
 30
0.0000
 40
0.0127
 41
0.0127
 70
0
  0
VERTEX
  8
21
 10
67.7719
 20
35.3016
 30
0.0000
 42
1.0000
  0
VERTEX
  8
21
 10
67.7598
 20
35.2977
 30
0.0000
  0
SEQEND
  8
0
  0
POLYLINE
  8
21
 66
1
 10
0.0000
 20
0.0000
 30
0.0000
 40
0.0127
 41
0.0127
 70
0
  0
VERTEX
  8
21
 10
67.8005
 20
35.1723
 30
0.0000
 42
1.0000
  0
VERTEX
  8
21
 10
67.8126
 20
35.1762
 30
0.0000
  0
SEQEND
  8
0
  0
POLYLINE
  8
21
 66
1
 10
0.0000
 20
0.0000
 30
0.0000
 40
0.0254
 41
0.0254
 70
0
  0
VERTEX
  8
21
 10
67.7658
 20
35.2997
 30
0.0000
  0
VERTEX
  8
21
 10
68.0150
 20
35.1727
 30
0.0000
  0
SEQEND
  8
0
  0
POLYLINE
  8
21
 66
1
 10
0.0000
 20
0.0000
 30
0.0000
 40
0.0127
 41
0.0127
 70
0
  0
VERTEX
  8
21
 10
68.0121
 20
35.1670
 30
0.0000
 42
1.0000
  0
VERTEX
  8
21
 10
68.0179
 20
35.1784
 30
0.0000
  0
SEQEND
  8
0
  0
POLYLINE
  8
21
 66
1
 10
0.0000
 20
0.0000
 30
0.0000
 40
0.0127
 41
0.0127
 70
0
  0
VERTEX
  8
21
 10
67.7687
 20
35.3053
 30
0.0000
 42
1.0000
  0
VERTEX
  8
21
 10
67.7630
 20
35.2940
 30
0.0000
  0
SEQEND
  8
0
  0
POLYLINE
  8
21
 66
1
 10
0.0000
 20
0.0000
 30
0.0000
 40
0.0254
 41
0.0254
 70
0
  0
VERTEX
  8
21
 10
67.9727
 20
35.0897
 30
0.0000
  0
VERTEX
  8
21
 10
68.0573
 20
35.2558
 30
0.0000
  0
SEQEND
  8
0
  0
POLYLINE
  8
21
 66
1
 10
0.0000
 20
0.0000
 30
0.0000
 40
0.0127
 41
0.0127
 70
0
  0
VERTEX
  8
21
 10
68.0630
 20
35.2529
 30
0.0000
 42
1.0000
  0
VERTEX
  8
21
 10
68.0517
 20
35.2586
 30
0.0000
  0
SEQEND
  8
0
  0
POLYLINE
  8
21
 66
1
 10
0.0000
 20
0.0000
 30
0.0000
 40
0.0127
 41
0.0127
 70
0
  0
VERTEX
  8
21
 10
67.9670
 20
35.0925
 30
0.0000
 42
1.0000
  0
VERTEX
  8
21
 10
67.9783
 20
35.0868
 30
0.0000
  0
SEQEND
  8
0
  0
LINE
  8
22
 10
64.6589
 20
49.8075
 30
0.0000
 11
64.6589
 21
54.7075
 31
0.0000
  0
LINE
  8
22
 10
64.6589
 20
54.7075
 30
0.0000
 11
63.7589
 21
54.7075
 31
0.0000
  0
LINE
  8
22
 10
62.7589
 20
52.7075
 30
0.0000
 11
62.7589
 21
55.7075
 31
0.0000
  0
LINE
  8
22
 10
62.7589
 20
55.7075
 30
0.0000
 11
62.5589
 21
55.7075
 31
0.0000
  0
LINE
  8
22
 10
62.5589
 20
55.7075
 30
0.0000
 11
62.5589
 21
52.7075
 31
0.0000
  0
LINE
  8
22
 10
59.8589
 20
52.7075
 30
0.0000
 11
59.8589
 21
55.7075
 31
0.0000
  0
LINE
  8
22
 10
59.8589
 20
55.7075
 30
0.0000
 11
59.7589
 21
55.7075
 31
0.0000
  0
LINE
  8
22
 10
59.7589
 20
55.7075
 30
0.0000
 11
59.7589
 21
52.7075
 31
0.0000
  0
LINE
  8
22
 10
59.7589
 20
52.7075
 30
0.0000
 11
59.5589
 21
52.7075
 31
0.0000
  0
LINE
  8
22
 10
59.5589
 20
52.7075
 30
0.0000
 11
59.5589
 21
55.7075
 31
0.0000
  0
LINE
  8
22
 10
59.5589
 20
55.7075
 30
0.0000
 11
59.4589
 21
55.7075
 31
0.0000
  0
LINE
  8
22
 10
59.4589
 20
55.7075
 30
0.0000
 11
59.4589
 21
52.7075
 31
0.0000
  0
LINE
  8
22
 10
63.7589
 20
52.7075
 30
0.0000
 11
62.7589
 21
52.7075
 31
0.0000
  0
LINE
  8
22
 10
62.5589
 20
52.7075
 30
0.0000
 11
61.3589
 21
52.7075
 31
0.0000
  0
LINE
  8
22
 10
60.9589
 20
52.7075
 30
0.0000
 11
59.8589
 21
52.7075
 31
0.0000
  0
LINE
  8
22
 10
59.4589
 20
52.7075
 30
0.0000
 11
58.3589
 21
52.7075
 31
0.0000
  0
LINE
  8
22
 10
58.3589
 20
52.7075
 30
0.0000
 11
58.3589
 21
54.7075
 31
0.0000
  0
LINE
  8
22
 10
63.7589
 20
52.7075
 30
0.0000
 11
63.7589
 21
54.7075
 31
0.0000
  0
LINE
  8
22
 10
61.3589
 20
52.7075
 30
0.0000
 11
61.3589
 21
54.7075
 31
0.0000
  0
LINE
  8
22
 10
61.3589
 20
54.7075
 30
0.0000
 11
60.9589
 21
54.7075
 31
0.0000
  0
LINE
  8
22
 10
60.9589
 20
54.7075
 30
0.0000
 11
60.9589
 21
52.7075
 31
0.0000
  0
LINE
  8
22
 10
64.6552
 20
49.8013
 30
0.0000
 11
63.4052
 21
49.8013
 31
0.0000
  0
LINE
  8
22
 10
63.4052
 20
49.8013
 30
0.0000
 11
61.9052
 21
49.8013
 31
0.0000
  0
LINE
  8
22
 10
61.9052
 20
49.8013
 30
0.0000
 11
60.4052
 21
49.8013
 31
0.0000
  0
LINE
  8
22
 10
60.4052
 20
49.8013
 30
0.0000
 11
58.9052
 21
49.8013
 31
0.0000
  0
LINE
  8
22
 10
58.9052
 20
49.8013
 30
0.0000
 11
57.4052
 21
49.8013
 31
0.0000
  0
LINE
  8
22
 10
57.4052
 20
49.8013
 30
0.0000
 11
55.9052
 21
49.8013
 31
0.0000
  0
LINE
  8
22
 10
55.9052
 20
49.8013
 30
0.0000
 11
54.4052
 21
49.8013
 31
0.0000
  0
LINE
  8
22
 10
54.4052
 20
49.8013
 30
0.0000
 11
52.9052
 21
49.8013
 31
0.0000
  0
LINE
  8
22
 10
52.9052
 20
49.8013
 30
0.0000
 11
51.4052
 21
49.8013
 31
0.0000
  0
LINE
  8
22
 10
51.4052
 20
49.8013
 30
0.0000
 11
49.9052
 21
49.8013
 31
0.0000
  0
LINE
  8
22
 10
49.9052
 20
49.8013
 30
0.0000
 11
48.4052
 21
49.8013
 31
0.0000
  0
LINE
  8
22
 10
48.4052
 20
49.8013
 30
0.0000
 11
46.9052
 21
49.8013
 31
0.0000
  0
LINE
  8
22
 10
46.9052
 20
49.8013
 30
0.0000
 11
45.6552
 21
49.8013
 31
0.0000
  0
LINE
  8
22
 10
45.6552
 20
49.8013
 30
0.0000
 11
45.6552
 21
54.7013
 31
0.0000
  0
LINE
  8
22
 10
56.7589
 20
52.7075
 30
0.0000
 11
56.7589
 21
55.7075
 31
0.0000
  0
LINE
  8
22
 10
56.7589
 20
55.7075
 30
0.0000
 11
56.5589
 21
55.7075
 31
0.0000
  0
LINE
  8
22
 10
56.5589
 20
55.7075
 30
0.0000
 11
56.5589
 21
52.7075
 31
0.0000
  0
LINE
  8
22
 10
50.7589
 20
52.7075
 30
0.0000
 11
50.7589
 21
55.7075
 31
0.0000
  0
LINE
  8
22
 10
50.7589
 20
55.7075
 30
0.0000
 11
50.5589
 21
55.7075
 31
0.0000
  0
LINE
  8
22
 10
50.5589
 20
55.7075
 30
0.0000
 11
50.5589
 21
52.7075
 31
0.0000
  0
LINE
  8
22
 10
53.8589
 20
52.7075
 30
0.0000
 11
53.8589
 21
55.7075
 31
0.0000
  0
LINE
  8
22
 10
53.8589
 20
55.7075
 30
0.0000
 11
53.7589
 21
55.7075
 31
0.0000
  0
LINE
  8
22
 10
53.7589
 20
55.7075
 30
0.0000
 11
53.7589
 21
52.7075
 31
0.0000
  0
LINE
  8
22
 10
53.7589
 20
52.7075
 30
0.0000
 11
53.5589
 21
52.7075
 31
0.0000
  0
LINE
  8
22
 10
53.5589
 20
52.7075
 30
0.0000
 11
53.5589
 21
55.7075
 31
0.0000
  0
LINE
  8
22
 10
53.5589
 20
55.7075
 30
0.0000
 11
53.4589
 21
55.7075
 31
0.0000
  0
LINE
  8
22
 10
53.4589
 20
55.7075
 30
0.0000
 11
53.4589
 21
52.7075
 31
0.0000
  0
LINE
  8
22
 10
47.8589
 20
52.7075
 30
0.0000
 11
47.8589
 21
55.7075
 31
0.0000
  0
LINE
  8
22
 10
47.8589
 20
55.7075
 30
0.0000
 11
47.7589
 21
55.7075
 31
0.0000
  0
LINE
  8
22
 10
47.7589
 20
55.7075
 30
0.0000
 11
47.7589
 21
52.7075
 31
0.0000
  0
LINE
  8
22
 10
47.7589
 20
52.7075
 30
0.0000
 11
47.5589
 21
52.7075
 31
0.0000
  0
LINE
  8
22
 10
47.5589
 20
52.7075
 30
0.0000
 11
47.5589
 21
55.7075
 31
0.0000
  0
LINE
  8
22
 10
47.5589
 20
55.7075
 30
0.0000
 11
47.4589
 21
55.7075
 31
0.0000
  0
LINE
  8
22
 10
47.4589
 20
55.7075
 30
0.0000
 11
47.4589
 21
52.7075
 31
0.0000
  0
LINE
  8
22
 10
45.6552
 20
54.7013
 30
0.0000
 11
46.5552
 21
54.7013
 31
0.0000
  0
LINE
  8
22
 10
46.5552
 20
54.7013
 30
0.0000
 11
46.5552
 21
52.7013
 31
0.0000
  0
LINE
  8
22
 10
46.5552
 20
52.7013
 30
0.0000
 11
47.4552
 21
52.7013
 31
0.0000
  0
LINE
  8
22
 10
56.7552
 20
52.7013
 30
0.0000
 11
57.9552
 21
52.7013
 31
0.0000
  0
LINE
  8
22
 10
57.9552
 20
52.7013
 30
0.0000
 11
57.9552
 21
54.7013
 31
0.0000
  0
LINE
  8
22
 10
57.9552
 20
54.7013
 30
0.0000
 11
58.3552
 21
54.7013
 31
0.0000
  0
LINE
  8
22
 10
56.5589
 20
52.7075
 30
0.0000
 11
55.4089
 21
52.7075
 31
0.0000
  0
LINE
  8
22
 10
55.0089
 20
52.7075
 30
0.0000
 11
53.8589
 21
52.7075
 31
0.0000
  0
LINE
  8
22
 10
55.4089
 20
52.7075
 30
0.0000
 11
55.4089
 21
54.7075
 31
0.0000
  0
LINE
  8
22
 10
55.4089
 20
54.7075
 30
0.0000
 11
55.0089
 21
54.7075
 31
0.0000
  0
LINE
  8
22
 10
55.0089
 20
54.7075
 30
0.0000
 11
55.0089
 21
52.7075
 31
0.0000
  0
LINE
  8
22
 10
53.4589
 20
52.7075
 30
0.0000
 11
52.4589
 21
52.7075
 31
0.0000
  0
LINE
  8
22
 10
52.0589
 20
52.7075
 30
0.0000
 11
50.7589
 21
52.7075
 31
0.0000
  0
LINE
  8
22
 10
52.4589
 20
52.7075
 30
0.0000
 11
52.4589
 21
54.7075
 31
0.0000
  0
LINE
  8
22
 10
52.4589
 20
54.7075
 30
0.0000
 11
52.0589
 21
54.7075
 31
0.0000
  0
LINE
  8
22
 10
52.0589
 20
54.7075
 30
0.0000
 11
52.0589
 21
52.7075
 31
0.0000
  0
LINE
  8
22
 10
50.5589
 20
52.7075
 30
0.0000
 11
49.5089
 21
52.7075
 31
0.0000
  0
LINE
  8
22
 10
49.1089
 20
52.7075
 30
0.0000
 11
47.8589
 21
52.7075
 31
0.0000
  0
LINE
  8
22
 10
49.5089
 20
52.7075
 30
0.0000
 11
49.5089
 21
54.7075
 31
0.0000
  0
LINE
  8
22
 10
49.5089
 20
54.7075
 30
0.0000
 11
49.1089
 21
54.7075
 31
0.0000
  0
LINE
  8
22
 10
49.1089
 20
54.7075
 30
0.0000
 11
49.1089
 21
52.7075
 31
0.0000
  0
LINE
  8
22
 10
59.7552
 20
55.4013
 30
0.0000
 11
59.7052
 21
55.2013
 31
0.0000
  0
ARC
  8
22
 10
59.9177
 20
55.1482
 30
0.0000
 40
0.2190
 50
165.9638
 51
222.1087
  0
LINE
  8
22
 10
59.5552
 20
55.4013
 30
0.0000
 11
59.6052
 21
55.2013
 31
0.0000
  0
ARC
  8
22
 10
59.3927
 20
55.1482
 30
0.0000
 40
0.2190
 50
317.8913
 51
14.0362
  0
LINE
  8
22
 10
53.5552
 20
55.4013
 30
0.0000
 11
53.6052
 21
55.2013
 31
0.0000
  0
ARC
  8
22
 10
53.3927
 20
55.1482
 30
0.0000
 40
0.2190
 50
317.8913
 51
14.0362
  0
LINE
  8
22
 10
53.7552
 20
55.4013
 30
0.0000
 11
53.7052
 21
55.2013
 31
0.0000
  0
ARC
  8
22
 10
53.9177
 20
55.1482
 30
0.0000
 40
0.2190
 50
165.9638
 51
222.1087
  0
LINE
  8
22
 10
47.7552
 20
55.4513
 30
0.0000
 11
47.7052
 21
55.2513
 31
0.0000
  0
ARC
  8
22
 10
47.9177
 20
55.1982
 30
0.0000
 40
0.2190
 50
165.9638
 51
222.1087
  0
LINE
  8
22
 10
47.5552
 20
55.4513
 30
0.0000
 11
47.6052
 21
55.2513
 31
0.0000
  0
ARC
  8
22
 10
47.3927
 20
55.1982
 30
0.0000
 40
0.2190
 50
317.8913
 51
14.0362
  0
LINE
  8
22
 10
63.4052
 20
49.8013
 30
0.0000
 11
63.4052
 21
49.3013
 31
0.0000
  0
LINE
  8
22
 10
63.4052
 20
49.3013
 30
0.0000
 11
61.9052
 21
49.3013
 31
0.0000
  0
LINE
  8
22
 10
61.9052
 20
49.3013
 30
0.0000
 11
61.9052
 21
49.8013
 31
0.0000
  0
LINE
  8
22
 10
60.4052
 20
49.8013
 30
0.0000
 11
60.4052
 21
49.3013
 31
0.0000
  0
LINE
  8
22
 10
60.4052
 20
49.3013
 30
0.0000
 11
58.9052
 21
49.3013
 31
0.0000
  0
LINE
  8
22
 10
58.9052
 20
49.3013
 30
0.0000
 11
58.9052
 21
49.8013
 31
0.0000
  0
LINE
  8
22
 10
57.4052
 20
49.8013
 30
0.0000
 11
57.4052
 21
49.3013
 31
0.0000
  0
LINE
  8
22
 10
57.4052
 20
49.3013
 30
0.0000
 11
55.9052
 21
49.3013
 31
0.0000
  0
LINE
  8
22
 10
55.9052
 20
49.3013
 30
0.0000
 11
55.9052
 21
49.8013
 31
0.0000
  0
LINE
  8
22
 10
54.4052
 20
49.8013
 30
0.0000
 11
54.4052
 21
49.3013
 31
0.0000
  0
LINE
  8
22
 10
54.4052
 20
49.3013
 30
0.0000
 11
52.9052
 21
49.3013
 31
0.0000
  0
LINE
  8
22
 10
52.9052
 20
49.3013
 30
0.0000
 11
52.9052
 21
49.8013
 31
0.0000
  0
LINE
  8
22
 10
51.4052
 20
49.8013
 30
0.0000
 11
51.4052
 21
49.3013
 31
0.0000
  0
LINE
  8
22
 10
51.4052
 20
49.3013
 30
0.0000
 11
49.9052
 21
49.3013
 31
0.0000
  0
LINE
  8
22
 10
49.9052
 20
49.3013
 30
0.0000
 11
49.9052
 21
49.8013
 31
0.0000
  0
LINE
  8
22
 10
48.4052
 20
49.8013
 30
0.0000
 11
48.4052
 21
49.3013
 31
0.0000
  0
LINE
  8
22
 10
48.4052
 20
49.3013
 30
0.0000
 11
46.9052
 21
49.3013
 31
0.0000
  0
LINE
  8
22
 10
46.9052
 20
49.3013
 30
0.0000
 11
46.9052
 21
49.8013
 31
0.0000
  0
POLYLINE
  8
21
 66
1
 10
0.0000
 20
0.0000
 30
0.0000
 40
0.2032
 41
0.2032
 70
0
  0
VERTEX
  8
21
 10
61.1905
 20
17.9531
 30
0.0000
  0
VERTEX
  8
21
 10
61.7671
 20
19.0846
 30
0.0000
  0
SEQEND
  8
0
  0
POLYLINE
  8
21
 66
1
 10
0.0000
 20
0.0000
 30
0.0000
 40
0.1016
 41
0.1016
 70
0
  0
VERTEX
  8
21
 10
61.8123
 20
19.0616
 30
0.0000
 42
1.0000
  0
VERTEX
  8
21
 10
61.7218
 20
19.1077
 30
0.0000
  0
SEQEND
  8
0
  0
POLYLINE
  8
21
 66
1
 10
0.0000
 20
0.0000
 30
0.0000
 40
0.1016
 41
0.1016
 70
0
  0
VERTEX
  8
21
 10
61.1452
 20
17.9761
 30
0.0000
 42
1.0000
  0
VERTEX
  8
21
 10
61.2358
 20
17.9300
 30
0.0000
  0
SEQEND
  8
0
  0
POLYLINE
  8
21
 66
1
 10
0.0000
 20
0.0000
 30
0.0000
 40
0.2032
 41
0.2032
 70
0
  0
VERTEX
  8
21
 10
61.7671
 20
19.0846
 30
0.0000
  0
VERTEX
  8
21
 10
62.6211
 20
19.3622
 30
0.0000
  0
SEQEND
  8
0
  0
POLYLINE
  8
21
 66
1
 10
0.0000
 20
0.0000
 30
0.0000
 40
0.1016
 41
0.1016
 70
0
  0
VERTEX
  8
21
 10
62.6368
 20
19.3138
 30
0.0000
 42
1.0000
  0
VERTEX
  8
21
 10
62.6054
 20
19.4105
 30
0.0000
  0
SEQEND
  8
0
  0
POLYLINE
  8
21
 66
1
 10
0.0000
 20
0.0000
 30
0.0000
 40
0.1016
 41
0.1016
 70
0
  0
VERTEX
  8
21
 10
61.7514
 20
19.1330
 30
0.0000
 42
1.0000
  0
VERTEX
  8
21
 10
61.7828
 20
19.0363
 30
0.0000
  0
SEQEND
  8
0
  0
POLYLINE
  8
21
 66
1
 10
0.0000
 20
0.0000
 30
0.0000
 40
0.2032
 41
0.2032
 70
0
  0
VERTEX
  8
21
 10
63.7527
 20
18.7856
 30
0.0000
  0
VERTEX
  8
21
 10
64.0302
 20
17.9315
 30
0.0000
  0
SEQEND
  8
0
  0
POLYLINE
  8
21
 66
1
 10
0.0000
 20
0.0000
 30
0.0000
 40
0.1016
 41
0.1016
 70
0
  0
VERTEX
  8
21
 10
63.9819
 20
17.9158
 30
0.0000
 42
1.0000
  0
VERTEX
  8
21
 10
64.0785
 20
17.9472
 30
0.0000
  0
SEQEND
  8
0
  0
POLYLINE
  8
21
 66
1
 10
0.0000
 20
0.0000
 30
0.0000
 40
0.1016
 41
0.1016
 70
0
  0
VERTEX
  8
21
 10
63.8010
 20
18.8013
 30
0.0000
 42
1.0000
  0
VERTEX
  8
21
 10
63.7044
 20
18.7699
 30
0.0000
  0
SEQEND
  8
0
  0
POLYLINE
  8
21
 66
1
 10
0.0000
 20
0.0000
 30
0.0000
 40
0.2032
 41
0.2032
 70
0
  0
VERTEX
  8
21
 10
62.6211
 20
19.3622
 30
0.0000
  0
VERTEX
  8
21
 10
62.3436
 20
20.2162
 30
0.0000
  0
SEQEND
  8
0
  0
POLYLINE
  8
21
 66
1
 10
0.0000
 20
0.0000
 30
0.0000
 40
0.1016
 41
0.1016
 70
0
  0
VERTEX
  8
21
 10
62.3920
 20
20.2319
 30
0.0000
 42
1.0000
  0
VERTEX
  8
21
 10
62.2953
 20
20.2005
 30
0.0000
  0
SEQEND
  8
0
  0
POLYLINE
  8
21
 66
1
 10
0.0000
 20
0.0000
 30
0.0000
 40
0.1016
 41
0.1016
 70
0
  0
VERTEX
  8
21
 10
62.5728
 20
19.3465
 30
0.0000
 42
1.0000
  0
VERTEX
  8
21
 10
62.6695
 20
19.3779
 30
0.0000
  0
SEQEND
  8
0
  0
POLYLINE
  8
21
 66
1
 10
0.0000
 20
0.0000
 30
0.0000
 40
0.2032
 41
0.2032
 70
0
  0
VERTEX
  8
21
 10
62.3436
 20
20.2162
 30
0.0000
  0
VERTEX
  8
21
 10
62.9202
 20
21.3478
 30
0.0000
  0
SEQEND
  8
0
  0
POLYLINE
  8
21
 66
1
 10
0.0000
 20
0.0000
 30
0.0000
 40
0.1016
 41
0.1016
 70
0
  0
VERTEX
  8
21
 10
62.9655
 20
21.3247
 30
0.0000
 42
1.0000
  0
VERTEX
  8
21
 10
62.8749
 20
21.3709
 30
0.0000
  0
SEQEND
  8
0
  0
POLYLINE
  8
21
 66
1
 10
0.0000
 20
0.0000
 30
0.0000
 40
0.1016
 41
0.1016
 70
0
  0
VERTEX
  8
21
 10
62.2984
 20
20.2393
 30
0.0000
 42
1.0000
  0
VERTEX
  8
21
 10
62.3889
 20
20.1932
 30
0.0000
  0
SEQEND
  8
0
  0
POLYLINE
  8
21
 66
1
 10
0.0000
 20
0.0000
 30
0.0000
 40
0.2032
 41
0.2032
 70
0
  0
VERTEX
  8
21
 10
62.9202
 20
21.3478
 30
0.0000
  0
VERTEX
  8
21
 10
63.7743
 20
21.6253
 30
0.0000
  0
SEQEND
  8
0
  0
POLYLINE
  8
21
 66
1
 10
0.0000
 20
0.0000
 30
0.0000
 40
0.1016
 41
0.1016
 70
0
  0
VERTEX
  8
21
 10
63.7900
 20
21.5770
 30
0.0000
 42
1.0000
  0
VERTEX
  8
21
 10
63.7586
 20
21.6736
 30
0.0000
  0
SEQEND
  8
0
  0
POLYLINE
  8
21
 66
1
 10
0.0000
 20
0.0000
 30
0.0000
 40
0.1016
 41
0.1016
 70
0
  0
VERTEX
  8
21
 10
62.9045
 20
21.3961
 30
0.0000
 42
1.0000
  0
VERTEX
  8
21
 10
62.9359
 20
21.2995
 30
0.0000
  0
SEQEND
  8
0
  0
POLYLINE
  8
21
 66
1
 10
0.0000
 20
0.0000
 30
0.0000
 40
0.2032
 41
0.2032
 70
0
  0
VERTEX
  8
21
 10
64.9059
 20
21.0487
 30
0.0000
  0
VERTEX
  8
21
 10
65.1834
 20
20.1947
 30
0.0000
  0
SEQEND
  8
0
  0
POLYLINE
  8
21
 66
1
 10
0.0000
 20
0.0000
 30
0.0000
 40
0.1016
 41
0.1016
 70
0
  0
VERTEX
  8
21
 10
65.1351
 20
20.1790
 30
0.0000
 42
1.0000
  0
VERTEX
  8
21
 10
65.2317
 20
20.2104
 30
0.0000
  0
SEQEND
  8
0
  0
POLYLINE
  8
21
 66
1
 10
0.0000
 20
0.0000
 30
0.0000
 40
0.1016
 41
0.1016
 70
0
  0
VERTEX
  8
21
 10
64.9542
 20
21.0644
 30
0.0000
 42
1.0000
  0
VERTEX
  8
21
 10
64.8575
 20
21.0330
 30
0.0000
  0
SEQEND
  8
0
  0
POLYLINE
  8
21
 66
1
 10
0.0000
 20
0.0000
 30
0.0000
 40
0.2032
 41
0.2032
 70
0
  0
VERTEX
  8
21
 10
65.1834
 20
20.1947
 30
0.0000
  0
VERTEX
  8
21
 10
64.6068
 20
19.0631
 30
0.0000
  0
SEQEND
  8
0
  0
POLYLINE
  8
21
 66
1
 10
0.0000
 20
0.0000
 30
0.0000
 40
0.1016
 41
0.1016
 70
0
  0
VERTEX
  8
21
 10
64.5615
 20
19.0862
 30
0.0000
 42
1.0000
  0
VERTEX
  8
21
 10
64.6521
 20
19.0400
 30
0.0000
  0
SEQEND
  8
0
  0
POLYLINE
  8
21
 66
1
 10
0.0000
 20
0.0000
 30
0.0000
 40
0.1016
 41
0.1016
 70
0
  0
VERTEX
  8
21
 10
65.2286
 20
20.1716
 30
0.0000
 42
1.0000
  0
VERTEX
  8
21
 10
65.1381
 20
20.2177
 30
0.0000
  0
SEQEND
  8
0
  0
POLYLINE
  8
21
 66
1
 10
0.0000
 20
0.0000
 30
0.0000
 40
0.2032
 41
0.2032
 70
0
  0
VERTEX
  8
21
 10
64.6068
 20
19.0631
 30
0.0000
  0
VERTEX
  8
21
 10
63.7527
 20
18.7856
 30
0.0000
  0
SEQEND
  8
0
  0
POLYLINE
  8
21
 66
1
 10
0.0000
 20
0.0000
 30
0.0000
 40
0.1016
 41
0.1016
 70
0
  0
VERTEX
  8
21
 10
63.7370
 20
18.8339
 30
0.0000
 42
1.0000
  0
VERTEX
  8
21
 10
63.7684
 20
18.7373
 30
0.0000
  0
SEQEND
  8
0
  0
POLYLINE
  8
21
 66
1
 10
0.0000
 20
0.0000
 30
0.0000
 40
0.1016
 41
0.1016
 70
0
  0
VERTEX
  8
21
 10
64.6225
 20
19.0148
 30
0.0000
 42
1.0000
  0
VERTEX
  8
21
 10
64.5911
 20
19.1114
 30
0.0000
  0
SEQEND
  8
0
  0
POLYLINE
  8
21
 66
1
 10
0.0000
 20
0.0000
 30
0.0000
 40
0.2032
 41
0.2032
 70
0
  0
VERTEX
  8
21
 10
60.3149
 20
14.8358
 30
0.0000
  0
VERTEX
  8
21
 10
60.0374
 20
15.6899
 30
0.0000
  0
SEQEND
  8
0
  0
POLYLINE
  8
21
 66
1
 10
0.0000
 20
0.0000
 30
0.0000
 40
0.1016
 41
0.1016
 70
0
  0
VERTEX
  8
21
 10
60.0857
 20
15.7056
 30
0.0000
 42
1.0000
  0
VERTEX
  8
21
 10
59.9891
 20
15.6742
 30
0.0000
  0
SEQEND
  8
0
  0
POLYLINE
  8
21
 66
1
 10
0.0000
 20
0.0000
 30
0.0000
 40
0.1016
 41
0.1016
 70
0
  0
VERTEX
  8
21
 10
60.2666
 20
14.8201
 30
0.0000
 42
1.0000
  0
VERTEX
  8
21
 10
60.3632
 20
14.8515
 30
0.0000
  0
SEQEND
  8
0
  0
POLYLINE
  8
21
 66
1
 10
0.0000
 20
0.0000
 30
0.0000
 40
0.2032
 41
0.2032
 70
0
  0
VERTEX
  8
21
 10
60.0374
 20
15.6899
 30
0.0000
  0
VERTEX
  8
21
 10
60.6139
 20
16.8215
 30
0.0000
  0
SEQEND
  8
0
  0
POLYLINE
  8
21
 66
1
 10
0.0000
 20
0.0000
 30
0.0000
 40
0.1016
 41
0.1016
 70
0
  0
VERTEX
  8
21
 10
60.6592
 20
16.7984
 30
0.0000
 42
1.0000
  0
VERTEX
  8
21
 10
60.5687
 20
16.8446
 30
0.0000
  0
SEQEND
  8
0
  0
POLYLINE
  8
21
 66
1
 10
0.0000
 20
0.0000
 30
0.0000
 40
0.1016
 41
0.1016
 70
0
  0
VERTEX
  8
21
 10
59.9921
 20
15.7130
 30
0.0000
 42
1.0000
  0
VERTEX
  8
21
 10
60.0826
 20
15.6668
 30
0.0000
  0
SEQEND
  8
0
  0
POLYLINE
  8
21
 66
1
 10
0.0000
 20
0.0000
 30
0.0000
 40
0.2032
 41
0.2032
 70
0
  0
VERTEX
  8
21
 10
60.6139
 20
16.8215
 30
0.0000
  0
VERTEX
  8
21
 10
61.4680
 20
17.0990
 30
0.0000
  0
SEQEND
  8
0
  0
POLYLINE
  8
21
 66
1
 10
0.0000
 20
0.0000
 30
0.0000
 40
0.1016
 41
0.1016
 70
0
  0
VERTEX
  8
21
 10
61.4837
 20
17.0507
 30
0.0000
 42
1.0000
  0
VERTEX
  8
21
 10
61.4523
 20
17.1473
 30
0.0000
  0
SEQEND
  8
0
  0
POLYLINE
  8
21
 66
1
 10
0.0000
 20
0.0000
 30
0.0000
 40
0.1016
 41
0.1016
 70
0
  0
VERTEX
  8
21
 10
60.5982
 20
16.8698
 30
0.0000
 42
1.0000
  0
VERTEX
  8
21
 10
60.6296
 20
16.7732
 30
0.0000
  0
SEQEND
  8
0
  0
POLYLINE
  8
21
 66
1
 10
0.0000
 20
0.0000
 30
0.0000
 40
0.2032
 41
0.2032
 70
0
  0
VERTEX
  8
21
 10
62.5996
 20
16.5224
 30
0.0000
  0
VERTEX
  8
21
 10
62.8771
 20
15.6684
 30
0.0000
  0
SEQEND
  8
0
  0
POLYLINE
  8
21
 66
1
 10
0.0000
 20
0.0000
 30
0.0000
 40
0.1016
 41
0.1016
 70
0
  0
VERTEX
  8
21
 10
62.8288
 20
15.6527
 30
0.0000
 42
1.0000
  0
VERTEX
  8
21
 10
62.9254
 20
15.6841
 30
0.0000
  0
SEQEND
  8
0
  0
POLYLINE
  8
21
 66
1
 10
0.0000
 20
0.0000
 30
0.0000
 40
0.1016
 41
0.1016
 70
0
  0
VERTEX
  8
21
 10
62.6479
 20
16.5381
 30
0.0000
 42
1.0000
  0
VERTEX
  8
21
 10
62.5513
 20
16.5067
 30
0.0000
  0
SEQEND
  8
0
  0
POLYLINE
  8
21
 66
1
 10
0.0000
 20
0.0000
 30
0.0000
 40
0.2032
 41
0.2032
 70
0
  0
VERTEX
  8
21
 10
62.8771
 20
15.6684
 30
0.0000
  0
VERTEX
  8
21
 10
62.3005
 20
14.5368
 30
0.0000
  0
SEQEND
  8
0
  0
POLYLINE
  8
21
 66
1
 10
0.0000
 20
0.0000
 30
0.0000
 40
0.1016
 41
0.1016
 70
0
  0
VERTEX
  8
21
 10
62.2553
 20
14.5598
 30
0.0000
 42
1.0000
  0
VERTEX
  8
21
 10
62.3458
 20
14.5137
 30
0.0000
  0
SEQEND
  8
0
  0
POLYLINE
  8
21
 66
1
 10
0.0000
 20
0.0000
 30
0.0000
 40
0.1016
 41
0.1016
 70
0
  0
VERTEX
  8
21
 10
62.9224
 20
15.6453
 30
0.0000
 42
1.0000
  0
VERTEX
  8
21
 10
62.8318
 20
15.6914
 30
0.0000
  0
SEQEND
  8
0
  0
POLYLINE
  8
21
 66
1
 10
0.0000
 20
0.0000
 30
0.0000
 40
0.2032
 41
0.2032
 70
0
  0
VERTEX
  8
21
 10
62.3005
 20
14.5368
 30
0.0000
  0
VERTEX
  8
21
 10
61.4465
 20
14.2593
 30
0.0000
  0
SEQEND
  8
0
  0
POLYLINE
  8
21
 66
1
 10
0.0000
 20
0.0000
 30
0.0000
 40
0.1016
 41
0.1016
 70
0
  0
VERTEX
  8
21
 10
61.4308
 20
14.3076
 30
0.0000
 42
1.0000
  0
VERTEX
  8
21
 10
61.4622
 20
14.2110
 30
0.0000
  0
SEQEND
  8
0
  0
POLYLINE
  8
21
 66
1
 10
0.0000
 20
0.0000
 30
0.0000
 40
0.1016
 41
0.1016
 70
0
  0
VERTEX
  8
21
 10
62.3162
 20
14.4885
 30
0.0000
 42
1.0000
  0
VERTEX
  8
21
 10
62.2848
 20
14.5851
 30
0.0000
  0
SEQEND
  8
0
  0
POLYLINE
  8
21
 66
1
 10
0.0000
 20
0.0000
 30
0.0000
 40
0.2032
 41
0.2032
 70
0
  0
VERTEX
  8
21
 10
61.1905
 20
17.9531
 30
0.0000
  0
VERTEX
  8
21
 10
61.4680
 20
17.0990
 30
0.0000
  0
SEQEND
  8
0
  0
POLYLINE
  8
21
 66
1
 10
0.0000
 20
0.0000
 30
0.0000
 40
0.1016
 41
0.1016
 70
0
  0
VERTEX
  8
21
 10
61.4197
 20
17.0833
 30
0.0000
 42
1.0000
  0
VERTEX
  8
21
 10
61.5163
 20
17.1147
 30
0.0000
  0
SEQEND
  8
0
  0
POLYLINE
  8
21
 66
1
 10
0.0000
 20
0.0000
 30
0.0000
 40
0.1016
 41
0.1016
 70
0
  0
VERTEX
  8
21
 10
61.2388
 20
17.9688
 30
0.0000
 42
1.0000
  0
VERTEX
  8
21
 10
61.1422
 20
17.9374
 30
0.0000
  0
SEQEND
  8
0
  0
POLYLINE
  8
21
 66
1
 10
0.0000
 20
0.0000
 30
0.0000
 40
0.2032
 41
0.2032
 70
0
  0
VERTEX
  8
21
 10
62.5996
 20
16.5224
 30
0.0000
  0
VERTEX
  8
21
 10
63.4537
 20
16.7999
 30
0.0000
  0
SEQEND
  8
0
  0
POLYLINE
  8
21
 66
1
 10
0.0000
 20
0.0000
 30
0.0000
 40
0.1016
 41
0.1016
 70
0
  0
VERTEX
  8
21
 10
63.4694
 20
16.7516
 30
0.0000
 42
1.0000
  0
VERTEX
  8
21
 10
63.4380
 20
16.8482
 30
0.0000
  0
SEQEND
  8
0
  0
POLYLINE
  8
21
 66
1
 10
0.0000
 20
0.0000
 30
0.0000
 40
0.1016
 41
0.1016
 70
0
  0
VERTEX
  8
21
 10
62.5839
 20
16.5707
 30
0.0000
 42
1.0000
  0
VERTEX
  8
21
 10
62.6153
 20
16.4741
 30
0.0000
  0
SEQEND
  8
0
  0
POLYLINE
  8
21
 66
1
 10
0.0000
 20
0.0000
 30
0.0000
 40
0.2032
 41
0.2032
 70
0
  0
VERTEX
  8
21
 10
64.0302
 20
17.9315
 30
0.0000
  0
VERTEX
  8
21
 10
63.4537
 20
16.7999
 30
0.0000
  0
SEQEND
  8
0
  0
POLYLINE
  8
21
 66
1
 10
0.0000
 20
0.0000
 30
0.0000
 40
0.1016
 41
0.1016
 70
0
  0
VERTEX
  8
21
 10
63.4084
 20
16.8230
 30
0.0000
 42
1.0000
  0
VERTEX
  8
21
 10
63.4989
 20
16.7769
 30
0.0000
  0
SEQEND
  8
0
  0
POLYLINE
  8
21
 66
1
 10
0.0000
 20
0.0000
 30
0.0000
 40
0.1016
 41
0.1016
 70
0
  0
VERTEX
  8
21
 10
64.0755
 20
17.9084
 30
0.0000
 42
1.0000
  0
VERTEX
  8
21
 10
63.9850
 20
17.9546
 30
0.0000
  0
SEQEND
  8
0
  0
POLYLINE
  8
21
 66
1
 10
0.0000
 20
0.0000
 30
0.0000
 40
0.2032
 41
0.2032
 70
0
  0
VERTEX
  8
21
 10
57.7311
 20
11.1636
 30
0.0000
  0
VERTEX
  8
21
 10
58.3077
 20
12.2952
 30
0.0000
  0
SEQEND
  8
0
  0
POLYLINE
  8
21
 66
1
 10
0.0000
 20
0.0000
 30
0.0000
 40
0.1016
 41
0.1016
 70
0
  0
VERTEX
  8
21
 10
58.3529
 20
12.2721
 30
0.0000
 42
1.0000
  0
VERTEX
  8
21
 10
58.2624
 20
12.3182
 30
0.0000
  0
SEQEND
  8
0
  0
POLYLINE
  8
21
 66
1
 10
0.0000
 20
0.0000
 30
0.0000
 40
0.1016
 41
0.1016
 70
0
  0
VERTEX
  8
21
 10
57.6858
 20
11.1867
 30
0.0000
 42
1.0000
  0
VERTEX
  8
21
 10
57.7764
 20
11.1405
 30
0.0000
  0
SEQEND
  8
0
  0
POLYLINE
  8
21
 66
1
 10
0.0000
 20
0.0000
 30
0.0000
 40
0.2032
 41
0.2032
 70
0
  0
VERTEX
  8
21
 10
58.3077
 20
12.2952
 30
0.0000
  0
VERTEX
  8
21
 10
59.1617
 20
12.5727
 30
0.0000
  0
SEQEND
  8
0
  0
POLYLINE
  8
21
 66
1
 10
0.0000
 20
0.0000
 30
0.0000
 40
0.1016
 41
0.1016
 70
0
  0
VERTEX
  8
21
 10
59.1774
 20
12.5244
 30
0.0000
 42
1.0000
  0
VERTEX
  8
21
 10
59.1460
 20
12.6210
 30
0.0000
  0
SEQEND
  8
0
  0
POLYLINE
  8
21
 66
1
 10
0.0000
 20
0.0000
 30
0.0000
 40
0.1016
 41
0.1016
 70
0
  0
VERTEX
  8
21
 10
58.2920
 20
12.3435
 30
0.0000
 42
1.0000
  0
VERTEX
  8
21
 10
58.3234
 20
12.2469
 30
0.0000
  0
SEQEND
  8
0
  0
POLYLINE
  8
21
 66
1
 10
0.0000
 20
0.0000
 30
0.0000
 40
0.2032
 41
0.2032
 70
0
  0
VERTEX
  8
21
 10
60.2933
 20
11.9961
 30
0.0000
  0
VERTEX
  8
21
 10
60.5708
 20
11.1420
 30
0.0000
  0
SEQEND
  8
0
  0
POLYLINE
  8
21
 66
1
 10
0.0000
 20
0.0000
 30
0.0000
 40
0.1016
 41
0.1016
 70
0
  0
VERTEX
  8
21
 10
60.5225
 20
11.1263
 30
0.0000
 42
1.0000
  0
VERTEX
  8
21
 10
60.6191
 20
11.1577
 30
0.0000
  0
SEQEND
  8
0
  0
POLYLINE
  8
21
 66
1
 10
0.0000
 20
0.0000
 30
0.0000
 40
0.1016
 41
0.1016
 70
0
  0
VERTEX
  8
21
 10
60.3416
 20
12.0118
 30
0.0000
 42
1.0000
  0
VERTEX
  8
21
 10
60.2450
 20
11.9804
 30
0.0000
  0
SEQEND
  8
0
  0
POLYLINE
  8
21
 66
1
 10
0.0000
 20
0.0000
 30
0.0000
 40
0.2032
 41
0.2032
 70
0
  0
VERTEX
  8
21
 10
59.1617
 20
12.5727
 30
0.0000
  0
VERTEX
  8
21
 10
58.8842
 20
13.4268
 30
0.0000
  0
SEQEND
  8
0
  0
POLYLINE
  8
21
 66
1
 10
0.0000
 20
0.0000
 30
0.0000
 40
0.1016
 41
0.1016
 70
0
  0
VERTEX
  8
21
 10
58.9325
 20
13.4425
 30
0.0000
 42
1.0000
  0
VERTEX
  8
21
 10
58.8359
 20
13.4111
 30
0.0000
  0
SEQEND
  8
0
  0
POLYLINE
  8
21
 66
1
 10
0.0000
 20
0.0000
 30
0.0000
 40
0.1016
 41
0.1016
 70
0
  0
VERTEX
  8
21
 10
59.1134
 20
12.5570
 30
0.0000
 42
1.0000
  0
VERTEX
  8
21
 10
59.2101
 20
12.5884
 30
0.0000
  0
SEQEND
  8
0
  0
POLYLINE
  8
21
 66
1
 10
0.0000
 20
0.0000
 30
0.0000
 40
0.2032
 41
0.2032
 70
0
  0
VERTEX
  8
21
 10
58.8842
 20
13.4268
 30
0.0000
  0
VERTEX
  8
21
 10
59.4608
 20
14.5583
 30
0.0000
  0
SEQEND
  8
0
  0
POLYLINE
  8
21
 66
1
 10
0.0000
 20
0.0000
 30
0.0000
 40
0.1016
 41
0.1016
 70
0
  0
VERTEX
  8
21
 10
59.5061
 20
14.5353
 30
0.0000
 42
1.0000
  0
VERTEX
  8
21
 10
59.4155
 20
14.5814
 30
0.0000
  0
SEQEND
  8
0
  0
POLYLINE
  8
21
 66
1
 10
0.0000
 20
0.0000
 30
0.0000
 40
0.1016
 41
0.1016
 70
0
  0
VERTEX
  8
21
 10
58.8390
 20
13.4498
 30
0.0000
 42
1.0000
  0
VERTEX
  8
21
 10
58.9295
 20
13.4037
 30
0.0000
  0
SEQEND
  8
0
  0
POLYLINE
  8
21
 66
1
 10
0.0000
 20
0.0000
 30
0.0000
 40
0.2032
 41
0.2032
 70
0
  0
VERTEX
  8
21
 10
59.4608
 20
14.5583
 30
0.0000
  0
VERTEX
  8
21
 10
60.3149
 20
14.8358
 30
0.0000
  0
SEQEND
  8
0
  0
POLYLINE
  8
21
 66
1
 10
0.0000
 20
0.0000
 30
0.0000
 40
0.1016
 41
0.1016
 70
0
  0
VERTEX
  8
21
 10
60.3306
 20
14.7875
 30
0.0000
 42
1.0000
  0
VERTEX
  8
21
 10
60.2992
 20
14.8842
 30
0.0000
  0
SEQEND
  8
0
  0
POLYLINE
  8
21
 66
1
 10
0.0000
 20
0.0000
 30
0.0000
 40
0.1016
 41
0.1016
 70
0
  0
VERTEX
  8
21
 10
59.4451
 20
14.6066
 30
0.0000
 42
1.0000
  0
VERTEX
  8
21
 10
59.4765
 20
14.5100
 30
0.0000
  0
SEQEND
  8
0
  0
POLYLINE
  8
21
 66
1
 10
0.0000
 20
0.0000
 30
0.0000
 40
0.2032
 41
0.2032
 70
0
  0
VERTEX
  8
21
 10
61.4465
 20
14.2593
 30
0.0000
  0
VERTEX
  8
21
 10
61.7240
 20
13.4052
 30
0.0000
  0
SEQEND
  8
0
  0
POLYLINE
  8
21
 66
1
 10
0.0000
 20
0.0000
 30
0.0000
 40
0.1016
 41
0.1016
 70
0
  0
VERTEX
  8
21
 10
61.6756
 20
13.3895
 30
0.0000
 42
1.0000
  0
VERTEX
  8
21
 10
61.7723
 20
13.4209
 30
0.0000
  0
SEQEND
  8
0
  0
POLYLINE
  8
21
 66
1
 10
0.0000
 20
0.0000
 30
0.0000
 40
0.1016
 41
0.1016
 70
0
  0
VERTEX
  8
21
 10
61.4948
 20
14.2750
 30
0.0000
 42
1.0000
  0
VERTEX
  8
21
 10
61.3981
 20
14.2436
 30
0.0000
  0
SEQEND
  8
0
  0
POLYLINE
  8
21
 66
1
 10
0.0000
 20
0.0000
 30
0.0000
 40
0.2032
 41
0.2032
 70
0
  0
VERTEX
  8
21
 10
61.7240
 20
13.4052
 30
0.0000
  0
VERTEX
  8
21
 10
61.1474
 20
12.2736
 30
0.0000
  0
SEQEND
  8
0
  0
POLYLINE
  8
21
 66
1
 10
0.0000
 20
0.0000
 30
0.0000
 40
0.1016
 41
0.1016
 70
0
  0
VERTEX
  8
21
 10
61.1021
 20
12.2967
 30
0.0000
 42
1.0000
  0
VERTEX
  8
21
 10
61.1927
 20
12.2506
 30
0.0000
  0
SEQEND
  8
0
  0
POLYLINE
  8
21
 66
1
 10
0.0000
 20
0.0000
 30
0.0000
 40
0.1016
 41
0.1016
 70
0
  0
VERTEX
  8
21
 10
61.7692
 20
13.3821
 30
0.0000
 42
1.0000
  0
VERTEX
  8
21
 10
61.6787
 20
13.4283
 30
0.0000
  0
SEQEND
  8
0
  0
POLYLINE
  8
21
 66
1
 10
0.0000
 20
0.0000
 30
0.0000
 40
0.2032
 41
0.2032
 70
0
  0
VERTEX
  8
21
 10
61.1474
 20
12.2736
 30
0.0000
  0
VERTEX
  8
21
 10
60.2933
 20
11.9961
 30
0.0000
  0
SEQEND
  8
0
  0
POLYLINE
  8
21
 66
1
 10
0.0000
 20
0.0000
 30
0.0000
 40
0.1016
 41
0.1016
 70
0
  0
VERTEX
  8
21
 10
60.2776
 20
12.0444
 30
0.0000
 42
1.0000
  0
VERTEX
  8
21
 10
60.3090
 20
11.9478
 30
0.0000
  0
SEQEND
  8
0
  0
POLYLINE
  8
21
 66
1
 10
0.0000
 20
0.0000
 30
0.0000
 40
0.1016
 41
0.1016
 70
0
  0
VERTEX
  8
21
 10
61.1631
 20
12.2253
 30
0.0000
 42
1.0000
  0
VERTEX
  8
21
 10
61.1317
 20
12.3219
 30
0.0000
  0
SEQEND
  8
0
  0
POLYLINE
  8
21
 66
1
 10
0.0000
 20
0.0000
 30
0.0000
 40
0.2032
 41
0.2032
 70
0
  0
VERTEX
  8
21
 10
58.0086
 20
10.3095
 30
0.0000
  0
VERTEX
  8
21
 10
59.1402
 20
9.7330
 30
0.0000
  0
SEQEND
  8
0
  0
POLYLINE
  8
21
 66
1
 10
0.0000
 20
0.0000
 30
0.0000
 40
0.1016
 41
0.1016
 70
0
  0
VERTEX
  8
21
 10
59.1171
 20
9.6877
 30
0.0000
 42
1.0000
  0
VERTEX
  8
21
 10
59.1632
 20
9.7782
 30
0.0000
  0
SEQEND
  8
0
  0
POLYLINE
  8
21
 66
1
 10
0.0000
 20
0.0000
 30
0.0000
 40
0.1016
 41
0.1016
 70
0
  0
VERTEX
  8
21
 10
58.0317
 20
10.3548
 30
0.0000
 42
1.0000
  0
VERTEX
  8
21
 10
57.9855
 20
10.2643
 30
0.0000
  0
SEQEND
  8
0
  0
POLYLINE
  8
21
 66
1
 10
0.0000
 20
0.0000
 30
0.0000
 40
0.2032
 41
0.2032
 70
0
  0
VERTEX
  8
21
 10
57.7311
 20
11.1636
 30
0.0000
  0
VERTEX
  8
21
 10
58.0086
 20
10.3095
 30
0.0000
  0
SEQEND
  8
0
  0
POLYLINE
  8
21
 66
1
 10
0.0000
 20
0.0000
 30
0.0000
 40
0.1016
 41
0.1016
 70
0
  0
VERTEX
  8
21
 10
57.9603
 20
10.2938
 30
0.0000
 42
1.0000
  0
VERTEX
  8
21
 10
58.0569
 20
10.3252
 30
0.0000
  0
SEQEND
  8
0
  0
POLYLINE
  8
21
 66
1
 10
0.0000
 20
0.0000
 30
0.0000
 40
0.1016
 41
0.1016
 70
0
  0
VERTEX
  8
21
 10
57.7794
 20
11.1793
 30
0.0000
 42
1.0000
  0
VERTEX
  8
21
 10
57.6828
 20
11.1479
 30
0.0000
  0
SEQEND
  8
0
  0
POLYLINE
  8
21
 66
1
 10
0.0000
 20
0.0000
 30
0.0000
 40
0.2032
 41
0.2032
 70
0
  0
VERTEX
  8
21
 10
59.1402
 20
9.7330
 30
0.0000
  0
VERTEX
  8
21
 10
59.9943
 20
10.0105
 30
0.0000
  0
SEQEND
  8
0
  0
POLYLINE
  8
21
 66
1
 10
0.0000
 20
0.0000
 30
0.0000
 40
0.1016
 41
0.1016
 70
0
  0
VERTEX
  8
21
 10
60.0100
 20
9.9621
 30
0.0000
 42
1.0000
  0
VERTEX
  8
21
 10
59.9786
 20
10.0588
 30
0.0000
  0
SEQEND
  8
0
  0
POLYLINE
  8
21
 66
1
 10
0.0000
 20
0.0000
 30
0.0000
 40
0.1016
 41
0.1016
 70
0
  0
VERTEX
  8
21
 10
59.1245
 20
9.7813
 30
0.0000
 42
1.0000
  0
VERTEX
  8
21
 10
59.1559
 20
9.6846
 30
0.0000
  0
SEQEND
  8
0
  0
POLYLINE
  8
21
 66
1
 10
0.0000
 20
0.0000
 30
0.0000
 40
0.2032
 41
0.2032
 70
0
  0
VERTEX
  8
21
 10
60.5708
 20
11.1420
 30
0.0000
  0
VERTEX
  8
21
 10
59.9943
 20
10.0105
 30
0.0000
  0
SEQEND
  8
0
  0
POLYLINE
  8
21
 66
1
 10
0.0000
 20
0.0000
 30
0.0000
 40
0.1016
 41
0.1016
 70
0
  0
VERTEX
  8
21
 10
59.9490
 20
10.0335
 30
0.0000
 42
1.0000
  0
VERTEX
  8
21
 10
60.0395
 20
9.9874
 30
0.0000
  0
SEQEND
  8
0
  0
POLYLINE
  8
21
 66
1
 10
0.0000
 20
0.0000
 30
0.0000
 40
0.1016
 41
0.1016
 70
0
  0
VERTEX
  8
21
 10
60.6161
 20
11.1190
 30
0.0000
 42
1.0000
  0
VERTEX
  8
21
 10
60.5256
 20
11.1651
 30
0.0000
  0
SEQEND
  8
0
  0
POLYLINE
  8
21
 66
1
 10
0.0000
 20
0.0000
 30
0.0000
 40
0.2032
 41
0.2032
 70
0
  0
VERTEX
  8
21
 10
63.7743
 20
21.6253
 30
0.0000
  0
VERTEX
  8
21
 10
64.9059
 20
21.0487
 30
0.0000
  0
SEQEND
  8
0
  0
POLYLINE
  8
21
 66
1
 10
0.0000
 20
0.0000
 30
0.0000
 40
0.1016
 41
0.1016
 70
0
  0
VERTEX
  8
21
 10
64.8828
 20
21.0035
 30
0.0000
 42
1.0000
  0
VERTEX
  8
21
 10
64.9289
 20
21.0940
 30
0.0000
  0
SEQEND
  8
0
  0
POLYLINE
  8
21
 66
1
 10
0.0000
 20
0.0000
 30
0.0000
 40
0.1016
 41
0.1016
 70
0
  0
VERTEX
  8
21
 10
63.7973
 20
21.6706
 30
0.0000
 42
1.0000
  0
VERTEX
  8
21
 10
63.7512
 20
21.5800
 30
0.0000
  0
SEQEND
  8
0
  0
POLYLINE
  8
21
 66
1
 10
0.0000
 20
0.0000
 30
0.0000
 40
0.2032
 41
0.2032
 70
0
  0
VERTEX
  8
21
 10
54.4680
 20
45.0556
 30
0.0000
  0
VERTEX
  8
21
 10
41.2530
 20
45.0556
 30
0.0000
  0
SEQEND
  8
0
  0
POLYLINE
  8
21
 66
1
 10
0.0000
 20
0.0000
 30
0.0000
 40
0.1016
 41
0.1016
 70
0
  0
VERTEX
  8
21
 10
41.2530
 20
45.1064
 30
0.0000
 42
1.0000
  0
VERTEX
  8
21
 10
41.2530
 20
45.0048
 30
0.0000
  0
SEQEND
  8
0
  0
POLYLINE
  8
21
 66
1
 10
0.0000
 20
0.0000
 30
0.0000
 40
0.1016
 41
0.1016
 70
0
  0
VERTEX
  8
21
 10
54.4680
 20
45.0048
 30
0.0000
 42
1.0000
  0
VERTEX
  8
21
 10
54.4680
 20
45.1064
 30
0.0000
  0
SEQEND
  8
0
  0
POLYLINE
  8
21
 66
1
 10
0.0000
 20
0.0000
 30
0.0000
 40
0.2032
 41
0.2032
 70
0
  0
VERTEX
  8
21
 10
41.2530
 20
45.0556
 30
0.0000
  0
VERTEX
  8
21
 10
41.2530
 20
48.3556
 30
0.0000
  0
SEQEND
  8
0
  0
POLYLINE
  8
21
 66
1
 10
0.0000
 20
0.0000
 30
0.0000
 40
0.1016
 41
0.1016
 70
0
  0
VERTEX
  8
21
 10
41.3038
 20
48.3556
 30
0.0000
 42
1.0000
  0
VERTEX
  8
21
 10
41.2022
 20
48.3556
 30
0.0000
  0
SEQEND
  8
0
  0
POLYLINE
  8
21
 66
1
 10
0.0000
 20
0.0000
 30
0.0000
 40
0.1016
 41
0.1016
 70
0
  0
VERTEX
  8
21
 10
41.2022
 20
45.0556
 30
0.0000
 42
1.0000
  0
VERTEX
  8
21
 10
41.3038
 20
45.0556
 30
0.0000
  0
SEQEND
  8
0
  0
POLYLINE
  8
21
 66
1
 10
0.0000
 20
0.0000
 30
0.0000
 40
0.2032
 41
0.2032
 70
0
  0
VERTEX
  8
21
 10
54.4680
 20
48.3556
 30
0.0000
  0
VERTEX
  8
21
 10
54.4680
 20
45.0556
 30
0.0000
  0
SEQEND
  8
0
  0
POLYLINE
  8
21
 66
1
 10
0.0000
 20
0.0000
 30
0.0000
 40
0.1016
 41
0.1016
 70
0
  0
VERTEX
  8
21
 10
54.4172
 20
45.0556
 30
0.0000
 42
1.0000
  0
VERTEX
  8
21
 10
54.5188
 20
45.0556
 30
0.0000
  0
SEQEND
  8
0
  0
POLYLINE
  8
21
 66
1
 10
0.0000
 20
0.0000
 30
0.0000
 40
0.1016
 41
0.1016
 70
0
  0
VERTEX
  8
21
 10
54.5188
 20
48.3556
 30
0.0000
 42
1.0000
  0
VERTEX
  8
21
 10
54.4172
 20
48.3556
 30
0.0000
  0
SEQEND
  8
0
  0
POLYLINE
  8
21
 66
1
 10
0.0000
 20
0.0000
 30
0.0000
 40
0.2032
 41
0.2032
 70
0
  0
VERTEX
  8
21
 10
54.4680
 20
48.3556
 30
0.0000
  0
VERTEX
  8
21
 10
41.2530
 20
48.3556
 30
0.0000
  0
SEQEND
  8
0
  0
POLYLINE
  8
21
 66
1
 10
0.0000
 20
0.0000
 30
0.0000
 40
0.1016
 41
0.1016
 70
0
  0
VERTEX
  8
21
 10
41.2530
 20
48.4064
 30
0.0000
 42
1.0000
  0
VERTEX
  8
21
 10
41.2530
 20
48.3048
 30
0.0000
  0
SEQEND
  8
0
  0
POLYLINE
  8
21
 66
1
 10
0.0000
 20
0.0000
 30
0.0000
 40
0.1016
 41
0.1016
 70
0
  0
VERTEX
  8
21
 10
54.4680
 20
48.3048
 30
0.0000
 42
1.0000
  0
VERTEX
  8
21
 10
54.4680
 20
48.4064
 30
0.0000
  0
SEQEND
  8
0
  0
POLYLINE
  8
21
 66
1
 10
0.0000
 20
0.0000
 30
0.0000
 40
0.2032
 41
0.2032
 70
0
  0
VERTEX
  8
21
 10
41.6530
 20
48.1556
 30
0.0000
  0
VERTEX
  8
21
 10
41.6530
 20
48.3056
 30
0.0000
  0
SEQEND
  8
0
  0
POLYLINE
  8
21
 66
1
 10
0.0000
 20
0.0000
 30
0.0000
 40
0.1016
 41
0.1016
 70
0
  0
VERTEX
  8
21
 10
41.7038
 20
48.3056
 30
0.0000
 42
1.0000
  0
VERTEX
  8
21
 10
41.6022
 20
48.3056
 30
0.0000
  0
SEQEND
  8
0
  0
POLYLINE
  8
21
 66
1
 10
0.0000
 20
0.0000
 30
0.0000
 40
0.1016
 41
0.1016
 70
0
  0
VERTEX
  8
21
 10
41.6022
 20
48.1556
 30
0.0000
 42
1.0000
  0
VERTEX
  8
21
 10
41.7038
 20
48.1556
 30
0.0000
  0
SEQEND
  8
0
  0
POLYLINE
  8
21
 66
1
 10
0.0000
 20
0.0000
 30
0.0000
 40
0.2032
 41
0.2032
 70
0
  0
VERTEX
  8
21
 10
41.6530
 20
48.1556
 30
0.0000
  0
VERTEX
  8
21
 10
42.1530
 20
48.1556
 30
0.0000
  0
SEQEND
  8
0
  0
POLYLINE
  8
21
 66
1
 10
0.0000
 20
0.0000
 30
0.0000
 40
0.1016
 41
0.1016
 70
0
  0
VERTEX
  8
21
 10
42.1530
 20
48.1048
 30
0.0000
 42
1.0000
  0
VERTEX
  8
21
 10
42.1530
 20
48.2064
 30
0.0000
  0
SEQEND
  8
0
  0
POLYLINE
  8
21
 66
1
 10
0.0000
 20
0.0000
 30
0.0000
 40
0.1016
 41
0.1016
 70
0
  0
VERTEX
  8
21
 10
41.6530
 20
48.2064
 30
0.0000
 42
1.0000
  0
VERTEX
  8
21
 10
41.6530
 20
48.1048
 30
0.0000
  0
SEQEND
  8
0
  0
POLYLINE
  8
21
 66
1
 10
0.0000
 20
0.0000
 30
0.0000
 40
0.2032
 41
0.2032
 70
0
  0
VERTEX
  8
21
 10
42.1530
 20
48.1556
 30
0.0000
  0
VERTEX
  8
21
 10
42.1530
 20
48.3056
 30
0.0000
  0
SEQEND
  8
0
  0
POLYLINE
  8
21
 66
1
 10
0.0000
 20
0.0000
 30
0.0000
 40
0.1016
 41
0.1016
 70
0
  0
VERTEX
  8
21
 10
42.2038
 20
48.3056
 30
0.0000
 42
1.0000
  0
VERTEX
  8
21
 10
42.1022
 20
48.3056
 30
0.0000
  0
SEQEND
  8
0
  0
POLYLINE
  8
21
 66
1
 10
0.0000
 20
0.0000
 30
0.0000
 40
0.1016
 41
0.1016
 70
0
  0
VERTEX
  8
21
 10
42.1022
 20
48.1556
 30
0.0000
 42
1.0000
  0
VERTEX
  8
21
 10
42.2038
 20
48.1556
 30
0.0000
  0
SEQEND
  8
0
  0
POLYLINE
  8
22
 66
1
 10
0.0000
 20
0.0000
 30
0.0000
 40
0.2032
 41
0.2032
 70
0
  0
VERTEX
  8
22
 10
51.0439
 20
14.4412
 30
0.0000
  0
VERTEX
  8
22
 10
38.0189
 20
14.4412
 30
0.0000
  0
SEQEND
  8
0
  0
POLYLINE
  8
22
 66
1
 10
0.0000
 20
0.0000
 30
0.0000
 40
0.1016
 41
0.1016
 70
0
  0
VERTEX
  8
22
 10
38.0189
 20
14.4920
 30
0.0000
 42
1.0000
  0
VERTEX
  8
22
 10
38.0189
 20
14.3904
 30
0.0000
  0
SEQEND
  8
0
  0
POLYLINE
  8
22
 66
1
 10
0.0000
 20
0.0000
 30
0.0000
 40
0.1016
 41
0.1016
 70
0
  0
VERTEX
  8
22
 10
51.0439
 20
14.3904
 30
0.0000
 42
1.0000
  0
VERTEX
  8
22
 10
51.0439
 20
14.4920
 30
0.0000
  0
SEQEND
  8
0
  0
POLYLINE
  8
22
 66
1
 10
0.0000
 20
0.0000
 30
0.0000
 40
0.2032
 41
0.2032
 70
0
  0
VERTEX
  8
22
 10
38.0189
 20
14.4412
 30
0.0000
  0
VERTEX
  8
22
 10
38.0189
 20
1.4412
 30
0.0000
  0
SEQEND
  8
0
  0
POLYLINE
  8
22
 66
1
 10
0.0000
 20
0.0000
 30
0.0000
 40
0.1016
 41
0.1016
 70
0
  0
VERTEX
  8
22
 10
37.9681
 20
1.4412
 30
0.0000
 42
1.0000
  0
VERTEX
  8
22
 10
38.0697
 20
1.4412
 30
0.0000
  0
SEQEND
  8
0
  0
POLYLINE
  8
22
 66
1
 10
0.0000
 20
0.0000
 30
0.0000
 40
0.1016
 41
0.1016
 70
0
  0
VERTEX
  8
22
 10
38.0697
 20
14.4412
 30
0.0000
 42
1.0000
  0
VERTEX
  8
22
 10
37.9681
 20
14.4412
 30
0.0000
  0
SEQEND
  8
0
  0
POLYLINE
  8
22
 66
1
 10
0.0000
 20
0.0000
 30
0.0000
 40
0.2032
 41
0.2032
 70
0
  0
VERTEX
  8
22
 10
38.0189
 20
1.4412
 30
0.0000
  0
VERTEX
  8
22
 10
51.0439
 20
1.4412
 30
0.0000
  0
SEQEND
  8
0
  0
POLYLINE
  8
22
 66
1
 10
0.0000
 20
0.0000
 30
0.0000
 40
0.1016
 41
0.1016
 70
0
  0
VERTEX
  8
22
 10
51.0439
 20
1.3904
 30
0.0000
 42
1.0000
  0
VERTEX
  8
22
 10
51.0439
 20
1.4920
 30
0.0000
  0
SEQEND
  8
0
  0
POLYLINE
  8
22
 66
1
 10
0.0000
 20
0.0000
 30
0.0000
 40
0.1016
 41
0.1016
 70
0
  0
VERTEX
  8
22
 10
38.0189
 20
1.4920
 30
0.0000
 42
1.0000
  0
VERTEX
  8
22
 10
38.0189
 20
1.3904
 30
0.0000
  0
SEQEND
  8
0
  0
POLYLINE
  8
22
 66
1
 10
0.0000
 20
0.0000
 30
0.0000
 40
0.2032
 41
0.2032
 70
0
  0
VERTEX
  8
22
 10
51.0439
 20
1.4412
 30
0.0000
  0
VERTEX
  8
22
 10
51.0439
 20
14.4412
 30
0.0000
  0
SEQEND
  8
0
  0
POLYLINE
  8
22
 66
1
 10
0.0000
 20
0.0000
 30
0.0000
 40
0.1016
 41
0.1016
 70
0
  0
VERTEX
  8
22
 10
51.0947
 20
14.4412
 30
0.0000
 42
1.0000
  0
VERTEX
  8
22
 10
50.9931
 20
14.4412
 30
0.0000
  0
SEQEND
  8
0
  0
POLYLINE
  8
22
 66
1
 10
0.0000
 20
0.0000
 30
0.0000
 40
0.1016
 41
0.1016
 70
0
  0
VERTEX
  8
22
 10
50.9931
 20
1.4412
 30
0.0000
 42
1.0000
  0
VERTEX
  8
22
 10
51.0947
 20
1.4412
 30
0.0000
  0
SEQEND
  8
0
  0
POLYLINE
  8
22
 66
1
 10
0.0000
 20
0.0000
 30
0.0000
 40
1.0160
 41
1.0160
 70
0
  0
VERTEX
  8
22
 10
49.0693
 20
11.7242
 30
0.0000
 42
1.2138
  0
VERTEX
  8
22
 10
48.3445
 20
12.4843
 30
0.0000
  0
SEQEND
  8
0
  0
POLYLINE
  8
22
 66
1
 10
0.0000
 20
0.0000
 30
0.0000
 40
1.0160
 41
1.0160
 70
0
  0
VERTEX
  8
22
 10
48.3269
 20
3.4158
 30
0.0000
 42
1.2138
  0
VERTEX
  8
22
 10
49.0870
 20
4.1406
 30
0.0000
  0
SEQEND
  8
0
  0
POLYLINE
  8
22
 66
1
 10
0.0000
 20
0.0000
 30
0.0000
 40
1.0160
 41
1.0160
 70
0
  0
VERTEX
  8
22
 10
40.0185
 20
4.1582
 30
0.0000
 42
1.2138
  0
VERTEX
  8
22
 10
40.7433
 20
3.3981
 30
0.0000
  0
SEQEND
  8
0
  0
POLYLINE
  8
22
 66
1
 10
0.0000
 20
0.0000
 30
0.0000
 40
1.0160
 41
1.0160
 70
0
  0
VERTEX
  8
22
 10
40.7609
 20
12.4666
 30
0.0000
 42
1.2138
  0
VERTEX
  8
22
 10
40.0008
 20
11.7418
 30
0.0000
  0
SEQEND
  8
0
  0
POLYLINE
  8
22
 66
1
 10
0.0000
 20
0.0000
 30
0.0000
 40
0.2032
 41
0.2032
 70
0
  0
VERTEX
  8
22
 10
44.5439
 20
13.8412
 30
0.0000
 42
0.2503
  0
VERTEX
  8
22
 10
39.6439
 20
11.2162
 30
0.0000
  0
SEQEND
  8
0
  0
POLYLINE
  8
22
 66
1
 10
0.0000
 20
0.0000
 30
0.0000
 40
0.1016
 41
0.1016
 70
0
  0
VERTEX
  8
22
 10
44.5440
 20
13.7904
 30
0.0000
 42
1.0000
  0
VERTEX
  8
22
 10
44.5439
 20
13.8920
 30
0.0000
  0
SEQEND
  8
0
  0
POLYLINE
  8
22
 66
1
 10
0.0000
 20
0.0000
 30
0.0000
 40
0.1016
 41
0.1016
 70
0
  0
VERTEX
  8
22
 10
39.6017
 20
11.2444
 30
0.0000
 42
1.0000
  0
VERTEX
  8
22
 10
39.6862
 20
11.1880
 30
0.0000
  0
SEQEND
  8
0
  0
POLYLINE
  8
22
 66
1
 10
0.0000
 20
0.0000
 30
0.0000
 40
0.2032
 41
0.2032
 70
0
  0
VERTEX
  8
22
 10
49.4939
 20
11.1662
 30
0.0000
 42
0.2538
  0
VERTEX
  8
22
 10
44.5439
 20
13.8412
 30
0.0000
  0
SEQEND
  8
0
  0
POLYLINE
  8
22
 66
1
 10
0.0000
 20
0.0000
 30
0.0000
 40
0.1016
 41
0.1016
 70
0
  0
VERTEX
  8
22
 10
49.4514
 20
11.1385
 30
0.0000
 42
1.0000
  0
VERTEX
  8
22
 10
49.5365
 20
11.1940
 30
0.0000
  0
SEQEND
  8
0
  0
POLYLINE
  8
22
 66
1
 10
0.0000
 20
0.0000
 30
0.0000
 40
0.1016
 41
0.1016
 70
0
  0
VERTEX
  8
22
 10
44.5438
 20
13.8920
 30
0.0000
 42
1.0000
  0
VERTEX
  8
22
 10
44.5440
 20
13.7904
 30
0.0000
  0
SEQEND
  8
0
  0
POLYLINE
  8
22
 66
1
 10
0.0000
 20
0.0000
 30
0.0000
 40
0.2032
 41
0.2032
 70
0
  0
VERTEX
  8
22
 10
44.5439
 20
2.0412
 30
0.0000
 42
0.2503
  0
VERTEX
  8
22
 10
49.4439
 20
4.6662
 30
0.0000
  0
SEQEND
  8
0
  0
POLYLINE
  8
22
 66
1
 10
0.0000
 20
0.0000
 30
0.0000
 40
0.1016
 41
0.1016
 70
0
  0
VERTEX
  8
22
 10
44.5439
 20
2.0920
 30
0.0000
 42
1.0000
  0
VERTEX
  8
22
 10
44.5440
 20
1.9904
 30
0.0000
  0
SEQEND
  8
0
  0
POLYLINE
  8
22
 66
1
 10
0.0000
 20
0.0000
 30
0.0000
 40
0.1016
 41
0.1016
 70
0
  0
VERTEX
  8
22
 10
49.4862
 20
4.6380
 30
0.0000
 42
1.0000
  0
VERTEX
  8
22
 10
49.4017
 20
4.6944
 30
0.0000
  0
SEQEND
  8
0
  0
POLYLINE
  8
22
 66
1
 10
0.0000
 20
0.0000
 30
0.0000
 40
0.2032
 41
0.2032
 70
0
  0
VERTEX
  8
22
 10
39.5939
 20
4.7162
 30
0.0000
 42
0.2538
  0
VERTEX
  8
22
 10
44.5439
 20
2.0412
 30
0.0000
  0
SEQEND
  8
0
  0
POLYLINE
  8
22
 66
1
 10
0.0000
 20
0.0000
 30
0.0000
 40
0.1016
 41
0.1016
 70
0
  0
VERTEX
  8
22
 10
39.6365
 20
4.7440
 30
0.0000
 42
1.0000
  0
VERTEX
  8
22
 10
39.5514
 20
4.6885
 30
0.0000
  0
SEQEND
  8
0
  0
POLYLINE
  8
22
 66
1
 10
0.0000
 20
0.0000
 30
0.0000
 40
0.1016
 41
0.1016
 70
0
  0
VERTEX
  8
22
 10
44.5440
 20
1.9904
 30
0.0000
 42
1.0000
  0
VERTEX
  8
22
 10
44.5438
 20
2.0920
 30
0.0000
  0
SEQEND
  8
0
  0
POLYLINE
  8
21
 66
1
 10
0.0000
 20
0.0000
 30
0.0000
 40
0.2032
 41
0.2032
 70
0
  0
VERTEX
  8
21
 10
23.2506
 20
13.5086
 30
0.0000
  0
VERTEX
  8
21
 10
23.2506
 20
3.3206
 30
0.0000
  0
SEQEND
  8
0
  0
POLYLINE
  8
21
 66
1
 10
0.0000
 20
0.0000
 30
0.0000
 40
0.1016
 41
0.1016
 70
0
  0
VERTEX
  8
21
 10
23.1998
 20
3.3206
 30
0.0000
 42
1.0000
  0
VERTEX
  8
21
 10
23.3014
 20
3.3206
 30
0.0000
  0
SEQEND
  8
0
  0
POLYLINE
  8
21
 66
1
 10
0.0000
 20
0.0000
 30
0.0000
 40
0.1016
 41
0.1016
 70
0
  0
VERTEX
  8
21
 10
23.3014
 20
13.5086
 30
0.0000
 42
1.0000
  0
VERTEX
  8
21
 10
23.1998
 20
13.5086
 30
0.0000
  0
SEQEND
  8
0
  0
INSERT
  8
21
  2
RECT
 10
24.0028
 20
5.0110
 30
0.0000
 41
0.9652
 42
1.6764
 43
1.0000
 50
90.0000
  0
INSERT
  8
21
  2
RECT
 10
24.0028
 20
6.7128
 30
0.0000
 41
0.9652
 42
1.6764
 43
1.0000
 50
90.0000
  0
INSERT
  8
21
  2
RECT
 10
24.0028
 20
8.4146
 30
0.0000
 41
0.9652
 42
1.6764
 43
1.0000
 50
90.0000
  0
INSERT
  8
21
  2
RECT
 10
24.0028
 20
10.1164
 30
0.0000
 41
0.9652
 42
1.6764
 43
1.0000
 50
90.0000
  0
INSERT
  8
21
  2
RECT
 10
24.0028
 20
11.8182
 30
0.0000
 41
0.9652
 42
1.6764
 43
1.0000
 50
90.0000
  0
LINE
  8
22
 10
22.2530
 20
35.3475
 30
0.0000
 11
17.8717
 21
37.5416
 31
0.0000
  0
LINE
  8
22
 10
17.8717
 20
37.5416
 30
0.0000
 11
17.4687
 21
36.7368
 31
0.0000
  0
LINE
  8
22
 10
18.8092
 20
34.9472
 30
0.0000
 11
16.1268
 21
36.2904
 31
0.0000
  0
LINE
  8
22
 10
16.1268
 20
36.2904
 30
0.0000
 11
16.0372
 21
36.1116
 31
0.0000
  0
LINE
  8
22
 10
16.0372
 20
36.1116
 30
0.0000
 11
18.7197
 21
34.7683
 31
0.0000
  0
LINE
  8
22
 10
17.5107
 20
32.3541
 30
0.0000
 11
14.8283
 21
33.6974
 31
0.0000
  0
LINE
  8
22
 10
14.8283
 20
33.6974
 30
0.0000
 11
14.7835
 21
33.6080
 31
0.0000
  0
LINE
  8
22
 10
14.7835
 20
33.6080
 30
0.0000
 11
17.4660
 21
32.2647
 31
0.0000
  0
LINE
  8
22
 10
17.4660
 20
32.2647
 30
0.0000
 11
17.3764
 21
32.0859
 31
0.0000
  0
LINE
  8
22
 10
17.3764
 20
32.0859
 30
0.0000
 11
14.6940
 21
33.4291
 31
0.0000
  0
LINE
  8
22
 10
14.6940
 20
33.4291
 30
0.0000
 11
14.6492
 21
33.3397
 31
0.0000
  0
LINE
  8
22
 10
14.6492
 20
33.3397
 30
0.0000
 11
17.3316
 21
31.9964
 31
0.0000
  0
LINE
  8
22
 10
19.2570
 20
35.8413
 30
0.0000
 11
18.8092
 21
34.9472
 31
0.0000
  0
LINE
  8
22
 10
18.7197
 20
34.7683
 30
0.0000
 11
18.1824
 21
33.6953
 31
0.0000
  0
LINE
  8
22
 10
18.0033
 20
33.3377
 30
0.0000
 11
17.5107
 21
32.3541
 31
0.0000
  0
LINE
  8
22
 10
17.3316
 20
31.9964
 30
0.0000
 11
16.8391
 21
31.0129
 31
0.0000
  0
LINE
  8
22
 10
16.8391
 20
31.0129
 30
0.0000
 11
15.0508
 21
31.9084
 31
0.0000
  0
LINE
  8
22
 10
19.2570
 20
35.8413
 30
0.0000
 11
17.4687
 21
36.7368
 31
0.0000
  0
LINE
  8
22
 10
18.1824
 20
33.6953
 30
0.0000
 11
16.3941
 21
34.5909
 31
0.0000
  0
LINE
  8
22
 10
16.3941
 20
34.5909
 30
0.0000
 11
16.2150
 21
34.2332
 31
0.0000
  0
LINE
  8
22
 10
16.2150
 20
34.2332
 30
0.0000
 11
18.0033
 21
33.3377
 31
0.0000
  0
LINE
  8
22
 10
22.2568
 20
35.3415
 30
0.0000
 11
21.6971
 21
34.2238
 31
0.0000
  0
LINE
  8
22
 10
21.6971
 20
34.2238
 30
0.0000
 11
21.0255
 21
32.8826
 31
0.0000
  0
LINE
  8
22
 10
21.0255
 20
32.8826
 30
0.0000
 11
20.3539
 21
31.5414
 31
0.0000
  0
LINE
  8
22
 10
20.3539
 20
31.5414
 30
0.0000
 11
19.6822
 21
30.2001
 31
0.0000
  0
LINE
  8
22
 10
19.6822
 20
30.2001
 30
0.0000
 11
19.0106
 21
28.8589
 31
0.0000
  0
LINE
  8
22
 10
19.0106
 20
28.8589
 30
0.0000
 11
18.3389
 21
27.5177
 31
0.0000
  0
LINE
  8
22
 10
18.3389
 20
27.5177
 30
0.0000
 11
17.6673
 21
26.1764
 31
0.0000
  0
LINE
  8
22
 10
17.6673
 20
26.1764
 30
0.0000
 11
16.9957
 21
24.8352
 31
0.0000
  0
LINE
  8
22
 10
16.9957
 20
24.8352
 30
0.0000
 11
16.3240
 21
23.4940
 31
0.0000
  0
LINE
  8
22
 10
16.3240
 20
23.4940
 30
0.0000
 11
15.6524
 21
22.1527
 31
0.0000
  0
LINE
  8
22
 10
15.6524
 20
22.1527
 30
0.0000
 11
14.9807
 21
20.8115
 31
0.0000
  0
LINE
  8
22
 10
14.9807
 20
20.8115
 30
0.0000
 11
14.3091
 21
19.4703
 31
0.0000
  0
LINE
  8
22
 10
14.3091
 20
19.4703
 30
0.0000
 11
13.7494
 21
18.3526
 31
0.0000
  0
LINE
  8
22
 10
13.7494
 20
18.3526
 30
0.0000
 11
9.3681
 21
20.5466
 31
0.0000
  0
LINE
  8
22
 10
16.1227
 20
29.5822
 30
0.0000
 11
13.4402
 21
30.9255
 31
0.0000
  0
LINE
  8
22
 10
13.4402
 20
30.9255
 30
0.0000
 11
13.3507
 21
30.7467
 31
0.0000
  0
LINE
  8
22
 10
13.3507
 20
30.7467
 30
0.0000
 11
16.0331
 21
29.4034
 31
0.0000
  0
LINE
  8
22
 10
13.4361
 20
24.2173
 30
0.0000
 11
10.7537
 21
25.5606
 31
0.0000
  0
LINE
  8
22
 10
10.7537
 20
25.5606
 30
0.0000
 11
10.6641
 21
25.3818
 31
0.0000
  0
LINE
  8
22
 10
10.6641
 20
25.3818
 30
0.0000
 11
13.3466
 21
24.0385
 31
0.0000
  0
LINE
  8
22
 10
14.8242
 20
26.9892
 30
0.0000
 11
12.1417
 21
28.3325
 31
0.0000
  0
LINE
  8
22
 10
12.1417
 20
28.3325
 30
0.0000
 11
12.0969
 21
28.2430
 31
0.0000
  0
LINE
  8
22
 10
12.0969
 20
28.2430
 30
0.0000
 11
14.7794
 21
26.8998
 31
0.0000
  0
LINE
  8
22
 10
14.7794
 20
26.8998
 30
0.0000
 11
14.6899
 21
26.7209
 31
0.0000
  0
LINE
  8
22
 10
14.6899
 20
26.7209
 30
0.0000
 11
12.0074
 21
28.0642
 31
0.0000
  0
LINE
  8
22
 10
12.0074
 20
28.0642
 30
0.0000
 11
11.9626
 21
27.9748
 31
0.0000
  0
LINE
  8
22
 10
11.9626
 20
27.9748
 30
0.0000
 11
14.6451
 21
26.6315
 31
0.0000
  0
LINE
  8
22
 10
12.1376
 20
21.6243
 30
0.0000
 11
9.4552
 21
22.9675
 31
0.0000
  0
LINE
  8
22
 10
9.4552
 20
22.9675
 30
0.0000
 11
9.4104
 21
22.8781
 31
0.0000
  0
LINE
  8
22
 10
9.4104
 20
22.8781
 30
0.0000
 11
12.0929
 21
21.5348
 31
0.0000
  0
LINE
  8
22
 10
12.0929
 20
21.5348
 30
0.0000
 11
12.0033
 21
21.3560
 31
0.0000
  0
LINE
  8
22
 10
12.0033
 20
21.3560
 30
0.0000
 11
9.3208
 21
22.6993
 31
0.0000
  0
LINE
  8
22
 10
9.3208
 20
22.6993
 30
0.0000
 11
9.2761
 21
22.6099
 31
0.0000
  0
LINE
  8
22
 10
9.2761
 20
22.6099
 30
0.0000
 11
11.9585
 21
21.2666
 31
0.0000
  0
LINE
  8
22
 10
9.3681
 20
20.5466
 30
0.0000
 11
9.7710
 21
21.3513
 31
0.0000
  0
LINE
  8
22
 10
9.7710
 20
21.3513
 30
0.0000
 11
11.5593
 21
20.4558
 31
0.0000
  0
LINE
  8
22
 10
11.5593
 20
20.4558
 30
0.0000
 11
11.9623
 21
21.2606
 31
0.0000
  0
LINE
  8
22
 10
16.1265
 20
29.5762
 30
0.0000
 11
16.6638
 21
30.6492
 31
0.0000
  0
LINE
  8
22
 10
16.6638
 20
30.6492
 30
0.0000
 11
14.8755
 21
31.5447
 31
0.0000
  0
LINE
  8
22
 10
14.8755
 20
31.5447
 30
0.0000
 11
15.0546
 21
31.9024
 31
0.0000
  0
LINE
  8
22
 10
16.0331
 20
29.4034
 30
0.0000
 11
15.5182
 21
28.3751
 31
0.0000
  0
LINE
  8
22
 10
15.3391
 20
28.0175
 30
0.0000
 11
14.8242
 21
26.9892
 31
0.0000
  0
LINE
  8
22
 10
15.5182
 20
28.3751
 30
0.0000
 11
13.7299
 21
29.2706
 31
0.0000
  0
LINE
  8
22
 10
13.7299
 20
29.2706
 30
0.0000
 11
13.5508
 21
28.9130
 31
0.0000
  0
LINE
  8
22
 10
13.5508
 20
28.9130
 30
0.0000
 11
15.3391
 21
28.0175
 31
0.0000
  0
LINE
  8
22
 10
14.6451
 20
26.6315
 30
0.0000
 11
14.1973
 21
25.7374
 31
0.0000
  0
LINE
  8
22
 10
14.0182
 20
25.3797
 30
0.0000
 11
13.4361
 21
24.2173
 31
0.0000
  0
LINE
  8
22
 10
14.1973
 20
25.7374
 30
0.0000
 11
12.4090
 21
26.6329
 31
0.0000
  0
LINE
  8
22
 10
12.4090
 20
26.6329
 30
0.0000
 11
12.2299
 21
26.2752
 31
0.0000
  0
LINE
  8
22
 10
12.2299
 20
26.2752
 30
0.0000
 11
14.0182
 21
25.3797
 31
0.0000
  0
LINE
  8
22
 10
13.3466
 20
24.0385
 30
0.0000
 11
12.8764
 21
23.0996
 31
0.0000
  0
LINE
  8
22
 10
12.6973
 20
22.7420
 30
0.0000
 11
12.1376
 21
21.6243
 31
0.0000
  0
LINE
  8
22
 10
12.8764
 20
23.0996
 30
0.0000
 11
11.0881
 21
23.9951
 31
0.0000
  0
LINE
  8
22
 10
11.0881
 20
23.9951
 30
0.0000
 11
10.9090
 21
23.6375
 31
0.0000
  0
LINE
  8
22
 10
10.9090
 20
23.6375
 30
0.0000
 11
12.6973
 21
22.7420
 31
0.0000
  0
LINE
  8
22
 10
15.0555
 20
33.4676
 30
0.0000
 11
15.2120
 21
33.3333
 31
0.0000
  0
ARC
  8
22
 10
15.3546
 20
33.4996
 30
0.0000
 40
0.2190
 50
229.3638
 51
285.5088
  0
LINE
  8
22
 10
14.9660
 20
33.2888
 30
0.0000
 11
15.1672
 21
33.2439
 31
0.0000
  0
ARC
  8
22
 10
15.1196
 20
33.0301
 30
0.0000
 40
0.2190
 50
21.2915
 51
77.4364
  0
LINE
  8
22
 10
12.2794
 20
27.9238
 30
0.0000
 11
12.4807
 21
27.8790
 31
0.0000
  0
ARC
  8
22
 10
12.4330
 20
27.6652
 30
0.0000
 40
0.2190
 50
21.2915
 51
77.4364
  0
LINE
  8
22
 10
12.3690
 20
28.1027
 30
0.0000
 11
12.5254
 21
27.9684
 31
0.0000
  0
ARC
  8
22
 10
12.6681
 20
28.1346
 30
0.0000
 40
0.2190
 50
229.3638
 51
285.5088
  0
LINE
  8
22
 10
9.6377
 20
22.7601
 30
0.0000
 11
9.7942
 21
22.6259
 31
0.0000
  0
ARC
  8
22
 10
9.9368
 20
22.7921
 30
0.0000
 40
0.2190
 50
229.3638
 51
285.5088
  0
LINE
  8
22
 10
9.5482
 20
22.5813
 30
0.0000
 11
9.7494
 21
22.5365
 31
0.0000
  0
ARC
  8
22
 10
9.7018
 20
22.3227
 30
0.0000
 40
0.2190
 50
21.2915
 51
77.4364
  0
LINE
  8
22
 10
21.6971
 20
34.2238
 30
0.0000
 11
22.1442
 21
33.9999
 31
0.0000
  0
LINE
  8
22
 10
22.1442
 20
33.9999
 30
0.0000
 11
21.4726
 21
32.6587
 31
0.0000
  0
LINE
  8
22
 10
21.4726
 20
32.6587
 30
0.0000
 11
21.0255
 21
32.8826
 31
0.0000
  0
LINE
  8
22
 10
20.3539
 20
31.5414
 30
0.0000
 11
20.8009
 21
31.3175
 31
0.0000
  0
LINE
  8
22
 10
20.8009
 20
31.3175
 30
0.0000
 11
20.1293
 21
29.9762
 31
0.0000
  0
LINE
  8
22
 10
20.1293
 20
29.9762
 30
0.0000
 11
19.6822
 21
30.2001
 31
0.0000
  0
LINE
  8
22
 10
19.0106
 20
28.8589
 30
0.0000
 11
19.4577
 21
28.6350
 31
0.0000
  0
LINE
  8
22
 10
19.4577
 20
28.6350
 30
0.0000
 11
18.7860
 21
27.2938
 31
0.0000
  0
LINE
  8
22
 10
18.7860
 20
27.2938
 30
0.0000
 11
18.3389
 21
27.5177
 31
0.0000
  0
LINE
  8
22
 10
17.6673
 20
26.1764
 30
0.0000
 11
18.1144
 21
25.9525
 31
0.0000
  0
LINE
  8
22
 10
18.1144
 20
25.9525
 30
0.0000
 11
17.4427
 21
24.6113
 31
0.0000
  0
LINE
  8
22
 10
17.4427
 20
24.6113
 30
0.0000
 11
16.9957
 21
24.8352
 31
0.0000
  0
LINE
  8
22
 10
16.3240
 20
23.4940
 30
0.0000
 11
16.7711
 21
23.2701
 31
0.0000
  0
LINE
  8
22
 10
16.7711
 20
23.2701
 30
0.0000
 11
16.0995
 21
21.9289
 31
0.0000
  0
LINE
  8
22
 10
16.0995
 20
21.9289
 30
0.0000
 11
15.6524
 21
22.1527
 31
0.0000
  0
LINE
  8
22
 10
14.9807
 20
20.8115
 30
0.0000
 11
15.4278
 21
20.5876
 31
0.0000
  0
LINE
  8
22
 10
15.4278
 20
20.5876
 30
0.0000
 11
14.7562
 21
19.2464
 31
0.0000
  0
LINE
  8
22
 10
14.7562
 20
19.2464
 30
0.0000
 11
14.3091
 21
19.4703
 31
0.0000
  0
LINE
  8
22
 10
64.9613
 20
18.5808
 30
0.0000
 11
69.3426
 21
16.3867
 31
0.0000
  0
LINE
  8
22
 10
69.3426
 20
16.3867
 30
0.0000
 11
69.7456
 21
17.1915
 31
0.0000
  0
LINE
  8
22
 10
68.4050
 20
18.9812
 30
0.0000
 11
71.0875
 21
17.6379
 31
0.0000
  0
LINE
  8
22
 10
71.0875
 20
17.6379
 30
0.0000
 11
71.1771
 21
17.8167
 31
0.0000
  0
LINE
  8
22
 10
71.1771
 20
17.8167
 30
0.0000
 11
68.4946
 21
19.1600
 31
0.0000
  0
LINE
  8
22
 10
69.7035
 20
21.5742
 30
0.0000
 11
72.3860
 21
20.2309
 31
0.0000
  0
LINE
  8
22
 10
72.3860
 20
20.2309
 30
0.0000
 11
72.4308
 21
20.3203
 31
0.0000
  0
LINE
  8
22
 10
72.4308
 20
20.3203
 30
0.0000
 11
69.7483
 21
21.6636
 31
0.0000
  0
LINE
  8
22
 10
69.7483
 20
21.6636
 30
0.0000
 11
69.8379
 21
21.8425
 31
0.0000
  0
LINE
  8
22
 10
69.8379
 20
21.8425
 30
0.0000
 11
72.5203
 21
20.4992
 31
0.0000
  0
LINE
  8
22
 10
72.5203
 20
20.4992
 30
0.0000
 11
72.5651
 21
20.5886
 31
0.0000
  0
LINE
  8
22
 10
72.5651
 20
20.5886
 30
0.0000
 11
69.8826
 21
21.9319
 31
0.0000
  0
LINE
  8
22
 10
67.9573
 20
18.0870
 30
0.0000
 11
68.4050
 21
18.9812
 31
0.0000
  0
LINE
  8
22
 10
68.4946
 20
19.1600
 30
0.0000
 11
69.0319
 21
20.2330
 31
0.0000
  0
LINE
  8
22
 10
69.2110
 20
20.5906
 30
0.0000
 11
69.7035
 21
21.5742
 31
0.0000
  0
LINE
  8
22
 10
69.8826
 20
21.9319
 30
0.0000
 11
70.3752
 21
22.9154
 31
0.0000
  0
LINE
  8
22
 10
70.3752
 20
22.9154
 30
0.0000
 11
72.1635
 21
22.0199
 31
0.0000
  0
LINE
  8
22
 10
67.9573
 20
18.0870
 30
0.0000
 11
69.7456
 21
17.1915
 31
0.0000
  0
LINE
  8
22
 10
69.0319
 20
20.2330
 30
0.0000
 11
70.8202
 21
19.3375
 31
0.0000
  0
LINE
  8
22
 10
70.8202
 20
19.3375
 30
0.0000
 11
70.9993
 21
19.6951
 31
0.0000
  0
LINE
  8
22
 10
70.9993
 20
19.6951
 30
0.0000
 11
69.2110
 21
20.5906
 31
0.0000
  0
LINE
  8
22
 10
64.9575
 20
18.5868
 30
0.0000
 11
65.5172
 21
19.7045
 31
0.0000
  0
LINE
  8
22
 10
65.5172
 20
19.7045
 30
0.0000
 11
66.1888
 21
21.0457
 31
0.0000
  0
LINE
  8
22
 10
66.1888
 20
21.0457
 30
0.0000
 11
66.8604
 21
22.3870
 31
0.0000
  0
LINE
  8
22
 10
66.8604
 20
22.3870
 30
0.0000
 11
67.5321
 21
23.7282
 31
0.0000
  0
LINE
  8
22
 10
67.5321
 20
23.7282
 30
0.0000
 11
68.2037
 21
25.0694
 31
0.0000
  0
LINE
  8
22
 10
68.2037
 20
25.0694
 30
0.0000
 11
68.8753
 21
26.4107
 31
0.0000
  0
LINE
  8
22
 10
68.8753
 20
26.4107
 30
0.0000
 11
69.5470
 21
27.7519
 31
0.0000
  0
LINE
  8
22
 10
69.5470
 20
27.7519
 30
0.0000
 11
70.2186
 21
29.0931
 31
0.0000
  0
LINE
  8
22
 10
70.2186
 20
29.0931
 30
0.0000
 11
70.8903
 21
30.4344
 31
0.0000
  0
LINE
  8
22
 10
70.8903
 20
30.4344
 30
0.0000
 11
71.5619
 21
31.7756
 31
0.0000
  0
LINE
  8
22
 10
71.5619
 20
31.7756
 30
0.0000
 11
72.2335
 21
33.1168
 31
0.0000
  0
LINE
  8
22
 10
72.2335
 20
33.1168
 30
0.0000
 11
72.9052
 21
34.4581
 31
0.0000
  0
LINE
  8
22
 10
72.9052
 20
34.4581
 30
0.0000
 11
73.4649
 21
35.5757
 31
0.0000
  0
LINE
  8
22
 10
73.4649
 20
35.5757
 30
0.0000
 11
77.8462
 21
33.3817
 31
0.0000
  0
LINE
  8
22
 10
71.0916
 20
24.3461
 30
0.0000
 11
73.7741
 21
23.0028
 31
0.0000
  0
LINE
  8
22
 10
73.7741
 20
23.0028
 30
0.0000
 11
73.8636
 21
23.1816
 31
0.0000
  0
LINE
  8
22
 10
73.8636
 20
23.1816
 30
0.0000
 11
71.1812
 21
24.5249
 31
0.0000
  0
LINE
  8
22
 10
73.7782
 20
29.7110
 30
0.0000
 11
76.4606
 21
28.3677
 31
0.0000
  0
LINE
  8
22
 10
76.4606
 20
28.3677
 30
0.0000
 11
76.5502
 21
28.5466
 31
0.0000
  0
LINE
  8
22
 10
76.5502
 20
28.5466
 30
0.0000
 11
73.8677
 21
29.8898
 31
0.0000
  0
LINE
  8
22
 10
72.3901
 20
26.9391
 30
0.0000
 11
75.0726
 21
25.5959
 31
0.0000
  0
LINE
  8
22
 10
75.0726
 20
25.5959
 30
0.0000
 11
75.1173
 21
25.6853
 31
0.0000
  0
LINE
  8
22
 10
75.1173
 20
25.6853
 30
0.0000
 11
72.4349
 21
27.0286
 31
0.0000
  0
LINE
  8
22
 10
72.4349
 20
27.0286
 30
0.0000
 11
72.5244
 21
27.2074
 31
0.0000
  0
LINE
  8
22
 10
72.5244
 20
27.2074
 30
0.0000
 11
75.2069
 21
25.8641
 31
0.0000
  0
LINE
  8
22
 10
75.2069
 20
25.8641
 30
0.0000
 11
75.2517
 21
25.9535
 31
0.0000
  0
LINE
  8
22
 10
75.2517
 20
25.9535
 30
0.0000
 11
72.5692
 21
27.2968
 31
0.0000
  0
LINE
  8
22
 10
75.0767
 20
32.3041
 30
0.0000
 11
77.7591
 21
30.9608
 31
0.0000
  0
LINE
  8
22
 10
77.7591
 20
30.9608
 30
0.0000
 11
77.8039
 21
31.0502
 31
0.0000
  0
LINE
  8
22
 10
77.8039
 20
31.0502
 30
0.0000
 11
75.1214
 21
32.3935
 31
0.0000
  0
LINE
  8
22
 10
75.1214
 20
32.3935
 30
0.0000
 11
75.2110
 21
32.5723
 31
0.0000
  0
LINE
  8
22
 10
75.2110
 20
32.5723
 30
0.0000
 11
77.8934
 21
31.2290
 31
0.0000
  0
LINE
  8
22
 10
77.8934
 20
31.2290
 30
0.0000
 11
77.9382
 21
31.3184
 31
0.0000
  0
LINE
  8
22
 10
77.9382
 20
31.3184
 30
0.0000
 11
75.2558
 21
32.6617
 31
0.0000
  0
LINE
  8
22
 10
77.8462
 20
33.3817
 30
0.0000
 11
77.4433
 21
32.5770
 31
0.0000
  0
LINE
  8
22
 10
77.4433
 20
32.5770
 30
0.0000
 11
75.6549
 21
33.4725
 31
0.0000
  0
LINE
  8
22
 10
75.6549
 20
33.4725
 30
0.0000
 11
75.2520
 21
32.6678
 31
0.0000
  0
LINE
  8
22
 10
71.0878
 20
24.3521
 30
0.0000
 11
70.5505
 21
23.2791
 31
0.0000
  0
LINE
  8
22
 10
70.5505
 20
23.2791
 30
0.0000
 11
72.3388
 21
22.3836
 31
0.0000
  0
LINE
  8
22
 10
72.3388
 20
22.3836
 30
0.0000
 11
72.1597
 21
22.0260
 31
0.0000
  0
LINE
  8
22
 10
71.1812
 20
24.5249
 30
0.0000
 11
71.6961
 21
25.5532
 31
0.0000
  0
LINE
  8
22
 10
71.8752
 20
25.9109
 30
0.0000
 11
72.3901
 21
26.9391
 31
0.0000
  0
LINE
  8
22
 10
71.6961
 20
25.5532
 30
0.0000
 11
73.4844
 21
24.6577
 31
0.0000
  0
LINE
  8
22
 10
73.4844
 20
24.6577
 30
0.0000
 11
73.6635
 21
25.0153
 31
0.0000
  0
LINE
  8
22
 10
73.6635
 20
25.0153
 30
0.0000
 11
71.8752
 21
25.9109
 31
0.0000
  0
LINE
  8
22
 10
72.5692
 20
27.2968
 30
0.0000
 11
73.0170
 21
28.1910
 31
0.0000
  0
LINE
  8
22
 10
73.1961
 20
28.5486
 30
0.0000
 11
73.7782
 21
29.7110
 31
0.0000
  0
LINE
  8
22
 10
73.0170
 20
28.1910
 30
0.0000
 11
74.8053
 21
27.2954
 31
0.0000
  0
LINE
  8
22
 10
74.8053
 20
27.2954
 30
0.0000
 11
74.9844
 21
27.6531
 31
0.0000
  0
LINE
  8
22
 10
74.9844
 20
27.6531
 30
0.0000
 11
73.1961
 21
28.5486
 31
0.0000
  0
LINE
  8
22
 10
73.8677
 20
29.8898
 30
0.0000
 11
74.3379
 21
30.8287
 31
0.0000
  0
LINE
  8
22
 10
74.5170
 20
31.1864
 30
0.0000
 11
75.0767
 21
32.3041
 31
0.0000
  0
LINE
  8
22
 10
74.3379
 20
30.8287
 30
0.0000
 11
76.1262
 21
29.9332
 31
0.0000
  0
LINE
  8
22
 10
76.1262
 20
29.9332
 30
0.0000
 11
76.3053
 21
30.2909
 31
0.0000
  0
LINE
  8
22
 10
76.3053
 20
30.2909
 30
0.0000
 11
74.5170
 21
31.1864
 31
0.0000
  0
LINE
  8
22
 10
72.1587
 20
20.4607
 30
0.0000
 11
72.0023
 21
20.5950
 31
0.0000
  0
ARC
  8
22
 10
71.8596
 20
20.4288
 30
0.0000
 40
0.2190
 50
49.3638
 51
105.5088
  0
LINE
  8
22
 10
72.2483
 20
20.6395
 30
0.0000
 11
72.0471
 21
20.6844
 31
0.0000
  0
ARC
  8
22
 10
72.0947
 20
20.8982
 30
0.0000
 40
0.2190
 50
201.2915
 51
257.4364
  0
LINE
  8
22
 10
74.9348
 20
26.0045
 30
0.0000
 11
74.7336
 21
26.0493
 31
0.0000
  0
ARC
  8
22
 10
74.7813
 20
26.2631
 30
0.0000
 40
0.2190
 50
201.2915
 51
257.4364
  0
LINE
  8
22
 10
74.8453
 20
25.8256
 30
0.0000
 11
74.6889
 21
25.9599
 31
0.0000
  0
ARC
  8
22
 10
74.5462
 20
25.7937
 30
0.0000
 40
0.2190
 50
49.3638
 51
105.5088
  0
LINE
  8
22
 10
77.5766
 20
31.1682
 30
0.0000
 11
77.4201
 21
31.3024
 31
0.0000
  0
ARC
  8
22
 10
77.2775
 20
31.1362
 30
0.0000
 40
0.2190
 50
49.3638
 51
105.5088
  0
LINE
  8
22
 10
77.6661
 20
31.3470
 30
0.0000
 11
77.4649
 21
31.3919
 31
0.0000
  0
ARC
  8
22
 10
77.5125
 20
31.6057
 30
0.0000
 40
0.2190
 50
201.2915
 51
257.4364
  0
LINE
  8
22
 10
65.5172
 20
19.7045
 30
0.0000
 11
65.0701
 21
19.9284
 31
0.0000
  0
LINE
  8
22
 10
65.0701
 20
19.9284
 30
0.0000
 11
65.7417
 21
21.2696
 31
0.0000
  0
LINE
  8
22
 10
65.7417
 20
21.2696
 30
0.0000
 11
66.1888
 21
21.0457
 31
0.0000
  0
LINE
  8
22
 10
66.8604
 20
22.3870
 30
0.0000
 11
66.4134
 21
22.6109
 31
0.0000
  0
LINE
  8
22
 10
66.4134
 20
22.6109
 30
0.0000
 11
67.0850
 21
23.9521
 31
0.0000
  0
LINE
  8
22
 10
67.0850
 20
23.9521
 30
0.0000
 11
67.5321
 21
23.7282
 31
0.0000
  0
LINE
  8
22
 10
68.2037
 20
25.0694
 30
0.0000
 11
67.7566
 21
25.2933
 31
0.0000
  0
LINE
  8
22
 10
67.7566
 20
25.2933
 30
0.0000
 11
68.4283
 21
26.6345
 31
0.0000
  0
LINE
  8
22
 10
68.4283
 20
26.6345
 30
0.0000
 11
68.8753
 21
26.4107
 31
0.0000
  0
LINE
  8
22
 10
69.5470
 20
27.7519
 30
0.0000
 11
69.0999
 21
27.9758
 31
0.0000
  0
LINE
  8
22
 10
69.0999
 20
27.9758
 30
0.0000
 11
69.7715
 21
29.3170
 31
0.0000
  0
LINE
  8
22
 10
69.7715
 20
29.3170
 30
0.0000
 11
70.2186
 21
29.0931
 31
0.0000
  0
LINE
  8
22
 10
70.8903
 20
30.4344
 30
0.0000
 11
70.4432
 21
30.6582
 31
0.0000
  0
LINE
  8
22
 10
70.4432
 20
30.6582
 30
0.0000
 11
71.1148
 21
31.9995
 31
0.0000
  0
LINE
  8
22
 10
71.1148
 20
31.9995
 30
0.0000
 11
71.5619
 21
31.7756
 31
0.0000
  0
LINE
  8
22
 10
72.2335
 20
33.1168
 30
0.0000
 11
71.7865
 21
33.3407
 31
0.0000
  0
LINE
  8
22
 10
71.7865
 20
33.3407
 30
0.0000
 11
72.4581
 21
34.6819
 31
0.0000
  0
LINE
  8
22
 10
72.4581
 20
34.6819
 30
0.0000
 11
72.9052
 21
34.4581
 31
0.0000
  0
POLYLINE
  8
21
 66
1
 10
0.0000
 20
0.0000
 30
0.0000
 40
0.1524
 41
0.1524
 70
0
  0
VERTEX
  8
21
 10
46.3012
 20
25.6966
 30
0.0000
  0
VERTEX
  8
21
 10
42.9481
 20
24.0175
 30
0.0000
  0
SEQEND
  8
0
  0
POLYLINE
  8
21
 66
1
 10
0.0000
 20
0.0000
 30
0.0000
 40
0.0762
 41
0.0762
 70
0
  0
VERTEX
  8
21
 10
42.9311
 20
24.0516
 30
0.0000
 42
1.0000
  0
VERTEX
  8
21
 10
42.9652
 20
23.9834
 30
0.0000
  0
SEQEND
  8
0
  0
POLYLINE
  8
21
 66
1
 10
0.0000
 20
0.0000
 30
0.0000
 40
0.0762
 41
0.0762
 70
0
  0
VERTEX
  8
21
 10
46.3183
 20
25.6625
 30
0.0000
 42
1.0000
  0
VERTEX
  8
21
 10
46.2842
 20
25.7306
 30
0.0000
  0
SEQEND
  8
0
  0
POLYLINE
  8
21
 66
1
 10
0.0000
 20
0.0000
 30
0.0000
 40
0.1524
 41
0.1524
 70
0
  0
VERTEX
  8
21
 10
40.7094
 20
28.4883
 30
0.0000
  0
VERTEX
  8
21
 10
44.0624
 20
30.1674
 30
0.0000
  0
SEQEND
  8
0
  0
POLYLINE
  8
21
 66
1
 10
0.0000
 20
0.0000
 30
0.0000
 40
0.0762
 41
0.0762
 70
0
  0
VERTEX
  8
21
 10
44.0795
 20
30.1333
 30
0.0000
 42
1.0000
  0
VERTEX
  8
21
 10
44.0454
 20
30.2014
 30
0.0000
  0
SEQEND
  8
0
  0
POLYLINE
  8
21
 66
1
 10
0.0000
 20
0.0000
 30
0.0000
 40
0.0762
 41
0.0762
 70
0
  0
VERTEX
  8
21
 10
40.6923
 20
28.5223
 30
0.0000
 42
1.0000
  0
VERTEX
  8
21
 10
40.7264
 20
28.4542
 30
0.0000
  0
SEQEND
  8
0
  0
POLYLINE
  8
21
 66
1
 10
0.0000
 20
0.0000
 30
0.0000
 40
0.1524
 41
0.1524
 70
0
  0
VERTEX
  8
21
 10
45.5408
 20
25.6059
 30
0.0000
 42
1.0000
  0
VERTEX
  8
21
 10
45.5408
 20
26.2559
 30
0.0000
 42
1.0000
  0
VERTEX
  8
21
 10
45.5408
 20
25.6059
 30
0.0000
  0
SEQEND
  8
0
  0
LINE
  8
22
 10
69.3250
 20
37.6565
 30
0.0000
 11
79.5631
 21
32.5297
 31
0.0000
  0
LINE
  8
22
 10
78.9873
 20
41.6532
 30
0.0000
 11
72.8176
 21
44.7427
 31
0.0000
  0
LINE
  8
22
 10
69.1911
 20
38.0591
 30
0.0000
 11
69.6388
 21
38.9533
 31
0.0000
  0
LINE
  8
22
 10
69.6388
 20
38.9533
 30
0.0000
 11
70.1985
 21
40.0709
 31
0.0000
  0
LINE
  8
22
 10
70.1985
 20
40.0709
 30
0.0000
 11
71.4299
 21
42.5299
 31
0.0000
  0
LINE
  8
22
 10
71.4299
 20
42.5299
 30
0.0000
 11
72.0120
 21
43.6923
 31
0.0000
  0
LINE
  8
22
 10
72.0120
 20
43.6923
 30
0.0000
 11
72.4821
 21
44.6311
 31
0.0000
  0
LINE
  8
22
 10
75.5843
 20
34.8576
 30
0.0000
 11
76.2783
 21
36.2436
 31
0.0000
  0
LINE
  8
22
 10
76.3679
 20
36.4224
 30
0.0000
 11
77.0843
 21
37.8530
 31
0.0000
  0
LINE
  8
22
 10
78.2037
 20
40.0884
 30
0.0000
 11
78.9873
 21
41.6532
 31
0.0000
  0
LINE
  8
22
 10
76.2783
 20
36.2436
 30
0.0000
 11
80.0785
 21
34.3406
 31
0.0000
  0
LINE
  8
22
 10
80.0785
 20
34.3406
 30
0.0000
 11
80.1680
 21
34.5194
 31
0.0000
  0
LINE
  8
22
 10
80.1680
 20
34.5194
 30
0.0000
 11
76.3679
 21
36.4224
 31
0.0000
  0
LINE
  8
22
 10
78.0246
 20
39.7308
 30
0.0000
 11
81.8694
 21
37.8054
 31
0.0000
  0
LINE
  8
22
 10
81.8694
 20
37.8054
 30
0.0000
 11
81.9142
 21
37.8948
 31
0.0000
  0
LINE
  8
22
 10
81.9142
 20
37.8948
 30
0.0000
 11
78.1588
 21
39.7754
 31
0.0000
  0
LINE
  8
22
 10
78.1588
 20
39.7754
 30
0.0000
 11
78.2483
 21
39.9542
 31
0.0000
  0
LINE
  8
22
 10
78.2483
 20
39.9542
 30
0.0000
 11
82.0038
 21
38.0736
 31
0.0000
  0
LINE
  8
22
 10
82.0038
 20
38.0736
 30
0.0000
 11
82.0485
 21
38.1631
 31
0.0000
  0
LINE
  8
22
 10
82.0485
 20
38.1631
 30
0.0000
 11
78.2037
 21
40.0884
 31
0.0000
  0
LINE
  8
22
 10
75.5843
 20
34.8576
 30
0.0000
 11
79.6527
 21
32.8203
 31
0.0000
  0
ARC
  8
22
 10
79.5855
 20
32.6862
 30
0.0000
 40
0.1500
 50
333.4000
 51
63.4000
  0
LINE
  8
22
 10
79.7197
 20
32.6190
 30
0.0000
 11
79.6973
 21
32.5743
 31
0.0000
  0
ARC
  8
22
 10
79.6078
 20
32.6191
 30
0.0000
 40
0.1000
 50
243.4005
 51
333.4005
  0
LINE
  8
22
 10
77.2186
 20
38.1213
 30
0.0000
 11
81.2870
 21
36.0840
 31
0.0000
  0
ARC
  8
22
 10
81.2534
 20
35.9610
 30
0.0000
 40
0.1275
 50
344.7100
 51
74.7100
  0
LINE
  8
22
 10
81.3764
 20
35.9274
 30
0.0000
 11
81.3540
 21
35.8827
 31
0.0000
  0
ARC
  8
22
 10
81.2310
 20
35.9163
 30
0.0000
 40
0.1275
 50
254.7100
 51
344.7100
  0
LINE
  8
22
 10
81.1974
 20
35.7933
 30
0.0000
 11
77.0843
 21
37.8530
 31
0.0000
  0
LINE
  8
22
 10
77.2186
 20
38.1213
 30
0.0000
 11
78.0246
 21
39.7308
 31
0.0000
  0
ARC
  8
22
 10
69.4593
 20
37.9248
 30
0.0000
 40
0.3000
 50
153.4000
 51
243.4000
  0
ARC
  8
22
 10
72.7057
 20
44.5192
 30
0.0000
 40
0.2500
 50
63.4000
 51
153.4000
  0
LINE
  8
22
 10
69.6388
 20
38.9533
 30
0.0000
 11
69.2812
 21
39.1324
 31
0.0000
  0
LINE
  8
22
 10
69.2812
 20
39.1324
 30
0.0000
 11
69.8409
 21
40.2500
 31
0.0000
  0
LINE
  8
22
 10
69.8409
 20
40.2500
 30
0.0000
 11
70.1985
 21
40.0709
 31
0.0000
  0
LINE
  8
22
 10
71.4299
 20
42.5299
 30
0.0000
 11
71.0275
 21
42.7314
 31
0.0000
  0
LINE
  8
22
 10
71.0275
 20
42.7314
 30
0.0000
 11
71.6096
 21
43.8938
 31
0.0000
  0
LINE
  8
22
 10
71.6096
 20
43.8938
 30
0.0000
 11
72.0120
 21
43.6923
 31
0.0000
  0
LINE
  8
22
 10
72.5675
 20
45.1782
 30
0.0000
 11
72.5675
 21
56.6282
 31
0.0000
  0
LINE
  8
22
 10
64.6675
 20
52.0282
 30
0.0000
 11
64.6675
 21
45.1282
 31
0.0000
  0
LINE
  8
22
 10
72.2675
 20
44.8782
 30
0.0000
 11
71.2675
 21
44.8782
 31
0.0000
  0
LINE
  8
22
 10
71.2675
 20
44.8782
 30
0.0000
 11
70.0175
 21
44.8782
 31
0.0000
  0
LINE
  8
22
 10
70.0175
 20
44.8782
 30
0.0000
 11
67.2675
 21
44.8782
 31
0.0000
  0
LINE
  8
22
 10
67.2675
 20
44.8782
 30
0.0000
 11
65.9675
 21
44.8782
 31
0.0000
  0
LINE
  8
22
 10
65.9675
 20
44.8782
 30
0.0000
 11
64.9175
 21
44.8782
 31
0.0000
  0
LINE
  8
22
 10
72.2675
 20
52.0282
 30
0.0000
 11
70.7175
 21
52.0282
 31
0.0000
  0
LINE
  8
22
 10
70.5175
 20
52.0282
 30
0.0000
 11
68.9175
 21
52.0282
 31
0.0000
  0
LINE
  8
22
 10
66.4175
 20
52.0282
 30
0.0000
 11
64.6675
 21
52.0282
 31
0.0000
  0
LINE
  8
22
 10
70.7175
 20
52.0282
 30
0.0000
 11
70.7175
 21
56.2782
 31
0.0000
  0
LINE
  8
22
 10
70.7175
 20
56.2782
 30
0.0000
 11
70.5175
 21
56.2782
 31
0.0000
  0
LINE
  8
22
 10
70.5175
 20
56.2782
 30
0.0000
 11
70.5175
 21
52.0282
 31
0.0000
  0
LINE
  8
22
 10
66.8175
 20
52.0282
 30
0.0000
 11
66.8175
 21
56.3282
 31
0.0000
  0
LINE
  8
22
 10
66.8175
 20
56.3282
 30
0.0000
 11
66.7175
 21
56.3282
 31
0.0000
  0
LINE
  8
22
 10
66.7175
 20
56.3282
 30
0.0000
 11
66.7175
 21
52.1282
 31
0.0000
  0
LINE
  8
22
 10
66.7175
 20
52.1282
 30
0.0000
 11
66.5175
 21
52.1282
 31
0.0000
  0
LINE
  8
22
 10
66.5175
 20
52.1282
 30
0.0000
 11
66.5175
 21
56.3282
 31
0.0000
  0
LINE
  8
22
 10
66.5175
 20
56.3282
 30
0.0000
 11
66.4175
 21
56.3282
 31
0.0000
  0
LINE
  8
22
 10
66.4175
 20
56.3282
 30
0.0000
 11
66.4175
 21
52.0282
 31
0.0000
  0
LINE
  8
22
 10
72.2675
 20
52.0282
 30
0.0000
 11
72.2675
 21
56.5782
 31
0.0000
  0
ARC
  8
22
 10
72.4175
 20
56.5782
 30
0.0000
 40
0.1500
 50
90.0000
 51
180.0000
  0
LINE
  8
22
 10
72.4175
 20
56.7282
 30
0.0000
 11
72.4675
 21
56.7282
 31
0.0000
  0
ARC
  8
22
 10
72.4675
 20
56.6282
 30
0.0000
 40
0.1000
 50
0.0000
 51
90.0000
  0
LINE
  8
22
 10
68.6175
 20
52.0282
 30
0.0000
 11
68.6175
 21
56.5782
 31
0.0000
  0
ARC
  8
22
 10
68.7425
 20
56.6032
 30
0.0000
 40
0.1275
 50
101.3099
 51
191.3099
  0
LINE
  8
22
 10
68.7175
 20
56.7282
 30
0.0000
 11
68.7675
 21
56.7282
 31
0.0000
  0
ARC
  8
22
 10
68.7925
 20
56.6032
 30
0.0000
 40
0.1275
 50
11.3099
 51
101.3099
  0
LINE
  8
22
 10
68.9175
 20
56.6282
 30
0.0000
 11
68.9175
 21
52.0282
 31
0.0000
  0
LINE
  8
22
 10
68.6175
 20
52.0282
 30
0.0000
 11
66.8175
 21
52.0282
 31
0.0000
  0
ARC
  8
22
 10
72.2675
 20
45.1782
 30
0.0000
 40
0.3000
 50
270.0000
 51
0.0000
  0
ARC
  8
22
 10
64.9175
 20
45.1282
 30
0.0000
 40
0.2500
 50
180.0000
 51
270.0000
  0
LINE
  8
22
 10
71.2675
 20
44.8782
 30
0.0000
 11
71.2675
 21
44.4782
 31
0.0000
  0
LINE
  8
22
 10
71.2675
 20
44.4782
 30
0.0000
 11
70.0175
 21
44.4782
 31
0.0000
  0
LINE
  8
22
 10
70.0175
 20
44.4782
 30
0.0000
 11
70.0175
 21
44.8782
 31
0.0000
  0
LINE
  8
22
 10
67.2675
 20
44.8782
 30
0.0000
 11
67.2675
 21
44.4282
 31
0.0000
  0
LINE
  8
22
 10
67.2675
 20
44.4282
 30
0.0000
 11
65.9675
 21
44.4282
 31
0.0000
  0
LINE
  8
22
 10
65.9675
 20
44.4282
 30
0.0000
 11
65.9675
 21
44.8782
 31
0.0000
  0
LINE
  8
22
 10
17.8898
 20
16.2562
 30
0.0000
 11
7.6517
 21
21.3830
 31
0.0000
  0
LINE
  8
22
 10
8.2275
 20
12.2595
 30
0.0000
 11
14.3972
 21
9.1700
 31
0.0000
  0
LINE
  8
22
 10
18.0237
 20
15.8536
 30
0.0000
 11
17.5759
 21
14.9594
 31
0.0000
  0
LINE
  8
22
 10
17.5759
 20
14.9594
 30
0.0000
 11
17.0162
 21
13.8418
 31
0.0000
  0
LINE
  8
22
 10
17.0162
 20
13.8418
 30
0.0000
 11
15.7849
 21
11.3828
 31
0.0000
  0
LINE
  8
22
 10
15.7849
 20
11.3828
 30
0.0000
 11
15.2028
 21
10.2204
 31
0.0000
  0
LINE
  8
22
 10
15.2028
 20
10.2204
 30
0.0000
 11
14.7327
 21
9.2816
 31
0.0000
  0
LINE
  8
22
 10
11.6305
 20
19.0551
 30
0.0000
 11
10.9365
 21
17.6691
 31
0.0000
  0
LINE
  8
22
 10
10.8469
 20
17.4903
 30
0.0000
 11
10.1305
 21
16.0597
 31
0.0000
  0
LINE
  8
22
 10
9.0111
 20
13.8243
 30
0.0000
 11
8.2275
 21
12.2595
 31
0.0000
  0
LINE
  8
22
 10
10.9365
 20
17.6691
 30
0.0000
 11
7.1363
 21
19.5721
 31
0.0000
  0
LINE
  8
22
 10
7.1363
 20
19.5721
 30
0.0000
 11
7.0467
 21
19.3933
 31
0.0000
  0
LINE
  8
22
 10
7.0467
 20
19.3933
 30
0.0000
 11
10.8469
 21
17.4903
 31
0.0000
  0
LINE
  8
22
 10
9.1902
 20
14.1819
 30
0.0000
 11
5.3453
 21
16.1073
 31
0.0000
  0
LINE
  8
22
 10
5.3453
 20
16.1073
 30
0.0000
 11
5.3006
 21
16.0179
 31
0.0000
  0
LINE
  8
22
 10
5.3006
 20
16.0179
 30
0.0000
 11
9.0560
 21
14.1373
 31
0.0000
  0
LINE
  8
22
 10
9.0560
 20
14.1373
 30
0.0000
 11
8.9664
 21
13.9585
 31
0.0000
  0
LINE
  8
22
 10
8.9664
 20
13.9585
 30
0.0000
 11
5.2110
 21
15.8391
 31
0.0000
  0
LINE
  8
22
 10
5.2110
 20
15.8391
 30
0.0000
 11
5.1662
 21
15.7496
 31
0.0000
  0
LINE
  8
22
 10
5.1662
 20
15.7496
 30
0.0000
 11
9.0111
 21
13.8243
 31
0.0000
  0
LINE
  8
22
 10
11.6305
 20
19.0551
 30
0.0000
 11
7.5621
 21
21.0924
 31
0.0000
  0
ARC
  8
22
 10
7.6292
 20
21.2265
 30
0.0000
 40
0.1500
 50
153.4000
 51
243.4000
  0
LINE
  8
22
 10
7.4951
 20
21.2937
 30
0.0000
 11
7.5175
 21
21.3384
 31
0.0000
  0
ARC
  8
22
 10
7.6069
 20
21.2936
 30
0.0000
 40
0.1000
 50
63.4005
 51
153.4005
  0
LINE
  8
22
 10
9.9962
 20
15.7914
 30
0.0000
 11
5.9278
 21
17.8287
 31
0.0000
  0
ARC
  8
22
 10
5.9614
 20
17.9517
 30
0.0000
 40
0.1275
 50
164.7100
 51
254.7100
  0
LINE
  8
22
 10
5.8384
 20
17.9853
 30
0.0000
 11
5.8608
 21
18.0300
 31
0.0000
  0
ARC
  8
22
 10
5.9838
 20
17.9964
 30
0.0000
 40
0.1275
 50
74.7100
 51
164.7100
  0
LINE
  8
22
 10
6.0174
 20
18.1194
 30
0.0000
 11
10.1305
 21
16.0597
 31
0.0000
  0
LINE
  8
22
 10
9.9962
 20
15.7914
 30
0.0000
 11
9.1902
 21
14.1819
 31
0.0000
  0
ARC
  8
22
 10
17.7554
 20
15.9879
 30
0.0000
 40
0.3000
 50
333.4000
 51
63.4000
  0
ARC
  8
22
 10
14.5091
 20
9.3935
 30
0.0000
 40
0.2500
 50
243.4000
 51
333.4000
  0
LINE
  8
22
 10
17.5759
 20
14.9594
 30
0.0000
 11
17.9336
 21
14.7803
 31
0.0000
  0
LINE
  8
22
 10
17.9336
 20
14.7803
 30
0.0000
 11
17.3739
 21
13.6627
 31
0.0000
  0
LINE
  8
22
 10
17.3739
 20
13.6627
 30
0.0000
 11
17.0162
 21
13.8418
 31
0.0000
  0
LINE
  8
22
 10
15.7849
 20
11.3828
 30
0.0000
 11
16.1873
 21
11.1813
 31
0.0000
  0
LINE
  8
22
 10
16.1873
 20
11.1813
 30
0.0000
 11
15.6052
 21
10.0189
 31
0.0000
  0
LINE
  8
22
 10
15.6052
 20
10.0189
 30
0.0000
 11
15.2028
 21
10.2204
 31
0.0000
  0
ENDSEC
  0
EOF
