G75*
%MOIN*%
%OFA0B0*%
%FSLAX24Y24*%
%IPPOS*%
%LPD*%
%AMOC8*
5,1,8,0,0,1.08239X$1,22.5*
%
%ADD10C,0.0000*%
%ADD11R,0.0236X0.0866*%
%ADD12R,0.0217X0.0472*%
%ADD13C,0.0476*%
%ADD14R,0.2165X0.1516*%
%ADD15C,0.0740*%
%ADD16R,0.0591X0.1496*%
%ADD17C,0.0394*%
%ADD18R,0.0512X0.0591*%
%ADD19R,0.0810X0.0240*%
%ADD20R,0.0472X0.0472*%
%ADD21R,0.0354X0.0354*%
%ADD22R,0.0787X0.0787*%
%ADD23R,0.0472X0.0472*%
%ADD24C,0.0945*%
%ADD25C,0.0120*%
%ADD26C,0.0768*%
%ADD27C,0.0709*%
%ADD28C,0.0356*%
%ADD29C,0.0160*%
%ADD30C,0.0591*%
%ADD31C,0.0472*%
%ADD32C,0.0240*%
%ADD33C,0.0400*%
%ADD34C,0.0500*%
%ADD35C,0.0560*%
%ADD36C,0.0560*%
%ADD37C,0.0100*%
%ADD38C,0.0320*%
D10*
X001543Y001214D02*
X007057Y001214D01*
X007162Y001332D01*
X007163Y001992D01*
X010376Y001990D01*
X010370Y000897D01*
X017853Y000897D01*
X018407Y001214D01*
X025254Y001214D01*
X028315Y007336D01*
X028846Y007690D01*
X032212Y014373D01*
X031218Y014865D01*
X032655Y017739D01*
X033246Y017444D01*
X033393Y017483D01*
X035864Y022424D01*
X030103Y022423D01*
X030103Y022424D02*
X030103Y021647D01*
X026989Y021647D01*
X026989Y022739D01*
X019476Y022739D01*
X018689Y022424D01*
X012143Y022424D01*
X009220Y016568D01*
X008561Y015977D01*
X005204Y009265D01*
X006218Y008753D01*
X004781Y005889D01*
X004191Y006184D01*
X004004Y006145D01*
X001543Y001214D01*
X003060Y002453D02*
X003062Y002497D01*
X003068Y002541D01*
X003078Y002584D01*
X003091Y002626D01*
X003109Y002666D01*
X003130Y002705D01*
X003154Y002742D01*
X003181Y002777D01*
X003212Y002809D01*
X003245Y002838D01*
X003281Y002864D01*
X003319Y002886D01*
X003359Y002905D01*
X003400Y002921D01*
X003443Y002933D01*
X003486Y002941D01*
X003530Y002945D01*
X003574Y002945D01*
X003618Y002941D01*
X003661Y002933D01*
X003704Y002921D01*
X003745Y002905D01*
X003785Y002886D01*
X003823Y002864D01*
X003859Y002838D01*
X003892Y002809D01*
X003923Y002777D01*
X003950Y002742D01*
X003974Y002705D01*
X003995Y002666D01*
X004013Y002626D01*
X004026Y002584D01*
X004036Y002541D01*
X004042Y002497D01*
X004044Y002453D01*
X004042Y002409D01*
X004036Y002365D01*
X004026Y002322D01*
X004013Y002280D01*
X003995Y002240D01*
X003974Y002201D01*
X003950Y002164D01*
X003923Y002129D01*
X003892Y002097D01*
X003859Y002068D01*
X003823Y002042D01*
X003785Y002020D01*
X003745Y002001D01*
X003704Y001985D01*
X003661Y001973D01*
X003618Y001965D01*
X003574Y001961D01*
X003530Y001961D01*
X003486Y001965D01*
X003443Y001973D01*
X003400Y001985D01*
X003359Y002001D01*
X003319Y002020D01*
X003281Y002042D01*
X003245Y002068D01*
X003212Y002097D01*
X003181Y002129D01*
X003154Y002164D01*
X003130Y002201D01*
X003109Y002240D01*
X003091Y002280D01*
X003078Y002322D01*
X003068Y002365D01*
X003062Y002409D01*
X003060Y002453D01*
X016391Y014853D02*
X016393Y014894D01*
X016399Y014935D01*
X016409Y014975D01*
X016422Y015014D01*
X016439Y015051D01*
X016460Y015087D01*
X016484Y015121D01*
X016511Y015152D01*
X016540Y015180D01*
X016573Y015206D01*
X016607Y015228D01*
X016644Y015247D01*
X016682Y015262D01*
X016722Y015274D01*
X016762Y015282D01*
X016803Y015286D01*
X016845Y015286D01*
X016886Y015282D01*
X016926Y015274D01*
X016966Y015262D01*
X017004Y015247D01*
X017040Y015228D01*
X017075Y015206D01*
X017108Y015180D01*
X017137Y015152D01*
X017164Y015121D01*
X017188Y015087D01*
X017209Y015051D01*
X017226Y015014D01*
X017239Y014975D01*
X017249Y014935D01*
X017255Y014894D01*
X017257Y014853D01*
X017255Y014812D01*
X017249Y014771D01*
X017239Y014731D01*
X017226Y014692D01*
X017209Y014655D01*
X017188Y014619D01*
X017164Y014585D01*
X017137Y014554D01*
X017108Y014526D01*
X017075Y014500D01*
X017041Y014478D01*
X017004Y014459D01*
X016966Y014444D01*
X016926Y014432D01*
X016886Y014424D01*
X016845Y014420D01*
X016803Y014420D01*
X016762Y014424D01*
X016722Y014432D01*
X016682Y014444D01*
X016644Y014459D01*
X016608Y014478D01*
X016573Y014500D01*
X016540Y014526D01*
X016511Y014554D01*
X016484Y014585D01*
X016460Y014619D01*
X016439Y014655D01*
X016422Y014692D01*
X016409Y014731D01*
X016399Y014771D01*
X016393Y014812D01*
X016391Y014853D01*
X012163Y017582D02*
X012165Y017623D01*
X012171Y017664D01*
X012181Y017704D01*
X012194Y017743D01*
X012211Y017780D01*
X012232Y017816D01*
X012256Y017850D01*
X012283Y017881D01*
X012312Y017909D01*
X012345Y017935D01*
X012379Y017957D01*
X012416Y017976D01*
X012454Y017991D01*
X012494Y018003D01*
X012534Y018011D01*
X012575Y018015D01*
X012617Y018015D01*
X012658Y018011D01*
X012698Y018003D01*
X012738Y017991D01*
X012776Y017976D01*
X012812Y017957D01*
X012847Y017935D01*
X012880Y017909D01*
X012909Y017881D01*
X012936Y017850D01*
X012960Y017816D01*
X012981Y017780D01*
X012998Y017743D01*
X013011Y017704D01*
X013021Y017664D01*
X013027Y017623D01*
X013029Y017582D01*
X013027Y017541D01*
X013021Y017500D01*
X013011Y017460D01*
X012998Y017421D01*
X012981Y017384D01*
X012960Y017348D01*
X012936Y017314D01*
X012909Y017283D01*
X012880Y017255D01*
X012847Y017229D01*
X012813Y017207D01*
X012776Y017188D01*
X012738Y017173D01*
X012698Y017161D01*
X012658Y017153D01*
X012617Y017149D01*
X012575Y017149D01*
X012534Y017153D01*
X012494Y017161D01*
X012454Y017173D01*
X012416Y017188D01*
X012380Y017207D01*
X012345Y017229D01*
X012312Y017255D01*
X012283Y017283D01*
X012256Y017314D01*
X012232Y017348D01*
X012211Y017384D01*
X012194Y017421D01*
X012181Y017460D01*
X012171Y017500D01*
X012165Y017541D01*
X012163Y017582D01*
X013187Y018133D02*
X013189Y018174D01*
X013195Y018215D01*
X013205Y018255D01*
X013218Y018294D01*
X013235Y018331D01*
X013256Y018367D01*
X013280Y018401D01*
X013307Y018432D01*
X013336Y018460D01*
X013369Y018486D01*
X013403Y018508D01*
X013440Y018527D01*
X013478Y018542D01*
X013518Y018554D01*
X013558Y018562D01*
X013599Y018566D01*
X013641Y018566D01*
X013682Y018562D01*
X013722Y018554D01*
X013762Y018542D01*
X013800Y018527D01*
X013836Y018508D01*
X013871Y018486D01*
X013904Y018460D01*
X013933Y018432D01*
X013960Y018401D01*
X013984Y018367D01*
X014005Y018331D01*
X014022Y018294D01*
X014035Y018255D01*
X014045Y018215D01*
X014051Y018174D01*
X014053Y018133D01*
X014051Y018092D01*
X014045Y018051D01*
X014035Y018011D01*
X014022Y017972D01*
X014005Y017935D01*
X013984Y017899D01*
X013960Y017865D01*
X013933Y017834D01*
X013904Y017806D01*
X013871Y017780D01*
X013837Y017758D01*
X013800Y017739D01*
X013762Y017724D01*
X013722Y017712D01*
X013682Y017704D01*
X013641Y017700D01*
X013599Y017700D01*
X013558Y017704D01*
X013518Y017712D01*
X013478Y017724D01*
X013440Y017739D01*
X013404Y017758D01*
X013369Y017780D01*
X013336Y017806D01*
X013307Y017834D01*
X013280Y017865D01*
X013256Y017899D01*
X013235Y017935D01*
X013218Y017972D01*
X013205Y018011D01*
X013195Y018051D01*
X013189Y018092D01*
X013187Y018133D01*
X014171Y018723D02*
X014173Y018764D01*
X014179Y018805D01*
X014189Y018845D01*
X014202Y018884D01*
X014219Y018921D01*
X014240Y018957D01*
X014264Y018991D01*
X014291Y019022D01*
X014320Y019050D01*
X014353Y019076D01*
X014387Y019098D01*
X014424Y019117D01*
X014462Y019132D01*
X014502Y019144D01*
X014542Y019152D01*
X014583Y019156D01*
X014625Y019156D01*
X014666Y019152D01*
X014706Y019144D01*
X014746Y019132D01*
X014784Y019117D01*
X014820Y019098D01*
X014855Y019076D01*
X014888Y019050D01*
X014917Y019022D01*
X014944Y018991D01*
X014968Y018957D01*
X014989Y018921D01*
X015006Y018884D01*
X015019Y018845D01*
X015029Y018805D01*
X015035Y018764D01*
X015037Y018723D01*
X015035Y018682D01*
X015029Y018641D01*
X015019Y018601D01*
X015006Y018562D01*
X014989Y018525D01*
X014968Y018489D01*
X014944Y018455D01*
X014917Y018424D01*
X014888Y018396D01*
X014855Y018370D01*
X014821Y018348D01*
X014784Y018329D01*
X014746Y018314D01*
X014706Y018302D01*
X014666Y018294D01*
X014625Y018290D01*
X014583Y018290D01*
X014542Y018294D01*
X014502Y018302D01*
X014462Y018314D01*
X014424Y018329D01*
X014388Y018348D01*
X014353Y018370D01*
X014320Y018396D01*
X014291Y018424D01*
X014264Y018455D01*
X014240Y018489D01*
X014219Y018525D01*
X014202Y018562D01*
X014189Y018601D01*
X014179Y018641D01*
X014173Y018682D01*
X014171Y018723D01*
X015155Y019275D02*
X015157Y019316D01*
X015163Y019357D01*
X015173Y019397D01*
X015186Y019436D01*
X015203Y019473D01*
X015224Y019509D01*
X015248Y019543D01*
X015275Y019574D01*
X015304Y019602D01*
X015337Y019628D01*
X015371Y019650D01*
X015408Y019669D01*
X015446Y019684D01*
X015486Y019696D01*
X015526Y019704D01*
X015567Y019708D01*
X015609Y019708D01*
X015650Y019704D01*
X015690Y019696D01*
X015730Y019684D01*
X015768Y019669D01*
X015804Y019650D01*
X015839Y019628D01*
X015872Y019602D01*
X015901Y019574D01*
X015928Y019543D01*
X015952Y019509D01*
X015973Y019473D01*
X015990Y019436D01*
X016003Y019397D01*
X016013Y019357D01*
X016019Y019316D01*
X016021Y019275D01*
X016019Y019234D01*
X016013Y019193D01*
X016003Y019153D01*
X015990Y019114D01*
X015973Y019077D01*
X015952Y019041D01*
X015928Y019007D01*
X015901Y018976D01*
X015872Y018948D01*
X015839Y018922D01*
X015805Y018900D01*
X015768Y018881D01*
X015730Y018866D01*
X015690Y018854D01*
X015650Y018846D01*
X015609Y018842D01*
X015567Y018842D01*
X015526Y018846D01*
X015486Y018854D01*
X015446Y018866D01*
X015408Y018881D01*
X015372Y018900D01*
X015337Y018922D01*
X015304Y018948D01*
X015275Y018976D01*
X015248Y019007D01*
X015224Y019041D01*
X015203Y019077D01*
X015186Y019114D01*
X015173Y019153D01*
X015163Y019193D01*
X015157Y019234D01*
X015155Y019275D01*
X016140Y019865D02*
X016142Y019906D01*
X016148Y019947D01*
X016158Y019987D01*
X016171Y020026D01*
X016188Y020063D01*
X016209Y020099D01*
X016233Y020133D01*
X016260Y020164D01*
X016289Y020192D01*
X016322Y020218D01*
X016356Y020240D01*
X016393Y020259D01*
X016431Y020274D01*
X016471Y020286D01*
X016511Y020294D01*
X016552Y020298D01*
X016594Y020298D01*
X016635Y020294D01*
X016675Y020286D01*
X016715Y020274D01*
X016753Y020259D01*
X016789Y020240D01*
X016824Y020218D01*
X016857Y020192D01*
X016886Y020164D01*
X016913Y020133D01*
X016937Y020099D01*
X016958Y020063D01*
X016975Y020026D01*
X016988Y019987D01*
X016998Y019947D01*
X017004Y019906D01*
X017006Y019865D01*
X017004Y019824D01*
X016998Y019783D01*
X016988Y019743D01*
X016975Y019704D01*
X016958Y019667D01*
X016937Y019631D01*
X016913Y019597D01*
X016886Y019566D01*
X016857Y019538D01*
X016824Y019512D01*
X016790Y019490D01*
X016753Y019471D01*
X016715Y019456D01*
X016675Y019444D01*
X016635Y019436D01*
X016594Y019432D01*
X016552Y019432D01*
X016511Y019436D01*
X016471Y019444D01*
X016431Y019456D01*
X016393Y019471D01*
X016357Y019490D01*
X016322Y019512D01*
X016289Y019538D01*
X016260Y019566D01*
X016233Y019597D01*
X016209Y019631D01*
X016188Y019667D01*
X016171Y019704D01*
X016158Y019743D01*
X016148Y019783D01*
X016142Y019824D01*
X016140Y019865D01*
X012478Y021079D02*
X012480Y021123D01*
X012486Y021167D01*
X012496Y021210D01*
X012509Y021252D01*
X012527Y021292D01*
X012548Y021331D01*
X012572Y021368D01*
X012599Y021403D01*
X012630Y021435D01*
X012663Y021464D01*
X012699Y021490D01*
X012737Y021512D01*
X012777Y021531D01*
X012818Y021547D01*
X012861Y021559D01*
X012904Y021567D01*
X012948Y021571D01*
X012992Y021571D01*
X013036Y021567D01*
X013079Y021559D01*
X013122Y021547D01*
X013163Y021531D01*
X013203Y021512D01*
X013241Y021490D01*
X013277Y021464D01*
X013310Y021435D01*
X013341Y021403D01*
X013368Y021368D01*
X013392Y021331D01*
X013413Y021292D01*
X013431Y021252D01*
X013444Y021210D01*
X013454Y021167D01*
X013460Y021123D01*
X013462Y021079D01*
X013460Y021035D01*
X013454Y020991D01*
X013444Y020948D01*
X013431Y020906D01*
X013413Y020866D01*
X013392Y020827D01*
X013368Y020790D01*
X013341Y020755D01*
X013310Y020723D01*
X013277Y020694D01*
X013241Y020668D01*
X013203Y020646D01*
X013163Y020627D01*
X013122Y020611D01*
X013079Y020599D01*
X013036Y020591D01*
X012992Y020587D01*
X012948Y020587D01*
X012904Y020591D01*
X012861Y020599D01*
X012818Y020611D01*
X012777Y020627D01*
X012737Y020646D01*
X012699Y020668D01*
X012663Y020694D01*
X012630Y020723D01*
X012599Y020755D01*
X012572Y020790D01*
X012548Y020827D01*
X012527Y020866D01*
X012509Y020906D01*
X012496Y020948D01*
X012486Y020991D01*
X012480Y021035D01*
X012478Y021079D01*
X020144Y008781D02*
X020146Y008822D01*
X020152Y008863D01*
X020162Y008903D01*
X020175Y008942D01*
X020192Y008979D01*
X020213Y009015D01*
X020237Y009049D01*
X020264Y009080D01*
X020293Y009108D01*
X020326Y009134D01*
X020360Y009156D01*
X020397Y009175D01*
X020435Y009190D01*
X020475Y009202D01*
X020515Y009210D01*
X020556Y009214D01*
X020598Y009214D01*
X020639Y009210D01*
X020679Y009202D01*
X020719Y009190D01*
X020757Y009175D01*
X020793Y009156D01*
X020828Y009134D01*
X020861Y009108D01*
X020890Y009080D01*
X020917Y009049D01*
X020941Y009015D01*
X020962Y008979D01*
X020979Y008942D01*
X020992Y008903D01*
X021002Y008863D01*
X021008Y008822D01*
X021010Y008781D01*
X021008Y008740D01*
X021002Y008699D01*
X020992Y008659D01*
X020979Y008620D01*
X020962Y008583D01*
X020941Y008547D01*
X020917Y008513D01*
X020890Y008482D01*
X020861Y008454D01*
X020828Y008428D01*
X020794Y008406D01*
X020757Y008387D01*
X020719Y008372D01*
X020679Y008360D01*
X020639Y008352D01*
X020598Y008348D01*
X020556Y008348D01*
X020515Y008352D01*
X020475Y008360D01*
X020435Y008372D01*
X020397Y008387D01*
X020361Y008406D01*
X020326Y008428D01*
X020293Y008454D01*
X020264Y008482D01*
X020237Y008513D01*
X020213Y008547D01*
X020192Y008583D01*
X020175Y008620D01*
X020162Y008659D01*
X020152Y008699D01*
X020146Y008740D01*
X020144Y008781D01*
X023929Y002550D02*
X023931Y002594D01*
X023937Y002638D01*
X023947Y002681D01*
X023960Y002723D01*
X023978Y002763D01*
X023999Y002802D01*
X024023Y002839D01*
X024050Y002874D01*
X024081Y002906D01*
X024114Y002935D01*
X024150Y002961D01*
X024188Y002983D01*
X024228Y003002D01*
X024269Y003018D01*
X024312Y003030D01*
X024355Y003038D01*
X024399Y003042D01*
X024443Y003042D01*
X024487Y003038D01*
X024530Y003030D01*
X024573Y003018D01*
X024614Y003002D01*
X024654Y002983D01*
X024692Y002961D01*
X024728Y002935D01*
X024761Y002906D01*
X024792Y002874D01*
X024819Y002839D01*
X024843Y002802D01*
X024864Y002763D01*
X024882Y002723D01*
X024895Y002681D01*
X024905Y002638D01*
X024911Y002594D01*
X024913Y002550D01*
X024911Y002506D01*
X024905Y002462D01*
X024895Y002419D01*
X024882Y002377D01*
X024864Y002337D01*
X024843Y002298D01*
X024819Y002261D01*
X024792Y002226D01*
X024761Y002194D01*
X024728Y002165D01*
X024692Y002139D01*
X024654Y002117D01*
X024614Y002098D01*
X024573Y002082D01*
X024530Y002070D01*
X024487Y002062D01*
X024443Y002058D01*
X024399Y002058D01*
X024355Y002062D01*
X024312Y002070D01*
X024269Y002082D01*
X024228Y002098D01*
X024188Y002117D01*
X024150Y002139D01*
X024114Y002165D01*
X024081Y002194D01*
X024050Y002226D01*
X024023Y002261D01*
X023999Y002298D01*
X023978Y002337D01*
X023960Y002377D01*
X023947Y002419D01*
X023937Y002462D01*
X023931Y002506D01*
X023929Y002550D01*
X033359Y021185D02*
X033361Y021229D01*
X033367Y021273D01*
X033377Y021316D01*
X033390Y021358D01*
X033408Y021398D01*
X033429Y021437D01*
X033453Y021474D01*
X033480Y021509D01*
X033511Y021541D01*
X033544Y021570D01*
X033580Y021596D01*
X033618Y021618D01*
X033658Y021637D01*
X033699Y021653D01*
X033742Y021665D01*
X033785Y021673D01*
X033829Y021677D01*
X033873Y021677D01*
X033917Y021673D01*
X033960Y021665D01*
X034003Y021653D01*
X034044Y021637D01*
X034084Y021618D01*
X034122Y021596D01*
X034158Y021570D01*
X034191Y021541D01*
X034222Y021509D01*
X034249Y021474D01*
X034273Y021437D01*
X034294Y021398D01*
X034312Y021358D01*
X034325Y021316D01*
X034335Y021273D01*
X034341Y021229D01*
X034343Y021185D01*
X034341Y021141D01*
X034335Y021097D01*
X034325Y021054D01*
X034312Y021012D01*
X034294Y020972D01*
X034273Y020933D01*
X034249Y020896D01*
X034222Y020861D01*
X034191Y020829D01*
X034158Y020800D01*
X034122Y020774D01*
X034084Y020752D01*
X034044Y020733D01*
X034003Y020717D01*
X033960Y020705D01*
X033917Y020697D01*
X033873Y020693D01*
X033829Y020693D01*
X033785Y020697D01*
X033742Y020705D01*
X033699Y020717D01*
X033658Y020733D01*
X033618Y020752D01*
X033580Y020774D01*
X033544Y020800D01*
X033511Y020829D01*
X033480Y020861D01*
X033453Y020896D01*
X033429Y020933D01*
X033408Y020972D01*
X033390Y021012D01*
X033377Y021054D01*
X033367Y021097D01*
X033361Y021141D01*
X033359Y021185D01*
D11*
G36*
X023357Y015012D02*
X023251Y015223D01*
X024025Y015610D01*
X024131Y015399D01*
X023357Y015012D01*
G37*
G36*
X023581Y014565D02*
X023475Y014776D01*
X024249Y015163D01*
X024355Y014952D01*
X023581Y014565D01*
G37*
G36*
X023805Y014117D02*
X023699Y014328D01*
X024473Y014715D01*
X024579Y014504D01*
X023805Y014117D01*
G37*
G36*
X024029Y013670D02*
X023923Y013881D01*
X024697Y014268D01*
X024803Y014057D01*
X024029Y013670D01*
G37*
G36*
X024253Y013223D02*
X024147Y013434D01*
X024921Y013821D01*
X025027Y013610D01*
X024253Y013223D01*
G37*
G36*
X022422Y012307D02*
X022316Y012518D01*
X023090Y012905D01*
X023196Y012694D01*
X022422Y012307D01*
G37*
G36*
X022198Y012754D02*
X022092Y012965D01*
X022866Y013352D01*
X022972Y013141D01*
X022198Y012754D01*
G37*
G36*
X021975Y013201D02*
X021869Y013412D01*
X022643Y013799D01*
X022749Y013588D01*
X021975Y013201D01*
G37*
G36*
X021751Y013648D02*
X021645Y013859D01*
X022419Y014246D01*
X022525Y014035D01*
X021751Y013648D01*
G37*
G36*
X021527Y014095D02*
X021421Y014306D01*
X022195Y014693D01*
X022301Y014482D01*
X021527Y014095D01*
G37*
G36*
X021303Y014542D02*
X021197Y014753D01*
X021971Y015140D01*
X022077Y014929D01*
X021303Y014542D01*
G37*
G36*
X021079Y014989D02*
X020973Y015200D01*
X021747Y015587D01*
X021853Y015376D01*
X021079Y014989D01*
G37*
G36*
X020855Y015436D02*
X020749Y015647D01*
X021523Y016034D01*
X021629Y015823D01*
X020855Y015436D01*
G37*
G36*
X022686Y016353D02*
X022580Y016564D01*
X023354Y016951D01*
X023460Y016740D01*
X022686Y016353D01*
G37*
G36*
X022910Y015906D02*
X022804Y016117D01*
X023578Y016504D01*
X023684Y016293D01*
X022910Y015906D01*
G37*
G36*
X023134Y015459D02*
X023028Y015670D01*
X023802Y016057D01*
X023908Y015846D01*
X023134Y015459D01*
G37*
D12*
G36*
X016129Y010242D02*
X016322Y010339D01*
X016533Y009918D01*
X016340Y009821D01*
X016129Y010242D01*
G37*
G36*
X015460Y009907D02*
X015653Y010004D01*
X015864Y009583D01*
X015671Y009486D01*
X015460Y009907D01*
G37*
G36*
X015919Y008992D02*
X016112Y009089D01*
X016323Y008668D01*
X016130Y008571D01*
X015919Y008992D01*
G37*
G36*
X016253Y009159D02*
X016446Y009256D01*
X016657Y008835D01*
X016464Y008738D01*
X016253Y009159D01*
G37*
G36*
X016588Y009327D02*
X016781Y009424D01*
X016992Y009003D01*
X016799Y008906D01*
X016588Y009327D01*
G37*
D13*
X018013Y019831D03*
X018604Y019831D03*
X019194Y019831D03*
X019785Y019831D03*
X020356Y019831D03*
X020946Y019831D03*
X021537Y019831D03*
X022127Y019831D03*
D14*
X013094Y011074D03*
X013094Y007157D03*
D15*
X024679Y005374D03*
X025133Y006265D03*
X025587Y007156D03*
X026041Y008047D03*
X026495Y008938D03*
D16*
G36*
X028754Y008905D02*
X028490Y008378D01*
X027154Y009047D01*
X027418Y009574D01*
X028754Y008905D01*
G37*
G36*
X029283Y009962D02*
X029019Y009435D01*
X027683Y010104D01*
X027947Y010631D01*
X029283Y009962D01*
G37*
G36*
X029812Y011018D02*
X029548Y010491D01*
X028212Y011160D01*
X028476Y011687D01*
X029812Y011018D01*
G37*
G36*
X030341Y012074D02*
X030077Y011547D01*
X028741Y012216D01*
X029005Y012743D01*
X030341Y012074D01*
G37*
G36*
X030869Y013130D02*
X030605Y012603D01*
X029269Y013272D01*
X029533Y013799D01*
X030869Y013130D01*
G37*
G36*
X031398Y014186D02*
X031134Y013659D01*
X029798Y014328D01*
X030062Y014855D01*
X031398Y014186D01*
G37*
X026202Y021364D03*
X025021Y021364D03*
X023840Y021364D03*
X022659Y021364D03*
X021477Y021364D03*
X020296Y021364D03*
G36*
X008649Y014734D02*
X008913Y015261D01*
X010249Y014592D01*
X009985Y014065D01*
X008649Y014734D01*
G37*
G36*
X008120Y013677D02*
X008384Y014204D01*
X009720Y013535D01*
X009456Y013008D01*
X008120Y013677D01*
G37*
G36*
X007591Y012621D02*
X007855Y013148D01*
X009191Y012479D01*
X008927Y011952D01*
X007591Y012621D01*
G37*
G36*
X007062Y011565D02*
X007326Y012092D01*
X008662Y011423D01*
X008398Y010896D01*
X007062Y011565D01*
G37*
G36*
X006533Y010509D02*
X006797Y011036D01*
X008133Y010367D01*
X007869Y009840D01*
X006533Y010509D01*
G37*
G36*
X006004Y009453D02*
X006268Y009980D01*
X007604Y009311D01*
X007340Y008784D01*
X006004Y009453D01*
G37*
X011205Y002277D03*
X012386Y002277D03*
X013567Y002277D03*
X014748Y002277D03*
X015929Y002277D03*
X017110Y002277D03*
D17*
X009432Y002366D02*
X009432Y004766D01*
X009824Y004766D01*
X009824Y002366D01*
X009432Y002366D01*
X009432Y002759D02*
X009824Y002759D01*
X009824Y003152D02*
X009432Y003152D01*
X009432Y003545D02*
X009824Y003545D01*
X009824Y003938D02*
X009432Y003938D01*
X009432Y004331D02*
X009824Y004331D01*
X009824Y004724D02*
X009432Y004724D01*
X007858Y004746D02*
X007858Y002346D01*
X007858Y004746D02*
X008250Y004746D01*
X008250Y002346D01*
X007858Y002346D01*
X007858Y002739D02*
X008250Y002739D01*
X008250Y003132D02*
X007858Y003132D01*
X007858Y003525D02*
X008250Y003525D01*
X008250Y003918D02*
X007858Y003918D01*
X007858Y004311D02*
X008250Y004311D01*
X008250Y004704D02*
X007858Y004704D01*
X007728Y005650D02*
X005583Y006724D01*
X007728Y005650D02*
X007553Y005300D01*
X005408Y006374D01*
X005583Y006724D01*
X006768Y005693D02*
X007642Y005693D01*
X006857Y006086D02*
X005983Y006086D01*
X006072Y006479D02*
X005461Y006479D01*
X006271Y008141D02*
X008416Y007067D01*
X008241Y006717D01*
X006096Y007791D01*
X006271Y008141D01*
X007456Y007110D02*
X008330Y007110D01*
X007545Y007503D02*
X006671Y007503D01*
X006760Y007896D02*
X006149Y007896D01*
X027976Y018873D02*
X027976Y021273D01*
X027976Y018873D02*
X027584Y018873D01*
X027584Y021273D01*
X027976Y021273D01*
X027976Y019266D02*
X027584Y019266D01*
X027584Y019659D02*
X027976Y019659D01*
X027976Y020052D02*
X027584Y020052D01*
X027584Y020445D02*
X027976Y020445D01*
X027976Y020838D02*
X027584Y020838D01*
X027584Y021231D02*
X027976Y021231D01*
X029551Y021293D02*
X029551Y018893D01*
X029159Y018893D01*
X029159Y021293D01*
X029551Y021293D01*
X029551Y019286D02*
X029159Y019286D01*
X029159Y019679D02*
X029551Y019679D01*
X029551Y020072D02*
X029159Y020072D01*
X029159Y020465D02*
X029551Y020465D01*
X029551Y020858D02*
X029159Y020858D01*
X029159Y021251D02*
X029551Y021251D01*
X029675Y017983D02*
X031820Y016909D01*
X029675Y017983D02*
X029850Y018333D01*
X031995Y017259D01*
X031820Y016909D01*
X031909Y017302D02*
X031035Y017302D01*
X031124Y017695D02*
X030250Y017695D01*
X030339Y018088D02*
X029728Y018088D01*
X028987Y016566D02*
X031132Y015492D01*
X028987Y016566D02*
X029162Y016916D01*
X031307Y015842D01*
X031132Y015492D01*
X031221Y015885D02*
X030347Y015885D01*
X030436Y016278D02*
X029562Y016278D01*
X029651Y016671D02*
X029040Y016671D01*
D18*
G36*
X020681Y016778D02*
X021137Y017007D01*
X021401Y016480D01*
X020945Y016251D01*
X020681Y016778D01*
G37*
G36*
X020012Y016443D02*
X020468Y016672D01*
X020732Y016145D01*
X020276Y015916D01*
X020012Y016443D01*
G37*
G36*
X018959Y009979D02*
X018503Y009750D01*
X018239Y010277D01*
X018695Y010506D01*
X018959Y009979D01*
G37*
G36*
X018290Y009644D02*
X017834Y009415D01*
X017570Y009942D01*
X018026Y010171D01*
X018290Y009644D01*
G37*
D19*
G36*
X021832Y008018D02*
X022555Y007656D01*
X022448Y007442D01*
X021725Y007804D01*
X021832Y008018D01*
G37*
G36*
X022055Y008465D02*
X022778Y008103D01*
X022671Y007889D01*
X021948Y008251D01*
X022055Y008465D01*
G37*
G36*
X022279Y008912D02*
X023002Y008550D01*
X022895Y008336D01*
X022172Y008698D01*
X022279Y008912D01*
G37*
G36*
X022503Y009359D02*
X023226Y008997D01*
X023119Y008783D01*
X022396Y009145D01*
X022503Y009359D01*
G37*
G36*
X022727Y009806D02*
X023450Y009444D01*
X023343Y009230D01*
X022620Y009592D01*
X022727Y009806D01*
G37*
G36*
X022951Y010253D02*
X023674Y009891D01*
X023567Y009677D01*
X022844Y010039D01*
X022951Y010253D01*
G37*
G36*
X024641Y009407D02*
X025364Y009045D01*
X025257Y008831D01*
X024534Y009193D01*
X024641Y009407D01*
G37*
G36*
X024417Y008960D02*
X025140Y008598D01*
X025033Y008384D01*
X024310Y008746D01*
X024417Y008960D01*
G37*
G36*
X024193Y008513D02*
X024916Y008151D01*
X024809Y007937D01*
X024086Y008299D01*
X024193Y008513D01*
G37*
G36*
X023969Y008065D02*
X024692Y007703D01*
X024585Y007489D01*
X023862Y007851D01*
X023969Y008065D01*
G37*
G36*
X023745Y007618D02*
X024468Y007256D01*
X024361Y007042D01*
X023638Y007404D01*
X023745Y007618D01*
G37*
G36*
X023522Y007171D02*
X024245Y006809D01*
X024138Y006595D01*
X023415Y006957D01*
X023522Y007171D01*
G37*
G36*
X023298Y006724D02*
X024021Y006362D01*
X023914Y006148D01*
X023191Y006510D01*
X023298Y006724D01*
G37*
G36*
X023074Y006277D02*
X023797Y005915D01*
X023690Y005701D01*
X022967Y006063D01*
X023074Y006277D01*
G37*
G36*
X021384Y007123D02*
X022107Y006761D01*
X022000Y006547D01*
X021277Y006909D01*
X021384Y007123D01*
G37*
G36*
X021608Y007571D02*
X022331Y007209D01*
X022224Y006995D01*
X021501Y007357D01*
X021608Y007571D01*
G37*
D20*
G36*
X026545Y009634D02*
X026124Y009845D01*
X026335Y010266D01*
X026756Y010055D01*
X026545Y009634D01*
G37*
G36*
X027020Y009382D02*
X026599Y009593D01*
X026810Y010014D01*
X027231Y009803D01*
X027020Y009382D01*
G37*
G36*
X027419Y010213D02*
X026998Y010424D01*
X027209Y010845D01*
X027630Y010634D01*
X027419Y010213D01*
G37*
G36*
X026944Y010465D02*
X026523Y010676D01*
X026734Y011097D01*
X027155Y010886D01*
X026944Y010465D01*
G37*
G36*
X029147Y013415D02*
X028726Y013626D01*
X028937Y014047D01*
X029358Y013836D01*
X029147Y013415D01*
G37*
G36*
X028629Y013655D02*
X028208Y013866D01*
X028419Y014287D01*
X028840Y014076D01*
X028629Y013655D01*
G37*
G36*
X029569Y014268D02*
X029148Y014479D01*
X029359Y014900D01*
X029780Y014689D01*
X029569Y014268D01*
G37*
G36*
X029055Y014520D02*
X028634Y014731D01*
X028845Y015152D01*
X029266Y014941D01*
X029055Y014520D01*
G37*
G36*
X011151Y014684D02*
X011572Y014473D01*
X011361Y014052D01*
X010940Y014263D01*
X011151Y014684D01*
G37*
G36*
X010664Y014932D02*
X011085Y014721D01*
X010874Y014300D01*
X010453Y014511D01*
X010664Y014932D01*
G37*
G36*
X010299Y014203D02*
X010720Y013992D01*
X010509Y013571D01*
X010088Y013782D01*
X010299Y014203D01*
G37*
G36*
X010785Y013954D02*
X011206Y013743D01*
X010995Y013322D01*
X010574Y013533D01*
X010785Y013954D01*
G37*
G36*
X009933Y013348D02*
X010354Y013137D01*
X010143Y012716D01*
X009722Y012927D01*
X009933Y013348D01*
G37*
G36*
X010403Y013100D02*
X010824Y012889D01*
X010613Y012468D01*
X010192Y012679D01*
X010403Y013100D01*
G37*
G36*
X008880Y011056D02*
X009301Y010845D01*
X009090Y010424D01*
X008669Y010635D01*
X008880Y011056D01*
G37*
G36*
X009367Y010808D02*
X009788Y010597D01*
X009577Y010176D01*
X009156Y010387D01*
X009367Y010808D01*
G37*
G36*
X009001Y010079D02*
X009422Y009868D01*
X009211Y009447D01*
X008790Y009658D01*
X009001Y010079D01*
G37*
G36*
X008514Y010327D02*
X008935Y010116D01*
X008724Y009695D01*
X008303Y009906D01*
X008514Y010327D01*
G37*
G36*
X008148Y009597D02*
X008569Y009386D01*
X008358Y008965D01*
X007937Y009176D01*
X008148Y009597D01*
G37*
G36*
X008635Y009349D02*
X009056Y009138D01*
X008845Y008717D01*
X008424Y008928D01*
X008635Y009349D01*
G37*
D21*
G36*
X027316Y011519D02*
X027000Y011677D01*
X027158Y011993D01*
X027474Y011835D01*
X027316Y011519D01*
G37*
G36*
X027516Y011909D02*
X027200Y012067D01*
X027358Y012383D01*
X027674Y012225D01*
X027516Y011909D01*
G37*
G36*
X027885Y012604D02*
X027569Y012762D01*
X027727Y013078D01*
X028043Y012920D01*
X027885Y012604D01*
G37*
G36*
X028084Y012991D02*
X027768Y013149D01*
X027926Y013465D01*
X028242Y013307D01*
X028084Y012991D01*
G37*
D22*
G36*
X028653Y012225D02*
X027951Y012577D01*
X028303Y013279D01*
X029005Y012927D01*
X028653Y012225D01*
G37*
G36*
X028083Y011145D02*
X027381Y011497D01*
X027733Y012199D01*
X028435Y011847D01*
X028083Y011145D01*
G37*
D23*
X018053Y004490D03*
X018053Y003947D03*
X017303Y003947D03*
X017303Y004490D03*
X016553Y004490D03*
X016553Y003947D03*
X015157Y003895D03*
X015157Y004441D03*
X014345Y004441D03*
X013595Y004441D03*
X013595Y003895D03*
X014345Y003895D03*
D24*
X032686Y020502D03*
D25*
X033179Y020736D02*
X033059Y021027D01*
X033059Y021342D01*
X033179Y021633D01*
X033402Y021856D01*
X033693Y021977D01*
X034008Y021977D01*
X034299Y021856D01*
X034522Y021633D01*
X034643Y021342D01*
X034643Y021027D01*
X034522Y020736D01*
X034299Y020513D01*
X034008Y020393D01*
X033693Y020393D01*
X033402Y020513D01*
X033179Y020736D01*
X033171Y020756D02*
X029909Y020756D01*
X029909Y020638D02*
X033277Y020638D01*
X033396Y020519D02*
X029909Y020519D01*
X029909Y020401D02*
X033673Y020401D01*
X034028Y020401D02*
X034517Y020401D01*
X034576Y020519D02*
X034306Y020519D01*
X034424Y020638D02*
X034635Y020638D01*
X034695Y020756D02*
X034531Y020756D01*
X034580Y020875D02*
X034754Y020875D01*
X034813Y020993D02*
X034629Y020993D01*
X034643Y021112D02*
X034872Y021112D01*
X034932Y021230D02*
X034643Y021230D01*
X034640Y021349D02*
X034991Y021349D01*
X035050Y021467D02*
X034591Y021467D01*
X034542Y021586D02*
X035109Y021586D01*
X035169Y021704D02*
X034451Y021704D01*
X034333Y021823D02*
X035228Y021823D01*
X035287Y021941D02*
X034094Y021941D01*
X033607Y021941D02*
X030403Y021941D01*
X030403Y021823D02*
X033369Y021823D01*
X033250Y021704D02*
X030403Y021704D01*
X030403Y021587D02*
X030403Y022123D01*
X035378Y022124D01*
X033214Y017795D01*
X032843Y017981D01*
X032736Y018034D01*
X032617Y018043D01*
X032504Y018005D01*
X032414Y017927D01*
X032219Y017538D01*
X032188Y017563D01*
X031136Y018090D01*
X030915Y017648D01*
X030808Y017702D01*
X031029Y018143D01*
X029977Y018670D01*
X029910Y018688D01*
X029848Y018693D01*
X029868Y018723D01*
X029895Y018788D01*
X029909Y018857D01*
X029909Y020033D01*
X029415Y020033D01*
X029415Y020153D01*
X029909Y020153D01*
X029909Y021329D01*
X029905Y021347D01*
X030163Y021347D01*
X030273Y021392D01*
X030357Y021477D01*
X030403Y021587D01*
X030403Y021586D02*
X033159Y021586D01*
X033110Y021467D02*
X030348Y021467D01*
X030168Y021349D02*
X033061Y021349D01*
X033059Y021230D02*
X029909Y021230D01*
X029909Y021112D02*
X033059Y021112D01*
X033073Y020993D02*
X029909Y020993D01*
X029909Y020875D02*
X033122Y020875D01*
X034398Y020164D02*
X029909Y020164D01*
X029909Y020282D02*
X034458Y020282D01*
X034339Y020045D02*
X029415Y020045D01*
X029415Y020033D02*
X029415Y018535D01*
X029553Y018535D01*
X029546Y018526D01*
X029469Y018372D01*
X030808Y017702D01*
X030754Y017595D01*
X029415Y018265D01*
X029338Y018111D01*
X029319Y018044D01*
X029314Y017973D01*
X029323Y017904D01*
X029345Y017837D01*
X029380Y017776D01*
X029426Y017723D01*
X029482Y017680D01*
X030533Y017153D01*
X030754Y017595D01*
X030861Y017541D01*
X030640Y017099D01*
X031692Y016573D01*
X031731Y016562D01*
X031640Y016379D01*
X029215Y017540D01*
X029188Y017558D01*
X029145Y017601D01*
X029094Y017622D01*
X029047Y017654D01*
X028988Y017666D01*
X028932Y017689D01*
X028929Y017689D01*
X028657Y017874D01*
X028563Y017968D01*
X028557Y017971D01*
X028625Y018133D01*
X028625Y018369D01*
X028534Y018588D01*
X028530Y018592D01*
X028527Y019079D01*
X028527Y021326D01*
X028527Y021327D01*
X028527Y021347D01*
X028805Y021347D01*
X028801Y021329D01*
X028801Y020153D01*
X029295Y020153D01*
X029295Y020033D01*
X028801Y020033D01*
X028801Y018857D01*
X028815Y018788D01*
X028842Y018723D01*
X028881Y018664D01*
X028931Y018615D01*
X028989Y018576D01*
X029054Y018549D01*
X029123Y018535D01*
X029295Y018535D01*
X029295Y020033D01*
X029415Y020033D01*
X029415Y019927D02*
X029295Y019927D01*
X029295Y020045D02*
X028527Y020045D01*
X028527Y019927D02*
X028801Y019927D01*
X028801Y019808D02*
X028527Y019808D01*
X028527Y019690D02*
X028801Y019690D01*
X028801Y019571D02*
X028527Y019571D01*
X028527Y019453D02*
X028801Y019453D01*
X028801Y019334D02*
X028527Y019334D01*
X028527Y019216D02*
X028801Y019216D01*
X028801Y019097D02*
X028527Y019097D01*
X028528Y018979D02*
X028801Y018979D01*
X028801Y018860D02*
X028529Y018860D01*
X028529Y018742D02*
X028834Y018742D01*
X028922Y018623D02*
X028530Y018623D01*
X028568Y018505D02*
X029535Y018505D01*
X029476Y018386D02*
X028618Y018386D01*
X028625Y018268D02*
X029678Y018268D01*
X029646Y018149D02*
X029914Y018149D01*
X029883Y018031D02*
X030151Y018031D01*
X030120Y017912D02*
X030388Y017912D01*
X030356Y017794D02*
X030624Y017794D01*
X030593Y017675D02*
X030795Y017675D01*
X030861Y017675D02*
X030929Y017675D01*
X030988Y017794D02*
X030854Y017794D01*
X030913Y017912D02*
X031047Y017912D01*
X031107Y018031D02*
X030973Y018031D01*
X031017Y018149D02*
X033391Y018149D01*
X033332Y018031D02*
X032743Y018031D01*
X032581Y018031D02*
X031254Y018031D01*
X031490Y017912D02*
X032406Y017912D01*
X032347Y017794D02*
X031727Y017794D01*
X031964Y017675D02*
X032288Y017675D01*
X032229Y017557D02*
X032196Y017557D01*
X032980Y017912D02*
X033273Y017912D01*
X033450Y018268D02*
X030780Y018268D01*
X030544Y018386D02*
X033510Y018386D01*
X033569Y018505D02*
X030307Y018505D01*
X030070Y018623D02*
X033628Y018623D01*
X033687Y018742D02*
X029876Y018742D01*
X029909Y018860D02*
X033747Y018860D01*
X033806Y018979D02*
X029909Y018979D01*
X029909Y019097D02*
X033865Y019097D01*
X033924Y019216D02*
X029909Y019216D01*
X029909Y019334D02*
X033984Y019334D01*
X034043Y019453D02*
X029909Y019453D01*
X029909Y019571D02*
X034102Y019571D01*
X034161Y019690D02*
X029909Y019690D01*
X029909Y019808D02*
X034221Y019808D01*
X034280Y019927D02*
X029909Y019927D01*
X029415Y019808D02*
X029295Y019808D01*
X029295Y019690D02*
X029415Y019690D01*
X029415Y019571D02*
X029295Y019571D01*
X029295Y019453D02*
X029415Y019453D01*
X029415Y019334D02*
X029295Y019334D01*
X029295Y019216D02*
X029415Y019216D01*
X029415Y019097D02*
X029295Y019097D01*
X029295Y018979D02*
X029415Y018979D01*
X029415Y018860D02*
X029295Y018860D01*
X029295Y018742D02*
X029415Y018742D01*
X029415Y018623D02*
X029295Y018623D01*
X029357Y018149D02*
X028625Y018149D01*
X028582Y018031D02*
X029319Y018031D01*
X029322Y017912D02*
X028619Y017912D01*
X028775Y017794D02*
X029370Y017794D01*
X029490Y017675D02*
X028966Y017675D01*
X029190Y017557D02*
X029727Y017557D01*
X029675Y017320D02*
X030200Y017320D01*
X030170Y017083D02*
X030674Y017083D01*
X030691Y017201D02*
X030557Y017201D01*
X030437Y017201D02*
X029922Y017201D01*
X029964Y017438D02*
X029427Y017438D01*
X029336Y017083D02*
X027386Y017083D01*
X027637Y016964D02*
X029584Y016964D01*
X029831Y016846D02*
X027888Y016846D01*
X028139Y016727D02*
X030079Y016727D01*
X030326Y016609D02*
X028390Y016609D01*
X028641Y016490D02*
X030574Y016490D01*
X030821Y016372D02*
X028892Y016372D01*
X029143Y016253D02*
X031069Y016253D01*
X031317Y016135D02*
X029394Y016135D01*
X029645Y016016D02*
X031564Y016016D01*
X031578Y016010D02*
X031287Y015360D01*
X031239Y015264D01*
X027042Y017245D01*
X027024Y018811D01*
X026778Y018967D01*
X026781Y021394D01*
X028167Y021398D01*
X028167Y019078D01*
X028172Y018371D01*
X028206Y017746D01*
X028811Y017334D01*
X031578Y016010D01*
X031527Y015898D02*
X029896Y015898D01*
X030147Y015779D02*
X031474Y015779D01*
X031421Y015661D02*
X030398Y015661D01*
X030649Y015542D02*
X031368Y015542D01*
X031315Y015424D02*
X030900Y015424D01*
X031151Y015305D02*
X031259Y015305D01*
X031676Y014304D02*
X031809Y014238D01*
X028614Y007896D01*
X028182Y007607D01*
X028163Y007601D01*
X028133Y007575D01*
X028099Y007552D01*
X028088Y007536D01*
X028073Y007523D01*
X028055Y007487D01*
X028032Y007453D01*
X028028Y007434D01*
X025068Y001514D01*
X018448Y001514D01*
X018429Y001519D01*
X018389Y001514D01*
X018348Y001514D01*
X018330Y001506D01*
X018311Y001504D01*
X018275Y001483D01*
X018238Y001468D01*
X018224Y001454D01*
X017773Y001197D01*
X010671Y001197D01*
X010672Y001342D01*
X010739Y001275D01*
X010850Y001229D01*
X011559Y001229D01*
X011670Y001275D01*
X011754Y001359D01*
X011795Y001458D01*
X011836Y001359D01*
X011921Y001275D01*
X012031Y001229D01*
X012741Y001229D01*
X012851Y001275D01*
X012936Y001359D01*
X012976Y001458D01*
X013017Y001359D01*
X013102Y001275D01*
X013212Y001229D01*
X013922Y001229D01*
X014032Y001275D01*
X014117Y001359D01*
X014158Y001458D01*
X014199Y001359D01*
X014283Y001275D01*
X014393Y001229D01*
X015103Y001229D01*
X015213Y001275D01*
X015298Y001359D01*
X015339Y001458D01*
X015380Y001359D01*
X015464Y001275D01*
X015574Y001229D01*
X016284Y001229D01*
X016394Y001275D01*
X016479Y001359D01*
X016520Y001458D01*
X016561Y001359D01*
X016645Y001275D01*
X016755Y001229D01*
X017465Y001229D01*
X017576Y001275D01*
X017660Y001359D01*
X017706Y001469D01*
X017706Y002272D01*
X018284Y002850D01*
X018391Y002957D01*
X018449Y003097D01*
X018449Y003452D01*
X018459Y003456D01*
X018544Y003541D01*
X018589Y003651D01*
X018589Y004573D01*
X019504Y005488D01*
X019611Y005595D01*
X019669Y005734D01*
X019669Y007812D01*
X019670Y007813D01*
X019669Y007887D01*
X019669Y007961D01*
X019668Y007963D01*
X019666Y008228D01*
X019689Y008250D01*
X019761Y008426D01*
X019761Y008616D01*
X019689Y008792D01*
X019554Y008926D01*
X019378Y008999D01*
X019188Y008999D01*
X019012Y008926D01*
X018878Y008792D01*
X018805Y008616D01*
X018805Y008604D01*
X018668Y008661D01*
X018477Y008661D01*
X018302Y008588D01*
X018167Y008454D01*
X018094Y008278D01*
X018094Y008088D01*
X018167Y007912D01*
X018193Y007887D01*
X018193Y006038D01*
X017464Y005310D01*
X017464Y006745D01*
X017468Y006811D01*
X017464Y006821D01*
X017464Y006830D01*
X017439Y006892D01*
X018193Y006892D01*
X018193Y007010D02*
X017366Y007010D01*
X017360Y007017D02*
X017038Y007373D01*
X017034Y007382D01*
X016987Y007429D01*
X016943Y007478D01*
X016934Y007482D01*
X016927Y007489D01*
X016866Y007514D01*
X016806Y007543D01*
X016797Y007543D01*
X016787Y007547D01*
X016721Y007547D01*
X016655Y007550D01*
X016646Y007547D01*
X016274Y007547D01*
X016248Y007572D01*
X016073Y007645D01*
X015949Y007645D01*
X016373Y008069D01*
X016480Y008176D01*
X016538Y008316D01*
X016538Y008457D01*
X016589Y008516D01*
X016627Y008629D01*
X016626Y008640D01*
X016633Y008643D01*
X016639Y008646D01*
X016647Y008639D01*
X016760Y008602D01*
X016879Y008610D01*
X017180Y008761D01*
X017190Y008772D01*
X017253Y008620D01*
X017387Y008486D01*
X017563Y008413D01*
X017753Y008413D01*
X017929Y008486D01*
X018064Y008620D01*
X018136Y008796D01*
X018136Y008986D01*
X018064Y009162D01*
X018042Y009183D01*
X018478Y009402D01*
X018557Y009492D01*
X018594Y009605D01*
X018594Y009616D01*
X018749Y009694D01*
X018572Y010047D01*
X018679Y010101D01*
X018625Y010208D01*
X018518Y010154D01*
X018341Y010508D01*
X018186Y010430D01*
X018178Y010437D01*
X018064Y010475D01*
X017945Y010466D01*
X017381Y010184D01*
X017303Y010093D01*
X017265Y009980D01*
X017270Y009908D01*
X017221Y009881D01*
X017150Y009842D01*
X017079Y009804D01*
X017077Y009802D01*
X016896Y009702D01*
X016819Y009728D01*
X016763Y009724D01*
X016800Y009766D01*
X016837Y009879D01*
X016829Y009998D01*
X016814Y010027D01*
X017155Y010226D01*
X017316Y010226D01*
X017492Y010298D01*
X017626Y010433D01*
X017699Y010609D01*
X017699Y010799D01*
X017626Y010975D01*
X017492Y011109D01*
X017316Y011182D01*
X017126Y011182D01*
X016950Y011109D01*
X016815Y010975D01*
X016779Y010886D01*
X016574Y010767D01*
X016574Y010861D01*
X016501Y011037D01*
X016476Y011062D01*
X016476Y011592D01*
X016418Y011731D01*
X016311Y011838D01*
X014248Y013901D01*
X014109Y013959D01*
X012378Y013959D01*
X011873Y014464D01*
X011876Y014511D01*
X011839Y014625D01*
X011761Y014715D01*
X011281Y014955D01*
X011274Y014963D01*
X010745Y015228D01*
X010659Y015234D01*
X010570Y015271D01*
X010083Y015271D01*
X009943Y015213D01*
X009855Y015125D01*
X008993Y015557D01*
X008874Y015565D01*
X008761Y015528D01*
X008671Y015449D01*
X008353Y014815D01*
X008344Y014696D01*
X008382Y014582D01*
X008452Y014501D01*
X008345Y014509D01*
X008232Y014471D01*
X008142Y014393D01*
X007824Y013758D01*
X007815Y013639D01*
X007853Y013526D01*
X007923Y013445D01*
X007816Y013453D01*
X007703Y013415D01*
X007613Y013337D01*
X007295Y012702D01*
X007286Y012583D01*
X007324Y012470D01*
X007394Y012389D01*
X007287Y012397D01*
X007174Y012359D01*
X007084Y012281D01*
X006766Y011646D01*
X006758Y011527D01*
X006795Y011414D01*
X006865Y011333D01*
X006759Y011341D01*
X006645Y011303D01*
X006555Y011225D01*
X006237Y010590D01*
X006229Y010471D01*
X006266Y010358D01*
X006336Y010277D01*
X006230Y010285D01*
X006117Y010247D01*
X006026Y010169D01*
X005708Y009534D01*
X005700Y009415D01*
X005726Y009338D01*
X005606Y009398D01*
X008804Y015792D01*
X009419Y016343D01*
X009462Y016381D01*
X009463Y016383D01*
X009465Y016384D01*
X009490Y016436D01*
X012329Y022124D01*
X018687Y022124D01*
X018745Y022123D01*
X018746Y022124D01*
X018748Y022124D01*
X018802Y022146D01*
X019534Y022439D01*
X026689Y022439D01*
X026689Y022345D01*
X026667Y022366D01*
X026557Y022412D01*
X025847Y022412D01*
X025737Y022366D01*
X025652Y022282D01*
X025611Y022183D01*
X025570Y022282D01*
X025486Y022366D01*
X025376Y022412D01*
X024666Y022412D01*
X024556Y022366D01*
X024471Y022282D01*
X024430Y022183D01*
X024389Y022282D01*
X024305Y022366D01*
X024195Y022412D01*
X023485Y022412D01*
X023374Y022366D01*
X023290Y022282D01*
X023249Y022183D01*
X023208Y022282D01*
X023124Y022366D01*
X023013Y022412D01*
X022304Y022412D01*
X022193Y022366D01*
X022109Y022282D01*
X022068Y022183D01*
X022027Y022282D01*
X021943Y022366D01*
X021832Y022412D01*
X021122Y022412D01*
X021012Y022366D01*
X020928Y022282D01*
X020887Y022183D01*
X020846Y022282D01*
X020762Y022366D01*
X020651Y022412D01*
X019941Y022412D01*
X019831Y022366D01*
X019747Y022282D01*
X019701Y022172D01*
X019701Y020556D01*
X019747Y020446D01*
X019824Y020369D01*
X019678Y020369D01*
X019490Y020291D01*
X019301Y020369D01*
X019087Y020369D01*
X018899Y020291D01*
X018711Y020369D01*
X018497Y020369D01*
X018309Y020291D01*
X018120Y020369D01*
X017906Y020369D01*
X017709Y020287D01*
X017557Y020136D01*
X017475Y019938D01*
X017475Y019724D01*
X017557Y019527D01*
X017709Y019376D01*
X017906Y019294D01*
X018120Y019294D01*
X018309Y019372D01*
X018497Y019294D01*
X018711Y019294D01*
X018738Y019305D01*
X018738Y018808D01*
X018802Y018653D01*
X018920Y018535D01*
X019087Y018369D01*
X019087Y014558D01*
X019065Y014537D01*
X018993Y014361D01*
X018993Y014171D01*
X019065Y013995D01*
X019200Y013861D01*
X019376Y013788D01*
X019566Y013788D01*
X019653Y013824D01*
X019653Y011003D01*
X019711Y010863D01*
X021341Y009234D01*
X021341Y008534D01*
X021335Y008476D01*
X021341Y008459D01*
X021341Y008441D01*
X021359Y008396D01*
X021211Y008396D01*
X021310Y008635D01*
X021310Y008927D01*
X021198Y009196D01*
X020992Y009403D01*
X020723Y009514D01*
X020431Y009514D01*
X020162Y009403D01*
X019955Y009196D01*
X019844Y008927D01*
X019844Y008635D01*
X019955Y008366D01*
X020162Y008160D01*
X020323Y008093D01*
X020274Y008044D01*
X020216Y007904D01*
X020216Y005437D01*
X020190Y005412D01*
X020118Y005236D01*
X020118Y005046D01*
X020190Y004870D01*
X020325Y004736D01*
X020501Y004663D01*
X020691Y004663D01*
X020867Y004736D01*
X020892Y004761D01*
X022925Y004761D01*
X022950Y004736D01*
X023126Y004663D01*
X023316Y004663D01*
X023492Y004736D01*
X023626Y004870D01*
X023699Y005046D01*
X023699Y005236D01*
X023629Y005404D01*
X023728Y005397D01*
X023841Y005435D01*
X023932Y005513D01*
X024093Y005834D01*
X024098Y005910D01*
X024110Y005921D01*
X024150Y005792D01*
X024111Y005753D01*
X024009Y005507D01*
X024009Y005241D01*
X024111Y004994D01*
X024300Y004806D01*
X024546Y004704D01*
X024813Y004704D01*
X025059Y004806D01*
X025247Y004994D01*
X025349Y005241D01*
X025349Y005507D01*
X025306Y005611D01*
X025513Y005697D01*
X025701Y005885D01*
X025803Y006132D01*
X025803Y006398D01*
X025760Y006502D01*
X025967Y006588D01*
X026155Y006776D01*
X026257Y007023D01*
X026257Y007289D01*
X026158Y007529D01*
X026166Y007530D01*
X026245Y007556D01*
X026319Y007594D01*
X026387Y007643D01*
X026446Y007702D01*
X026495Y007769D01*
X026496Y007771D01*
X026059Y007993D01*
X026095Y008064D01*
X026532Y007842D01*
X026533Y007843D01*
X026558Y007923D01*
X026571Y008005D01*
X026571Y008089D01*
X026558Y008171D01*
X026533Y008250D01*
X026524Y008268D01*
X026629Y008268D01*
X026875Y008370D01*
X027063Y008558D01*
X027131Y008722D01*
X028410Y008082D01*
X028529Y008074D01*
X028642Y008111D01*
X028732Y008190D01*
X029050Y008824D01*
X029058Y008943D01*
X029021Y009057D01*
X028951Y009138D01*
X029058Y009130D01*
X029171Y009168D01*
X029261Y009246D01*
X029579Y009881D01*
X029587Y010000D01*
X029550Y010113D01*
X029480Y010194D01*
X029586Y010186D01*
X029700Y010224D01*
X029790Y010302D01*
X030108Y010937D01*
X030116Y011056D01*
X030079Y011169D01*
X030009Y011250D01*
X030115Y011242D01*
X030229Y011280D01*
X030319Y011358D01*
X030637Y011993D01*
X030645Y012112D01*
X030607Y012225D01*
X030537Y012306D01*
X030644Y012298D01*
X030757Y012336D01*
X030848Y012414D01*
X031165Y013049D01*
X031174Y013168D01*
X031136Y013281D01*
X031066Y013362D01*
X031173Y013354D01*
X031286Y013392D01*
X031376Y013470D01*
X031694Y014105D01*
X031703Y014224D01*
X031676Y014304D01*
X031698Y014239D02*
X031807Y014239D01*
X031749Y014120D02*
X031695Y014120D01*
X031689Y014002D02*
X031643Y014002D01*
X031630Y013883D02*
X031583Y013883D01*
X031570Y013765D02*
X031524Y013765D01*
X031510Y013646D02*
X031465Y013646D01*
X031451Y013528D02*
X031405Y013528D01*
X031391Y013409D02*
X031306Y013409D01*
X031331Y013291D02*
X031128Y013291D01*
X031173Y013172D02*
X031272Y013172D01*
X031212Y013054D02*
X031166Y013054D01*
X031152Y012935D02*
X031109Y012935D01*
X031093Y012817D02*
X031049Y012817D01*
X031033Y012698D02*
X030990Y012698D01*
X030973Y012580D02*
X030931Y012580D01*
X030914Y012461D02*
X030871Y012461D01*
X030854Y012343D02*
X030765Y012343D01*
X030794Y012224D02*
X030608Y012224D01*
X030645Y012106D02*
X030734Y012106D01*
X030675Y011987D02*
X030634Y011987D01*
X030615Y011869D02*
X030574Y011869D01*
X030555Y011750D02*
X030515Y011750D01*
X030496Y011632D02*
X030456Y011632D01*
X030436Y011513D02*
X030396Y011513D01*
X030376Y011395D02*
X030337Y011395D01*
X030317Y011276D02*
X030217Y011276D01*
X030257Y011158D02*
X030082Y011158D01*
X030115Y011039D02*
X030197Y011039D01*
X030138Y010921D02*
X030100Y010921D01*
X030078Y010802D02*
X030040Y010802D01*
X030018Y010684D02*
X029981Y010684D01*
X029959Y010565D02*
X029922Y010565D01*
X029899Y010447D02*
X029862Y010447D01*
X029839Y010328D02*
X029803Y010328D01*
X029779Y010210D02*
X029657Y010210D01*
X029720Y010091D02*
X029557Y010091D01*
X029586Y009973D02*
X029660Y009973D01*
X029600Y009854D02*
X029566Y009854D01*
X029541Y009736D02*
X029506Y009736D01*
X029481Y009617D02*
X029447Y009617D01*
X029421Y009499D02*
X029388Y009499D01*
X029362Y009380D02*
X029328Y009380D01*
X029302Y009262D02*
X029269Y009262D01*
X029242Y009143D02*
X029097Y009143D01*
X029031Y009025D02*
X029183Y009025D01*
X029123Y008906D02*
X029056Y008906D01*
X029063Y008788D02*
X029032Y008788D01*
X029004Y008669D02*
X028972Y008669D01*
X028944Y008551D02*
X028913Y008551D01*
X028884Y008432D02*
X028854Y008432D01*
X028824Y008314D02*
X028794Y008314D01*
X028765Y008195D02*
X028735Y008195D01*
X028705Y008077D02*
X028537Y008077D01*
X028488Y008077D02*
X026571Y008077D01*
X026564Y007958D02*
X028645Y007958D01*
X028530Y007840D02*
X026360Y007840D01*
X026303Y007958D02*
X026127Y007958D01*
X026460Y007721D02*
X028352Y007721D01*
X028167Y007603D02*
X026332Y007603D01*
X026177Y007484D02*
X028053Y007484D01*
X027994Y007366D02*
X026226Y007366D01*
X026257Y007247D02*
X027935Y007247D01*
X027876Y007129D02*
X026257Y007129D01*
X026252Y007010D02*
X027817Y007010D01*
X027757Y006892D02*
X026203Y006892D01*
X026152Y006773D02*
X027698Y006773D01*
X027639Y006655D02*
X026034Y006655D01*
X025842Y006536D02*
X027580Y006536D01*
X027520Y006418D02*
X025795Y006418D01*
X025803Y006299D02*
X027461Y006299D01*
X027402Y006181D02*
X025803Y006181D01*
X025775Y006062D02*
X027343Y006062D01*
X027283Y005944D02*
X025726Y005944D01*
X025641Y005825D02*
X027224Y005825D01*
X027165Y005707D02*
X025523Y005707D01*
X025316Y005588D02*
X027106Y005588D01*
X027046Y005470D02*
X025349Y005470D01*
X025349Y005351D02*
X026987Y005351D01*
X026928Y005233D02*
X025346Y005233D01*
X025297Y005114D02*
X026869Y005114D01*
X026809Y004996D02*
X025248Y004996D01*
X025130Y004877D02*
X026750Y004877D01*
X026691Y004759D02*
X024945Y004759D01*
X024414Y004759D02*
X023514Y004759D01*
X023629Y004877D02*
X024229Y004877D01*
X024111Y004996D02*
X023678Y004996D01*
X023699Y005114D02*
X024062Y005114D01*
X024013Y005233D02*
X023699Y005233D01*
X023651Y005351D02*
X024009Y005351D01*
X024009Y005470D02*
X023882Y005470D01*
X023969Y005588D02*
X024043Y005588D01*
X024029Y005707D02*
X024092Y005707D01*
X024088Y005825D02*
X024140Y005825D01*
X024653Y006732D02*
X024646Y006753D01*
X024625Y006824D01*
X024624Y006825D01*
X024623Y006827D01*
X024576Y006884D01*
X024529Y006941D01*
X024527Y006942D01*
X024526Y006943D01*
X024515Y006949D01*
X024511Y006961D01*
X024504Y006969D01*
X024559Y007077D01*
X024053Y007330D01*
X023548Y007583D01*
X023494Y007475D01*
X023483Y007475D01*
X023431Y007458D01*
X023438Y007474D01*
X023465Y007524D01*
X023467Y007543D01*
X023475Y007561D01*
X023475Y007618D01*
X023482Y007674D01*
X023476Y007693D01*
X023477Y007712D01*
X023462Y007749D01*
X023502Y007732D01*
X023599Y007685D01*
X023548Y007583D01*
X024053Y007330D01*
X024053Y007330D01*
X024053Y007330D01*
X024559Y007077D01*
X024613Y007186D01*
X024624Y007185D01*
X024653Y007195D01*
X024653Y006732D01*
X024653Y006732D01*
X024653Y006773D02*
X024640Y006773D01*
X024653Y006892D02*
X024569Y006892D01*
X024525Y007010D02*
X024653Y007010D01*
X024653Y007129D02*
X024584Y007129D01*
X024456Y007129D02*
X024456Y007129D01*
X024220Y007247D02*
X024219Y007247D01*
X023983Y007366D02*
X023983Y007366D01*
X023746Y007484D02*
X023746Y007484D01*
X023558Y007603D02*
X023475Y007603D01*
X023473Y007721D02*
X023524Y007721D01*
X023499Y007484D02*
X023443Y007484D01*
X021344Y008432D02*
X021226Y008432D01*
X021275Y008551D02*
X021341Y008551D01*
X021341Y008669D02*
X021310Y008669D01*
X021310Y008788D02*
X021341Y008788D01*
X021341Y008906D02*
X021310Y008906D01*
X021341Y009025D02*
X021269Y009025D01*
X021220Y009143D02*
X021341Y009143D01*
X021313Y009262D02*
X021133Y009262D01*
X021194Y009380D02*
X021015Y009380D01*
X021076Y009499D02*
X020760Y009499D01*
X020957Y009617D02*
X018596Y009617D01*
X018559Y009499D02*
X020393Y009499D01*
X020139Y009380D02*
X018436Y009380D01*
X018199Y009262D02*
X020021Y009262D01*
X019933Y009143D02*
X018071Y009143D01*
X018120Y009025D02*
X019884Y009025D01*
X019844Y008906D02*
X019574Y008906D01*
X019690Y008788D02*
X019844Y008788D01*
X019844Y008669D02*
X019739Y008669D01*
X019761Y008551D02*
X019879Y008551D01*
X019928Y008432D02*
X019761Y008432D01*
X019715Y008314D02*
X020008Y008314D01*
X020126Y008195D02*
X019666Y008195D01*
X019667Y008077D02*
X020306Y008077D01*
X020238Y007958D02*
X019669Y007958D01*
X019670Y007840D02*
X020216Y007840D01*
X020216Y007721D02*
X019669Y007721D01*
X019669Y007603D02*
X020216Y007603D01*
X020216Y007484D02*
X019669Y007484D01*
X019669Y007366D02*
X020216Y007366D01*
X020216Y007247D02*
X019669Y007247D01*
X019669Y007129D02*
X020216Y007129D01*
X020216Y007010D02*
X019669Y007010D01*
X019669Y006892D02*
X020216Y006892D01*
X020216Y006773D02*
X019669Y006773D01*
X019669Y006655D02*
X020216Y006655D01*
X020216Y006536D02*
X019669Y006536D01*
X019669Y006418D02*
X020216Y006418D01*
X020216Y006299D02*
X019669Y006299D01*
X019669Y006181D02*
X020216Y006181D01*
X020216Y006062D02*
X019669Y006062D01*
X019669Y005944D02*
X020216Y005944D01*
X020216Y005825D02*
X019669Y005825D01*
X019658Y005707D02*
X020216Y005707D01*
X020216Y005588D02*
X019605Y005588D01*
X019486Y005470D02*
X020216Y005470D01*
X020165Y005351D02*
X019368Y005351D01*
X019249Y005233D02*
X020118Y005233D01*
X020118Y005114D02*
X019131Y005114D01*
X019012Y004996D02*
X020138Y004996D01*
X020188Y004877D02*
X018894Y004877D01*
X018775Y004759D02*
X020302Y004759D01*
X020889Y004759D02*
X022927Y004759D01*
X023972Y003221D02*
X023749Y002998D01*
X023629Y002707D01*
X023629Y002392D01*
X023749Y002101D01*
X023972Y001878D01*
X024263Y001758D01*
X024578Y001758D01*
X024870Y001878D01*
X025092Y002101D01*
X025213Y002392D01*
X025213Y002707D01*
X025092Y002998D01*
X024870Y003221D01*
X024578Y003342D01*
X024263Y003342D01*
X023972Y003221D01*
X023969Y003218D02*
X018449Y003218D01*
X018449Y003100D02*
X023851Y003100D01*
X023742Y002981D02*
X018401Y002981D01*
X018297Y002863D02*
X023693Y002863D01*
X023644Y002744D02*
X018178Y002744D01*
X018060Y002626D02*
X023629Y002626D01*
X023629Y002507D02*
X017941Y002507D01*
X017823Y002389D02*
X023630Y002389D01*
X023679Y002270D02*
X017706Y002270D01*
X017706Y002152D02*
X023728Y002152D01*
X023817Y002033D02*
X017706Y002033D01*
X017706Y001915D02*
X023936Y001915D01*
X024170Y001796D02*
X017706Y001796D01*
X017706Y001678D02*
X025150Y001678D01*
X025210Y001796D02*
X024672Y001796D01*
X024906Y001915D02*
X025269Y001915D01*
X025328Y002033D02*
X025025Y002033D01*
X025113Y002152D02*
X025387Y002152D01*
X025447Y002270D02*
X025162Y002270D01*
X025212Y002389D02*
X025506Y002389D01*
X025565Y002507D02*
X025213Y002507D01*
X025213Y002626D02*
X025624Y002626D01*
X025684Y002744D02*
X025198Y002744D01*
X025149Y002863D02*
X025743Y002863D01*
X025802Y002981D02*
X025099Y002981D01*
X024991Y003100D02*
X025861Y003100D01*
X025921Y003218D02*
X024873Y003218D01*
X024591Y003337D02*
X025980Y003337D01*
X026039Y003455D02*
X018456Y003455D01*
X018449Y003337D02*
X024251Y003337D01*
X026098Y003574D02*
X018557Y003574D01*
X018589Y003692D02*
X026158Y003692D01*
X026217Y003811D02*
X018589Y003811D01*
X018589Y003929D02*
X026276Y003929D01*
X026335Y004048D02*
X018589Y004048D01*
X018589Y004166D02*
X026395Y004166D01*
X026454Y004285D02*
X018589Y004285D01*
X018589Y004403D02*
X026513Y004403D01*
X026572Y004522D02*
X018589Y004522D01*
X018657Y004640D02*
X026632Y004640D01*
X025091Y001559D02*
X017706Y001559D01*
X017694Y001441D02*
X018200Y001441D01*
X017992Y001322D02*
X017623Y001322D01*
X017785Y001204D02*
X010671Y001204D01*
X010672Y001322D02*
X010692Y001322D01*
X011717Y001322D02*
X011873Y001322D01*
X011802Y001441D02*
X011788Y001441D01*
X012899Y001322D02*
X013054Y001322D01*
X012984Y001441D02*
X012969Y001441D01*
X014080Y001322D02*
X014235Y001322D01*
X014165Y001441D02*
X014150Y001441D01*
X015261Y001322D02*
X015416Y001322D01*
X015346Y001441D02*
X015332Y001441D01*
X016442Y001322D02*
X016598Y001322D01*
X016527Y001441D02*
X016513Y001441D01*
X017464Y005351D02*
X017506Y005351D01*
X017464Y005470D02*
X017624Y005470D01*
X017743Y005588D02*
X017464Y005588D01*
X017464Y005707D02*
X017861Y005707D01*
X017980Y005825D02*
X017464Y005825D01*
X017464Y005944D02*
X018098Y005944D01*
X018193Y006062D02*
X017464Y006062D01*
X017464Y006181D02*
X018193Y006181D01*
X018193Y006299D02*
X017464Y006299D01*
X017464Y006418D02*
X018193Y006418D01*
X018193Y006536D02*
X017464Y006536D01*
X017464Y006655D02*
X018193Y006655D01*
X018193Y006773D02*
X017466Y006773D01*
X017439Y006892D02*
X017417Y006954D01*
X017410Y006961D01*
X017407Y006970D01*
X017360Y007017D01*
X017259Y007129D02*
X018193Y007129D01*
X018193Y007247D02*
X017151Y007247D01*
X017044Y007366D02*
X018193Y007366D01*
X018193Y007484D02*
X016932Y007484D01*
X016175Y007603D02*
X018193Y007603D01*
X018193Y007721D02*
X016026Y007721D01*
X016144Y007840D02*
X018193Y007840D01*
X018148Y007958D02*
X016263Y007958D01*
X016381Y008077D02*
X018099Y008077D01*
X018094Y008195D02*
X016488Y008195D01*
X016537Y008314D02*
X018109Y008314D01*
X018158Y008432D02*
X017799Y008432D01*
X017994Y008551D02*
X018264Y008551D01*
X018084Y008669D02*
X018827Y008669D01*
X018876Y008788D02*
X018133Y008788D01*
X018136Y008906D02*
X018992Y008906D01*
X018856Y009747D02*
X019050Y009844D01*
X019082Y009872D01*
X019105Y009908D01*
X019118Y009948D01*
X019121Y009990D01*
X019112Y010031D01*
X018997Y010260D01*
X018679Y010101D01*
X018856Y009747D01*
X018803Y009854D02*
X018668Y009854D01*
X018728Y009736D02*
X020839Y009736D01*
X020720Y009854D02*
X019061Y009854D01*
X019120Y009973D02*
X020602Y009973D01*
X020483Y010091D02*
X019082Y010091D01*
X019023Y010210D02*
X020365Y010210D01*
X020246Y010328D02*
X018865Y010328D01*
X018944Y010367D02*
X018829Y010597D01*
X018801Y010628D01*
X018766Y010651D01*
X018726Y010665D01*
X018684Y010667D01*
X018642Y010659D01*
X018448Y010561D01*
X018625Y010208D01*
X018944Y010367D01*
X018904Y010447D02*
X020128Y010447D01*
X020009Y010565D02*
X018845Y010565D01*
X018897Y010210D02*
X018629Y010210D01*
X018625Y010210D02*
X018490Y010210D01*
X018431Y010328D02*
X018565Y010328D01*
X018506Y010447D02*
X018372Y010447D01*
X018456Y010565D02*
X017681Y010565D01*
X017699Y010684D02*
X019891Y010684D01*
X019772Y010802D02*
X017697Y010802D01*
X017648Y010921D02*
X019687Y010921D01*
X019653Y011039D02*
X017561Y011039D01*
X017374Y011158D02*
X019653Y011158D01*
X019653Y011276D02*
X016476Y011276D01*
X016476Y011158D02*
X017067Y011158D01*
X016880Y011039D02*
X016499Y011039D01*
X016549Y010921D02*
X016793Y010921D01*
X016635Y010802D02*
X016574Y010802D01*
X016476Y011395D02*
X019653Y011395D01*
X019653Y011513D02*
X016476Y011513D01*
X016459Y011632D02*
X019653Y011632D01*
X019653Y011750D02*
X016399Y011750D01*
X016281Y011869D02*
X019653Y011869D01*
X019653Y011987D02*
X016162Y011987D01*
X016044Y012106D02*
X019653Y012106D01*
X019653Y012224D02*
X015925Y012224D01*
X015807Y012343D02*
X019653Y012343D01*
X019653Y012461D02*
X015688Y012461D01*
X015570Y012580D02*
X019653Y012580D01*
X019653Y012698D02*
X015451Y012698D01*
X015333Y012817D02*
X019653Y012817D01*
X019653Y012935D02*
X015214Y012935D01*
X015096Y013054D02*
X019653Y013054D01*
X019653Y013172D02*
X014977Y013172D01*
X014859Y013291D02*
X019653Y013291D01*
X019653Y013409D02*
X014740Y013409D01*
X014622Y013528D02*
X019653Y013528D01*
X019653Y013646D02*
X014503Y013646D01*
X014385Y013765D02*
X019653Y013765D01*
X020413Y013262D02*
X020501Y013226D01*
X020691Y013226D01*
X020867Y013298D01*
X021001Y013433D01*
X021033Y013509D01*
X021510Y013770D01*
X021554Y013681D01*
X021610Y013571D01*
X021603Y013563D01*
X021565Y013450D01*
X021574Y013331D01*
X021733Y013013D01*
X021792Y012961D01*
X021797Y012883D01*
X021957Y012566D01*
X022016Y012514D01*
X022021Y012436D01*
X022180Y012118D01*
X022271Y012040D01*
X022384Y012003D01*
X022503Y012011D01*
X022769Y012145D01*
X022818Y012028D01*
X022825Y012020D01*
X022821Y011967D01*
X022193Y011338D01*
X022086Y011231D01*
X022028Y011092D01*
X022028Y010667D01*
X021929Y010767D01*
X021753Y010839D01*
X021563Y010839D01*
X021387Y010767D01*
X021253Y010632D01*
X021184Y010465D01*
X020413Y011236D01*
X020413Y013262D01*
X020413Y013172D02*
X021653Y013172D01*
X021712Y013054D02*
X020413Y013054D01*
X020413Y012935D02*
X021794Y012935D01*
X021831Y012817D02*
X020413Y012817D01*
X020413Y012698D02*
X021890Y012698D01*
X021949Y012580D02*
X020413Y012580D01*
X020413Y012461D02*
X022019Y012461D01*
X022068Y012343D02*
X020413Y012343D01*
X020413Y012224D02*
X022128Y012224D01*
X022195Y012106D02*
X020413Y012106D01*
X020413Y011987D02*
X022823Y011987D01*
X022786Y012106D02*
X022692Y012106D01*
X022723Y011869D02*
X020413Y011869D01*
X020413Y011750D02*
X022605Y011750D01*
X022486Y011632D02*
X020413Y011632D01*
X020413Y011513D02*
X022368Y011513D01*
X022249Y011395D02*
X020413Y011395D01*
X020413Y011276D02*
X022131Y011276D01*
X022056Y011158D02*
X020492Y011158D01*
X020610Y011039D02*
X022028Y011039D01*
X022028Y010921D02*
X020729Y010921D01*
X020847Y010802D02*
X021474Y010802D01*
X021305Y010684D02*
X020966Y010684D01*
X021084Y010565D02*
X021225Y010565D01*
X021843Y010802D02*
X022028Y010802D01*
X022028Y010684D02*
X022012Y010684D01*
X024531Y009767D02*
X024905Y010476D01*
X024918Y010488D01*
X024940Y010542D01*
X024967Y010593D01*
X024969Y010611D01*
X024976Y010628D01*
X024976Y010686D01*
X024981Y010744D01*
X024976Y010761D01*
X024976Y011645D01*
X024981Y011661D01*
X024976Y011720D01*
X024976Y011779D01*
X024969Y011795D01*
X024968Y011812D01*
X024940Y011864D01*
X024918Y011919D01*
X024906Y011931D01*
X024312Y013073D01*
X024711Y013274D01*
X024587Y013522D01*
X024587Y013522D01*
X024711Y013274D01*
X025118Y013477D01*
X025149Y013505D01*
X025172Y013540D01*
X025185Y013580D01*
X025188Y013622D01*
X025180Y013663D01*
X025117Y013788D01*
X025062Y013898D01*
X025069Y013906D01*
X025074Y013922D01*
X025884Y014360D01*
X025936Y014382D01*
X025950Y014396D01*
X025968Y014405D01*
X026003Y014449D01*
X026043Y014488D01*
X026051Y014507D01*
X026063Y014523D01*
X026079Y014576D01*
X026101Y014628D01*
X026101Y014648D01*
X026106Y014668D01*
X026101Y014723D01*
X026101Y015261D01*
X026182Y015261D01*
X026966Y014428D01*
X026966Y013753D01*
X027024Y013613D01*
X027130Y013507D01*
X027380Y013257D01*
X026182Y013257D01*
X026042Y013199D01*
X025935Y013092D01*
X025913Y013070D01*
X025913Y013143D01*
X026100Y013288D01*
X026191Y013288D01*
X026367Y013361D01*
X026501Y013495D01*
X026574Y013671D01*
X026574Y013861D01*
X026501Y014037D01*
X026367Y014172D01*
X026191Y014244D01*
X026001Y014244D01*
X025825Y014172D01*
X025690Y014037D01*
X025626Y013883D01*
X025340Y013660D01*
X025318Y013651D01*
X025281Y013614D01*
X025240Y013582D01*
X025228Y013561D01*
X025211Y013544D01*
X025191Y013496D01*
X025166Y013451D01*
X025163Y013427D01*
X025153Y013404D01*
X025153Y013352D01*
X025147Y013301D01*
X025153Y013277D01*
X025153Y011503D01*
X025211Y011363D01*
X025318Y011257D01*
X025466Y011109D01*
X025466Y010119D01*
X025458Y010085D01*
X025466Y010044D01*
X025466Y010003D01*
X025479Y009971D01*
X025485Y009936D01*
X025508Y009902D01*
X025524Y009863D01*
X025548Y009839D01*
X025567Y009809D01*
X025601Y009786D01*
X025630Y009757D01*
X025663Y009743D01*
X025692Y009723D01*
X025732Y009715D01*
X025770Y009699D01*
X025805Y009699D01*
X025864Y009686D01*
X025935Y009603D01*
X026124Y009509D01*
X026116Y009506D01*
X025930Y009319D01*
X025596Y009236D01*
X025552Y009286D01*
X024721Y009702D01*
X024688Y009705D01*
X024663Y009719D01*
X024601Y009756D01*
X024597Y009757D01*
X024593Y009759D01*
X024531Y009767D01*
X024577Y009854D02*
X025533Y009854D01*
X025478Y009973D02*
X024640Y009973D01*
X024702Y010091D02*
X025460Y010091D01*
X025466Y010210D02*
X024765Y010210D01*
X024827Y010328D02*
X025466Y010328D01*
X025466Y010447D02*
X024890Y010447D01*
X024952Y010565D02*
X025466Y010565D01*
X025466Y010684D02*
X024976Y010684D01*
X024976Y010802D02*
X025466Y010802D01*
X025466Y010921D02*
X024976Y010921D01*
X024976Y011039D02*
X025466Y011039D01*
X025417Y011158D02*
X024976Y011158D01*
X024976Y011276D02*
X025298Y011276D01*
X025198Y011395D02*
X024976Y011395D01*
X024976Y011513D02*
X025153Y011513D01*
X025153Y011632D02*
X024976Y011632D01*
X024976Y011750D02*
X025153Y011750D01*
X025153Y011869D02*
X024939Y011869D01*
X024877Y011987D02*
X025153Y011987D01*
X025153Y012106D02*
X024815Y012106D01*
X024753Y012224D02*
X025153Y012224D01*
X025153Y012343D02*
X024692Y012343D01*
X024630Y012461D02*
X025153Y012461D01*
X025153Y012580D02*
X024568Y012580D01*
X024507Y012698D02*
X025153Y012698D01*
X025153Y012817D02*
X024445Y012817D01*
X024384Y012935D02*
X025153Y012935D01*
X025153Y013054D02*
X024322Y013054D01*
X024509Y013172D02*
X025153Y013172D01*
X025150Y013291D02*
X024746Y013291D01*
X024703Y013291D02*
X024703Y013291D01*
X024644Y013409D02*
X024644Y013409D01*
X024587Y013522D02*
X024587Y013522D01*
X025117Y013788D01*
X024587Y013522D01*
X024598Y013528D02*
X024598Y013528D01*
X024834Y013646D02*
X024834Y013646D01*
X025071Y013765D02*
X025071Y013765D01*
X025129Y013765D02*
X025475Y013765D01*
X025627Y013883D02*
X025069Y013883D01*
X025222Y014002D02*
X025676Y014002D01*
X025774Y014120D02*
X025441Y014120D01*
X025660Y014239D02*
X025987Y014239D01*
X025879Y014357D02*
X026966Y014357D01*
X026966Y014239D02*
X026204Y014239D01*
X026418Y014120D02*
X026966Y014120D01*
X026966Y014002D02*
X026516Y014002D01*
X026565Y013883D02*
X026966Y013883D01*
X026966Y013765D02*
X026574Y013765D01*
X026564Y013646D02*
X027010Y013646D01*
X027109Y013528D02*
X026514Y013528D01*
X026415Y013409D02*
X027228Y013409D01*
X027346Y013291D02*
X026197Y013291D01*
X026016Y013172D02*
X025951Y013172D01*
X025935Y013092D02*
X025935Y013092D01*
X025313Y013646D02*
X025183Y013646D01*
X025164Y013528D02*
X025204Y013528D01*
X025155Y013409D02*
X024982Y013409D01*
X026030Y014476D02*
X026921Y014476D01*
X026809Y014594D02*
X026087Y014594D01*
X026102Y014713D02*
X026698Y014713D01*
X026586Y014831D02*
X026101Y014831D01*
X026101Y014950D02*
X026475Y014950D01*
X026363Y015068D02*
X026101Y015068D01*
X026101Y015187D02*
X026252Y015187D01*
X027135Y017201D02*
X029088Y017201D01*
X028841Y017320D02*
X027041Y017320D01*
X027040Y017438D02*
X028658Y017438D01*
X028484Y017557D02*
X027039Y017557D01*
X027037Y017675D02*
X028310Y017675D01*
X028203Y017794D02*
X027036Y017794D01*
X027035Y017912D02*
X028197Y017912D01*
X028190Y018031D02*
X027033Y018031D01*
X027032Y018149D02*
X028184Y018149D01*
X028178Y018268D02*
X027031Y018268D01*
X027029Y018386D02*
X028172Y018386D01*
X028171Y018505D02*
X027028Y018505D01*
X027026Y018623D02*
X028170Y018623D01*
X028169Y018742D02*
X027025Y018742D01*
X026947Y018860D02*
X028169Y018860D01*
X028168Y018979D02*
X026778Y018979D01*
X026778Y019097D02*
X028167Y019097D01*
X028167Y019216D02*
X026778Y019216D01*
X026778Y019334D02*
X028167Y019334D01*
X028167Y019453D02*
X026778Y019453D01*
X026779Y019571D02*
X028167Y019571D01*
X028167Y019690D02*
X026779Y019690D01*
X026779Y019808D02*
X028167Y019808D01*
X028167Y019927D02*
X026779Y019927D01*
X026779Y020045D02*
X028167Y020045D01*
X028167Y020164D02*
X026779Y020164D01*
X026780Y020282D02*
X028167Y020282D01*
X028167Y020401D02*
X026780Y020401D01*
X026780Y020519D02*
X028167Y020519D01*
X028167Y020638D02*
X026780Y020638D01*
X026780Y020756D02*
X028167Y020756D01*
X028167Y020875D02*
X026781Y020875D01*
X026781Y020993D02*
X028167Y020993D01*
X028167Y021112D02*
X026781Y021112D01*
X026781Y021230D02*
X028167Y021230D01*
X028167Y021349D02*
X026781Y021349D01*
X025667Y022297D02*
X025556Y022297D01*
X024486Y022297D02*
X024375Y022297D01*
X023305Y022297D02*
X023193Y022297D01*
X022124Y022297D02*
X022012Y022297D01*
X020942Y022297D02*
X020831Y022297D01*
X019761Y022297D02*
X019178Y022297D01*
X019474Y022415D02*
X026689Y022415D01*
X028527Y021230D02*
X028801Y021230D01*
X028801Y021112D02*
X028527Y021112D01*
X028527Y020993D02*
X028801Y020993D01*
X028801Y020875D02*
X028527Y020875D01*
X028527Y020756D02*
X028801Y020756D01*
X028801Y020638D02*
X028527Y020638D01*
X028527Y020519D02*
X028801Y020519D01*
X028801Y020401D02*
X028527Y020401D01*
X028527Y020282D02*
X028801Y020282D01*
X028801Y020164D02*
X028527Y020164D01*
X030403Y022060D02*
X035346Y022060D01*
X030830Y017557D02*
X030735Y017557D01*
X030676Y017438D02*
X030810Y017438D01*
X030751Y017320D02*
X030617Y017320D01*
X030417Y016964D02*
X030910Y016964D01*
X030912Y016727D02*
X031383Y016727D01*
X031408Y016490D02*
X031695Y016490D01*
X031620Y016609D02*
X031160Y016609D01*
X031147Y016846D02*
X030665Y016846D01*
X023403Y017302D02*
X023403Y018859D01*
X022628Y019634D01*
X022583Y019527D01*
X022432Y019376D01*
X022234Y019294D01*
X022020Y019294D01*
X021832Y019372D01*
X021644Y019294D01*
X021511Y019294D01*
X021639Y019166D01*
X021703Y019011D01*
X021703Y017683D01*
X021639Y017528D01*
X021455Y017344D01*
X021455Y017302D01*
X021575Y017422D01*
X021751Y017494D01*
X021941Y017494D01*
X022117Y017422D01*
X022251Y017287D01*
X022324Y017111D01*
X022324Y016921D01*
X022307Y016880D01*
X022307Y016804D01*
X022313Y016807D01*
X022395Y016807D01*
X023273Y017246D01*
X023309Y017249D01*
X023403Y017302D01*
X023403Y017320D02*
X022218Y017320D01*
X022287Y017201D02*
X023183Y017201D01*
X022946Y017083D02*
X022324Y017083D01*
X022324Y016964D02*
X022710Y016964D01*
X022473Y016846D02*
X022307Y016846D01*
X022076Y017438D02*
X023403Y017438D01*
X023403Y017557D02*
X021651Y017557D01*
X021615Y017438D02*
X021549Y017438D01*
X021473Y017320D02*
X021455Y017320D01*
X021700Y017675D02*
X023403Y017675D01*
X023403Y017794D02*
X021703Y017794D01*
X021703Y017912D02*
X023403Y017912D01*
X023403Y018031D02*
X021703Y018031D01*
X021703Y018149D02*
X023403Y018149D01*
X023403Y018268D02*
X021703Y018268D01*
X021703Y018386D02*
X023403Y018386D01*
X023403Y018505D02*
X021703Y018505D01*
X021703Y018623D02*
X023403Y018623D01*
X023403Y018742D02*
X021703Y018742D01*
X021703Y018860D02*
X023402Y018860D01*
X023283Y018979D02*
X021703Y018979D01*
X021668Y019097D02*
X023165Y019097D01*
X023046Y019216D02*
X021589Y019216D01*
X021742Y019334D02*
X021922Y019334D01*
X022332Y019334D02*
X022928Y019334D01*
X022809Y019453D02*
X022509Y019453D01*
X022602Y019571D02*
X022691Y019571D01*
X020863Y017959D02*
X020863Y017940D01*
X020794Y017871D01*
X020792Y017870D01*
X020735Y017812D01*
X020677Y017754D01*
X020676Y017752D01*
X020675Y017751D01*
X020644Y017675D01*
X020613Y017600D01*
X020613Y017598D01*
X020612Y017596D01*
X020613Y017514D01*
X020613Y017433D01*
X020614Y017431D01*
X020617Y017082D01*
X020493Y017020D01*
X020414Y016929D01*
X020377Y016816D01*
X020377Y016805D01*
X020222Y016728D01*
X020399Y016374D01*
X020292Y016321D01*
X020115Y016674D01*
X019927Y016580D01*
X019927Y018626D01*
X019863Y018780D01*
X019578Y019065D01*
X019578Y019335D01*
X019678Y019294D01*
X019892Y019294D01*
X019926Y019308D01*
X019926Y018995D01*
X019990Y018841D01*
X020108Y018723D01*
X020228Y018602D01*
X020180Y018486D01*
X020180Y018296D01*
X020253Y018120D01*
X020387Y017986D01*
X020563Y017913D01*
X020753Y017913D01*
X020863Y017959D01*
X020835Y017912D02*
X019927Y017912D01*
X019927Y017794D02*
X020717Y017794D01*
X020644Y017675D02*
X019927Y017675D01*
X019927Y017557D02*
X020613Y017557D01*
X020613Y017438D02*
X019927Y017438D01*
X019927Y017320D02*
X020615Y017320D01*
X020616Y017201D02*
X019927Y017201D01*
X019927Y017083D02*
X020617Y017083D01*
X020445Y016964D02*
X019927Y016964D01*
X019927Y016846D02*
X020387Y016846D01*
X020222Y016727D02*
X019927Y016727D01*
X019927Y016609D02*
X019985Y016609D01*
X020148Y016609D02*
X020282Y016609D01*
X020341Y016490D02*
X020207Y016490D01*
X020266Y016372D02*
X020394Y016372D01*
X020292Y016321D02*
X019974Y016161D01*
X019927Y016255D01*
X019927Y014892D01*
X020602Y015270D01*
X020454Y015566D01*
X020446Y015685D01*
X020483Y015798D01*
X020561Y015888D01*
X020626Y015921D01*
X020453Y016267D01*
X020346Y016213D01*
X020523Y015860D01*
X020329Y015763D01*
X020287Y015754D01*
X020245Y015757D01*
X020205Y015770D01*
X020170Y015793D01*
X020142Y015825D01*
X020027Y016054D01*
X020346Y016213D01*
X020292Y016321D01*
X020326Y016253D02*
X020157Y016253D01*
X020189Y016135D02*
X019927Y016135D01*
X019927Y016253D02*
X019928Y016253D01*
X019927Y016016D02*
X020046Y016016D01*
X020106Y015898D02*
X019927Y015898D01*
X019927Y015779D02*
X020191Y015779D01*
X020362Y015779D02*
X020477Y015779D01*
X020504Y015898D02*
X020580Y015898D01*
X020578Y016016D02*
X020444Y016016D01*
X020385Y016135D02*
X020519Y016135D01*
X020460Y016253D02*
X020425Y016253D01*
X020447Y015661D02*
X019927Y015661D01*
X019927Y015542D02*
X020466Y015542D01*
X020525Y015424D02*
X019927Y015424D01*
X019927Y015305D02*
X020585Y015305D01*
X020454Y015187D02*
X019927Y015187D01*
X019927Y015068D02*
X020242Y015068D01*
X020030Y014950D02*
X019927Y014950D01*
X019087Y014950D02*
X017557Y014950D01*
X017557Y014998D02*
X017446Y015268D01*
X017240Y015474D01*
X016970Y015586D01*
X016679Y015586D01*
X016409Y015474D01*
X016203Y015268D01*
X016091Y014998D01*
X016091Y014707D01*
X016203Y014437D01*
X016409Y014231D01*
X016679Y014120D01*
X016970Y014120D01*
X017240Y014231D01*
X017446Y014437D01*
X017557Y014707D01*
X017557Y014998D01*
X017529Y015068D02*
X019087Y015068D01*
X019087Y015187D02*
X017479Y015187D01*
X017409Y015305D02*
X019087Y015305D01*
X019087Y015424D02*
X017290Y015424D01*
X017075Y015542D02*
X019087Y015542D01*
X019087Y015661D02*
X008738Y015661D01*
X008797Y015779D02*
X019087Y015779D01*
X019087Y015898D02*
X008922Y015898D01*
X009054Y016016D02*
X019087Y016016D01*
X019087Y016135D02*
X009186Y016135D01*
X009319Y016253D02*
X019087Y016253D01*
X019087Y016372D02*
X009452Y016372D01*
X009517Y016490D02*
X019087Y016490D01*
X019087Y016609D02*
X009576Y016609D01*
X009635Y016727D02*
X019087Y016727D01*
X019087Y016846D02*
X009694Y016846D01*
X009753Y016964D02*
X012177Y016964D01*
X012181Y016960D02*
X012450Y016849D01*
X012742Y016849D01*
X013011Y016960D01*
X013218Y017166D01*
X013329Y017436D01*
X013329Y017460D01*
X013474Y017400D01*
X013766Y017400D01*
X014035Y017511D01*
X014241Y017718D01*
X014353Y017987D01*
X014353Y018034D01*
X014458Y017990D01*
X014750Y017990D01*
X015019Y018102D01*
X015226Y018308D01*
X015337Y018578D01*
X015337Y018585D01*
X015443Y018542D01*
X015734Y018542D01*
X016004Y018653D01*
X016210Y018859D01*
X016321Y019129D01*
X016321Y019176D01*
X016427Y019132D01*
X016718Y019132D01*
X016988Y019244D01*
X017194Y019450D01*
X017306Y019719D01*
X017306Y020011D01*
X017194Y020280D01*
X016988Y020487D01*
X016718Y020598D01*
X016427Y020598D01*
X016157Y020487D01*
X015951Y020280D01*
X015840Y020011D01*
X015840Y019964D01*
X015734Y020008D01*
X015443Y020008D01*
X015173Y019896D01*
X014967Y019690D01*
X014855Y019420D01*
X014855Y019413D01*
X014750Y019456D01*
X014458Y019456D01*
X014189Y019345D01*
X013983Y019139D01*
X013871Y018869D01*
X013871Y018822D01*
X013766Y018866D01*
X013474Y018866D01*
X013205Y018754D01*
X012998Y018548D01*
X012887Y018279D01*
X012887Y018255D01*
X012742Y018315D01*
X012450Y018315D01*
X012181Y018203D01*
X011975Y017997D01*
X011863Y017727D01*
X011863Y017436D01*
X011975Y017166D01*
X012181Y016960D01*
X012058Y017083D02*
X009813Y017083D01*
X009872Y017201D02*
X011960Y017201D01*
X011911Y017320D02*
X009931Y017320D01*
X009990Y017438D02*
X011863Y017438D01*
X011863Y017557D02*
X010049Y017557D01*
X010108Y017675D02*
X011863Y017675D01*
X011891Y017794D02*
X010167Y017794D01*
X010227Y017912D02*
X011940Y017912D01*
X012009Y018031D02*
X010286Y018031D01*
X010345Y018149D02*
X012127Y018149D01*
X012337Y018268D02*
X010404Y018268D01*
X010463Y018386D02*
X012931Y018386D01*
X012887Y018268D02*
X012855Y018268D01*
X012980Y018505D02*
X010522Y018505D01*
X010581Y018623D02*
X013074Y018623D01*
X013192Y018742D02*
X010641Y018742D01*
X010700Y018860D02*
X013460Y018860D01*
X013779Y018860D02*
X013871Y018860D01*
X013916Y018979D02*
X010759Y018979D01*
X010818Y019097D02*
X013965Y019097D01*
X014060Y019216D02*
X010877Y019216D01*
X010936Y019334D02*
X014178Y019334D01*
X014449Y019453D02*
X010996Y019453D01*
X011055Y019571D02*
X014918Y019571D01*
X014869Y019453D02*
X014759Y019453D01*
X014967Y019690D02*
X011114Y019690D01*
X011173Y019808D02*
X015085Y019808D01*
X015247Y019927D02*
X011232Y019927D01*
X011291Y020045D02*
X015854Y020045D01*
X015903Y020164D02*
X011350Y020164D01*
X011410Y020282D02*
X015953Y020282D01*
X016071Y020401D02*
X013402Y020401D01*
X013419Y020408D02*
X013642Y020631D01*
X013763Y020922D01*
X013763Y021237D01*
X013642Y021528D01*
X013419Y021751D01*
X013128Y021871D01*
X012813Y021871D01*
X012522Y021751D01*
X012299Y021528D01*
X012178Y021237D01*
X012178Y020922D01*
X012299Y020631D01*
X012522Y020408D01*
X012813Y020287D01*
X013128Y020287D01*
X013419Y020408D01*
X013531Y020519D02*
X016236Y020519D01*
X016909Y020519D02*
X019716Y020519D01*
X019701Y020638D02*
X013645Y020638D01*
X013694Y020756D02*
X019701Y020756D01*
X019701Y020875D02*
X013743Y020875D01*
X013763Y020993D02*
X019701Y020993D01*
X019701Y021112D02*
X013763Y021112D01*
X013763Y021230D02*
X019701Y021230D01*
X019701Y021349D02*
X013716Y021349D01*
X013667Y021467D02*
X019701Y021467D01*
X019701Y021586D02*
X013584Y021586D01*
X013466Y021704D02*
X019701Y021704D01*
X019701Y021823D02*
X013246Y021823D01*
X012695Y021823D02*
X012179Y021823D01*
X012238Y021941D02*
X019701Y021941D01*
X019701Y022060D02*
X012297Y022060D01*
X012119Y021704D02*
X012475Y021704D01*
X012357Y021586D02*
X012060Y021586D01*
X012001Y021467D02*
X012274Y021467D01*
X012225Y021349D02*
X011942Y021349D01*
X011883Y021230D02*
X012178Y021230D01*
X012178Y021112D02*
X011824Y021112D01*
X011764Y020993D02*
X012178Y020993D01*
X012198Y020875D02*
X011705Y020875D01*
X011646Y020756D02*
X012247Y020756D01*
X012296Y020638D02*
X011587Y020638D01*
X011528Y020519D02*
X012410Y020519D01*
X012539Y020401D02*
X011469Y020401D01*
X014353Y018031D02*
X014361Y018031D01*
X014322Y017912D02*
X019087Y017912D01*
X019087Y017794D02*
X014273Y017794D01*
X014199Y017675D02*
X019087Y017675D01*
X019087Y017557D02*
X014080Y017557D01*
X013859Y017438D02*
X019087Y017438D01*
X019087Y017320D02*
X013281Y017320D01*
X013329Y017438D02*
X013381Y017438D01*
X013232Y017201D02*
X019087Y017201D01*
X019087Y017083D02*
X013134Y017083D01*
X013016Y016964D02*
X019087Y016964D01*
X019087Y018031D02*
X014847Y018031D01*
X015067Y018149D02*
X019087Y018149D01*
X019087Y018268D02*
X015185Y018268D01*
X015258Y018386D02*
X019069Y018386D01*
X018951Y018505D02*
X015307Y018505D01*
X015931Y018623D02*
X018832Y018623D01*
X018766Y018742D02*
X016092Y018742D01*
X016210Y018860D02*
X018738Y018860D01*
X018738Y018979D02*
X016259Y018979D01*
X016308Y019097D02*
X018738Y019097D01*
X018738Y019216D02*
X016920Y019216D01*
X017078Y019334D02*
X017808Y019334D01*
X017631Y019453D02*
X017195Y019453D01*
X017244Y019571D02*
X017539Y019571D01*
X017490Y019690D02*
X017293Y019690D01*
X017306Y019808D02*
X017475Y019808D01*
X017475Y019927D02*
X017306Y019927D01*
X017291Y020045D02*
X017520Y020045D01*
X017585Y020164D02*
X017242Y020164D01*
X017192Y020282D02*
X017704Y020282D01*
X017074Y020401D02*
X019792Y020401D01*
X019580Y019334D02*
X019578Y019334D01*
X019578Y019216D02*
X019926Y019216D01*
X019926Y019097D02*
X019578Y019097D01*
X019665Y018979D02*
X019933Y018979D01*
X019982Y018860D02*
X019783Y018860D01*
X019879Y018742D02*
X020089Y018742D01*
X020207Y018623D02*
X019927Y018623D01*
X019927Y018505D02*
X020188Y018505D01*
X020180Y018386D02*
X019927Y018386D01*
X019927Y018268D02*
X020192Y018268D01*
X020241Y018149D02*
X019927Y018149D01*
X019927Y018031D02*
X020343Y018031D01*
X018399Y019334D02*
X018218Y019334D01*
X018882Y022178D02*
X019704Y022178D01*
X016574Y015542D02*
X009022Y015542D01*
X008805Y015542D02*
X008679Y015542D01*
X008658Y015424D02*
X008619Y015424D01*
X008598Y015305D02*
X008560Y015305D01*
X008539Y015187D02*
X008501Y015187D01*
X008480Y015068D02*
X008442Y015068D01*
X008420Y014950D02*
X008382Y014950D01*
X008361Y014831D02*
X008323Y014831D01*
X008346Y014713D02*
X008264Y014713D01*
X008205Y014594D02*
X008378Y014594D01*
X008245Y014476D02*
X008145Y014476D01*
X008124Y014357D02*
X008086Y014357D01*
X008064Y014239D02*
X008027Y014239D01*
X008005Y014120D02*
X007968Y014120D01*
X007946Y014002D02*
X007908Y014002D01*
X007886Y013883D02*
X007849Y013883D01*
X007827Y013765D02*
X007790Y013765D01*
X007816Y013646D02*
X007731Y013646D01*
X007671Y013528D02*
X007852Y013528D01*
X007696Y013409D02*
X007612Y013409D01*
X007590Y013291D02*
X007553Y013291D01*
X007530Y013172D02*
X007494Y013172D01*
X007471Y013054D02*
X007434Y013054D01*
X007412Y012935D02*
X007375Y012935D01*
X007352Y012817D02*
X007316Y012817D01*
X007295Y012698D02*
X007257Y012698D01*
X007288Y012580D02*
X007197Y012580D01*
X007138Y012461D02*
X007332Y012461D01*
X007155Y012343D02*
X007079Y012343D01*
X007056Y012224D02*
X007020Y012224D01*
X006996Y012106D02*
X006960Y012106D01*
X006937Y011987D02*
X006901Y011987D01*
X006878Y011869D02*
X006842Y011869D01*
X006818Y011750D02*
X006783Y011750D01*
X006765Y011632D02*
X006723Y011632D01*
X006762Y011513D02*
X006664Y011513D01*
X006605Y011395D02*
X006812Y011395D01*
X006614Y011276D02*
X006546Y011276D01*
X006522Y011158D02*
X006486Y011158D01*
X006462Y011039D02*
X006427Y011039D01*
X006403Y010921D02*
X006368Y010921D01*
X006344Y010802D02*
X006309Y010802D01*
X006284Y010684D02*
X006249Y010684D01*
X006236Y010565D02*
X006190Y010565D01*
X006237Y010447D02*
X006131Y010447D01*
X006072Y010328D02*
X006292Y010328D01*
X006074Y010210D02*
X006012Y010210D01*
X005987Y010091D02*
X005953Y010091D01*
X005928Y009973D02*
X005894Y009973D01*
X005869Y009854D02*
X005835Y009854D01*
X005809Y009736D02*
X005775Y009736D01*
X005750Y009617D02*
X005716Y009617D01*
X005706Y009499D02*
X005657Y009499D01*
X005641Y009380D02*
X005711Y009380D01*
X005813Y007277D02*
X007141Y006710D01*
X008107Y006226D01*
X008304Y006212D01*
X008306Y006213D01*
X008779Y006011D01*
X009062Y005099D01*
X009010Y005048D01*
X008935Y004865D01*
X008935Y002291D01*
X008603Y002291D01*
X008607Y002310D01*
X008607Y003486D01*
X008114Y003486D01*
X008114Y003606D01*
X008607Y003606D01*
X008607Y004782D01*
X008594Y004851D01*
X008567Y004916D01*
X008528Y004974D01*
X008478Y005024D01*
X008419Y005063D01*
X008355Y005090D01*
X008286Y005103D01*
X008114Y005103D01*
X008114Y003606D01*
X007994Y003606D01*
X007994Y005103D01*
X007855Y005103D01*
X007857Y005107D01*
X007934Y005260D01*
X006595Y005931D01*
X006374Y005490D01*
X007425Y004963D01*
X007493Y004944D01*
X007557Y004940D01*
X007540Y004916D01*
X007514Y004851D01*
X007500Y004782D01*
X007500Y003606D01*
X007994Y003606D01*
X007994Y003486D01*
X007500Y003486D01*
X007500Y002310D01*
X007503Y002292D01*
X007103Y002292D01*
X006996Y002248D01*
X006993Y002247D01*
X006992Y002245D01*
X006908Y002162D01*
X006863Y002053D01*
X006863Y002052D01*
X006863Y001933D01*
X006862Y001514D01*
X002028Y001514D01*
X004191Y005848D01*
X004647Y005621D01*
X004700Y005594D01*
X004700Y005594D01*
X004700Y005594D01*
X004760Y005590D01*
X004819Y005585D01*
X004819Y005585D01*
X004820Y005585D01*
X004876Y005604D01*
X004932Y005623D01*
X004933Y005623D01*
X004977Y005662D01*
X005023Y005701D01*
X005049Y005754D01*
X005210Y006074D01*
X005215Y006070D01*
X006267Y005543D01*
X006488Y005985D01*
X006595Y005931D01*
X006649Y006038D01*
X007988Y005368D01*
X008065Y005522D01*
X008084Y005589D01*
X008089Y005659D01*
X008080Y005729D01*
X008058Y005796D01*
X008023Y005857D01*
X007977Y005910D01*
X007921Y005953D01*
X006870Y006480D01*
X006649Y006038D01*
X006541Y006092D01*
X006763Y006534D01*
X005711Y007060D01*
X005705Y007062D01*
X005813Y007277D01*
X005798Y007247D02*
X005882Y007247D01*
X005739Y007129D02*
X006160Y007129D01*
X006047Y006892D02*
X006716Y006892D01*
X006993Y006773D02*
X006284Y006773D01*
X006521Y006655D02*
X007252Y006655D01*
X007488Y006536D02*
X006757Y006536D01*
X006705Y006418D02*
X006839Y006418D01*
X006779Y006299D02*
X006645Y006299D01*
X006586Y006181D02*
X006720Y006181D01*
X006661Y006062D02*
X006601Y006062D01*
X006601Y005944D02*
X006838Y005944D01*
X006806Y005825D02*
X007074Y005825D01*
X007043Y005707D02*
X007311Y005707D01*
X007280Y005588D02*
X007548Y005588D01*
X007516Y005470D02*
X007784Y005470D01*
X007753Y005351D02*
X008984Y005351D01*
X009021Y005233D02*
X007920Y005233D01*
X007861Y005114D02*
X009057Y005114D01*
X008989Y004996D02*
X008506Y004996D01*
X008583Y004877D02*
X008940Y004877D01*
X008935Y004759D02*
X008607Y004759D01*
X008607Y004640D02*
X008935Y004640D01*
X008935Y004522D02*
X008607Y004522D01*
X008607Y004403D02*
X008935Y004403D01*
X008935Y004285D02*
X008607Y004285D01*
X008607Y004166D02*
X008935Y004166D01*
X008935Y004048D02*
X008607Y004048D01*
X008607Y003929D02*
X008935Y003929D01*
X008935Y003811D02*
X008607Y003811D01*
X008607Y003692D02*
X008935Y003692D01*
X008935Y003574D02*
X008114Y003574D01*
X008114Y003692D02*
X007994Y003692D01*
X007994Y003574D02*
X003056Y003574D01*
X003115Y003692D02*
X007500Y003692D01*
X007500Y003811D02*
X003174Y003811D01*
X003233Y003929D02*
X007500Y003929D01*
X007500Y004048D02*
X003293Y004048D01*
X003352Y004166D02*
X007500Y004166D01*
X007500Y004285D02*
X003411Y004285D01*
X003470Y004403D02*
X007500Y004403D01*
X007500Y004522D02*
X003529Y004522D01*
X003588Y004640D02*
X007500Y004640D01*
X007500Y004759D02*
X003647Y004759D01*
X003707Y004877D02*
X007525Y004877D01*
X007360Y004996D02*
X003766Y004996D01*
X003825Y005114D02*
X007124Y005114D01*
X006887Y005233D02*
X003884Y005233D01*
X003943Y005351D02*
X006650Y005351D01*
X006414Y005470D02*
X004002Y005470D01*
X004061Y005588D02*
X004778Y005588D01*
X004828Y005588D02*
X006177Y005588D01*
X006289Y005588D02*
X006423Y005588D01*
X006483Y005707D02*
X006349Y005707D01*
X006408Y005825D02*
X006542Y005825D01*
X006570Y005944D02*
X006467Y005944D01*
X005940Y005707D02*
X005026Y005707D01*
X005023Y005701D02*
X005023Y005701D01*
X005023Y005701D01*
X004933Y005623D02*
X004933Y005623D01*
X005085Y005825D02*
X005704Y005825D01*
X005467Y005944D02*
X005144Y005944D01*
X005204Y006062D02*
X005231Y006062D01*
X004474Y005707D02*
X004120Y005707D01*
X004180Y005825D02*
X004237Y005825D01*
X005811Y007010D02*
X006438Y007010D01*
X006994Y006418D02*
X007725Y006418D01*
X007962Y006299D02*
X007230Y006299D01*
X007467Y006181D02*
X008382Y006181D01*
X008660Y006062D02*
X007704Y006062D01*
X007934Y005944D02*
X008800Y005944D01*
X008837Y005825D02*
X008041Y005825D01*
X008083Y005707D02*
X008873Y005707D01*
X008910Y005588D02*
X008083Y005588D01*
X008039Y005470D02*
X008947Y005470D01*
X008114Y004996D02*
X007994Y004996D01*
X007994Y004877D02*
X008114Y004877D01*
X008114Y004759D02*
X007994Y004759D01*
X007994Y004640D02*
X008114Y004640D01*
X008114Y004522D02*
X007994Y004522D01*
X007994Y004403D02*
X008114Y004403D01*
X008114Y004285D02*
X007994Y004285D01*
X007994Y004166D02*
X008114Y004166D01*
X008114Y004048D02*
X007994Y004048D01*
X007994Y003929D02*
X008114Y003929D01*
X008114Y003811D02*
X007994Y003811D01*
X007500Y003455D02*
X002997Y003455D01*
X002938Y003337D02*
X007500Y003337D01*
X007500Y003218D02*
X003774Y003218D01*
X003709Y003245D02*
X003394Y003245D01*
X003103Y003124D01*
X002880Y002902D01*
X002759Y002611D01*
X002759Y002295D01*
X002880Y002004D01*
X003103Y001781D01*
X003394Y001661D01*
X003709Y001661D01*
X004000Y001781D01*
X004223Y002004D01*
X004344Y002295D01*
X004344Y002611D01*
X004223Y002902D01*
X004000Y003124D01*
X003709Y003245D01*
X004025Y003100D02*
X007500Y003100D01*
X007500Y002981D02*
X004144Y002981D01*
X004239Y002863D02*
X007500Y002863D01*
X007500Y002744D02*
X004288Y002744D01*
X004337Y002626D02*
X007500Y002626D01*
X007500Y002507D02*
X004344Y002507D01*
X004344Y002389D02*
X007500Y002389D01*
X007103Y002292D02*
X007103Y002292D01*
X007050Y002270D02*
X004333Y002270D01*
X004284Y002152D02*
X006904Y002152D01*
X006863Y002033D02*
X004235Y002033D01*
X004134Y001915D02*
X006862Y001915D01*
X006863Y001933D02*
X006863Y001933D01*
X006862Y001796D02*
X004015Y001796D01*
X003750Y001678D02*
X006862Y001678D01*
X006862Y001559D02*
X002051Y001559D01*
X002110Y001678D02*
X003353Y001678D01*
X003088Y001796D02*
X002169Y001796D01*
X002228Y001915D02*
X002970Y001915D01*
X002868Y002033D02*
X002287Y002033D01*
X002346Y002152D02*
X002819Y002152D01*
X002770Y002270D02*
X002406Y002270D01*
X002465Y002389D02*
X002759Y002389D01*
X002759Y002507D02*
X002524Y002507D01*
X002583Y002626D02*
X002766Y002626D01*
X002815Y002744D02*
X002642Y002744D01*
X002701Y002863D02*
X002864Y002863D01*
X002960Y002981D02*
X002760Y002981D01*
X002820Y003100D02*
X003078Y003100D01*
X002879Y003218D02*
X003329Y003218D01*
X008607Y003218D02*
X008935Y003218D01*
X008935Y003100D02*
X008607Y003100D01*
X008607Y002981D02*
X008935Y002981D01*
X008935Y002863D02*
X008607Y002863D01*
X008607Y002744D02*
X008935Y002744D01*
X008935Y002626D02*
X008607Y002626D01*
X008607Y002507D02*
X008935Y002507D01*
X008935Y002389D02*
X008607Y002389D01*
X008607Y003337D02*
X008935Y003337D01*
X008935Y003455D02*
X008607Y003455D01*
X016538Y008432D02*
X017517Y008432D01*
X017323Y008551D02*
X016601Y008551D01*
X016633Y008643D02*
X016625Y008659D01*
X016633Y008643D01*
X016625Y008659D02*
X016625Y008659D01*
X016625Y008659D01*
X016721Y008516D02*
X017121Y008424D01*
X017233Y008669D02*
X016997Y008669D01*
X016721Y008516D02*
X016455Y008997D01*
X016773Y009736D02*
X016957Y009736D01*
X016829Y009854D02*
X017173Y009854D01*
X017221Y009881D02*
X017221Y009881D01*
X017266Y009973D02*
X016831Y009973D01*
X016924Y010091D02*
X017302Y010091D01*
X017433Y010210D02*
X017128Y010210D01*
X017521Y010328D02*
X017670Y010328D01*
X017632Y010447D02*
X017907Y010447D01*
X018149Y010447D02*
X018219Y010447D01*
X018660Y010091D02*
X018684Y010091D01*
X018743Y009973D02*
X018609Y009973D01*
X020848Y013291D02*
X021593Y013291D01*
X021568Y013409D02*
X020977Y013409D01*
X021067Y013528D02*
X021591Y013528D01*
X021572Y013646D02*
X021284Y013646D01*
X021501Y013765D02*
X021513Y013765D01*
X021554Y013681D02*
X022085Y013947D01*
X021554Y013681D01*
X021721Y013765D02*
X021721Y013765D01*
X021958Y013883D02*
X021958Y013883D01*
X022085Y013947D02*
X022085Y013947D01*
X019178Y013883D02*
X014266Y013883D01*
X012335Y014002D02*
X019063Y014002D01*
X019014Y014120D02*
X016972Y014120D01*
X016677Y014120D02*
X012217Y014120D01*
X012098Y014239D02*
X016402Y014239D01*
X016283Y014357D02*
X011980Y014357D01*
X011874Y014476D02*
X016187Y014476D01*
X016138Y014594D02*
X011849Y014594D01*
X011763Y014713D02*
X016091Y014713D01*
X016091Y014831D02*
X011528Y014831D01*
X011292Y014950D02*
X016091Y014950D01*
X016120Y015068D02*
X011064Y015068D01*
X010827Y015187D02*
X016169Y015187D01*
X016240Y015305D02*
X009495Y015305D01*
X009259Y015424D02*
X016359Y015424D01*
X017557Y014831D02*
X019087Y014831D01*
X019087Y014713D02*
X017557Y014713D01*
X017511Y014594D02*
X019087Y014594D01*
X019040Y014476D02*
X017462Y014476D01*
X017366Y014357D02*
X018993Y014357D01*
X018993Y014239D02*
X017247Y014239D01*
X009916Y015187D02*
X009732Y015187D01*
X024635Y009736D02*
X025674Y009736D01*
X025923Y009617D02*
X024891Y009617D01*
X025128Y009499D02*
X026109Y009499D01*
X025990Y009380D02*
X025365Y009380D01*
X025574Y009262D02*
X025699Y009262D01*
X026551Y008195D02*
X028184Y008195D01*
X027947Y008314D02*
X026739Y008314D01*
X026937Y008432D02*
X027711Y008432D01*
X027474Y008551D02*
X027056Y008551D01*
X027109Y008669D02*
X027238Y008669D01*
D26*
X022724Y003531D03*
D27*
X018658Y011891D03*
X008496Y005461D03*
D28*
X014549Y006167D03*
X015978Y007167D03*
X017121Y008424D03*
X017658Y008891D03*
X018573Y008183D03*
X019283Y008521D03*
X021658Y010361D03*
X021596Y011454D03*
X023223Y012299D03*
X023533Y014141D03*
X023283Y014579D03*
X022783Y015454D03*
X022408Y016329D03*
X021846Y017016D03*
X020658Y018391D03*
X020783Y020329D03*
X024908Y018026D03*
X026533Y017016D03*
X025033Y016141D03*
X023971Y016579D03*
X020783Y014391D03*
X020596Y013704D03*
X019471Y014266D03*
X015596Y011079D03*
X015033Y011079D03*
X016096Y010766D03*
X017221Y010704D03*
X014846Y009454D03*
X016362Y005542D03*
X020596Y005141D03*
X021056Y006176D03*
X023221Y005141D03*
X024681Y007098D03*
X023739Y010657D03*
X025971Y012016D03*
X025971Y012579D03*
X026846Y012516D03*
X026408Y011574D03*
X026096Y013766D03*
X027846Y014204D03*
X025846Y019704D03*
X026999Y020672D03*
D29*
X026202Y021364D02*
X026202Y018919D01*
X026533Y018588D01*
X026533Y017016D01*
X026533Y016375D01*
X027967Y014895D01*
X028950Y014836D01*
X028524Y013971D02*
X028093Y013995D01*
X027846Y014204D01*
X027846Y014516D01*
X026408Y016016D01*
X026096Y016329D01*
X026096Y018549D01*
X025033Y019611D01*
X025032Y019702D01*
X025846Y019704D01*
X025032Y019702D02*
X025021Y021364D01*
X023840Y021364D02*
X023846Y020516D01*
X023846Y020259D01*
X025721Y018384D01*
X025721Y015704D01*
X025783Y015641D01*
X026346Y015641D01*
X027346Y014579D01*
X027346Y013829D01*
X027929Y013246D01*
X028005Y013228D01*
X027806Y012841D02*
X027746Y012877D01*
X026258Y012877D01*
X026209Y012828D01*
X026209Y012820D01*
X025971Y012579D01*
X025971Y012016D02*
X026795Y012016D01*
X027237Y011756D01*
X027437Y012146D02*
X027415Y012197D01*
X027096Y012516D01*
X026846Y012516D01*
X026408Y011574D02*
X026413Y011011D01*
X026839Y010781D01*
X026440Y009950D02*
X025846Y010079D01*
X025846Y011266D01*
X025533Y011579D01*
X025533Y013329D01*
X026096Y013766D01*
X025721Y014704D02*
X025721Y015704D01*
X025346Y016141D02*
X025033Y016141D01*
X025346Y016141D02*
X025346Y015079D01*
X024139Y014416D01*
X023533Y014141D01*
X023971Y013766D02*
X024363Y013969D01*
X025721Y014704D01*
X023915Y014864D02*
X023283Y014579D01*
X022783Y015454D02*
X023468Y015758D01*
X023244Y016205D02*
X023421Y016298D01*
X023971Y016579D01*
X024283Y016579D01*
X024908Y017204D01*
X024908Y018026D01*
X025346Y018134D02*
X025346Y016141D01*
X023596Y016391D02*
X023421Y016298D01*
X023244Y016205D02*
X022346Y015766D01*
X022283Y015454D01*
X023783Y012391D01*
X023189Y011797D01*
X023223Y012236D01*
X023223Y012299D01*
X023189Y011797D02*
X022408Y011016D01*
X022408Y009829D01*
X022537Y009766D01*
X023035Y009518D01*
X023259Y009965D02*
X022783Y010204D01*
X022783Y010391D01*
X022971Y010579D01*
X023739Y010657D01*
X024596Y010704D02*
X024596Y011704D01*
X023783Y013266D01*
X023971Y013766D01*
X022085Y013947D02*
X021596Y013641D01*
X021861Y014394D02*
X020596Y013704D01*
X020783Y014391D02*
X021637Y014841D01*
X021413Y015288D02*
X021774Y015484D01*
X021797Y015484D01*
X021927Y015613D01*
X021927Y016935D01*
X021846Y017016D01*
X022408Y016329D02*
X023020Y016652D01*
X023783Y017079D01*
X023783Y019016D01*
X022533Y020266D01*
X021721Y020266D01*
X021471Y020454D01*
X021471Y020947D01*
X021477Y020954D01*
X021477Y021364D01*
X022574Y021003D02*
X022721Y020856D01*
X022721Y020759D01*
X025346Y018134D01*
X022533Y020704D02*
X022533Y020829D01*
X022574Y021003D01*
X022659Y021364D01*
X020783Y020329D02*
X020261Y021181D01*
X020261Y021329D01*
X020296Y021364D01*
X020346Y019884D02*
X020356Y019831D01*
X021413Y015288D02*
X020033Y014516D01*
X020033Y011079D01*
X021721Y009391D01*
X021721Y008516D01*
X022363Y008177D01*
X022846Y007954D01*
X023096Y007641D01*
X022533Y006329D01*
X022381Y006176D01*
X021056Y006176D01*
X020596Y005141D02*
X023221Y005141D01*
X024679Y005374D02*
X024283Y006641D01*
X023830Y006883D01*
X024053Y007330D02*
X024681Y007098D01*
X025408Y007335D02*
X025587Y007156D01*
X025408Y007335D02*
X025408Y008266D01*
X025283Y008391D01*
X024725Y008672D01*
X024949Y009119D02*
X025533Y008829D01*
X026283Y009016D01*
X027471Y009204D02*
X027954Y008976D01*
X028483Y010033D02*
X027908Y010329D01*
X024949Y009119D02*
X024471Y009391D01*
X024221Y009329D01*
X023658Y008266D01*
X023658Y008079D01*
X024277Y007777D01*
X024501Y008225D02*
X024908Y008016D01*
X025033Y007954D01*
X025033Y006365D01*
X025133Y006265D01*
X023408Y008454D02*
X023033Y008391D01*
X022587Y008624D01*
X022811Y009071D02*
X022346Y009329D01*
X022033Y009516D01*
X022033Y009829D01*
X021658Y010361D01*
X019353Y008472D02*
X019283Y008521D01*
X019289Y007885D01*
X019289Y005810D01*
X017949Y004470D01*
X018053Y004490D01*
X018067Y004509D01*
X018069Y004511D01*
X018053Y003947D02*
X018069Y003931D01*
X018069Y003172D01*
X017173Y002277D01*
X017110Y002277D01*
X016888Y003408D02*
X016179Y003408D01*
X015943Y003172D01*
X015943Y002290D01*
X015929Y002277D01*
X014748Y002277D02*
X014748Y002686D01*
X015982Y003920D01*
X016526Y003920D01*
X016553Y003947D01*
X016553Y004490D02*
X017084Y005041D01*
X017084Y006755D01*
X016712Y007167D01*
X015978Y007167D01*
X015214Y007447D02*
X015214Y006808D01*
X015621Y006401D01*
X016415Y006401D01*
X016730Y006086D01*
X016730Y005259D01*
X016415Y004944D01*
X015352Y004944D01*
X015046Y004559D01*
X015157Y004441D01*
X015157Y003895D02*
X015169Y003883D01*
X015169Y003855D01*
X014643Y003330D01*
X014250Y003330D01*
X013620Y002700D01*
X013620Y002330D01*
X013567Y002277D01*
X013864Y003375D02*
X012722Y003375D01*
X012386Y003040D01*
X012386Y002277D01*
X011205Y002277D02*
X011205Y003336D01*
X011745Y003876D01*
X013576Y003876D01*
X013864Y003375D02*
X014345Y003895D01*
X014345Y004441D02*
X014368Y004582D01*
X014368Y004944D01*
X014683Y005259D01*
X016040Y005259D01*
X016362Y005542D01*
X016376Y005713D01*
X016297Y005849D01*
X016061Y006086D01*
X015431Y006086D01*
X014846Y006671D01*
X014846Y008266D01*
X013658Y009454D01*
X009434Y009454D01*
X009106Y009763D01*
X009408Y009141D02*
X013533Y009141D01*
X014533Y008141D01*
X014533Y006269D01*
X014549Y006167D01*
X014549Y005677D01*
X013738Y004786D01*
X013738Y004584D01*
X013595Y004441D01*
X016888Y003408D02*
X017303Y003824D01*
X017303Y003947D01*
X017303Y004490D02*
X017303Y004611D01*
X018573Y005881D01*
X018573Y008183D01*
X017930Y009793D02*
X017721Y009704D01*
X017221Y010704D02*
X016472Y010268D01*
X016331Y010080D01*
X015662Y009825D02*
X015662Y009745D01*
X015660Y009747D01*
X015391Y009747D01*
X015033Y010105D01*
X015033Y011079D01*
X015033Y011516D01*
X013828Y012721D01*
X010890Y012721D01*
X010508Y012784D01*
X010890Y013638D02*
X011411Y013638D01*
X011908Y013141D01*
X013971Y013141D01*
X015596Y011516D01*
X015596Y011079D01*
X016096Y010766D02*
X016096Y011516D01*
X014033Y013579D01*
X012221Y013579D01*
X011432Y014368D01*
X011256Y014368D01*
X010769Y014616D02*
X010494Y014891D01*
X010158Y014891D01*
X009930Y014663D01*
X009449Y014663D01*
X010358Y013842D02*
X010404Y013887D01*
X010358Y013842D02*
X010155Y013842D01*
X009920Y013606D01*
X008920Y013606D01*
X008630Y013792D01*
X011100Y010949D02*
X011221Y010891D01*
X010221Y009829D02*
X014471Y009829D01*
X014846Y009454D01*
X015470Y008830D01*
X016121Y008830D01*
X016158Y008792D01*
X016158Y008391D01*
X015214Y007447D01*
X014846Y009391D02*
X014846Y009454D01*
X010221Y009829D02*
X009557Y010492D01*
X009472Y010492D01*
X009408Y009141D02*
X009300Y009033D01*
X008740Y009033D01*
X019471Y014266D02*
X019507Y014302D01*
X024596Y010704D02*
X023408Y008454D01*
X022140Y007730D02*
X021596Y008016D01*
X020783Y008016D01*
X020596Y007829D01*
X020596Y005141D01*
D30*
X013158Y005065D03*
X009565Y008369D03*
X008856Y008093D03*
X008187Y008330D03*
X012818Y015368D03*
X026353Y014609D03*
X028226Y017464D03*
X028029Y018251D03*
D31*
X022678Y018635D03*
X020158Y017454D03*
X018869Y015891D03*
X017533Y015891D03*
X011221Y010891D03*
X011221Y008516D03*
X012221Y008454D03*
X018547Y009000D03*
D32*
X017658Y008891D02*
X017350Y009472D01*
X016790Y009165D01*
X017350Y009472D02*
X017658Y009641D01*
X017721Y009704D01*
X019507Y014302D02*
X019507Y018543D01*
X019158Y018891D01*
X019158Y019795D01*
X019194Y019831D01*
X020346Y019884D02*
X020346Y019079D01*
X020658Y018766D01*
X020658Y018391D01*
X021283Y018928D02*
X021283Y017766D01*
X021033Y017516D01*
X021041Y016629D01*
X021189Y016481D01*
X021189Y015735D01*
X021283Y018928D02*
X020945Y019266D01*
X020945Y019830D01*
X020946Y019831D01*
X029464Y014584D02*
X029658Y014704D01*
X030598Y014257D01*
X030069Y013201D02*
X029042Y013731D01*
X028478Y012752D02*
X028783Y012516D01*
X029541Y012145D01*
X029012Y011089D02*
X027908Y011672D01*
X027314Y010529D02*
X027908Y010329D01*
X026915Y009698D02*
X027471Y009204D01*
X026495Y008938D02*
X026283Y009016D01*
X010038Y013032D02*
X009693Y012276D01*
X008987Y012236D01*
X008437Y012550D01*
X008391Y012550D01*
X007862Y011494D02*
X008658Y011079D01*
X008985Y010740D01*
X008619Y010011D02*
X007333Y010438D01*
X007396Y010462D01*
X006804Y009382D02*
X007658Y008954D01*
X008253Y009281D01*
D33*
X008265Y008172D02*
X009643Y006086D01*
X009628Y003566D01*
X011846Y005829D02*
X012892Y005829D01*
X013108Y005613D01*
X013108Y005115D01*
X013158Y005065D01*
X011846Y005829D02*
X011221Y006454D01*
X011221Y008516D01*
X012221Y008454D02*
X012719Y007955D01*
X013094Y007157D01*
X011221Y010891D02*
X011404Y011074D01*
X013094Y011074D01*
D34*
X013094Y007157D02*
X013158Y006718D01*
D35*
X028817Y017109D03*
D36*
X030147Y016204D01*
D37*
X010085Y008691D02*
X010047Y003376D01*
X009131Y006329D01*
X006071Y007634D01*
X006549Y008586D01*
X006582Y008652D01*
X006582Y008652D01*
X006582Y008653D01*
X006587Y008726D01*
X006589Y008746D01*
X007241Y008419D01*
X007388Y008409D01*
X007528Y008455D01*
X007545Y008471D01*
X007571Y008469D01*
X007615Y008456D01*
X007668Y008462D01*
X007720Y008458D01*
X007764Y008472D01*
X007809Y008477D01*
X007855Y008503D01*
X007905Y008519D01*
X007940Y008549D01*
X008141Y008660D01*
X008185Y008638D01*
X008192Y008630D01*
X008746Y008352D01*
X008893Y008342D01*
X009032Y008388D01*
X009144Y008485D01*
X009193Y008583D01*
X009390Y008583D01*
X009555Y008652D01*
X009595Y008691D01*
X010085Y008691D01*
X010085Y008690D02*
X009593Y008690D01*
X009409Y008591D02*
X010085Y008591D01*
X010084Y008493D02*
X009148Y008493D01*
X009039Y008394D02*
X010083Y008394D01*
X010083Y008296D02*
X006403Y008296D01*
X006452Y008394D02*
X008662Y008394D01*
X008465Y008493D02*
X007837Y008493D01*
X008016Y008591D02*
X008269Y008591D01*
X007095Y008493D02*
X006502Y008493D01*
X006551Y008591D02*
X006898Y008591D01*
X006701Y008690D02*
X006585Y008690D01*
X006353Y008197D02*
X010082Y008197D01*
X010081Y008099D02*
X006304Y008099D01*
X006255Y008000D02*
X010080Y008000D01*
X010080Y007902D02*
X006205Y007902D01*
X006156Y007803D02*
X010079Y007803D01*
X010078Y007705D02*
X006106Y007705D01*
X006137Y007606D02*
X010078Y007606D01*
X010077Y007508D02*
X006368Y007508D01*
X006598Y007409D02*
X010076Y007409D01*
X010075Y007311D02*
X006829Y007311D01*
X007060Y007212D02*
X010075Y007212D01*
X010074Y007114D02*
X007291Y007114D01*
X007522Y007015D02*
X010073Y007015D01*
X010073Y006917D02*
X007753Y006917D01*
X007983Y006818D02*
X010072Y006818D01*
X010071Y006720D02*
X008214Y006720D01*
X008445Y006621D02*
X010070Y006621D01*
X010070Y006523D02*
X008676Y006523D01*
X008907Y006424D02*
X010069Y006424D01*
X010068Y006326D02*
X009132Y006326D01*
X009162Y006227D02*
X010068Y006227D01*
X010067Y006129D02*
X009193Y006129D01*
X009223Y006030D02*
X010066Y006030D01*
X010065Y005932D02*
X009254Y005932D01*
X009284Y005833D02*
X010065Y005833D01*
X010064Y005735D02*
X009315Y005735D01*
X009346Y005636D02*
X010063Y005636D01*
X010063Y005538D02*
X009376Y005538D01*
X009407Y005439D02*
X010062Y005439D01*
X010061Y005341D02*
X009437Y005341D01*
X009468Y005242D02*
X010060Y005242D01*
X010060Y005144D02*
X009498Y005144D01*
X009529Y005045D02*
X010059Y005045D01*
X010058Y004947D02*
X009560Y004947D01*
X009590Y004848D02*
X010058Y004848D01*
X010057Y004750D02*
X009621Y004750D01*
X009651Y004651D02*
X010056Y004651D01*
X010055Y004553D02*
X009682Y004553D01*
X009712Y004454D02*
X010055Y004454D01*
X010054Y004356D02*
X009743Y004356D01*
X009774Y004257D02*
X010053Y004257D01*
X010053Y004159D02*
X009804Y004159D01*
X009835Y004060D02*
X010052Y004060D01*
X010051Y003962D02*
X009865Y003962D01*
X009896Y003863D02*
X010051Y003863D01*
X010050Y003765D02*
X009926Y003765D01*
X009957Y003666D02*
X010049Y003666D01*
X010048Y003568D02*
X009987Y003568D01*
X010018Y003469D02*
X010048Y003469D01*
D38*
X013576Y003876D02*
X013595Y003895D01*
M02*
