G75*
%MOIN*%
%OFA0B0*%
%FSLAX24Y24*%
%IPPOS*%
%LPD*%
%AMOC8*
5,1,8,0,0,1.08239X$1,22.5*
%
%ADD10C,0.0000*%
%ADD11C,0.0030*%
%ADD12C,0.0039*%
%ADD13C,0.0020*%
%ADD14C,0.0120*%
%ADD15C,0.0060*%
%ADD16C,0.0080*%
%ADD17C,0.0040*%
%ADD18R,0.0660X0.0380*%
%ADD19R,0.0492X0.2441*%
%ADD20C,0.0050*%
D10*
X001464Y001214D02*
X006978Y001214D01*
X007083Y001332D01*
X007084Y001992D01*
X010297Y001990D01*
X010291Y000897D01*
X017774Y000897D01*
X018329Y001214D01*
X025175Y001214D01*
X028236Y007336D01*
X028767Y007690D01*
X032134Y014373D01*
X031140Y014865D01*
X032577Y017739D01*
X033167Y017444D01*
X033315Y017483D01*
X035785Y022424D01*
X030024Y022423D01*
X030024Y022424D02*
X030024Y021647D01*
X026911Y021647D01*
X026911Y022739D01*
X019397Y022739D01*
X018610Y022424D01*
X012065Y022424D01*
X009141Y016568D01*
X008482Y015977D01*
X005126Y009265D01*
X006140Y008753D01*
X004703Y005889D01*
X004112Y006184D01*
X003925Y006145D01*
X001464Y001214D01*
X002981Y002453D02*
X002983Y002497D01*
X002989Y002541D01*
X002999Y002584D01*
X003012Y002626D01*
X003030Y002666D01*
X003051Y002705D01*
X003075Y002742D01*
X003102Y002777D01*
X003133Y002809D01*
X003166Y002838D01*
X003202Y002864D01*
X003240Y002886D01*
X003280Y002905D01*
X003321Y002921D01*
X003364Y002933D01*
X003407Y002941D01*
X003451Y002945D01*
X003495Y002945D01*
X003539Y002941D01*
X003582Y002933D01*
X003625Y002921D01*
X003666Y002905D01*
X003706Y002886D01*
X003744Y002864D01*
X003780Y002838D01*
X003813Y002809D01*
X003844Y002777D01*
X003871Y002742D01*
X003895Y002705D01*
X003916Y002666D01*
X003934Y002626D01*
X003947Y002584D01*
X003957Y002541D01*
X003963Y002497D01*
X003965Y002453D01*
X003963Y002409D01*
X003957Y002365D01*
X003947Y002322D01*
X003934Y002280D01*
X003916Y002240D01*
X003895Y002201D01*
X003871Y002164D01*
X003844Y002129D01*
X003813Y002097D01*
X003780Y002068D01*
X003744Y002042D01*
X003706Y002020D01*
X003666Y002001D01*
X003625Y001985D01*
X003582Y001973D01*
X003539Y001965D01*
X003495Y001961D01*
X003451Y001961D01*
X003407Y001965D01*
X003364Y001973D01*
X003321Y001985D01*
X003280Y002001D01*
X003240Y002020D01*
X003202Y002042D01*
X003166Y002068D01*
X003133Y002097D01*
X003102Y002129D01*
X003075Y002164D01*
X003051Y002201D01*
X003030Y002240D01*
X003012Y002280D01*
X002999Y002322D01*
X002989Y002365D01*
X002983Y002409D01*
X002981Y002453D01*
X016313Y014853D02*
X016315Y014894D01*
X016321Y014935D01*
X016331Y014975D01*
X016344Y015014D01*
X016361Y015051D01*
X016382Y015087D01*
X016406Y015121D01*
X016433Y015152D01*
X016462Y015180D01*
X016495Y015206D01*
X016529Y015228D01*
X016566Y015247D01*
X016604Y015262D01*
X016644Y015274D01*
X016684Y015282D01*
X016725Y015286D01*
X016767Y015286D01*
X016808Y015282D01*
X016848Y015274D01*
X016888Y015262D01*
X016926Y015247D01*
X016962Y015228D01*
X016997Y015206D01*
X017030Y015180D01*
X017059Y015152D01*
X017086Y015121D01*
X017110Y015087D01*
X017131Y015051D01*
X017148Y015014D01*
X017161Y014975D01*
X017171Y014935D01*
X017177Y014894D01*
X017179Y014853D01*
X017177Y014812D01*
X017171Y014771D01*
X017161Y014731D01*
X017148Y014692D01*
X017131Y014655D01*
X017110Y014619D01*
X017086Y014585D01*
X017059Y014554D01*
X017030Y014526D01*
X016997Y014500D01*
X016963Y014478D01*
X016926Y014459D01*
X016888Y014444D01*
X016848Y014432D01*
X016808Y014424D01*
X016767Y014420D01*
X016725Y014420D01*
X016684Y014424D01*
X016644Y014432D01*
X016604Y014444D01*
X016566Y014459D01*
X016530Y014478D01*
X016495Y014500D01*
X016462Y014526D01*
X016433Y014554D01*
X016406Y014585D01*
X016382Y014619D01*
X016361Y014655D01*
X016344Y014692D01*
X016331Y014731D01*
X016321Y014771D01*
X016315Y014812D01*
X016313Y014853D01*
X012400Y021079D02*
X012402Y021123D01*
X012408Y021167D01*
X012418Y021210D01*
X012431Y021252D01*
X012449Y021292D01*
X012470Y021331D01*
X012494Y021368D01*
X012521Y021403D01*
X012552Y021435D01*
X012585Y021464D01*
X012621Y021490D01*
X012659Y021512D01*
X012699Y021531D01*
X012740Y021547D01*
X012783Y021559D01*
X012826Y021567D01*
X012870Y021571D01*
X012914Y021571D01*
X012958Y021567D01*
X013001Y021559D01*
X013044Y021547D01*
X013085Y021531D01*
X013125Y021512D01*
X013163Y021490D01*
X013199Y021464D01*
X013232Y021435D01*
X013263Y021403D01*
X013290Y021368D01*
X013314Y021331D01*
X013335Y021292D01*
X013353Y021252D01*
X013366Y021210D01*
X013376Y021167D01*
X013382Y021123D01*
X013384Y021079D01*
X013382Y021035D01*
X013376Y020991D01*
X013366Y020948D01*
X013353Y020906D01*
X013335Y020866D01*
X013314Y020827D01*
X013290Y020790D01*
X013263Y020755D01*
X013232Y020723D01*
X013199Y020694D01*
X013163Y020668D01*
X013125Y020646D01*
X013085Y020627D01*
X013044Y020611D01*
X013001Y020599D01*
X012958Y020591D01*
X012914Y020587D01*
X012870Y020587D01*
X012826Y020591D01*
X012783Y020599D01*
X012740Y020611D01*
X012699Y020627D01*
X012659Y020646D01*
X012621Y020668D01*
X012585Y020694D01*
X012552Y020723D01*
X012521Y020755D01*
X012494Y020790D01*
X012470Y020827D01*
X012449Y020866D01*
X012431Y020906D01*
X012418Y020948D01*
X012408Y020991D01*
X012402Y021035D01*
X012400Y021079D01*
X020065Y008781D02*
X020067Y008822D01*
X020073Y008863D01*
X020083Y008903D01*
X020096Y008942D01*
X020113Y008979D01*
X020134Y009015D01*
X020158Y009049D01*
X020185Y009080D01*
X020214Y009108D01*
X020247Y009134D01*
X020281Y009156D01*
X020318Y009175D01*
X020356Y009190D01*
X020396Y009202D01*
X020436Y009210D01*
X020477Y009214D01*
X020519Y009214D01*
X020560Y009210D01*
X020600Y009202D01*
X020640Y009190D01*
X020678Y009175D01*
X020714Y009156D01*
X020749Y009134D01*
X020782Y009108D01*
X020811Y009080D01*
X020838Y009049D01*
X020862Y009015D01*
X020883Y008979D01*
X020900Y008942D01*
X020913Y008903D01*
X020923Y008863D01*
X020929Y008822D01*
X020931Y008781D01*
X020929Y008740D01*
X020923Y008699D01*
X020913Y008659D01*
X020900Y008620D01*
X020883Y008583D01*
X020862Y008547D01*
X020838Y008513D01*
X020811Y008482D01*
X020782Y008454D01*
X020749Y008428D01*
X020715Y008406D01*
X020678Y008387D01*
X020640Y008372D01*
X020600Y008360D01*
X020560Y008352D01*
X020519Y008348D01*
X020477Y008348D01*
X020436Y008352D01*
X020396Y008360D01*
X020356Y008372D01*
X020318Y008387D01*
X020282Y008406D01*
X020247Y008428D01*
X020214Y008454D01*
X020185Y008482D01*
X020158Y008513D01*
X020134Y008547D01*
X020113Y008583D01*
X020096Y008620D01*
X020083Y008659D01*
X020073Y008699D01*
X020067Y008740D01*
X020065Y008781D01*
X023850Y002550D02*
X023852Y002594D01*
X023858Y002638D01*
X023868Y002681D01*
X023881Y002723D01*
X023899Y002763D01*
X023920Y002802D01*
X023944Y002839D01*
X023971Y002874D01*
X024002Y002906D01*
X024035Y002935D01*
X024071Y002961D01*
X024109Y002983D01*
X024149Y003002D01*
X024190Y003018D01*
X024233Y003030D01*
X024276Y003038D01*
X024320Y003042D01*
X024364Y003042D01*
X024408Y003038D01*
X024451Y003030D01*
X024494Y003018D01*
X024535Y003002D01*
X024575Y002983D01*
X024613Y002961D01*
X024649Y002935D01*
X024682Y002906D01*
X024713Y002874D01*
X024740Y002839D01*
X024764Y002802D01*
X024785Y002763D01*
X024803Y002723D01*
X024816Y002681D01*
X024826Y002638D01*
X024832Y002594D01*
X024834Y002550D01*
X024832Y002506D01*
X024826Y002462D01*
X024816Y002419D01*
X024803Y002377D01*
X024785Y002337D01*
X024764Y002298D01*
X024740Y002261D01*
X024713Y002226D01*
X024682Y002194D01*
X024649Y002165D01*
X024613Y002139D01*
X024575Y002117D01*
X024535Y002098D01*
X024494Y002082D01*
X024451Y002070D01*
X024408Y002062D01*
X024364Y002058D01*
X024320Y002058D01*
X024276Y002062D01*
X024233Y002070D01*
X024190Y002082D01*
X024149Y002098D01*
X024109Y002117D01*
X024071Y002139D01*
X024035Y002165D01*
X024002Y002194D01*
X023971Y002226D01*
X023944Y002261D01*
X023920Y002298D01*
X023899Y002337D01*
X023881Y002377D01*
X023868Y002419D01*
X023858Y002462D01*
X023852Y002506D01*
X023850Y002550D01*
X033280Y021185D02*
X033282Y021229D01*
X033288Y021273D01*
X033298Y021316D01*
X033311Y021358D01*
X033329Y021398D01*
X033350Y021437D01*
X033374Y021474D01*
X033401Y021509D01*
X033432Y021541D01*
X033465Y021570D01*
X033501Y021596D01*
X033539Y021618D01*
X033579Y021637D01*
X033620Y021653D01*
X033663Y021665D01*
X033706Y021673D01*
X033750Y021677D01*
X033794Y021677D01*
X033838Y021673D01*
X033881Y021665D01*
X033924Y021653D01*
X033965Y021637D01*
X034005Y021618D01*
X034043Y021596D01*
X034079Y021570D01*
X034112Y021541D01*
X034143Y021509D01*
X034170Y021474D01*
X034194Y021437D01*
X034215Y021398D01*
X034233Y021358D01*
X034246Y021316D01*
X034256Y021273D01*
X034262Y021229D01*
X034264Y021185D01*
X034262Y021141D01*
X034256Y021097D01*
X034246Y021054D01*
X034233Y021012D01*
X034215Y020972D01*
X034194Y020933D01*
X034170Y020896D01*
X034143Y020861D01*
X034112Y020829D01*
X034079Y020800D01*
X034043Y020774D01*
X034005Y020752D01*
X033965Y020733D01*
X033924Y020717D01*
X033881Y020705D01*
X033838Y020697D01*
X033794Y020693D01*
X033750Y020693D01*
X033706Y020697D01*
X033663Y020705D01*
X033620Y020717D01*
X033579Y020733D01*
X033539Y020752D01*
X033501Y020774D01*
X033465Y020800D01*
X033432Y020829D01*
X033401Y020861D01*
X033374Y020896D01*
X033350Y020933D01*
X033329Y020972D01*
X033311Y021012D01*
X033298Y021054D01*
X033288Y021097D01*
X033282Y021141D01*
X033280Y021185D01*
D11*
X029735Y021259D02*
X029735Y021453D01*
X029687Y021501D01*
X029590Y021501D01*
X029542Y021453D01*
X029542Y021356D01*
X029638Y021356D01*
X029542Y021259D02*
X029590Y021211D01*
X029687Y021211D01*
X029735Y021259D01*
X029441Y021211D02*
X029247Y021501D01*
X029247Y021211D01*
X029146Y021211D02*
X029146Y021501D01*
X029001Y021501D01*
X028952Y021453D01*
X028952Y021259D01*
X029001Y021211D01*
X029146Y021211D01*
X029441Y021211D02*
X029441Y021501D01*
X028252Y021356D02*
X028058Y021356D01*
X028155Y021259D02*
X028155Y021453D01*
X027957Y021501D02*
X027764Y021308D01*
X027764Y021259D01*
X027812Y021211D01*
X027909Y021211D01*
X027957Y021259D01*
X027957Y021501D02*
X027764Y021501D01*
X027663Y021356D02*
X027469Y021356D01*
X027368Y021404D02*
X027271Y021501D01*
X027175Y021404D01*
X027175Y021211D01*
X027368Y021211D02*
X027368Y021404D01*
X027518Y021501D02*
X027518Y021211D01*
X027663Y021356D01*
X023128Y021643D02*
X022992Y021779D01*
X022992Y021643D02*
X023128Y021779D01*
X022852Y021639D02*
X022783Y021639D01*
X022681Y021537D01*
X022886Y021332D01*
X022988Y021434D01*
X022988Y021503D01*
X022852Y021639D01*
X022628Y021779D02*
X022492Y021643D01*
X022352Y021639D02*
X022283Y021639D01*
X022181Y021537D01*
X022386Y021332D01*
X022488Y021434D01*
X022488Y021503D01*
X022352Y021639D01*
X022170Y021809D02*
X022033Y021946D01*
X022033Y021809D02*
X022170Y021946D01*
X022064Y021635D02*
X021859Y021840D01*
X021722Y021704D02*
X022064Y021635D01*
X022109Y021465D02*
X021972Y021328D01*
X022177Y021123D01*
X022314Y021260D01*
X022366Y021223D02*
X022435Y021223D01*
X022503Y021154D01*
X022503Y021086D01*
X022401Y020983D01*
X022469Y020915D02*
X022264Y021120D01*
X022366Y021223D01*
X022472Y021328D02*
X022677Y021123D01*
X022814Y021260D01*
X022643Y021294D02*
X022575Y021226D01*
X022472Y021328D02*
X022609Y021465D01*
X022143Y021294D02*
X022075Y021226D01*
X022003Y021154D02*
X022003Y021086D01*
X021901Y020983D01*
X021969Y020915D02*
X021764Y021120D01*
X021866Y021223D01*
X021935Y021223D01*
X022003Y021154D01*
X021969Y021052D02*
X022106Y021052D01*
X022469Y021052D02*
X022606Y021052D01*
X021928Y021498D02*
X021722Y021704D01*
X021651Y021632D02*
X021514Y021495D01*
X021719Y021290D01*
X021856Y021427D01*
X021685Y021461D02*
X021617Y021393D01*
X021442Y021424D02*
X021306Y021287D01*
X021511Y021082D01*
X021648Y021218D01*
X021477Y021253D02*
X021408Y021184D01*
X021337Y021113D02*
X021337Y021044D01*
X021234Y020942D01*
X021302Y021010D02*
X021439Y021010D01*
X021337Y021113D02*
X021268Y021181D01*
X021200Y021181D01*
X021097Y021078D01*
X021302Y020873D01*
X021197Y020836D02*
X021128Y020904D01*
X021060Y020836D01*
X021060Y020973D02*
X020991Y020973D01*
X020923Y020904D01*
X020923Y020836D01*
X021060Y020699D01*
X021128Y020699D01*
X021197Y020767D01*
X021197Y020836D01*
X020948Y021082D02*
X020743Y021287D01*
X020880Y021424D01*
X020951Y021495D02*
X021157Y021290D01*
X021293Y021427D01*
X021365Y021498D02*
X021160Y021704D01*
X021502Y021635D01*
X021297Y021840D01*
X021471Y021809D02*
X021608Y021946D01*
X021088Y021632D02*
X020951Y021495D01*
X021054Y021393D02*
X021122Y021461D01*
X021085Y021218D02*
X020948Y021082D01*
X020877Y021010D02*
X020740Y021010D01*
X020774Y021044D02*
X020672Y020942D01*
X020740Y020873D02*
X020535Y021078D01*
X020637Y021181D01*
X020706Y021181D01*
X020774Y021113D01*
X020774Y021044D01*
X020846Y021184D02*
X020914Y021253D01*
X020606Y021427D02*
X020469Y021290D01*
X020264Y021495D01*
X020401Y021632D01*
X020435Y021461D02*
X020367Y021393D01*
X020363Y021253D02*
X020192Y021424D01*
X020168Y021552D02*
X020032Y021415D01*
X019826Y021620D01*
X019963Y021757D01*
X019997Y021586D02*
X019929Y021518D01*
X019926Y021378D02*
X019755Y021549D01*
X019618Y021412D02*
X019789Y021241D01*
X019858Y021241D01*
X019926Y021309D01*
X019926Y021378D01*
X020056Y021287D02*
X020227Y021116D01*
X020295Y021116D01*
X020363Y021184D01*
X020363Y021253D01*
X020429Y020973D02*
X020361Y020904D01*
X020361Y020836D01*
X020497Y020699D01*
X020566Y020699D01*
X020634Y020767D01*
X020634Y020836D01*
X020566Y020904D01*
X020497Y020836D01*
X020497Y020973D02*
X020429Y020973D01*
X020189Y021010D02*
X020052Y020873D01*
X019847Y021078D01*
X019752Y021135D02*
X019615Y020998D01*
X019410Y021203D01*
X019372Y021098D02*
X019407Y021064D01*
X019407Y020995D01*
X019304Y020892D01*
X019407Y020790D02*
X019509Y020892D01*
X019509Y020961D01*
X019475Y020995D01*
X019407Y020995D01*
X019372Y021098D02*
X019304Y021098D01*
X019201Y020995D01*
X019407Y020790D01*
X019639Y020870D02*
X019844Y020665D01*
X019947Y020767D01*
X019947Y020836D01*
X019913Y020870D01*
X019844Y020870D01*
X019741Y020767D01*
X019639Y020870D02*
X019741Y020973D01*
X019810Y020973D01*
X019844Y020939D01*
X019844Y020870D01*
X019233Y021491D02*
X019028Y021697D01*
X019165Y021833D01*
X019199Y021662D02*
X019130Y021594D01*
X019233Y021491D02*
X019370Y021628D01*
X019339Y021802D02*
X019476Y021939D01*
X019339Y021939D02*
X019476Y021802D01*
X018956Y021625D02*
X018819Y021488D01*
X018888Y021557D02*
X019093Y021351D01*
X018954Y021212D02*
X018886Y021144D01*
X018920Y021178D02*
X018715Y021384D01*
X018681Y021349D02*
X018749Y021418D01*
X018671Y021491D02*
X018807Y021628D01*
X018636Y021662D02*
X018568Y021594D01*
X018465Y021697D02*
X018671Y021491D01*
X018531Y021351D02*
X018325Y021557D01*
X018257Y021488D02*
X018394Y021625D01*
X018465Y021697D02*
X018602Y021833D01*
X018776Y021802D02*
X018913Y021939D01*
X018609Y021278D02*
X018814Y021073D01*
X018712Y021175D02*
X018575Y021038D01*
X018677Y020936D02*
X018472Y021141D01*
X018401Y021069D02*
X018606Y020864D01*
X018469Y020864D01*
X018469Y020727D01*
X018264Y020933D01*
X018252Y021073D02*
X018047Y021278D01*
X018118Y021349D02*
X018186Y021418D01*
X018152Y021384D02*
X018358Y021178D01*
X018323Y021144D02*
X018392Y021212D01*
X018149Y021175D02*
X018012Y021038D01*
X018115Y020936D02*
X017910Y021141D01*
X017838Y021069D02*
X018043Y020864D01*
X017907Y020864D01*
X017907Y020727D01*
X017701Y020933D01*
X017177Y020009D02*
X016807Y020009D01*
X016807Y020132D02*
X016807Y019885D01*
X016869Y019764D02*
X016807Y019702D01*
X016807Y019579D01*
X016869Y019517D01*
X016930Y019517D01*
X016992Y019579D01*
X016992Y019702D01*
X017054Y019764D01*
X017115Y019764D01*
X017177Y019702D01*
X017177Y019579D01*
X017115Y019517D01*
X017115Y019334D02*
X016807Y019334D01*
X016807Y019272D02*
X016807Y019396D01*
X017115Y019334D02*
X017177Y019272D01*
X017177Y019210D01*
X017115Y019149D01*
X020575Y021601D02*
X020712Y021738D01*
X020575Y021738D02*
X020712Y021601D01*
X020274Y021863D02*
X020137Y021726D01*
X022637Y018743D02*
X022576Y018682D01*
X022576Y018558D01*
X022637Y018497D01*
X022637Y018375D02*
X022576Y018313D01*
X022576Y018128D01*
X022946Y018128D01*
X022946Y018313D01*
X022884Y018375D01*
X022637Y018375D01*
X022946Y018497D02*
X022699Y018743D01*
X022637Y018743D01*
X022946Y018743D02*
X022946Y018497D01*
X018515Y013451D02*
X018450Y013256D01*
X018623Y013343D01*
X018645Y013192D02*
X018515Y013451D01*
X018316Y013298D02*
X018230Y013038D01*
X018295Y013016D01*
X018381Y013060D01*
X018403Y013125D01*
X018316Y013298D01*
X018251Y013319D01*
X018165Y013276D01*
X018143Y013211D01*
X018230Y013038D01*
X018096Y013079D02*
X018075Y013014D01*
X017945Y012949D01*
X017988Y012863D02*
X017858Y013122D01*
X017988Y013187D01*
X018053Y013166D01*
X018096Y013079D01*
X017768Y013077D02*
X017595Y012990D01*
X017681Y013034D02*
X017811Y012774D01*
X017613Y012729D02*
X017591Y012664D01*
X017504Y012620D01*
X017440Y012642D01*
X017439Y012750D02*
X017526Y012794D01*
X017591Y012772D01*
X017613Y012729D01*
X017439Y012750D02*
X017375Y012772D01*
X017353Y012815D01*
X017374Y012880D01*
X017461Y012923D01*
X017526Y012902D01*
X019826Y010488D02*
X020019Y010172D01*
X019914Y010108D02*
X020124Y010237D01*
X019785Y010318D02*
X019826Y010488D01*
X019649Y010308D02*
X019564Y010328D01*
X019406Y010231D01*
X019600Y009915D01*
X019535Y010021D02*
X019693Y010117D01*
X019714Y010202D01*
X019649Y010308D01*
X019641Y010085D02*
X019810Y010044D01*
X023784Y007367D02*
X023849Y007237D01*
X023914Y007215D01*
X024087Y007301D01*
X024109Y007366D01*
X024044Y007496D01*
X023784Y007367D01*
X023915Y007103D02*
X024089Y007189D01*
X024218Y007145D01*
X024175Y007016D01*
X024001Y006929D01*
X024131Y006994D02*
X024045Y007167D01*
X024306Y006968D02*
X024392Y006795D01*
X024349Y006881D02*
X024089Y006752D01*
X024177Y006575D02*
X024351Y006661D01*
X024480Y006617D01*
X024437Y006488D01*
X024263Y006402D01*
X024393Y006466D02*
X024307Y006639D01*
X023967Y006263D02*
X023707Y006134D01*
X023793Y005961D01*
X023838Y005871D02*
X023924Y005697D01*
X024011Y005848D02*
X023968Y005935D01*
X024098Y006000D02*
X024184Y005826D01*
X024098Y006000D02*
X023838Y005871D01*
X024747Y007428D02*
X024813Y007622D01*
X024748Y007644D02*
X025007Y007557D01*
X024921Y007730D02*
X024661Y007601D01*
X024616Y007692D02*
X024530Y007865D01*
X024790Y007994D01*
X024702Y008063D02*
X024723Y008128D01*
X024680Y008215D01*
X024616Y008236D01*
X024442Y008150D01*
X024420Y008086D01*
X024464Y007999D01*
X024528Y007977D01*
X025246Y008369D02*
X025311Y008347D01*
X025484Y008433D01*
X025506Y008498D01*
X025441Y008628D01*
X025182Y008499D01*
X025246Y008369D01*
X025137Y008590D02*
X025397Y008719D01*
X025310Y008892D02*
X025137Y008590D01*
X025051Y008763D02*
X025310Y008892D01*
X025222Y008961D02*
X025244Y009026D01*
X025201Y009113D01*
X025136Y009134D01*
X024963Y009048D01*
X024941Y008983D01*
X024984Y008897D01*
X025049Y008875D01*
X025136Y008918D01*
X025092Y009005D01*
X025635Y009234D02*
X025657Y009299D01*
X025635Y009234D02*
X025678Y009148D01*
X025743Y009126D01*
X025786Y009147D01*
X025808Y009212D01*
X025786Y009256D01*
X025808Y009212D02*
X025873Y009190D01*
X025916Y009212D01*
X025938Y009277D01*
X025895Y009363D01*
X025830Y009385D01*
X025828Y009497D02*
X025655Y009411D01*
X025525Y009455D01*
X025569Y009585D01*
X025742Y009671D01*
X025654Y009740D02*
X025676Y009805D01*
X025633Y009891D01*
X025568Y009913D01*
X025524Y009783D02*
X025546Y009740D01*
X025524Y009675D01*
X025481Y009654D01*
X025416Y009675D01*
X025373Y009762D01*
X025395Y009827D01*
X025546Y009740D02*
X025611Y009718D01*
X025654Y009740D01*
X019994Y005500D02*
X019994Y005130D01*
X019871Y005130D02*
X020118Y005130D01*
X019871Y005377D02*
X019994Y005500D01*
X019749Y005439D02*
X019688Y005500D01*
X019503Y005500D01*
X019503Y005130D01*
X019688Y005130D01*
X019749Y005192D01*
X019749Y005439D01*
X015515Y005869D02*
X015268Y005869D01*
X015515Y006116D01*
X015515Y006177D01*
X015453Y006239D01*
X015330Y006239D01*
X015268Y006177D01*
X015147Y006177D02*
X015085Y006239D01*
X014962Y006239D01*
X014900Y006177D01*
X014900Y005930D01*
X014962Y005869D01*
X015085Y005869D01*
X015147Y005930D01*
X010100Y002360D02*
X010100Y002167D01*
X010003Y002070D01*
X009906Y002167D01*
X009906Y002360D01*
X009757Y002360D02*
X009612Y002215D01*
X009805Y002215D01*
X009757Y002070D02*
X009757Y002360D01*
X009511Y002312D02*
X009462Y002360D01*
X009365Y002360D01*
X009317Y002312D01*
X009216Y002215D02*
X009022Y002215D01*
X009119Y002312D02*
X009119Y002118D01*
X009317Y002070D02*
X009511Y002263D01*
X009511Y002312D01*
X009511Y002070D02*
X009317Y002070D01*
X008316Y002120D02*
X008316Y002313D01*
X008268Y002362D01*
X008123Y002362D01*
X008123Y002071D01*
X008268Y002071D01*
X008316Y002120D01*
X008022Y002071D02*
X008022Y002362D01*
X007828Y002362D02*
X007828Y002071D01*
X007727Y002120D02*
X007727Y002217D01*
X007630Y002217D01*
X007533Y002313D02*
X007533Y002120D01*
X007582Y002071D01*
X007679Y002071D01*
X007727Y002120D01*
X007727Y002313D02*
X007679Y002362D01*
X007582Y002362D01*
X007533Y002313D01*
X007828Y002362D02*
X008022Y002071D01*
X006873Y002603D02*
X006873Y002850D01*
X006873Y002972D02*
X006503Y002972D01*
X006626Y003095D01*
X006503Y003219D01*
X006873Y003219D01*
X006873Y003340D02*
X006626Y003587D01*
X006565Y003587D01*
X006503Y003525D01*
X006503Y003402D01*
X006565Y003340D01*
X006873Y003340D02*
X006873Y003587D01*
X006812Y003708D02*
X006873Y003770D01*
X006873Y003894D01*
X006812Y003955D01*
X006688Y003955D01*
X006626Y003894D01*
X006626Y003832D01*
X006688Y003708D01*
X006503Y003708D01*
X006503Y003955D01*
X006565Y004077D02*
X006503Y004138D01*
X006503Y004262D01*
X006565Y004324D01*
X006626Y004324D01*
X006688Y004262D01*
X006688Y004138D01*
X006626Y004077D01*
X006565Y004077D01*
X006688Y004138D02*
X006750Y004077D01*
X006812Y004077D01*
X006873Y004138D01*
X006873Y004262D01*
X006812Y004324D01*
X006750Y004324D01*
X006688Y004262D01*
X006688Y004445D02*
X006688Y004630D01*
X006750Y004692D01*
X006812Y004692D01*
X006873Y004630D01*
X006873Y004507D01*
X006812Y004445D01*
X006688Y004445D01*
X006565Y004568D01*
X006503Y004692D01*
X005326Y006268D02*
X005391Y006398D01*
X005131Y006528D01*
X005066Y006398D01*
X005088Y006333D01*
X005261Y006247D01*
X005326Y006268D01*
X005436Y006488D02*
X005177Y006618D01*
X005523Y006661D01*
X005263Y006791D01*
X005352Y006860D02*
X005438Y006817D01*
X005482Y006903D01*
X005525Y006773D02*
X005590Y006795D01*
X005633Y006882D01*
X005611Y006946D01*
X005438Y007033D01*
X005373Y007012D01*
X005330Y006925D01*
X005352Y006860D01*
X005683Y007368D02*
X005640Y007498D01*
X005769Y007541D01*
X005942Y007454D01*
X006009Y007588D02*
X005945Y007783D01*
X005858Y007610D01*
X005750Y007718D02*
X006009Y007588D01*
X006076Y007830D02*
X006141Y007851D01*
X006185Y007938D01*
X006163Y008003D01*
X006122Y008137D02*
X006208Y008310D01*
X006079Y008266D02*
X006252Y008180D01*
X005947Y008111D02*
X006033Y007851D01*
X006076Y007830D01*
X005860Y007938D02*
X005947Y008111D01*
X005683Y007368D02*
X005856Y007281D01*
X006503Y002603D02*
X006873Y002603D01*
X030900Y015294D02*
X031073Y015207D01*
X030943Y015164D02*
X031030Y015337D01*
X030988Y015471D02*
X030967Y015536D01*
X031010Y015622D01*
X031075Y015644D01*
X031118Y015622D01*
X031205Y015362D01*
X031291Y015535D01*
X031207Y015691D02*
X031294Y015864D01*
X031382Y015933D02*
X031209Y016019D01*
X031142Y015885D02*
X031207Y015691D01*
X031142Y015885D02*
X031402Y015756D01*
X031382Y015933D02*
X031512Y015976D01*
X031469Y016106D01*
X031296Y016192D01*
X031607Y016645D02*
X031780Y016558D01*
X031844Y016580D01*
X031888Y016666D01*
X031866Y016731D01*
X031780Y016774D01*
X031736Y016688D01*
X031693Y016818D02*
X031628Y016796D01*
X031585Y016710D01*
X031607Y016645D01*
X031695Y016930D02*
X032041Y016973D01*
X031782Y017103D01*
X031827Y017193D02*
X031892Y017323D01*
X031957Y017345D01*
X032130Y017258D01*
X032152Y017193D01*
X032087Y017063D01*
X031827Y017193D01*
X031695Y016930D02*
X031955Y016800D01*
D12*
X032345Y017721D02*
X031888Y017950D01*
X031536Y018126D02*
X031078Y018356D01*
X030726Y018532D02*
X030268Y018761D01*
X029993Y018731D02*
X029744Y018233D01*
X029569Y017881D02*
X029320Y017382D01*
X029144Y017030D02*
X028896Y016532D01*
X028984Y015903D02*
X029389Y015700D01*
X029741Y015524D02*
X030146Y015321D01*
X030263Y015008D02*
X030072Y014625D01*
X029896Y014273D02*
X029705Y013891D01*
X029529Y013539D02*
X029337Y013157D01*
X029161Y012805D02*
X028970Y012423D01*
X028794Y012071D02*
X028602Y011689D01*
X028426Y011337D02*
X028235Y010954D01*
X028059Y010602D02*
X027867Y010220D01*
X027691Y009868D02*
X027500Y009486D01*
X027324Y009134D02*
X027132Y008752D01*
X027169Y008437D02*
X027731Y008154D01*
X028083Y007976D02*
X028645Y007693D01*
X019352Y011630D02*
X018300Y011094D01*
X018297Y011081D02*
X017761Y012133D01*
X017769Y012155D02*
X018822Y012692D01*
X018825Y012705D02*
X019361Y011652D01*
X010138Y014883D02*
X009947Y014500D01*
X009771Y014148D02*
X009580Y013766D01*
X009404Y013414D02*
X009212Y013032D01*
X009036Y012680D02*
X008845Y012298D01*
X008669Y011946D02*
X008477Y011564D01*
X008301Y011212D02*
X008110Y010829D01*
X007934Y010477D02*
X007742Y010095D01*
X007566Y009743D02*
X007375Y009361D01*
X007199Y009009D02*
X007007Y008627D01*
X007109Y008278D02*
X007514Y008075D01*
X007866Y007899D02*
X008271Y007696D01*
X008493Y007231D02*
X008244Y006733D01*
X008069Y006381D02*
X007820Y005882D01*
X007644Y005530D02*
X007396Y005032D01*
X007095Y004846D02*
X006638Y005075D01*
X006286Y005251D02*
X005828Y005481D01*
X005476Y005657D02*
X005018Y005886D01*
X009583Y015476D02*
X010145Y015193D01*
X009231Y015654D02*
X008669Y015937D01*
X019406Y021782D02*
X019409Y022497D01*
X023519Y020787D02*
X023957Y020788D01*
X024351Y020788D02*
X024789Y020788D01*
X025182Y020788D02*
X025620Y020788D01*
X026014Y020789D02*
X026452Y020789D01*
X026892Y020792D02*
X026892Y021305D01*
X026892Y021699D02*
X026892Y022213D01*
X026892Y020398D02*
X026892Y019884D01*
X026892Y019490D02*
X026892Y018976D01*
X027146Y018846D02*
X027703Y018847D01*
X028097Y018848D02*
X028654Y018849D01*
X029047Y018850D02*
X029604Y018850D01*
X030047Y019036D02*
X030047Y019548D01*
X030047Y019942D02*
X030047Y020454D01*
X030047Y020847D02*
X030047Y021359D01*
D13*
X026382Y022198D02*
X026382Y022345D01*
X026345Y022381D01*
X026272Y022381D01*
X026235Y022345D01*
X026235Y022198D01*
X026272Y022161D01*
X026345Y022161D01*
X026382Y022198D01*
X026161Y022161D02*
X026161Y022381D01*
X026014Y022381D01*
X026088Y022271D02*
X026161Y022271D01*
X026161Y022161D02*
X026014Y022161D01*
X025940Y022271D02*
X025793Y022271D01*
X025194Y022198D02*
X025194Y022345D01*
X025158Y022381D01*
X025084Y022381D01*
X025048Y022345D01*
X025048Y022198D01*
X025084Y022161D01*
X025158Y022161D01*
X025194Y022198D01*
X024974Y022161D02*
X024974Y022381D01*
X024827Y022381D01*
X024900Y022271D02*
X024974Y022271D01*
X024974Y022161D02*
X024827Y022161D01*
X024753Y022271D02*
X024606Y022271D01*
X024679Y022198D02*
X024679Y022345D01*
X023882Y022381D02*
X023882Y022161D01*
X023772Y022161D01*
X023735Y022198D01*
X023735Y022345D01*
X023772Y022381D01*
X023882Y022381D01*
X023661Y022271D02*
X023514Y022271D01*
X022694Y022161D02*
X022694Y022381D01*
X022584Y022381D01*
X022548Y022345D01*
X022548Y022198D01*
X022584Y022161D01*
X022694Y022161D01*
X022474Y022271D02*
X022327Y022271D01*
X022400Y022198D02*
X022400Y022345D01*
X021757Y022361D02*
X021757Y022214D01*
X021720Y022178D01*
X021647Y022178D01*
X021610Y022214D01*
X021536Y022178D02*
X021536Y022398D01*
X021389Y022398D01*
X021315Y022398D02*
X021315Y022178D01*
X021278Y022288D02*
X021168Y022398D01*
X021094Y022288D02*
X020947Y022288D01*
X021168Y022178D02*
X021315Y022325D01*
X021610Y022361D02*
X021647Y022398D01*
X021720Y022398D01*
X021757Y022361D01*
X020632Y022361D02*
X020632Y022214D01*
X020595Y022178D01*
X020522Y022178D01*
X020485Y022214D01*
X020411Y022178D02*
X020411Y022398D01*
X020264Y022398D01*
X020190Y022398D02*
X020190Y022178D01*
X020153Y022288D02*
X020043Y022398D01*
X019969Y022288D02*
X019822Y022288D01*
X019896Y022361D02*
X019896Y022214D01*
X020043Y022178D02*
X020190Y022325D01*
X020485Y022361D02*
X020522Y022398D01*
X020595Y022398D01*
X020632Y022361D01*
X031269Y013944D02*
X031204Y013813D01*
X031400Y013715D01*
X031466Y013846D01*
X031335Y013830D02*
X031302Y013764D01*
X031203Y013730D02*
X031154Y013714D01*
X031121Y013648D01*
X031137Y013599D01*
X031269Y013533D01*
X031318Y013550D01*
X031351Y013615D01*
X031334Y013665D01*
X031203Y013730D01*
X031401Y013961D02*
X031467Y014093D01*
X030970Y013036D02*
X030905Y012905D01*
X030872Y013003D02*
X031003Y012938D01*
X030970Y012789D02*
X030904Y012658D01*
X030707Y012757D01*
X030773Y012888D01*
X030839Y012773D02*
X030806Y012707D01*
X030838Y012608D02*
X030707Y012674D01*
X030658Y012657D01*
X030625Y012592D01*
X030641Y012543D01*
X030772Y012477D01*
X030822Y012493D01*
X030855Y012559D01*
X030838Y012608D01*
X030362Y011881D02*
X030296Y011749D01*
X030198Y011716D02*
X030148Y011699D01*
X030099Y011601D01*
X030296Y011502D01*
X030345Y011601D01*
X030329Y011650D01*
X030198Y011716D01*
X029866Y010886D02*
X029800Y010755D01*
X029767Y010854D02*
X029899Y010788D01*
X029833Y010656D02*
X029701Y010722D01*
X029652Y010705D01*
X029603Y010607D01*
X029800Y010508D01*
X029849Y010607D01*
X029833Y010656D01*
X029430Y009974D02*
X029364Y009843D01*
X029429Y009727D02*
X029281Y009678D01*
X029298Y009629D02*
X029232Y009826D01*
X029166Y009695D02*
X029363Y009596D01*
X029330Y009530D02*
X029264Y009398D01*
X029067Y009497D01*
X029067Y009414D02*
X029018Y009398D01*
X028985Y009332D01*
X029001Y009283D01*
X029133Y009217D01*
X029182Y009234D01*
X029215Y009299D01*
X029198Y009349D01*
X028933Y008980D02*
X028868Y008849D01*
X028835Y008947D02*
X028966Y008882D01*
X028933Y008733D02*
X028785Y008684D01*
X028801Y008635D02*
X028736Y008832D01*
X028670Y008701D02*
X028867Y008602D01*
X028834Y008536D02*
X028768Y008404D01*
X028571Y008503D01*
X028571Y008420D02*
X028522Y008404D01*
X028489Y008338D01*
X028505Y008289D01*
X028636Y008223D01*
X028686Y008240D01*
X028718Y008305D01*
X028702Y008354D01*
X017323Y001266D02*
X017177Y001266D01*
X017250Y001340D02*
X017250Y001193D01*
X017102Y001156D02*
X016992Y001266D01*
X016956Y001230D02*
X017102Y001377D01*
X016956Y001377D02*
X016956Y001156D01*
X016881Y001156D02*
X016735Y001156D01*
X016735Y001377D01*
X016660Y001340D02*
X016624Y001377D01*
X016550Y001377D01*
X016514Y001340D01*
X016514Y001193D01*
X016550Y001156D01*
X016624Y001156D01*
X016660Y001193D01*
X016166Y001266D02*
X016019Y001266D01*
X015945Y001376D02*
X015798Y001229D01*
X015835Y001266D02*
X015945Y001156D01*
X015798Y001156D02*
X015798Y001376D01*
X015578Y001376D02*
X015578Y001156D01*
X015724Y001156D01*
X015503Y001192D02*
X015467Y001156D01*
X015393Y001156D01*
X015357Y001192D01*
X015357Y001339D01*
X015393Y001376D01*
X015467Y001376D01*
X015503Y001339D01*
X014809Y001266D02*
X014662Y001266D01*
X014736Y001339D02*
X014736Y001192D01*
X014588Y001192D02*
X014588Y001339D01*
X014551Y001376D01*
X014441Y001376D01*
X014441Y001156D01*
X014551Y001156D01*
X014588Y001192D01*
X013627Y001283D02*
X013480Y001283D01*
X013406Y001356D02*
X013369Y001393D01*
X013259Y001393D01*
X013259Y001173D01*
X013369Y001173D01*
X013406Y001210D01*
X013406Y001356D01*
X012536Y001271D02*
X012389Y001271D01*
X012462Y001344D02*
X012462Y001197D01*
X012315Y001161D02*
X012168Y001161D01*
X012168Y001381D01*
X012315Y001381D01*
X012241Y001271D02*
X012168Y001271D01*
X012094Y001344D02*
X012057Y001381D01*
X011984Y001381D01*
X011947Y001344D01*
X011947Y001197D01*
X011984Y001161D01*
X012057Y001161D01*
X012094Y001197D01*
X012094Y001344D01*
X011389Y001246D02*
X011242Y001246D01*
X011168Y001136D02*
X011021Y001136D01*
X011021Y001356D01*
X011168Y001356D01*
X011095Y001246D02*
X011021Y001246D01*
X010947Y001173D02*
X010947Y001320D01*
X010911Y001356D01*
X010837Y001356D01*
X010800Y001320D01*
X010800Y001173D01*
X010837Y001136D01*
X010911Y001136D01*
X010947Y001173D01*
X005739Y009474D02*
X005805Y009605D01*
X005937Y009622D02*
X006002Y009754D01*
X005805Y009852D01*
X005740Y009721D01*
X005871Y009737D02*
X005904Y009803D01*
X006003Y009836D02*
X006052Y009853D01*
X006085Y009918D01*
X006068Y009968D01*
X005937Y010033D01*
X005888Y010017D01*
X005855Y009951D01*
X005871Y009902D01*
X006003Y009836D01*
X006298Y010593D02*
X006364Y010724D01*
X006396Y010626D02*
X006265Y010692D01*
X006298Y010840D02*
X006364Y010971D01*
X006561Y010873D01*
X006495Y010741D01*
X006430Y010856D02*
X006463Y010922D01*
X006561Y010955D02*
X006430Y011021D01*
X006414Y011070D01*
X006447Y011136D01*
X006496Y011152D01*
X006627Y011087D01*
X006644Y011037D01*
X006611Y010972D01*
X006561Y010955D01*
X006844Y011686D02*
X006909Y011817D01*
X006877Y011917D02*
X007008Y011851D01*
X007058Y011867D01*
X007107Y011966D01*
X006910Y012064D01*
X006861Y011966D01*
X006877Y011917D01*
X007402Y012743D02*
X007468Y012874D01*
X007501Y012776D02*
X007370Y012841D01*
X007436Y012973D02*
X007567Y012908D01*
X007616Y012924D01*
X007666Y013022D01*
X007469Y013121D01*
X007419Y013022D01*
X007436Y012973D01*
X007839Y013593D02*
X007905Y013724D01*
X008036Y013741D02*
X007971Y013938D01*
X007987Y013889D02*
X007839Y013839D01*
X007905Y013971D02*
X008102Y013872D01*
X008201Y014070D02*
X008004Y014168D01*
X007938Y014037D01*
X008070Y014218D02*
X008054Y014267D01*
X008087Y014333D01*
X008136Y014349D01*
X008267Y014284D01*
X008283Y014234D01*
X008251Y014169D01*
X008201Y014152D01*
X008398Y014712D02*
X008463Y014843D01*
X008365Y014810D02*
X008496Y014744D01*
X008595Y014860D02*
X008529Y015057D01*
X008546Y015008D02*
X008398Y014958D01*
X008464Y015090D02*
X008661Y014991D01*
X008760Y015189D02*
X008563Y015287D01*
X008497Y015156D01*
X008629Y015337D02*
X008612Y015387D01*
X008645Y015452D01*
X008695Y015469D01*
X008826Y015403D01*
X008842Y015354D01*
X008809Y015288D01*
X008760Y015272D01*
D14*
X017579Y019954D02*
X017704Y019954D01*
X022954Y019954D02*
X023079Y019954D01*
D15*
X018802Y013081D02*
X017482Y012420D01*
X019256Y011413D02*
X019258Y011435D01*
X019264Y011457D01*
X019273Y011477D01*
X019286Y011495D01*
X019302Y011511D01*
X019320Y011524D01*
X019340Y011533D01*
X019362Y011539D01*
X019384Y011541D01*
X019406Y011539D01*
X019428Y011533D01*
X019448Y011524D01*
X019466Y011511D01*
X019482Y011495D01*
X019495Y011477D01*
X019504Y011457D01*
X019510Y011435D01*
X019512Y011413D01*
X019510Y011391D01*
X019504Y011369D01*
X019495Y011349D01*
X019482Y011331D01*
X019466Y011315D01*
X019448Y011302D01*
X019428Y011293D01*
X019406Y011287D01*
X019384Y011285D01*
X019362Y011287D01*
X019340Y011293D01*
X019320Y011302D01*
X019302Y011315D01*
X019286Y011331D01*
X019273Y011349D01*
X019264Y011369D01*
X019258Y011391D01*
X019256Y011413D01*
X019683Y011320D02*
X018363Y010659D01*
D16*
X024723Y006715D02*
X024496Y006269D01*
X024605Y005933D01*
X024269Y005824D01*
X024042Y005378D01*
X024151Y005042D01*
X024597Y004815D01*
X024933Y004924D01*
X025160Y005370D01*
X025050Y005706D01*
X025387Y005815D01*
X025614Y006261D01*
X025504Y006597D01*
X025841Y006706D01*
X026068Y007152D01*
X025958Y007488D01*
X026295Y007597D01*
X026522Y008043D01*
X026412Y008379D01*
X026749Y008488D01*
X026976Y008934D01*
X026866Y009270D01*
X026421Y009497D01*
X026085Y009388D01*
X025858Y008942D01*
X025967Y008606D01*
X025631Y008497D01*
X025404Y008051D01*
X025513Y007715D01*
X025177Y007606D01*
X024950Y007160D01*
X025059Y006824D01*
X024723Y006715D01*
X019845Y004193D02*
X019845Y003406D01*
X019304Y003800D01*
X019845Y004193D01*
X016749Y002818D02*
X016395Y002464D01*
X015726Y002464D01*
X016749Y002818D02*
X016749Y005692D01*
X015745Y005692D01*
X014525Y005692D02*
X013521Y005692D01*
X013521Y002818D01*
X013875Y002464D01*
X014525Y002464D01*
X015706Y002661D02*
X015777Y002691D01*
X015846Y002726D01*
X015913Y002763D01*
X015979Y002804D01*
X016042Y002848D01*
X016103Y002896D01*
X016162Y002946D01*
X016218Y003000D01*
X016271Y003056D01*
X016321Y003114D01*
X016368Y003175D01*
X016412Y003239D01*
X016453Y003305D01*
X016490Y003372D01*
X016524Y003441D01*
X016554Y003512D01*
X016581Y003585D01*
X016604Y003659D01*
X016624Y003733D01*
X016639Y003809D01*
X016651Y003885D01*
X016659Y003962D01*
X016663Y004039D01*
X016663Y004117D01*
X016659Y004194D01*
X016651Y004271D01*
X016639Y004347D01*
X016624Y004423D01*
X016604Y004497D01*
X016581Y004571D01*
X016554Y004644D01*
X016524Y004715D01*
X016490Y004784D01*
X016453Y004851D01*
X016412Y004917D01*
X016368Y004981D01*
X016321Y005042D01*
X016271Y005100D01*
X016218Y005156D01*
X016162Y005210D01*
X016103Y005260D01*
X016042Y005308D01*
X015979Y005352D01*
X015913Y005393D01*
X015846Y005430D01*
X015777Y005465D01*
X015706Y005495D01*
X014564Y005495D02*
X014493Y005465D01*
X014424Y005430D01*
X014357Y005393D01*
X014291Y005352D01*
X014228Y005308D01*
X014167Y005260D01*
X014108Y005210D01*
X014052Y005156D01*
X013999Y005100D01*
X013949Y005042D01*
X013902Y004981D01*
X013858Y004917D01*
X013817Y004851D01*
X013780Y004784D01*
X013746Y004715D01*
X013716Y004644D01*
X013689Y004571D01*
X013666Y004497D01*
X013646Y004423D01*
X013631Y004347D01*
X013619Y004271D01*
X013611Y004194D01*
X013607Y004117D01*
X013607Y004039D01*
X013611Y003962D01*
X013619Y003885D01*
X013631Y003809D01*
X013646Y003733D01*
X013666Y003659D01*
X013689Y003585D01*
X013716Y003512D01*
X013746Y003441D01*
X013780Y003372D01*
X013817Y003305D01*
X013858Y003239D01*
X013902Y003175D01*
X013949Y003114D01*
X013999Y003056D01*
X014052Y003000D01*
X014108Y002946D01*
X014167Y002896D01*
X014228Y002848D01*
X014291Y002804D01*
X014357Y002763D01*
X014424Y002726D01*
X014493Y002691D01*
X014564Y002661D01*
X011109Y003057D02*
X011109Y007068D01*
X017383Y019005D02*
X017383Y020304D01*
X022586Y020304D01*
X022586Y019005D01*
X017383Y019005D01*
X017541Y020225D02*
X017738Y020225D01*
X017738Y020284D01*
X017541Y020284D02*
X017541Y020225D01*
X028153Y019523D02*
X029009Y020047D01*
X028153Y019523D02*
X029655Y017072D01*
X030142Y016955D01*
X030696Y017294D01*
X031720Y017922D02*
X032291Y018272D01*
X032408Y018759D01*
X030906Y021209D01*
X030050Y020685D01*
X030119Y020497D02*
X030196Y020508D01*
X030273Y020515D01*
X030350Y020518D01*
X030427Y020517D01*
X030504Y020512D01*
X030581Y020504D01*
X030657Y020491D01*
X030733Y020475D01*
X030807Y020455D01*
X030881Y020431D01*
X030953Y020404D01*
X031023Y020373D01*
X031092Y020338D01*
X031160Y020300D01*
X031225Y020259D01*
X031288Y020214D01*
X031349Y020166D01*
X031407Y020115D01*
X031462Y020062D01*
X031515Y020005D01*
X031565Y019946D01*
X031612Y019885D01*
X031655Y019821D01*
X031696Y019755D01*
X031733Y019687D01*
X031766Y019618D01*
X031796Y019547D01*
X031822Y019474D01*
X031845Y019400D01*
X031864Y019325D01*
X031879Y019250D01*
X031890Y019173D01*
X031897Y019096D01*
X031901Y019019D01*
X031900Y018942D01*
X031896Y018865D01*
X031888Y018788D01*
X031875Y018712D01*
X031859Y018636D01*
X031840Y018561D01*
X031816Y018488D01*
X031789Y018416D01*
X031758Y018345D01*
X031724Y018276D01*
X031686Y018208D01*
X031645Y018143D01*
X031600Y018080D01*
X030627Y017483D02*
X030550Y017472D01*
X030473Y017465D01*
X030396Y017462D01*
X030319Y017463D01*
X030242Y017468D01*
X030165Y017476D01*
X030089Y017489D01*
X030013Y017505D01*
X029939Y017525D01*
X029865Y017549D01*
X029793Y017576D01*
X029723Y017607D01*
X029654Y017642D01*
X029586Y017680D01*
X029521Y017721D01*
X029458Y017766D01*
X029397Y017814D01*
X029339Y017865D01*
X029284Y017918D01*
X029231Y017975D01*
X029181Y018034D01*
X029134Y018095D01*
X029091Y018159D01*
X029050Y018225D01*
X029013Y018293D01*
X028980Y018362D01*
X028950Y018433D01*
X028924Y018506D01*
X028901Y018580D01*
X028882Y018655D01*
X028867Y018730D01*
X028856Y018807D01*
X028849Y018884D01*
X028845Y018961D01*
X028846Y019038D01*
X028850Y019115D01*
X028858Y019192D01*
X028871Y019268D01*
X028887Y019344D01*
X028906Y019419D01*
X028930Y019492D01*
X028957Y019564D01*
X028988Y019635D01*
X029022Y019704D01*
X029060Y019772D01*
X029101Y019837D01*
X029146Y019900D01*
D17*
X030297Y021035D02*
X030403Y021010D01*
X030533Y021090D01*
X030559Y021195D01*
X030730Y021210D02*
X030991Y021371D01*
X030861Y021290D02*
X030620Y021683D01*
X030569Y021472D01*
X030398Y021457D02*
X030293Y021482D01*
X030162Y021402D01*
X030137Y021297D01*
X030297Y021035D01*
X021033Y005022D02*
X018229Y005022D01*
X018229Y002577D02*
X021033Y002577D01*
D18*
X011405Y003723D03*
X011405Y004393D03*
X011405Y005063D03*
X011405Y005733D03*
X011405Y006403D03*
D19*
X019050Y003800D03*
D20*
X023092Y017480D02*
X023092Y020474D01*
X023173Y020474D01*
X024352Y020474D01*
X024352Y017480D01*
X024173Y017480D01*
X023092Y017480D01*
X024173Y017480D02*
X024271Y017480D01*
X023897Y018697D02*
X023547Y018697D01*
X023547Y018847D02*
X023722Y018697D01*
X023897Y018847D01*
X023547Y018847D01*
X023196Y020474D02*
X023173Y020474D01*
M02*
