G75*
%MOIN*%
%OFA0B0*%
%FSLAX24Y24*%
%IPPOS*%
%LPD*%
%AMOC8*
5,1,8,0,0,1.08239X$1,22.5*
%
%ADD10C,0.0000*%
%ADD11C,0.0080*%
%ADD12C,0.0040*%
D10*
X001464Y000942D02*
X003925Y005873D01*
X004132Y005942D01*
X005549Y008777D01*
X004663Y009219D01*
X008019Y015942D01*
X009141Y016296D01*
X012065Y022152D01*
X018610Y022152D01*
X019417Y022950D01*
X026966Y022950D01*
X026966Y022074D01*
X029978Y022074D01*
X030145Y022152D01*
X035785Y022152D01*
X033315Y017212D01*
X033147Y017133D01*
X031730Y014308D01*
X032586Y013885D01*
X029230Y007172D01*
X028236Y007064D01*
X025175Y000942D01*
X001464Y000942D01*
X003043Y002228D02*
X003045Y002272D01*
X003051Y002316D01*
X003061Y002359D01*
X003074Y002401D01*
X003092Y002441D01*
X003113Y002480D01*
X003137Y002517D01*
X003164Y002552D01*
X003195Y002584D01*
X003228Y002613D01*
X003264Y002639D01*
X003302Y002661D01*
X003342Y002680D01*
X003383Y002696D01*
X003426Y002708D01*
X003469Y002716D01*
X003513Y002720D01*
X003557Y002720D01*
X003601Y002716D01*
X003644Y002708D01*
X003687Y002696D01*
X003728Y002680D01*
X003768Y002661D01*
X003806Y002639D01*
X003842Y002613D01*
X003875Y002584D01*
X003906Y002552D01*
X003933Y002517D01*
X003957Y002480D01*
X003978Y002441D01*
X003996Y002401D01*
X004009Y002359D01*
X004019Y002316D01*
X004025Y002272D01*
X004027Y002228D01*
X004025Y002184D01*
X004019Y002140D01*
X004009Y002097D01*
X003996Y002055D01*
X003978Y002015D01*
X003957Y001976D01*
X003933Y001939D01*
X003906Y001904D01*
X003875Y001872D01*
X003842Y001843D01*
X003806Y001817D01*
X003768Y001795D01*
X003728Y001776D01*
X003687Y001760D01*
X003644Y001748D01*
X003601Y001740D01*
X003557Y001736D01*
X003513Y001736D01*
X003469Y001740D01*
X003426Y001748D01*
X003383Y001760D01*
X003342Y001776D01*
X003302Y001795D01*
X003264Y001817D01*
X003228Y001843D01*
X003195Y001872D01*
X003164Y001904D01*
X003137Y001939D01*
X003113Y001976D01*
X003092Y002015D01*
X003074Y002055D01*
X003061Y002097D01*
X003051Y002140D01*
X003045Y002184D01*
X003043Y002228D01*
X004138Y005955D02*
X006567Y004739D01*
X006583Y004733D01*
X006600Y004730D01*
X006617Y004729D01*
X006634Y004732D01*
X006650Y004737D01*
X006665Y004745D01*
X006678Y004756D01*
X006690Y004769D01*
X006699Y004783D01*
X006884Y005152D01*
X007042Y005073D01*
X007272Y005531D01*
X007113Y005610D01*
X006884Y005152D01*
X007113Y005610D02*
X007598Y006578D01*
X007739Y006507D01*
X007959Y006947D01*
X007818Y007018D01*
X007598Y006578D01*
X007818Y007018D02*
X007995Y007370D01*
X008002Y007389D01*
X008006Y007409D01*
X008007Y007430D01*
X008004Y007450D01*
X007997Y007470D01*
X007988Y007488D01*
X007975Y007504D01*
X007959Y007518D01*
X007942Y007529D01*
X007942Y007528D02*
X003911Y009547D01*
X003910Y009547D02*
X003901Y009550D01*
X003891Y009551D01*
X003881Y009549D01*
X003872Y009545D01*
X003864Y009538D01*
X003858Y009529D01*
X003849Y009512D01*
X003849Y009511D02*
X003845Y009499D01*
X003843Y009486D01*
X003844Y009473D01*
X003848Y009460D01*
X003855Y009449D01*
X003865Y009439D01*
X003876Y009432D01*
X003876Y009433D02*
X005478Y008630D01*
X005204Y008085D01*
X003708Y008834D01*
X003673Y008764D01*
X005169Y008014D01*
X004887Y007451D01*
X003268Y008262D01*
X003267Y008262D02*
X003254Y008264D01*
X003241Y008262D01*
X003229Y008257D01*
X003219Y008250D01*
X003211Y008239D01*
X003206Y008227D01*
X003197Y008209D01*
X003198Y008209D02*
X003196Y008196D01*
X003198Y008183D01*
X003203Y008171D01*
X003210Y008161D01*
X003221Y008153D01*
X003233Y008148D01*
X003232Y008148D02*
X004834Y007346D01*
X004517Y006712D01*
X003003Y007470D01*
X002985Y007435D01*
X004464Y006694D01*
X004429Y006624D01*
X002950Y007364D01*
X002933Y007329D01*
X004446Y006571D01*
X004138Y005955D01*
X006403Y008343D02*
X004661Y009216D01*
X004820Y009533D01*
X005541Y009172D01*
X005700Y009488D01*
X005698Y009491D02*
X004642Y010020D01*
X004660Y010055D01*
X005716Y009526D01*
X005751Y009596D01*
X004695Y010125D01*
X004713Y010160D01*
X005769Y009632D01*
X005989Y010072D01*
X005285Y010424D01*
X005356Y010565D01*
X006060Y010212D01*
X006245Y010582D01*
X005189Y011111D01*
X005224Y011181D01*
X006280Y010652D01*
X006509Y011110D01*
X005805Y011463D01*
X005876Y011603D01*
X006580Y011251D01*
X006756Y011603D01*
X005700Y012132D01*
X005718Y012167D01*
X006774Y011638D01*
X006809Y011708D01*
X005753Y012237D01*
X005771Y012273D01*
X006827Y011744D01*
X007029Y012149D01*
X006325Y012501D01*
X006396Y012642D01*
X007100Y012289D01*
X007303Y012694D01*
X006247Y013223D01*
X006282Y013293D01*
X007338Y012765D01*
X007339Y012762D02*
X007551Y013185D01*
X006847Y013537D01*
X006917Y013678D01*
X006916Y013680D02*
X007620Y013328D01*
X007814Y013715D01*
X006758Y014244D01*
X006775Y014279D01*
X007831Y013750D01*
X007867Y013821D01*
X006811Y014350D01*
X006828Y014385D01*
X007884Y013856D01*
X008078Y014243D01*
X007374Y014596D01*
X007445Y014736D01*
X008149Y014384D01*
X008360Y014806D01*
X007304Y015335D01*
X007339Y015406D01*
X008396Y014877D01*
X008572Y015229D01*
X007868Y015581D01*
X008026Y015898D01*
X009751Y015034D01*
X009753Y015032D02*
X006403Y008343D01*
X004890Y009937D02*
X004883Y009952D01*
X004872Y009965D01*
X004859Y009976D01*
X004845Y009985D01*
X004829Y009990D01*
X004829Y009991D02*
X004749Y010008D01*
X004785Y010079D02*
X004846Y010026D01*
X004860Y010016D01*
X004875Y010009D01*
X004892Y010006D01*
X004908Y010005D01*
X004925Y010008D01*
X007023Y014153D02*
X007016Y014168D01*
X007005Y014181D01*
X006992Y014192D01*
X006978Y014201D01*
X006962Y014206D01*
X006882Y014224D01*
X006918Y014294D02*
X006979Y014241D01*
X006979Y014242D02*
X006993Y014232D01*
X007008Y014225D01*
X007025Y014222D01*
X007041Y014221D01*
X007058Y014224D01*
X012412Y020766D02*
X012414Y020810D01*
X012420Y020854D01*
X012430Y020897D01*
X012443Y020939D01*
X012461Y020979D01*
X012482Y021018D01*
X012506Y021055D01*
X012533Y021090D01*
X012564Y021122D01*
X012597Y021151D01*
X012633Y021177D01*
X012671Y021199D01*
X012711Y021218D01*
X012752Y021234D01*
X012795Y021246D01*
X012838Y021254D01*
X012882Y021258D01*
X012926Y021258D01*
X012970Y021254D01*
X013013Y021246D01*
X013056Y021234D01*
X013097Y021218D01*
X013137Y021199D01*
X013175Y021177D01*
X013211Y021151D01*
X013244Y021122D01*
X013275Y021090D01*
X013302Y021055D01*
X013326Y021018D01*
X013347Y020979D01*
X013365Y020939D01*
X013378Y020897D01*
X013388Y020854D01*
X013394Y020810D01*
X013396Y020766D01*
X013394Y020722D01*
X013388Y020678D01*
X013378Y020635D01*
X013365Y020593D01*
X013347Y020553D01*
X013326Y020514D01*
X013302Y020477D01*
X013275Y020442D01*
X013244Y020410D01*
X013211Y020381D01*
X013175Y020355D01*
X013137Y020333D01*
X013097Y020314D01*
X013056Y020298D01*
X013013Y020286D01*
X012970Y020278D01*
X012926Y020274D01*
X012882Y020274D01*
X012838Y020278D01*
X012795Y020286D01*
X012752Y020298D01*
X012711Y020314D01*
X012671Y020333D01*
X012633Y020355D01*
X012597Y020381D01*
X012564Y020410D01*
X012533Y020442D01*
X012506Y020477D01*
X012482Y020514D01*
X012461Y020553D01*
X012443Y020593D01*
X012430Y020635D01*
X012420Y020678D01*
X012414Y020722D01*
X012412Y020766D01*
X019471Y021047D02*
X019471Y022996D01*
X019826Y022996D01*
X019826Y022189D01*
X020180Y022189D01*
X020182Y022191D02*
X020182Y023372D01*
X020221Y023372D01*
X020221Y022191D01*
X020300Y022191D01*
X020300Y023372D01*
X020339Y023372D01*
X020339Y022191D01*
X020831Y022191D01*
X020831Y022979D01*
X020989Y022979D01*
X020989Y022191D01*
X021402Y022191D01*
X021402Y023372D01*
X021481Y023372D01*
X021481Y022191D01*
X021993Y022191D01*
X021993Y022979D01*
X022150Y022979D01*
X022150Y022191D01*
X022544Y022191D01*
X022544Y023372D01*
X022583Y023372D01*
X022583Y022191D01*
X022662Y022191D01*
X022662Y023372D01*
X022701Y023372D01*
X022701Y022191D01*
X023154Y022191D01*
X023154Y022979D01*
X023312Y022979D01*
X023312Y022191D01*
X023764Y022191D01*
X023764Y023372D01*
X023843Y023372D01*
X023843Y022191D01*
X023842Y022189D02*
X024314Y022189D01*
X024314Y022976D01*
X024471Y022976D01*
X024473Y022979D02*
X024473Y022191D01*
X024906Y022191D01*
X024906Y023372D01*
X024945Y023372D01*
X024945Y022191D01*
X025024Y022191D01*
X025024Y023372D01*
X025063Y023372D01*
X025063Y022191D01*
X025497Y022191D01*
X025497Y022979D01*
X025654Y022979D01*
X025654Y022191D01*
X026126Y022191D01*
X026126Y023372D01*
X026205Y023372D01*
X026205Y022191D01*
X026599Y022191D01*
X026599Y022979D01*
X026953Y022979D01*
X026953Y021050D01*
X026952Y021047D02*
X019471Y021047D01*
X020220Y023114D02*
X020230Y023128D01*
X020237Y023143D01*
X020241Y023159D01*
X020242Y023176D01*
X020239Y023193D01*
X020220Y023272D01*
X020298Y023272D02*
X020279Y023193D01*
X020276Y023176D01*
X020277Y023159D01*
X020281Y023143D01*
X020288Y023128D01*
X020298Y023114D01*
X024944Y023094D02*
X024954Y023108D01*
X024961Y023123D01*
X024965Y023139D01*
X024966Y023156D01*
X024963Y023173D01*
X024964Y023173D02*
X024944Y023252D01*
X025023Y023252D02*
X025003Y023173D01*
X025004Y023173D02*
X025001Y023156D01*
X025002Y023139D01*
X025006Y023123D01*
X025013Y023108D01*
X025023Y023094D01*
X026983Y022107D02*
X027672Y022107D01*
X027672Y023800D01*
X027711Y023800D01*
X027711Y022146D01*
X027790Y022146D01*
X027790Y023800D01*
X027829Y023800D01*
X027829Y022107D01*
X028538Y022107D01*
X028538Y023898D01*
X028537Y023911D01*
X028540Y023924D01*
X028545Y023936D01*
X028554Y023946D01*
X028565Y023953D01*
X028577Y023957D01*
X028578Y023957D02*
X028597Y023957D01*
X028610Y023958D01*
X028623Y023955D01*
X028635Y023950D01*
X028645Y023941D01*
X028652Y023930D01*
X028656Y023918D01*
X028656Y022107D01*
X029286Y022107D01*
X029286Y023780D01*
X029365Y023780D01*
X029365Y022107D01*
X029975Y022107D01*
X029975Y023898D01*
X029976Y023911D01*
X029981Y023924D01*
X029988Y023935D01*
X029997Y023944D01*
X030008Y023951D01*
X030021Y023956D01*
X030034Y023957D01*
X030054Y023957D01*
X030064Y023956D01*
X030074Y023952D01*
X030082Y023946D01*
X030088Y023938D01*
X030092Y023928D01*
X030093Y023918D01*
X030093Y019410D01*
X030091Y019390D01*
X030086Y019370D01*
X030077Y019351D01*
X030065Y019334D01*
X030051Y019320D01*
X030034Y019308D01*
X030015Y019299D01*
X029995Y019294D01*
X029975Y019292D01*
X029581Y019292D01*
X029581Y019134D01*
X029089Y019134D01*
X029089Y019292D01*
X028007Y019292D01*
X028007Y019115D01*
X027495Y019115D01*
X027495Y019292D01*
X027081Y019292D01*
X027064Y019293D01*
X027047Y019298D01*
X027032Y019305D01*
X027018Y019315D01*
X027006Y019327D01*
X026996Y019341D01*
X026989Y019356D01*
X026984Y019373D01*
X026983Y019390D01*
X026983Y022107D01*
X027495Y019292D02*
X028007Y019292D01*
X029089Y019292D02*
X029581Y019292D01*
X030582Y018292D02*
X030397Y017923D01*
X030239Y018002D01*
X030009Y017544D01*
X030168Y017465D01*
X030397Y017923D01*
X030582Y018292D02*
X030591Y018306D01*
X030603Y018319D01*
X030616Y018330D01*
X030631Y018338D01*
X030647Y018343D01*
X030664Y018346D01*
X030681Y018345D01*
X030698Y018342D01*
X030714Y018336D01*
X033143Y017120D01*
X032835Y016504D01*
X034348Y015746D01*
X034331Y015711D01*
X032852Y016451D01*
X032817Y016381D01*
X034296Y015640D01*
X034278Y015605D01*
X032764Y016363D01*
X032447Y015729D01*
X034049Y014927D01*
X034048Y014927D02*
X034060Y014922D01*
X034071Y014914D01*
X034078Y014904D01*
X034083Y014892D01*
X034085Y014879D01*
X034083Y014866D01*
X034084Y014866D02*
X034075Y014848D01*
X034070Y014836D01*
X034062Y014825D01*
X034052Y014818D01*
X034040Y014813D01*
X034027Y014811D01*
X034014Y014813D01*
X034013Y014813D02*
X032394Y015624D01*
X032112Y015061D01*
X033608Y014311D01*
X033573Y014241D01*
X032077Y014990D01*
X031803Y014445D01*
X033405Y013642D01*
X033405Y013643D02*
X033416Y013636D01*
X033426Y013626D01*
X033433Y013615D01*
X033437Y013602D01*
X033438Y013589D01*
X033436Y013576D01*
X033432Y013564D01*
X033432Y013563D02*
X033423Y013546D01*
X033417Y013537D01*
X033409Y013530D01*
X033400Y013526D01*
X033390Y013524D01*
X033380Y013525D01*
X033371Y013528D01*
X033370Y013528D02*
X029339Y015547D01*
X029339Y015546D02*
X029322Y015557D01*
X029306Y015571D01*
X029293Y015587D01*
X029284Y015605D01*
X029277Y015625D01*
X029274Y015645D01*
X029275Y015666D01*
X029279Y015686D01*
X029286Y015705D01*
X029463Y016057D01*
X029322Y016128D01*
X029542Y016568D01*
X029683Y016497D01*
X030168Y017465D01*
X029683Y016497D02*
X029463Y016057D01*
X030845Y014751D02*
X032588Y013878D01*
X032429Y013562D01*
X031707Y013923D01*
X031549Y013606D01*
X031550Y013604D02*
X032606Y013075D01*
X032589Y013040D01*
X031533Y013569D01*
X031497Y013498D01*
X032553Y012969D01*
X032536Y012934D01*
X031480Y013463D01*
X031259Y013023D01*
X031963Y012670D01*
X031893Y012530D01*
X031189Y012882D01*
X031004Y012512D01*
X032060Y011984D01*
X032025Y011913D01*
X030968Y012442D01*
X030739Y011984D01*
X031443Y011632D01*
X031373Y011491D01*
X030669Y011844D01*
X030492Y011492D01*
X031549Y010963D01*
X031531Y010928D01*
X030475Y011456D01*
X030440Y011386D01*
X031496Y010857D01*
X031478Y010822D01*
X030422Y011351D01*
X030219Y010946D01*
X030923Y010593D01*
X030853Y010453D01*
X030149Y010805D01*
X029946Y010400D01*
X031002Y009871D01*
X030967Y009801D01*
X029911Y010330D01*
X029909Y010332D02*
X029698Y009910D01*
X030402Y009557D01*
X030331Y009416D01*
X030333Y009414D02*
X029629Y009767D01*
X029435Y009379D01*
X030491Y008851D01*
X030473Y008815D01*
X029417Y009344D01*
X029382Y009274D01*
X030438Y008745D01*
X030420Y008710D01*
X029364Y009239D01*
X029170Y008851D01*
X029874Y008499D01*
X029804Y008358D01*
X029100Y008711D01*
X028888Y008288D01*
X029944Y007759D01*
X029909Y007689D01*
X028853Y008218D01*
X028677Y007866D01*
X029381Y007513D01*
X029222Y007196D01*
X027497Y008060D01*
X027496Y008062D02*
X030845Y014751D01*
X032359Y013157D02*
X032366Y013142D01*
X032377Y013129D01*
X032390Y013118D01*
X032404Y013109D01*
X032420Y013104D01*
X032499Y013086D01*
X032464Y013016D02*
X032402Y013069D01*
X032402Y013068D02*
X032388Y013078D01*
X032373Y013085D01*
X032356Y013088D01*
X032340Y013089D01*
X032323Y013086D01*
X030226Y008941D02*
X030233Y008926D01*
X030244Y008913D01*
X030257Y008902D01*
X030271Y008893D01*
X030287Y008888D01*
X030366Y008871D01*
X030331Y008800D02*
X030269Y008853D01*
X030255Y008863D01*
X030240Y008870D01*
X030223Y008873D01*
X030207Y008874D01*
X030190Y008871D01*
X023864Y002345D02*
X023866Y002389D01*
X023872Y002433D01*
X023882Y002476D01*
X023895Y002518D01*
X023913Y002558D01*
X023934Y002597D01*
X023958Y002634D01*
X023985Y002669D01*
X024016Y002701D01*
X024049Y002730D01*
X024085Y002756D01*
X024123Y002778D01*
X024163Y002797D01*
X024204Y002813D01*
X024247Y002825D01*
X024290Y002833D01*
X024334Y002837D01*
X024378Y002837D01*
X024422Y002833D01*
X024465Y002825D01*
X024508Y002813D01*
X024549Y002797D01*
X024589Y002778D01*
X024627Y002756D01*
X024663Y002730D01*
X024696Y002701D01*
X024727Y002669D01*
X024754Y002634D01*
X024778Y002597D01*
X024799Y002558D01*
X024817Y002518D01*
X024830Y002476D01*
X024840Y002433D01*
X024846Y002389D01*
X024848Y002345D01*
X024846Y002301D01*
X024840Y002257D01*
X024830Y002214D01*
X024817Y002172D01*
X024799Y002132D01*
X024778Y002093D01*
X024754Y002056D01*
X024727Y002021D01*
X024696Y001989D01*
X024663Y001960D01*
X024627Y001934D01*
X024589Y001912D01*
X024549Y001893D01*
X024508Y001877D01*
X024465Y001865D01*
X024422Y001857D01*
X024378Y001853D01*
X024334Y001853D01*
X024290Y001857D01*
X024247Y001865D01*
X024204Y001877D01*
X024163Y001893D01*
X024123Y001912D01*
X024085Y001934D01*
X024049Y001960D01*
X024016Y001989D01*
X023985Y002021D01*
X023958Y002056D01*
X023934Y002093D01*
X023913Y002132D01*
X023895Y002172D01*
X023882Y002214D01*
X023872Y002257D01*
X023866Y002301D01*
X023864Y002345D01*
X033282Y020898D02*
X033284Y020942D01*
X033290Y020986D01*
X033300Y021029D01*
X033313Y021071D01*
X033331Y021111D01*
X033352Y021150D01*
X033376Y021187D01*
X033403Y021222D01*
X033434Y021254D01*
X033467Y021283D01*
X033503Y021309D01*
X033541Y021331D01*
X033581Y021350D01*
X033622Y021366D01*
X033665Y021378D01*
X033708Y021386D01*
X033752Y021390D01*
X033796Y021390D01*
X033840Y021386D01*
X033883Y021378D01*
X033926Y021366D01*
X033967Y021350D01*
X034007Y021331D01*
X034045Y021309D01*
X034081Y021283D01*
X034114Y021254D01*
X034145Y021222D01*
X034172Y021187D01*
X034196Y021150D01*
X034217Y021111D01*
X034235Y021071D01*
X034248Y021029D01*
X034258Y020986D01*
X034264Y020942D01*
X034266Y020898D01*
X034264Y020854D01*
X034258Y020810D01*
X034248Y020767D01*
X034235Y020725D01*
X034217Y020685D01*
X034196Y020646D01*
X034172Y020609D01*
X034145Y020574D01*
X034114Y020542D01*
X034081Y020513D01*
X034045Y020487D01*
X034007Y020465D01*
X033967Y020446D01*
X033926Y020430D01*
X033883Y020418D01*
X033840Y020410D01*
X033796Y020406D01*
X033752Y020406D01*
X033708Y020410D01*
X033665Y020418D01*
X033622Y020430D01*
X033581Y020446D01*
X033541Y020465D01*
X033503Y020487D01*
X033467Y020513D01*
X033434Y020542D01*
X033403Y020574D01*
X033376Y020609D01*
X033352Y020646D01*
X033331Y020685D01*
X033313Y020725D01*
X033300Y020767D01*
X033290Y020810D01*
X033284Y020854D01*
X033282Y020898D01*
D11*
X021551Y006618D02*
X016423Y006618D01*
X016423Y001499D01*
X021551Y001499D01*
X021551Y006618D01*
X020940Y005328D02*
X020888Y005404D01*
X020833Y005478D01*
X020775Y005550D01*
X020715Y005620D01*
X020651Y005687D01*
X020585Y005752D01*
X020516Y005813D01*
X020446Y005872D01*
X020372Y005929D01*
X020297Y005982D01*
X020219Y006032D01*
X020140Y006079D01*
X020059Y006123D01*
X019976Y006164D01*
X019891Y006201D01*
X019805Y006235D01*
X019718Y006266D01*
X019630Y006293D01*
X019540Y006316D01*
X019450Y006336D01*
X019359Y006352D01*
X019268Y006365D01*
X019176Y006374D01*
X019084Y006379D01*
X018991Y006381D01*
X017043Y002788D02*
X017095Y002712D01*
X017150Y002638D01*
X017208Y002566D01*
X017268Y002496D01*
X017332Y002429D01*
X017398Y002364D01*
X017467Y002303D01*
X017537Y002244D01*
X017611Y002187D01*
X017686Y002134D01*
X017764Y002084D01*
X017843Y002037D01*
X017924Y001993D01*
X018007Y001952D01*
X018092Y001915D01*
X018178Y001881D01*
X018265Y001850D01*
X018353Y001823D01*
X018443Y001800D01*
X018533Y001780D01*
X018624Y001764D01*
X018715Y001751D01*
X018807Y001742D01*
X018899Y001737D01*
X018992Y001735D01*
X018991Y001735D02*
X019086Y001737D01*
X019181Y001743D01*
X019275Y001753D01*
X019369Y001766D01*
X019462Y001784D01*
X019555Y001805D01*
X019647Y001830D01*
X019737Y001859D01*
X019826Y001892D01*
X019914Y001928D01*
X020000Y001967D01*
X020085Y002010D01*
X020168Y002057D01*
X020249Y002107D01*
X020327Y002160D01*
X020404Y002216D01*
X020478Y002276D01*
X020549Y002338D01*
X020618Y002403D01*
X020685Y002471D01*
X020748Y002542D01*
X020809Y002615D01*
X020866Y002691D01*
X020920Y002769D01*
X018991Y006381D02*
X018896Y006379D01*
X018801Y006373D01*
X018707Y006363D01*
X018613Y006350D01*
X018520Y006332D01*
X018427Y006311D01*
X018335Y006286D01*
X018245Y006257D01*
X018156Y006224D01*
X018068Y006188D01*
X017982Y006149D01*
X017897Y006106D01*
X017814Y006059D01*
X017733Y006009D01*
X017655Y005956D01*
X017578Y005900D01*
X017504Y005840D01*
X017433Y005778D01*
X017364Y005713D01*
X017297Y005645D01*
X017234Y005574D01*
X017173Y005501D01*
X017116Y005425D01*
X017062Y005347D01*
D12*
X017643Y005954D02*
X017335Y005756D01*
X017336Y005756D02*
X017326Y005758D01*
X017316Y005757D01*
X017307Y005753D01*
X017300Y005746D01*
X017296Y005737D01*
X017294Y005727D01*
X017295Y005718D01*
X017083Y005420D01*
X017054Y005445D01*
X017028Y005473D01*
X017004Y005503D01*
X016984Y005536D01*
X016967Y005570D01*
X016953Y005605D01*
X016943Y005642D01*
X016937Y005680D01*
X016934Y005718D01*
X016935Y005756D01*
X016940Y005794D01*
X016948Y005832D01*
X016960Y005868D01*
X016976Y005903D01*
X016995Y005936D01*
X017017Y005967D01*
X017042Y005996D01*
X017069Y006023D01*
X017099Y006046D01*
X017132Y006067D01*
X017166Y006084D01*
X017202Y006098D01*
X017238Y006108D01*
X017276Y006115D01*
X017314Y006118D01*
X017352Y006117D01*
X017390Y006113D01*
X017428Y006104D01*
X017464Y006092D01*
X017499Y006077D01*
X017532Y006058D01*
X017564Y006037D01*
X017593Y006012D01*
X017619Y005984D01*
X017643Y005954D01*
X017612Y005934D01*
X017589Y005963D01*
X017563Y005989D01*
X017535Y006012D01*
X017504Y006032D01*
X017472Y006049D01*
X017438Y006063D01*
X017403Y006072D01*
X017367Y006079D01*
X017330Y006081D01*
X017293Y006080D01*
X017257Y006074D01*
X017222Y006066D01*
X017187Y006053D01*
X017154Y006037D01*
X017123Y006018D01*
X017094Y005995D01*
X017068Y005970D01*
X017044Y005942D01*
X017023Y005912D01*
X017006Y005880D01*
X016992Y005846D01*
X016981Y005811D01*
X016974Y005775D01*
X016971Y005739D01*
X016972Y005702D01*
X016976Y005666D01*
X016984Y005630D01*
X016996Y005596D01*
X017012Y005562D01*
X017030Y005531D01*
X017052Y005501D01*
X017077Y005474D01*
X017104Y005450D01*
X017126Y005480D01*
X017100Y005504D01*
X017077Y005530D01*
X017057Y005558D01*
X017040Y005588D01*
X017026Y005621D01*
X017017Y005654D01*
X017010Y005688D01*
X017008Y005723D01*
X017009Y005757D01*
X017015Y005792D01*
X017024Y005825D01*
X017036Y005858D01*
X017052Y005889D01*
X017072Y005917D01*
X017094Y005944D01*
X017119Y005968D01*
X017147Y005989D01*
X017177Y006007D01*
X017208Y006022D01*
X017241Y006033D01*
X017275Y006040D01*
X017310Y006044D01*
X017344Y006043D01*
X017379Y006039D01*
X017413Y006032D01*
X017446Y006020D01*
X017477Y006005D01*
X017506Y005987D01*
X017534Y005965D01*
X017559Y005941D01*
X017581Y005914D01*
X017550Y005894D01*
X017528Y005919D01*
X017505Y005942D01*
X017479Y005961D01*
X017450Y005977D01*
X017420Y005990D01*
X017389Y006000D01*
X017357Y006005D01*
X017324Y006007D01*
X017292Y006005D01*
X017259Y005999D01*
X017228Y005990D01*
X017198Y005977D01*
X017170Y005960D01*
X017144Y005941D01*
X017120Y005918D01*
X017099Y005893D01*
X017082Y005866D01*
X017067Y005836D01*
X017056Y005805D01*
X017049Y005774D01*
X017045Y005741D01*
X017046Y005709D01*
X017050Y005676D01*
X017057Y005644D01*
X017069Y005614D01*
X017084Y005585D01*
X017102Y005558D01*
X017123Y005533D01*
X017147Y005511D01*
X017169Y005541D01*
X017147Y005562D01*
X017128Y005585D01*
X017112Y005611D01*
X017099Y005638D01*
X017090Y005667D01*
X017084Y005697D01*
X017082Y005727D01*
X017084Y005757D01*
X017089Y005787D01*
X017099Y005816D01*
X017111Y005843D01*
X017128Y005869D01*
X017147Y005892D01*
X017169Y005913D01*
X017193Y005931D01*
X017219Y005946D01*
X017247Y005957D01*
X017276Y005965D01*
X017306Y005969D01*
X017337Y005970D01*
X017367Y005966D01*
X017396Y005959D01*
X017424Y005949D01*
X017451Y005935D01*
X017476Y005917D01*
X017498Y005897D01*
X017518Y005874D01*
X017487Y005854D01*
X017469Y005875D01*
X017448Y005892D01*
X017425Y005907D01*
X017400Y005919D01*
X017374Y005927D01*
X017347Y005932D01*
X017319Y005933D01*
X017292Y005930D01*
X017265Y005924D01*
X017239Y005914D01*
X017215Y005901D01*
X017193Y005885D01*
X017173Y005866D01*
X017156Y005845D01*
X017142Y005821D01*
X017131Y005796D01*
X017123Y005770D01*
X017120Y005743D01*
X017119Y005715D01*
X017123Y005688D01*
X017130Y005661D01*
X017140Y005636D01*
X017154Y005612D01*
X017171Y005591D01*
X017190Y005571D01*
X017212Y005602D01*
X017194Y005620D01*
X017180Y005641D01*
X017169Y005663D01*
X017161Y005687D01*
X017157Y005712D01*
X017156Y005737D01*
X017160Y005762D01*
X017167Y005787D01*
X017178Y005810D01*
X017191Y005831D01*
X017208Y005849D01*
X017228Y005865D01*
X017250Y005878D01*
X017273Y005888D01*
X017298Y005894D01*
X017323Y005896D01*
X017348Y005894D01*
X017373Y005889D01*
X017396Y005880D01*
X017418Y005868D01*
X017438Y005853D01*
X017456Y005834D01*
X017424Y005814D01*
X017408Y005830D01*
X017390Y005842D01*
X017369Y005851D01*
X017348Y005857D01*
X017325Y005859D01*
X017303Y005857D01*
X017281Y005852D01*
X017261Y005842D01*
X017242Y005830D01*
X017226Y005814D01*
X017213Y005797D01*
X017203Y005777D01*
X017196Y005755D01*
X017193Y005733D01*
X017194Y005711D01*
X017199Y005689D01*
X017207Y005668D01*
X017219Y005649D01*
X017233Y005632D01*
X017255Y005663D01*
X017244Y005677D01*
X017236Y005694D01*
X017231Y005712D01*
X017230Y005730D01*
X017232Y005748D01*
X017238Y005766D01*
X017247Y005782D01*
X017259Y005796D01*
X017274Y005807D01*
X017290Y005815D01*
X017308Y005820D01*
X017326Y005822D01*
X017345Y005820D01*
X017362Y005814D01*
X017378Y005806D01*
X017393Y005794D01*
X017360Y005773D01*
X017349Y005780D01*
X017336Y005784D01*
X017322Y005785D01*
X017308Y005783D01*
X017296Y005777D01*
X017285Y005769D01*
X017276Y005758D01*
X017270Y005746D01*
X017267Y005733D01*
X017268Y005719D01*
X017271Y005706D01*
X017277Y005694D01*
X019188Y005260D02*
X019495Y005260D01*
X019342Y005260D02*
X019342Y005720D01*
X019495Y005567D01*
X019649Y005260D02*
X019956Y005260D01*
X019956Y005720D01*
X020887Y005407D02*
X020689Y005715D01*
X020689Y005714D02*
X020691Y005724D01*
X020690Y005734D01*
X020686Y005743D01*
X020679Y005750D01*
X020670Y005754D01*
X020660Y005756D01*
X020651Y005755D01*
X020353Y005967D01*
X020378Y005996D01*
X020406Y006022D01*
X020436Y006046D01*
X020469Y006066D01*
X020503Y006083D01*
X020538Y006097D01*
X020575Y006107D01*
X020613Y006113D01*
X020651Y006116D01*
X020689Y006115D01*
X020727Y006110D01*
X020765Y006102D01*
X020801Y006090D01*
X020836Y006074D01*
X020869Y006055D01*
X020900Y006033D01*
X020929Y006008D01*
X020956Y005981D01*
X020979Y005951D01*
X021000Y005918D01*
X021017Y005884D01*
X021031Y005848D01*
X021041Y005812D01*
X021048Y005774D01*
X021051Y005736D01*
X021050Y005698D01*
X021046Y005660D01*
X021037Y005622D01*
X021025Y005586D01*
X021010Y005551D01*
X020991Y005518D01*
X020970Y005486D01*
X020945Y005457D01*
X020917Y005431D01*
X020887Y005407D01*
X020867Y005438D01*
X020896Y005461D01*
X020922Y005487D01*
X020945Y005515D01*
X020965Y005546D01*
X020982Y005578D01*
X020996Y005612D01*
X021005Y005647D01*
X021012Y005683D01*
X021014Y005720D01*
X021013Y005757D01*
X021007Y005793D01*
X020999Y005828D01*
X020986Y005863D01*
X020970Y005896D01*
X020951Y005927D01*
X020928Y005956D01*
X020903Y005982D01*
X020875Y006006D01*
X020845Y006027D01*
X020813Y006044D01*
X020779Y006058D01*
X020744Y006069D01*
X020708Y006076D01*
X020672Y006079D01*
X020635Y006078D01*
X020599Y006074D01*
X020563Y006066D01*
X020529Y006054D01*
X020495Y006038D01*
X020464Y006020D01*
X020434Y005998D01*
X020407Y005973D01*
X020383Y005946D01*
X020413Y005924D01*
X020437Y005950D01*
X020463Y005973D01*
X020491Y005993D01*
X020521Y006010D01*
X020554Y006024D01*
X020587Y006033D01*
X020621Y006040D01*
X020656Y006042D01*
X020690Y006041D01*
X020725Y006035D01*
X020758Y006026D01*
X020791Y006014D01*
X020822Y005998D01*
X020850Y005978D01*
X020877Y005956D01*
X020901Y005931D01*
X020922Y005903D01*
X020940Y005873D01*
X020955Y005842D01*
X020966Y005809D01*
X020973Y005775D01*
X020977Y005740D01*
X020976Y005706D01*
X020972Y005671D01*
X020965Y005637D01*
X020953Y005604D01*
X020938Y005573D01*
X020920Y005544D01*
X020898Y005516D01*
X020874Y005491D01*
X020847Y005469D01*
X020827Y005500D01*
X020852Y005522D01*
X020875Y005545D01*
X020894Y005571D01*
X020910Y005600D01*
X020923Y005630D01*
X020933Y005661D01*
X020938Y005693D01*
X020940Y005726D01*
X020938Y005758D01*
X020932Y005791D01*
X020923Y005822D01*
X020910Y005852D01*
X020893Y005880D01*
X020874Y005906D01*
X020851Y005930D01*
X020826Y005951D01*
X020799Y005968D01*
X020769Y005983D01*
X020738Y005994D01*
X020707Y006001D01*
X020674Y006005D01*
X020642Y006004D01*
X020609Y006000D01*
X020577Y005993D01*
X020547Y005981D01*
X020518Y005966D01*
X020491Y005948D01*
X020466Y005927D01*
X020444Y005903D01*
X020474Y005881D01*
X020495Y005903D01*
X020518Y005922D01*
X020544Y005938D01*
X020571Y005951D01*
X020600Y005960D01*
X020630Y005966D01*
X020660Y005968D01*
X020690Y005966D01*
X020720Y005961D01*
X020749Y005951D01*
X020776Y005939D01*
X020802Y005922D01*
X020825Y005903D01*
X020846Y005881D01*
X020864Y005857D01*
X020879Y005831D01*
X020890Y005803D01*
X020898Y005774D01*
X020902Y005744D01*
X020903Y005713D01*
X020899Y005683D01*
X020892Y005654D01*
X020882Y005626D01*
X020868Y005599D01*
X020850Y005574D01*
X020830Y005552D01*
X020807Y005532D01*
X020787Y005563D01*
X020808Y005581D01*
X020825Y005602D01*
X020840Y005625D01*
X020852Y005650D01*
X020860Y005676D01*
X020865Y005703D01*
X020866Y005731D01*
X020863Y005758D01*
X020857Y005785D01*
X020847Y005811D01*
X020834Y005835D01*
X020818Y005857D01*
X020799Y005877D01*
X020778Y005894D01*
X020754Y005908D01*
X020729Y005919D01*
X020703Y005927D01*
X020676Y005930D01*
X020648Y005931D01*
X020621Y005927D01*
X020594Y005920D01*
X020569Y005910D01*
X020545Y005896D01*
X020524Y005879D01*
X020504Y005860D01*
X020535Y005838D01*
X020553Y005856D01*
X020574Y005870D01*
X020596Y005881D01*
X020620Y005889D01*
X020645Y005893D01*
X020670Y005894D01*
X020695Y005890D01*
X020720Y005883D01*
X020743Y005872D01*
X020764Y005859D01*
X020782Y005842D01*
X020798Y005822D01*
X020811Y005800D01*
X020821Y005777D01*
X020827Y005752D01*
X020829Y005727D01*
X020827Y005702D01*
X020822Y005677D01*
X020813Y005654D01*
X020801Y005632D01*
X020786Y005612D01*
X020767Y005594D01*
X020747Y005626D01*
X020763Y005642D01*
X020775Y005660D01*
X020784Y005681D01*
X020790Y005702D01*
X020792Y005725D01*
X020790Y005747D01*
X020785Y005769D01*
X020775Y005789D01*
X020763Y005808D01*
X020747Y005824D01*
X020730Y005837D01*
X020710Y005847D01*
X020688Y005854D01*
X020666Y005857D01*
X020644Y005856D01*
X020622Y005851D01*
X020601Y005843D01*
X020582Y005831D01*
X020565Y005817D01*
X020596Y005795D01*
X020610Y005806D01*
X020627Y005814D01*
X020645Y005819D01*
X020663Y005820D01*
X020681Y005818D01*
X020699Y005812D01*
X020715Y005803D01*
X020729Y005791D01*
X020740Y005776D01*
X020748Y005760D01*
X020753Y005742D01*
X020755Y005724D01*
X020753Y005705D01*
X020747Y005688D01*
X020739Y005672D01*
X020727Y005657D01*
X020706Y005690D01*
X020713Y005701D01*
X020717Y005714D01*
X020718Y005728D01*
X020716Y005742D01*
X020710Y005754D01*
X020702Y005765D01*
X020691Y005774D01*
X020679Y005780D01*
X020666Y005783D01*
X020652Y005782D01*
X020639Y005779D01*
X020627Y005773D01*
X020340Y002163D02*
X020648Y002361D01*
X020647Y002361D02*
X020657Y002359D01*
X020667Y002360D01*
X020676Y002364D01*
X020683Y002371D01*
X020687Y002380D01*
X020689Y002390D01*
X020688Y002399D01*
X020900Y002697D01*
X020929Y002672D01*
X020955Y002644D01*
X020979Y002614D01*
X020999Y002581D01*
X021016Y002547D01*
X021030Y002512D01*
X021040Y002475D01*
X021046Y002437D01*
X021049Y002399D01*
X021048Y002361D01*
X021043Y002323D01*
X021035Y002285D01*
X021023Y002249D01*
X021007Y002214D01*
X020988Y002181D01*
X020966Y002150D01*
X020941Y002121D01*
X020914Y002094D01*
X020884Y002071D01*
X020851Y002050D01*
X020817Y002033D01*
X020781Y002019D01*
X020745Y002009D01*
X020707Y002002D01*
X020669Y001999D01*
X020631Y002000D01*
X020593Y002004D01*
X020555Y002013D01*
X020519Y002025D01*
X020484Y002040D01*
X020451Y002059D01*
X020419Y002080D01*
X020390Y002105D01*
X020364Y002133D01*
X020340Y002163D01*
X020371Y002183D01*
X020394Y002154D01*
X020420Y002128D01*
X020448Y002105D01*
X020479Y002085D01*
X020511Y002068D01*
X020545Y002054D01*
X020580Y002045D01*
X020616Y002038D01*
X020653Y002036D01*
X020690Y002037D01*
X020726Y002043D01*
X020761Y002051D01*
X020796Y002064D01*
X020829Y002080D01*
X020860Y002099D01*
X020889Y002122D01*
X020915Y002147D01*
X020939Y002175D01*
X020960Y002205D01*
X020977Y002237D01*
X020991Y002271D01*
X021002Y002306D01*
X021009Y002342D01*
X021012Y002378D01*
X021011Y002415D01*
X021007Y002451D01*
X020999Y002487D01*
X020987Y002521D01*
X020971Y002555D01*
X020953Y002586D01*
X020931Y002616D01*
X020906Y002643D01*
X020879Y002667D01*
X020857Y002637D01*
X020883Y002613D01*
X020906Y002587D01*
X020926Y002559D01*
X020943Y002529D01*
X020957Y002496D01*
X020966Y002463D01*
X020973Y002429D01*
X020975Y002394D01*
X020974Y002360D01*
X020968Y002325D01*
X020959Y002292D01*
X020947Y002259D01*
X020931Y002228D01*
X020911Y002200D01*
X020889Y002173D01*
X020864Y002149D01*
X020836Y002128D01*
X020806Y002110D01*
X020775Y002095D01*
X020742Y002084D01*
X020708Y002077D01*
X020673Y002073D01*
X020639Y002074D01*
X020604Y002078D01*
X020570Y002085D01*
X020537Y002097D01*
X020506Y002112D01*
X020477Y002130D01*
X020449Y002152D01*
X020424Y002176D01*
X020402Y002203D01*
X020433Y002223D01*
X020455Y002198D01*
X020478Y002175D01*
X020504Y002156D01*
X020533Y002140D01*
X020563Y002127D01*
X020594Y002117D01*
X020626Y002112D01*
X020659Y002110D01*
X020691Y002112D01*
X020724Y002118D01*
X020755Y002127D01*
X020785Y002140D01*
X020813Y002157D01*
X020839Y002176D01*
X020863Y002199D01*
X020884Y002224D01*
X020901Y002251D01*
X020916Y002281D01*
X020927Y002312D01*
X020934Y002343D01*
X020938Y002376D01*
X020937Y002408D01*
X020933Y002441D01*
X020926Y002473D01*
X020914Y002503D01*
X020899Y002532D01*
X020881Y002559D01*
X020860Y002584D01*
X020836Y002606D01*
X020814Y002576D01*
X020836Y002555D01*
X020855Y002532D01*
X020871Y002506D01*
X020884Y002479D01*
X020893Y002450D01*
X020899Y002420D01*
X020901Y002390D01*
X020899Y002360D01*
X020894Y002330D01*
X020884Y002301D01*
X020872Y002274D01*
X020855Y002248D01*
X020836Y002225D01*
X020814Y002204D01*
X020790Y002186D01*
X020764Y002171D01*
X020736Y002160D01*
X020707Y002152D01*
X020677Y002148D01*
X020646Y002147D01*
X020616Y002151D01*
X020587Y002158D01*
X020559Y002168D01*
X020532Y002182D01*
X020507Y002200D01*
X020485Y002220D01*
X020465Y002243D01*
X020496Y002263D01*
X020514Y002242D01*
X020535Y002225D01*
X020558Y002210D01*
X020583Y002198D01*
X020609Y002190D01*
X020636Y002185D01*
X020664Y002184D01*
X020691Y002187D01*
X020718Y002193D01*
X020744Y002203D01*
X020768Y002216D01*
X020790Y002232D01*
X020810Y002251D01*
X020827Y002272D01*
X020841Y002296D01*
X020852Y002321D01*
X020860Y002347D01*
X020863Y002374D01*
X020864Y002402D01*
X020860Y002429D01*
X020853Y002456D01*
X020843Y002481D01*
X020829Y002505D01*
X020812Y002526D01*
X020793Y002546D01*
X020771Y002515D01*
X020789Y002497D01*
X020803Y002476D01*
X020814Y002454D01*
X020822Y002430D01*
X020826Y002405D01*
X020827Y002380D01*
X020823Y002355D01*
X020816Y002330D01*
X020805Y002307D01*
X020792Y002286D01*
X020775Y002268D01*
X020755Y002252D01*
X020733Y002239D01*
X020710Y002229D01*
X020685Y002223D01*
X020660Y002221D01*
X020635Y002223D01*
X020610Y002228D01*
X020587Y002237D01*
X020565Y002249D01*
X020545Y002264D01*
X020527Y002283D01*
X020559Y002303D01*
X020575Y002287D01*
X020593Y002275D01*
X020614Y002266D01*
X020635Y002260D01*
X020658Y002258D01*
X020680Y002260D01*
X020702Y002265D01*
X020722Y002275D01*
X020741Y002287D01*
X020757Y002303D01*
X020770Y002320D01*
X020780Y002340D01*
X020787Y002362D01*
X020790Y002384D01*
X020789Y002406D01*
X020784Y002428D01*
X020776Y002449D01*
X020764Y002468D01*
X020750Y002485D01*
X020728Y002454D01*
X020739Y002440D01*
X020747Y002423D01*
X020752Y002405D01*
X020753Y002387D01*
X020751Y002369D01*
X020745Y002351D01*
X020736Y002335D01*
X020724Y002321D01*
X020709Y002310D01*
X020693Y002302D01*
X020675Y002297D01*
X020657Y002295D01*
X020638Y002297D01*
X020621Y002303D01*
X020605Y002311D01*
X020590Y002323D01*
X020623Y002344D01*
X020634Y002337D01*
X020647Y002333D01*
X020661Y002332D01*
X020675Y002334D01*
X020687Y002340D01*
X020698Y002348D01*
X020707Y002359D01*
X020713Y002371D01*
X020716Y002384D01*
X020715Y002398D01*
X020712Y002411D01*
X020706Y002423D01*
X017096Y002710D02*
X017294Y002402D01*
X017294Y002403D02*
X017292Y002393D01*
X017293Y002383D01*
X017297Y002374D01*
X017304Y002367D01*
X017313Y002363D01*
X017323Y002361D01*
X017332Y002362D01*
X017630Y002150D01*
X017605Y002121D01*
X017577Y002095D01*
X017547Y002071D01*
X017514Y002051D01*
X017480Y002034D01*
X017445Y002020D01*
X017408Y002010D01*
X017370Y002004D01*
X017332Y002001D01*
X017294Y002002D01*
X017256Y002007D01*
X017218Y002015D01*
X017182Y002027D01*
X017147Y002043D01*
X017114Y002062D01*
X017083Y002084D01*
X017054Y002109D01*
X017027Y002136D01*
X017004Y002166D01*
X016983Y002199D01*
X016966Y002233D01*
X016952Y002269D01*
X016942Y002305D01*
X016935Y002343D01*
X016932Y002381D01*
X016933Y002419D01*
X016937Y002457D01*
X016946Y002495D01*
X016958Y002531D01*
X016973Y002566D01*
X016992Y002599D01*
X017013Y002631D01*
X017038Y002660D01*
X017066Y002686D01*
X017096Y002710D01*
X017116Y002679D01*
X017087Y002656D01*
X017061Y002630D01*
X017038Y002602D01*
X017018Y002571D01*
X017001Y002539D01*
X016987Y002505D01*
X016978Y002470D01*
X016971Y002434D01*
X016969Y002397D01*
X016970Y002360D01*
X016976Y002324D01*
X016984Y002289D01*
X016997Y002254D01*
X017013Y002221D01*
X017032Y002190D01*
X017055Y002161D01*
X017080Y002135D01*
X017108Y002111D01*
X017138Y002090D01*
X017170Y002073D01*
X017204Y002059D01*
X017239Y002048D01*
X017275Y002041D01*
X017311Y002038D01*
X017348Y002039D01*
X017384Y002043D01*
X017420Y002051D01*
X017454Y002063D01*
X017488Y002079D01*
X017519Y002097D01*
X017549Y002119D01*
X017576Y002144D01*
X017600Y002171D01*
X017570Y002193D01*
X017546Y002167D01*
X017520Y002144D01*
X017492Y002124D01*
X017462Y002107D01*
X017429Y002093D01*
X017396Y002084D01*
X017362Y002077D01*
X017327Y002075D01*
X017293Y002076D01*
X017258Y002082D01*
X017225Y002091D01*
X017192Y002103D01*
X017161Y002119D01*
X017133Y002139D01*
X017106Y002161D01*
X017082Y002186D01*
X017061Y002214D01*
X017043Y002244D01*
X017028Y002275D01*
X017017Y002308D01*
X017010Y002342D01*
X017006Y002377D01*
X017007Y002411D01*
X017011Y002446D01*
X017018Y002480D01*
X017030Y002513D01*
X017045Y002544D01*
X017063Y002573D01*
X017085Y002601D01*
X017109Y002626D01*
X017136Y002648D01*
X017156Y002617D01*
X017131Y002595D01*
X017108Y002572D01*
X017089Y002546D01*
X017073Y002517D01*
X017060Y002487D01*
X017050Y002456D01*
X017045Y002424D01*
X017043Y002391D01*
X017045Y002359D01*
X017051Y002326D01*
X017060Y002295D01*
X017073Y002265D01*
X017090Y002237D01*
X017109Y002211D01*
X017132Y002187D01*
X017157Y002166D01*
X017184Y002149D01*
X017214Y002134D01*
X017245Y002123D01*
X017276Y002116D01*
X017309Y002112D01*
X017341Y002113D01*
X017374Y002117D01*
X017406Y002124D01*
X017436Y002136D01*
X017465Y002151D01*
X017492Y002169D01*
X017517Y002190D01*
X017539Y002214D01*
X017509Y002236D01*
X017488Y002214D01*
X017465Y002195D01*
X017439Y002179D01*
X017412Y002166D01*
X017383Y002157D01*
X017353Y002151D01*
X017323Y002149D01*
X017293Y002151D01*
X017263Y002156D01*
X017234Y002166D01*
X017207Y002178D01*
X017181Y002195D01*
X017158Y002214D01*
X017137Y002236D01*
X017119Y002260D01*
X017104Y002286D01*
X017093Y002314D01*
X017085Y002343D01*
X017081Y002373D01*
X017080Y002404D01*
X017084Y002434D01*
X017091Y002463D01*
X017101Y002491D01*
X017115Y002518D01*
X017133Y002543D01*
X017153Y002565D01*
X017176Y002585D01*
X017196Y002554D01*
X017175Y002536D01*
X017158Y002515D01*
X017143Y002492D01*
X017131Y002467D01*
X017123Y002441D01*
X017118Y002414D01*
X017117Y002386D01*
X017120Y002359D01*
X017126Y002332D01*
X017136Y002306D01*
X017149Y002282D01*
X017165Y002260D01*
X017184Y002240D01*
X017205Y002223D01*
X017229Y002209D01*
X017254Y002198D01*
X017280Y002190D01*
X017307Y002187D01*
X017335Y002186D01*
X017362Y002190D01*
X017389Y002197D01*
X017414Y002207D01*
X017438Y002221D01*
X017459Y002238D01*
X017479Y002257D01*
X017448Y002279D01*
X017430Y002261D01*
X017409Y002247D01*
X017387Y002236D01*
X017363Y002228D01*
X017338Y002224D01*
X017313Y002223D01*
X017288Y002227D01*
X017263Y002234D01*
X017240Y002245D01*
X017219Y002258D01*
X017201Y002275D01*
X017185Y002295D01*
X017172Y002317D01*
X017162Y002340D01*
X017156Y002365D01*
X017154Y002390D01*
X017156Y002415D01*
X017161Y002440D01*
X017170Y002463D01*
X017182Y002485D01*
X017197Y002505D01*
X017216Y002523D01*
X017236Y002491D01*
X017220Y002475D01*
X017208Y002457D01*
X017199Y002436D01*
X017193Y002415D01*
X017191Y002392D01*
X017193Y002370D01*
X017198Y002348D01*
X017208Y002328D01*
X017220Y002309D01*
X017236Y002293D01*
X017253Y002280D01*
X017273Y002270D01*
X017295Y002263D01*
X017317Y002260D01*
X017339Y002261D01*
X017361Y002266D01*
X017382Y002274D01*
X017401Y002286D01*
X017418Y002300D01*
X017387Y002322D01*
X017373Y002311D01*
X017356Y002303D01*
X017338Y002298D01*
X017320Y002297D01*
X017302Y002299D01*
X017284Y002305D01*
X017268Y002314D01*
X017254Y002326D01*
X017243Y002341D01*
X017235Y002357D01*
X017230Y002375D01*
X017228Y002393D01*
X017230Y002412D01*
X017236Y002429D01*
X017244Y002445D01*
X017256Y002460D01*
X017277Y002427D01*
X017270Y002416D01*
X017266Y002403D01*
X017265Y002389D01*
X017267Y002375D01*
X017273Y002363D01*
X017281Y002352D01*
X017292Y002343D01*
X017304Y002337D01*
X017317Y002334D01*
X017331Y002335D01*
X017344Y002338D01*
X017356Y002344D01*
M02*
