%
M48
M72
T01C0.0236
T02C0.0276
T03C0.0315
T04C0.0394
T05C0.0400
T06C0.0472
T07C0.0512
T08C0.0630
T09C0.0866
T10C0.0984
%
T01
X21596Y11454
X17121Y8424
X24681Y7098
X17658Y8891
X19471Y14266
X20658Y18391
X26999Y20672
X28817Y17109
X23223Y12299
X26096Y13766
X20783Y20329
X24908Y18026
X23971Y16579
X16096Y10766
X19283Y8521
X22408Y16329
X26408Y11574
X15596Y11079
X18573Y8183
X23739Y10657
X21658Y10361
X23533Y14141
X26846Y12516
X25033Y16141
X20783Y14391
X25846Y19704
X20596Y5141
X27846Y14204
X23221Y5141
X16362Y5542
X21846Y17016
X21056Y6176
X14549Y6167
X26533Y17016
X22783Y15454
X23283Y14579
X20596Y13704
X17221Y10704
X15033Y11079
X25971Y12016
X15978Y7167
X14846Y9454
X25971Y12579
T02
X18013Y19831
X18604Y19831
X19194Y19831
X19785Y19831
X20356Y19831
X20946Y19831
X21537Y19831
X22127Y19831
T03
X17533Y15891
X18869Y15891
X20158Y17454
X18547Y9000
X22678Y18635
X12221Y8454
X11221Y10891
X11221Y8516
T04
X26353Y14609
X12818Y15368
X8856Y8093
X9565Y8369
X8187Y8330
X28029Y18251
X28226Y17464
X13158Y5065
T05
X26495Y8938
X26041Y8047
X25587Y7156
X25133Y6265
X24679Y5374
T06
X18658Y11891
X8496Y5461
T07
X22724Y3531
T08
X32686Y20502
T09
X16824Y14853
X20577Y8781
X13620Y18133
X14604Y18723
X15588Y19275
X16573Y19865
X12596Y17582
T10
X3552Y2453
X33851Y21185
X12970Y21079
X24421Y2550
M30
