G75*
%MOIN*%
%OFA0B0*%
%FSLAX24Y24*%
%IPPOS*%
%LPD*%
%AMOC8*
5,1,8,0,0,1.08239X$1,22.5*
%
%ADD10C,0.0000*%
%ADD11R,0.0875X0.0875*%
%ADD12R,0.0563X0.0138*%
%ADD13R,0.0512X0.0630*%
%ADD14R,0.1181X0.0984*%
%ADD15R,0.0984X0.1181*%
%ADD16R,0.4098X0.4252*%
%ADD17R,0.0850X0.0420*%
%ADD18R,0.1102X0.1496*%
%ADD19R,0.1000X0.1000*%
%ADD20R,0.1100X0.0900*%
D10*
X001543Y001214D02*
X007057Y001214D01*
X007162Y001332D01*
X007163Y001992D01*
X010376Y001990D01*
X010370Y000897D01*
X017853Y000897D01*
X018407Y001214D01*
X025254Y001214D01*
X028315Y007336D01*
X028846Y007690D01*
X032212Y014373D01*
X031218Y014865D01*
X032655Y017739D01*
X033246Y017444D01*
X033393Y017483D01*
X035864Y022424D01*
X030103Y022423D01*
X030103Y022424D02*
X030103Y021647D01*
X026989Y021647D01*
X026989Y022739D01*
X019476Y022739D01*
X018689Y022424D01*
X012143Y022424D01*
X009220Y016568D01*
X008561Y015977D01*
X005204Y009265D01*
X006218Y008753D01*
X004781Y005889D01*
X004191Y006184D01*
X004004Y006145D01*
X001543Y001214D01*
X003060Y002453D02*
X003062Y002497D01*
X003068Y002541D01*
X003078Y002584D01*
X003091Y002626D01*
X003109Y002666D01*
X003130Y002705D01*
X003154Y002742D01*
X003181Y002777D01*
X003212Y002809D01*
X003245Y002838D01*
X003281Y002864D01*
X003319Y002886D01*
X003359Y002905D01*
X003400Y002921D01*
X003443Y002933D01*
X003486Y002941D01*
X003530Y002945D01*
X003574Y002945D01*
X003618Y002941D01*
X003661Y002933D01*
X003704Y002921D01*
X003745Y002905D01*
X003785Y002886D01*
X003823Y002864D01*
X003859Y002838D01*
X003892Y002809D01*
X003923Y002777D01*
X003950Y002742D01*
X003974Y002705D01*
X003995Y002666D01*
X004013Y002626D01*
X004026Y002584D01*
X004036Y002541D01*
X004042Y002497D01*
X004044Y002453D01*
X004042Y002409D01*
X004036Y002365D01*
X004026Y002322D01*
X004013Y002280D01*
X003995Y002240D01*
X003974Y002201D01*
X003950Y002164D01*
X003923Y002129D01*
X003892Y002097D01*
X003859Y002068D01*
X003823Y002042D01*
X003785Y002020D01*
X003745Y002001D01*
X003704Y001985D01*
X003661Y001973D01*
X003618Y001965D01*
X003574Y001961D01*
X003530Y001961D01*
X003486Y001965D01*
X003443Y001973D01*
X003400Y001985D01*
X003359Y002001D01*
X003319Y002020D01*
X003281Y002042D01*
X003245Y002068D01*
X003212Y002097D01*
X003181Y002129D01*
X003154Y002164D01*
X003130Y002201D01*
X003109Y002240D01*
X003091Y002280D01*
X003078Y002322D01*
X003068Y002365D01*
X003062Y002409D01*
X003060Y002453D01*
X016391Y014853D02*
X016393Y014894D01*
X016399Y014935D01*
X016409Y014975D01*
X016422Y015014D01*
X016439Y015051D01*
X016460Y015087D01*
X016484Y015121D01*
X016511Y015152D01*
X016540Y015180D01*
X016573Y015206D01*
X016607Y015228D01*
X016644Y015247D01*
X016682Y015262D01*
X016722Y015274D01*
X016762Y015282D01*
X016803Y015286D01*
X016845Y015286D01*
X016886Y015282D01*
X016926Y015274D01*
X016966Y015262D01*
X017004Y015247D01*
X017040Y015228D01*
X017075Y015206D01*
X017108Y015180D01*
X017137Y015152D01*
X017164Y015121D01*
X017188Y015087D01*
X017209Y015051D01*
X017226Y015014D01*
X017239Y014975D01*
X017249Y014935D01*
X017255Y014894D01*
X017257Y014853D01*
X017255Y014812D01*
X017249Y014771D01*
X017239Y014731D01*
X017226Y014692D01*
X017209Y014655D01*
X017188Y014619D01*
X017164Y014585D01*
X017137Y014554D01*
X017108Y014526D01*
X017075Y014500D01*
X017041Y014478D01*
X017004Y014459D01*
X016966Y014444D01*
X016926Y014432D01*
X016886Y014424D01*
X016845Y014420D01*
X016803Y014420D01*
X016762Y014424D01*
X016722Y014432D01*
X016682Y014444D01*
X016644Y014459D01*
X016608Y014478D01*
X016573Y014500D01*
X016540Y014526D01*
X016511Y014554D01*
X016484Y014585D01*
X016460Y014619D01*
X016439Y014655D01*
X016422Y014692D01*
X016409Y014731D01*
X016399Y014771D01*
X016393Y014812D01*
X016391Y014853D01*
X012163Y017582D02*
X012165Y017623D01*
X012171Y017664D01*
X012181Y017704D01*
X012194Y017743D01*
X012211Y017780D01*
X012232Y017816D01*
X012256Y017850D01*
X012283Y017881D01*
X012312Y017909D01*
X012345Y017935D01*
X012379Y017957D01*
X012416Y017976D01*
X012454Y017991D01*
X012494Y018003D01*
X012534Y018011D01*
X012575Y018015D01*
X012617Y018015D01*
X012658Y018011D01*
X012698Y018003D01*
X012738Y017991D01*
X012776Y017976D01*
X012812Y017957D01*
X012847Y017935D01*
X012880Y017909D01*
X012909Y017881D01*
X012936Y017850D01*
X012960Y017816D01*
X012981Y017780D01*
X012998Y017743D01*
X013011Y017704D01*
X013021Y017664D01*
X013027Y017623D01*
X013029Y017582D01*
X013027Y017541D01*
X013021Y017500D01*
X013011Y017460D01*
X012998Y017421D01*
X012981Y017384D01*
X012960Y017348D01*
X012936Y017314D01*
X012909Y017283D01*
X012880Y017255D01*
X012847Y017229D01*
X012813Y017207D01*
X012776Y017188D01*
X012738Y017173D01*
X012698Y017161D01*
X012658Y017153D01*
X012617Y017149D01*
X012575Y017149D01*
X012534Y017153D01*
X012494Y017161D01*
X012454Y017173D01*
X012416Y017188D01*
X012380Y017207D01*
X012345Y017229D01*
X012312Y017255D01*
X012283Y017283D01*
X012256Y017314D01*
X012232Y017348D01*
X012211Y017384D01*
X012194Y017421D01*
X012181Y017460D01*
X012171Y017500D01*
X012165Y017541D01*
X012163Y017582D01*
X013187Y018133D02*
X013189Y018174D01*
X013195Y018215D01*
X013205Y018255D01*
X013218Y018294D01*
X013235Y018331D01*
X013256Y018367D01*
X013280Y018401D01*
X013307Y018432D01*
X013336Y018460D01*
X013369Y018486D01*
X013403Y018508D01*
X013440Y018527D01*
X013478Y018542D01*
X013518Y018554D01*
X013558Y018562D01*
X013599Y018566D01*
X013641Y018566D01*
X013682Y018562D01*
X013722Y018554D01*
X013762Y018542D01*
X013800Y018527D01*
X013836Y018508D01*
X013871Y018486D01*
X013904Y018460D01*
X013933Y018432D01*
X013960Y018401D01*
X013984Y018367D01*
X014005Y018331D01*
X014022Y018294D01*
X014035Y018255D01*
X014045Y018215D01*
X014051Y018174D01*
X014053Y018133D01*
X014051Y018092D01*
X014045Y018051D01*
X014035Y018011D01*
X014022Y017972D01*
X014005Y017935D01*
X013984Y017899D01*
X013960Y017865D01*
X013933Y017834D01*
X013904Y017806D01*
X013871Y017780D01*
X013837Y017758D01*
X013800Y017739D01*
X013762Y017724D01*
X013722Y017712D01*
X013682Y017704D01*
X013641Y017700D01*
X013599Y017700D01*
X013558Y017704D01*
X013518Y017712D01*
X013478Y017724D01*
X013440Y017739D01*
X013404Y017758D01*
X013369Y017780D01*
X013336Y017806D01*
X013307Y017834D01*
X013280Y017865D01*
X013256Y017899D01*
X013235Y017935D01*
X013218Y017972D01*
X013205Y018011D01*
X013195Y018051D01*
X013189Y018092D01*
X013187Y018133D01*
X014171Y018723D02*
X014173Y018764D01*
X014179Y018805D01*
X014189Y018845D01*
X014202Y018884D01*
X014219Y018921D01*
X014240Y018957D01*
X014264Y018991D01*
X014291Y019022D01*
X014320Y019050D01*
X014353Y019076D01*
X014387Y019098D01*
X014424Y019117D01*
X014462Y019132D01*
X014502Y019144D01*
X014542Y019152D01*
X014583Y019156D01*
X014625Y019156D01*
X014666Y019152D01*
X014706Y019144D01*
X014746Y019132D01*
X014784Y019117D01*
X014820Y019098D01*
X014855Y019076D01*
X014888Y019050D01*
X014917Y019022D01*
X014944Y018991D01*
X014968Y018957D01*
X014989Y018921D01*
X015006Y018884D01*
X015019Y018845D01*
X015029Y018805D01*
X015035Y018764D01*
X015037Y018723D01*
X015035Y018682D01*
X015029Y018641D01*
X015019Y018601D01*
X015006Y018562D01*
X014989Y018525D01*
X014968Y018489D01*
X014944Y018455D01*
X014917Y018424D01*
X014888Y018396D01*
X014855Y018370D01*
X014821Y018348D01*
X014784Y018329D01*
X014746Y018314D01*
X014706Y018302D01*
X014666Y018294D01*
X014625Y018290D01*
X014583Y018290D01*
X014542Y018294D01*
X014502Y018302D01*
X014462Y018314D01*
X014424Y018329D01*
X014388Y018348D01*
X014353Y018370D01*
X014320Y018396D01*
X014291Y018424D01*
X014264Y018455D01*
X014240Y018489D01*
X014219Y018525D01*
X014202Y018562D01*
X014189Y018601D01*
X014179Y018641D01*
X014173Y018682D01*
X014171Y018723D01*
X015155Y019275D02*
X015157Y019316D01*
X015163Y019357D01*
X015173Y019397D01*
X015186Y019436D01*
X015203Y019473D01*
X015224Y019509D01*
X015248Y019543D01*
X015275Y019574D01*
X015304Y019602D01*
X015337Y019628D01*
X015371Y019650D01*
X015408Y019669D01*
X015446Y019684D01*
X015486Y019696D01*
X015526Y019704D01*
X015567Y019708D01*
X015609Y019708D01*
X015650Y019704D01*
X015690Y019696D01*
X015730Y019684D01*
X015768Y019669D01*
X015804Y019650D01*
X015839Y019628D01*
X015872Y019602D01*
X015901Y019574D01*
X015928Y019543D01*
X015952Y019509D01*
X015973Y019473D01*
X015990Y019436D01*
X016003Y019397D01*
X016013Y019357D01*
X016019Y019316D01*
X016021Y019275D01*
X016019Y019234D01*
X016013Y019193D01*
X016003Y019153D01*
X015990Y019114D01*
X015973Y019077D01*
X015952Y019041D01*
X015928Y019007D01*
X015901Y018976D01*
X015872Y018948D01*
X015839Y018922D01*
X015805Y018900D01*
X015768Y018881D01*
X015730Y018866D01*
X015690Y018854D01*
X015650Y018846D01*
X015609Y018842D01*
X015567Y018842D01*
X015526Y018846D01*
X015486Y018854D01*
X015446Y018866D01*
X015408Y018881D01*
X015372Y018900D01*
X015337Y018922D01*
X015304Y018948D01*
X015275Y018976D01*
X015248Y019007D01*
X015224Y019041D01*
X015203Y019077D01*
X015186Y019114D01*
X015173Y019153D01*
X015163Y019193D01*
X015157Y019234D01*
X015155Y019275D01*
X016140Y019865D02*
X016142Y019906D01*
X016148Y019947D01*
X016158Y019987D01*
X016171Y020026D01*
X016188Y020063D01*
X016209Y020099D01*
X016233Y020133D01*
X016260Y020164D01*
X016289Y020192D01*
X016322Y020218D01*
X016356Y020240D01*
X016393Y020259D01*
X016431Y020274D01*
X016471Y020286D01*
X016511Y020294D01*
X016552Y020298D01*
X016594Y020298D01*
X016635Y020294D01*
X016675Y020286D01*
X016715Y020274D01*
X016753Y020259D01*
X016789Y020240D01*
X016824Y020218D01*
X016857Y020192D01*
X016886Y020164D01*
X016913Y020133D01*
X016937Y020099D01*
X016958Y020063D01*
X016975Y020026D01*
X016988Y019987D01*
X016998Y019947D01*
X017004Y019906D01*
X017006Y019865D01*
X017004Y019824D01*
X016998Y019783D01*
X016988Y019743D01*
X016975Y019704D01*
X016958Y019667D01*
X016937Y019631D01*
X016913Y019597D01*
X016886Y019566D01*
X016857Y019538D01*
X016824Y019512D01*
X016790Y019490D01*
X016753Y019471D01*
X016715Y019456D01*
X016675Y019444D01*
X016635Y019436D01*
X016594Y019432D01*
X016552Y019432D01*
X016511Y019436D01*
X016471Y019444D01*
X016431Y019456D01*
X016393Y019471D01*
X016357Y019490D01*
X016322Y019512D01*
X016289Y019538D01*
X016260Y019566D01*
X016233Y019597D01*
X016209Y019631D01*
X016188Y019667D01*
X016171Y019704D01*
X016158Y019743D01*
X016148Y019783D01*
X016142Y019824D01*
X016140Y019865D01*
X012478Y021079D02*
X012480Y021123D01*
X012486Y021167D01*
X012496Y021210D01*
X012509Y021252D01*
X012527Y021292D01*
X012548Y021331D01*
X012572Y021368D01*
X012599Y021403D01*
X012630Y021435D01*
X012663Y021464D01*
X012699Y021490D01*
X012737Y021512D01*
X012777Y021531D01*
X012818Y021547D01*
X012861Y021559D01*
X012904Y021567D01*
X012948Y021571D01*
X012992Y021571D01*
X013036Y021567D01*
X013079Y021559D01*
X013122Y021547D01*
X013163Y021531D01*
X013203Y021512D01*
X013241Y021490D01*
X013277Y021464D01*
X013310Y021435D01*
X013341Y021403D01*
X013368Y021368D01*
X013392Y021331D01*
X013413Y021292D01*
X013431Y021252D01*
X013444Y021210D01*
X013454Y021167D01*
X013460Y021123D01*
X013462Y021079D01*
X013460Y021035D01*
X013454Y020991D01*
X013444Y020948D01*
X013431Y020906D01*
X013413Y020866D01*
X013392Y020827D01*
X013368Y020790D01*
X013341Y020755D01*
X013310Y020723D01*
X013277Y020694D01*
X013241Y020668D01*
X013203Y020646D01*
X013163Y020627D01*
X013122Y020611D01*
X013079Y020599D01*
X013036Y020591D01*
X012992Y020587D01*
X012948Y020587D01*
X012904Y020591D01*
X012861Y020599D01*
X012818Y020611D01*
X012777Y020627D01*
X012737Y020646D01*
X012699Y020668D01*
X012663Y020694D01*
X012630Y020723D01*
X012599Y020755D01*
X012572Y020790D01*
X012548Y020827D01*
X012527Y020866D01*
X012509Y020906D01*
X012496Y020948D01*
X012486Y020991D01*
X012480Y021035D01*
X012478Y021079D01*
X020144Y008781D02*
X020146Y008822D01*
X020152Y008863D01*
X020162Y008903D01*
X020175Y008942D01*
X020192Y008979D01*
X020213Y009015D01*
X020237Y009049D01*
X020264Y009080D01*
X020293Y009108D01*
X020326Y009134D01*
X020360Y009156D01*
X020397Y009175D01*
X020435Y009190D01*
X020475Y009202D01*
X020515Y009210D01*
X020556Y009214D01*
X020598Y009214D01*
X020639Y009210D01*
X020679Y009202D01*
X020719Y009190D01*
X020757Y009175D01*
X020793Y009156D01*
X020828Y009134D01*
X020861Y009108D01*
X020890Y009080D01*
X020917Y009049D01*
X020941Y009015D01*
X020962Y008979D01*
X020979Y008942D01*
X020992Y008903D01*
X021002Y008863D01*
X021008Y008822D01*
X021010Y008781D01*
X021008Y008740D01*
X021002Y008699D01*
X020992Y008659D01*
X020979Y008620D01*
X020962Y008583D01*
X020941Y008547D01*
X020917Y008513D01*
X020890Y008482D01*
X020861Y008454D01*
X020828Y008428D01*
X020794Y008406D01*
X020757Y008387D01*
X020719Y008372D01*
X020679Y008360D01*
X020639Y008352D01*
X020598Y008348D01*
X020556Y008348D01*
X020515Y008352D01*
X020475Y008360D01*
X020435Y008372D01*
X020397Y008387D01*
X020361Y008406D01*
X020326Y008428D01*
X020293Y008454D01*
X020264Y008482D01*
X020237Y008513D01*
X020213Y008547D01*
X020192Y008583D01*
X020175Y008620D01*
X020162Y008659D01*
X020152Y008699D01*
X020146Y008740D01*
X020144Y008781D01*
X023929Y002550D02*
X023931Y002594D01*
X023937Y002638D01*
X023947Y002681D01*
X023960Y002723D01*
X023978Y002763D01*
X023999Y002802D01*
X024023Y002839D01*
X024050Y002874D01*
X024081Y002906D01*
X024114Y002935D01*
X024150Y002961D01*
X024188Y002983D01*
X024228Y003002D01*
X024269Y003018D01*
X024312Y003030D01*
X024355Y003038D01*
X024399Y003042D01*
X024443Y003042D01*
X024487Y003038D01*
X024530Y003030D01*
X024573Y003018D01*
X024614Y003002D01*
X024654Y002983D01*
X024692Y002961D01*
X024728Y002935D01*
X024761Y002906D01*
X024792Y002874D01*
X024819Y002839D01*
X024843Y002802D01*
X024864Y002763D01*
X024882Y002723D01*
X024895Y002681D01*
X024905Y002638D01*
X024911Y002594D01*
X024913Y002550D01*
X024911Y002506D01*
X024905Y002462D01*
X024895Y002419D01*
X024882Y002377D01*
X024864Y002337D01*
X024843Y002298D01*
X024819Y002261D01*
X024792Y002226D01*
X024761Y002194D01*
X024728Y002165D01*
X024692Y002139D01*
X024654Y002117D01*
X024614Y002098D01*
X024573Y002082D01*
X024530Y002070D01*
X024487Y002062D01*
X024443Y002058D01*
X024399Y002058D01*
X024355Y002062D01*
X024312Y002070D01*
X024269Y002082D01*
X024228Y002098D01*
X024188Y002117D01*
X024150Y002139D01*
X024114Y002165D01*
X024081Y002194D01*
X024050Y002226D01*
X024023Y002261D01*
X023999Y002298D01*
X023978Y002337D01*
X023960Y002377D01*
X023947Y002419D01*
X023937Y002462D01*
X023931Y002506D01*
X023929Y002550D01*
X033359Y021185D02*
X033361Y021229D01*
X033367Y021273D01*
X033377Y021316D01*
X033390Y021358D01*
X033408Y021398D01*
X033429Y021437D01*
X033453Y021474D01*
X033480Y021509D01*
X033511Y021541D01*
X033544Y021570D01*
X033580Y021596D01*
X033618Y021618D01*
X033658Y021637D01*
X033699Y021653D01*
X033742Y021665D01*
X033785Y021673D01*
X033829Y021677D01*
X033873Y021677D01*
X033917Y021673D01*
X033960Y021665D01*
X034003Y021653D01*
X034044Y021637D01*
X034084Y021618D01*
X034122Y021596D01*
X034158Y021570D01*
X034191Y021541D01*
X034222Y021509D01*
X034249Y021474D01*
X034273Y021437D01*
X034294Y021398D01*
X034312Y021358D01*
X034325Y021316D01*
X034335Y021273D01*
X034341Y021229D01*
X034343Y021185D01*
X034341Y021141D01*
X034335Y021097D01*
X034325Y021054D01*
X034312Y021012D01*
X034294Y020972D01*
X034273Y020933D01*
X034249Y020896D01*
X034222Y020861D01*
X034191Y020829D01*
X034158Y020800D01*
X034122Y020774D01*
X034084Y020752D01*
X034044Y020733D01*
X034003Y020717D01*
X033960Y020705D01*
X033917Y020697D01*
X033873Y020693D01*
X033829Y020693D01*
X033785Y020697D01*
X033742Y020705D01*
X033699Y020717D01*
X033658Y020733D01*
X033618Y020752D01*
X033580Y020774D01*
X033544Y020800D01*
X033511Y020829D01*
X033480Y020861D01*
X033453Y020896D01*
X033429Y020933D01*
X033408Y020972D01*
X033390Y021012D01*
X033377Y021054D01*
X033367Y021097D01*
X033361Y021141D01*
X033359Y021185D01*
D11*
G36*
X019236Y011702D02*
X018455Y011311D01*
X018064Y012092D01*
X018845Y012483D01*
X019236Y011702D01*
G37*
D12*
G36*
X019502Y011939D02*
X020004Y012190D01*
X020066Y012067D01*
X019564Y011816D01*
X019502Y011939D01*
G37*
G36*
X019387Y012168D02*
X019889Y012419D01*
X019951Y012296D01*
X019449Y012045D01*
X019387Y012168D01*
G37*
G36*
X019272Y012396D02*
X019774Y012647D01*
X019836Y012524D01*
X019334Y012273D01*
X019272Y012396D01*
G37*
G36*
X019158Y012625D02*
X019660Y012876D01*
X019722Y012753D01*
X019220Y012502D01*
X019158Y012625D01*
G37*
G36*
X019043Y012854D02*
X019545Y013105D01*
X019607Y012982D01*
X019105Y012731D01*
X019043Y012854D01*
G37*
G36*
X018929Y013083D02*
X019431Y013334D01*
X019493Y013211D01*
X018991Y012960D01*
X018929Y013083D01*
G37*
G36*
X019616Y011710D02*
X020118Y011961D01*
X020180Y011838D01*
X019678Y011587D01*
X019616Y011710D01*
G37*
G36*
X019731Y011481D02*
X020233Y011732D01*
X020295Y011609D01*
X019793Y011358D01*
X019731Y011481D01*
G37*
G36*
X017830Y010529D02*
X018332Y010780D01*
X018394Y010657D01*
X017892Y010406D01*
X017830Y010529D01*
G37*
G36*
X017715Y010758D02*
X018217Y011009D01*
X018279Y010886D01*
X017777Y010635D01*
X017715Y010758D01*
G37*
G36*
X017601Y010987D02*
X018103Y011238D01*
X018165Y011115D01*
X017663Y010864D01*
X017601Y010987D01*
G37*
G36*
X017486Y011216D02*
X017988Y011467D01*
X018050Y011344D01*
X017548Y011093D01*
X017486Y011216D01*
G37*
G36*
X017372Y011444D02*
X017874Y011695D01*
X017936Y011572D01*
X017434Y011321D01*
X017372Y011444D01*
G37*
G36*
X017257Y011673D02*
X017759Y011924D01*
X017821Y011801D01*
X017319Y011550D01*
X017257Y011673D01*
G37*
G36*
X017142Y011902D02*
X017644Y012153D01*
X017706Y012030D01*
X017204Y011779D01*
X017142Y011902D01*
G37*
G36*
X017028Y012131D02*
X017530Y012382D01*
X017592Y012259D01*
X017090Y012008D01*
X017028Y012131D01*
G37*
D13*
G36*
X019702Y010397D02*
X019267Y010129D01*
X018938Y010665D01*
X019373Y010933D01*
X019702Y010397D01*
G37*
G36*
X020339Y010788D02*
X019904Y010520D01*
X019575Y011056D01*
X020010Y011324D01*
X020339Y010788D01*
G37*
D14*
G36*
X031061Y017055D02*
X030445Y018060D01*
X031283Y018575D01*
X031899Y017570D01*
X031061Y017055D01*
G37*
G36*
X029621Y019405D02*
X029005Y020410D01*
X029843Y020925D01*
X030459Y019920D01*
X029621Y019405D01*
G37*
D15*
X014348Y005259D03*
X014348Y002503D03*
D16*
X009054Y005220D03*
D17*
X012334Y005220D03*
X012334Y004550D03*
X012334Y003880D03*
X012334Y005890D03*
X012334Y006560D03*
D18*
X018174Y003485D03*
X021088Y003485D03*
D19*
X023801Y018047D03*
X023801Y019897D03*
D20*
X006023Y005518D03*
X006023Y003907D03*
M02*
