G75*
%MOIN*%
%OFA0B0*%
%FSLAX24Y24*%
%IPPOS*%
%LPD*%
%AMOC8*
5,1,8,0,0,1.08239X$1,22.5*
%
%ADD10C,0.0000*%
%ADD11C,0.1024*%
%ADD12C,0.0906*%
%ADD13R,0.0603X0.0178*%
%ADD14R,0.0552X0.0670*%
%ADD15R,0.0276X0.0906*%
%ADD16R,0.1615X0.1024*%
%ADD17R,0.1024X0.1615*%
%ADD18R,0.0257X0.0512*%
%ADD19C,0.0516*%
%ADD20R,0.4138X0.4292*%
%ADD21R,0.0890X0.0460*%
%ADD22R,0.1142X0.1536*%
%ADD23C,0.0594*%
%ADD24C,0.0780*%
%ADD25R,0.1040X0.1040*%
%ADD26R,0.0552X0.0631*%
%ADD27R,0.0850X0.0280*%
D10*
X001464Y000942D02*
X003925Y005873D01*
X004112Y005912D01*
X004642Y005647D01*
X006093Y008539D01*
X005142Y009018D01*
X008482Y015706D01*
X009141Y016296D01*
X012065Y022152D01*
X018610Y022152D01*
X019397Y022467D01*
X026907Y022467D01*
X026907Y021414D01*
X030047Y021414D01*
X030047Y022074D01*
X030145Y022152D01*
X035785Y022152D01*
X033275Y017133D01*
X033147Y017113D01*
X032557Y017408D01*
X031120Y014554D01*
X032097Y014066D01*
X028748Y007379D01*
X028236Y007064D01*
X025175Y000942D01*
X001464Y000942D01*
X002981Y002181D02*
X002983Y002225D01*
X002989Y002269D01*
X002999Y002312D01*
X003012Y002354D01*
X003030Y002394D01*
X003051Y002433D01*
X003075Y002470D01*
X003102Y002505D01*
X003133Y002537D01*
X003166Y002566D01*
X003202Y002592D01*
X003240Y002614D01*
X003280Y002633D01*
X003321Y002649D01*
X003364Y002661D01*
X003407Y002669D01*
X003451Y002673D01*
X003495Y002673D01*
X003539Y002669D01*
X003582Y002661D01*
X003625Y002649D01*
X003666Y002633D01*
X003706Y002614D01*
X003744Y002592D01*
X003780Y002566D01*
X003813Y002537D01*
X003844Y002505D01*
X003871Y002470D01*
X003895Y002433D01*
X003916Y002394D01*
X003934Y002354D01*
X003947Y002312D01*
X003957Y002269D01*
X003963Y002225D01*
X003965Y002181D01*
X003963Y002137D01*
X003957Y002093D01*
X003947Y002050D01*
X003934Y002008D01*
X003916Y001968D01*
X003895Y001929D01*
X003871Y001892D01*
X003844Y001857D01*
X003813Y001825D01*
X003780Y001796D01*
X003744Y001770D01*
X003706Y001748D01*
X003666Y001729D01*
X003625Y001713D01*
X003582Y001701D01*
X003539Y001693D01*
X003495Y001689D01*
X003451Y001689D01*
X003407Y001693D01*
X003364Y001701D01*
X003321Y001713D01*
X003280Y001729D01*
X003240Y001748D01*
X003202Y001770D01*
X003166Y001796D01*
X003133Y001825D01*
X003102Y001857D01*
X003075Y001892D01*
X003051Y001929D01*
X003030Y001968D01*
X003012Y002008D01*
X002999Y002050D01*
X002989Y002093D01*
X002983Y002137D01*
X002981Y002181D01*
X016313Y014581D02*
X016315Y014622D01*
X016321Y014663D01*
X016331Y014703D01*
X016344Y014742D01*
X016361Y014779D01*
X016382Y014815D01*
X016406Y014849D01*
X016433Y014880D01*
X016462Y014908D01*
X016495Y014934D01*
X016529Y014956D01*
X016566Y014975D01*
X016604Y014990D01*
X016644Y015002D01*
X016684Y015010D01*
X016725Y015014D01*
X016767Y015014D01*
X016808Y015010D01*
X016848Y015002D01*
X016888Y014990D01*
X016926Y014975D01*
X016962Y014956D01*
X016997Y014934D01*
X017030Y014908D01*
X017059Y014880D01*
X017086Y014849D01*
X017110Y014815D01*
X017131Y014779D01*
X017148Y014742D01*
X017161Y014703D01*
X017171Y014663D01*
X017177Y014622D01*
X017179Y014581D01*
X017177Y014540D01*
X017171Y014499D01*
X017161Y014459D01*
X017148Y014420D01*
X017131Y014383D01*
X017110Y014347D01*
X017086Y014313D01*
X017059Y014282D01*
X017030Y014254D01*
X016997Y014228D01*
X016963Y014206D01*
X016926Y014187D01*
X016888Y014172D01*
X016848Y014160D01*
X016808Y014152D01*
X016767Y014148D01*
X016725Y014148D01*
X016684Y014152D01*
X016644Y014160D01*
X016604Y014172D01*
X016566Y014187D01*
X016530Y014206D01*
X016495Y014228D01*
X016462Y014254D01*
X016433Y014282D01*
X016406Y014313D01*
X016382Y014347D01*
X016361Y014383D01*
X016344Y014420D01*
X016331Y014459D01*
X016321Y014499D01*
X016315Y014540D01*
X016313Y014581D01*
X020065Y008510D02*
X020067Y008551D01*
X020073Y008592D01*
X020083Y008632D01*
X020096Y008671D01*
X020113Y008708D01*
X020134Y008744D01*
X020158Y008778D01*
X020185Y008809D01*
X020214Y008837D01*
X020247Y008863D01*
X020281Y008885D01*
X020318Y008904D01*
X020356Y008919D01*
X020396Y008931D01*
X020436Y008939D01*
X020477Y008943D01*
X020519Y008943D01*
X020560Y008939D01*
X020600Y008931D01*
X020640Y008919D01*
X020678Y008904D01*
X020714Y008885D01*
X020749Y008863D01*
X020782Y008837D01*
X020811Y008809D01*
X020838Y008778D01*
X020862Y008744D01*
X020883Y008708D01*
X020900Y008671D01*
X020913Y008632D01*
X020923Y008592D01*
X020929Y008551D01*
X020931Y008510D01*
X020929Y008469D01*
X020923Y008428D01*
X020913Y008388D01*
X020900Y008349D01*
X020883Y008312D01*
X020862Y008276D01*
X020838Y008242D01*
X020811Y008211D01*
X020782Y008183D01*
X020749Y008157D01*
X020715Y008135D01*
X020678Y008116D01*
X020640Y008101D01*
X020600Y008089D01*
X020560Y008081D01*
X020519Y008077D01*
X020477Y008077D01*
X020436Y008081D01*
X020396Y008089D01*
X020356Y008101D01*
X020318Y008116D01*
X020282Y008135D01*
X020247Y008157D01*
X020214Y008183D01*
X020185Y008211D01*
X020158Y008242D01*
X020134Y008276D01*
X020113Y008312D01*
X020096Y008349D01*
X020083Y008388D01*
X020073Y008428D01*
X020067Y008469D01*
X020065Y008510D01*
X023850Y002278D02*
X023852Y002322D01*
X023858Y002366D01*
X023868Y002409D01*
X023881Y002451D01*
X023899Y002491D01*
X023920Y002530D01*
X023944Y002567D01*
X023971Y002602D01*
X024002Y002634D01*
X024035Y002663D01*
X024071Y002689D01*
X024109Y002711D01*
X024149Y002730D01*
X024190Y002746D01*
X024233Y002758D01*
X024276Y002766D01*
X024320Y002770D01*
X024364Y002770D01*
X024408Y002766D01*
X024451Y002758D01*
X024494Y002746D01*
X024535Y002730D01*
X024575Y002711D01*
X024613Y002689D01*
X024649Y002663D01*
X024682Y002634D01*
X024713Y002602D01*
X024740Y002567D01*
X024764Y002530D01*
X024785Y002491D01*
X024803Y002451D01*
X024816Y002409D01*
X024826Y002366D01*
X024832Y002322D01*
X024834Y002278D01*
X024832Y002234D01*
X024826Y002190D01*
X024816Y002147D01*
X024803Y002105D01*
X024785Y002065D01*
X024764Y002026D01*
X024740Y001989D01*
X024713Y001954D01*
X024682Y001922D01*
X024649Y001893D01*
X024613Y001867D01*
X024575Y001845D01*
X024535Y001826D01*
X024494Y001810D01*
X024451Y001798D01*
X024408Y001790D01*
X024364Y001786D01*
X024320Y001786D01*
X024276Y001790D01*
X024233Y001798D01*
X024190Y001810D01*
X024149Y001826D01*
X024109Y001845D01*
X024071Y001867D01*
X024035Y001893D01*
X024002Y001922D01*
X023971Y001954D01*
X023944Y001989D01*
X023920Y002026D01*
X023899Y002065D01*
X023881Y002105D01*
X023868Y002147D01*
X023858Y002190D01*
X023852Y002234D01*
X023850Y002278D01*
X012400Y020808D02*
X012402Y020852D01*
X012408Y020896D01*
X012418Y020939D01*
X012431Y020981D01*
X012449Y021021D01*
X012470Y021060D01*
X012494Y021097D01*
X012521Y021132D01*
X012552Y021164D01*
X012585Y021193D01*
X012621Y021219D01*
X012659Y021241D01*
X012699Y021260D01*
X012740Y021276D01*
X012783Y021288D01*
X012826Y021296D01*
X012870Y021300D01*
X012914Y021300D01*
X012958Y021296D01*
X013001Y021288D01*
X013044Y021276D01*
X013085Y021260D01*
X013125Y021241D01*
X013163Y021219D01*
X013199Y021193D01*
X013232Y021164D01*
X013263Y021132D01*
X013290Y021097D01*
X013314Y021060D01*
X013335Y021021D01*
X013353Y020981D01*
X013366Y020939D01*
X013376Y020896D01*
X013382Y020852D01*
X013384Y020808D01*
X013382Y020764D01*
X013376Y020720D01*
X013366Y020677D01*
X013353Y020635D01*
X013335Y020595D01*
X013314Y020556D01*
X013290Y020519D01*
X013263Y020484D01*
X013232Y020452D01*
X013199Y020423D01*
X013163Y020397D01*
X013125Y020375D01*
X013085Y020356D01*
X013044Y020340D01*
X013001Y020328D01*
X012958Y020320D01*
X012914Y020316D01*
X012870Y020316D01*
X012826Y020320D01*
X012783Y020328D01*
X012740Y020340D01*
X012699Y020356D01*
X012659Y020375D01*
X012621Y020397D01*
X012585Y020423D01*
X012552Y020452D01*
X012521Y020484D01*
X012494Y020519D01*
X012470Y020556D01*
X012449Y020595D01*
X012431Y020635D01*
X012418Y020677D01*
X012408Y020720D01*
X012402Y020764D01*
X012400Y020808D01*
X033280Y020913D02*
X033282Y020957D01*
X033288Y021001D01*
X033298Y021044D01*
X033311Y021086D01*
X033329Y021126D01*
X033350Y021165D01*
X033374Y021202D01*
X033401Y021237D01*
X033432Y021269D01*
X033465Y021298D01*
X033501Y021324D01*
X033539Y021346D01*
X033579Y021365D01*
X033620Y021381D01*
X033663Y021393D01*
X033706Y021401D01*
X033750Y021405D01*
X033794Y021405D01*
X033838Y021401D01*
X033881Y021393D01*
X033924Y021381D01*
X033965Y021365D01*
X034005Y021346D01*
X034043Y021324D01*
X034079Y021298D01*
X034112Y021269D01*
X034143Y021237D01*
X034170Y021202D01*
X034194Y021165D01*
X034215Y021126D01*
X034233Y021086D01*
X034246Y021044D01*
X034256Y021001D01*
X034262Y020957D01*
X034264Y020913D01*
X034262Y020869D01*
X034256Y020825D01*
X034246Y020782D01*
X034233Y020740D01*
X034215Y020700D01*
X034194Y020661D01*
X034170Y020624D01*
X034143Y020589D01*
X034112Y020557D01*
X034079Y020528D01*
X034043Y020502D01*
X034005Y020480D01*
X033965Y020461D01*
X033924Y020445D01*
X033881Y020433D01*
X033838Y020425D01*
X033794Y020421D01*
X033750Y020421D01*
X033706Y020425D01*
X033663Y020433D01*
X033620Y020445D01*
X033579Y020461D01*
X033539Y020480D01*
X033501Y020502D01*
X033465Y020528D01*
X033432Y020557D01*
X033401Y020589D01*
X033374Y020624D01*
X033350Y020661D01*
X033329Y020700D01*
X033311Y020740D01*
X033298Y020782D01*
X033288Y020825D01*
X033282Y020869D01*
X033280Y020913D01*
D11*
X033772Y020913D03*
X012892Y020808D03*
X024342Y002278D03*
X003473Y002181D03*
D12*
X020498Y008510D03*
X016746Y014581D03*
D13*
G36*
X018824Y012820D02*
X019361Y013089D01*
X019440Y012930D01*
X018903Y012661D01*
X018824Y012820D01*
G37*
G36*
X018939Y012591D02*
X019476Y012860D01*
X019555Y012701D01*
X019018Y012432D01*
X018939Y012591D01*
G37*
G36*
X019053Y012363D02*
X019590Y012632D01*
X019669Y012473D01*
X019132Y012204D01*
X019053Y012363D01*
G37*
G36*
X019168Y012134D02*
X019705Y012403D01*
X019784Y012244D01*
X019247Y011975D01*
X019168Y012134D01*
G37*
G36*
X019282Y011905D02*
X019819Y012174D01*
X019898Y012015D01*
X019361Y011746D01*
X019282Y011905D01*
G37*
G36*
X019397Y011676D02*
X019934Y011945D01*
X020013Y011786D01*
X019476Y011517D01*
X019397Y011676D01*
G37*
G36*
X019511Y011447D02*
X020048Y011716D01*
X020127Y011557D01*
X019590Y011288D01*
X019511Y011447D01*
G37*
G36*
X019626Y011218D02*
X020163Y011487D01*
X020242Y011328D01*
X019705Y011059D01*
X019626Y011218D01*
G37*
G36*
X017725Y010266D02*
X018262Y010535D01*
X018341Y010376D01*
X017804Y010107D01*
X017725Y010266D01*
G37*
G36*
X017611Y010495D02*
X018148Y010764D01*
X018227Y010605D01*
X017690Y010336D01*
X017611Y010495D01*
G37*
G36*
X017496Y010724D02*
X018033Y010993D01*
X018112Y010834D01*
X017575Y010565D01*
X017496Y010724D01*
G37*
G36*
X017381Y010953D02*
X017918Y011222D01*
X017997Y011063D01*
X017460Y010794D01*
X017381Y010953D01*
G37*
G36*
X017267Y011182D02*
X017804Y011451D01*
X017883Y011292D01*
X017346Y011023D01*
X017267Y011182D01*
G37*
G36*
X017152Y011411D02*
X017689Y011680D01*
X017768Y011521D01*
X017231Y011252D01*
X017152Y011411D01*
G37*
G36*
X017038Y011639D02*
X017575Y011908D01*
X017654Y011749D01*
X017117Y011480D01*
X017038Y011639D01*
G37*
G36*
X016923Y011868D02*
X017460Y012137D01*
X017539Y011978D01*
X017002Y011709D01*
X016923Y011868D01*
G37*
D14*
G36*
X019651Y010056D02*
X019181Y009768D01*
X018831Y010338D01*
X019301Y010626D01*
X019651Y010056D01*
G37*
G36*
X020289Y010447D02*
X019819Y010159D01*
X019469Y010729D01*
X019939Y011017D01*
X020289Y010447D01*
G37*
D15*
G36*
X023058Y012769D02*
X023202Y012534D01*
X022430Y012061D01*
X022286Y012296D01*
X023058Y012769D01*
G37*
G36*
X022796Y013195D02*
X022940Y012960D01*
X022168Y012487D01*
X022024Y012722D01*
X022796Y013195D01*
G37*
G36*
X022535Y013621D02*
X022679Y013386D01*
X021907Y012913D01*
X021763Y013148D01*
X022535Y013621D01*
G37*
G36*
X022274Y014048D02*
X022418Y013813D01*
X021646Y013340D01*
X021502Y013575D01*
X022274Y014048D01*
G37*
G36*
X022013Y014474D02*
X022157Y014239D01*
X021385Y013766D01*
X021241Y014001D01*
X022013Y014474D01*
G37*
G36*
X021751Y014900D02*
X021895Y014665D01*
X021123Y014192D01*
X020979Y014427D01*
X021751Y014900D01*
G37*
G36*
X021490Y015326D02*
X021634Y015091D01*
X020862Y014618D01*
X020718Y014853D01*
X021490Y015326D01*
G37*
G36*
X021229Y015753D02*
X021373Y015518D01*
X020601Y015045D01*
X020457Y015280D01*
X021229Y015753D01*
G37*
G36*
X022975Y016822D02*
X023119Y016587D01*
X022347Y016114D01*
X022203Y016349D01*
X022975Y016822D01*
G37*
G36*
X023236Y016396D02*
X023380Y016161D01*
X022608Y015688D01*
X022464Y015923D01*
X023236Y016396D01*
G37*
G36*
X023497Y015970D02*
X023641Y015735D01*
X022869Y015262D01*
X022725Y015497D01*
X023497Y015970D01*
G37*
G36*
X023758Y015544D02*
X023902Y015309D01*
X023130Y014836D01*
X022986Y015071D01*
X023758Y015544D01*
G37*
G36*
X024020Y015117D02*
X024164Y014882D01*
X023392Y014409D01*
X023248Y014644D01*
X024020Y015117D01*
G37*
G36*
X024281Y014691D02*
X024425Y014456D01*
X023653Y013983D01*
X023509Y014218D01*
X024281Y014691D01*
G37*
G36*
X024542Y014265D02*
X024686Y014030D01*
X023914Y013557D01*
X023770Y013792D01*
X024542Y014265D01*
G37*
G36*
X024803Y013838D02*
X024947Y013603D01*
X024175Y013130D01*
X024031Y013365D01*
X024803Y013838D01*
G37*
D16*
G36*
X031182Y016420D02*
X030338Y017795D01*
X031210Y018330D01*
X032054Y016955D01*
X031182Y016420D01*
G37*
G36*
X029536Y019106D02*
X028692Y020481D01*
X029564Y021016D01*
X030408Y019641D01*
X029536Y019106D01*
G37*
D17*
X013881Y005181D03*
X013881Y002031D03*
D18*
G36*
X015654Y008686D02*
X015872Y008820D01*
X016138Y008384D01*
X015920Y008250D01*
X015654Y008686D01*
G37*
G36*
X016291Y009077D02*
X016509Y009211D01*
X016775Y008775D01*
X016557Y008641D01*
X016291Y009077D01*
G37*
G36*
X015438Y009754D02*
X015656Y009888D01*
X015922Y009452D01*
X015704Y009318D01*
X015438Y009754D01*
G37*
G36*
X015119Y009559D02*
X015337Y009693D01*
X015603Y009257D01*
X015385Y009123D01*
X015119Y009559D01*
G37*
G36*
X015757Y009950D02*
X015975Y010084D01*
X016241Y009648D01*
X016023Y009514D01*
X015757Y009950D01*
G37*
D19*
X018247Y019497D03*
X018838Y019497D03*
X019428Y019497D03*
X020019Y019497D03*
X020590Y019497D03*
X021180Y019497D03*
X021771Y019497D03*
X022361Y019497D03*
D20*
X008474Y004245D03*
D21*
X011754Y004245D03*
X011754Y004915D03*
X011754Y005585D03*
X011754Y003575D03*
X011754Y002905D03*
D22*
X013170Y007818D03*
X010257Y007818D03*
D23*
X009157Y009131D03*
X009514Y009833D03*
X008813Y010190D03*
X008455Y009489D03*
X009872Y010534D03*
X009170Y010892D03*
X010229Y011236D03*
X009528Y011593D03*
X009885Y012295D03*
X010243Y012997D03*
X010944Y012639D03*
X010587Y011938D03*
X026520Y011023D03*
X026878Y011725D03*
X027235Y012426D03*
X027937Y012069D03*
X028294Y012770D03*
X027593Y013128D03*
X027950Y013829D03*
X028652Y013472D03*
X029009Y014174D03*
X028308Y014531D03*
X027579Y011367D03*
X027222Y010666D03*
D24*
X026558Y008887D03*
X026104Y007996D03*
X025650Y007105D03*
X025196Y006214D03*
X024742Y005323D03*
D25*
X023722Y017713D03*
X023722Y019563D03*
D26*
G36*
X023954Y012091D02*
X023485Y011803D01*
X023156Y012339D01*
X023625Y012627D01*
X023954Y012091D01*
G37*
G36*
X023317Y011700D02*
X022848Y011412D01*
X022519Y011948D01*
X022988Y012236D01*
X023317Y011700D01*
G37*
G36*
X019280Y009406D02*
X018811Y009118D01*
X018482Y009654D01*
X018951Y009942D01*
X019280Y009406D01*
G37*
G36*
X018642Y009015D02*
X018173Y008727D01*
X017844Y009263D01*
X018313Y009551D01*
X018642Y009015D01*
G37*
D27*
G36*
X022330Y008224D02*
X023089Y007844D01*
X022964Y007594D01*
X022205Y007974D01*
X022330Y008224D01*
G37*
G36*
X022554Y008671D02*
X023313Y008291D01*
X023188Y008041D01*
X022429Y008421D01*
X022554Y008671D01*
G37*
G36*
X022778Y009118D02*
X023537Y008738D01*
X023412Y008488D01*
X022653Y008868D01*
X022778Y009118D01*
G37*
G36*
X023002Y009565D02*
X023761Y009185D01*
X023636Y008935D01*
X022877Y009315D01*
X023002Y009565D01*
G37*
G36*
X023226Y010013D02*
X023985Y009633D01*
X023860Y009383D01*
X023101Y009763D01*
X023226Y010013D01*
G37*
G36*
X023450Y010460D02*
X024209Y010080D01*
X024084Y009830D01*
X023325Y010210D01*
X023450Y010460D01*
G37*
G36*
X023674Y010907D02*
X024433Y010527D01*
X024308Y010277D01*
X023549Y010657D01*
X023674Y010907D01*
G37*
G36*
X023898Y011354D02*
X024657Y010974D01*
X024532Y010724D01*
X023773Y011104D01*
X023898Y011354D01*
G37*
G36*
X025587Y010508D02*
X026346Y010128D01*
X026221Y009878D01*
X025462Y010258D01*
X025587Y010508D01*
G37*
G36*
X025364Y010060D02*
X026123Y009680D01*
X025998Y009430D01*
X025239Y009810D01*
X025364Y010060D01*
G37*
G36*
X025140Y009613D02*
X025899Y009233D01*
X025774Y008983D01*
X025015Y009363D01*
X025140Y009613D01*
G37*
G36*
X024916Y009166D02*
X025675Y008786D01*
X025550Y008536D01*
X024791Y008916D01*
X024916Y009166D01*
G37*
G36*
X024692Y008719D02*
X025451Y008339D01*
X025326Y008089D01*
X024567Y008469D01*
X024692Y008719D01*
G37*
G36*
X024468Y008272D02*
X025227Y007892D01*
X025102Y007642D01*
X024343Y008022D01*
X024468Y008272D01*
G37*
G36*
X024244Y007825D02*
X025003Y007445D01*
X024878Y007195D01*
X024119Y007575D01*
X024244Y007825D01*
G37*
G36*
X024020Y007378D02*
X024779Y006998D01*
X024654Y006748D01*
X023895Y007128D01*
X024020Y007378D01*
G37*
M02*
