%
M48
M72
T01C0.0236
T02C0.0276
T03C0.0315
T04C0.0354
T05C0.0394
T06C0.0400
T07C0.0472
T08C0.0512
T09C0.0551
T10C0.0630
T11C0.0984
%
T01
X25305Y17200
X22285Y17293
X17621Y9282
X16578Y10648
X20746Y9672
X14958Y10893
X24407Y11523
X13580Y6601
X20077Y7113
X25903Y8491
X21394Y11233
X18444Y9957
X12190Y4871
X23108Y6483
X19712Y14044
X19770Y14979
X15556Y12354
X22596Y20578
X24801Y13096
X18206Y15066
X20431Y11641
X21612Y16404
X24053Y16070
X22006Y10814
X22360Y15184
X26179Y19613
X22754Y10971
X22084Y15696
X18817Y15046
X25293Y14495
X23256Y13422
X10913Y10922
X25431Y12034
X25817Y13711
X21356Y20538
X23423Y10971
X23344Y12822
X20923Y11916
X20844Y12841
X23019Y14269
X21947Y12064
X21782Y12588
X22760Y14730
X20943Y13353
X17017Y9111
X17011Y10234
X16238Y7979
X15077Y9928
X17616Y13156
X20057Y12979
T02
X18247Y19596
X18838Y19596
X19428Y19596
X20019Y19596
X20590Y19596
X21180Y19596
X21771Y19596
X22361Y19596
T03
X20195Y15558
X17084Y17940
X17478Y16877
X22714Y18334
T04
X28642Y15023
X29344Y14666
X28285Y14322
X28986Y13964
X27927Y13620
X28629Y13262
X27570Y12918
X28272Y12561
X27212Y12217
X27914Y11859
X26855Y11515
X27557Y11158
X10459Y13499
X11161Y13141
X10102Y12797
X10803Y12439
X9744Y12095
X10446Y11738
X9387Y11394
X10088Y11036
X9029Y10692
X9731Y10335
X8672Y9991
X9373Y9633
T05
X28220Y16469
X7513Y7826
X33069Y19574
X26966Y21306
T06
X24703Y4476
X25157Y5367
X25611Y6258
X26065Y7149
X26519Y8040
T07
X18432Y4040
T08
X13423Y15971
X22832Y3885
X3935Y3609
X4683Y2901
X28108Y18019
T09
X4407Y4515
T10
X18604Y11556
X32045Y21168
X10549Y1916
X15048Y3791
T11
X3535Y2228
X33774Y20898
X12904Y20766
X24356Y2345
M30
