G75*
%MOIN*%
%OFA0B0*%
%FSLAX24Y24*%
%IPPOS*%
%LPD*%
%AMOC8*
5,1,8,0,0,1.08239X$1,22.5*
%
%ADD10C,0.0000*%
%ADD11C,0.0030*%
%ADD12C,0.0039*%
%ADD13C,0.0100*%
D10*
X001464Y000942D02*
X003925Y005873D01*
X004112Y005912D01*
X004642Y005647D01*
X006093Y008539D01*
X005142Y009018D01*
X008482Y015706D01*
X009141Y016296D01*
X012065Y022152D01*
X018610Y022152D01*
X019397Y022467D01*
X026907Y022467D01*
X026907Y021414D01*
X030047Y021414D01*
X030047Y022074D01*
X030145Y022152D01*
X035785Y022152D01*
X033275Y017133D01*
X033147Y017113D01*
X032557Y017408D01*
X031120Y014554D01*
X032097Y014066D01*
X028748Y007379D01*
X028236Y007064D01*
X025175Y000942D01*
X001464Y000942D01*
X002981Y002181D02*
X002983Y002225D01*
X002989Y002269D01*
X002999Y002312D01*
X003012Y002354D01*
X003030Y002394D01*
X003051Y002433D01*
X003075Y002470D01*
X003102Y002505D01*
X003133Y002537D01*
X003166Y002566D01*
X003202Y002592D01*
X003240Y002614D01*
X003280Y002633D01*
X003321Y002649D01*
X003364Y002661D01*
X003407Y002669D01*
X003451Y002673D01*
X003495Y002673D01*
X003539Y002669D01*
X003582Y002661D01*
X003625Y002649D01*
X003666Y002633D01*
X003706Y002614D01*
X003744Y002592D01*
X003780Y002566D01*
X003813Y002537D01*
X003844Y002505D01*
X003871Y002470D01*
X003895Y002433D01*
X003916Y002394D01*
X003934Y002354D01*
X003947Y002312D01*
X003957Y002269D01*
X003963Y002225D01*
X003965Y002181D01*
X003963Y002137D01*
X003957Y002093D01*
X003947Y002050D01*
X003934Y002008D01*
X003916Y001968D01*
X003895Y001929D01*
X003871Y001892D01*
X003844Y001857D01*
X003813Y001825D01*
X003780Y001796D01*
X003744Y001770D01*
X003706Y001748D01*
X003666Y001729D01*
X003625Y001713D01*
X003582Y001701D01*
X003539Y001693D01*
X003495Y001689D01*
X003451Y001689D01*
X003407Y001693D01*
X003364Y001701D01*
X003321Y001713D01*
X003280Y001729D01*
X003240Y001748D01*
X003202Y001770D01*
X003166Y001796D01*
X003133Y001825D01*
X003102Y001857D01*
X003075Y001892D01*
X003051Y001929D01*
X003030Y001968D01*
X003012Y002008D01*
X002999Y002050D01*
X002989Y002093D01*
X002983Y002137D01*
X002981Y002181D01*
X016313Y014581D02*
X016315Y014622D01*
X016321Y014663D01*
X016331Y014703D01*
X016344Y014742D01*
X016361Y014779D01*
X016382Y014815D01*
X016406Y014849D01*
X016433Y014880D01*
X016462Y014908D01*
X016495Y014934D01*
X016529Y014956D01*
X016566Y014975D01*
X016604Y014990D01*
X016644Y015002D01*
X016684Y015010D01*
X016725Y015014D01*
X016767Y015014D01*
X016808Y015010D01*
X016848Y015002D01*
X016888Y014990D01*
X016926Y014975D01*
X016962Y014956D01*
X016997Y014934D01*
X017030Y014908D01*
X017059Y014880D01*
X017086Y014849D01*
X017110Y014815D01*
X017131Y014779D01*
X017148Y014742D01*
X017161Y014703D01*
X017171Y014663D01*
X017177Y014622D01*
X017179Y014581D01*
X017177Y014540D01*
X017171Y014499D01*
X017161Y014459D01*
X017148Y014420D01*
X017131Y014383D01*
X017110Y014347D01*
X017086Y014313D01*
X017059Y014282D01*
X017030Y014254D01*
X016997Y014228D01*
X016963Y014206D01*
X016926Y014187D01*
X016888Y014172D01*
X016848Y014160D01*
X016808Y014152D01*
X016767Y014148D01*
X016725Y014148D01*
X016684Y014152D01*
X016644Y014160D01*
X016604Y014172D01*
X016566Y014187D01*
X016530Y014206D01*
X016495Y014228D01*
X016462Y014254D01*
X016433Y014282D01*
X016406Y014313D01*
X016382Y014347D01*
X016361Y014383D01*
X016344Y014420D01*
X016331Y014459D01*
X016321Y014499D01*
X016315Y014540D01*
X016313Y014581D01*
X020065Y008510D02*
X020067Y008551D01*
X020073Y008592D01*
X020083Y008632D01*
X020096Y008671D01*
X020113Y008708D01*
X020134Y008744D01*
X020158Y008778D01*
X020185Y008809D01*
X020214Y008837D01*
X020247Y008863D01*
X020281Y008885D01*
X020318Y008904D01*
X020356Y008919D01*
X020396Y008931D01*
X020436Y008939D01*
X020477Y008943D01*
X020519Y008943D01*
X020560Y008939D01*
X020600Y008931D01*
X020640Y008919D01*
X020678Y008904D01*
X020714Y008885D01*
X020749Y008863D01*
X020782Y008837D01*
X020811Y008809D01*
X020838Y008778D01*
X020862Y008744D01*
X020883Y008708D01*
X020900Y008671D01*
X020913Y008632D01*
X020923Y008592D01*
X020929Y008551D01*
X020931Y008510D01*
X020929Y008469D01*
X020923Y008428D01*
X020913Y008388D01*
X020900Y008349D01*
X020883Y008312D01*
X020862Y008276D01*
X020838Y008242D01*
X020811Y008211D01*
X020782Y008183D01*
X020749Y008157D01*
X020715Y008135D01*
X020678Y008116D01*
X020640Y008101D01*
X020600Y008089D01*
X020560Y008081D01*
X020519Y008077D01*
X020477Y008077D01*
X020436Y008081D01*
X020396Y008089D01*
X020356Y008101D01*
X020318Y008116D01*
X020282Y008135D01*
X020247Y008157D01*
X020214Y008183D01*
X020185Y008211D01*
X020158Y008242D01*
X020134Y008276D01*
X020113Y008312D01*
X020096Y008349D01*
X020083Y008388D01*
X020073Y008428D01*
X020067Y008469D01*
X020065Y008510D01*
X023850Y002278D02*
X023852Y002322D01*
X023858Y002366D01*
X023868Y002409D01*
X023881Y002451D01*
X023899Y002491D01*
X023920Y002530D01*
X023944Y002567D01*
X023971Y002602D01*
X024002Y002634D01*
X024035Y002663D01*
X024071Y002689D01*
X024109Y002711D01*
X024149Y002730D01*
X024190Y002746D01*
X024233Y002758D01*
X024276Y002766D01*
X024320Y002770D01*
X024364Y002770D01*
X024408Y002766D01*
X024451Y002758D01*
X024494Y002746D01*
X024535Y002730D01*
X024575Y002711D01*
X024613Y002689D01*
X024649Y002663D01*
X024682Y002634D01*
X024713Y002602D01*
X024740Y002567D01*
X024764Y002530D01*
X024785Y002491D01*
X024803Y002451D01*
X024816Y002409D01*
X024826Y002366D01*
X024832Y002322D01*
X024834Y002278D01*
X024832Y002234D01*
X024826Y002190D01*
X024816Y002147D01*
X024803Y002105D01*
X024785Y002065D01*
X024764Y002026D01*
X024740Y001989D01*
X024713Y001954D01*
X024682Y001922D01*
X024649Y001893D01*
X024613Y001867D01*
X024575Y001845D01*
X024535Y001826D01*
X024494Y001810D01*
X024451Y001798D01*
X024408Y001790D01*
X024364Y001786D01*
X024320Y001786D01*
X024276Y001790D01*
X024233Y001798D01*
X024190Y001810D01*
X024149Y001826D01*
X024109Y001845D01*
X024071Y001867D01*
X024035Y001893D01*
X024002Y001922D01*
X023971Y001954D01*
X023944Y001989D01*
X023920Y002026D01*
X023899Y002065D01*
X023881Y002105D01*
X023868Y002147D01*
X023858Y002190D01*
X023852Y002234D01*
X023850Y002278D01*
X012400Y020808D02*
X012402Y020852D01*
X012408Y020896D01*
X012418Y020939D01*
X012431Y020981D01*
X012449Y021021D01*
X012470Y021060D01*
X012494Y021097D01*
X012521Y021132D01*
X012552Y021164D01*
X012585Y021193D01*
X012621Y021219D01*
X012659Y021241D01*
X012699Y021260D01*
X012740Y021276D01*
X012783Y021288D01*
X012826Y021296D01*
X012870Y021300D01*
X012914Y021300D01*
X012958Y021296D01*
X013001Y021288D01*
X013044Y021276D01*
X013085Y021260D01*
X013125Y021241D01*
X013163Y021219D01*
X013199Y021193D01*
X013232Y021164D01*
X013263Y021132D01*
X013290Y021097D01*
X013314Y021060D01*
X013335Y021021D01*
X013353Y020981D01*
X013366Y020939D01*
X013376Y020896D01*
X013382Y020852D01*
X013384Y020808D01*
X013382Y020764D01*
X013376Y020720D01*
X013366Y020677D01*
X013353Y020635D01*
X013335Y020595D01*
X013314Y020556D01*
X013290Y020519D01*
X013263Y020484D01*
X013232Y020452D01*
X013199Y020423D01*
X013163Y020397D01*
X013125Y020375D01*
X013085Y020356D01*
X013044Y020340D01*
X013001Y020328D01*
X012958Y020320D01*
X012914Y020316D01*
X012870Y020316D01*
X012826Y020320D01*
X012783Y020328D01*
X012740Y020340D01*
X012699Y020356D01*
X012659Y020375D01*
X012621Y020397D01*
X012585Y020423D01*
X012552Y020452D01*
X012521Y020484D01*
X012494Y020519D01*
X012470Y020556D01*
X012449Y020595D01*
X012431Y020635D01*
X012418Y020677D01*
X012408Y020720D01*
X012402Y020764D01*
X012400Y020808D01*
X033280Y020913D02*
X033282Y020957D01*
X033288Y021001D01*
X033298Y021044D01*
X033311Y021086D01*
X033329Y021126D01*
X033350Y021165D01*
X033374Y021202D01*
X033401Y021237D01*
X033432Y021269D01*
X033465Y021298D01*
X033501Y021324D01*
X033539Y021346D01*
X033579Y021365D01*
X033620Y021381D01*
X033663Y021393D01*
X033706Y021401D01*
X033750Y021405D01*
X033794Y021405D01*
X033838Y021401D01*
X033881Y021393D01*
X033924Y021381D01*
X033965Y021365D01*
X034005Y021346D01*
X034043Y021324D01*
X034079Y021298D01*
X034112Y021269D01*
X034143Y021237D01*
X034170Y021202D01*
X034194Y021165D01*
X034215Y021126D01*
X034233Y021086D01*
X034246Y021044D01*
X034256Y021001D01*
X034262Y020957D01*
X034264Y020913D01*
X034262Y020869D01*
X034256Y020825D01*
X034246Y020782D01*
X034233Y020740D01*
X034215Y020700D01*
X034194Y020661D01*
X034170Y020624D01*
X034143Y020589D01*
X034112Y020557D01*
X034079Y020528D01*
X034043Y020502D01*
X034005Y020480D01*
X033965Y020461D01*
X033924Y020445D01*
X033881Y020433D01*
X033838Y020425D01*
X033794Y020421D01*
X033750Y020421D01*
X033706Y020425D01*
X033663Y020433D01*
X033620Y020445D01*
X033579Y020461D01*
X033539Y020480D01*
X033501Y020502D01*
X033465Y020528D01*
X033432Y020557D01*
X033401Y020589D01*
X033374Y020624D01*
X033350Y020661D01*
X033329Y020700D01*
X033311Y020740D01*
X033298Y020782D01*
X033288Y020825D01*
X033282Y020869D01*
X033280Y020913D01*
D11*
X031825Y018199D02*
X031891Y018004D01*
X031718Y018090D01*
X031605Y018092D02*
X031476Y018048D01*
X031432Y018178D01*
X031518Y018351D01*
X031691Y018265D02*
X031605Y018092D01*
X031696Y017939D02*
X031825Y018199D01*
X032024Y018046D02*
X032089Y018068D01*
X032176Y018025D01*
X032198Y017960D01*
X032245Y017828D02*
X032419Y017742D01*
X032289Y017699D02*
X032375Y017872D01*
X032090Y017743D02*
X032003Y018003D01*
X032024Y018046D01*
X031917Y017829D02*
X032090Y017743D01*
X026700Y018704D02*
X026506Y018704D01*
X026603Y018800D02*
X026603Y018607D01*
X026700Y018901D02*
X026748Y018950D01*
X026748Y019047D01*
X026700Y019095D01*
X026651Y019095D01*
X026458Y018901D01*
X026458Y019095D01*
X026603Y019196D02*
X026603Y019390D01*
X026555Y019491D02*
X026748Y019491D01*
X026748Y019341D02*
X026603Y019196D01*
X026458Y019341D02*
X026748Y019341D01*
X026555Y019491D02*
X026458Y019588D01*
X026555Y019684D01*
X026748Y019684D01*
X017558Y021373D02*
X017461Y021373D01*
X017509Y021373D02*
X017509Y021663D01*
X017461Y021663D02*
X017558Y021663D01*
X017361Y021663D02*
X017168Y021373D01*
X017168Y021663D01*
X017067Y021663D02*
X016921Y021663D01*
X016873Y021614D01*
X016873Y021518D01*
X016921Y021469D01*
X017067Y021469D01*
X017067Y021373D02*
X017067Y021663D01*
X017361Y021663D02*
X017361Y021373D01*
X016772Y021421D02*
X016772Y021663D01*
X016578Y021663D02*
X016578Y021421D01*
X016627Y021373D01*
X016724Y021373D01*
X016772Y021421D01*
X016477Y021663D02*
X016284Y021663D01*
X016381Y021663D02*
X016381Y021373D01*
X010771Y018440D02*
X010792Y018375D01*
X010749Y018288D01*
X010685Y018267D01*
X010511Y018353D01*
X010489Y018418D01*
X010532Y018504D01*
X010597Y018526D01*
X010771Y018440D01*
X010640Y018176D02*
X010423Y018284D01*
X010337Y018110D02*
X010554Y018003D01*
X010618Y018025D01*
X010661Y018111D01*
X010640Y018176D01*
X010292Y018020D02*
X010206Y017846D01*
X010249Y017933D02*
X010509Y017804D01*
X010421Y017627D02*
X010161Y017756D01*
X010096Y017626D01*
X010118Y017561D01*
X010205Y017518D01*
X010270Y017540D01*
X010334Y017670D01*
X010247Y017384D02*
X010030Y017492D01*
X009944Y017319D02*
X010161Y017211D01*
X010225Y017233D01*
X010268Y017319D01*
X010247Y017384D01*
X009899Y017228D02*
X009813Y017055D01*
X009856Y017141D02*
X010116Y017012D01*
X009898Y016899D02*
X009812Y016726D01*
X009897Y016571D02*
X009811Y016398D01*
X009897Y016571D02*
X009637Y016700D01*
X014239Y012784D02*
X014330Y012817D01*
X014285Y012800D02*
X014384Y012528D01*
X014430Y012544D02*
X014339Y012511D01*
X014228Y012523D02*
X014200Y012461D01*
X014109Y012427D01*
X014047Y012456D01*
X014030Y012502D01*
X014059Y012564D01*
X014150Y012597D01*
X014179Y012659D01*
X014162Y012704D01*
X014100Y012733D01*
X014009Y012700D01*
X013980Y012638D01*
X013869Y012649D02*
X013968Y012376D01*
X013935Y012467D02*
X013687Y012583D01*
X013609Y012503D02*
X013675Y012321D01*
X013646Y012259D01*
X013555Y012226D01*
X013493Y012255D01*
X013427Y012437D01*
X013456Y012499D01*
X013547Y012532D01*
X013609Y012503D01*
X013786Y012310D02*
X013873Y012496D01*
X014081Y012216D02*
X014218Y012265D01*
X014317Y011992D01*
X014180Y011943D01*
X014118Y011972D01*
X014052Y012154D01*
X014081Y012216D01*
X013941Y012164D02*
X013804Y012115D01*
X013775Y012053D01*
X013809Y011962D01*
X013871Y011933D01*
X014007Y011983D01*
X013916Y011949D02*
X013858Y011825D01*
X013747Y011836D02*
X013718Y011774D01*
X013627Y011741D01*
X013565Y011770D01*
X013499Y011952D01*
X013527Y012014D01*
X013618Y012047D01*
X013680Y012018D01*
X013747Y011836D01*
X014040Y011892D02*
X013941Y012164D01*
X014313Y012300D02*
X014494Y012366D01*
X014594Y012093D01*
X014412Y012027D01*
X014453Y012196D02*
X014544Y012230D01*
X014639Y012264D02*
X014821Y012330D01*
X014871Y012194D02*
X014771Y012467D01*
X014706Y012645D02*
X014570Y012595D01*
X014508Y012624D01*
X014442Y012806D01*
X014471Y012868D01*
X014607Y012918D01*
X014706Y012645D01*
X014590Y012401D02*
X014689Y012128D01*
X013486Y011690D02*
X013387Y011963D01*
X013304Y011624D01*
X013205Y011897D01*
X011447Y009325D02*
X011463Y009280D01*
X011434Y009218D01*
X011343Y009185D01*
X011314Y009123D01*
X011331Y009077D01*
X011393Y009048D01*
X011484Y009081D01*
X011513Y009143D01*
X011447Y009325D02*
X011385Y009354D01*
X011294Y009321D01*
X011265Y009259D01*
X011186Y009179D02*
X011062Y009237D01*
X011004Y009113D01*
X011071Y008931D01*
X010942Y008987D02*
X010885Y008863D01*
X010761Y008921D01*
X010694Y009103D01*
X010599Y009068D02*
X010508Y009035D01*
X010554Y009052D02*
X010653Y008779D01*
X010608Y008763D02*
X010699Y008796D01*
X010764Y008617D02*
X010706Y008493D01*
X010582Y008551D01*
X010681Y008278D01*
X010586Y008244D02*
X010404Y008178D01*
X010309Y008143D02*
X010210Y008416D01*
X010073Y008366D01*
X010044Y008304D01*
X010078Y008213D01*
X010140Y008184D01*
X010276Y008234D01*
X010185Y008201D02*
X010127Y008077D01*
X010236Y007915D02*
X010298Y007886D01*
X010364Y007704D01*
X010335Y007642D01*
X010245Y007609D01*
X010183Y007638D01*
X010116Y007820D02*
X010145Y007882D01*
X010236Y007915D01*
X010375Y007965D02*
X010466Y007998D01*
X010421Y007982D02*
X010520Y007709D01*
X010475Y007693D02*
X010565Y007726D01*
X010644Y007806D02*
X010706Y007777D01*
X010797Y007810D01*
X010826Y007872D01*
X010760Y008054D01*
X010698Y008083D01*
X010607Y008049D01*
X010578Y007987D01*
X010586Y008244D02*
X010487Y008517D01*
X010305Y008450D01*
X010445Y008347D02*
X010536Y008380D01*
X010863Y008345D02*
X010764Y008617D01*
X010859Y008652D02*
X010958Y008379D01*
X011023Y008201D02*
X011089Y008019D01*
X011213Y007961D01*
X011271Y008085D01*
X011205Y008267D01*
X011333Y008211D02*
X011399Y008029D01*
X011349Y008165D02*
X011531Y008231D01*
X011515Y008277D02*
X011391Y008335D01*
X011333Y008211D01*
X011515Y008277D02*
X011581Y008095D01*
X011659Y008175D02*
X011721Y008146D01*
X011812Y008179D01*
X011841Y008241D01*
X011763Y008316D02*
X011672Y008283D01*
X011643Y008221D01*
X011659Y008175D01*
X011763Y008316D02*
X011791Y008378D01*
X011775Y008423D01*
X011713Y008452D01*
X011622Y008419D01*
X011593Y008357D01*
X011512Y008581D02*
X011693Y008647D01*
X011594Y008920D01*
X011350Y008728D02*
X011226Y008786D01*
X011169Y008662D01*
X011235Y008480D01*
X011140Y008445D02*
X011040Y008718D01*
X010983Y008594D01*
X010859Y008652D01*
X011185Y008616D02*
X011367Y008683D01*
X011350Y008728D02*
X011417Y008546D01*
X011252Y008997D02*
X011186Y009179D01*
X011203Y009134D02*
X011021Y009067D01*
X010942Y008987D02*
X010876Y009169D01*
X010431Y008956D02*
X010497Y008774D01*
X010469Y008712D01*
X010378Y008679D01*
X010316Y008708D01*
X010249Y008890D02*
X010278Y008952D01*
X010369Y008985D01*
X010431Y008956D01*
X010837Y008133D02*
X010928Y008166D01*
X010882Y008150D02*
X010981Y007877D01*
X010936Y007860D02*
X011027Y007894D01*
X005687Y004888D02*
X005513Y004974D01*
X005557Y004845D02*
X005643Y005018D01*
X005466Y005106D02*
X005444Y005171D01*
X005357Y005214D01*
X005292Y005192D01*
X005271Y005149D01*
X005358Y004889D01*
X005185Y004975D01*
X005159Y005150D02*
X004985Y005236D01*
X004873Y005238D02*
X004744Y005194D01*
X004700Y005324D01*
X004786Y005497D01*
X004959Y005411D02*
X004873Y005238D01*
X004964Y005085D02*
X005093Y005345D01*
X005159Y005150D01*
X021070Y001428D02*
X021263Y001428D01*
X021118Y001573D01*
X021118Y001283D01*
X021364Y001283D02*
X021558Y001283D01*
X021461Y001283D02*
X021461Y001573D01*
X021558Y001477D01*
X021659Y001525D02*
X021853Y001331D01*
X021804Y001283D01*
X021707Y001283D01*
X021659Y001331D01*
X021659Y001525D01*
X021707Y001573D01*
X021804Y001573D01*
X021853Y001525D01*
X021853Y001331D01*
X021954Y001283D02*
X022147Y001283D01*
X021954Y001477D01*
X021954Y001525D01*
X022002Y001573D01*
X022099Y001573D01*
X022147Y001525D01*
X022248Y001573D02*
X022442Y001283D01*
X022543Y001331D02*
X022591Y001283D01*
X022688Y001283D01*
X022736Y001331D01*
X022736Y001428D02*
X022640Y001477D01*
X022591Y001477D01*
X022543Y001428D01*
X022543Y001331D01*
X022736Y001428D02*
X022736Y001573D01*
X022543Y001573D01*
X022646Y001759D02*
X022742Y001759D01*
X022791Y001808D01*
X022791Y001904D01*
X022742Y001953D01*
X022646Y001953D01*
X022597Y001904D01*
X022597Y001856D01*
X022791Y001856D01*
X022891Y001953D02*
X022940Y001953D01*
X023036Y001856D01*
X023036Y001759D02*
X023036Y001953D01*
X022983Y001573D02*
X022886Y001573D01*
X022838Y001525D01*
X023031Y001331D01*
X022983Y001283D01*
X022886Y001283D01*
X022838Y001331D01*
X022838Y001525D01*
X022983Y001573D02*
X023031Y001525D01*
X023031Y001331D01*
X022399Y001759D02*
X022303Y001953D01*
X022201Y001808D02*
X022153Y001808D01*
X022153Y001759D01*
X022201Y001759D01*
X022201Y001808D01*
X022054Y001759D02*
X022054Y001953D01*
X021957Y002050D01*
X021861Y001953D01*
X021861Y001759D01*
X021861Y001904D02*
X022054Y001904D01*
X022399Y001759D02*
X022496Y001953D01*
X027040Y005558D02*
X026997Y005688D01*
X026975Y005645D02*
X027040Y005775D01*
X027126Y005732D02*
X026866Y005861D01*
X026802Y005731D01*
X026824Y005666D01*
X026910Y005623D01*
X026975Y005645D01*
X027041Y005887D02*
X027127Y006060D01*
X027042Y006215D02*
X027128Y006388D01*
X027085Y006302D02*
X027345Y006173D01*
X027390Y006372D02*
X027173Y006479D01*
X027259Y006652D02*
X027476Y006545D01*
X027498Y006480D01*
X027455Y006393D01*
X027390Y006372D01*
X027434Y006678D02*
X027499Y006700D01*
X027564Y006830D01*
X027650Y006787D02*
X027390Y006916D01*
X027326Y006786D01*
X027348Y006722D01*
X027434Y006678D01*
X027435Y007007D02*
X027521Y007180D01*
X027478Y007094D02*
X027738Y006965D01*
X027783Y007163D02*
X027566Y007271D01*
X027652Y007444D02*
X027869Y007337D01*
X027891Y007272D01*
X027848Y007185D01*
X027783Y007163D01*
X027914Y007427D02*
X027741Y007513D01*
X027719Y007578D01*
X027762Y007665D01*
X027827Y007687D01*
X028000Y007601D01*
X028022Y007536D01*
X027979Y007449D01*
X027914Y007427D01*
D12*
X028015Y007730D02*
X028429Y007522D01*
X027662Y007906D02*
X027248Y008113D01*
X027170Y008152D02*
X026993Y008240D01*
X027089Y008422D01*
X027099Y008437D02*
X027284Y008806D01*
X027460Y009158D02*
X027645Y009528D01*
X027821Y009880D02*
X028005Y010249D01*
X028181Y010602D02*
X028366Y010971D01*
X028542Y011323D02*
X028727Y011693D01*
X028903Y012045D02*
X029088Y012414D01*
X029264Y012766D02*
X029448Y013136D01*
X029625Y013488D02*
X029809Y013857D01*
X029985Y014209D02*
X030170Y014579D01*
X030264Y014761D02*
X030371Y014969D01*
X030274Y014967D02*
X029840Y015184D01*
X029487Y015360D02*
X029053Y015577D01*
X028917Y015650D02*
X028612Y015800D01*
X028762Y016098D01*
X028814Y016200D02*
X029044Y016660D01*
X029220Y017012D02*
X029451Y017471D01*
X029627Y017823D02*
X029857Y018282D01*
X029909Y018388D02*
X030026Y018620D01*
X030272Y018496D01*
X030480Y018393D02*
X030887Y018189D01*
X031239Y018013D02*
X031646Y017809D01*
X031998Y017632D02*
X032405Y017429D01*
X030044Y018575D02*
X030044Y018789D01*
X030044Y018575D02*
X029853Y018575D01*
X029729Y018579D02*
X029172Y018578D01*
X028779Y018577D02*
X028222Y018576D01*
X027828Y018576D02*
X027271Y018575D01*
X027148Y018575D02*
X026893Y018577D01*
X026893Y018813D01*
X026892Y019517D02*
X026892Y019970D01*
X026892Y020364D02*
X026892Y020816D01*
X026452Y020517D02*
X026025Y020517D01*
X025631Y020517D02*
X025204Y020517D01*
X024810Y020517D02*
X024383Y020517D01*
X023989Y020517D02*
X023562Y020517D01*
X023168Y020517D02*
X022741Y020516D01*
X022347Y020516D02*
X021920Y020516D01*
X021526Y020516D02*
X021099Y020516D01*
X020705Y020516D02*
X020278Y020516D01*
X019884Y020516D02*
X019457Y020516D01*
X019406Y020573D02*
X019407Y021203D01*
X019408Y021596D02*
X019409Y022226D01*
X009903Y015033D02*
X009449Y015260D01*
X009097Y015436D02*
X008643Y015663D01*
X010105Y014928D02*
X010247Y014858D01*
X010147Y014661D01*
X010067Y014500D02*
X009885Y014136D01*
X009709Y013784D02*
X009527Y013421D01*
X009351Y013069D02*
X009169Y012705D01*
X008993Y012353D02*
X008811Y011990D01*
X008635Y011638D02*
X008453Y011274D01*
X008277Y010922D02*
X008095Y010559D01*
X007919Y010207D02*
X007737Y009843D01*
X007561Y009491D02*
X007379Y009128D01*
X007203Y008776D02*
X007021Y008412D01*
X006980Y008335D02*
X006877Y008131D01*
X006664Y008233D01*
X006959Y008127D02*
X007464Y007873D01*
X007816Y007697D02*
X008322Y007444D01*
X008434Y007390D02*
X008636Y007287D01*
X008535Y007089D01*
X008398Y006823D02*
X008184Y006396D01*
X008008Y006044D02*
X007794Y005617D01*
X007618Y005265D02*
X007404Y004838D01*
X007344Y004703D02*
X007220Y004461D01*
X007009Y004574D01*
X006758Y004701D02*
X006392Y004886D01*
X006041Y005064D02*
X005675Y005249D01*
X005323Y005427D02*
X004957Y005612D01*
X030047Y019015D02*
X030047Y019527D01*
X030047Y019920D02*
X030047Y020432D01*
X030047Y020826D02*
X030047Y021338D01*
X031222Y014453D02*
X031563Y014309D01*
D13*
X004334Y000942D02*
X001461Y000941D01*
X004310Y000941D01*
X007037Y000941D01*
X007151Y001170D01*
X006679Y001799D01*
X006670Y001872D01*
X006155Y002562D01*
X006054Y002485D01*
X005832Y002781D01*
X005893Y002826D01*
X005896Y002844D01*
X005515Y003352D01*
X005219Y002759D01*
X005299Y002719D01*
X005139Y002399D01*
X005026Y002455D01*
X004640Y001682D01*
X004632Y001585D01*
X004310Y000941D01*
X004334Y000942D02*
X004226Y000942D01*
X004578Y001646D01*
X004639Y001687D01*
X005026Y002455D01*
X004912Y002512D01*
X005077Y002842D01*
X005145Y002808D01*
X005162Y002813D01*
X005446Y003381D01*
X004784Y003381D01*
X004784Y003292D01*
X004426Y003292D01*
X004426Y003417D01*
X003562Y003417D01*
X003471Y003381D01*
X002718Y003381D01*
X002382Y002708D01*
X002306Y002640D01*
X001920Y001868D01*
X002037Y001809D01*
X001872Y001480D01*
X001804Y001513D01*
X001782Y001509D01*
X001499Y000942D01*
X004226Y000942D01*
X004334Y000942D02*
X025175Y000942D01*
X027213Y005018D01*
X026431Y003455D01*
X026388Y003448D01*
X025738Y003068D01*
X025108Y003480D01*
X025013Y003500D01*
X024290Y003973D01*
X024358Y004078D01*
X024059Y004274D01*
X024010Y004199D01*
X023455Y004562D01*
X024004Y004882D01*
X024021Y004876D01*
X024059Y004811D01*
X024378Y004997D01*
X024313Y005107D01*
X025058Y005538D01*
X025132Y005539D01*
X025812Y005935D01*
X027213Y005018D01*
X027401Y005394D01*
X028166Y006925D01*
X028125Y007641D01*
X027433Y007938D01*
X027360Y008009D01*
X026567Y008350D01*
X026515Y008230D01*
X026177Y008376D01*
X026207Y008445D01*
X026201Y008467D01*
X025618Y008716D01*
X025778Y005994D01*
X026501Y005684D01*
X026545Y005625D01*
X027335Y005283D01*
X027385Y005401D01*
X027401Y005394D01*
X028236Y007064D01*
X028767Y007418D01*
X029927Y009720D01*
X030186Y010235D01*
X030136Y010231D01*
X030113Y010589D01*
X030238Y010597D01*
X030182Y011459D01*
X030141Y011547D01*
X030092Y012298D01*
X029398Y012590D01*
X029326Y012662D01*
X028531Y012997D01*
X028581Y013118D01*
X028241Y013261D01*
X028212Y013191D01*
X028192Y013180D01*
X027609Y013427D01*
X029681Y015200D01*
X030406Y014894D01*
X030479Y014902D01*
X031153Y014620D01*
X032068Y016451D01*
X032034Y016937D01*
X031339Y017225D01*
X031266Y017296D01*
X030469Y017627D01*
X030518Y017748D01*
X030178Y017889D01*
X030149Y017819D01*
X030129Y017808D01*
X029544Y018052D01*
X031606Y019837D01*
X032333Y019535D01*
X032406Y019544D01*
X033201Y019216D01*
X033249Y019335D01*
X033591Y019195D01*
X033562Y019125D01*
X033568Y019108D01*
X034145Y018873D01*
X034155Y018891D02*
X034068Y020504D01*
X034115Y019888D01*
X033990Y019879D01*
X034017Y019522D01*
X034106Y019529D01*
X034155Y018891D01*
X034108Y018798D02*
X032562Y017438D01*
X032063Y017006D01*
X031368Y017295D01*
X031266Y017296D01*
X030469Y017627D02*
X030418Y017507D01*
X030078Y017649D01*
X030107Y017719D01*
X030101Y017740D01*
X029516Y017982D01*
X029707Y015262D01*
X030434Y014961D01*
X030479Y014902D01*
X030371Y014969D02*
X030607Y014851D01*
X031140Y014593D02*
X032134Y014101D01*
X029927Y009720D01*
X029682Y009823D01*
X029677Y009840D01*
X029706Y009910D01*
X029366Y010053D01*
X029316Y009935D01*
X028525Y010272D01*
X028480Y010331D01*
X027755Y010637D01*
X027580Y013358D01*
X028164Y013112D01*
X028170Y013091D01*
X028140Y013021D01*
X028479Y012877D01*
X028531Y012997D01*
X029326Y012662D02*
X029428Y012659D01*
X030121Y012366D01*
X030693Y012856D01*
X030785Y012887D01*
X031442Y013449D01*
X031360Y013544D01*
X031632Y013777D01*
X031690Y013709D01*
X032122Y014079D01*
X031153Y014620D01*
X031140Y014593D02*
X032577Y017467D01*
X032589Y017461D01*
X034089Y018760D01*
X033624Y018358D01*
X033565Y018425D01*
X033295Y018191D01*
X033377Y018096D01*
X032724Y017530D01*
X032632Y017498D01*
X032589Y017461D01*
X033167Y017172D01*
X033315Y017212D01*
X034089Y018760D01*
X035785Y022152D01*
X030024Y022152D01*
X030024Y021375D01*
X028329Y021375D01*
X028303Y021142D01*
X028254Y021053D01*
X028155Y020195D01*
X028025Y020210D01*
X027983Y019844D01*
X028059Y019835D01*
X028074Y019820D01*
X028001Y019190D01*
X025719Y020683D01*
X025809Y021465D01*
X025781Y021532D01*
X025877Y022387D01*
X026004Y022372D01*
X026015Y022467D01*
X025584Y022467D01*
X023814Y022479D01*
X023161Y022104D01*
X023205Y021353D01*
X023175Y021260D01*
X023225Y020398D01*
X023350Y020405D01*
X023371Y020047D01*
X023282Y020042D01*
X023321Y019381D01*
X023871Y019698D01*
X023875Y019715D01*
X023837Y019781D01*
X024157Y019965D01*
X024221Y019854D01*
X024965Y020285D01*
X025002Y020349D01*
X025685Y020741D01*
X025584Y022467D01*
X022356Y022467D01*
X019912Y022467D01*
X020011Y020923D01*
X020736Y020617D01*
X020781Y020559D01*
X021573Y020222D01*
X021622Y020339D01*
X021962Y020196D01*
X021933Y020126D01*
X021939Y020109D01*
X022524Y019862D01*
X022481Y020523D01*
X022392Y020517D01*
X022369Y020875D01*
X022494Y020883D01*
X022439Y021745D01*
X022397Y021833D01*
X022356Y022467D01*
X019912Y022467D02*
X019397Y022467D01*
X018610Y022152D01*
X017665Y022152D01*
X014864Y022152D01*
X015021Y021831D01*
X015097Y021762D01*
X015428Y021086D01*
X016180Y021080D01*
X016271Y021043D01*
X017135Y021037D01*
X017136Y021162D01*
X017494Y021159D01*
X017493Y021070D01*
X018155Y021065D01*
X017876Y021635D01*
X017859Y021640D01*
X017791Y021607D01*
X017628Y021938D01*
X017743Y021994D01*
X017665Y022152D01*
X017492Y020998D02*
X017492Y020908D01*
X017134Y020911D01*
X017135Y021037D01*
X017492Y020998D02*
X018155Y020992D01*
X017866Y020426D01*
X017849Y020422D01*
X017782Y020457D01*
X017614Y020127D01*
X017728Y020070D01*
X017335Y019304D01*
X017273Y019264D01*
X016916Y018563D01*
X014189Y018584D01*
X014476Y019149D01*
X014498Y019153D01*
X014566Y019119D01*
X014734Y019447D01*
X014617Y019507D01*
X014501Y019566D01*
X014334Y019237D01*
X014402Y019202D01*
X014411Y019182D01*
X014122Y018618D01*
X012901Y020274D01*
X014591Y022152D01*
X014890Y021747D01*
X014914Y021653D01*
X015361Y021047D01*
X015019Y020377D01*
X015009Y020276D01*
X014617Y019507D01*
X015009Y020276D02*
X015086Y020343D01*
X015427Y021014D01*
X016180Y021008D01*
X016271Y021043D01*
X014864Y022152D02*
X014591Y022152D01*
X013144Y022152D01*
X012710Y021218D01*
X012861Y021513D01*
X012857Y021587D01*
X013144Y022152D01*
X012065Y022152D01*
X010601Y019221D01*
X012901Y020274D01*
X012413Y020796D02*
X011311Y020643D01*
X011659Y020702D01*
X011728Y020677D01*
X012413Y020796D01*
X010601Y019221D02*
X010906Y018808D01*
X010989Y018756D01*
X011436Y018151D01*
X012177Y018280D01*
X012277Y018259D01*
X013127Y018407D01*
X013105Y018536D01*
X013469Y018599D01*
X013482Y018524D01*
X013498Y018509D01*
X014122Y018618D01*
X014135Y018544D02*
X013351Y015933D01*
X012576Y015798D01*
X012519Y015751D01*
X011672Y015601D01*
X011650Y015727D01*
X011286Y015664D01*
X011299Y015589D01*
X011290Y015574D01*
X010664Y015465D01*
X010855Y016100D01*
X010940Y016074D01*
X011043Y016417D01*
X010923Y016453D01*
X011171Y017281D01*
X011163Y017378D01*
X011379Y018099D01*
X010831Y018614D01*
X010787Y018706D01*
X010486Y018990D01*
X009314Y016642D01*
X009829Y016154D01*
X009916Y016248D01*
X010185Y015994D01*
X010133Y015939D01*
X010132Y015922D01*
X010595Y015486D01*
X010785Y016121D01*
X010700Y016146D01*
X010803Y016489D01*
X010923Y016453D01*
X010090Y015876D02*
X010556Y015444D01*
X009936Y015211D01*
X009904Y015295D01*
X009569Y015169D01*
X009614Y015051D01*
X008805Y014747D01*
X008707Y014749D01*
X008003Y014484D01*
X007913Y014567D01*
X009315Y016644D01*
X009837Y016163D01*
X009750Y016070D01*
X010021Y015819D01*
X010073Y015874D01*
X010090Y015876D01*
X010582Y015377D02*
X009961Y015143D01*
X009993Y015060D01*
X009658Y014934D01*
X009614Y015051D01*
X010426Y014742D02*
X010501Y014735D01*
X010516Y014745D01*
X010582Y015377D01*
X010664Y015368D02*
X011220Y015008D01*
X011172Y014933D01*
X011473Y014739D01*
X011541Y014845D01*
X012267Y014376D01*
X012323Y014296D01*
X012956Y013888D01*
X012873Y013140D01*
X012900Y013042D01*
X012805Y012184D01*
X012935Y012169D01*
X012894Y011803D01*
X012819Y011811D01*
X012800Y011799D01*
X012731Y011169D01*
X015289Y012115D01*
X015375Y012897D01*
X015418Y012956D01*
X015515Y013811D01*
X015388Y013825D01*
X015428Y014192D01*
X015504Y014184D01*
X015518Y014194D01*
X015588Y014826D01*
X014966Y014596D01*
X014997Y014512D01*
X014662Y014388D01*
X014618Y014506D01*
X013808Y014206D01*
X013735Y014141D01*
X013029Y013880D01*
X012947Y013132D01*
X012900Y013042D01*
X012805Y012184D02*
X012675Y012198D01*
X012635Y011831D01*
X012711Y011823D01*
X012726Y011808D01*
X012657Y011178D01*
X010366Y012657D01*
X010452Y013439D01*
X010423Y013507D01*
X010515Y014362D01*
X010641Y014348D01*
X010682Y014715D01*
X010606Y014723D01*
X010594Y014736D01*
X010664Y015368D01*
X010426Y014742D02*
X010388Y014375D01*
X010515Y014362D01*
X010423Y013507D02*
X010380Y013447D01*
X010298Y012664D01*
X007746Y011704D01*
X007811Y012334D01*
X007830Y012346D01*
X007906Y012338D01*
X007944Y012705D01*
X007814Y012719D01*
X007904Y013577D01*
X007951Y013667D01*
X008028Y014416D01*
X008733Y014681D01*
X008805Y014747D01*
X007922Y014582D02*
X005126Y008993D01*
X005605Y008751D01*
X006350Y011442D01*
X006689Y011504D01*
X006713Y011375D01*
X007075Y011442D01*
X007061Y011516D01*
X007072Y011536D01*
X007695Y011649D01*
X006932Y009031D01*
X006158Y008890D01*
X006102Y008843D01*
X005605Y008751D01*
X006140Y008481D01*
X005391Y006989D01*
X005674Y006723D01*
X005717Y006631D01*
X006267Y006117D01*
X006052Y005396D01*
X006061Y005298D01*
X005814Y004470D01*
X005694Y004506D01*
X005591Y004163D01*
X005677Y004138D01*
X005488Y003503D01*
X005024Y003937D01*
X005025Y003955D01*
X005077Y004010D01*
X004807Y004263D01*
X004720Y004169D01*
X004094Y004760D01*
X004073Y004830D01*
X003618Y005257D01*
X003925Y005873D02*
X001464Y000942D01*
X001499Y000942D01*
X005572Y003400D02*
X005970Y002870D01*
X006041Y002924D01*
X006256Y002638D01*
X006155Y002562D01*
X006674Y001871D01*
X006757Y001820D01*
X007209Y001218D01*
X007949Y001353D01*
X008049Y001334D01*
X008898Y001488D01*
X008875Y001617D01*
X009238Y001682D01*
X009252Y001607D01*
X009268Y001593D01*
X009892Y001707D01*
X008255Y003888D01*
X007481Y003747D01*
X007412Y003772D01*
X006565Y003620D01*
X006543Y003746D01*
X006179Y003682D01*
X006192Y003607D01*
X006183Y003592D01*
X005557Y003482D01*
X005747Y004117D01*
X005832Y004091D01*
X005934Y004434D01*
X005814Y004470D01*
X006061Y005298D02*
X006121Y005375D01*
X006336Y006096D01*
X007078Y006226D01*
X007164Y006279D01*
X008014Y006429D01*
X008037Y006300D01*
X008400Y006365D01*
X008387Y006439D01*
X008398Y006459D01*
X009022Y006568D01*
X008243Y003955D01*
X008818Y003417D01*
X008839Y003346D01*
X009465Y002756D01*
X009552Y002849D01*
X009822Y002597D01*
X009770Y002541D01*
X009769Y002524D01*
X010233Y002089D01*
X010422Y002724D01*
X010336Y002750D01*
X010438Y003093D01*
X010559Y003057D01*
X010805Y003885D01*
X010866Y003961D01*
X011081Y004683D01*
X011822Y004813D01*
X011909Y004866D01*
X012759Y005015D01*
X012782Y004887D01*
X013145Y004951D01*
X013132Y005026D01*
X013142Y005045D01*
X013767Y005155D01*
X012988Y002541D01*
X013562Y002003D01*
X013584Y001933D01*
X014210Y001342D01*
X014297Y001436D01*
X014566Y001183D01*
X014515Y001128D01*
X014514Y001110D01*
X014694Y000941D01*
X015057Y000941D01*
X015167Y001310D01*
X015081Y001336D01*
X015183Y001679D01*
X015304Y001643D01*
X015550Y002471D01*
X015541Y002568D01*
X015756Y003290D01*
X015207Y003804D01*
X015163Y003896D01*
X014534Y004487D01*
X014623Y004582D01*
X014354Y004834D01*
X014302Y004779D01*
X014280Y004775D01*
X013818Y005209D01*
X016376Y006154D01*
X016950Y005616D01*
X017021Y005599D01*
X017651Y005012D01*
X017563Y004919D01*
X017833Y004667D01*
X017885Y004722D01*
X017902Y004724D01*
X018366Y004289D01*
X017744Y004060D01*
X017713Y004144D01*
X017377Y004019D01*
X017421Y003902D01*
X016610Y003602D01*
X016538Y003537D01*
X015832Y003276D01*
X015750Y002528D01*
X015702Y002438D01*
X015608Y001580D01*
X015738Y001565D01*
X015697Y001199D01*
X015621Y001207D01*
X015603Y001195D01*
X015575Y000941D01*
X016551Y000941D01*
X018092Y001510D01*
X018178Y002293D01*
X018221Y002352D01*
X018318Y003207D01*
X018444Y003192D01*
X018487Y003559D01*
X018412Y003568D01*
X018400Y003581D01*
X018473Y004212D01*
X019028Y003849D01*
X018979Y003775D01*
X019278Y003579D01*
X019347Y003684D01*
X020070Y003211D01*
X020166Y003191D01*
X020796Y002779D01*
X021446Y003159D01*
X021546Y003174D01*
X022292Y003609D01*
X022358Y003497D01*
X022676Y003683D01*
X022638Y003748D01*
X022641Y003770D01*
X023189Y004089D01*
X023364Y001368D01*
X022684Y000971D01*
X022647Y000908D01*
X021037Y000941D01*
X021032Y001018D01*
X020906Y001010D01*
X020851Y001872D01*
X020881Y001964D01*
X020833Y002716D01*
X021483Y003094D01*
X021546Y003174D01*
X022292Y003609D02*
X022227Y003722D01*
X022545Y003907D01*
X022583Y003842D01*
X022604Y003834D01*
X023151Y004154D01*
X020869Y005646D01*
X020189Y005250D01*
X020116Y005249D01*
X019371Y004818D01*
X019308Y004928D01*
X018988Y004744D01*
X019025Y004678D01*
X019022Y004661D01*
X018471Y004344D01*
X018433Y005006D01*
X018522Y005011D01*
X018501Y005368D01*
X018375Y005361D01*
X018325Y006224D01*
X018356Y006316D01*
X018336Y006665D01*
X019629Y007868D01*
X019609Y007942D01*
X019696Y008689D01*
X019067Y009101D01*
X019011Y009181D01*
X018288Y009654D01*
X018219Y009549D01*
X017919Y009745D01*
X017968Y009820D01*
X017414Y010182D01*
X017340Y009551D01*
X017352Y009538D01*
X017427Y009530D01*
X017385Y009162D01*
X017258Y009178D01*
X017161Y008323D01*
X017190Y008255D01*
X017100Y007473D01*
X018336Y006665D01*
X018312Y007068D01*
X018965Y007442D01*
X019028Y007522D01*
X019776Y007953D01*
X019842Y007840D01*
X020161Y008024D01*
X020123Y008090D01*
X020126Y008111D01*
X020676Y008427D01*
X020835Y005705D01*
X021558Y005395D01*
X021603Y005336D01*
X022393Y004994D01*
X022442Y005112D01*
X022782Y004966D01*
X022752Y004896D01*
X022758Y004880D01*
X023341Y004629D01*
X023303Y005290D01*
X023213Y005285D01*
X023193Y005643D01*
X023318Y005650D01*
X023268Y006513D01*
X023298Y006605D01*
X023254Y007357D01*
X023907Y007731D01*
X023971Y007811D01*
X024719Y008242D01*
X024784Y008129D01*
X025103Y008313D01*
X025065Y008379D01*
X025069Y008400D01*
X025618Y008716D01*
X025294Y009182D02*
X024788Y008754D01*
X024731Y008822D01*
X024457Y008591D01*
X024538Y008495D01*
X023879Y007937D01*
X023786Y007906D01*
X023211Y007420D01*
X022520Y007717D01*
X022418Y007720D01*
X021625Y008061D01*
X021676Y008181D01*
X021337Y008326D01*
X021307Y008256D01*
X021288Y008245D01*
X020705Y008496D01*
X022788Y010256D01*
X022602Y011021D01*
X022622Y011092D01*
X022422Y011929D01*
X022298Y011898D01*
X022211Y012257D01*
X022284Y012275D01*
X022294Y012289D01*
X022144Y012907D01*
X021639Y012479D01*
X021696Y012411D01*
X021423Y012180D01*
X021342Y012275D01*
X020682Y011718D01*
X020636Y011632D01*
X020061Y011146D01*
X020240Y010414D01*
X020225Y010313D01*
X020429Y009475D01*
X020556Y009505D01*
X020643Y009147D01*
X020569Y009129D01*
X020555Y009112D01*
X020705Y008496D01*
X020676Y008427D02*
X021259Y008178D01*
X021264Y008156D01*
X021234Y008087D01*
X021573Y007941D01*
X021625Y008061D01*
X022418Y007720D02*
X022490Y007649D01*
X023182Y007352D01*
X023226Y006601D01*
X023268Y006513D01*
X023318Y005650D02*
X023443Y005657D01*
X023464Y005300D01*
X023375Y005295D01*
X023414Y004633D01*
X023964Y004950D01*
X023968Y004967D01*
X023930Y005033D01*
X024250Y005217D01*
X024313Y005107D01*
X025058Y005538D02*
X025095Y005601D01*
X025778Y005994D01*
X025294Y009182D02*
X024710Y009432D01*
X024695Y009425D01*
X024665Y009355D01*
X024325Y009500D01*
X024376Y009617D01*
X024425Y009735D01*
X024765Y009591D01*
X024736Y009522D01*
X024741Y009505D01*
X025327Y009258D01*
X025284Y009919D01*
X025195Y009913D01*
X025172Y010271D01*
X025297Y010279D01*
X025242Y011141D01*
X025272Y011234D01*
X025224Y011985D01*
X025874Y012363D01*
X025937Y012444D01*
X026683Y012878D01*
X026749Y012766D01*
X027067Y012952D01*
X027029Y013017D01*
X027032Y013039D01*
X027304Y013198D01*
X029117Y014718D01*
X029109Y014726D01*
X029197Y014819D01*
X028571Y015409D01*
X028499Y015426D01*
X027928Y015968D01*
X025365Y015038D01*
X025824Y014602D01*
X025846Y014605D01*
X025898Y014660D01*
X026166Y014406D01*
X026077Y014311D01*
X026703Y013717D01*
X026797Y013679D01*
X027304Y013198D01*
X027580Y013358D01*
X025365Y015038D02*
X025438Y015668D01*
X025456Y015679D01*
X025532Y015671D01*
X025575Y016037D01*
X025445Y016052D01*
X025545Y016909D01*
X025593Y016999D01*
X025679Y017747D01*
X026387Y018004D01*
X026459Y018069D01*
X027271Y018363D01*
X027314Y018245D01*
X027651Y018367D01*
X027620Y018451D01*
X028243Y018677D01*
X028170Y018046D01*
X028156Y018036D01*
X028080Y018045D01*
X028038Y017678D01*
X028164Y017664D01*
X028063Y016809D01*
X028019Y016750D01*
X027928Y015968D01*
X025445Y016052D02*
X025315Y016067D01*
X025273Y015701D01*
X025349Y015692D01*
X025364Y015676D01*
X025291Y015047D01*
X023009Y016539D01*
X023099Y017321D01*
X023071Y017389D01*
X023167Y018244D01*
X023294Y018229D01*
X023337Y018596D01*
X023261Y018604D01*
X023249Y018617D01*
X023323Y019249D01*
X023877Y018886D01*
X023828Y018811D01*
X024128Y018615D01*
X024197Y018720D01*
X024920Y018247D01*
X025015Y018228D01*
X025645Y017816D01*
X026295Y018196D01*
X026396Y018211D01*
X027141Y018646D01*
X027076Y018759D01*
X027395Y018944D01*
X027433Y018878D01*
X027453Y018870D01*
X028001Y019190D01*
X028075Y019181D02*
X030638Y020112D01*
X030729Y020893D01*
X030773Y020953D01*
X030874Y021807D01*
X030747Y021821D01*
X030786Y022152D01*
X031460Y022152D02*
X031631Y019899D01*
X032360Y019602D01*
X032406Y019544D01*
X033201Y019216D02*
X033152Y019099D01*
X033493Y018957D01*
X033522Y019027D01*
X033538Y019035D01*
X034108Y018798D01*
X033967Y021351D02*
X032665Y022152D01*
X033179Y021942D01*
X033252Y021872D01*
X033949Y021588D01*
X033967Y021351D01*
X028329Y021375D02*
X028254Y021375D01*
X028228Y021151D01*
X028254Y021053D01*
X028254Y021375D02*
X026911Y021375D01*
X026911Y022467D01*
X026015Y022467D01*
X025719Y020683D02*
X025039Y020286D01*
X024965Y020285D01*
X024221Y019854D02*
X024285Y019744D01*
X023966Y019558D01*
X023928Y019624D01*
X023911Y019629D01*
X023362Y019309D01*
X023917Y018947D01*
X023966Y019021D01*
X024265Y018825D01*
X024197Y018720D01*
X024920Y018247D02*
X024976Y018167D01*
X025606Y017755D01*
X025518Y017008D01*
X025545Y016909D01*
X025291Y015047D02*
X024743Y014727D01*
X024723Y014735D01*
X024685Y014801D01*
X024366Y014615D01*
X024431Y014502D01*
X023686Y014068D01*
X023585Y014052D01*
X022935Y013673D01*
X022305Y014085D01*
X022210Y014104D01*
X021487Y014577D01*
X021555Y014682D01*
X021256Y014878D01*
X021207Y014803D01*
X020652Y015166D01*
X021201Y015486D01*
X021218Y015480D01*
X021256Y015415D01*
X021575Y015601D01*
X021511Y015711D01*
X022255Y016142D01*
X022329Y016143D01*
X023009Y016539D01*
X022975Y016598D02*
X022292Y016206D01*
X022255Y016142D01*
X022975Y016598D02*
X022815Y019320D01*
X022266Y019004D01*
X022263Y018983D01*
X022300Y018917D01*
X021981Y018733D01*
X021916Y018846D01*
X021168Y018415D01*
X021104Y018336D01*
X020452Y017961D01*
X020495Y017209D01*
X020465Y017117D01*
X020515Y016254D01*
X020640Y016262D01*
X020661Y015904D01*
X020572Y015899D01*
X020611Y015238D01*
X021161Y015554D01*
X021165Y015572D01*
X021127Y015637D01*
X021447Y015822D01*
X021511Y015711D01*
X020500Y015895D02*
X020538Y015233D01*
X019955Y015484D01*
X019949Y015500D01*
X019979Y015570D01*
X019639Y015716D01*
X019590Y015598D01*
X018800Y015940D01*
X018756Y015999D01*
X018032Y016309D01*
X017873Y019031D01*
X018456Y018782D01*
X018461Y018761D01*
X018431Y018691D01*
X018770Y018545D01*
X018822Y018665D01*
X018873Y018785D01*
X018534Y018930D01*
X018504Y018860D01*
X018485Y018850D01*
X017903Y019100D01*
X019985Y020861D01*
X020708Y020550D01*
X020781Y020559D01*
X021573Y020222D02*
X021522Y020105D01*
X021862Y019959D01*
X021892Y020029D01*
X021908Y020036D01*
X022491Y019786D01*
X021985Y019358D01*
X021928Y019426D01*
X021654Y019195D01*
X021735Y019099D01*
X021076Y018541D01*
X020983Y018510D01*
X020408Y018024D01*
X019717Y018322D01*
X019615Y018325D01*
X018822Y018665D01*
X019615Y018325D02*
X019687Y018253D01*
X020379Y017957D01*
X020423Y017205D01*
X020465Y017117D01*
X020515Y016254D02*
X020390Y016247D01*
X020411Y015889D01*
X020500Y015895D01*
X020348Y014758D02*
X018066Y016250D01*
X017386Y015854D01*
X017313Y015853D01*
X016568Y015422D01*
X016505Y015533D01*
X016185Y015348D01*
X016223Y015283D01*
X016219Y015265D01*
X015668Y014949D01*
X015630Y015610D01*
X015719Y015615D01*
X015698Y015973D01*
X015573Y015965D01*
X015522Y016828D01*
X015553Y016920D01*
X015509Y017672D01*
X016162Y018047D01*
X016225Y018126D01*
X016973Y018557D01*
X017039Y018444D01*
X017358Y018628D01*
X017320Y018694D01*
X017323Y018716D01*
X017873Y019031D01*
X018032Y016309D02*
X017350Y015917D01*
X017313Y015853D01*
X016568Y015422D02*
X016633Y015312D01*
X016314Y015126D01*
X016275Y015191D01*
X016259Y015197D01*
X015710Y014877D01*
X016264Y014514D01*
X016313Y014589D01*
X016613Y014393D01*
X016544Y014288D01*
X017267Y013815D01*
X017363Y013796D01*
X017993Y013384D01*
X018643Y013763D01*
X018743Y013779D01*
X019489Y014213D01*
X019424Y014326D01*
X019742Y014512D01*
X019780Y014446D01*
X019801Y014438D01*
X020348Y014758D01*
X020591Y014245D02*
X019968Y014019D01*
X019999Y013935D01*
X019662Y013813D01*
X019619Y013931D01*
X018807Y013636D01*
X018734Y013571D01*
X018027Y013315D01*
X017940Y012567D01*
X017892Y012477D01*
X017793Y011620D01*
X017922Y011604D01*
X017879Y011238D01*
X017804Y011247D01*
X017785Y011235D01*
X017713Y010606D01*
X020276Y011536D01*
X020367Y012318D01*
X020410Y012377D01*
X020512Y013231D01*
X020385Y013246D01*
X020428Y013613D01*
X020503Y013604D01*
X020518Y013614D01*
X020591Y014245D01*
X022639Y013040D02*
X022814Y010319D01*
X023539Y010013D01*
X023584Y009954D01*
X024376Y009617D01*
X023584Y009954D02*
X023511Y009946D01*
X022788Y010256D01*
X025200Y011229D02*
X025242Y011141D01*
X025200Y011229D02*
X025152Y011980D01*
X024458Y012272D01*
X024385Y012344D01*
X023590Y012679D01*
X023539Y012559D01*
X023199Y012703D01*
X023229Y012773D01*
X023223Y012794D01*
X022639Y013040D01*
X025297Y010279D02*
X025423Y010287D01*
X025446Y009929D01*
X025357Y009924D01*
X025399Y009263D01*
X025948Y009583D01*
X025951Y009600D01*
X025913Y009665D01*
X026232Y009851D01*
X026296Y009741D01*
X027038Y010177D01*
X027075Y010240D01*
X027755Y010637D01*
X031563Y014309D02*
X031589Y014371D01*
X031257Y014535D01*
X031222Y014453D01*
X028075Y019181D02*
X028148Y019811D01*
X028166Y019823D01*
X028242Y019814D01*
X028285Y020180D01*
X028155Y020195D01*
X017953Y013323D02*
X017866Y012575D01*
X017892Y012477D01*
X017953Y013323D02*
X017323Y013735D01*
X017267Y013815D01*
X016544Y014288D02*
X016475Y014183D01*
X016176Y014379D01*
X016225Y014453D01*
X015670Y014816D01*
X015597Y014185D01*
X015609Y014172D01*
X015684Y014163D01*
X015642Y013796D01*
X015515Y013811D01*
X015418Y012956D02*
X015447Y012889D01*
X015356Y012107D01*
X017638Y010614D01*
X017712Y011244D01*
X017696Y011259D01*
X017621Y011268D01*
X017663Y011634D01*
X017793Y011620D01*
X016591Y010983D02*
X016504Y010890D01*
X016773Y010637D01*
X016825Y010693D01*
X016843Y010694D01*
X017306Y010260D01*
X016685Y010030D01*
X016654Y010114D01*
X016318Y009990D01*
X016361Y009872D01*
X015551Y009572D01*
X015453Y009575D01*
X014747Y009314D01*
X014199Y009829D01*
X014104Y009867D01*
X013474Y010457D01*
X013563Y010553D01*
X013294Y010804D01*
X013242Y010749D01*
X013220Y010746D01*
X012758Y011180D01*
X015316Y012125D01*
X015890Y011586D01*
X015962Y011569D01*
X016591Y010983D01*
X016710Y009962D02*
X017331Y010192D01*
X017262Y009560D01*
X017247Y009550D01*
X017172Y009558D01*
X017131Y009191D01*
X017258Y009178D01*
X016741Y009878D02*
X016405Y009754D01*
X016361Y009872D01*
X016710Y009962D02*
X016741Y009878D01*
X015551Y009572D02*
X015478Y009507D01*
X014772Y009246D01*
X014691Y008498D01*
X014643Y008408D01*
X014548Y007550D01*
X014678Y007535D01*
X014637Y007169D01*
X014562Y007177D01*
X014543Y007166D01*
X014474Y006536D01*
X017032Y007481D01*
X017118Y008263D01*
X017161Y008323D01*
X014643Y008408D02*
X014616Y008506D01*
X014699Y009254D01*
X014067Y009663D01*
X014010Y009742D01*
X013284Y010211D01*
X013216Y010105D01*
X012915Y010299D01*
X012964Y010375D01*
X012407Y010734D01*
X012338Y010103D01*
X012350Y010089D01*
X012425Y010081D01*
X012385Y009714D01*
X012258Y009728D01*
X012166Y008873D01*
X012195Y008805D01*
X012109Y008023D01*
X014400Y006544D01*
X014470Y007174D01*
X014454Y007189D01*
X014379Y007198D01*
X014419Y007564D01*
X014548Y007550D01*
X012906Y006426D02*
X012818Y006333D01*
X013088Y006080D01*
X013140Y006136D01*
X013157Y006137D01*
X013621Y005703D01*
X012999Y005473D01*
X012968Y005557D01*
X012633Y005433D01*
X012676Y005315D01*
X011866Y005016D01*
X011768Y005018D01*
X011062Y004757D01*
X010513Y005272D01*
X010419Y005310D01*
X009789Y005900D01*
X009878Y005996D01*
X009609Y006248D01*
X009557Y006192D01*
X009535Y006189D01*
X009073Y006623D01*
X011631Y007568D01*
X012205Y007030D01*
X012276Y007012D01*
X012906Y006426D01*
X013767Y005155D02*
X014229Y004721D01*
X014228Y004700D01*
X014176Y004644D01*
X014444Y004392D01*
X014534Y004487D01*
X015163Y003896D02*
X015258Y003859D01*
X015807Y003344D01*
X016513Y003605D01*
X016610Y003602D01*
X017421Y003902D02*
X017464Y003784D01*
X017800Y003908D01*
X017769Y003992D01*
X018391Y004221D01*
X018321Y003590D01*
X018307Y003580D01*
X018231Y003588D01*
X018191Y003221D01*
X018318Y003207D01*
X019067Y003910D02*
X019116Y003985D01*
X019416Y003789D01*
X019347Y003684D01*
X019067Y003910D02*
X018513Y004273D01*
X019062Y004593D01*
X019078Y004587D01*
X019116Y004522D01*
X019436Y004708D01*
X019371Y004818D01*
X020116Y005249D02*
X020153Y005312D01*
X020835Y005705D01*
X020070Y003211D02*
X020126Y003131D01*
X020756Y002719D01*
X020669Y001971D01*
X020695Y001873D01*
X020596Y001016D01*
X020466Y001030D01*
X020455Y000941D01*
X019018Y000941D01*
X018159Y001503D01*
X018250Y002285D01*
X018221Y002352D01*
X019018Y000941D02*
X016551Y000941D01*
X015575Y000941D02*
X015057Y000941D01*
X014694Y000941D02*
X014151Y000941D01*
X011056Y000941D01*
X010900Y001149D01*
X011001Y001224D01*
X010786Y001510D01*
X010714Y001457D01*
X010317Y001987D01*
X010942Y002100D01*
X010956Y002090D01*
X010969Y002015D01*
X011333Y002081D01*
X011309Y002206D01*
X012156Y002358D01*
X012226Y002334D01*
X013000Y002475D01*
X014151Y000941D01*
X012988Y002541D02*
X012213Y002405D01*
X012156Y002358D01*
X011309Y002206D02*
X011288Y002332D01*
X010924Y002268D01*
X010937Y002193D01*
X010928Y002178D01*
X010302Y002068D01*
X010491Y002703D01*
X010577Y002678D01*
X010679Y003021D01*
X010559Y003057D01*
X010805Y003885D02*
X010797Y003982D01*
X011012Y004703D01*
X010462Y005218D01*
X010419Y005310D01*
X009789Y005900D02*
X009699Y005805D01*
X009431Y006058D01*
X009483Y006113D01*
X009485Y006135D01*
X009022Y006568D01*
X008876Y007116D02*
X008255Y006887D01*
X008224Y006971D01*
X007888Y006846D01*
X007931Y006729D01*
X007121Y006429D01*
X007023Y006432D01*
X006317Y006171D01*
X005768Y006686D01*
X005674Y006723D01*
X005391Y006989D02*
X004703Y005617D01*
X004112Y005912D01*
X003925Y005873D01*
X005572Y003400D02*
X006197Y003514D01*
X006211Y003503D01*
X006224Y003428D01*
X006588Y003495D01*
X006565Y003620D01*
X007412Y003772D02*
X007468Y003819D01*
X008243Y003955D01*
X007037Y000941D02*
X011056Y000941D01*
X009490Y007070D02*
X012042Y008030D01*
X012123Y008813D01*
X012166Y008873D01*
X012258Y009728D02*
X012131Y009741D01*
X012169Y010109D01*
X012245Y010101D01*
X012259Y010111D01*
X012325Y010743D01*
X011705Y010509D01*
X011736Y010426D01*
X011401Y010300D01*
X011357Y010417D01*
X010548Y010113D01*
X010476Y010047D01*
X009772Y009782D01*
X009694Y009034D01*
X009647Y008943D01*
X009558Y008085D01*
X009688Y008071D01*
X009649Y007704D01*
X009573Y007712D01*
X009555Y007700D01*
X009490Y007070D01*
X008933Y007177D02*
X009118Y007813D01*
X009032Y007838D01*
X009132Y008182D01*
X009253Y008147D01*
X009495Y008976D01*
X009485Y009073D01*
X009696Y009796D01*
X009144Y010307D01*
X009100Y010399D01*
X008466Y010985D01*
X008555Y011082D01*
X008284Y011332D01*
X008233Y011276D01*
X008211Y011273D01*
X007746Y011704D01*
X007695Y011649D02*
X008161Y011218D01*
X008159Y011197D01*
X008107Y011141D01*
X008377Y010890D01*
X008466Y010985D01*
X009100Y010399D02*
X009194Y010362D01*
X009746Y009850D01*
X010451Y010115D01*
X010548Y010113D01*
X011357Y010417D02*
X011313Y010535D01*
X011648Y010661D01*
X011679Y010577D01*
X012299Y010811D01*
X011833Y011242D01*
X011816Y011241D01*
X011764Y011185D01*
X011493Y011436D01*
X011580Y011529D01*
X010947Y012112D01*
X010876Y012129D01*
X010298Y012664D01*
X005820Y010379D02*
X005749Y010238D01*
X005883Y008611D02*
X006886Y008981D01*
X007460Y008443D01*
X007532Y008426D01*
X008161Y007839D01*
X008248Y007933D01*
X008519Y007682D01*
X008467Y007626D01*
X008467Y007609D01*
X008933Y007177D01*
X008876Y007116D02*
X008413Y007551D01*
X008395Y007549D01*
X008343Y007494D01*
X008074Y007747D01*
X008161Y007839D01*
X007532Y008426D02*
X007510Y008496D01*
X006932Y009031D01*
X009141Y016296D02*
X009315Y016644D01*
X010486Y018990D01*
X010601Y019221D01*
X011448Y018078D02*
X012190Y018206D01*
X012277Y018259D01*
X011448Y018078D02*
X011232Y017357D01*
X011171Y017281D01*
X013150Y018279D02*
X013513Y018342D01*
X013500Y018417D01*
X013511Y018436D01*
X014135Y018544D01*
X013127Y018407D02*
X013150Y018279D01*
X020455Y000941D02*
X021037Y000941D01*
X025175Y000941D01*
M02*
