G75*
%MOIN*%
%OFA0B0*%
%FSLAX24Y24*%
%IPPOS*%
%LPD*%
%AMOC8*
5,1,8,0,0,1.08239X$1,22.5*
%
%ADD10C,0.0000*%
%ADD11R,0.0563X0.0138*%
%ADD12R,0.0512X0.0630*%
%ADD13R,0.1575X0.0984*%
%ADD14R,0.0984X0.1575*%
%ADD15C,0.0476*%
%ADD16R,0.4098X0.4252*%
%ADD17R,0.0850X0.0420*%
%ADD18R,0.1102X0.1496*%
%ADD19C,0.0740*%
%ADD20R,0.1000X0.1000*%
%ADD21R,0.1100X0.0900*%
%ADD22C,0.0100*%
%ADD23C,0.0945*%
%ADD24C,0.0768*%
%ADD25C,0.0120*%
%ADD26C,0.0709*%
%ADD27C,0.0356*%
%ADD28C,0.0160*%
%ADD29C,0.0591*%
%ADD30C,0.0472*%
%ADD31C,0.0400*%
%ADD32C,0.0560*%
%ADD33C,0.0240*%
%ADD34C,0.0320*%
%ADD35C,0.0560*%
D10*
X001543Y001214D02*
X007057Y001214D01*
X007162Y001332D01*
X007163Y001992D01*
X010376Y001990D01*
X010370Y000897D01*
X017853Y000897D01*
X018407Y001214D01*
X025254Y001214D01*
X028315Y007336D01*
X028846Y007690D01*
X032212Y014373D01*
X031218Y014865D01*
X032655Y017739D01*
X033246Y017444D01*
X033393Y017483D01*
X035864Y022424D01*
X030103Y022423D01*
X030103Y022424D02*
X030103Y021647D01*
X026989Y021647D01*
X026989Y022739D01*
X019476Y022739D01*
X018689Y022424D01*
X012143Y022424D01*
X009220Y016568D01*
X008561Y015977D01*
X005204Y009265D01*
X006218Y008753D01*
X004781Y005889D01*
X004191Y006184D01*
X004004Y006145D01*
X001543Y001214D01*
X003060Y002453D02*
X003062Y002497D01*
X003068Y002541D01*
X003078Y002584D01*
X003091Y002626D01*
X003109Y002666D01*
X003130Y002705D01*
X003154Y002742D01*
X003181Y002777D01*
X003212Y002809D01*
X003245Y002838D01*
X003281Y002864D01*
X003319Y002886D01*
X003359Y002905D01*
X003400Y002921D01*
X003443Y002933D01*
X003486Y002941D01*
X003530Y002945D01*
X003574Y002945D01*
X003618Y002941D01*
X003661Y002933D01*
X003704Y002921D01*
X003745Y002905D01*
X003785Y002886D01*
X003823Y002864D01*
X003859Y002838D01*
X003892Y002809D01*
X003923Y002777D01*
X003950Y002742D01*
X003974Y002705D01*
X003995Y002666D01*
X004013Y002626D01*
X004026Y002584D01*
X004036Y002541D01*
X004042Y002497D01*
X004044Y002453D01*
X004042Y002409D01*
X004036Y002365D01*
X004026Y002322D01*
X004013Y002280D01*
X003995Y002240D01*
X003974Y002201D01*
X003950Y002164D01*
X003923Y002129D01*
X003892Y002097D01*
X003859Y002068D01*
X003823Y002042D01*
X003785Y002020D01*
X003745Y002001D01*
X003704Y001985D01*
X003661Y001973D01*
X003618Y001965D01*
X003574Y001961D01*
X003530Y001961D01*
X003486Y001965D01*
X003443Y001973D01*
X003400Y001985D01*
X003359Y002001D01*
X003319Y002020D01*
X003281Y002042D01*
X003245Y002068D01*
X003212Y002097D01*
X003181Y002129D01*
X003154Y002164D01*
X003130Y002201D01*
X003109Y002240D01*
X003091Y002280D01*
X003078Y002322D01*
X003068Y002365D01*
X003062Y002409D01*
X003060Y002453D01*
X016391Y014853D02*
X016393Y014894D01*
X016399Y014935D01*
X016409Y014975D01*
X016422Y015014D01*
X016439Y015051D01*
X016460Y015087D01*
X016484Y015121D01*
X016511Y015152D01*
X016540Y015180D01*
X016573Y015206D01*
X016607Y015228D01*
X016644Y015247D01*
X016682Y015262D01*
X016722Y015274D01*
X016762Y015282D01*
X016803Y015286D01*
X016845Y015286D01*
X016886Y015282D01*
X016926Y015274D01*
X016966Y015262D01*
X017004Y015247D01*
X017040Y015228D01*
X017075Y015206D01*
X017108Y015180D01*
X017137Y015152D01*
X017164Y015121D01*
X017188Y015087D01*
X017209Y015051D01*
X017226Y015014D01*
X017239Y014975D01*
X017249Y014935D01*
X017255Y014894D01*
X017257Y014853D01*
X017255Y014812D01*
X017249Y014771D01*
X017239Y014731D01*
X017226Y014692D01*
X017209Y014655D01*
X017188Y014619D01*
X017164Y014585D01*
X017137Y014554D01*
X017108Y014526D01*
X017075Y014500D01*
X017041Y014478D01*
X017004Y014459D01*
X016966Y014444D01*
X016926Y014432D01*
X016886Y014424D01*
X016845Y014420D01*
X016803Y014420D01*
X016762Y014424D01*
X016722Y014432D01*
X016682Y014444D01*
X016644Y014459D01*
X016608Y014478D01*
X016573Y014500D01*
X016540Y014526D01*
X016511Y014554D01*
X016484Y014585D01*
X016460Y014619D01*
X016439Y014655D01*
X016422Y014692D01*
X016409Y014731D01*
X016399Y014771D01*
X016393Y014812D01*
X016391Y014853D01*
X012596Y017523D02*
X012598Y017550D01*
X012604Y017577D01*
X012613Y017603D01*
X012626Y017627D01*
X012642Y017650D01*
X012661Y017669D01*
X012683Y017686D01*
X012707Y017700D01*
X012732Y017710D01*
X012759Y017717D01*
X012786Y017720D01*
X012814Y017719D01*
X012841Y017714D01*
X012867Y017706D01*
X012891Y017694D01*
X012914Y017678D01*
X012935Y017660D01*
X012952Y017639D01*
X012967Y017615D01*
X012978Y017590D01*
X012986Y017564D01*
X012990Y017537D01*
X012990Y017509D01*
X012986Y017482D01*
X012978Y017456D01*
X012967Y017431D01*
X012952Y017407D01*
X012935Y017386D01*
X012914Y017368D01*
X012892Y017352D01*
X012867Y017340D01*
X012841Y017332D01*
X012814Y017327D01*
X012786Y017326D01*
X012759Y017329D01*
X012732Y017336D01*
X012707Y017346D01*
X012683Y017360D01*
X012661Y017377D01*
X012642Y017396D01*
X012626Y017419D01*
X012613Y017443D01*
X012604Y017469D01*
X012598Y017496D01*
X012596Y017523D01*
X012065Y017759D02*
X012067Y017786D01*
X012073Y017813D01*
X012082Y017839D01*
X012095Y017863D01*
X012111Y017886D01*
X012130Y017905D01*
X012152Y017922D01*
X012176Y017936D01*
X012201Y017946D01*
X012228Y017953D01*
X012255Y017956D01*
X012283Y017955D01*
X012310Y017950D01*
X012336Y017942D01*
X012360Y017930D01*
X012383Y017914D01*
X012404Y017896D01*
X012421Y017875D01*
X012436Y017851D01*
X012447Y017826D01*
X012455Y017800D01*
X012459Y017773D01*
X012459Y017745D01*
X012455Y017718D01*
X012447Y017692D01*
X012436Y017667D01*
X012421Y017643D01*
X012404Y017622D01*
X012383Y017604D01*
X012361Y017588D01*
X012336Y017576D01*
X012310Y017568D01*
X012283Y017563D01*
X012255Y017562D01*
X012228Y017565D01*
X012201Y017572D01*
X012176Y017582D01*
X012152Y017596D01*
X012130Y017613D01*
X012111Y017632D01*
X012095Y017655D01*
X012082Y017679D01*
X012073Y017705D01*
X012067Y017732D01*
X012065Y017759D01*
X013088Y017818D02*
X013090Y017845D01*
X013096Y017872D01*
X013105Y017898D01*
X013118Y017922D01*
X013134Y017945D01*
X013153Y017964D01*
X013175Y017981D01*
X013199Y017995D01*
X013224Y018005D01*
X013251Y018012D01*
X013278Y018015D01*
X013306Y018014D01*
X013333Y018009D01*
X013359Y018001D01*
X013383Y017989D01*
X013406Y017973D01*
X013427Y017955D01*
X013444Y017934D01*
X013459Y017910D01*
X013470Y017885D01*
X013478Y017859D01*
X013482Y017832D01*
X013482Y017804D01*
X013478Y017777D01*
X013470Y017751D01*
X013459Y017726D01*
X013444Y017702D01*
X013427Y017681D01*
X013406Y017663D01*
X013384Y017647D01*
X013359Y017635D01*
X013333Y017627D01*
X013306Y017622D01*
X013278Y017621D01*
X013251Y017624D01*
X013224Y017631D01*
X013199Y017641D01*
X013175Y017655D01*
X013153Y017672D01*
X013134Y017691D01*
X013118Y017714D01*
X013105Y017738D01*
X013096Y017764D01*
X013090Y017791D01*
X013088Y017818D01*
X013620Y018133D02*
X013622Y018160D01*
X013628Y018187D01*
X013637Y018213D01*
X013650Y018237D01*
X013666Y018260D01*
X013685Y018279D01*
X013707Y018296D01*
X013731Y018310D01*
X013756Y018320D01*
X013783Y018327D01*
X013810Y018330D01*
X013838Y018329D01*
X013865Y018324D01*
X013891Y018316D01*
X013915Y018304D01*
X013938Y018288D01*
X013959Y018270D01*
X013976Y018249D01*
X013991Y018225D01*
X014002Y018200D01*
X014010Y018174D01*
X014014Y018147D01*
X014014Y018119D01*
X014010Y018092D01*
X014002Y018066D01*
X013991Y018041D01*
X013976Y018017D01*
X013959Y017996D01*
X013938Y017978D01*
X013916Y017962D01*
X013891Y017950D01*
X013865Y017942D01*
X013838Y017937D01*
X013810Y017936D01*
X013783Y017939D01*
X013756Y017946D01*
X013731Y017956D01*
X013707Y017970D01*
X013685Y017987D01*
X013666Y018006D01*
X013650Y018029D01*
X013637Y018053D01*
X013628Y018079D01*
X013622Y018106D01*
X013620Y018133D01*
X013068Y018369D02*
X013070Y018396D01*
X013076Y018423D01*
X013085Y018449D01*
X013098Y018473D01*
X013114Y018496D01*
X013133Y018515D01*
X013155Y018532D01*
X013179Y018546D01*
X013204Y018556D01*
X013231Y018563D01*
X013258Y018566D01*
X013286Y018565D01*
X013313Y018560D01*
X013339Y018552D01*
X013363Y018540D01*
X013386Y018524D01*
X013407Y018506D01*
X013424Y018485D01*
X013439Y018461D01*
X013450Y018436D01*
X013458Y018410D01*
X013462Y018383D01*
X013462Y018355D01*
X013458Y018328D01*
X013450Y018302D01*
X013439Y018277D01*
X013424Y018253D01*
X013407Y018232D01*
X013386Y018214D01*
X013364Y018198D01*
X013339Y018186D01*
X013313Y018178D01*
X013286Y018173D01*
X013258Y018172D01*
X013231Y018175D01*
X013204Y018182D01*
X013179Y018192D01*
X013155Y018206D01*
X013133Y018223D01*
X013114Y018242D01*
X013098Y018265D01*
X013085Y018289D01*
X013076Y018315D01*
X013070Y018342D01*
X013068Y018369D01*
X014112Y018408D02*
X014114Y018435D01*
X014120Y018462D01*
X014129Y018488D01*
X014142Y018512D01*
X014158Y018535D01*
X014177Y018554D01*
X014199Y018571D01*
X014223Y018585D01*
X014248Y018595D01*
X014275Y018602D01*
X014302Y018605D01*
X014330Y018604D01*
X014357Y018599D01*
X014383Y018591D01*
X014407Y018579D01*
X014430Y018563D01*
X014451Y018545D01*
X014468Y018524D01*
X014483Y018500D01*
X014494Y018475D01*
X014502Y018449D01*
X014506Y018422D01*
X014506Y018394D01*
X014502Y018367D01*
X014494Y018341D01*
X014483Y018316D01*
X014468Y018292D01*
X014451Y018271D01*
X014430Y018253D01*
X014408Y018237D01*
X014383Y018225D01*
X014357Y018217D01*
X014330Y018212D01*
X014302Y018211D01*
X014275Y018214D01*
X014248Y018221D01*
X014223Y018231D01*
X014199Y018245D01*
X014177Y018262D01*
X014158Y018281D01*
X014142Y018304D01*
X014129Y018328D01*
X014120Y018354D01*
X014114Y018381D01*
X014112Y018408D01*
X014624Y018684D02*
X014626Y018711D01*
X014632Y018738D01*
X014641Y018764D01*
X014654Y018788D01*
X014670Y018811D01*
X014689Y018830D01*
X014711Y018847D01*
X014735Y018861D01*
X014760Y018871D01*
X014787Y018878D01*
X014814Y018881D01*
X014842Y018880D01*
X014869Y018875D01*
X014895Y018867D01*
X014919Y018855D01*
X014942Y018839D01*
X014963Y018821D01*
X014980Y018800D01*
X014995Y018776D01*
X015006Y018751D01*
X015014Y018725D01*
X015018Y018698D01*
X015018Y018670D01*
X015014Y018643D01*
X015006Y018617D01*
X014995Y018592D01*
X014980Y018568D01*
X014963Y018547D01*
X014942Y018529D01*
X014920Y018513D01*
X014895Y018501D01*
X014869Y018493D01*
X014842Y018488D01*
X014814Y018487D01*
X014787Y018490D01*
X014760Y018497D01*
X014735Y018507D01*
X014711Y018521D01*
X014689Y018538D01*
X014670Y018557D01*
X014654Y018580D01*
X014641Y018604D01*
X014632Y018630D01*
X014626Y018657D01*
X014624Y018684D01*
X014112Y018960D02*
X014114Y018987D01*
X014120Y019014D01*
X014129Y019040D01*
X014142Y019064D01*
X014158Y019087D01*
X014177Y019106D01*
X014199Y019123D01*
X014223Y019137D01*
X014248Y019147D01*
X014275Y019154D01*
X014302Y019157D01*
X014330Y019156D01*
X014357Y019151D01*
X014383Y019143D01*
X014407Y019131D01*
X014430Y019115D01*
X014451Y019097D01*
X014468Y019076D01*
X014483Y019052D01*
X014494Y019027D01*
X014502Y019001D01*
X014506Y018974D01*
X014506Y018946D01*
X014502Y018919D01*
X014494Y018893D01*
X014483Y018868D01*
X014468Y018844D01*
X014451Y018823D01*
X014430Y018805D01*
X014408Y018789D01*
X014383Y018777D01*
X014357Y018769D01*
X014330Y018764D01*
X014302Y018763D01*
X014275Y018766D01*
X014248Y018773D01*
X014223Y018783D01*
X014199Y018797D01*
X014177Y018814D01*
X014158Y018833D01*
X014142Y018856D01*
X014129Y018880D01*
X014120Y018906D01*
X014114Y018933D01*
X014112Y018960D01*
X015057Y019452D02*
X015059Y019479D01*
X015065Y019506D01*
X015074Y019532D01*
X015087Y019556D01*
X015103Y019579D01*
X015122Y019598D01*
X015144Y019615D01*
X015168Y019629D01*
X015193Y019639D01*
X015220Y019646D01*
X015247Y019649D01*
X015275Y019648D01*
X015302Y019643D01*
X015328Y019635D01*
X015352Y019623D01*
X015375Y019607D01*
X015396Y019589D01*
X015413Y019568D01*
X015428Y019544D01*
X015439Y019519D01*
X015447Y019493D01*
X015451Y019466D01*
X015451Y019438D01*
X015447Y019411D01*
X015439Y019385D01*
X015428Y019360D01*
X015413Y019336D01*
X015396Y019315D01*
X015375Y019297D01*
X015353Y019281D01*
X015328Y019269D01*
X015302Y019261D01*
X015275Y019256D01*
X015247Y019255D01*
X015220Y019258D01*
X015193Y019265D01*
X015168Y019275D01*
X015144Y019289D01*
X015122Y019306D01*
X015103Y019325D01*
X015087Y019348D01*
X015074Y019372D01*
X015065Y019398D01*
X015059Y019425D01*
X015057Y019452D01*
X015116Y018920D02*
X015118Y018947D01*
X015124Y018974D01*
X015133Y019000D01*
X015146Y019024D01*
X015162Y019047D01*
X015181Y019066D01*
X015203Y019083D01*
X015227Y019097D01*
X015252Y019107D01*
X015279Y019114D01*
X015306Y019117D01*
X015334Y019116D01*
X015361Y019111D01*
X015387Y019103D01*
X015411Y019091D01*
X015434Y019075D01*
X015455Y019057D01*
X015472Y019036D01*
X015487Y019012D01*
X015498Y018987D01*
X015506Y018961D01*
X015510Y018934D01*
X015510Y018906D01*
X015506Y018879D01*
X015498Y018853D01*
X015487Y018828D01*
X015472Y018804D01*
X015455Y018783D01*
X015434Y018765D01*
X015412Y018749D01*
X015387Y018737D01*
X015361Y018729D01*
X015334Y018724D01*
X015306Y018723D01*
X015279Y018726D01*
X015252Y018733D01*
X015227Y018743D01*
X015203Y018757D01*
X015181Y018774D01*
X015162Y018793D01*
X015146Y018816D01*
X015133Y018840D01*
X015124Y018866D01*
X015118Y018893D01*
X015116Y018920D01*
X015608Y019176D02*
X015610Y019203D01*
X015616Y019230D01*
X015625Y019256D01*
X015638Y019280D01*
X015654Y019303D01*
X015673Y019322D01*
X015695Y019339D01*
X015719Y019353D01*
X015744Y019363D01*
X015771Y019370D01*
X015798Y019373D01*
X015826Y019372D01*
X015853Y019367D01*
X015879Y019359D01*
X015903Y019347D01*
X015926Y019331D01*
X015947Y019313D01*
X015964Y019292D01*
X015979Y019268D01*
X015990Y019243D01*
X015998Y019217D01*
X016002Y019190D01*
X016002Y019162D01*
X015998Y019135D01*
X015990Y019109D01*
X015979Y019084D01*
X015964Y019060D01*
X015947Y019039D01*
X015926Y019021D01*
X015904Y019005D01*
X015879Y018993D01*
X015853Y018985D01*
X015826Y018980D01*
X015798Y018979D01*
X015771Y018982D01*
X015744Y018989D01*
X015719Y018999D01*
X015695Y019013D01*
X015673Y019030D01*
X015654Y019049D01*
X015638Y019072D01*
X015625Y019096D01*
X015616Y019122D01*
X015610Y019149D01*
X015608Y019176D01*
X016120Y019412D02*
X016122Y019439D01*
X016128Y019466D01*
X016137Y019492D01*
X016150Y019516D01*
X016166Y019539D01*
X016185Y019558D01*
X016207Y019575D01*
X016231Y019589D01*
X016256Y019599D01*
X016283Y019606D01*
X016310Y019609D01*
X016338Y019608D01*
X016365Y019603D01*
X016391Y019595D01*
X016415Y019583D01*
X016438Y019567D01*
X016459Y019549D01*
X016476Y019528D01*
X016491Y019504D01*
X016502Y019479D01*
X016510Y019453D01*
X016514Y019426D01*
X016514Y019398D01*
X016510Y019371D01*
X016502Y019345D01*
X016491Y019320D01*
X016476Y019296D01*
X016459Y019275D01*
X016438Y019257D01*
X016416Y019241D01*
X016391Y019229D01*
X016365Y019221D01*
X016338Y019216D01*
X016310Y019215D01*
X016283Y019218D01*
X016256Y019225D01*
X016231Y019235D01*
X016207Y019249D01*
X016185Y019266D01*
X016166Y019285D01*
X016150Y019308D01*
X016137Y019332D01*
X016128Y019358D01*
X016122Y019385D01*
X016120Y019412D01*
X016120Y019944D02*
X016122Y019971D01*
X016128Y019998D01*
X016137Y020024D01*
X016150Y020048D01*
X016166Y020071D01*
X016185Y020090D01*
X016207Y020107D01*
X016231Y020121D01*
X016256Y020131D01*
X016283Y020138D01*
X016310Y020141D01*
X016338Y020140D01*
X016365Y020135D01*
X016391Y020127D01*
X016415Y020115D01*
X016438Y020099D01*
X016459Y020081D01*
X016476Y020060D01*
X016491Y020036D01*
X016502Y020011D01*
X016510Y019985D01*
X016514Y019958D01*
X016514Y019930D01*
X016510Y019903D01*
X016502Y019877D01*
X016491Y019852D01*
X016476Y019828D01*
X016459Y019807D01*
X016438Y019789D01*
X016416Y019773D01*
X016391Y019761D01*
X016365Y019753D01*
X016338Y019748D01*
X016310Y019747D01*
X016283Y019750D01*
X016256Y019757D01*
X016231Y019767D01*
X016207Y019781D01*
X016185Y019798D01*
X016166Y019817D01*
X016150Y019840D01*
X016137Y019864D01*
X016128Y019890D01*
X016122Y019917D01*
X016120Y019944D01*
X012478Y021079D02*
X012480Y021123D01*
X012486Y021167D01*
X012496Y021210D01*
X012509Y021252D01*
X012527Y021292D01*
X012548Y021331D01*
X012572Y021368D01*
X012599Y021403D01*
X012630Y021435D01*
X012663Y021464D01*
X012699Y021490D01*
X012737Y021512D01*
X012777Y021531D01*
X012818Y021547D01*
X012861Y021559D01*
X012904Y021567D01*
X012948Y021571D01*
X012992Y021571D01*
X013036Y021567D01*
X013079Y021559D01*
X013122Y021547D01*
X013163Y021531D01*
X013203Y021512D01*
X013241Y021490D01*
X013277Y021464D01*
X013310Y021435D01*
X013341Y021403D01*
X013368Y021368D01*
X013392Y021331D01*
X013413Y021292D01*
X013431Y021252D01*
X013444Y021210D01*
X013454Y021167D01*
X013460Y021123D01*
X013462Y021079D01*
X013460Y021035D01*
X013454Y020991D01*
X013444Y020948D01*
X013431Y020906D01*
X013413Y020866D01*
X013392Y020827D01*
X013368Y020790D01*
X013341Y020755D01*
X013310Y020723D01*
X013277Y020694D01*
X013241Y020668D01*
X013203Y020646D01*
X013163Y020627D01*
X013122Y020611D01*
X013079Y020599D01*
X013036Y020591D01*
X012992Y020587D01*
X012948Y020587D01*
X012904Y020591D01*
X012861Y020599D01*
X012818Y020611D01*
X012777Y020627D01*
X012737Y020646D01*
X012699Y020668D01*
X012663Y020694D01*
X012630Y020723D01*
X012599Y020755D01*
X012572Y020790D01*
X012548Y020827D01*
X012527Y020866D01*
X012509Y020906D01*
X012496Y020948D01*
X012486Y020991D01*
X012480Y021035D01*
X012478Y021079D01*
X020144Y008781D02*
X020146Y008822D01*
X020152Y008863D01*
X020162Y008903D01*
X020175Y008942D01*
X020192Y008979D01*
X020213Y009015D01*
X020237Y009049D01*
X020264Y009080D01*
X020293Y009108D01*
X020326Y009134D01*
X020360Y009156D01*
X020397Y009175D01*
X020435Y009190D01*
X020475Y009202D01*
X020515Y009210D01*
X020556Y009214D01*
X020598Y009214D01*
X020639Y009210D01*
X020679Y009202D01*
X020719Y009190D01*
X020757Y009175D01*
X020793Y009156D01*
X020828Y009134D01*
X020861Y009108D01*
X020890Y009080D01*
X020917Y009049D01*
X020941Y009015D01*
X020962Y008979D01*
X020979Y008942D01*
X020992Y008903D01*
X021002Y008863D01*
X021008Y008822D01*
X021010Y008781D01*
X021008Y008740D01*
X021002Y008699D01*
X020992Y008659D01*
X020979Y008620D01*
X020962Y008583D01*
X020941Y008547D01*
X020917Y008513D01*
X020890Y008482D01*
X020861Y008454D01*
X020828Y008428D01*
X020794Y008406D01*
X020757Y008387D01*
X020719Y008372D01*
X020679Y008360D01*
X020639Y008352D01*
X020598Y008348D01*
X020556Y008348D01*
X020515Y008352D01*
X020475Y008360D01*
X020435Y008372D01*
X020397Y008387D01*
X020361Y008406D01*
X020326Y008428D01*
X020293Y008454D01*
X020264Y008482D01*
X020237Y008513D01*
X020213Y008547D01*
X020192Y008583D01*
X020175Y008620D01*
X020162Y008659D01*
X020152Y008699D01*
X020146Y008740D01*
X020144Y008781D01*
X023929Y002550D02*
X023931Y002594D01*
X023937Y002638D01*
X023947Y002681D01*
X023960Y002723D01*
X023978Y002763D01*
X023999Y002802D01*
X024023Y002839D01*
X024050Y002874D01*
X024081Y002906D01*
X024114Y002935D01*
X024150Y002961D01*
X024188Y002983D01*
X024228Y003002D01*
X024269Y003018D01*
X024312Y003030D01*
X024355Y003038D01*
X024399Y003042D01*
X024443Y003042D01*
X024487Y003038D01*
X024530Y003030D01*
X024573Y003018D01*
X024614Y003002D01*
X024654Y002983D01*
X024692Y002961D01*
X024728Y002935D01*
X024761Y002906D01*
X024792Y002874D01*
X024819Y002839D01*
X024843Y002802D01*
X024864Y002763D01*
X024882Y002723D01*
X024895Y002681D01*
X024905Y002638D01*
X024911Y002594D01*
X024913Y002550D01*
X024911Y002506D01*
X024905Y002462D01*
X024895Y002419D01*
X024882Y002377D01*
X024864Y002337D01*
X024843Y002298D01*
X024819Y002261D01*
X024792Y002226D01*
X024761Y002194D01*
X024728Y002165D01*
X024692Y002139D01*
X024654Y002117D01*
X024614Y002098D01*
X024573Y002082D01*
X024530Y002070D01*
X024487Y002062D01*
X024443Y002058D01*
X024399Y002058D01*
X024355Y002062D01*
X024312Y002070D01*
X024269Y002082D01*
X024228Y002098D01*
X024188Y002117D01*
X024150Y002139D01*
X024114Y002165D01*
X024081Y002194D01*
X024050Y002226D01*
X024023Y002261D01*
X023999Y002298D01*
X023978Y002337D01*
X023960Y002377D01*
X023947Y002419D01*
X023937Y002462D01*
X023931Y002506D01*
X023929Y002550D01*
X033359Y021185D02*
X033361Y021229D01*
X033367Y021273D01*
X033377Y021316D01*
X033390Y021358D01*
X033408Y021398D01*
X033429Y021437D01*
X033453Y021474D01*
X033480Y021509D01*
X033511Y021541D01*
X033544Y021570D01*
X033580Y021596D01*
X033618Y021618D01*
X033658Y021637D01*
X033699Y021653D01*
X033742Y021665D01*
X033785Y021673D01*
X033829Y021677D01*
X033873Y021677D01*
X033917Y021673D01*
X033960Y021665D01*
X034003Y021653D01*
X034044Y021637D01*
X034084Y021618D01*
X034122Y021596D01*
X034158Y021570D01*
X034191Y021541D01*
X034222Y021509D01*
X034249Y021474D01*
X034273Y021437D01*
X034294Y021398D01*
X034312Y021358D01*
X034325Y021316D01*
X034335Y021273D01*
X034341Y021229D01*
X034343Y021185D01*
X034341Y021141D01*
X034335Y021097D01*
X034325Y021054D01*
X034312Y021012D01*
X034294Y020972D01*
X034273Y020933D01*
X034249Y020896D01*
X034222Y020861D01*
X034191Y020829D01*
X034158Y020800D01*
X034122Y020774D01*
X034084Y020752D01*
X034044Y020733D01*
X034003Y020717D01*
X033960Y020705D01*
X033917Y020697D01*
X033873Y020693D01*
X033829Y020693D01*
X033785Y020697D01*
X033742Y020705D01*
X033699Y020717D01*
X033658Y020733D01*
X033618Y020752D01*
X033580Y020774D01*
X033544Y020800D01*
X033511Y020829D01*
X033480Y020861D01*
X033453Y020896D01*
X033429Y020933D01*
X033408Y020972D01*
X033390Y021012D01*
X033377Y021054D01*
X033367Y021097D01*
X033361Y021141D01*
X033359Y021185D01*
D11*
G36*
X019387Y012168D02*
X019889Y012419D01*
X019951Y012296D01*
X019449Y012045D01*
X019387Y012168D01*
G37*
G36*
X019272Y012396D02*
X019774Y012647D01*
X019836Y012524D01*
X019334Y012273D01*
X019272Y012396D01*
G37*
G36*
X019158Y012625D02*
X019660Y012876D01*
X019722Y012753D01*
X019220Y012502D01*
X019158Y012625D01*
G37*
G36*
X019043Y012854D02*
X019545Y013105D01*
X019607Y012982D01*
X019105Y012731D01*
X019043Y012854D01*
G37*
G36*
X018929Y013083D02*
X019431Y013334D01*
X019493Y013211D01*
X018991Y012960D01*
X018929Y013083D01*
G37*
G36*
X019502Y011939D02*
X020004Y012190D01*
X020066Y012067D01*
X019564Y011816D01*
X019502Y011939D01*
G37*
G36*
X019616Y011710D02*
X020118Y011961D01*
X020180Y011838D01*
X019678Y011587D01*
X019616Y011710D01*
G37*
G36*
X019731Y011481D02*
X020233Y011732D01*
X020295Y011609D01*
X019793Y011358D01*
X019731Y011481D01*
G37*
G36*
X017830Y010529D02*
X018332Y010780D01*
X018394Y010657D01*
X017892Y010406D01*
X017830Y010529D01*
G37*
G36*
X017715Y010758D02*
X018217Y011009D01*
X018279Y010886D01*
X017777Y010635D01*
X017715Y010758D01*
G37*
G36*
X017601Y010987D02*
X018103Y011238D01*
X018165Y011115D01*
X017663Y010864D01*
X017601Y010987D01*
G37*
G36*
X017486Y011216D02*
X017988Y011467D01*
X018050Y011344D01*
X017548Y011093D01*
X017486Y011216D01*
G37*
G36*
X017372Y011444D02*
X017874Y011695D01*
X017936Y011572D01*
X017434Y011321D01*
X017372Y011444D01*
G37*
G36*
X017257Y011673D02*
X017759Y011924D01*
X017821Y011801D01*
X017319Y011550D01*
X017257Y011673D01*
G37*
G36*
X017142Y011902D02*
X017644Y012153D01*
X017706Y012030D01*
X017204Y011779D01*
X017142Y011902D01*
G37*
G36*
X017028Y012131D02*
X017530Y012382D01*
X017592Y012259D01*
X017090Y012008D01*
X017028Y012131D01*
G37*
D12*
G36*
X019702Y010397D02*
X019267Y010129D01*
X018938Y010665D01*
X019373Y010933D01*
X019702Y010397D01*
G37*
G36*
X020339Y010788D02*
X019904Y010520D01*
X019575Y011056D01*
X020010Y011324D01*
X020339Y010788D01*
G37*
D13*
G36*
X010839Y012518D02*
X010125Y011117D01*
X009249Y011564D01*
X009963Y012965D01*
X010839Y012518D01*
G37*
G36*
X009409Y009712D02*
X008695Y008311D01*
X007819Y008758D01*
X008533Y010159D01*
X009409Y009712D01*
G37*
D14*
X014505Y005102D03*
X014505Y001952D03*
D15*
X018013Y019831D03*
X018604Y019831D03*
X019194Y019831D03*
X019785Y019831D03*
X020356Y019831D03*
X020946Y019831D03*
X021537Y019831D03*
X022127Y019831D03*
D16*
X008680Y005023D03*
D17*
X011960Y005023D03*
X011960Y004353D03*
X011960Y003683D03*
X011960Y005693D03*
X011960Y006363D03*
D18*
X018135Y003052D03*
X021048Y003052D03*
D19*
X024679Y005374D03*
X025133Y006265D03*
X025587Y007156D03*
X026041Y008047D03*
X026495Y008938D03*
D20*
X023801Y018047D03*
X023801Y019897D03*
D21*
X005669Y005085D03*
X005669Y003474D03*
D22*
X005619Y005080D02*
X004840Y005122D01*
X004840Y005603D01*
X004873Y005614D01*
X004927Y005632D01*
X004927Y005632D01*
X004928Y005632D01*
X004971Y005669D01*
X005015Y005707D01*
X005015Y005707D01*
X005015Y005707D01*
X005040Y005758D01*
X006477Y008623D01*
X006503Y008674D01*
X006503Y008674D01*
X006503Y008674D01*
X006507Y008732D01*
X006512Y008789D01*
X006512Y008789D01*
X006512Y008789D01*
X006494Y008844D01*
X006476Y008898D01*
X006475Y008899D01*
X006438Y008942D01*
X006400Y008986D01*
X006400Y008986D01*
X006400Y008986D01*
X006349Y009012D01*
X005593Y009393D01*
X008795Y015798D01*
X009412Y016350D01*
X009454Y016387D01*
X009455Y016389D01*
X009457Y016390D01*
X009481Y016440D01*
X012323Y022134D01*
X018687Y022134D01*
X018743Y022133D01*
X018745Y022134D01*
X018746Y022134D01*
X018798Y022156D01*
X019532Y022449D01*
X026699Y022449D01*
X026699Y021589D01*
X026743Y021482D01*
X026825Y021401D01*
X026932Y021357D01*
X028252Y021357D01*
X028305Y019530D01*
X025590Y020840D01*
X024917Y020843D01*
X024659Y021101D01*
X024555Y021205D01*
X024419Y021261D01*
X021272Y021261D01*
X021136Y021205D01*
X021032Y021101D01*
X020797Y020866D01*
X018740Y020877D01*
X018686Y020932D01*
X018506Y021006D01*
X017748Y021006D01*
X017568Y020932D01*
X017520Y020884D01*
X016573Y020889D01*
X011829Y018434D01*
X010256Y014650D01*
X007319Y009112D01*
X007605Y008977D01*
X007534Y008837D01*
X007525Y008722D01*
X007560Y008612D01*
X007635Y008525D01*
X008615Y008025D01*
X008730Y008016D01*
X008840Y008052D01*
X008927Y008127D01*
X009020Y008308D01*
X010160Y007769D01*
X010156Y007439D01*
X006573Y007439D01*
X006466Y007395D01*
X006385Y007314D01*
X006341Y007207D01*
X006341Y005624D01*
X006339Y005627D01*
X006311Y005655D01*
X006277Y005675D01*
X006239Y005685D01*
X005719Y005685D01*
X005719Y005135D01*
X005619Y005135D01*
X005619Y005685D01*
X005099Y005685D01*
X005061Y005675D01*
X005027Y005655D01*
X004999Y005627D01*
X004979Y005593D01*
X004969Y005555D01*
X004969Y005135D01*
X005619Y005135D01*
X005619Y005080D01*
X005619Y005144D02*
X005719Y005144D01*
X005719Y005242D02*
X005619Y005242D01*
X005619Y005341D02*
X005719Y005341D01*
X005719Y005439D02*
X005619Y005439D01*
X005619Y005538D02*
X005719Y005538D01*
X005719Y005636D02*
X005619Y005636D01*
X005127Y005932D02*
X006341Y005932D01*
X006341Y006030D02*
X005177Y006030D01*
X005226Y006129D02*
X006341Y006129D01*
X006341Y006227D02*
X005276Y006227D01*
X005325Y006326D02*
X006341Y006326D01*
X006341Y006424D02*
X005374Y006424D01*
X005424Y006523D02*
X006341Y006523D01*
X006341Y006621D02*
X005473Y006621D01*
X005523Y006720D02*
X006341Y006720D01*
X006341Y006818D02*
X005572Y006818D01*
X005621Y006917D02*
X006341Y006917D01*
X006341Y007015D02*
X005671Y007015D01*
X005720Y007114D02*
X006341Y007114D01*
X006343Y007212D02*
X005770Y007212D01*
X005819Y007311D02*
X006383Y007311D01*
X006500Y007409D02*
X005869Y007409D01*
X005918Y007508D02*
X010157Y007508D01*
X010158Y007606D02*
X005967Y007606D01*
X006017Y007705D02*
X010159Y007705D01*
X010087Y007803D02*
X006066Y007803D01*
X006116Y007902D02*
X009879Y007902D01*
X009670Y008000D02*
X006165Y008000D01*
X006214Y008099D02*
X008471Y008099D01*
X008278Y008197D02*
X006264Y008197D01*
X006313Y008296D02*
X008085Y008296D01*
X007891Y008394D02*
X006363Y008394D01*
X006412Y008493D02*
X007698Y008493D01*
X007578Y008591D02*
X006462Y008591D01*
X006504Y008690D02*
X007535Y008690D01*
X007530Y008788D02*
X006512Y008788D01*
X006480Y008887D02*
X007559Y008887D01*
X007587Y008985D02*
X006401Y008985D01*
X006475Y008899D02*
X006475Y008899D01*
X006206Y009084D02*
X007378Y009084D01*
X007357Y009182D02*
X006011Y009182D01*
X005816Y009281D02*
X007409Y009281D01*
X007461Y009379D02*
X005621Y009379D01*
X005635Y009478D02*
X007513Y009478D01*
X007565Y009576D02*
X005684Y009576D01*
X005734Y009675D02*
X007618Y009675D01*
X007670Y009773D02*
X005783Y009773D01*
X005832Y009872D02*
X007722Y009872D01*
X007774Y009970D02*
X005881Y009970D01*
X005931Y010069D02*
X007827Y010069D01*
X007879Y010167D02*
X005980Y010167D01*
X006029Y010266D02*
X007931Y010266D01*
X007983Y010364D02*
X006078Y010364D01*
X006128Y010463D02*
X008036Y010463D01*
X008088Y010561D02*
X006177Y010561D01*
X006226Y010660D02*
X008140Y010660D01*
X008192Y010758D02*
X006275Y010758D01*
X006325Y010857D02*
X008245Y010857D01*
X008297Y010955D02*
X006374Y010955D01*
X006423Y011054D02*
X008349Y011054D01*
X008401Y011152D02*
X006472Y011152D01*
X006522Y011251D02*
X008453Y011251D01*
X008506Y011349D02*
X006571Y011349D01*
X006620Y011448D02*
X008558Y011448D01*
X008610Y011546D02*
X006669Y011546D01*
X006719Y011645D02*
X008662Y011645D01*
X008715Y011743D02*
X006768Y011743D01*
X006817Y011842D02*
X008767Y011842D01*
X008819Y011940D02*
X006866Y011940D01*
X006916Y012039D02*
X008871Y012039D01*
X008924Y012137D02*
X006965Y012137D01*
X007014Y012236D02*
X008976Y012236D01*
X009028Y012334D02*
X007063Y012334D01*
X007113Y012433D02*
X009080Y012433D01*
X009133Y012531D02*
X007162Y012531D01*
X007211Y012630D02*
X009185Y012630D01*
X009237Y012728D02*
X007260Y012728D01*
X007310Y012827D02*
X009289Y012827D01*
X009341Y012925D02*
X007359Y012925D01*
X007408Y013024D02*
X009394Y013024D01*
X009446Y013122D02*
X007457Y013122D01*
X007507Y013221D02*
X009498Y013221D01*
X009550Y013319D02*
X007556Y013319D01*
X007605Y013418D02*
X009603Y013418D01*
X009655Y013516D02*
X007654Y013516D01*
X007704Y013615D02*
X009707Y013615D01*
X009759Y013713D02*
X007753Y013713D01*
X007802Y013812D02*
X009812Y013812D01*
X009864Y013910D02*
X007851Y013910D01*
X007901Y014009D02*
X009916Y014009D01*
X009968Y014107D02*
X007950Y014107D01*
X007999Y014206D02*
X010021Y014206D01*
X010073Y014304D02*
X008048Y014304D01*
X008098Y014403D02*
X010125Y014403D01*
X010177Y014501D02*
X008147Y014501D01*
X008196Y014600D02*
X010229Y014600D01*
X010276Y014698D02*
X008245Y014698D01*
X008295Y014797D02*
X010317Y014797D01*
X010358Y014895D02*
X008344Y014895D01*
X008393Y014994D02*
X010399Y014994D01*
X010440Y015092D02*
X008442Y015092D01*
X008492Y015191D02*
X010481Y015191D01*
X010522Y015289D02*
X008541Y015289D01*
X008590Y015388D02*
X010563Y015388D01*
X010604Y015486D02*
X008639Y015486D01*
X008689Y015585D02*
X010645Y015585D01*
X010686Y015683D02*
X008738Y015683D01*
X008787Y015782D02*
X010727Y015782D01*
X010768Y015880D02*
X008887Y015880D01*
X008997Y015979D02*
X010809Y015979D01*
X010850Y016077D02*
X009107Y016077D01*
X009217Y016176D02*
X010891Y016176D01*
X010931Y016274D02*
X009327Y016274D01*
X009438Y016373D02*
X010972Y016373D01*
X011013Y016471D02*
X009496Y016471D01*
X009545Y016570D02*
X011054Y016570D01*
X011095Y016668D02*
X009594Y016668D01*
X009644Y016767D02*
X011136Y016767D01*
X011177Y016865D02*
X009693Y016865D01*
X009742Y016964D02*
X011218Y016964D01*
X011259Y017062D02*
X009791Y017062D01*
X009840Y017161D02*
X011300Y017161D01*
X011341Y017259D02*
X009889Y017259D01*
X009939Y017358D02*
X011382Y017358D01*
X011423Y017456D02*
X009988Y017456D01*
X010037Y017555D02*
X011464Y017555D01*
X011505Y017653D02*
X010086Y017653D01*
X010135Y017752D02*
X011546Y017752D01*
X011587Y017850D02*
X010184Y017850D01*
X010234Y017949D02*
X011628Y017949D01*
X011669Y018047D02*
X010283Y018047D01*
X010332Y018146D02*
X011710Y018146D01*
X011751Y018244D02*
X010381Y018244D01*
X010430Y018343D02*
X011792Y018343D01*
X011843Y018441D02*
X010479Y018441D01*
X010529Y018540D02*
X012034Y018540D01*
X012224Y018638D02*
X010578Y018638D01*
X010627Y018737D02*
X012414Y018737D01*
X012605Y018835D02*
X010676Y018835D01*
X010725Y018934D02*
X012795Y018934D01*
X012985Y019032D02*
X010774Y019032D01*
X010824Y019131D02*
X013176Y019131D01*
X013366Y019229D02*
X010873Y019229D01*
X010922Y019328D02*
X013556Y019328D01*
X013747Y019426D02*
X010971Y019426D01*
X011020Y019525D02*
X013937Y019525D01*
X014127Y019623D02*
X011069Y019623D01*
X011119Y019722D02*
X014318Y019722D01*
X014508Y019820D02*
X011168Y019820D01*
X011217Y019919D02*
X014698Y019919D01*
X014889Y020017D02*
X011266Y020017D01*
X011315Y020116D02*
X015079Y020116D01*
X015269Y020214D02*
X011364Y020214D01*
X011414Y020313D02*
X012777Y020313D01*
X012815Y020297D02*
X013126Y020297D01*
X013413Y020416D01*
X013633Y020636D01*
X013753Y020924D01*
X013753Y021235D01*
X013633Y021522D01*
X013413Y021742D01*
X013126Y021861D01*
X012815Y021861D01*
X012527Y021742D01*
X012307Y021522D01*
X012188Y021235D01*
X012188Y020924D01*
X012307Y020636D01*
X012527Y020416D01*
X012815Y020297D01*
X012540Y020411D02*
X011463Y020411D01*
X011512Y020510D02*
X012434Y020510D01*
X012335Y020608D02*
X011561Y020608D01*
X011610Y020707D02*
X012278Y020707D01*
X012237Y020805D02*
X011659Y020805D01*
X011709Y020904D02*
X012197Y020904D01*
X012188Y021002D02*
X011758Y021002D01*
X011807Y021101D02*
X012188Y021101D01*
X012188Y021199D02*
X011856Y021199D01*
X011905Y021298D02*
X012214Y021298D01*
X012255Y021396D02*
X011954Y021396D01*
X012004Y021495D02*
X012296Y021495D01*
X012378Y021593D02*
X012053Y021593D01*
X012102Y021692D02*
X012477Y021692D01*
X012643Y021790D02*
X012151Y021790D01*
X012200Y021889D02*
X026699Y021889D01*
X026699Y021987D02*
X012249Y021987D01*
X012299Y022086D02*
X026699Y022086D01*
X026699Y022184D02*
X018870Y022184D01*
X019116Y022283D02*
X026699Y022283D01*
X026699Y022381D02*
X019362Y022381D01*
X021032Y021101D02*
X013753Y021101D01*
X013753Y021199D02*
X021131Y021199D01*
X020934Y021002D02*
X018515Y021002D01*
X018714Y020904D02*
X020835Y020904D01*
X022508Y020084D02*
X023039Y020084D01*
X023091Y020038D01*
X023091Y019310D01*
X023214Y019187D01*
X024388Y019187D01*
X024511Y019310D01*
X024511Y020316D01*
X024618Y020209D01*
X024618Y018284D01*
X024579Y018245D01*
X024520Y018103D01*
X024520Y017948D01*
X024579Y017806D01*
X024688Y017697D01*
X024831Y017637D01*
X024985Y017637D01*
X025128Y017697D01*
X025237Y017806D01*
X025296Y017948D01*
X025296Y018103D01*
X025237Y018245D01*
X025198Y018284D01*
X025198Y020386D01*
X025154Y020493D01*
X025145Y020502D01*
X025512Y020500D01*
X026428Y020058D01*
X026439Y017447D01*
X026436Y017396D01*
X026313Y017345D01*
X026274Y017306D01*
X026099Y017306D01*
X026136Y017396D01*
X026136Y019445D01*
X026175Y019484D01*
X026234Y019627D01*
X026234Y019781D01*
X026175Y019924D01*
X026066Y020033D01*
X025923Y020092D01*
X025769Y020092D01*
X025626Y020033D01*
X025517Y019924D01*
X025458Y019781D01*
X025458Y019627D01*
X025517Y019484D01*
X025556Y019445D01*
X025556Y017619D01*
X024511Y017619D01*
X024511Y018634D01*
X024388Y018757D01*
X023214Y018757D01*
X023091Y018634D01*
X023091Y018244D01*
X021017Y018244D01*
X021046Y018314D02*
X020987Y018171D01*
X020948Y018132D01*
X020948Y017654D01*
X021494Y018200D01*
X021601Y018244D01*
X023091Y018244D01*
X023091Y018343D02*
X021046Y018343D01*
X021046Y018314D02*
X021046Y018468D01*
X020987Y018611D01*
X020878Y018720D01*
X020735Y018779D01*
X020581Y018779D01*
X020438Y018720D01*
X020329Y018611D01*
X020270Y018468D01*
X020270Y018314D01*
X020329Y018171D01*
X020368Y018132D01*
X020368Y015680D01*
X018636Y014630D01*
X018636Y016824D01*
X018592Y016930D01*
X018510Y017012D01*
X018303Y017219D01*
X018303Y019166D01*
X018436Y019034D01*
X018551Y018919D01*
X018702Y018856D01*
X022077Y018856D01*
X022228Y018919D01*
X022360Y019051D01*
X022475Y019166D01*
X022537Y019317D01*
X022537Y019651D01*
X022575Y019742D01*
X022575Y019920D01*
X022508Y020084D01*
X022535Y020017D02*
X023091Y020017D01*
X023091Y019919D02*
X022575Y019919D01*
X022575Y019820D02*
X023091Y019820D01*
X023091Y019722D02*
X022567Y019722D01*
X022537Y019623D02*
X023091Y019623D01*
X023091Y019525D02*
X022537Y019525D01*
X022537Y019426D02*
X023091Y019426D01*
X023091Y019328D02*
X022537Y019328D01*
X022501Y019229D02*
X023171Y019229D01*
X023193Y018737D02*
X020838Y018737D01*
X020960Y018638D02*
X023095Y018638D01*
X023091Y018540D02*
X021017Y018540D01*
X021046Y018441D02*
X023091Y018441D01*
X022440Y019131D02*
X024618Y019131D01*
X024618Y019229D02*
X024430Y019229D01*
X024511Y019328D02*
X024618Y019328D01*
X024618Y019426D02*
X024511Y019426D01*
X024511Y019525D02*
X024618Y019525D01*
X024618Y019623D02*
X024511Y019623D01*
X024511Y019722D02*
X024618Y019722D01*
X024618Y019820D02*
X024511Y019820D01*
X024511Y019919D02*
X024618Y019919D01*
X024618Y020017D02*
X024511Y020017D01*
X024511Y020116D02*
X024618Y020116D01*
X024613Y020214D02*
X024511Y020214D01*
X024511Y020313D02*
X024514Y020313D01*
X025188Y020411D02*
X025696Y020411D01*
X025900Y020313D02*
X025198Y020313D01*
X025198Y020214D02*
X026104Y020214D01*
X026081Y020017D02*
X026429Y020017D01*
X026429Y019919D02*
X026177Y019919D01*
X026218Y019820D02*
X026429Y019820D01*
X026430Y019722D02*
X026234Y019722D01*
X026232Y019623D02*
X026430Y019623D01*
X026431Y019525D02*
X026192Y019525D01*
X026136Y019426D02*
X026431Y019426D01*
X026431Y019328D02*
X026136Y019328D01*
X026136Y019229D02*
X026432Y019229D01*
X026432Y019131D02*
X026136Y019131D01*
X026136Y019032D02*
X026433Y019032D01*
X026433Y018934D02*
X026136Y018934D01*
X026136Y018835D02*
X026433Y018835D01*
X026434Y018737D02*
X026136Y018737D01*
X026136Y018638D02*
X026434Y018638D01*
X026435Y018540D02*
X026136Y018540D01*
X026136Y018441D02*
X026435Y018441D01*
X026435Y018343D02*
X026136Y018343D01*
X026136Y018244D02*
X026436Y018244D01*
X026436Y018146D02*
X026136Y018146D01*
X026136Y018047D02*
X026437Y018047D01*
X026437Y017949D02*
X026136Y017949D01*
X026136Y017850D02*
X026437Y017850D01*
X026438Y017752D02*
X026136Y017752D01*
X026136Y017653D02*
X026438Y017653D01*
X026439Y017555D02*
X026136Y017555D01*
X026136Y017456D02*
X026439Y017456D01*
X026344Y017358D02*
X026120Y017358D01*
X025556Y017653D02*
X025024Y017653D01*
X025183Y017752D02*
X025556Y017752D01*
X025556Y017850D02*
X025256Y017850D01*
X025296Y017949D02*
X025556Y017949D01*
X025556Y018047D02*
X025296Y018047D01*
X025279Y018146D02*
X025556Y018146D01*
X025556Y018244D02*
X025238Y018244D01*
X025198Y018343D02*
X025556Y018343D01*
X025556Y018441D02*
X025198Y018441D01*
X025198Y018540D02*
X025556Y018540D01*
X025556Y018638D02*
X025198Y018638D01*
X025198Y018737D02*
X025556Y018737D01*
X025556Y018835D02*
X025198Y018835D01*
X025198Y018934D02*
X025556Y018934D01*
X025556Y019032D02*
X025198Y019032D01*
X025198Y019131D02*
X025556Y019131D01*
X025556Y019229D02*
X025198Y019229D01*
X025198Y019328D02*
X025556Y019328D01*
X025556Y019426D02*
X025198Y019426D01*
X025198Y019525D02*
X025500Y019525D01*
X025459Y019623D02*
X025198Y019623D01*
X025198Y019722D02*
X025458Y019722D01*
X025474Y019820D02*
X025198Y019820D01*
X025198Y019919D02*
X025515Y019919D01*
X025610Y020017D02*
X025198Y020017D01*
X025198Y020116D02*
X026308Y020116D01*
X026478Y020411D02*
X028279Y020411D01*
X028265Y020411D02*
X026847Y020411D01*
X026847Y020313D02*
X028265Y020313D01*
X028282Y020313D02*
X026683Y020313D01*
X026848Y020214D02*
X028265Y020214D01*
X028285Y020214D02*
X026887Y020214D01*
X026848Y020116D02*
X028265Y020116D01*
X028288Y020116D02*
X027091Y020116D01*
X027295Y020017D02*
X028291Y020017D01*
X028265Y020017D02*
X026849Y020017D01*
X026849Y019919D02*
X028265Y019919D01*
X028294Y019919D02*
X027500Y019919D01*
X027704Y019820D02*
X028296Y019820D01*
X028265Y019820D02*
X026849Y019820D01*
X026850Y019722D02*
X028265Y019722D01*
X028299Y019722D02*
X027908Y019722D01*
X028112Y019623D02*
X028302Y019623D01*
X028265Y019623D02*
X026850Y019623D01*
X026851Y019525D02*
X028265Y019525D01*
X028265Y019426D02*
X026851Y019426D01*
X026851Y019328D02*
X028265Y019328D01*
X028265Y019229D02*
X026852Y019229D01*
X026852Y019131D02*
X028265Y019131D01*
X028265Y019078D02*
X028284Y017895D01*
X029291Y017311D01*
X028865Y016443D01*
X026922Y017402D01*
X026859Y017466D01*
X026843Y021307D01*
X026916Y021277D01*
X028265Y021277D01*
X028265Y019078D01*
X028266Y019032D02*
X026853Y019032D01*
X026853Y018934D02*
X028268Y018934D01*
X028269Y018835D02*
X026853Y018835D01*
X026854Y018737D02*
X028271Y018737D01*
X028272Y018638D02*
X026854Y018638D01*
X026855Y018540D02*
X028274Y018540D01*
X028276Y018441D02*
X026855Y018441D01*
X026855Y018343D02*
X028277Y018343D01*
X028279Y018244D02*
X026856Y018244D01*
X026856Y018146D02*
X028280Y018146D01*
X028282Y018047D02*
X026857Y018047D01*
X026857Y017949D02*
X028283Y017949D01*
X028361Y017850D02*
X026857Y017850D01*
X026858Y017752D02*
X028531Y017752D01*
X028701Y017653D02*
X026858Y017653D01*
X026859Y017555D02*
X028871Y017555D01*
X029041Y017456D02*
X026868Y017456D01*
X027012Y017358D02*
X029210Y017358D01*
X029266Y017259D02*
X027212Y017259D01*
X027411Y017161D02*
X029217Y017161D01*
X029169Y017062D02*
X027611Y017062D01*
X027810Y016964D02*
X029121Y016964D01*
X029072Y016865D02*
X028010Y016865D01*
X028209Y016767D02*
X029024Y016767D01*
X028976Y016668D02*
X028409Y016668D01*
X028608Y016570D02*
X028927Y016570D01*
X028879Y016471D02*
X028807Y016471D01*
X028605Y016103D02*
X028604Y016103D01*
X026920Y016935D01*
X026862Y016796D01*
X026753Y016687D01*
X026610Y016628D01*
X026456Y016628D01*
X026313Y016687D01*
X026274Y016726D01*
X024330Y016726D01*
X024359Y016656D01*
X024359Y016601D01*
X024467Y016493D01*
X024511Y016386D01*
X024511Y015699D01*
X025029Y015180D01*
X025073Y015074D01*
X025073Y014636D01*
X025653Y014056D01*
X025837Y014056D01*
X025876Y014095D01*
X026019Y014154D01*
X026173Y014154D01*
X026316Y014095D01*
X026425Y013986D01*
X026484Y013843D01*
X026484Y013689D01*
X026425Y013546D01*
X026316Y013437D01*
X026241Y013406D01*
X026556Y013091D01*
X026556Y014326D01*
X026600Y014433D01*
X027056Y014889D01*
X027056Y015209D01*
X026413Y015851D01*
X025292Y015851D01*
X025253Y015812D01*
X025110Y015753D01*
X024956Y015753D01*
X024813Y015812D01*
X024704Y015921D01*
X024645Y016064D01*
X024645Y016218D01*
X024704Y016361D01*
X024813Y016470D01*
X024956Y016529D01*
X025110Y016529D01*
X025253Y016470D01*
X025292Y016431D01*
X026591Y016431D01*
X026697Y016387D01*
X026779Y016305D01*
X026779Y016305D01*
X027592Y015493D01*
X027636Y015386D01*
X027636Y014711D01*
X027592Y014604D01*
X027136Y014149D01*
X027136Y012775D01*
X027175Y012736D01*
X027234Y012593D01*
X027234Y012439D01*
X027175Y012296D01*
X027066Y012187D01*
X026923Y012128D01*
X026769Y012128D01*
X026698Y012157D01*
X026698Y011833D01*
X026737Y011794D01*
X026796Y011651D01*
X026796Y011497D01*
X026737Y011354D01*
X026628Y011245D01*
X026485Y011186D01*
X026331Y011186D01*
X026188Y011245D01*
X026079Y011354D01*
X026020Y011497D01*
X026020Y011628D01*
X025894Y011628D01*
X025751Y011687D01*
X025712Y011726D01*
X025393Y011726D01*
X022851Y007042D01*
X022835Y007003D01*
X022824Y006991D01*
X022816Y006978D01*
X022783Y006951D01*
X022753Y006921D01*
X022739Y006915D01*
X022727Y006905D01*
X022686Y006893D01*
X022647Y006877D01*
X022631Y006877D01*
X022616Y006872D01*
X022574Y006877D01*
X021718Y006877D01*
X022136Y006392D01*
X022203Y006364D01*
X022318Y006248D01*
X022381Y006098D01*
X022381Y005499D01*
X022845Y005034D01*
X022833Y005064D01*
X022833Y005119D01*
X022750Y005201D01*
X022706Y005308D01*
X022706Y006348D01*
X022702Y006361D01*
X022706Y006405D01*
X022706Y006449D01*
X022712Y006462D01*
X022713Y006476D01*
X022734Y006515D01*
X022750Y006555D01*
X022761Y006566D01*
X024859Y010515D01*
X024875Y010555D01*
X024886Y010566D01*
X024892Y010578D01*
X024926Y010606D01*
X024957Y010637D01*
X024970Y010643D01*
X024981Y010652D01*
X025023Y010664D01*
X025064Y010681D01*
X025078Y010681D01*
X025092Y010685D01*
X025135Y010681D01*
X026351Y010681D01*
X027556Y011886D01*
X027556Y013945D01*
X027517Y013984D01*
X027458Y014127D01*
X027458Y014281D01*
X027517Y014424D01*
X027626Y014533D01*
X027769Y014592D01*
X027923Y014592D01*
X028066Y014533D01*
X028175Y014424D01*
X028234Y014281D01*
X028234Y014127D01*
X028175Y013984D01*
X028136Y013945D01*
X028136Y011709D01*
X028092Y011602D01*
X026717Y010227D01*
X026635Y010145D01*
X026528Y010101D01*
X025296Y010101D01*
X023286Y006319D01*
X023286Y005529D01*
X023298Y005529D01*
X023441Y005470D01*
X023550Y005361D01*
X023609Y005218D01*
X023609Y005064D01*
X023550Y004921D01*
X023441Y004812D01*
X023298Y004753D01*
X023144Y004753D01*
X023114Y004765D01*
X023328Y004551D01*
X024842Y004551D01*
X025005Y004881D01*
X024795Y004794D01*
X024564Y004794D01*
X024351Y004882D01*
X024188Y005045D01*
X023601Y005045D01*
X023609Y005144D02*
X024147Y005144D01*
X024106Y005242D02*
X023599Y005242D01*
X023558Y005341D02*
X024099Y005341D01*
X024099Y005258D02*
X024188Y005045D01*
X024286Y004947D02*
X023560Y004947D01*
X023477Y004848D02*
X024433Y004848D01*
X024926Y004848D02*
X024989Y004848D01*
X024940Y004750D02*
X023130Y004750D01*
X023228Y004651D02*
X024891Y004651D01*
X024842Y004553D02*
X023327Y004553D01*
X022840Y005045D02*
X022834Y005045D01*
X022808Y005144D02*
X022736Y005144D01*
X022734Y005242D02*
X022637Y005242D01*
X022706Y005341D02*
X022539Y005341D01*
X022440Y005439D02*
X022706Y005439D01*
X022706Y005538D02*
X022381Y005538D01*
X022381Y005636D02*
X022706Y005636D01*
X022706Y005735D02*
X022381Y005735D01*
X022381Y005833D02*
X022706Y005833D01*
X022706Y005932D02*
X022381Y005932D01*
X022381Y006030D02*
X022706Y006030D01*
X022706Y006129D02*
X022368Y006129D01*
X022327Y006227D02*
X022706Y006227D01*
X022706Y006326D02*
X022241Y006326D01*
X022108Y006424D02*
X022706Y006424D01*
X022737Y006523D02*
X022023Y006523D01*
X021938Y006621D02*
X022790Y006621D01*
X022842Y006720D02*
X021854Y006720D01*
X021769Y006818D02*
X022895Y006818D01*
X022947Y006917D02*
X022743Y006917D01*
X022840Y007015D02*
X022999Y007015D01*
X023052Y007114D02*
X022890Y007114D01*
X022943Y007212D02*
X023104Y007212D01*
X023156Y007311D02*
X022997Y007311D01*
X023050Y007409D02*
X023209Y007409D01*
X023261Y007508D02*
X023104Y007508D01*
X023157Y007606D02*
X023313Y007606D01*
X023366Y007705D02*
X023211Y007705D01*
X023264Y007803D02*
X023418Y007803D01*
X023470Y007902D02*
X023318Y007902D01*
X023371Y008000D02*
X023523Y008000D01*
X023575Y008099D02*
X023425Y008099D01*
X023478Y008197D02*
X023627Y008197D01*
X023680Y008296D02*
X023531Y008296D01*
X023585Y008394D02*
X023732Y008394D01*
X023784Y008493D02*
X023638Y008493D01*
X023692Y008591D02*
X023837Y008591D01*
X023889Y008690D02*
X023745Y008690D01*
X023799Y008788D02*
X023941Y008788D01*
X023994Y008887D02*
X023852Y008887D01*
X023906Y008985D02*
X024046Y008985D01*
X024098Y009084D02*
X023959Y009084D01*
X024013Y009182D02*
X024151Y009182D01*
X024203Y009281D02*
X024066Y009281D01*
X024120Y009379D02*
X024255Y009379D01*
X024308Y009478D02*
X024173Y009478D01*
X024226Y009576D02*
X024360Y009576D01*
X024412Y009675D02*
X024280Y009675D01*
X024333Y009773D02*
X024465Y009773D01*
X024517Y009872D02*
X024387Y009872D01*
X024440Y009970D02*
X024569Y009970D01*
X024622Y010069D02*
X024494Y010069D01*
X024547Y010167D02*
X024674Y010167D01*
X024726Y010266D02*
X024601Y010266D01*
X024654Y010364D02*
X024779Y010364D01*
X024831Y010463D02*
X024708Y010463D01*
X024761Y010561D02*
X024881Y010561D01*
X024814Y010660D02*
X025008Y010660D01*
X024868Y010758D02*
X026428Y010758D01*
X026526Y010857D02*
X024921Y010857D01*
X024975Y010955D02*
X026625Y010955D01*
X026723Y011054D02*
X025028Y011054D01*
X025082Y011152D02*
X026822Y011152D01*
X026920Y011251D02*
X026634Y011251D01*
X026732Y011349D02*
X027019Y011349D01*
X027117Y011448D02*
X026776Y011448D01*
X026796Y011546D02*
X027216Y011546D01*
X027314Y011645D02*
X026796Y011645D01*
X026758Y011743D02*
X027413Y011743D01*
X027511Y011842D02*
X026698Y011842D01*
X026698Y011940D02*
X027556Y011940D01*
X027556Y012039D02*
X026698Y012039D01*
X026698Y012137D02*
X026746Y012137D01*
X026945Y012137D02*
X027556Y012137D01*
X027556Y012236D02*
X027114Y012236D01*
X027190Y012334D02*
X027556Y012334D01*
X027556Y012433D02*
X027231Y012433D01*
X027234Y012531D02*
X027556Y012531D01*
X027556Y012630D02*
X027219Y012630D01*
X027178Y012728D02*
X027556Y012728D01*
X027556Y012827D02*
X027136Y012827D01*
X027136Y012925D02*
X027556Y012925D01*
X027556Y013024D02*
X027136Y013024D01*
X027136Y013122D02*
X027556Y013122D01*
X027556Y013221D02*
X027136Y013221D01*
X027136Y013319D02*
X027556Y013319D01*
X027556Y013418D02*
X027136Y013418D01*
X027136Y013516D02*
X027556Y013516D01*
X027556Y013615D02*
X027136Y013615D01*
X027136Y013713D02*
X027556Y013713D01*
X027556Y013812D02*
X027136Y013812D01*
X027136Y013910D02*
X027556Y013910D01*
X027506Y014009D02*
X027136Y014009D01*
X027136Y014107D02*
X027466Y014107D01*
X027458Y014206D02*
X027193Y014206D01*
X027291Y014304D02*
X027467Y014304D01*
X027508Y014403D02*
X027390Y014403D01*
X027488Y014501D02*
X027594Y014501D01*
X027587Y014600D02*
X031281Y014600D01*
X031203Y014639D02*
X031930Y014279D01*
X028684Y007834D01*
X028222Y007526D01*
X028166Y007507D01*
X028152Y007479D01*
X028126Y007462D01*
X028114Y007404D01*
X025124Y001424D01*
X018436Y001424D01*
X018379Y001439D01*
X018352Y001424D01*
X018321Y001424D01*
X018279Y001382D01*
X017797Y001107D01*
X015343Y001107D01*
X015374Y003392D01*
X015852Y003392D01*
X016540Y002704D01*
X016690Y002642D01*
X017374Y002642D01*
X017374Y002216D01*
X017497Y002093D01*
X018773Y002093D01*
X018896Y002216D01*
X018896Y003887D01*
X018773Y004010D01*
X017497Y004010D01*
X017374Y003887D01*
X017374Y003462D01*
X016942Y003462D01*
X016369Y004034D01*
X016254Y004150D01*
X016103Y004212D01*
X015107Y004212D01*
X015117Y004222D01*
X015137Y004257D01*
X022462Y004257D01*
X022364Y004356D02*
X015147Y004356D01*
X015147Y004295D02*
X015147Y005052D01*
X014555Y005052D01*
X014555Y005152D01*
X015147Y005152D01*
X015147Y005909D01*
X015137Y005947D01*
X015117Y005981D01*
X015089Y006009D01*
X015055Y006029D01*
X015017Y006039D01*
X014917Y006039D01*
X014938Y006090D01*
X014938Y006111D01*
X020668Y006111D01*
X020668Y006099D01*
X020727Y005956D01*
X020836Y005847D01*
X020979Y005788D01*
X021134Y005788D01*
X021276Y005847D01*
X021385Y005956D01*
X021434Y006073D01*
X021561Y005925D01*
X021561Y005247D01*
X021623Y005096D01*
X021738Y004981D01*
X022811Y003909D01*
X022926Y003794D01*
X023077Y003731D01*
X025082Y003731D01*
X025149Y003727D01*
X025163Y003731D01*
X025177Y003731D01*
X025240Y003757D01*
X025304Y003779D01*
X025315Y003788D01*
X025328Y003794D01*
X025376Y003841D01*
X025427Y003886D01*
X025433Y003899D01*
X025443Y003909D01*
X025469Y003971D01*
X027358Y007774D01*
X027371Y007788D01*
X027394Y007847D01*
X027421Y007903D01*
X027423Y007922D01*
X027430Y007941D01*
X027428Y008003D01*
X027433Y008066D01*
X027426Y008084D01*
X027426Y008104D01*
X027401Y008161D01*
X027381Y008220D01*
X027368Y008235D01*
X027075Y008896D01*
X027075Y009053D01*
X026987Y009266D01*
X026824Y009430D01*
X026611Y009518D01*
X026380Y009518D01*
X026167Y009430D01*
X026004Y009266D01*
X025915Y009053D01*
X025915Y008822D01*
X026004Y008609D01*
X026046Y008567D01*
X026001Y008567D01*
X025920Y008554D01*
X025842Y008529D01*
X025769Y008492D01*
X025703Y008443D01*
X025645Y008386D01*
X025602Y008327D01*
X026020Y008114D01*
X025974Y008025D01*
X025557Y008238D01*
X025534Y008169D01*
X025521Y008088D01*
X025521Y008006D01*
X025534Y007925D01*
X025560Y007847D01*
X025597Y007774D01*
X025625Y007736D01*
X025472Y007736D01*
X025259Y007648D01*
X025096Y007484D01*
X025007Y007271D01*
X025007Y007040D01*
X025088Y006845D01*
X025018Y006845D01*
X024805Y006757D01*
X024642Y006593D01*
X024553Y006380D01*
X024553Y006149D01*
X024634Y005954D01*
X024564Y005954D01*
X024351Y005866D01*
X024188Y005702D01*
X024099Y005489D01*
X024099Y005258D01*
X024099Y005439D02*
X023472Y005439D01*
X023286Y005538D02*
X024120Y005538D01*
X024160Y005636D02*
X023286Y005636D01*
X023286Y005735D02*
X024220Y005735D01*
X024319Y005833D02*
X023286Y005833D01*
X023286Y005932D02*
X024511Y005932D01*
X024603Y006030D02*
X023286Y006030D01*
X023286Y006129D02*
X024562Y006129D01*
X024553Y006227D02*
X023286Y006227D01*
X023290Y006326D02*
X024553Y006326D01*
X024572Y006424D02*
X023342Y006424D01*
X023395Y006523D02*
X024613Y006523D01*
X024670Y006621D02*
X023447Y006621D01*
X023499Y006720D02*
X024768Y006720D01*
X024954Y006818D02*
X023552Y006818D01*
X023604Y006917D02*
X025059Y006917D01*
X025018Y007015D02*
X023656Y007015D01*
X023709Y007114D02*
X025007Y007114D01*
X025007Y007212D02*
X023761Y007212D01*
X023813Y007311D02*
X025024Y007311D01*
X025065Y007409D02*
X023866Y007409D01*
X023918Y007508D02*
X025119Y007508D01*
X025218Y007606D02*
X023970Y007606D01*
X024022Y007705D02*
X025397Y007705D01*
X025582Y007803D02*
X024075Y007803D01*
X024127Y007902D02*
X025542Y007902D01*
X025522Y008000D02*
X024179Y008000D01*
X024232Y008099D02*
X025523Y008099D01*
X025544Y008197D02*
X024284Y008197D01*
X024336Y008296D02*
X025663Y008296D01*
X025653Y008394D02*
X024389Y008394D01*
X024441Y008493D02*
X025771Y008493D01*
X026022Y008591D02*
X024493Y008591D01*
X024546Y008690D02*
X025970Y008690D01*
X025930Y008788D02*
X024598Y008788D01*
X024650Y008887D02*
X025915Y008887D01*
X025915Y008985D02*
X024703Y008985D01*
X024755Y009084D02*
X025928Y009084D01*
X025969Y009182D02*
X024807Y009182D01*
X024860Y009281D02*
X026018Y009281D01*
X026117Y009379D02*
X024912Y009379D01*
X024964Y009478D02*
X026283Y009478D01*
X026708Y009478D02*
X029512Y009478D01*
X029561Y009576D02*
X025017Y009576D01*
X025069Y009675D02*
X029611Y009675D01*
X029660Y009773D02*
X025121Y009773D01*
X025174Y009872D02*
X029710Y009872D01*
X029760Y009970D02*
X025226Y009970D01*
X025278Y010069D02*
X029809Y010069D01*
X029859Y010167D02*
X026657Y010167D01*
X026755Y010266D02*
X029908Y010266D01*
X029958Y010364D02*
X026854Y010364D01*
X026952Y010463D02*
X030008Y010463D01*
X030057Y010561D02*
X027051Y010561D01*
X027149Y010660D02*
X030107Y010660D01*
X030157Y010758D02*
X027248Y010758D01*
X027346Y010857D02*
X030206Y010857D01*
X030256Y010955D02*
X027445Y010955D01*
X027543Y011054D02*
X030305Y011054D01*
X030355Y011152D02*
X027642Y011152D01*
X027740Y011251D02*
X030405Y011251D01*
X030454Y011349D02*
X027839Y011349D01*
X027937Y011448D02*
X030504Y011448D01*
X030553Y011546D02*
X028036Y011546D01*
X028109Y011645D02*
X030603Y011645D01*
X030653Y011743D02*
X028136Y011743D01*
X028136Y011842D02*
X030702Y011842D01*
X030752Y011940D02*
X028136Y011940D01*
X028136Y012039D02*
X030801Y012039D01*
X030851Y012137D02*
X028136Y012137D01*
X028136Y012236D02*
X030901Y012236D01*
X030950Y012334D02*
X028136Y012334D01*
X028136Y012433D02*
X031000Y012433D01*
X031050Y012531D02*
X028136Y012531D01*
X028136Y012630D02*
X031099Y012630D01*
X031149Y012728D02*
X028136Y012728D01*
X028136Y012827D02*
X031198Y012827D01*
X031248Y012925D02*
X028136Y012925D01*
X028136Y013024D02*
X031298Y013024D01*
X031347Y013122D02*
X028136Y013122D01*
X028136Y013221D02*
X031397Y013221D01*
X031446Y013319D02*
X028136Y013319D01*
X028136Y013418D02*
X031496Y013418D01*
X031546Y013516D02*
X028136Y013516D01*
X028136Y013615D02*
X031595Y013615D01*
X031645Y013713D02*
X028136Y013713D01*
X028136Y013812D02*
X031695Y013812D01*
X031744Y013910D02*
X028136Y013910D01*
X028185Y014009D02*
X031794Y014009D01*
X031843Y014107D02*
X028226Y014107D01*
X028234Y014206D02*
X031893Y014206D01*
X031878Y014304D02*
X028224Y014304D01*
X028183Y014403D02*
X031679Y014403D01*
X031480Y014501D02*
X028097Y014501D01*
X027630Y014698D02*
X031082Y014698D01*
X031047Y014716D02*
X031125Y014677D01*
X031202Y014638D01*
X031203Y014639D01*
X031047Y014716D02*
X031047Y014716D01*
X031047Y014716D01*
X031019Y014798D01*
X030991Y014880D01*
X030992Y014881D01*
X030992Y014881D01*
X031030Y014959D01*
X031069Y015036D01*
X031069Y015036D01*
X032506Y017911D01*
X032671Y017966D01*
X032827Y017888D01*
X032827Y017888D01*
X033254Y017674D01*
X035524Y022214D01*
X030313Y022213D01*
X030313Y021560D01*
X030190Y021437D01*
X028658Y021437D01*
X028662Y021423D01*
X028685Y021366D01*
X028685Y021344D01*
X028692Y021322D01*
X028685Y021261D01*
X028685Y019081D01*
X028700Y018139D01*
X029489Y017682D01*
X029551Y017651D01*
X029561Y017640D01*
X029574Y017632D01*
X029616Y017578D01*
X029662Y017526D01*
X029666Y017512D01*
X029675Y017500D01*
X029693Y017433D01*
X029716Y017368D01*
X029715Y017353D01*
X029718Y017338D01*
X029709Y017270D01*
X029705Y017201D01*
X029698Y017187D01*
X029696Y017173D01*
X029662Y017113D01*
X029279Y016332D01*
X029278Y016332D01*
X029242Y016257D01*
X029205Y016183D01*
X029205Y016182D01*
X029204Y016182D01*
X029142Y016127D01*
X029080Y016072D01*
X029079Y016072D01*
X029079Y016072D01*
X029000Y016045D01*
X028922Y016018D01*
X028921Y016018D01*
X028921Y016018D01*
X028838Y016024D01*
X028755Y016029D01*
X028754Y016029D01*
X028754Y016029D01*
X028679Y016066D01*
X028605Y016103D01*
X028657Y016077D02*
X027007Y016077D01*
X026909Y016176D02*
X028457Y016176D01*
X028258Y016274D02*
X026810Y016274D01*
X026712Y016373D02*
X028058Y016373D01*
X027859Y016471D02*
X025251Y016471D01*
X024816Y016471D02*
X024476Y016471D01*
X024511Y016373D02*
X024716Y016373D01*
X024668Y016274D02*
X024511Y016274D01*
X024511Y016176D02*
X024645Y016176D01*
X024645Y016077D02*
X024511Y016077D01*
X024511Y015979D02*
X024680Y015979D01*
X024745Y015880D02*
X024511Y015880D01*
X024511Y015782D02*
X024887Y015782D01*
X025180Y015782D02*
X026483Y015782D01*
X026581Y015683D02*
X024526Y015683D01*
X024625Y015585D02*
X026680Y015585D01*
X026778Y015486D02*
X024723Y015486D01*
X024822Y015388D02*
X026877Y015388D01*
X026975Y015289D02*
X024920Y015289D01*
X025019Y015191D02*
X027056Y015191D01*
X027056Y015092D02*
X025066Y015092D01*
X025073Y014994D02*
X027056Y014994D01*
X027056Y014895D02*
X025073Y014895D01*
X025073Y014797D02*
X026964Y014797D01*
X026865Y014698D02*
X025073Y014698D01*
X025110Y014600D02*
X026767Y014600D01*
X026668Y014501D02*
X025208Y014501D01*
X025307Y014403D02*
X026587Y014403D01*
X026556Y014304D02*
X025405Y014304D01*
X025504Y014206D02*
X026556Y014206D01*
X026556Y014107D02*
X026287Y014107D01*
X026402Y014009D02*
X026556Y014009D01*
X026556Y013910D02*
X026456Y013910D01*
X026484Y013812D02*
X026556Y013812D01*
X026556Y013713D02*
X026484Y013713D01*
X026453Y013615D02*
X026556Y013615D01*
X026556Y013516D02*
X026395Y013516D01*
X026269Y013418D02*
X026556Y013418D01*
X026556Y013319D02*
X026328Y013319D01*
X026426Y013221D02*
X026556Y013221D01*
X026556Y013122D02*
X026525Y013122D01*
X025905Y014107D02*
X025602Y014107D01*
X024891Y013516D02*
X022932Y013516D01*
X023129Y013615D02*
X024799Y013615D01*
X024707Y013713D02*
X023326Y013713D01*
X023428Y013765D02*
X023456Y013753D01*
X023610Y013753D01*
X023753Y013812D01*
X023862Y013921D01*
X023921Y014064D01*
X023921Y014218D01*
X023862Y014361D01*
X023753Y014470D01*
X023671Y014504D01*
X023671Y014656D01*
X023612Y014799D01*
X023503Y014908D01*
X023360Y014967D01*
X023206Y014967D01*
X023063Y014908D01*
X023048Y014893D01*
X023056Y014917D01*
X023073Y014959D01*
X023073Y014971D01*
X023077Y014983D01*
X023073Y015028D01*
X023073Y015195D01*
X023112Y015234D01*
X023171Y015377D01*
X023171Y015531D01*
X023112Y015674D01*
X023003Y015783D01*
X022860Y015842D01*
X022706Y015842D01*
X022563Y015783D01*
X022454Y015674D01*
X022395Y015531D01*
X022395Y015377D01*
X022454Y015234D01*
X022493Y015195D01*
X022493Y015193D01*
X021698Y014781D01*
X021698Y016657D01*
X021769Y016628D01*
X021923Y016628D01*
X022066Y016687D01*
X022105Y016726D01*
X023612Y016726D01*
X023583Y016656D01*
X023583Y016619D01*
X022667Y016619D01*
X022628Y016658D01*
X022485Y016717D01*
X022331Y016717D01*
X022188Y016658D01*
X022079Y016549D01*
X022020Y016406D01*
X022020Y016252D01*
X022079Y016109D01*
X022188Y016000D01*
X022331Y015941D01*
X022485Y015941D01*
X022628Y016000D01*
X022667Y016039D01*
X023476Y016039D01*
X023556Y015959D01*
X023556Y015459D01*
X023600Y015352D01*
X024181Y014771D01*
X024181Y014396D01*
X024179Y014344D01*
X024181Y014339D01*
X024181Y014334D01*
X024201Y014285D01*
X024219Y014236D01*
X024223Y014232D01*
X024225Y014227D01*
X024262Y014190D01*
X024984Y013416D01*
X024060Y011895D01*
X024053Y011889D01*
X024030Y011846D01*
X024005Y011805D01*
X024004Y011795D01*
X023598Y011019D01*
X023520Y010986D01*
X023410Y010877D01*
X023351Y010735D01*
X023351Y010580D01*
X023360Y010560D01*
X022076Y008042D01*
X018934Y008042D01*
X018961Y008106D01*
X018961Y008229D01*
X018972Y008229D01*
X019027Y008229D01*
X019063Y008192D01*
X019206Y008133D01*
X019360Y008133D01*
X019503Y008192D01*
X019612Y008301D01*
X019671Y008444D01*
X019671Y008598D01*
X019612Y008741D01*
X019579Y008774D01*
X019579Y009115D01*
X019690Y009226D01*
X020112Y009226D01*
X020032Y009146D01*
X019934Y008909D01*
X019934Y008653D01*
X020032Y008417D01*
X020213Y008236D01*
X020449Y008138D01*
X020705Y008138D01*
X020941Y008236D01*
X021122Y008417D01*
X021220Y008653D01*
X021220Y008909D01*
X021122Y009146D01*
X021041Y009226D01*
X021951Y009226D01*
X022057Y009270D01*
X023236Y010449D01*
X023280Y010555D01*
X023280Y011911D01*
X023300Y011911D01*
X023443Y011970D01*
X023552Y012079D01*
X023611Y012221D01*
X023611Y012376D01*
X023552Y012519D01*
X023443Y012628D01*
X023300Y012687D01*
X023146Y012687D01*
X023003Y012628D01*
X022894Y012519D01*
X022835Y012376D01*
X022835Y012321D01*
X022744Y012230D01*
X022700Y012123D01*
X022700Y010733D01*
X021773Y009806D01*
X019512Y009806D01*
X019406Y009762D01*
X019125Y009481D01*
X019043Y009399D01*
X018999Y009293D01*
X018999Y008809D01*
X018970Y008809D01*
X018210Y008809D01*
X018204Y008811D01*
X018152Y008809D01*
X018101Y008809D01*
X018095Y008806D01*
X018089Y008806D01*
X018042Y008784D01*
X018032Y008780D01*
X018046Y008814D01*
X018046Y008968D01*
X017987Y009111D01*
X017878Y009220D01*
X017735Y009279D01*
X017581Y009279D01*
X017478Y009236D01*
X017111Y009236D01*
X017028Y009319D01*
X017028Y009976D01*
X017425Y009976D01*
X017436Y009973D01*
X017482Y009976D01*
X017528Y009976D01*
X017539Y009981D01*
X017551Y009982D01*
X017592Y010003D01*
X017635Y010020D01*
X017643Y010029D01*
X018295Y010361D01*
X018313Y010382D01*
X018566Y010509D01*
X018621Y010674D01*
X018585Y010746D01*
X018745Y010766D01*
X018712Y010630D01*
X019132Y009945D01*
X019302Y009904D01*
X019886Y010263D01*
X019912Y010370D01*
X019928Y010370D01*
X019965Y010381D01*
X020158Y010499D01*
X019941Y010853D01*
X020026Y010905D01*
X020243Y010552D01*
X020435Y010669D01*
X020463Y010698D01*
X020481Y010733D01*
X020491Y010771D01*
X020490Y010811D01*
X020478Y010849D01*
X020330Y011091D01*
X020026Y010905D01*
X019974Y010991D01*
X020277Y011177D01*
X020157Y011373D01*
X020380Y011484D01*
X020410Y011510D01*
X020431Y011543D01*
X020444Y011581D01*
X020446Y011620D01*
X020438Y011659D01*
X020399Y011738D01*
X020013Y011545D01*
X020013Y011545D01*
X020399Y011738D01*
X020359Y011818D01*
X020333Y011847D01*
X020332Y011848D01*
X020332Y011849D01*
X020324Y011888D01*
X020286Y011963D01*
X021461Y012584D01*
X021499Y012600D01*
X021508Y012609D01*
X021519Y012615D01*
X021546Y012647D01*
X021575Y012676D01*
X021580Y012688D01*
X021588Y012698D01*
X021600Y012737D01*
X021616Y012775D01*
X021616Y012788D01*
X021620Y012800D01*
X021616Y012841D01*
X021616Y013334D01*
X022056Y013575D01*
X022056Y013574D01*
X022056Y011083D01*
X021722Y010749D01*
X021581Y010749D01*
X021438Y010690D01*
X021329Y010581D01*
X021270Y010438D01*
X021270Y010284D01*
X021329Y010141D01*
X021438Y010032D01*
X021581Y009973D01*
X021735Y009973D01*
X021878Y010032D01*
X021987Y010141D01*
X022025Y010232D01*
X022592Y010799D01*
X022636Y010905D01*
X022636Y013368D01*
X023428Y013765D01*
X023752Y013812D02*
X024615Y013812D01*
X024523Y013910D02*
X023851Y013910D01*
X023898Y014009D02*
X024431Y014009D01*
X024339Y014107D02*
X023921Y014107D01*
X023921Y014206D02*
X024246Y014206D01*
X024193Y014304D02*
X023886Y014304D01*
X023821Y014403D02*
X024181Y014403D01*
X024181Y014501D02*
X023678Y014501D01*
X023671Y014600D02*
X024181Y014600D01*
X024181Y014698D02*
X023654Y014698D01*
X023613Y014797D02*
X024155Y014797D01*
X024057Y014895D02*
X023516Y014895D01*
X023761Y015191D02*
X023073Y015191D01*
X023073Y015092D02*
X023860Y015092D01*
X023958Y014994D02*
X023076Y014994D01*
X023049Y014895D02*
X023051Y014895D01*
X023135Y015289D02*
X023663Y015289D01*
X023585Y015388D02*
X023171Y015388D01*
X023171Y015486D02*
X023556Y015486D01*
X023556Y015585D02*
X023149Y015585D01*
X023103Y015683D02*
X023556Y015683D01*
X023556Y015782D02*
X023004Y015782D01*
X022562Y015782D02*
X021698Y015782D01*
X021698Y015880D02*
X023556Y015880D01*
X023536Y015979D02*
X022578Y015979D01*
X022464Y015683D02*
X021698Y015683D01*
X021698Y015585D02*
X022417Y015585D01*
X022395Y015486D02*
X021698Y015486D01*
X021698Y015388D02*
X022395Y015388D01*
X022431Y015289D02*
X021698Y015289D01*
X021698Y015191D02*
X022489Y015191D01*
X022299Y015092D02*
X021698Y015092D01*
X021698Y014994D02*
X022109Y014994D01*
X021918Y014895D02*
X021698Y014895D01*
X021698Y014797D02*
X021728Y014797D01*
X021698Y015979D02*
X022239Y015979D01*
X022111Y016077D02*
X021698Y016077D01*
X021698Y016176D02*
X022051Y016176D01*
X022020Y016274D02*
X021698Y016274D01*
X021698Y016373D02*
X022020Y016373D01*
X022047Y016471D02*
X021698Y016471D01*
X021698Y016570D02*
X022100Y016570D01*
X022020Y016668D02*
X022214Y016668D01*
X022603Y016668D02*
X023588Y016668D01*
X024354Y016668D02*
X026359Y016668D01*
X026707Y016668D02*
X027460Y016668D01*
X027660Y016570D02*
X024390Y016570D01*
X024511Y017653D02*
X024793Y017653D01*
X024633Y017752D02*
X024511Y017752D01*
X024511Y017850D02*
X024561Y017850D01*
X024520Y017949D02*
X024511Y017949D01*
X024511Y018047D02*
X024520Y018047D01*
X024511Y018146D02*
X024538Y018146D01*
X024511Y018244D02*
X024579Y018244D01*
X024618Y018343D02*
X024511Y018343D01*
X024511Y018441D02*
X024618Y018441D01*
X024618Y018540D02*
X024511Y018540D01*
X024506Y018638D02*
X024618Y018638D01*
X024618Y018737D02*
X024408Y018737D01*
X024618Y018835D02*
X018303Y018835D01*
X018303Y018737D02*
X020478Y018737D01*
X020356Y018638D02*
X018303Y018638D01*
X018303Y018540D02*
X020300Y018540D01*
X020270Y018441D02*
X018303Y018441D01*
X018303Y018343D02*
X020270Y018343D01*
X020299Y018244D02*
X018303Y018244D01*
X018303Y018146D02*
X020355Y018146D01*
X020368Y018047D02*
X018303Y018047D01*
X018303Y017949D02*
X020368Y017949D01*
X020368Y017850D02*
X018303Y017850D01*
X018303Y017752D02*
X020368Y017752D01*
X020368Y017653D02*
X018303Y017653D01*
X018303Y017555D02*
X020368Y017555D01*
X020368Y017456D02*
X018303Y017456D01*
X018303Y017358D02*
X020368Y017358D01*
X020368Y017259D02*
X018303Y017259D01*
X018361Y017161D02*
X020368Y017161D01*
X020368Y017062D02*
X018460Y017062D01*
X018558Y016964D02*
X020368Y016964D01*
X020368Y016865D02*
X018619Y016865D01*
X018636Y016767D02*
X020368Y016767D01*
X020368Y016668D02*
X018636Y016668D01*
X018636Y016570D02*
X020368Y016570D01*
X020368Y016471D02*
X018636Y016471D01*
X018636Y016373D02*
X020368Y016373D01*
X020368Y016274D02*
X018636Y016274D01*
X018636Y016176D02*
X020368Y016176D01*
X020368Y016077D02*
X018636Y016077D01*
X018636Y015979D02*
X020368Y015979D01*
X020368Y015880D02*
X018636Y015880D01*
X018636Y015782D02*
X020368Y015782D01*
X020368Y015683D02*
X018636Y015683D01*
X018636Y015585D02*
X020212Y015585D01*
X020049Y015486D02*
X018636Y015486D01*
X018636Y015388D02*
X019887Y015388D01*
X019724Y015289D02*
X018636Y015289D01*
X018636Y015191D02*
X019562Y015191D01*
X019399Y015092D02*
X018636Y015092D01*
X018636Y014994D02*
X019237Y014994D01*
X019074Y014895D02*
X018636Y014895D01*
X018636Y014797D02*
X018912Y014797D01*
X018749Y014698D02*
X018636Y014698D01*
X018056Y014839D02*
X017868Y014729D01*
X017860Y014728D01*
X017818Y014700D01*
X017775Y014675D01*
X017770Y014669D01*
X016022Y013524D01*
X015994Y013512D01*
X015974Y013492D01*
X015951Y013477D01*
X015943Y013466D01*
X015943Y015221D01*
X017640Y016919D01*
X017735Y017013D01*
X017767Y016934D01*
X018056Y016646D01*
X018056Y014839D01*
X018056Y014895D02*
X017467Y014895D01*
X017467Y014981D02*
X017370Y015217D01*
X017189Y015398D01*
X016952Y015496D01*
X016696Y015496D01*
X016460Y015398D01*
X016279Y015217D01*
X016181Y014981D01*
X016181Y014725D01*
X016279Y014488D01*
X016460Y014307D01*
X016696Y014210D01*
X016952Y014210D01*
X017189Y014307D01*
X017370Y014488D01*
X017467Y014725D01*
X017467Y014981D01*
X017462Y014994D02*
X018056Y014994D01*
X018056Y015092D02*
X017421Y015092D01*
X017380Y015191D02*
X018056Y015191D01*
X018056Y015289D02*
X017297Y015289D01*
X017199Y015388D02*
X018056Y015388D01*
X018056Y015486D02*
X016975Y015486D01*
X016674Y015486D02*
X016208Y015486D01*
X016110Y015388D02*
X016450Y015388D01*
X016352Y015289D02*
X016011Y015289D01*
X015943Y015191D02*
X016268Y015191D01*
X016228Y015092D02*
X015943Y015092D01*
X015943Y014994D02*
X016187Y014994D01*
X016181Y014895D02*
X015943Y014895D01*
X015943Y014797D02*
X016181Y014797D01*
X016192Y014698D02*
X015943Y014698D01*
X015943Y014600D02*
X016233Y014600D01*
X016274Y014501D02*
X015943Y014501D01*
X015943Y014403D02*
X016365Y014403D01*
X016468Y014304D02*
X015943Y014304D01*
X015943Y014206D02*
X017063Y014206D01*
X017181Y014304D02*
X017213Y014304D01*
X017284Y014403D02*
X017364Y014403D01*
X017375Y014501D02*
X017514Y014501D01*
X017416Y014600D02*
X017664Y014600D01*
X017814Y014698D02*
X017456Y014698D01*
X017467Y014797D02*
X017983Y014797D01*
X018056Y015585D02*
X016307Y015585D01*
X016405Y015683D02*
X018056Y015683D01*
X018056Y015782D02*
X016504Y015782D01*
X016602Y015880D02*
X018056Y015880D01*
X018056Y015979D02*
X016701Y015979D01*
X016799Y016077D02*
X018056Y016077D01*
X018056Y016176D02*
X016898Y016176D01*
X016996Y016274D02*
X018056Y016274D01*
X018056Y016373D02*
X017095Y016373D01*
X017193Y016471D02*
X018056Y016471D01*
X018056Y016570D02*
X017292Y016570D01*
X017390Y016668D02*
X018034Y016668D01*
X017935Y016767D02*
X017489Y016767D01*
X017587Y016865D02*
X017837Y016865D01*
X017755Y016964D02*
X017686Y016964D01*
X016998Y017436D02*
X015186Y015623D01*
X015123Y015473D01*
X015123Y011989D01*
X013702Y011989D01*
X013551Y011926D01*
X013270Y011646D01*
X012700Y012265D01*
X012697Y012274D01*
X012645Y012325D01*
X012596Y012379D01*
X012588Y012383D01*
X012581Y012389D01*
X012514Y012417D01*
X012448Y012448D01*
X012439Y012448D01*
X012431Y012451D01*
X012358Y012451D01*
X012285Y012454D01*
X012276Y012451D01*
X011041Y012451D01*
X011067Y012502D01*
X011013Y012667D01*
X009981Y013193D01*
X009845Y013149D01*
X010533Y014446D01*
X010544Y014457D01*
X010564Y014505D01*
X010588Y014551D01*
X010590Y014567D01*
X011869Y017643D01*
X011917Y017528D01*
X012031Y017414D01*
X012181Y017352D01*
X012342Y017352D01*
X012412Y017381D01*
X012448Y017292D01*
X012563Y017178D01*
X012712Y017116D01*
X012874Y017116D01*
X013024Y017178D01*
X013138Y017292D01*
X013190Y017417D01*
X013204Y017411D01*
X013366Y017411D01*
X013516Y017473D01*
X013630Y017587D01*
X013692Y017737D01*
X013692Y017744D01*
X013736Y017726D01*
X013898Y017726D01*
X014047Y017788D01*
X014162Y017902D01*
X014206Y018010D01*
X014228Y018002D01*
X014390Y018002D01*
X014539Y018064D01*
X014654Y018178D01*
X014701Y018293D01*
X014740Y018277D01*
X014902Y018277D01*
X015051Y018339D01*
X015166Y018454D01*
X015196Y018528D01*
X015232Y018513D01*
X015394Y018513D01*
X015543Y018575D01*
X015658Y018690D01*
X015695Y018781D01*
X015724Y018769D01*
X015886Y018769D01*
X016035Y018831D01*
X016150Y018946D01*
X016184Y019027D01*
X016236Y019006D01*
X016398Y019006D01*
X016547Y019067D01*
X016662Y019182D01*
X016724Y019331D01*
X016724Y019493D01*
X016662Y019643D01*
X016626Y019678D01*
X016662Y019713D01*
X016724Y019863D01*
X016724Y020025D01*
X016662Y020174D01*
X016547Y020289D01*
X016398Y020351D01*
X016351Y020351D01*
X016791Y020548D01*
X017294Y020545D01*
X017176Y020426D01*
X017061Y020311D01*
X016998Y020160D01*
X016998Y017436D01*
X016998Y017456D02*
X013475Y017456D01*
X013597Y017555D02*
X016998Y017555D01*
X016998Y017653D02*
X013657Y017653D01*
X013960Y017752D02*
X016998Y017752D01*
X016998Y017850D02*
X014109Y017850D01*
X014181Y017949D02*
X016998Y017949D01*
X016998Y018047D02*
X014500Y018047D01*
X014621Y018146D02*
X016998Y018146D01*
X016998Y018244D02*
X014681Y018244D01*
X015055Y018343D02*
X016998Y018343D01*
X016998Y018441D02*
X015153Y018441D01*
X015457Y018540D02*
X016998Y018540D01*
X016998Y018638D02*
X015606Y018638D01*
X015677Y018737D02*
X016998Y018737D01*
X016998Y018835D02*
X016039Y018835D01*
X016138Y018934D02*
X016998Y018934D01*
X016998Y019032D02*
X016462Y019032D01*
X016610Y019131D02*
X016998Y019131D01*
X016998Y019229D02*
X016681Y019229D01*
X016722Y019328D02*
X016998Y019328D01*
X016998Y019426D02*
X016724Y019426D01*
X016710Y019525D02*
X016998Y019525D01*
X016998Y019623D02*
X016670Y019623D01*
X016665Y019722D02*
X016998Y019722D01*
X016998Y019820D02*
X016706Y019820D01*
X016724Y019919D02*
X016998Y019919D01*
X016998Y020017D02*
X016724Y020017D01*
X016686Y020116D02*
X016998Y020116D01*
X017021Y020214D02*
X016622Y020214D01*
X016489Y020313D02*
X017062Y020313D01*
X017161Y020411D02*
X016486Y020411D01*
X016707Y020510D02*
X017259Y020510D01*
X017176Y020426D02*
X017176Y020426D01*
X017540Y020904D02*
X013744Y020904D01*
X013753Y021002D02*
X017739Y021002D01*
X016411Y020805D02*
X013703Y020805D01*
X013663Y020707D02*
X016221Y020707D01*
X016031Y020608D02*
X013605Y020608D01*
X013507Y020510D02*
X015840Y020510D01*
X015650Y020411D02*
X013401Y020411D01*
X013163Y020313D02*
X015460Y020313D01*
X013727Y021298D02*
X028253Y021298D01*
X028256Y021199D02*
X024561Y021199D01*
X024659Y021101D02*
X024659Y021101D01*
X028259Y021101D01*
X028265Y021101D02*
X026844Y021101D01*
X026844Y021199D02*
X028265Y021199D01*
X028265Y021002D02*
X026845Y021002D01*
X026845Y020904D02*
X028265Y020904D01*
X024856Y020904D01*
X024758Y021002D02*
X028262Y021002D01*
X028265Y020805D02*
X026845Y020805D01*
X026846Y020707D02*
X028265Y020707D01*
X028271Y020707D02*
X025866Y020707D01*
X026070Y020608D02*
X028273Y020608D01*
X028265Y020608D02*
X026846Y020608D01*
X026847Y020510D02*
X028265Y020510D01*
X028276Y020510D02*
X026274Y020510D01*
X025661Y020805D02*
X028268Y020805D01*
X028685Y020805D02*
X033248Y020805D01*
X033255Y020787D02*
X033453Y020589D01*
X033711Y020483D01*
X033990Y020483D01*
X034248Y020589D01*
X034446Y020787D01*
X034553Y021045D01*
X034553Y021324D01*
X034446Y021582D01*
X034248Y021780D01*
X033990Y021887D01*
X033711Y021887D01*
X033453Y021780D01*
X033255Y021582D01*
X033149Y021324D01*
X033149Y021045D01*
X033255Y020787D01*
X033336Y020707D02*
X028685Y020707D01*
X028685Y020608D02*
X033434Y020608D01*
X033645Y020510D02*
X028685Y020510D01*
X028685Y020411D02*
X034623Y020411D01*
X034573Y020313D02*
X028685Y020313D01*
X028685Y020214D02*
X034524Y020214D01*
X034475Y020116D02*
X028685Y020116D01*
X028685Y020017D02*
X034426Y020017D01*
X034376Y019919D02*
X028685Y019919D01*
X028685Y019820D02*
X034327Y019820D01*
X034278Y019722D02*
X028685Y019722D01*
X028685Y019623D02*
X034229Y019623D01*
X034179Y019525D02*
X028685Y019525D01*
X028685Y019426D02*
X034130Y019426D01*
X034081Y019328D02*
X028685Y019328D01*
X028685Y019229D02*
X034032Y019229D01*
X033982Y019131D02*
X028685Y019131D01*
X028686Y019032D02*
X033933Y019032D01*
X033884Y018934D02*
X028688Y018934D01*
X028689Y018835D02*
X033835Y018835D01*
X033785Y018737D02*
X028691Y018737D01*
X028692Y018638D02*
X033736Y018638D01*
X033687Y018540D02*
X028694Y018540D01*
X028696Y018441D02*
X033638Y018441D01*
X033588Y018343D02*
X028697Y018343D01*
X028699Y018244D02*
X033539Y018244D01*
X033490Y018146D02*
X028700Y018146D01*
X028858Y018047D02*
X033441Y018047D01*
X033391Y017949D02*
X032706Y017949D01*
X032620Y017949D02*
X029028Y017949D01*
X029198Y017850D02*
X032476Y017850D01*
X032427Y017752D02*
X029368Y017752D01*
X029547Y017653D02*
X032378Y017653D01*
X032328Y017555D02*
X029636Y017555D01*
X029687Y017456D02*
X032279Y017456D01*
X032230Y017358D02*
X029715Y017358D01*
X029709Y017259D02*
X032181Y017259D01*
X032131Y017161D02*
X029689Y017161D01*
X029637Y017062D02*
X032082Y017062D01*
X032033Y016964D02*
X029588Y016964D01*
X029540Y016865D02*
X031984Y016865D01*
X031934Y016767D02*
X029492Y016767D01*
X029443Y016668D02*
X031885Y016668D01*
X031836Y016570D02*
X029395Y016570D01*
X029347Y016471D02*
X031787Y016471D01*
X031737Y016373D02*
X029298Y016373D01*
X029250Y016274D02*
X031688Y016274D01*
X031639Y016176D02*
X029197Y016176D01*
X029085Y016077D02*
X031590Y016077D01*
X031540Y015979D02*
X027106Y015979D01*
X027204Y015880D02*
X031491Y015880D01*
X031442Y015782D02*
X027303Y015782D01*
X027401Y015683D02*
X031393Y015683D01*
X031343Y015585D02*
X027500Y015585D01*
X027594Y015486D02*
X031294Y015486D01*
X031245Y015388D02*
X027635Y015388D01*
X027636Y015289D02*
X031196Y015289D01*
X031146Y015191D02*
X027636Y015191D01*
X027636Y015092D02*
X031097Y015092D01*
X031048Y014994D02*
X027636Y014994D01*
X027636Y014895D02*
X030999Y014895D01*
X031020Y014797D02*
X027636Y014797D01*
X027261Y016767D02*
X026833Y016767D01*
X026891Y016865D02*
X027061Y016865D01*
X024618Y018934D02*
X022243Y018934D01*
X022341Y019032D02*
X024618Y019032D01*
X026843Y021298D02*
X026865Y021298D01*
X026836Y021396D02*
X013686Y021396D01*
X013645Y021495D02*
X026738Y021495D01*
X026699Y021593D02*
X013563Y021593D01*
X013464Y021692D02*
X026699Y021692D01*
X026699Y021790D02*
X013298Y021790D01*
X018303Y019131D02*
X018339Y019131D01*
X018303Y019032D02*
X018437Y019032D01*
X018536Y018934D02*
X018303Y018934D01*
X016920Y017358D02*
X013165Y017358D01*
X013105Y017259D02*
X016821Y017259D01*
X016723Y017161D02*
X012983Y017161D01*
X012604Y017161D02*
X011668Y017161D01*
X011709Y017259D02*
X012481Y017259D01*
X012421Y017358D02*
X012356Y017358D01*
X012167Y017358D02*
X011750Y017358D01*
X011791Y017456D02*
X011989Y017456D01*
X011906Y017555D02*
X011832Y017555D01*
X011627Y017062D02*
X016624Y017062D01*
X016526Y016964D02*
X011586Y016964D01*
X011545Y016865D02*
X016427Y016865D01*
X016329Y016767D02*
X011504Y016767D01*
X011464Y016668D02*
X016230Y016668D01*
X016132Y016570D02*
X011423Y016570D01*
X011382Y016471D02*
X016033Y016471D01*
X015935Y016373D02*
X011341Y016373D01*
X011300Y016274D02*
X015836Y016274D01*
X015738Y016176D02*
X011259Y016176D01*
X011218Y016077D02*
X015639Y016077D01*
X015541Y015979D02*
X011177Y015979D01*
X011136Y015880D02*
X015442Y015880D01*
X015344Y015782D02*
X011095Y015782D01*
X011054Y015683D02*
X015245Y015683D01*
X015170Y015585D02*
X011013Y015585D01*
X010972Y015486D02*
X015129Y015486D01*
X015123Y015388D02*
X010931Y015388D01*
X010890Y015289D02*
X015123Y015289D01*
X015123Y015191D02*
X010849Y015191D01*
X010808Y015092D02*
X015123Y015092D01*
X015123Y014994D02*
X010767Y014994D01*
X010726Y014895D02*
X015123Y014895D01*
X015123Y014797D02*
X010685Y014797D01*
X010644Y014698D02*
X015123Y014698D01*
X015123Y014600D02*
X010603Y014600D01*
X010562Y014501D02*
X015123Y014501D01*
X015123Y014403D02*
X010510Y014403D01*
X010458Y014304D02*
X015123Y014304D01*
X015123Y014206D02*
X010405Y014206D01*
X010353Y014107D02*
X015123Y014107D01*
X015123Y014009D02*
X010301Y014009D01*
X010249Y013910D02*
X015123Y013910D01*
X015123Y013812D02*
X010196Y013812D01*
X010144Y013713D02*
X015123Y013713D01*
X015123Y013615D02*
X010092Y013615D01*
X010040Y013516D02*
X015123Y013516D01*
X015123Y013418D02*
X009987Y013418D01*
X009935Y013319D02*
X015123Y013319D01*
X015123Y013221D02*
X009883Y013221D01*
X010120Y013122D02*
X015123Y013122D01*
X015123Y013024D02*
X010313Y013024D01*
X010506Y012925D02*
X015123Y012925D01*
X015123Y012827D02*
X010700Y012827D01*
X010893Y012728D02*
X015123Y012728D01*
X015123Y012630D02*
X011025Y012630D01*
X011057Y012531D02*
X015123Y012531D01*
X015123Y012433D02*
X012480Y012433D01*
X012637Y012334D02*
X015123Y012334D01*
X015123Y012236D02*
X012727Y012236D01*
X012818Y012137D02*
X015123Y012137D01*
X015123Y012039D02*
X012909Y012039D01*
X012999Y011940D02*
X013585Y011940D01*
X013466Y011842D02*
X013090Y011842D01*
X013181Y011743D02*
X013368Y011743D01*
X012701Y011054D02*
X011636Y011054D01*
X011667Y010980D02*
X011599Y011144D01*
X011473Y011269D01*
X011309Y011337D01*
X011132Y011337D01*
X010968Y011269D01*
X010842Y011144D01*
X010774Y010980D01*
X010774Y010802D01*
X010811Y010715D01*
X010811Y008771D01*
X010774Y008684D01*
X010774Y008506D01*
X010842Y008342D01*
X010968Y008217D01*
X011132Y008149D01*
X011309Y008149D01*
X011473Y008217D01*
X011599Y008342D01*
X011667Y008506D01*
X011667Y008684D01*
X011631Y008771D01*
X011631Y010715D01*
X011667Y010802D01*
X011667Y010980D01*
X011667Y010955D02*
X012748Y010955D01*
X012748Y011002D02*
X012748Y008864D01*
X012397Y008864D01*
X012309Y008900D01*
X012132Y008900D01*
X011968Y008832D01*
X011842Y008706D01*
X011774Y008542D01*
X011774Y008365D01*
X011842Y008201D01*
X011968Y008075D01*
X012132Y008007D01*
X012309Y008007D01*
X012397Y008044D01*
X012811Y008044D01*
X012811Y006692D01*
X012804Y006637D01*
X012811Y006611D01*
X012811Y006585D01*
X012816Y006572D01*
X012816Y006182D01*
X012777Y006103D01*
X012527Y006103D01*
X012535Y006134D01*
X012535Y006313D01*
X012010Y006313D01*
X012010Y006413D01*
X012535Y006413D01*
X012535Y006593D01*
X012525Y006631D01*
X012505Y006666D01*
X012477Y006693D01*
X012443Y006713D01*
X012405Y006723D01*
X012010Y006723D01*
X012010Y006413D01*
X011910Y006413D01*
X011910Y006313D01*
X011385Y006313D01*
X011385Y006134D01*
X011395Y006096D01*
X011408Y006073D01*
X011325Y005990D01*
X011325Y005396D01*
X011408Y005313D01*
X011395Y005291D01*
X011385Y005253D01*
X011385Y005073D01*
X011910Y005073D01*
X011910Y004973D01*
X011385Y004973D01*
X011385Y004794D01*
X011395Y004756D01*
X011408Y004733D01*
X011325Y004650D01*
X011325Y004056D01*
X011363Y004018D01*
X011325Y003980D01*
X011325Y003759D01*
X010879Y003756D01*
X010879Y004973D01*
X008730Y004973D01*
X008730Y005073D01*
X010879Y005073D01*
X010879Y007169D01*
X010869Y007207D01*
X010849Y007242D01*
X010821Y007269D01*
X010787Y007289D01*
X010749Y007299D01*
X010480Y007299D01*
X010494Y007332D01*
X010494Y007336D01*
X010496Y007340D01*
X010495Y007404D01*
X010500Y007758D01*
X010503Y007820D01*
X010501Y007825D01*
X010501Y007832D01*
X010478Y007889D01*
X010457Y007947D01*
X010453Y007952D01*
X010451Y007957D01*
X010408Y008001D01*
X010367Y008047D01*
X010361Y008050D01*
X010357Y008054D01*
X010300Y008079D01*
X009047Y008671D01*
X009164Y008899D01*
X008636Y009168D01*
X008681Y009257D01*
X008592Y009302D01*
X008547Y009213D01*
X008019Y009482D01*
X007886Y009220D01*
X007786Y009267D01*
X009219Y011970D01*
X009022Y011581D01*
X009075Y011416D01*
X010107Y010890D01*
X010273Y010944D01*
X010623Y011631D01*
X012169Y011631D01*
X012748Y011002D01*
X012748Y010857D02*
X011667Y010857D01*
X011649Y010758D02*
X012748Y010758D01*
X012748Y010660D02*
X011631Y010660D01*
X011631Y010561D02*
X012748Y010561D01*
X012748Y010463D02*
X011631Y010463D01*
X011631Y010364D02*
X012748Y010364D01*
X012748Y010266D02*
X011631Y010266D01*
X011631Y010167D02*
X012748Y010167D01*
X012748Y010069D02*
X011631Y010069D01*
X011631Y009970D02*
X012748Y009970D01*
X012748Y009872D02*
X011631Y009872D01*
X011631Y009773D02*
X012748Y009773D01*
X012748Y009675D02*
X011631Y009675D01*
X011631Y009576D02*
X012748Y009576D01*
X012748Y009478D02*
X011631Y009478D01*
X011631Y009379D02*
X012748Y009379D01*
X012748Y009281D02*
X011631Y009281D01*
X011631Y009182D02*
X012748Y009182D01*
X012748Y009084D02*
X011631Y009084D01*
X011631Y008985D02*
X012748Y008985D01*
X012748Y008887D02*
X012341Y008887D01*
X012100Y008887D02*
X011631Y008887D01*
X011631Y008788D02*
X011924Y008788D01*
X011835Y008690D02*
X011664Y008690D01*
X011667Y008591D02*
X011795Y008591D01*
X011774Y008493D02*
X011661Y008493D01*
X011621Y008394D02*
X011774Y008394D01*
X011803Y008296D02*
X011553Y008296D01*
X011427Y008197D02*
X011846Y008197D01*
X011945Y008099D02*
X010258Y008099D01*
X010409Y008000D02*
X012811Y008000D01*
X012811Y007902D02*
X010474Y007902D01*
X010502Y007803D02*
X012811Y007803D01*
X012811Y007705D02*
X010499Y007705D01*
X010498Y007606D02*
X012811Y007606D01*
X012811Y007508D02*
X010497Y007508D01*
X010495Y007409D02*
X012811Y007409D01*
X012811Y007311D02*
X010485Y007311D01*
X010866Y007212D02*
X012811Y007212D01*
X012811Y007114D02*
X010879Y007114D01*
X010879Y007015D02*
X012811Y007015D01*
X012811Y006917D02*
X010879Y006917D01*
X010879Y006818D02*
X012811Y006818D01*
X012811Y006720D02*
X012418Y006720D01*
X012527Y006621D02*
X012808Y006621D01*
X012816Y006523D02*
X012535Y006523D01*
X012535Y006424D02*
X012816Y006424D01*
X012816Y006326D02*
X012010Y006326D01*
X012010Y006424D02*
X011910Y006424D01*
X011910Y006413D02*
X011910Y006723D01*
X011515Y006723D01*
X011477Y006713D01*
X011443Y006693D01*
X011415Y006666D01*
X011395Y006631D01*
X011385Y006593D01*
X011385Y006413D01*
X011910Y006413D01*
X011910Y006326D02*
X010879Y006326D01*
X010879Y006424D02*
X011385Y006424D01*
X011385Y006523D02*
X010879Y006523D01*
X010879Y006621D02*
X011392Y006621D01*
X011501Y006720D02*
X010879Y006720D01*
X010879Y006227D02*
X011385Y006227D01*
X011386Y006129D02*
X010879Y006129D01*
X010879Y006030D02*
X011365Y006030D01*
X011325Y005932D02*
X010879Y005932D01*
X010879Y005833D02*
X011325Y005833D01*
X011325Y005735D02*
X010879Y005735D01*
X010879Y005636D02*
X011325Y005636D01*
X011325Y005538D02*
X010879Y005538D01*
X010879Y005439D02*
X011325Y005439D01*
X011380Y005341D02*
X010879Y005341D01*
X010879Y005242D02*
X011385Y005242D01*
X011385Y005144D02*
X010879Y005144D01*
X010879Y004947D02*
X011385Y004947D01*
X011385Y004848D02*
X010879Y004848D01*
X010879Y004750D02*
X011398Y004750D01*
X011326Y004651D02*
X010879Y004651D01*
X010879Y004553D02*
X011325Y004553D01*
X011325Y004454D02*
X010879Y004454D01*
X010879Y004356D02*
X011325Y004356D01*
X011325Y004257D02*
X010879Y004257D01*
X010879Y004159D02*
X011325Y004159D01*
X011325Y004060D02*
X010879Y004060D01*
X010879Y003962D02*
X011325Y003962D01*
X011325Y003863D02*
X010879Y003863D01*
X010879Y003765D02*
X011325Y003765D01*
X012010Y004973D02*
X012010Y005073D01*
X012535Y005073D01*
X012535Y005253D01*
X012527Y005283D01*
X013017Y005283D01*
X013084Y005279D01*
X013098Y005283D01*
X013112Y005283D01*
X013175Y005309D01*
X013238Y005331D01*
X013249Y005340D01*
X013263Y005346D01*
X013311Y005393D01*
X013361Y005438D01*
X013368Y005451D01*
X013378Y005461D01*
X013404Y005523D01*
X013563Y005843D01*
X013574Y005853D01*
X013599Y005916D01*
X013629Y005976D01*
X013631Y005990D01*
X013636Y006004D01*
X013636Y006071D01*
X013641Y006139D01*
X013636Y006152D01*
X013636Y006376D01*
X014216Y006376D01*
X014161Y006244D01*
X014161Y006090D01*
X014182Y006039D01*
X013993Y006039D01*
X013955Y006029D01*
X013921Y006009D01*
X013893Y005981D01*
X013873Y005947D01*
X013863Y005909D01*
X013863Y005152D01*
X014455Y005152D01*
X014455Y005052D01*
X013863Y005052D01*
X013863Y004295D01*
X013873Y004257D01*
X013769Y004257D01*
X013822Y004212D02*
X013421Y004551D01*
X013350Y004721D01*
X013208Y004863D01*
X013022Y004940D01*
X012821Y004940D01*
X012635Y004863D01*
X012548Y004776D01*
X012530Y004776D01*
X012535Y004794D01*
X012535Y004973D01*
X012010Y004973D01*
X012010Y005045D02*
X013863Y005045D01*
X013863Y004947D02*
X012535Y004947D01*
X012535Y004848D02*
X012620Y004848D01*
X012535Y005144D02*
X014455Y005144D01*
X014555Y005144D02*
X020183Y005144D01*
X020208Y005119D02*
X020208Y005064D01*
X020267Y004921D01*
X020376Y004812D01*
X020519Y004753D01*
X020673Y004753D01*
X020816Y004812D01*
X020925Y004921D01*
X020984Y005064D01*
X020984Y005218D01*
X020925Y005361D01*
X020816Y005470D01*
X020673Y005529D01*
X020618Y005529D01*
X020359Y005788D01*
X020253Y005832D01*
X016621Y005832D01*
X016582Y005871D01*
X016439Y005930D01*
X016285Y005930D01*
X016142Y005871D01*
X016033Y005762D01*
X015974Y005619D01*
X015974Y005465D01*
X016033Y005322D01*
X016142Y005213D01*
X016285Y005154D01*
X016439Y005154D01*
X016582Y005213D01*
X016621Y005252D01*
X020075Y005252D01*
X020208Y005119D01*
X020215Y005045D02*
X015147Y005045D01*
X015147Y004947D02*
X020256Y004947D01*
X020340Y004848D02*
X015147Y004848D01*
X015147Y004750D02*
X021970Y004750D01*
X021871Y004848D02*
X020852Y004848D01*
X020935Y004947D02*
X021773Y004947D01*
X021674Y005045D02*
X020976Y005045D01*
X020984Y005144D02*
X021604Y005144D01*
X021563Y005242D02*
X020974Y005242D01*
X020933Y005341D02*
X021561Y005341D01*
X021561Y005439D02*
X020847Y005439D01*
X020609Y005538D02*
X021561Y005538D01*
X021561Y005636D02*
X020511Y005636D01*
X020412Y005735D02*
X021561Y005735D01*
X021561Y005833D02*
X021243Y005833D01*
X021361Y005932D02*
X021555Y005932D01*
X021471Y006030D02*
X021416Y006030D01*
X020870Y005833D02*
X016619Y005833D01*
X016105Y005833D02*
X015147Y005833D01*
X015147Y005735D02*
X016022Y005735D01*
X015981Y005636D02*
X015147Y005636D01*
X015147Y005538D02*
X015974Y005538D01*
X015984Y005439D02*
X015147Y005439D01*
X015147Y005341D02*
X016025Y005341D01*
X016113Y005242D02*
X015147Y005242D01*
X015147Y004651D02*
X022068Y004651D01*
X022167Y004553D02*
X015147Y004553D01*
X015147Y004454D02*
X022265Y004454D01*
X022561Y004159D02*
X016232Y004159D01*
X016343Y004060D02*
X022659Y004060D01*
X022758Y003962D02*
X018821Y003962D01*
X018896Y003863D02*
X020361Y003863D01*
X020357Y003857D02*
X020347Y003819D01*
X020347Y003102D01*
X020998Y003102D01*
X020998Y003950D01*
X020477Y003950D01*
X020439Y003939D01*
X020405Y003920D01*
X020377Y003892D01*
X020357Y003857D01*
X020347Y003765D02*
X018896Y003765D01*
X018896Y003666D02*
X020347Y003666D01*
X020347Y003568D02*
X018896Y003568D01*
X018896Y003469D02*
X020347Y003469D01*
X020347Y003371D02*
X018896Y003371D01*
X018896Y003272D02*
X020347Y003272D01*
X020347Y003174D02*
X018896Y003174D01*
X018896Y003075D02*
X020998Y003075D01*
X020998Y003102D02*
X020998Y003002D01*
X020347Y003002D01*
X020347Y002284D01*
X020357Y002246D01*
X020377Y002211D01*
X020405Y002183D01*
X020439Y002164D01*
X020477Y002153D01*
X020998Y002153D01*
X020998Y003002D01*
X021098Y003002D01*
X021098Y003102D01*
X020998Y003102D01*
X020998Y003174D02*
X021098Y003174D01*
X021098Y003102D02*
X021098Y003950D01*
X021619Y003950D01*
X021657Y003939D01*
X021691Y003920D01*
X021719Y003892D01*
X021739Y003857D01*
X021749Y003819D01*
X021749Y003102D01*
X021098Y003102D01*
X021098Y003075D02*
X023953Y003075D01*
X024023Y003145D02*
X023826Y002947D01*
X023719Y002689D01*
X023719Y002410D01*
X023826Y002152D01*
X024023Y001954D01*
X024281Y001848D01*
X024561Y001848D01*
X024819Y001954D01*
X025016Y002152D01*
X025123Y002410D01*
X025123Y002689D01*
X025016Y002947D01*
X024819Y003145D01*
X024561Y003252D01*
X024281Y003252D01*
X024023Y003145D01*
X024093Y003174D02*
X021749Y003174D01*
X021749Y003272D02*
X026048Y003272D01*
X025999Y003174D02*
X024749Y003174D01*
X024888Y003075D02*
X025950Y003075D01*
X025900Y002977D02*
X024987Y002977D01*
X025045Y002878D02*
X025851Y002878D01*
X025802Y002780D02*
X025086Y002780D01*
X025123Y002681D02*
X025753Y002681D01*
X025703Y002583D02*
X025123Y002583D01*
X025123Y002484D02*
X025654Y002484D01*
X025605Y002386D02*
X025113Y002386D01*
X025072Y002287D02*
X025556Y002287D01*
X025506Y002189D02*
X025031Y002189D01*
X024954Y002090D02*
X025457Y002090D01*
X025408Y001992D02*
X024856Y001992D01*
X024671Y001893D02*
X025359Y001893D01*
X025309Y001795D02*
X015352Y001795D01*
X015354Y001893D02*
X024171Y001893D01*
X023986Y001992D02*
X015355Y001992D01*
X015356Y002090D02*
X023887Y002090D01*
X023810Y002189D02*
X021697Y002189D01*
X021691Y002183D02*
X021719Y002211D01*
X021739Y002246D01*
X021749Y002284D01*
X021749Y003002D01*
X021098Y003002D01*
X021098Y002153D01*
X021619Y002153D01*
X021657Y002164D01*
X021691Y002183D01*
X021749Y002287D02*
X023770Y002287D01*
X023729Y002386D02*
X021749Y002386D01*
X021749Y002484D02*
X023719Y002484D01*
X023719Y002583D02*
X021749Y002583D01*
X021749Y002681D02*
X023719Y002681D01*
X023756Y002780D02*
X021749Y002780D01*
X021749Y002878D02*
X023797Y002878D01*
X023855Y002977D02*
X021749Y002977D01*
X021749Y003371D02*
X026097Y003371D01*
X026147Y003469D02*
X021749Y003469D01*
X021749Y003568D02*
X026196Y003568D01*
X026245Y003666D02*
X021749Y003666D01*
X021749Y003765D02*
X022996Y003765D01*
X022856Y003863D02*
X021736Y003863D01*
X021098Y003863D02*
X020998Y003863D01*
X020998Y003765D02*
X021098Y003765D01*
X021098Y003666D02*
X020998Y003666D01*
X020998Y003568D02*
X021098Y003568D01*
X021098Y003469D02*
X020998Y003469D01*
X020998Y003371D02*
X021098Y003371D01*
X021098Y003272D02*
X020998Y003272D01*
X020998Y002977D02*
X021098Y002977D01*
X021098Y002878D02*
X020998Y002878D01*
X020998Y002780D02*
X021098Y002780D01*
X021098Y002681D02*
X020998Y002681D01*
X020998Y002583D02*
X021098Y002583D01*
X021098Y002484D02*
X020998Y002484D01*
X020998Y002386D02*
X021098Y002386D01*
X021098Y002287D02*
X020998Y002287D01*
X020998Y002189D02*
X021098Y002189D01*
X020400Y002189D02*
X018868Y002189D01*
X018896Y002287D02*
X020347Y002287D01*
X020347Y002386D02*
X018896Y002386D01*
X018896Y002484D02*
X020347Y002484D01*
X020347Y002583D02*
X018896Y002583D01*
X018896Y002681D02*
X020347Y002681D01*
X020347Y002780D02*
X018896Y002780D01*
X018896Y002878D02*
X020347Y002878D01*
X020347Y002977D02*
X018896Y002977D01*
X017449Y003962D02*
X016442Y003962D01*
X016540Y003863D02*
X017374Y003863D01*
X017374Y003765D02*
X016639Y003765D01*
X016737Y003666D02*
X017374Y003666D01*
X017374Y003568D02*
X016836Y003568D01*
X016934Y003469D02*
X017374Y003469D01*
X016365Y002878D02*
X015367Y002878D01*
X015366Y002780D02*
X016464Y002780D01*
X016595Y002681D02*
X015365Y002681D01*
X015363Y002583D02*
X017374Y002583D01*
X017374Y002484D02*
X015362Y002484D01*
X015361Y002386D02*
X017374Y002386D01*
X017374Y002287D02*
X015359Y002287D01*
X015358Y002189D02*
X017401Y002189D01*
X018139Y001302D02*
X015346Y001302D01*
X015344Y001204D02*
X017966Y001204D01*
X018298Y001401D02*
X015347Y001401D01*
X015348Y001499D02*
X025162Y001499D01*
X025211Y001598D02*
X015350Y001598D01*
X015351Y001696D02*
X025260Y001696D01*
X025262Y003765D02*
X026294Y003765D01*
X026344Y003863D02*
X025401Y003863D01*
X025465Y003962D02*
X026393Y003962D01*
X026442Y004060D02*
X025513Y004060D01*
X025562Y004159D02*
X026491Y004159D01*
X026541Y004257D02*
X025611Y004257D01*
X025660Y004356D02*
X026590Y004356D01*
X026639Y004454D02*
X025709Y004454D01*
X025758Y004553D02*
X026688Y004553D01*
X026738Y004651D02*
X025807Y004651D01*
X025856Y004750D02*
X026787Y004750D01*
X026836Y004848D02*
X025905Y004848D01*
X025953Y004947D02*
X026885Y004947D01*
X026935Y005045D02*
X026002Y005045D01*
X026051Y005144D02*
X026984Y005144D01*
X027033Y005242D02*
X026100Y005242D01*
X026149Y005341D02*
X027082Y005341D01*
X027132Y005439D02*
X026198Y005439D01*
X026247Y005538D02*
X027181Y005538D01*
X027230Y005636D02*
X026296Y005636D01*
X026345Y005735D02*
X027279Y005735D01*
X027329Y005833D02*
X026394Y005833D01*
X026443Y005932D02*
X027378Y005932D01*
X027427Y006030D02*
X026492Y006030D01*
X026540Y006129D02*
X027476Y006129D01*
X027526Y006227D02*
X026589Y006227D01*
X026638Y006326D02*
X027575Y006326D01*
X027624Y006424D02*
X026687Y006424D01*
X026736Y006523D02*
X027673Y006523D01*
X027723Y006621D02*
X026785Y006621D01*
X026834Y006720D02*
X027772Y006720D01*
X027821Y006818D02*
X026883Y006818D01*
X026932Y006917D02*
X027870Y006917D01*
X027920Y007015D02*
X026981Y007015D01*
X027030Y007114D02*
X027969Y007114D01*
X028018Y007212D02*
X027078Y007212D01*
X027127Y007311D02*
X028067Y007311D01*
X028115Y007409D02*
X027176Y007409D01*
X027225Y007508D02*
X028167Y007508D01*
X028342Y007606D02*
X027274Y007606D01*
X027323Y007705D02*
X028490Y007705D01*
X028638Y007803D02*
X027377Y007803D01*
X027421Y007902D02*
X028718Y007902D01*
X028767Y008000D02*
X027428Y008000D01*
X027426Y008099D02*
X028817Y008099D01*
X028867Y008197D02*
X027388Y008197D01*
X027341Y008296D02*
X028916Y008296D01*
X028966Y008394D02*
X027297Y008394D01*
X027254Y008493D02*
X029015Y008493D01*
X029065Y008591D02*
X027210Y008591D01*
X027167Y008690D02*
X029115Y008690D01*
X029164Y008788D02*
X027123Y008788D01*
X027079Y008887D02*
X029214Y008887D01*
X029263Y008985D02*
X027075Y008985D01*
X027063Y009084D02*
X029313Y009084D01*
X029363Y009182D02*
X027022Y009182D01*
X026973Y009281D02*
X029412Y009281D01*
X029462Y009379D02*
X026874Y009379D01*
X025856Y008197D02*
X025636Y008197D01*
X025829Y008099D02*
X026012Y008099D01*
X022908Y009675D02*
X022462Y009675D01*
X022560Y009773D02*
X022958Y009773D01*
X023008Y009872D02*
X022659Y009872D01*
X022757Y009970D02*
X023059Y009970D01*
X023109Y010069D02*
X022856Y010069D01*
X022954Y010167D02*
X023159Y010167D01*
X023209Y010266D02*
X023053Y010266D01*
X023151Y010364D02*
X023259Y010364D01*
X023241Y010463D02*
X023310Y010463D01*
X023280Y010561D02*
X023359Y010561D01*
X023351Y010660D02*
X023280Y010660D01*
X023280Y010758D02*
X023361Y010758D01*
X023402Y010857D02*
X023280Y010857D01*
X023280Y010955D02*
X023488Y010955D01*
X023616Y011054D02*
X023280Y011054D01*
X023280Y011152D02*
X023668Y011152D01*
X023719Y011251D02*
X023280Y011251D01*
X023280Y011349D02*
X023771Y011349D01*
X023822Y011448D02*
X023280Y011448D01*
X023280Y011546D02*
X023874Y011546D01*
X023925Y011645D02*
X023280Y011645D01*
X023280Y011743D02*
X023977Y011743D01*
X024028Y011842D02*
X023280Y011842D01*
X023372Y011940D02*
X024088Y011940D01*
X024147Y012039D02*
X023512Y012039D01*
X023576Y012137D02*
X024207Y012137D01*
X024267Y012236D02*
X023611Y012236D01*
X023611Y012334D02*
X024327Y012334D01*
X024387Y012433D02*
X023588Y012433D01*
X023539Y012531D02*
X024446Y012531D01*
X024506Y012630D02*
X023438Y012630D01*
X023008Y012630D02*
X022636Y012630D01*
X022636Y012728D02*
X024566Y012728D01*
X024626Y012827D02*
X022636Y012827D01*
X022636Y012925D02*
X024686Y012925D01*
X024745Y013024D02*
X022636Y013024D01*
X022636Y013122D02*
X024805Y013122D01*
X024865Y013221D02*
X022636Y013221D01*
X022636Y013319D02*
X024925Y013319D01*
X024983Y013418D02*
X022735Y013418D01*
X022056Y013418D02*
X021769Y013418D01*
X021616Y013319D02*
X022056Y013319D01*
X022056Y013221D02*
X021616Y013221D01*
X021616Y013122D02*
X022056Y013122D01*
X022056Y013024D02*
X021616Y013024D01*
X021616Y012925D02*
X022056Y012925D01*
X022056Y012827D02*
X021617Y012827D01*
X021597Y012728D02*
X022056Y012728D01*
X022056Y012630D02*
X021532Y012630D01*
X021361Y012531D02*
X022056Y012531D01*
X022056Y012433D02*
X021174Y012433D01*
X020988Y012334D02*
X022056Y012334D01*
X022056Y012236D02*
X020802Y012236D01*
X020616Y012137D02*
X022056Y012137D01*
X022056Y012039D02*
X020429Y012039D01*
X020298Y011940D02*
X022056Y011940D01*
X022056Y011842D02*
X020337Y011842D01*
X020396Y011743D02*
X022056Y011743D01*
X022056Y011645D02*
X020441Y011645D01*
X020432Y011546D02*
X022056Y011546D01*
X022056Y011448D02*
X020307Y011448D01*
X020172Y011349D02*
X022056Y011349D01*
X022056Y011251D02*
X020232Y011251D01*
X020238Y011152D02*
X022056Y011152D01*
X022026Y011054D02*
X020353Y011054D01*
X020268Y011054D02*
X020077Y011054D01*
X020108Y010955D02*
X019996Y010955D01*
X019947Y010857D02*
X020056Y010857D01*
X019999Y010758D02*
X020116Y010758D01*
X020059Y010660D02*
X020177Y010660D01*
X020120Y010561D02*
X020237Y010561D01*
X020259Y010561D02*
X021321Y010561D01*
X021280Y010463D02*
X020098Y010463D01*
X019911Y010364D02*
X021270Y010364D01*
X021278Y010266D02*
X019887Y010266D01*
X019731Y010167D02*
X021318Y010167D01*
X021402Y010069D02*
X019570Y010069D01*
X019409Y009970D02*
X021937Y009970D01*
X021915Y010069D02*
X022035Y010069D01*
X021998Y010167D02*
X022134Y010167D01*
X022059Y010266D02*
X022232Y010266D01*
X022157Y010364D02*
X022331Y010364D01*
X022256Y010463D02*
X022429Y010463D01*
X022354Y010561D02*
X022528Y010561D01*
X022453Y010660D02*
X022626Y010660D01*
X022700Y010758D02*
X022551Y010758D01*
X022616Y010857D02*
X022700Y010857D01*
X022700Y010955D02*
X022636Y010955D01*
X022636Y011054D02*
X022700Y011054D01*
X022700Y011152D02*
X022636Y011152D01*
X022636Y011251D02*
X022700Y011251D01*
X022700Y011349D02*
X022636Y011349D01*
X022636Y011448D02*
X022700Y011448D01*
X022700Y011546D02*
X022636Y011546D01*
X022636Y011645D02*
X022700Y011645D01*
X022700Y011743D02*
X022636Y011743D01*
X022636Y011842D02*
X022700Y011842D01*
X022700Y011940D02*
X022636Y011940D01*
X022636Y012039D02*
X022700Y012039D01*
X022706Y012137D02*
X022636Y012137D01*
X022636Y012236D02*
X022750Y012236D01*
X022835Y012334D02*
X022636Y012334D01*
X022636Y012433D02*
X022859Y012433D01*
X022907Y012531D02*
X022636Y012531D01*
X022056Y013516D02*
X021949Y013516D01*
X020212Y011645D02*
X020212Y011645D01*
X020015Y011546D02*
X020015Y011546D01*
X020013Y011545D02*
X020013Y011545D01*
X019627Y011352D01*
X020013Y011545D01*
X020013Y011545D01*
X019996Y011578D01*
X019995Y011580D01*
X019915Y011741D01*
X019915Y011741D01*
X019909Y011753D01*
X019996Y011578D01*
X020013Y011545D01*
X020012Y011546D02*
X020012Y011546D01*
X019996Y011578D02*
X019996Y011578D01*
X019963Y011645D02*
X019963Y011645D01*
X019914Y011743D02*
X019914Y011743D01*
X019909Y011753D02*
X019909Y011753D01*
X019818Y011448D02*
X019818Y011448D01*
X019627Y011352D02*
X019660Y011285D01*
X019479Y011174D01*
X019452Y011146D01*
X019445Y011132D01*
X019338Y011158D01*
X019251Y011105D01*
X019151Y011238D01*
X019132Y011272D01*
X019117Y011284D01*
X019105Y011299D01*
X019072Y011319D01*
X019041Y011343D01*
X019022Y011348D01*
X019006Y011358D01*
X018967Y011363D01*
X018929Y011374D01*
X018911Y011371D01*
X018892Y011374D01*
X018854Y011364D01*
X018315Y011297D01*
X018310Y011294D01*
X018252Y011410D01*
X018172Y011437D01*
X018154Y011473D01*
X018136Y011509D01*
X018163Y011589D01*
X018023Y011868D01*
X017934Y012047D01*
X017794Y012326D01*
X017679Y012554D01*
X017514Y012609D01*
X016855Y012279D01*
X016839Y012230D01*
X016823Y012248D01*
X016823Y012853D01*
X019083Y014222D01*
X019083Y014189D01*
X019142Y014046D01*
X019251Y013937D01*
X019394Y013878D01*
X019449Y013878D01*
X019513Y013814D01*
X019513Y013529D01*
X019415Y013561D01*
X018756Y013231D01*
X018701Y013066D01*
X018841Y012787D01*
X018956Y012559D01*
X019070Y012330D01*
X019185Y012101D01*
X019299Y011872D01*
X019299Y011872D01*
X019414Y011643D01*
X019494Y011617D01*
X019512Y011581D01*
X019548Y011599D01*
X019548Y011599D01*
X019512Y011581D01*
X019552Y011501D01*
X019578Y011472D01*
X019579Y011471D01*
X019579Y011470D01*
X019587Y011431D01*
X019627Y011352D01*
X019628Y011349D02*
X019020Y011349D01*
X019144Y011251D02*
X019604Y011251D01*
X019459Y011152D02*
X019361Y011152D01*
X019329Y011152D02*
X019216Y011152D01*
X019584Y011448D02*
X018166Y011448D01*
X018154Y011473D02*
X018118Y011455D01*
X018154Y011473D01*
X018118Y011455D02*
X018118Y011455D01*
X018118Y011455D01*
X018149Y011546D02*
X019530Y011546D01*
X019413Y011645D02*
X018135Y011645D01*
X018086Y011743D02*
X019364Y011743D01*
X019315Y011842D02*
X018036Y011842D01*
X018023Y011868D02*
X018023Y011868D01*
X017987Y011940D02*
X019265Y011940D01*
X019216Y012039D02*
X017938Y012039D01*
X017934Y012047D02*
X017934Y012047D01*
X017888Y012137D02*
X019167Y012137D01*
X019185Y012101D02*
X019185Y012101D01*
X019117Y012236D02*
X017839Y012236D01*
X017794Y012326D02*
X017794Y012326D01*
X017790Y012334D02*
X019068Y012334D01*
X019070Y012330D02*
X019070Y012330D01*
X019019Y012433D02*
X017740Y012433D01*
X017691Y012531D02*
X018969Y012531D01*
X018956Y012559D02*
X018956Y012559D01*
X018920Y012630D02*
X016823Y012630D01*
X016823Y012728D02*
X018871Y012728D01*
X018841Y012787D02*
X018841Y012787D01*
X018821Y012827D02*
X016823Y012827D01*
X016943Y012925D02*
X018772Y012925D01*
X018723Y013024D02*
X017105Y013024D01*
X017268Y013122D02*
X018720Y013122D01*
X018753Y013221D02*
X017430Y013221D01*
X017593Y013319D02*
X018932Y013319D01*
X019129Y013418D02*
X017755Y013418D01*
X017918Y013516D02*
X019326Y013516D01*
X019513Y013615D02*
X018080Y013615D01*
X018243Y013713D02*
X019513Y013713D01*
X019513Y013812D02*
X018405Y013812D01*
X018568Y013910D02*
X019316Y013910D01*
X019179Y014009D02*
X018730Y014009D01*
X018893Y014107D02*
X019116Y014107D01*
X019083Y014206D02*
X019055Y014206D01*
X016913Y014107D02*
X015943Y014107D01*
X015943Y014009D02*
X016762Y014009D01*
X016612Y013910D02*
X015943Y013910D01*
X015943Y013812D02*
X016462Y013812D01*
X016311Y013713D02*
X015943Y013713D01*
X015943Y013615D02*
X016161Y013615D01*
X016004Y013516D02*
X015943Y013516D01*
X016823Y012531D02*
X017359Y012531D01*
X017162Y012433D02*
X016823Y012433D01*
X016823Y012334D02*
X016965Y012334D01*
X016841Y012236D02*
X016834Y012236D01*
X018283Y011349D02*
X018734Y011349D01*
X018743Y010758D02*
X018682Y010758D01*
X018719Y010660D02*
X018616Y010660D01*
X018584Y010561D02*
X018755Y010561D01*
X018815Y010463D02*
X018474Y010463D01*
X018298Y010364D02*
X018875Y010364D01*
X018936Y010266D02*
X018108Y010266D01*
X017915Y010167D02*
X018996Y010167D01*
X019057Y010069D02*
X017722Y010069D01*
X017028Y009970D02*
X019117Y009970D01*
X019319Y009675D02*
X017028Y009675D01*
X017028Y009773D02*
X019433Y009773D01*
X019220Y009576D02*
X017028Y009576D01*
X017028Y009478D02*
X019122Y009478D01*
X019035Y009379D02*
X017028Y009379D01*
X017067Y009281D02*
X018999Y009281D01*
X018999Y009182D02*
X017916Y009182D01*
X017999Y009084D02*
X018999Y009084D01*
X018999Y008985D02*
X018039Y008985D01*
X018046Y008887D02*
X018999Y008887D01*
X019579Y008887D02*
X019934Y008887D01*
X019934Y008788D02*
X019579Y008788D01*
X019633Y008690D02*
X019934Y008690D01*
X019959Y008591D02*
X019671Y008591D01*
X019671Y008493D02*
X020000Y008493D01*
X020054Y008394D02*
X019651Y008394D01*
X019607Y008296D02*
X020153Y008296D01*
X020306Y008197D02*
X019508Y008197D01*
X019058Y008197D02*
X018961Y008197D01*
X018958Y008099D02*
X022104Y008099D01*
X022154Y008197D02*
X020847Y008197D01*
X021001Y008296D02*
X022205Y008296D01*
X022255Y008394D02*
X021099Y008394D01*
X021153Y008493D02*
X022305Y008493D01*
X022355Y008591D02*
X021194Y008591D01*
X021220Y008690D02*
X022406Y008690D01*
X022456Y008788D02*
X021220Y008788D01*
X021220Y008887D02*
X022506Y008887D01*
X022556Y008985D02*
X021188Y008985D01*
X021148Y009084D02*
X022607Y009084D01*
X022657Y009182D02*
X021085Y009182D01*
X022068Y009281D02*
X022707Y009281D01*
X022757Y009379D02*
X022166Y009379D01*
X022265Y009478D02*
X022807Y009478D01*
X022858Y009576D02*
X022363Y009576D01*
X021838Y009872D02*
X017028Y009872D01*
X016386Y008915D02*
X016449Y008852D01*
X016644Y008657D01*
X016748Y008553D01*
X016884Y008496D01*
X017707Y008496D01*
X017723Y008503D01*
X017735Y008503D01*
X017758Y008512D01*
X017561Y008299D01*
X016692Y008299D01*
X016386Y008581D01*
X016386Y008915D01*
X016386Y008887D02*
X016414Y008887D01*
X016449Y008852D02*
X016449Y008852D01*
X016386Y008788D02*
X016513Y008788D01*
X016611Y008690D02*
X016386Y008690D01*
X016386Y008591D02*
X016710Y008591D01*
X016589Y008394D02*
X017649Y008394D01*
X017740Y008493D02*
X016482Y008493D01*
X018036Y008788D02*
X018050Y008788D01*
X019579Y008985D02*
X019965Y008985D01*
X020006Y009084D02*
X019579Y009084D01*
X019646Y009182D02*
X020068Y009182D01*
X020420Y010660D02*
X021408Y010660D01*
X021731Y010758D02*
X020488Y010758D01*
X020473Y010857D02*
X021829Y010857D01*
X021928Y010955D02*
X020413Y010955D01*
X025135Y011251D02*
X026183Y011251D01*
X026084Y011349D02*
X025189Y011349D01*
X025242Y011448D02*
X026041Y011448D01*
X026020Y011546D02*
X025296Y011546D01*
X025349Y011645D02*
X025853Y011645D01*
X020697Y006030D02*
X015051Y006030D01*
X015141Y005932D02*
X020752Y005932D01*
X020085Y005242D02*
X016611Y005242D01*
X015147Y004295D02*
X015137Y004257D01*
X015374Y003371D02*
X015873Y003371D01*
X015971Y003272D02*
X015373Y003272D01*
X015371Y003174D02*
X016070Y003174D01*
X016168Y003075D02*
X015370Y003075D01*
X015369Y002977D02*
X016267Y002977D01*
X013903Y004212D02*
X013822Y004212D01*
X013873Y004257D02*
X013893Y004222D01*
X013903Y004212D01*
X013863Y004356D02*
X013652Y004356D01*
X013535Y004454D02*
X013863Y004454D01*
X013863Y004553D02*
X013420Y004553D01*
X013379Y004651D02*
X013863Y004651D01*
X013863Y004750D02*
X013322Y004750D01*
X013223Y004848D02*
X013863Y004848D01*
X013863Y005242D02*
X012535Y005242D01*
X011910Y005045D02*
X008730Y005045D01*
X006341Y005636D02*
X006330Y005636D01*
X006341Y005735D02*
X005028Y005735D01*
X005008Y005636D02*
X004933Y005636D01*
X004969Y005538D02*
X004840Y005538D01*
X004840Y005439D02*
X004969Y005439D01*
X004969Y005341D02*
X004840Y005341D01*
X004840Y005242D02*
X004969Y005242D01*
X004969Y005144D02*
X004840Y005144D01*
X005078Y005833D02*
X006341Y005833D01*
X008894Y008099D02*
X009462Y008099D01*
X009254Y008197D02*
X008963Y008197D01*
X009013Y008296D02*
X009045Y008296D01*
X009216Y008591D02*
X010774Y008591D01*
X010780Y008493D02*
X009424Y008493D01*
X009632Y008394D02*
X010821Y008394D01*
X010889Y008296D02*
X009841Y008296D01*
X010049Y008197D02*
X011015Y008197D01*
X010777Y008690D02*
X009057Y008690D01*
X009107Y008788D02*
X010811Y008788D01*
X010811Y008887D02*
X009157Y008887D01*
X009209Y008988D02*
X008681Y009257D01*
X009084Y010048D01*
X009496Y009838D01*
X009525Y009811D01*
X009547Y009778D01*
X009559Y009741D01*
X009561Y009701D01*
X009553Y009663D01*
X009209Y008988D01*
X009258Y009084D02*
X010811Y009084D01*
X010811Y009182D02*
X009308Y009182D01*
X009358Y009281D02*
X010811Y009281D01*
X010811Y009379D02*
X009408Y009379D01*
X009459Y009478D02*
X010811Y009478D01*
X010811Y009576D02*
X009509Y009576D01*
X009555Y009675D02*
X010811Y009675D01*
X010811Y009773D02*
X009548Y009773D01*
X009429Y009872D02*
X010811Y009872D01*
X010811Y009970D02*
X009236Y009970D01*
X009045Y009970D02*
X008933Y009970D01*
X008883Y009872D02*
X008995Y009872D01*
X008945Y009773D02*
X008832Y009773D01*
X008782Y009675D02*
X008894Y009675D01*
X008844Y009576D02*
X008732Y009576D01*
X008682Y009478D02*
X008794Y009478D01*
X008744Y009379D02*
X008632Y009379D01*
X008592Y009302D02*
X008995Y010093D01*
X008584Y010303D01*
X008545Y010311D01*
X008506Y010309D01*
X008468Y010297D01*
X008435Y010275D01*
X008409Y010246D01*
X008065Y009571D01*
X008592Y009302D01*
X008581Y009281D02*
X008414Y009281D01*
X008441Y009379D02*
X008221Y009379D01*
X008248Y009478D02*
X008028Y009478D01*
X008017Y009478D02*
X007898Y009478D01*
X007950Y009576D02*
X008067Y009576D01*
X008118Y009675D02*
X008003Y009675D01*
X008055Y009773D02*
X008168Y009773D01*
X008218Y009872D02*
X008107Y009872D01*
X008159Y009970D02*
X008268Y009970D01*
X008318Y010069D02*
X008212Y010069D01*
X008264Y010167D02*
X008369Y010167D01*
X008316Y010266D02*
X008427Y010266D01*
X008368Y010364D02*
X010811Y010364D01*
X010811Y010266D02*
X008656Y010266D01*
X008849Y010167D02*
X010811Y010167D01*
X010811Y010069D02*
X008983Y010069D01*
X008420Y010463D02*
X010811Y010463D01*
X010811Y010561D02*
X008473Y010561D01*
X008525Y010660D02*
X010811Y010660D01*
X010793Y010758D02*
X008577Y010758D01*
X008629Y010857D02*
X010774Y010857D01*
X010774Y010955D02*
X010279Y010955D01*
X010329Y011054D02*
X010805Y011054D01*
X010851Y011152D02*
X010379Y011152D01*
X010429Y011251D02*
X010949Y011251D01*
X010530Y011448D02*
X012338Y011448D01*
X012248Y011546D02*
X010580Y011546D01*
X010479Y011349D02*
X012429Y011349D01*
X012520Y011251D02*
X011492Y011251D01*
X011591Y011152D02*
X012610Y011152D01*
X009979Y010955D02*
X008682Y010955D01*
X008734Y011054D02*
X009785Y011054D01*
X009592Y011152D02*
X008786Y011152D01*
X008838Y011251D02*
X009399Y011251D01*
X009206Y011349D02*
X008891Y011349D01*
X008943Y011448D02*
X009065Y011448D01*
X009033Y011546D02*
X008995Y011546D01*
X009047Y011645D02*
X009054Y011645D01*
X009100Y011743D02*
X009104Y011743D01*
X009152Y011842D02*
X009154Y011842D01*
X009204Y011940D02*
X009205Y011940D01*
X008694Y009281D02*
X008635Y009281D01*
X008643Y009182D02*
X008828Y009182D01*
X008801Y009084D02*
X009021Y009084D01*
X008994Y008985D02*
X010811Y008985D01*
X007967Y009379D02*
X007846Y009379D01*
X007794Y009281D02*
X007917Y009281D01*
X011910Y006720D02*
X012010Y006720D01*
X012010Y006621D02*
X011910Y006621D01*
X011910Y006523D02*
X012010Y006523D01*
X012535Y006227D02*
X012816Y006227D01*
X012790Y006129D02*
X012533Y006129D01*
X013460Y005636D02*
X013863Y005636D01*
X013863Y005538D02*
X013411Y005538D01*
X013362Y005439D02*
X013863Y005439D01*
X013863Y005341D02*
X013251Y005341D01*
X013509Y005735D02*
X013863Y005735D01*
X013863Y005833D02*
X013558Y005833D01*
X013608Y005932D02*
X013869Y005932D01*
X013959Y006030D02*
X013636Y006030D01*
X013640Y006129D02*
X014161Y006129D01*
X014161Y006227D02*
X013636Y006227D01*
X013636Y006326D02*
X014195Y006326D01*
X022811Y003909D02*
X022811Y003909D01*
X021046Y017752D02*
X020948Y017752D01*
X020948Y017850D02*
X021145Y017850D01*
X021243Y017949D02*
X020948Y017949D01*
X020948Y018047D02*
X021342Y018047D01*
X021440Y018146D02*
X020962Y018146D01*
X028685Y020904D02*
X033207Y020904D01*
X033166Y021002D02*
X028685Y021002D01*
X028685Y021101D02*
X033149Y021101D01*
X033149Y021199D02*
X028685Y021199D01*
X028689Y021298D02*
X033149Y021298D01*
X033178Y021396D02*
X028673Y021396D01*
X030248Y021495D02*
X033219Y021495D01*
X033266Y021593D02*
X030313Y021593D01*
X030313Y021692D02*
X033365Y021692D01*
X033478Y021790D02*
X030313Y021790D01*
X030313Y021889D02*
X035361Y021889D01*
X035411Y021987D02*
X030313Y021987D01*
X030313Y022086D02*
X035460Y022086D01*
X035509Y022184D02*
X030313Y022184D01*
X034223Y021790D02*
X035312Y021790D01*
X035263Y021692D02*
X034337Y021692D01*
X034435Y021593D02*
X035214Y021593D01*
X035164Y021495D02*
X034482Y021495D01*
X034523Y021396D02*
X035115Y021396D01*
X035066Y021298D02*
X034553Y021298D01*
X034553Y021199D02*
X035017Y021199D01*
X034967Y021101D02*
X034553Y021101D01*
X034535Y021002D02*
X034918Y021002D01*
X034869Y020904D02*
X034494Y020904D01*
X034454Y020805D02*
X034820Y020805D01*
X034770Y020707D02*
X034366Y020707D01*
X034267Y020608D02*
X034721Y020608D01*
X034672Y020510D02*
X034056Y020510D01*
X033342Y017850D02*
X032903Y017850D01*
X033100Y017752D02*
X033293Y017752D01*
D23*
X032686Y020502D03*
D24*
X022724Y003531D03*
D25*
X017166Y010641D02*
X017243Y010718D01*
X017883Y011051D01*
X017768Y011280D02*
X018346Y011579D01*
X018658Y011891D01*
X018408Y011016D02*
X017997Y010822D01*
X017243Y010718D02*
X017221Y010704D01*
X017166Y010641D01*
X016783Y011329D02*
X017539Y011737D01*
X017424Y011966D02*
X016908Y011704D01*
X019325Y012918D02*
X019783Y013141D01*
X019783Y013954D01*
X020596Y013704D02*
X020596Y013016D01*
X019554Y012460D01*
X019669Y012232D02*
X020971Y012954D01*
X020971Y014079D01*
X021346Y013516D02*
X021346Y012829D01*
X019784Y012003D01*
X019898Y011774D02*
X020013Y011545D01*
X019440Y012689D02*
X020158Y013079D01*
X020158Y014829D01*
D26*
X018658Y011891D03*
X008496Y005461D03*
D27*
X014549Y006167D03*
X015978Y007167D03*
X017121Y008424D03*
X017658Y008891D03*
X018573Y008183D03*
X019283Y008521D03*
X021658Y010361D03*
X021596Y011454D03*
X023223Y012299D03*
X023533Y014141D03*
X023283Y014579D03*
X022783Y015454D03*
X022408Y016329D03*
X021846Y017016D03*
X020658Y018391D03*
X020783Y020329D03*
X024908Y018026D03*
X026533Y017016D03*
X025033Y016141D03*
X023971Y016579D03*
X020941Y014470D03*
X020596Y013704D03*
X019471Y014266D03*
X015596Y011079D03*
X015033Y011079D03*
X016096Y010766D03*
X017221Y010704D03*
X014846Y009454D03*
X016362Y005542D03*
X020596Y005141D03*
X021056Y006176D03*
X023221Y005141D03*
X024681Y007098D03*
X023739Y010657D03*
X025971Y012016D03*
X025971Y012579D03*
X026846Y012516D03*
X026408Y011574D03*
X026096Y013766D03*
X027846Y014204D03*
X025846Y019704D03*
X026999Y020672D03*
D28*
X025846Y019704D02*
X025846Y017454D01*
X025721Y017329D01*
X022658Y017329D01*
X022533Y017454D01*
X021721Y017454D01*
X021408Y017141D01*
X021408Y014704D01*
X020941Y014470D01*
X020971Y014079D02*
X022783Y015016D01*
X022783Y015454D01*
X022408Y016329D02*
X023596Y016329D01*
X023846Y016079D01*
X023846Y015516D01*
X024471Y014891D01*
X024471Y014391D01*
X025346Y013454D01*
X024283Y011704D01*
X023647Y010486D01*
X023673Y010539D01*
X023739Y010657D01*
X023647Y010486D02*
X022253Y007752D01*
X018533Y007752D01*
X018573Y008183D01*
X018971Y008519D02*
X018158Y008519D01*
X017688Y008009D01*
X016579Y008009D01*
X016096Y008454D01*
X016096Y010766D01*
X015596Y011079D02*
X015596Y008454D01*
X016336Y007752D01*
X018533Y007752D01*
X018971Y008519D02*
X019283Y008521D01*
X019289Y008527D01*
X019289Y009235D01*
X019570Y009516D01*
X021893Y009516D01*
X022990Y010613D01*
X022990Y012065D01*
X023223Y012299D01*
X022346Y013516D02*
X022346Y010963D01*
X021783Y010401D01*
X021658Y010361D01*
X019957Y010922D02*
X020013Y011545D01*
X018908Y011079D02*
X018408Y011016D01*
X018908Y011079D02*
X019320Y010531D01*
X018112Y010593D02*
X017471Y010266D01*
X016783Y010266D01*
X016658Y010141D01*
X016783Y011329D02*
X016158Y012016D01*
X016158Y013266D01*
X017971Y014454D01*
X018326Y014661D01*
X018346Y014681D01*
X018346Y016766D01*
X018013Y017099D01*
X018013Y019831D01*
X020783Y020329D02*
X021346Y020891D01*
X024346Y020891D01*
X024908Y020329D01*
X024908Y018026D01*
X023801Y018047D02*
X023707Y017954D01*
X021658Y017954D01*
X021033Y017329D01*
X021033Y015329D01*
X020158Y014829D01*
X020658Y015516D02*
X020658Y018391D01*
X021846Y017016D02*
X026533Y017016D01*
X026533Y016141D02*
X025033Y016141D01*
X024221Y016329D02*
X024221Y015579D01*
X024783Y015016D01*
X024783Y014516D01*
X025533Y013766D01*
X026096Y013766D01*
X025783Y013454D02*
X025346Y013454D01*
X025783Y013454D02*
X026408Y012829D01*
X026408Y011574D01*
X025971Y012016D02*
X025221Y012016D01*
X022589Y007167D01*
X015978Y007167D01*
X014408Y008579D01*
X014408Y010766D01*
X014658Y011079D01*
X015033Y011079D01*
X016533Y012141D02*
X016533Y013016D01*
X020658Y015516D01*
X019471Y014266D02*
X019783Y013954D01*
X021346Y013516D02*
X023283Y014579D01*
X023533Y014141D02*
X022408Y013579D01*
X022346Y013516D01*
X025158Y012579D02*
X025971Y012579D01*
X025158Y012579D02*
X022441Y007479D01*
X016126Y007479D01*
X014846Y008641D01*
X014846Y009454D01*
X016908Y011704D02*
X016533Y012141D01*
X023971Y016579D02*
X024221Y016329D01*
X026533Y016141D02*
X027346Y015329D01*
X027346Y014769D01*
X026846Y014269D01*
X026846Y012516D01*
X027846Y011766D02*
X026471Y010391D01*
X025121Y010391D01*
X022996Y006391D01*
X022996Y005366D01*
X023221Y005141D01*
X021056Y006176D02*
X020785Y006401D01*
X014762Y006401D01*
X014549Y006167D01*
X016362Y005542D02*
X020195Y005542D01*
X020596Y005141D01*
X021056Y006176D02*
X020987Y006206D01*
X027846Y011766D02*
X027846Y014204D01*
X023801Y019897D02*
X023414Y019834D01*
D29*
X028029Y018251D03*
X028226Y017464D03*
X026353Y014609D03*
X012818Y015368D03*
X008069Y008054D03*
X008777Y007759D03*
X009506Y007798D03*
X012922Y004435D03*
D30*
X012221Y008454D03*
X011221Y008595D03*
X011221Y010891D03*
X017533Y015891D03*
X018869Y015891D03*
X020158Y017454D03*
X022678Y018635D03*
X018547Y009039D03*
D31*
X015533Y011579D02*
X013783Y011579D01*
X013258Y011054D01*
X012349Y012041D01*
X010044Y012041D01*
X011221Y010891D02*
X011221Y008595D01*
X012221Y008454D02*
X013158Y008454D01*
X013221Y008391D01*
X013221Y006667D01*
X013265Y006746D01*
X013226Y006627D01*
X013226Y006086D01*
X013031Y005693D01*
X011960Y005693D01*
X011960Y005023D02*
X014347Y005023D01*
X014505Y005102D01*
X013673Y003802D02*
X012922Y004435D01*
X012885Y004373D01*
X011960Y004353D01*
X011960Y003683D02*
X012774Y003683D01*
X013088Y003369D01*
X013088Y002603D01*
X013142Y002439D01*
X013959Y002439D01*
X014505Y001952D01*
X013142Y002439D02*
X012439Y002446D01*
X006157Y002446D01*
X005726Y002916D01*
X005726Y003452D01*
X005669Y003474D01*
X008680Y005023D02*
X011960Y005023D01*
X013673Y003802D02*
X016021Y003802D01*
X016772Y003052D01*
X018135Y003052D01*
X021971Y005329D02*
X021971Y006016D01*
X021971Y005329D02*
X023158Y004141D01*
X025096Y004141D01*
X027018Y008012D01*
X026574Y009016D01*
X026495Y008938D01*
X015533Y011579D02*
X015533Y015391D01*
X017408Y017266D01*
X017408Y020079D01*
X017846Y020516D01*
X018408Y020516D01*
X018596Y020329D01*
X018596Y019840D01*
X018604Y019831D01*
X018604Y019832D01*
X018604Y019831D02*
X018596Y019823D01*
X018596Y019454D01*
X018783Y019266D01*
X019811Y019266D01*
X019785Y019292D01*
X019785Y019831D01*
X019811Y019266D02*
X020945Y019266D01*
X020946Y019268D01*
X020946Y019831D01*
X020945Y019266D02*
X021995Y019266D01*
X022127Y019398D01*
X022127Y019831D01*
X022127Y019831D01*
X012832Y015353D02*
X012832Y014038D01*
X012832Y015353D02*
X012818Y015368D01*
X013258Y011054D02*
X013158Y010954D01*
X013158Y008454D01*
D32*
X008496Y005461D02*
X008241Y005205D01*
X008680Y005023D01*
D33*
X018604Y019831D02*
X018563Y019952D01*
D34*
X021537Y019831D02*
X021533Y020204D01*
X021783Y020454D01*
X023181Y020454D01*
X023801Y019897D01*
X015971Y011579D02*
X015533Y011579D01*
X015971Y011579D02*
X016658Y010891D01*
X016658Y010141D01*
X016658Y009166D01*
X016958Y008866D01*
X017633Y008866D01*
X017658Y008891D01*
X021343Y006746D02*
X013265Y006746D01*
X012922Y004435D02*
X012931Y004385D01*
X021343Y006746D02*
X021971Y006016D01*
D35*
X028817Y017109D03*
M02*
