G75*
%MOIN*%
%OFA0B0*%
%FSLAX24Y24*%
%IPPOS*%
%LPD*%
%AMOC8*
5,1,8,0,0,1.08239X$1,22.5*
%
%ADD10C,0.0000*%
%ADD11C,0.0030*%
%ADD12C,0.0039*%
%ADD13C,0.0020*%
%ADD14C,0.0120*%
%ADD15C,0.0060*%
%ADD16C,0.0080*%
%ADD17C,0.0040*%
%ADD18R,0.0660X0.0380*%
%ADD19R,0.0492X0.2441*%
%ADD20C,0.0050*%
%ADD21C,0.0028*%
%ADD22R,0.0236X0.0709*%
%ADD23R,0.0236X0.0433*%
D10*
X001543Y001214D02*
X007057Y001214D01*
X007162Y001332D01*
X007163Y001992D01*
X010376Y001990D01*
X010370Y000897D01*
X017853Y000897D01*
X018407Y001214D01*
X025254Y001214D01*
X028315Y007336D01*
X028846Y007690D01*
X032212Y014373D01*
X031218Y014865D01*
X032655Y017739D01*
X033246Y017444D01*
X033393Y017483D01*
X035864Y022424D01*
X030103Y022423D01*
X030103Y022424D02*
X030103Y021647D01*
X026989Y021647D01*
X026989Y022739D01*
X019476Y022739D01*
X018689Y022424D01*
X012143Y022424D01*
X009220Y016568D01*
X008561Y015977D01*
X005204Y009265D01*
X006218Y008753D01*
X004781Y005889D01*
X004191Y006184D01*
X004004Y006145D01*
X001543Y001214D01*
X003060Y002453D02*
X003062Y002497D01*
X003068Y002541D01*
X003078Y002584D01*
X003091Y002626D01*
X003109Y002666D01*
X003130Y002705D01*
X003154Y002742D01*
X003181Y002777D01*
X003212Y002809D01*
X003245Y002838D01*
X003281Y002864D01*
X003319Y002886D01*
X003359Y002905D01*
X003400Y002921D01*
X003443Y002933D01*
X003486Y002941D01*
X003530Y002945D01*
X003574Y002945D01*
X003618Y002941D01*
X003661Y002933D01*
X003704Y002921D01*
X003745Y002905D01*
X003785Y002886D01*
X003823Y002864D01*
X003859Y002838D01*
X003892Y002809D01*
X003923Y002777D01*
X003950Y002742D01*
X003974Y002705D01*
X003995Y002666D01*
X004013Y002626D01*
X004026Y002584D01*
X004036Y002541D01*
X004042Y002497D01*
X004044Y002453D01*
X004042Y002409D01*
X004036Y002365D01*
X004026Y002322D01*
X004013Y002280D01*
X003995Y002240D01*
X003974Y002201D01*
X003950Y002164D01*
X003923Y002129D01*
X003892Y002097D01*
X003859Y002068D01*
X003823Y002042D01*
X003785Y002020D01*
X003745Y002001D01*
X003704Y001985D01*
X003661Y001973D01*
X003618Y001965D01*
X003574Y001961D01*
X003530Y001961D01*
X003486Y001965D01*
X003443Y001973D01*
X003400Y001985D01*
X003359Y002001D01*
X003319Y002020D01*
X003281Y002042D01*
X003245Y002068D01*
X003212Y002097D01*
X003181Y002129D01*
X003154Y002164D01*
X003130Y002201D01*
X003109Y002240D01*
X003091Y002280D01*
X003078Y002322D01*
X003068Y002365D01*
X003062Y002409D01*
X003060Y002453D01*
X016391Y014853D02*
X016393Y014894D01*
X016399Y014935D01*
X016409Y014975D01*
X016422Y015014D01*
X016439Y015051D01*
X016460Y015087D01*
X016484Y015121D01*
X016511Y015152D01*
X016540Y015180D01*
X016573Y015206D01*
X016607Y015228D01*
X016644Y015247D01*
X016682Y015262D01*
X016722Y015274D01*
X016762Y015282D01*
X016803Y015286D01*
X016845Y015286D01*
X016886Y015282D01*
X016926Y015274D01*
X016966Y015262D01*
X017004Y015247D01*
X017040Y015228D01*
X017075Y015206D01*
X017108Y015180D01*
X017137Y015152D01*
X017164Y015121D01*
X017188Y015087D01*
X017209Y015051D01*
X017226Y015014D01*
X017239Y014975D01*
X017249Y014935D01*
X017255Y014894D01*
X017257Y014853D01*
X017255Y014812D01*
X017249Y014771D01*
X017239Y014731D01*
X017226Y014692D01*
X017209Y014655D01*
X017188Y014619D01*
X017164Y014585D01*
X017137Y014554D01*
X017108Y014526D01*
X017075Y014500D01*
X017041Y014478D01*
X017004Y014459D01*
X016966Y014444D01*
X016926Y014432D01*
X016886Y014424D01*
X016845Y014420D01*
X016803Y014420D01*
X016762Y014424D01*
X016722Y014432D01*
X016682Y014444D01*
X016644Y014459D01*
X016608Y014478D01*
X016573Y014500D01*
X016540Y014526D01*
X016511Y014554D01*
X016484Y014585D01*
X016460Y014619D01*
X016439Y014655D01*
X016422Y014692D01*
X016409Y014731D01*
X016399Y014771D01*
X016393Y014812D01*
X016391Y014853D01*
X012163Y017582D02*
X012165Y017623D01*
X012171Y017664D01*
X012181Y017704D01*
X012194Y017743D01*
X012211Y017780D01*
X012232Y017816D01*
X012256Y017850D01*
X012283Y017881D01*
X012312Y017909D01*
X012345Y017935D01*
X012379Y017957D01*
X012416Y017976D01*
X012454Y017991D01*
X012494Y018003D01*
X012534Y018011D01*
X012575Y018015D01*
X012617Y018015D01*
X012658Y018011D01*
X012698Y018003D01*
X012738Y017991D01*
X012776Y017976D01*
X012812Y017957D01*
X012847Y017935D01*
X012880Y017909D01*
X012909Y017881D01*
X012936Y017850D01*
X012960Y017816D01*
X012981Y017780D01*
X012998Y017743D01*
X013011Y017704D01*
X013021Y017664D01*
X013027Y017623D01*
X013029Y017582D01*
X013027Y017541D01*
X013021Y017500D01*
X013011Y017460D01*
X012998Y017421D01*
X012981Y017384D01*
X012960Y017348D01*
X012936Y017314D01*
X012909Y017283D01*
X012880Y017255D01*
X012847Y017229D01*
X012813Y017207D01*
X012776Y017188D01*
X012738Y017173D01*
X012698Y017161D01*
X012658Y017153D01*
X012617Y017149D01*
X012575Y017149D01*
X012534Y017153D01*
X012494Y017161D01*
X012454Y017173D01*
X012416Y017188D01*
X012380Y017207D01*
X012345Y017229D01*
X012312Y017255D01*
X012283Y017283D01*
X012256Y017314D01*
X012232Y017348D01*
X012211Y017384D01*
X012194Y017421D01*
X012181Y017460D01*
X012171Y017500D01*
X012165Y017541D01*
X012163Y017582D01*
X013187Y018133D02*
X013189Y018174D01*
X013195Y018215D01*
X013205Y018255D01*
X013218Y018294D01*
X013235Y018331D01*
X013256Y018367D01*
X013280Y018401D01*
X013307Y018432D01*
X013336Y018460D01*
X013369Y018486D01*
X013403Y018508D01*
X013440Y018527D01*
X013478Y018542D01*
X013518Y018554D01*
X013558Y018562D01*
X013599Y018566D01*
X013641Y018566D01*
X013682Y018562D01*
X013722Y018554D01*
X013762Y018542D01*
X013800Y018527D01*
X013836Y018508D01*
X013871Y018486D01*
X013904Y018460D01*
X013933Y018432D01*
X013960Y018401D01*
X013984Y018367D01*
X014005Y018331D01*
X014022Y018294D01*
X014035Y018255D01*
X014045Y018215D01*
X014051Y018174D01*
X014053Y018133D01*
X014051Y018092D01*
X014045Y018051D01*
X014035Y018011D01*
X014022Y017972D01*
X014005Y017935D01*
X013984Y017899D01*
X013960Y017865D01*
X013933Y017834D01*
X013904Y017806D01*
X013871Y017780D01*
X013837Y017758D01*
X013800Y017739D01*
X013762Y017724D01*
X013722Y017712D01*
X013682Y017704D01*
X013641Y017700D01*
X013599Y017700D01*
X013558Y017704D01*
X013518Y017712D01*
X013478Y017724D01*
X013440Y017739D01*
X013404Y017758D01*
X013369Y017780D01*
X013336Y017806D01*
X013307Y017834D01*
X013280Y017865D01*
X013256Y017899D01*
X013235Y017935D01*
X013218Y017972D01*
X013205Y018011D01*
X013195Y018051D01*
X013189Y018092D01*
X013187Y018133D01*
X014171Y018723D02*
X014173Y018764D01*
X014179Y018805D01*
X014189Y018845D01*
X014202Y018884D01*
X014219Y018921D01*
X014240Y018957D01*
X014264Y018991D01*
X014291Y019022D01*
X014320Y019050D01*
X014353Y019076D01*
X014387Y019098D01*
X014424Y019117D01*
X014462Y019132D01*
X014502Y019144D01*
X014542Y019152D01*
X014583Y019156D01*
X014625Y019156D01*
X014666Y019152D01*
X014706Y019144D01*
X014746Y019132D01*
X014784Y019117D01*
X014820Y019098D01*
X014855Y019076D01*
X014888Y019050D01*
X014917Y019022D01*
X014944Y018991D01*
X014968Y018957D01*
X014989Y018921D01*
X015006Y018884D01*
X015019Y018845D01*
X015029Y018805D01*
X015035Y018764D01*
X015037Y018723D01*
X015035Y018682D01*
X015029Y018641D01*
X015019Y018601D01*
X015006Y018562D01*
X014989Y018525D01*
X014968Y018489D01*
X014944Y018455D01*
X014917Y018424D01*
X014888Y018396D01*
X014855Y018370D01*
X014821Y018348D01*
X014784Y018329D01*
X014746Y018314D01*
X014706Y018302D01*
X014666Y018294D01*
X014625Y018290D01*
X014583Y018290D01*
X014542Y018294D01*
X014502Y018302D01*
X014462Y018314D01*
X014424Y018329D01*
X014388Y018348D01*
X014353Y018370D01*
X014320Y018396D01*
X014291Y018424D01*
X014264Y018455D01*
X014240Y018489D01*
X014219Y018525D01*
X014202Y018562D01*
X014189Y018601D01*
X014179Y018641D01*
X014173Y018682D01*
X014171Y018723D01*
X015155Y019275D02*
X015157Y019316D01*
X015163Y019357D01*
X015173Y019397D01*
X015186Y019436D01*
X015203Y019473D01*
X015224Y019509D01*
X015248Y019543D01*
X015275Y019574D01*
X015304Y019602D01*
X015337Y019628D01*
X015371Y019650D01*
X015408Y019669D01*
X015446Y019684D01*
X015486Y019696D01*
X015526Y019704D01*
X015567Y019708D01*
X015609Y019708D01*
X015650Y019704D01*
X015690Y019696D01*
X015730Y019684D01*
X015768Y019669D01*
X015804Y019650D01*
X015839Y019628D01*
X015872Y019602D01*
X015901Y019574D01*
X015928Y019543D01*
X015952Y019509D01*
X015973Y019473D01*
X015990Y019436D01*
X016003Y019397D01*
X016013Y019357D01*
X016019Y019316D01*
X016021Y019275D01*
X016019Y019234D01*
X016013Y019193D01*
X016003Y019153D01*
X015990Y019114D01*
X015973Y019077D01*
X015952Y019041D01*
X015928Y019007D01*
X015901Y018976D01*
X015872Y018948D01*
X015839Y018922D01*
X015805Y018900D01*
X015768Y018881D01*
X015730Y018866D01*
X015690Y018854D01*
X015650Y018846D01*
X015609Y018842D01*
X015567Y018842D01*
X015526Y018846D01*
X015486Y018854D01*
X015446Y018866D01*
X015408Y018881D01*
X015372Y018900D01*
X015337Y018922D01*
X015304Y018948D01*
X015275Y018976D01*
X015248Y019007D01*
X015224Y019041D01*
X015203Y019077D01*
X015186Y019114D01*
X015173Y019153D01*
X015163Y019193D01*
X015157Y019234D01*
X015155Y019275D01*
X016140Y019865D02*
X016142Y019906D01*
X016148Y019947D01*
X016158Y019987D01*
X016171Y020026D01*
X016188Y020063D01*
X016209Y020099D01*
X016233Y020133D01*
X016260Y020164D01*
X016289Y020192D01*
X016322Y020218D01*
X016356Y020240D01*
X016393Y020259D01*
X016431Y020274D01*
X016471Y020286D01*
X016511Y020294D01*
X016552Y020298D01*
X016594Y020298D01*
X016635Y020294D01*
X016675Y020286D01*
X016715Y020274D01*
X016753Y020259D01*
X016789Y020240D01*
X016824Y020218D01*
X016857Y020192D01*
X016886Y020164D01*
X016913Y020133D01*
X016937Y020099D01*
X016958Y020063D01*
X016975Y020026D01*
X016988Y019987D01*
X016998Y019947D01*
X017004Y019906D01*
X017006Y019865D01*
X017004Y019824D01*
X016998Y019783D01*
X016988Y019743D01*
X016975Y019704D01*
X016958Y019667D01*
X016937Y019631D01*
X016913Y019597D01*
X016886Y019566D01*
X016857Y019538D01*
X016824Y019512D01*
X016790Y019490D01*
X016753Y019471D01*
X016715Y019456D01*
X016675Y019444D01*
X016635Y019436D01*
X016594Y019432D01*
X016552Y019432D01*
X016511Y019436D01*
X016471Y019444D01*
X016431Y019456D01*
X016393Y019471D01*
X016357Y019490D01*
X016322Y019512D01*
X016289Y019538D01*
X016260Y019566D01*
X016233Y019597D01*
X016209Y019631D01*
X016188Y019667D01*
X016171Y019704D01*
X016158Y019743D01*
X016148Y019783D01*
X016142Y019824D01*
X016140Y019865D01*
X012478Y021079D02*
X012480Y021123D01*
X012486Y021167D01*
X012496Y021210D01*
X012509Y021252D01*
X012527Y021292D01*
X012548Y021331D01*
X012572Y021368D01*
X012599Y021403D01*
X012630Y021435D01*
X012663Y021464D01*
X012699Y021490D01*
X012737Y021512D01*
X012777Y021531D01*
X012818Y021547D01*
X012861Y021559D01*
X012904Y021567D01*
X012948Y021571D01*
X012992Y021571D01*
X013036Y021567D01*
X013079Y021559D01*
X013122Y021547D01*
X013163Y021531D01*
X013203Y021512D01*
X013241Y021490D01*
X013277Y021464D01*
X013310Y021435D01*
X013341Y021403D01*
X013368Y021368D01*
X013392Y021331D01*
X013413Y021292D01*
X013431Y021252D01*
X013444Y021210D01*
X013454Y021167D01*
X013460Y021123D01*
X013462Y021079D01*
X013460Y021035D01*
X013454Y020991D01*
X013444Y020948D01*
X013431Y020906D01*
X013413Y020866D01*
X013392Y020827D01*
X013368Y020790D01*
X013341Y020755D01*
X013310Y020723D01*
X013277Y020694D01*
X013241Y020668D01*
X013203Y020646D01*
X013163Y020627D01*
X013122Y020611D01*
X013079Y020599D01*
X013036Y020591D01*
X012992Y020587D01*
X012948Y020587D01*
X012904Y020591D01*
X012861Y020599D01*
X012818Y020611D01*
X012777Y020627D01*
X012737Y020646D01*
X012699Y020668D01*
X012663Y020694D01*
X012630Y020723D01*
X012599Y020755D01*
X012572Y020790D01*
X012548Y020827D01*
X012527Y020866D01*
X012509Y020906D01*
X012496Y020948D01*
X012486Y020991D01*
X012480Y021035D01*
X012478Y021079D01*
X020144Y008781D02*
X020146Y008822D01*
X020152Y008863D01*
X020162Y008903D01*
X020175Y008942D01*
X020192Y008979D01*
X020213Y009015D01*
X020237Y009049D01*
X020264Y009080D01*
X020293Y009108D01*
X020326Y009134D01*
X020360Y009156D01*
X020397Y009175D01*
X020435Y009190D01*
X020475Y009202D01*
X020515Y009210D01*
X020556Y009214D01*
X020598Y009214D01*
X020639Y009210D01*
X020679Y009202D01*
X020719Y009190D01*
X020757Y009175D01*
X020793Y009156D01*
X020828Y009134D01*
X020861Y009108D01*
X020890Y009080D01*
X020917Y009049D01*
X020941Y009015D01*
X020962Y008979D01*
X020979Y008942D01*
X020992Y008903D01*
X021002Y008863D01*
X021008Y008822D01*
X021010Y008781D01*
X021008Y008740D01*
X021002Y008699D01*
X020992Y008659D01*
X020979Y008620D01*
X020962Y008583D01*
X020941Y008547D01*
X020917Y008513D01*
X020890Y008482D01*
X020861Y008454D01*
X020828Y008428D01*
X020794Y008406D01*
X020757Y008387D01*
X020719Y008372D01*
X020679Y008360D01*
X020639Y008352D01*
X020598Y008348D01*
X020556Y008348D01*
X020515Y008352D01*
X020475Y008360D01*
X020435Y008372D01*
X020397Y008387D01*
X020361Y008406D01*
X020326Y008428D01*
X020293Y008454D01*
X020264Y008482D01*
X020237Y008513D01*
X020213Y008547D01*
X020192Y008583D01*
X020175Y008620D01*
X020162Y008659D01*
X020152Y008699D01*
X020146Y008740D01*
X020144Y008781D01*
X023929Y002550D02*
X023931Y002594D01*
X023937Y002638D01*
X023947Y002681D01*
X023960Y002723D01*
X023978Y002763D01*
X023999Y002802D01*
X024023Y002839D01*
X024050Y002874D01*
X024081Y002906D01*
X024114Y002935D01*
X024150Y002961D01*
X024188Y002983D01*
X024228Y003002D01*
X024269Y003018D01*
X024312Y003030D01*
X024355Y003038D01*
X024399Y003042D01*
X024443Y003042D01*
X024487Y003038D01*
X024530Y003030D01*
X024573Y003018D01*
X024614Y003002D01*
X024654Y002983D01*
X024692Y002961D01*
X024728Y002935D01*
X024761Y002906D01*
X024792Y002874D01*
X024819Y002839D01*
X024843Y002802D01*
X024864Y002763D01*
X024882Y002723D01*
X024895Y002681D01*
X024905Y002638D01*
X024911Y002594D01*
X024913Y002550D01*
X024911Y002506D01*
X024905Y002462D01*
X024895Y002419D01*
X024882Y002377D01*
X024864Y002337D01*
X024843Y002298D01*
X024819Y002261D01*
X024792Y002226D01*
X024761Y002194D01*
X024728Y002165D01*
X024692Y002139D01*
X024654Y002117D01*
X024614Y002098D01*
X024573Y002082D01*
X024530Y002070D01*
X024487Y002062D01*
X024443Y002058D01*
X024399Y002058D01*
X024355Y002062D01*
X024312Y002070D01*
X024269Y002082D01*
X024228Y002098D01*
X024188Y002117D01*
X024150Y002139D01*
X024114Y002165D01*
X024081Y002194D01*
X024050Y002226D01*
X024023Y002261D01*
X023999Y002298D01*
X023978Y002337D01*
X023960Y002377D01*
X023947Y002419D01*
X023937Y002462D01*
X023931Y002506D01*
X023929Y002550D01*
X033359Y021185D02*
X033361Y021229D01*
X033367Y021273D01*
X033377Y021316D01*
X033390Y021358D01*
X033408Y021398D01*
X033429Y021437D01*
X033453Y021474D01*
X033480Y021509D01*
X033511Y021541D01*
X033544Y021570D01*
X033580Y021596D01*
X033618Y021618D01*
X033658Y021637D01*
X033699Y021653D01*
X033742Y021665D01*
X033785Y021673D01*
X033829Y021677D01*
X033873Y021677D01*
X033917Y021673D01*
X033960Y021665D01*
X034003Y021653D01*
X034044Y021637D01*
X034084Y021618D01*
X034122Y021596D01*
X034158Y021570D01*
X034191Y021541D01*
X034222Y021509D01*
X034249Y021474D01*
X034273Y021437D01*
X034294Y021398D01*
X034312Y021358D01*
X034325Y021316D01*
X034335Y021273D01*
X034341Y021229D01*
X034343Y021185D01*
X034341Y021141D01*
X034335Y021097D01*
X034325Y021054D01*
X034312Y021012D01*
X034294Y020972D01*
X034273Y020933D01*
X034249Y020896D01*
X034222Y020861D01*
X034191Y020829D01*
X034158Y020800D01*
X034122Y020774D01*
X034084Y020752D01*
X034044Y020733D01*
X034003Y020717D01*
X033960Y020705D01*
X033917Y020697D01*
X033873Y020693D01*
X033829Y020693D01*
X033785Y020697D01*
X033742Y020705D01*
X033699Y020717D01*
X033658Y020733D01*
X033618Y020752D01*
X033580Y020774D01*
X033544Y020800D01*
X033511Y020829D01*
X033480Y020861D01*
X033453Y020896D01*
X033429Y020933D01*
X033408Y020972D01*
X033390Y021012D01*
X033377Y021054D01*
X033367Y021097D01*
X033361Y021141D01*
X033359Y021185D01*
D11*
X029814Y021259D02*
X029814Y021453D01*
X029766Y021501D01*
X029669Y021501D01*
X029620Y021453D01*
X029620Y021356D01*
X029717Y021356D01*
X029620Y021259D02*
X029669Y021211D01*
X029766Y021211D01*
X029814Y021259D01*
X029519Y021211D02*
X029326Y021501D01*
X029326Y021211D01*
X029225Y021211D02*
X029225Y021501D01*
X029080Y021501D01*
X029031Y021453D01*
X029031Y021259D01*
X029080Y021211D01*
X029225Y021211D01*
X029519Y021211D02*
X029519Y021501D01*
X028331Y021356D02*
X028137Y021356D01*
X028234Y021259D02*
X028234Y021453D01*
X028036Y021501D02*
X027843Y021308D01*
X027843Y021259D01*
X027891Y021211D01*
X027988Y021211D01*
X028036Y021259D01*
X028036Y021501D02*
X027843Y021501D01*
X027741Y021356D02*
X027548Y021356D01*
X027447Y021404D02*
X027350Y021501D01*
X027253Y021404D01*
X027253Y021211D01*
X027447Y021211D02*
X027447Y021404D01*
X027596Y021501D02*
X027596Y021211D01*
X027741Y021356D01*
X023207Y021643D02*
X023070Y021779D01*
X023070Y021643D02*
X023207Y021779D01*
X023067Y021503D02*
X022930Y021639D01*
X022862Y021639D01*
X022759Y021537D01*
X022965Y021332D01*
X023067Y021434D01*
X023067Y021503D01*
X022893Y021260D02*
X022756Y021123D01*
X022551Y021328D01*
X022688Y021465D01*
X022567Y021434D02*
X022465Y021332D01*
X022259Y021537D01*
X022362Y021639D01*
X022430Y021639D01*
X022567Y021503D01*
X022567Y021434D01*
X022570Y021643D02*
X022707Y021779D01*
X022249Y021809D02*
X022112Y021946D01*
X022112Y021809D02*
X022249Y021946D01*
X022143Y021635D02*
X021938Y021840D01*
X021801Y021704D02*
X022143Y021635D01*
X022188Y021465D02*
X022051Y021328D01*
X022256Y021123D01*
X022393Y021260D01*
X022445Y021223D02*
X022514Y021223D01*
X022582Y021154D01*
X022582Y021086D01*
X022479Y020983D01*
X022548Y020915D02*
X022343Y021120D01*
X022445Y021223D01*
X022548Y021052D02*
X022685Y021052D01*
X022654Y021226D02*
X022722Y021294D01*
X022222Y021294D02*
X022154Y021226D01*
X022082Y021154D02*
X022082Y021086D01*
X021979Y020983D01*
X022048Y020915D02*
X021843Y021120D01*
X021945Y021223D01*
X022014Y021223D01*
X022082Y021154D01*
X022048Y021052D02*
X022185Y021052D01*
X021935Y021427D02*
X021798Y021290D01*
X021593Y021495D01*
X021729Y021632D01*
X021801Y021704D02*
X022006Y021498D01*
X021764Y021461D02*
X021695Y021393D01*
X021521Y021424D02*
X021384Y021287D01*
X021590Y021082D01*
X021726Y021218D01*
X021555Y021253D02*
X021487Y021184D01*
X021415Y021113D02*
X021415Y021044D01*
X021313Y020942D01*
X021381Y021010D02*
X021518Y021010D01*
X021415Y021113D02*
X021347Y021181D01*
X021279Y021181D01*
X021176Y021078D01*
X021381Y020873D01*
X021275Y020836D02*
X021207Y020904D01*
X021139Y020836D01*
X021275Y020836D02*
X021275Y020767D01*
X021207Y020699D01*
X021139Y020699D01*
X021002Y020836D01*
X021002Y020904D01*
X021070Y020973D01*
X021139Y020973D01*
X021027Y021082D02*
X020822Y021287D01*
X020959Y021424D01*
X021030Y021495D02*
X021235Y021290D01*
X021372Y021427D01*
X021444Y021498D02*
X021239Y021704D01*
X021581Y021635D01*
X021375Y021840D01*
X021549Y021809D02*
X021686Y021946D01*
X021167Y021632D02*
X021030Y021495D01*
X021133Y021393D02*
X021201Y021461D01*
X021164Y021218D02*
X021027Y021082D01*
X020956Y021010D02*
X020819Y021010D01*
X020853Y021044D02*
X020750Y020942D01*
X020819Y020873D02*
X020613Y021078D01*
X020716Y021181D01*
X020784Y021181D01*
X020853Y021113D01*
X020853Y021044D01*
X020924Y021184D02*
X020993Y021253D01*
X020685Y021427D02*
X020548Y021290D01*
X020343Y021495D01*
X020479Y021632D01*
X020514Y021461D02*
X020445Y021393D01*
X020442Y021253D02*
X020271Y021424D01*
X020247Y021552D02*
X020110Y021415D01*
X019905Y021620D01*
X020042Y021757D01*
X020076Y021586D02*
X020008Y021518D01*
X020005Y021378D02*
X019834Y021549D01*
X019697Y021412D02*
X019868Y021241D01*
X019936Y021241D01*
X020005Y021309D01*
X020005Y021378D01*
X020134Y021287D02*
X020305Y021116D01*
X020374Y021116D01*
X020442Y021184D01*
X020442Y021253D01*
X020508Y020973D02*
X020439Y020904D01*
X020439Y020836D01*
X020576Y020699D01*
X020645Y020699D01*
X020713Y020767D01*
X020713Y020836D01*
X020645Y020904D01*
X020576Y020836D01*
X020576Y020973D02*
X020508Y020973D01*
X020268Y021010D02*
X020131Y020873D01*
X019926Y021078D01*
X019831Y021135D02*
X019694Y020998D01*
X019488Y021203D01*
X019451Y021098D02*
X019485Y021064D01*
X019485Y020995D01*
X019383Y020892D01*
X019485Y020790D02*
X019588Y020892D01*
X019588Y020961D01*
X019554Y020995D01*
X019485Y020995D01*
X019451Y021098D02*
X019383Y021098D01*
X019280Y020995D01*
X019485Y020790D01*
X019718Y020870D02*
X019923Y020665D01*
X020025Y020767D01*
X020025Y020836D01*
X019991Y020870D01*
X019923Y020870D01*
X019820Y020767D01*
X019718Y020870D02*
X019820Y020973D01*
X019889Y020973D01*
X019923Y020939D01*
X019923Y020870D01*
X019312Y021491D02*
X019107Y021697D01*
X019243Y021833D01*
X019278Y021662D02*
X019209Y021594D01*
X019312Y021491D02*
X019449Y021628D01*
X019418Y021802D02*
X019554Y021939D01*
X019418Y021939D02*
X019554Y021802D01*
X019035Y021625D02*
X018898Y021488D01*
X018967Y021557D02*
X019172Y021351D01*
X019033Y021212D02*
X018965Y021144D01*
X018999Y021178D02*
X018794Y021384D01*
X018828Y021418D02*
X018759Y021349D01*
X018688Y021278D02*
X018893Y021073D01*
X018790Y021175D02*
X018654Y021038D01*
X018756Y020936D02*
X018551Y021141D01*
X018479Y021069D02*
X018685Y020864D01*
X018548Y020864D01*
X018548Y020727D01*
X018343Y020933D01*
X018331Y021073D02*
X018125Y021278D01*
X018197Y021349D02*
X018265Y021418D01*
X018231Y021384D02*
X018436Y021178D01*
X018402Y021144D02*
X018470Y021212D01*
X018609Y021351D02*
X018404Y021557D01*
X018336Y021488D02*
X018473Y021625D01*
X018544Y021697D02*
X018749Y021491D01*
X018886Y021628D01*
X018715Y021662D02*
X018647Y021594D01*
X018544Y021697D02*
X018681Y021833D01*
X018855Y021802D02*
X018992Y021939D01*
X018228Y021175D02*
X018091Y021038D01*
X018194Y020936D02*
X017988Y021141D01*
X017917Y021069D02*
X018122Y020864D01*
X017985Y020864D01*
X017985Y020727D01*
X017780Y020933D01*
X017256Y020009D02*
X016886Y020009D01*
X016886Y020132D02*
X016886Y019885D01*
X016947Y019764D02*
X016886Y019702D01*
X016886Y019579D01*
X016947Y019517D01*
X017009Y019517D01*
X017071Y019579D01*
X017071Y019702D01*
X017132Y019764D01*
X017194Y019764D01*
X017256Y019702D01*
X017256Y019579D01*
X017194Y019517D01*
X017194Y019334D02*
X016886Y019334D01*
X016886Y019272D02*
X016886Y019396D01*
X017194Y019334D02*
X017256Y019272D01*
X017256Y019210D01*
X017194Y019149D01*
X020654Y021601D02*
X020790Y021738D01*
X020654Y021738D02*
X020790Y021601D01*
X020353Y021863D02*
X020216Y021726D01*
X022716Y018743D02*
X022655Y018682D01*
X022655Y018558D01*
X022716Y018497D01*
X022716Y018375D02*
X022655Y018313D01*
X022655Y018128D01*
X023025Y018128D01*
X023025Y018313D01*
X022963Y018375D01*
X022716Y018375D01*
X023025Y018497D02*
X022778Y018743D01*
X022716Y018743D01*
X023025Y018743D02*
X023025Y018497D01*
X018594Y013451D02*
X018529Y013256D01*
X018702Y013343D01*
X018724Y013192D02*
X018594Y013451D01*
X018395Y013298D02*
X018309Y013038D01*
X018374Y013016D01*
X018460Y013060D01*
X018482Y013125D01*
X018395Y013298D01*
X018330Y013319D01*
X018244Y013276D01*
X018222Y013211D01*
X018309Y013038D01*
X018175Y013079D02*
X018153Y013014D01*
X018024Y012949D01*
X018067Y012863D02*
X017937Y013122D01*
X018067Y013187D01*
X018132Y013166D01*
X018175Y013079D01*
X017846Y013077D02*
X017673Y012990D01*
X017760Y013034D02*
X017890Y012774D01*
X017691Y012729D02*
X017670Y012664D01*
X017583Y012620D01*
X017518Y012642D01*
X017518Y012750D02*
X017605Y012794D01*
X017670Y012772D01*
X017691Y012729D01*
X017518Y012750D02*
X017453Y012772D01*
X017432Y012815D01*
X017453Y012880D01*
X017540Y012923D01*
X017605Y012902D01*
X019904Y010488D02*
X020098Y010172D01*
X019993Y010108D02*
X020203Y010237D01*
X019864Y010318D02*
X019904Y010488D01*
X019728Y010308D02*
X019792Y010202D01*
X019772Y010117D01*
X019614Y010021D01*
X019719Y010085D02*
X019889Y010044D01*
X019678Y009915D02*
X019485Y010231D01*
X019643Y010328D01*
X019728Y010308D01*
X023863Y007367D02*
X023928Y007237D01*
X023992Y007215D01*
X024166Y007301D01*
X024188Y007366D01*
X024123Y007496D01*
X023863Y007367D01*
X023994Y007103D02*
X024167Y007189D01*
X024297Y007145D01*
X024253Y007016D01*
X024080Y006929D01*
X024210Y006994D02*
X024124Y007167D01*
X024385Y006968D02*
X024471Y006795D01*
X024428Y006881D02*
X024168Y006752D01*
X024256Y006575D02*
X024429Y006661D01*
X024559Y006617D01*
X024515Y006488D01*
X024342Y006402D01*
X024472Y006466D02*
X024386Y006639D01*
X024045Y006263D02*
X023785Y006134D01*
X023872Y005961D01*
X023917Y005871D02*
X024003Y005697D01*
X024090Y005848D02*
X024046Y005935D01*
X023917Y005871D02*
X024176Y006000D01*
X024263Y005826D01*
X024826Y007428D02*
X024891Y007622D01*
X024826Y007644D02*
X025086Y007557D01*
X025000Y007730D02*
X024740Y007601D01*
X024695Y007692D02*
X024609Y007865D01*
X024869Y007994D01*
X024780Y008063D02*
X024802Y008128D01*
X024759Y008215D01*
X024694Y008236D01*
X024521Y008150D01*
X024499Y008086D01*
X024542Y007999D01*
X024607Y007977D01*
X025325Y008369D02*
X025260Y008499D01*
X025520Y008628D01*
X025585Y008498D01*
X025563Y008433D01*
X025390Y008347D01*
X025325Y008369D01*
X025215Y008590D02*
X025475Y008719D01*
X025389Y008892D02*
X025215Y008590D01*
X025129Y008763D02*
X025389Y008892D01*
X025301Y008961D02*
X025323Y009026D01*
X025280Y009113D01*
X025215Y009134D01*
X025042Y009048D01*
X025020Y008983D01*
X025063Y008897D01*
X025128Y008875D01*
X025214Y008918D01*
X025171Y009005D01*
X025714Y009234D02*
X025735Y009299D01*
X025714Y009234D02*
X025757Y009148D01*
X025821Y009126D01*
X025865Y009147D01*
X025887Y009212D01*
X025865Y009256D01*
X025887Y009212D02*
X025951Y009190D01*
X025995Y009212D01*
X026017Y009277D01*
X025974Y009363D01*
X025909Y009385D01*
X025907Y009497D02*
X025734Y009411D01*
X025604Y009455D01*
X025648Y009585D01*
X025821Y009671D01*
X025733Y009740D02*
X025755Y009805D01*
X025712Y009891D01*
X025647Y009913D01*
X025603Y009783D02*
X025625Y009740D01*
X025603Y009675D01*
X025559Y009654D01*
X025495Y009675D01*
X025452Y009762D01*
X025473Y009827D01*
X025625Y009740D02*
X025689Y009718D01*
X025733Y009740D01*
X019994Y005185D02*
X019994Y004815D01*
X019871Y004815D02*
X020118Y004815D01*
X019871Y005062D02*
X019994Y005185D01*
X019749Y005124D02*
X019688Y005185D01*
X019503Y005185D01*
X019503Y004815D01*
X019688Y004815D01*
X019749Y004877D01*
X019749Y005124D01*
X014728Y005672D02*
X014481Y005672D01*
X014728Y005919D01*
X014728Y005980D01*
X014666Y006042D01*
X014542Y006042D01*
X014481Y005980D01*
X014359Y005980D02*
X014298Y006042D01*
X014174Y006042D01*
X014112Y005980D01*
X014112Y005734D01*
X014174Y005672D01*
X014298Y005672D01*
X014359Y005734D01*
X010179Y002360D02*
X010179Y002167D01*
X010082Y002070D01*
X009985Y002167D01*
X009985Y002360D01*
X009836Y002360D02*
X009690Y002215D01*
X009884Y002215D01*
X009836Y002070D02*
X009836Y002360D01*
X009589Y002312D02*
X009541Y002360D01*
X009444Y002360D01*
X009396Y002312D01*
X009295Y002215D02*
X009101Y002215D01*
X009198Y002312D02*
X009198Y002118D01*
X009396Y002070D02*
X009589Y002263D01*
X009589Y002312D01*
X009589Y002070D02*
X009396Y002070D01*
X008395Y002120D02*
X008395Y002313D01*
X008347Y002362D01*
X008202Y002362D01*
X008202Y002071D01*
X008347Y002071D01*
X008395Y002120D01*
X008100Y002071D02*
X008100Y002362D01*
X007907Y002362D02*
X008100Y002071D01*
X007907Y002071D02*
X007907Y002362D01*
X007806Y002313D02*
X007757Y002362D01*
X007661Y002362D01*
X007612Y002313D01*
X007612Y002120D01*
X007661Y002071D01*
X007757Y002071D01*
X007806Y002120D01*
X007806Y002217D01*
X007709Y002217D01*
X006952Y002761D02*
X006952Y003008D01*
X006952Y003129D02*
X006582Y003129D01*
X006705Y003253D01*
X006582Y003376D01*
X006952Y003376D01*
X006952Y003498D02*
X006705Y003744D01*
X006643Y003744D01*
X006582Y003683D01*
X006582Y003559D01*
X006643Y003498D01*
X006952Y003498D02*
X006952Y003744D01*
X006890Y003866D02*
X006952Y003928D01*
X006952Y004051D01*
X006890Y004113D01*
X006767Y004113D01*
X006705Y004051D01*
X006705Y003989D01*
X006767Y003866D01*
X006582Y003866D01*
X006582Y004113D01*
X006643Y004234D02*
X006705Y004234D01*
X006767Y004296D01*
X006767Y004419D01*
X006829Y004481D01*
X006890Y004481D01*
X006952Y004419D01*
X006952Y004296D01*
X006890Y004234D01*
X006829Y004234D01*
X006767Y004296D01*
X006767Y004419D02*
X006705Y004481D01*
X006643Y004481D01*
X006582Y004419D01*
X006582Y004296D01*
X006643Y004234D01*
X006767Y004602D02*
X006767Y004788D01*
X006829Y004849D01*
X006890Y004849D01*
X006952Y004788D01*
X006952Y004664D01*
X006890Y004602D01*
X006767Y004602D01*
X006643Y004726D01*
X006582Y004849D01*
X005404Y006268D02*
X005469Y006398D01*
X005210Y006528D01*
X005145Y006398D01*
X005167Y006333D01*
X005340Y006247D01*
X005404Y006268D01*
X005515Y006488D02*
X005255Y006618D01*
X005601Y006661D01*
X005342Y006791D01*
X005430Y006860D02*
X005517Y006817D01*
X005560Y006903D01*
X005430Y006860D02*
X005409Y006925D01*
X005452Y007012D01*
X005517Y007033D01*
X005690Y006946D01*
X005712Y006882D01*
X005668Y006795D01*
X005603Y006773D01*
X005934Y007281D02*
X005761Y007368D01*
X005718Y007498D01*
X005848Y007541D01*
X006021Y007454D01*
X006088Y007588D02*
X006023Y007783D01*
X005937Y007610D01*
X005829Y007718D02*
X006088Y007588D01*
X006155Y007830D02*
X006220Y007851D01*
X006263Y007938D01*
X006242Y008003D01*
X006201Y008137D02*
X006287Y008310D01*
X006330Y008180D02*
X006157Y008266D01*
X006025Y008111D02*
X006112Y007851D01*
X006155Y007830D01*
X005939Y007938D02*
X006025Y008111D01*
X006582Y002761D02*
X006952Y002761D01*
X031022Y015164D02*
X031108Y015337D01*
X030979Y015294D02*
X031152Y015207D01*
X031283Y015362D02*
X031197Y015622D01*
X031154Y015644D01*
X031089Y015622D01*
X031046Y015536D01*
X031067Y015471D01*
X031283Y015362D02*
X031370Y015535D01*
X031286Y015691D02*
X031372Y015864D01*
X031461Y015933D02*
X031288Y016019D01*
X031221Y015885D02*
X031286Y015691D01*
X031480Y015756D02*
X031221Y015885D01*
X031461Y015933D02*
X031591Y015976D01*
X031547Y016106D01*
X031374Y016192D01*
X031685Y016645D02*
X031858Y016558D01*
X031923Y016580D01*
X031966Y016666D01*
X031945Y016731D01*
X031858Y016774D01*
X031815Y016688D01*
X031772Y016818D02*
X031707Y016796D01*
X031664Y016710D01*
X031685Y016645D01*
X031774Y016930D02*
X032120Y016973D01*
X031861Y017103D01*
X031906Y017193D02*
X031971Y017323D01*
X032036Y017345D01*
X032209Y017258D01*
X032230Y017193D01*
X032165Y017063D01*
X031906Y017193D01*
X031774Y016930D02*
X032033Y016800D01*
D12*
X032424Y017721D02*
X031966Y017950D01*
X031614Y018126D02*
X031157Y018356D01*
X030805Y018532D02*
X030347Y018761D01*
X030072Y018731D02*
X029823Y018233D01*
X029647Y017881D02*
X029399Y017382D01*
X029223Y017030D02*
X028975Y016532D01*
X029063Y015903D02*
X029468Y015700D01*
X029820Y015524D02*
X030225Y015321D01*
X030342Y015008D02*
X030151Y014625D01*
X029975Y014273D02*
X029783Y013891D01*
X029607Y013539D02*
X029416Y013157D01*
X029240Y012805D02*
X029049Y012423D01*
X028872Y012071D02*
X028681Y011689D01*
X028505Y011337D02*
X028314Y010954D01*
X028137Y010602D02*
X027946Y010220D01*
X027770Y009868D02*
X027579Y009486D01*
X027402Y009134D02*
X027211Y008752D01*
X027248Y008437D02*
X027810Y008154D01*
X028161Y007976D02*
X028724Y007693D01*
X019431Y011630D02*
X018379Y011094D01*
X018375Y011081D02*
X017839Y012133D01*
X017848Y012155D02*
X018901Y012692D01*
X018904Y012705D02*
X019440Y011652D01*
X010217Y014883D02*
X010026Y014500D01*
X009850Y014148D02*
X009658Y013766D01*
X009482Y013414D02*
X009291Y013032D01*
X009115Y012680D02*
X008924Y012298D01*
X008747Y011946D02*
X008556Y011564D01*
X008380Y011212D02*
X008189Y010829D01*
X008012Y010477D02*
X007821Y010095D01*
X007645Y009743D02*
X007454Y009361D01*
X007277Y009009D02*
X007086Y008627D01*
X007188Y008278D02*
X007593Y008075D01*
X007945Y007899D02*
X008350Y007696D01*
X008572Y007231D02*
X008323Y006733D01*
X008147Y006381D02*
X007899Y005882D01*
X007723Y005530D02*
X007475Y005032D01*
X007174Y004846D02*
X006716Y005075D01*
X006364Y005251D02*
X005907Y005481D01*
X005555Y005657D02*
X005097Y005886D01*
X009661Y015476D02*
X010224Y015193D01*
X009310Y015654D02*
X008748Y015937D01*
X019485Y021782D02*
X019488Y022497D01*
X023598Y020787D02*
X024036Y020788D01*
X024429Y020788D02*
X024867Y020788D01*
X025261Y020788D02*
X025699Y020788D01*
X026093Y020789D02*
X026531Y020789D01*
X026971Y020792D02*
X026971Y021305D01*
X026971Y021699D02*
X026971Y022213D01*
X026971Y020398D02*
X026971Y019884D01*
X026971Y019490D02*
X026971Y018976D01*
X027225Y018846D02*
X027782Y018847D01*
X028176Y018848D02*
X028732Y018849D01*
X029126Y018850D02*
X029683Y018850D01*
X030126Y019036D02*
X030126Y019548D01*
X030126Y019942D02*
X030126Y020454D01*
X030126Y020847D02*
X030126Y021359D01*
D13*
X026461Y022198D02*
X026461Y022345D01*
X026424Y022381D01*
X026351Y022381D01*
X026314Y022345D01*
X026314Y022198D01*
X026351Y022161D01*
X026424Y022161D01*
X026461Y022198D01*
X026240Y022161D02*
X026240Y022381D01*
X026093Y022381D01*
X026166Y022271D02*
X026240Y022271D01*
X026240Y022161D02*
X026093Y022161D01*
X026019Y022271D02*
X025872Y022271D01*
X025273Y022198D02*
X025273Y022345D01*
X025237Y022381D01*
X025163Y022381D01*
X025126Y022345D01*
X025126Y022198D01*
X025163Y022161D01*
X025237Y022161D01*
X025273Y022198D01*
X025052Y022161D02*
X025052Y022381D01*
X024905Y022381D01*
X024831Y022271D02*
X024684Y022271D01*
X024758Y022198D02*
X024758Y022345D01*
X024979Y022271D02*
X025052Y022271D01*
X025052Y022161D02*
X024905Y022161D01*
X023961Y022161D02*
X023851Y022161D01*
X023814Y022198D01*
X023814Y022345D01*
X023851Y022381D01*
X023961Y022381D01*
X023961Y022161D01*
X023740Y022271D02*
X023593Y022271D01*
X022773Y022161D02*
X022663Y022161D01*
X022626Y022198D01*
X022626Y022345D01*
X022663Y022381D01*
X022773Y022381D01*
X022773Y022161D01*
X022552Y022271D02*
X022405Y022271D01*
X022479Y022198D02*
X022479Y022345D01*
X021836Y022361D02*
X021836Y022214D01*
X021799Y022178D01*
X021726Y022178D01*
X021689Y022214D01*
X021615Y022178D02*
X021615Y022398D01*
X021468Y022398D01*
X021394Y022398D02*
X021394Y022178D01*
X021357Y022288D02*
X021247Y022398D01*
X021173Y022288D02*
X021026Y022288D01*
X021247Y022178D02*
X021394Y022325D01*
X021689Y022361D02*
X021726Y022398D01*
X021799Y022398D01*
X021836Y022361D01*
X020711Y022361D02*
X020711Y022214D01*
X020674Y022178D01*
X020601Y022178D01*
X020564Y022214D01*
X020490Y022178D02*
X020490Y022398D01*
X020343Y022398D01*
X020269Y022398D02*
X020269Y022178D01*
X020232Y022288D02*
X020122Y022398D01*
X020048Y022288D02*
X019901Y022288D01*
X019974Y022214D02*
X019974Y022361D01*
X020122Y022178D02*
X020269Y022325D01*
X020564Y022361D02*
X020601Y022398D01*
X020674Y022398D01*
X020711Y022361D01*
X031348Y013944D02*
X031282Y013813D01*
X031479Y013715D01*
X031545Y013846D01*
X031414Y013830D02*
X031381Y013764D01*
X031413Y013665D02*
X031282Y013730D01*
X031233Y013714D01*
X031200Y013648D01*
X031216Y013599D01*
X031347Y013533D01*
X031397Y013550D01*
X031430Y013615D01*
X031413Y013665D01*
X031480Y013961D02*
X031545Y014093D01*
X031049Y013036D02*
X030983Y012905D01*
X030951Y013003D02*
X031082Y012938D01*
X031049Y012789D02*
X030983Y012658D01*
X030786Y012757D01*
X030852Y012888D01*
X030917Y012773D02*
X030884Y012707D01*
X030786Y012674D02*
X030736Y012657D01*
X030704Y012592D01*
X030720Y012543D01*
X030851Y012477D01*
X030900Y012493D01*
X030933Y012559D01*
X030917Y012608D01*
X030786Y012674D01*
X030441Y011881D02*
X030375Y011749D01*
X030276Y011716D02*
X030227Y011699D01*
X030178Y011601D01*
X030375Y011502D01*
X030424Y011601D01*
X030408Y011650D01*
X030276Y011716D01*
X029945Y010886D02*
X029879Y010755D01*
X029977Y010788D02*
X029846Y010854D01*
X029780Y010722D02*
X029731Y010705D01*
X029682Y010607D01*
X029878Y010508D01*
X029928Y010607D01*
X029911Y010656D01*
X029780Y010722D01*
X029508Y009974D02*
X029443Y009843D01*
X029508Y009727D02*
X029360Y009678D01*
X029376Y009629D02*
X029311Y009826D01*
X029245Y009695D02*
X029442Y009596D01*
X029409Y009530D02*
X029343Y009398D01*
X029146Y009497D01*
X029146Y009414D02*
X029097Y009398D01*
X029064Y009332D01*
X029080Y009283D01*
X029211Y009217D01*
X029261Y009234D01*
X029293Y009299D01*
X029277Y009349D01*
X029012Y008980D02*
X028946Y008849D01*
X028913Y008947D02*
X029045Y008882D01*
X029011Y008733D02*
X028864Y008684D01*
X028880Y008635D02*
X028815Y008832D01*
X028749Y008701D02*
X028946Y008602D01*
X028913Y008536D02*
X028847Y008404D01*
X028650Y008503D01*
X028649Y008420D02*
X028600Y008404D01*
X028567Y008338D01*
X028584Y008289D01*
X028715Y008223D01*
X028764Y008240D01*
X028797Y008305D01*
X028781Y008354D01*
X017402Y001266D02*
X017255Y001266D01*
X017329Y001193D02*
X017329Y001340D01*
X017181Y001377D02*
X017034Y001230D01*
X017071Y001266D02*
X017181Y001156D01*
X017034Y001156D02*
X017034Y001377D01*
X016813Y001377D02*
X016813Y001156D01*
X016960Y001156D01*
X016739Y001193D02*
X016702Y001156D01*
X016629Y001156D01*
X016592Y001193D01*
X016592Y001340D01*
X016629Y001377D01*
X016702Y001377D01*
X016739Y001340D01*
X016245Y001266D02*
X016098Y001266D01*
X016024Y001376D02*
X015877Y001229D01*
X015914Y001266D02*
X016024Y001156D01*
X015877Y001156D02*
X015877Y001376D01*
X015656Y001376D02*
X015656Y001156D01*
X015803Y001156D01*
X015582Y001192D02*
X015545Y001156D01*
X015472Y001156D01*
X015435Y001192D01*
X015435Y001339D01*
X015472Y001376D01*
X015545Y001376D01*
X015582Y001339D01*
X014888Y001266D02*
X014741Y001266D01*
X014814Y001339D02*
X014814Y001192D01*
X014667Y001192D02*
X014667Y001339D01*
X014630Y001376D01*
X014520Y001376D01*
X014520Y001156D01*
X014630Y001156D01*
X014667Y001192D01*
X013706Y001283D02*
X013559Y001283D01*
X013485Y001210D02*
X013485Y001356D01*
X013448Y001393D01*
X013338Y001393D01*
X013338Y001173D01*
X013448Y001173D01*
X013485Y001210D01*
X012615Y001271D02*
X012468Y001271D01*
X012541Y001344D02*
X012541Y001197D01*
X012394Y001161D02*
X012247Y001161D01*
X012247Y001381D01*
X012394Y001381D01*
X012320Y001271D02*
X012247Y001271D01*
X012173Y001344D02*
X012173Y001197D01*
X012136Y001161D01*
X012062Y001161D01*
X012026Y001197D01*
X012026Y001344D01*
X012062Y001381D01*
X012136Y001381D01*
X012173Y001344D01*
X011468Y001246D02*
X011321Y001246D01*
X011247Y001136D02*
X011100Y001136D01*
X011100Y001356D01*
X011247Y001356D01*
X011174Y001246D02*
X011100Y001246D01*
X011026Y001173D02*
X011026Y001320D01*
X010989Y001356D01*
X010916Y001356D01*
X010879Y001320D01*
X010879Y001173D01*
X010916Y001136D01*
X010989Y001136D01*
X011026Y001173D01*
X007013Y003991D02*
X006793Y003991D01*
X006793Y004138D01*
X006867Y004212D02*
X006793Y004286D01*
X007013Y004286D01*
X007013Y004359D02*
X007013Y004212D01*
X006903Y004065D02*
X006903Y003991D01*
X005818Y009474D02*
X005884Y009605D01*
X006015Y009622D02*
X006081Y009754D01*
X005884Y009852D01*
X005818Y009721D01*
X005950Y009737D02*
X005983Y009803D01*
X006081Y009836D02*
X006131Y009853D01*
X006164Y009918D01*
X006147Y009968D01*
X006016Y010033D01*
X005967Y010017D01*
X005934Y009951D01*
X005950Y009902D01*
X006081Y009836D01*
X006377Y010593D02*
X006442Y010724D01*
X006475Y010626D02*
X006344Y010692D01*
X006377Y010840D02*
X006443Y010971D01*
X006640Y010873D01*
X006574Y010741D01*
X006508Y010856D02*
X006541Y010922D01*
X006509Y011021D02*
X006640Y010955D01*
X006689Y010972D01*
X006722Y011037D01*
X006706Y011087D01*
X006575Y011152D01*
X006525Y011136D01*
X006493Y011070D01*
X006509Y011021D01*
X006922Y011686D02*
X006988Y011817D01*
X007087Y011851D02*
X007136Y011867D01*
X007186Y011966D01*
X006989Y012064D01*
X006939Y011966D01*
X006956Y011917D01*
X007087Y011851D01*
X007481Y012743D02*
X007547Y012874D01*
X007580Y012776D02*
X007448Y012841D01*
X007515Y012973D02*
X007646Y012908D01*
X007695Y012924D01*
X007744Y013022D01*
X007547Y013121D01*
X007498Y013022D01*
X007515Y012973D01*
X007918Y013593D02*
X007983Y013724D01*
X007918Y013839D02*
X008066Y013889D01*
X008049Y013938D02*
X008115Y013741D01*
X008181Y013872D02*
X007984Y013971D01*
X008017Y014037D02*
X008083Y014168D01*
X008280Y014070D01*
X008280Y014152D02*
X008329Y014169D01*
X008362Y014234D01*
X008346Y014284D01*
X008215Y014349D01*
X008165Y014333D01*
X008132Y014267D01*
X008149Y014218D01*
X008476Y014712D02*
X008542Y014843D01*
X008444Y014810D02*
X008575Y014744D01*
X008674Y014860D02*
X008608Y015057D01*
X008625Y015008D02*
X008477Y014958D01*
X008543Y015090D02*
X008739Y014991D01*
X008838Y015189D02*
X008642Y015287D01*
X008576Y015156D01*
X008708Y015337D02*
X008691Y015387D01*
X008724Y015452D01*
X008773Y015469D01*
X008905Y015403D01*
X008921Y015354D01*
X008888Y015288D01*
X008839Y015272D01*
D14*
X017658Y019954D02*
X017783Y019954D01*
X023033Y019954D02*
X023158Y019954D01*
D15*
X018881Y013081D02*
X017561Y012420D01*
X019335Y011413D02*
X019337Y011435D01*
X019343Y011457D01*
X019352Y011477D01*
X019365Y011495D01*
X019381Y011511D01*
X019399Y011524D01*
X019419Y011533D01*
X019441Y011539D01*
X019463Y011541D01*
X019485Y011539D01*
X019507Y011533D01*
X019527Y011524D01*
X019545Y011511D01*
X019561Y011495D01*
X019574Y011477D01*
X019583Y011457D01*
X019589Y011435D01*
X019591Y011413D01*
X019589Y011391D01*
X019583Y011369D01*
X019574Y011349D01*
X019561Y011331D01*
X019545Y011315D01*
X019527Y011302D01*
X019507Y011293D01*
X019485Y011287D01*
X019463Y011285D01*
X019441Y011287D01*
X019419Y011293D01*
X019399Y011302D01*
X019381Y011315D01*
X019365Y011331D01*
X019352Y011349D01*
X019343Y011369D01*
X019337Y011391D01*
X019335Y011413D01*
X019762Y011320D02*
X018442Y010659D01*
D16*
X024801Y006715D02*
X024574Y006269D01*
X024684Y005933D01*
X024347Y005824D01*
X024120Y005378D01*
X024230Y005042D01*
X024675Y004815D01*
X025011Y004924D01*
X025238Y005370D01*
X025129Y005706D01*
X025465Y005815D01*
X025692Y006261D01*
X025583Y006597D01*
X025919Y006706D01*
X026146Y007152D01*
X026037Y007488D01*
X026373Y007597D01*
X026600Y008043D01*
X026491Y008379D01*
X026827Y008488D01*
X027054Y008934D01*
X026945Y009270D01*
X026500Y009497D01*
X026163Y009388D01*
X025936Y008942D01*
X026046Y008606D01*
X025709Y008497D01*
X025482Y008051D01*
X025592Y007715D01*
X025255Y007606D01*
X025028Y007160D01*
X025138Y006824D01*
X024801Y006715D01*
X019845Y003878D02*
X019845Y003091D01*
X019304Y003485D01*
X019845Y003878D01*
X015962Y002622D02*
X015607Y002267D01*
X014938Y002267D01*
X015962Y002622D02*
X015962Y005496D01*
X014958Y005496D01*
X013737Y005496D02*
X012733Y005496D01*
X012733Y002622D01*
X013088Y002267D01*
X013737Y002267D01*
X014919Y002464D02*
X014990Y002494D01*
X015059Y002529D01*
X015126Y002566D01*
X015192Y002607D01*
X015255Y002651D01*
X015316Y002699D01*
X015375Y002749D01*
X015431Y002803D01*
X015484Y002859D01*
X015534Y002917D01*
X015581Y002978D01*
X015625Y003042D01*
X015666Y003108D01*
X015703Y003175D01*
X015737Y003244D01*
X015767Y003315D01*
X015794Y003388D01*
X015817Y003462D01*
X015837Y003536D01*
X015852Y003612D01*
X015864Y003688D01*
X015872Y003765D01*
X015876Y003842D01*
X015876Y003920D01*
X015872Y003997D01*
X015864Y004074D01*
X015852Y004150D01*
X015837Y004226D01*
X015817Y004300D01*
X015794Y004374D01*
X015767Y004447D01*
X015737Y004518D01*
X015703Y004587D01*
X015666Y004654D01*
X015625Y004720D01*
X015581Y004784D01*
X015534Y004845D01*
X015484Y004903D01*
X015431Y004959D01*
X015375Y005013D01*
X015316Y005063D01*
X015255Y005111D01*
X015192Y005155D01*
X015126Y005196D01*
X015059Y005233D01*
X014990Y005268D01*
X014919Y005298D01*
X013777Y005298D02*
X013706Y005268D01*
X013637Y005233D01*
X013570Y005196D01*
X013504Y005155D01*
X013441Y005111D01*
X013380Y005063D01*
X013321Y005013D01*
X013265Y004959D01*
X013212Y004903D01*
X013162Y004845D01*
X013115Y004784D01*
X013071Y004720D01*
X013030Y004654D01*
X012993Y004587D01*
X012959Y004518D01*
X012929Y004447D01*
X012902Y004374D01*
X012879Y004300D01*
X012859Y004226D01*
X012844Y004150D01*
X012832Y004074D01*
X012824Y003997D01*
X012820Y003920D01*
X012820Y003842D01*
X012824Y003765D01*
X012832Y003688D01*
X012844Y003612D01*
X012859Y003536D01*
X012879Y003462D01*
X012902Y003388D01*
X012929Y003315D01*
X012959Y003244D01*
X012993Y003175D01*
X013030Y003108D01*
X013071Y003042D01*
X013115Y002978D01*
X013162Y002917D01*
X013212Y002859D01*
X013265Y002803D01*
X013321Y002749D01*
X013380Y002699D01*
X013441Y002651D01*
X013504Y002607D01*
X013570Y002566D01*
X013637Y002529D01*
X013706Y002494D01*
X013777Y002464D01*
X011188Y003215D02*
X011188Y007226D01*
X017462Y019005D02*
X017462Y020304D01*
X022665Y020304D01*
X022665Y019005D01*
X017462Y019005D01*
X017620Y020225D02*
X017816Y020225D01*
X017816Y020284D01*
X017620Y020284D02*
X017620Y020225D01*
X028232Y019523D02*
X029088Y020047D01*
X028232Y019523D02*
X029734Y017072D01*
X030221Y016955D01*
X030775Y017294D01*
X031799Y017922D02*
X032369Y018272D01*
X032486Y018759D01*
X030985Y021209D01*
X030129Y020685D01*
X030198Y020497D02*
X030275Y020508D01*
X030352Y020515D01*
X030429Y020518D01*
X030506Y020517D01*
X030583Y020512D01*
X030660Y020504D01*
X030736Y020491D01*
X030812Y020475D01*
X030886Y020455D01*
X030960Y020431D01*
X031032Y020404D01*
X031102Y020373D01*
X031171Y020338D01*
X031239Y020300D01*
X031304Y020259D01*
X031367Y020214D01*
X031428Y020166D01*
X031486Y020115D01*
X031541Y020062D01*
X031594Y020005D01*
X031644Y019946D01*
X031691Y019885D01*
X031734Y019821D01*
X031775Y019755D01*
X031812Y019687D01*
X031845Y019618D01*
X031875Y019547D01*
X031901Y019474D01*
X031924Y019400D01*
X031943Y019325D01*
X031958Y019250D01*
X031969Y019173D01*
X031976Y019096D01*
X031980Y019019D01*
X031979Y018942D01*
X031975Y018865D01*
X031967Y018788D01*
X031954Y018712D01*
X031938Y018636D01*
X031919Y018561D01*
X031895Y018488D01*
X031868Y018416D01*
X031837Y018345D01*
X031803Y018276D01*
X031765Y018208D01*
X031724Y018143D01*
X031679Y018080D01*
X030706Y017483D02*
X030629Y017472D01*
X030552Y017465D01*
X030475Y017462D01*
X030398Y017463D01*
X030321Y017468D01*
X030244Y017476D01*
X030168Y017489D01*
X030092Y017505D01*
X030018Y017525D01*
X029944Y017549D01*
X029872Y017576D01*
X029802Y017607D01*
X029733Y017642D01*
X029665Y017680D01*
X029600Y017721D01*
X029537Y017766D01*
X029476Y017814D01*
X029418Y017865D01*
X029363Y017918D01*
X029310Y017975D01*
X029260Y018034D01*
X029213Y018095D01*
X029170Y018159D01*
X029129Y018225D01*
X029092Y018293D01*
X029059Y018362D01*
X029029Y018433D01*
X029003Y018506D01*
X028980Y018580D01*
X028961Y018655D01*
X028946Y018730D01*
X028935Y018807D01*
X028928Y018884D01*
X028924Y018961D01*
X028925Y019038D01*
X028929Y019115D01*
X028937Y019192D01*
X028950Y019268D01*
X028966Y019344D01*
X028985Y019419D01*
X029009Y019492D01*
X029036Y019564D01*
X029067Y019635D01*
X029101Y019704D01*
X029139Y019772D01*
X029180Y019837D01*
X029225Y019900D01*
D17*
X030376Y021035D02*
X030481Y021010D01*
X030612Y021090D01*
X030637Y021195D01*
X030808Y021210D02*
X031070Y021371D01*
X030939Y021290D02*
X030699Y021683D01*
X030648Y021472D01*
X030477Y021457D02*
X030372Y021482D01*
X030241Y021402D01*
X030215Y021297D01*
X030376Y021035D01*
X021033Y004707D02*
X018229Y004707D01*
X018229Y002262D02*
X021033Y002262D01*
D18*
X011484Y003880D03*
X011484Y004550D03*
X011484Y005220D03*
X011484Y005890D03*
X011484Y006560D03*
D19*
X019050Y003485D03*
D20*
X006697Y003610D02*
X006697Y005815D01*
X005350Y005815D02*
X005350Y003610D01*
X023171Y017480D02*
X023171Y020474D01*
X023252Y020474D01*
X024431Y020474D01*
X024431Y017480D01*
X024252Y017480D01*
X023171Y017480D01*
X024252Y017480D02*
X024349Y017480D01*
X023976Y018697D02*
X023626Y018697D01*
X023626Y018847D02*
X023801Y018697D01*
X023976Y018847D01*
X023626Y018847D01*
X023274Y020474D02*
X023252Y020474D01*
D21*
X006338Y005342D02*
X006338Y004083D01*
X005708Y004083D02*
X005708Y005342D01*
D22*
X006023Y004712D03*
D23*
X006023Y004693D03*
M02*
