G75*
%MOIN*%
%OFA0B0*%
%FSLAX24Y24*%
%IPPOS*%
%LPD*%
%AMOC8*
5,1,8,0,0,1.08239X$1,22.5*
%
%ADD10C,0.0000*%
%ADD11C,0.1024*%
%ADD12C,0.0906*%
%ADD13C,0.0434*%
%ADD14R,0.0276X0.0906*%
%ADD15R,0.0257X0.0512*%
%ADD16C,0.0516*%
%ADD17R,0.2205X0.1556*%
%ADD18C,0.0780*%
%ADD19R,0.0631X0.1536*%
%ADD20C,0.0414*%
%ADD21R,0.0552X0.0631*%
%ADD22R,0.0850X0.0280*%
%ADD23R,0.0512X0.0512*%
%ADD24R,0.0394X0.0394*%
%ADD25R,0.0827X0.0827*%
%ADD26R,0.0512X0.0512*%
%ADD27R,0.0434X0.0473*%
D10*
X001543Y001214D02*
X007057Y001214D01*
X007162Y001332D01*
X007163Y001992D01*
X010376Y001990D01*
X010370Y000897D01*
X017853Y000897D01*
X018407Y001214D01*
X025254Y001214D01*
X028315Y007336D01*
X028846Y007690D01*
X032212Y014373D01*
X031218Y014865D01*
X032655Y017739D01*
X033246Y017444D01*
X033393Y017483D01*
X035864Y022424D01*
X030103Y022423D01*
X030103Y022424D02*
X030103Y021647D01*
X026989Y021647D01*
X026989Y022739D01*
X019476Y022739D01*
X018689Y022424D01*
X012143Y022424D01*
X009220Y016568D01*
X008561Y015977D01*
X005204Y009265D01*
X006218Y008753D01*
X004781Y005889D01*
X004191Y006184D01*
X004004Y006145D01*
X001543Y001214D01*
X003060Y002453D02*
X003062Y002497D01*
X003068Y002541D01*
X003078Y002584D01*
X003091Y002626D01*
X003109Y002666D01*
X003130Y002705D01*
X003154Y002742D01*
X003181Y002777D01*
X003212Y002809D01*
X003245Y002838D01*
X003281Y002864D01*
X003319Y002886D01*
X003359Y002905D01*
X003400Y002921D01*
X003443Y002933D01*
X003486Y002941D01*
X003530Y002945D01*
X003574Y002945D01*
X003618Y002941D01*
X003661Y002933D01*
X003704Y002921D01*
X003745Y002905D01*
X003785Y002886D01*
X003823Y002864D01*
X003859Y002838D01*
X003892Y002809D01*
X003923Y002777D01*
X003950Y002742D01*
X003974Y002705D01*
X003995Y002666D01*
X004013Y002626D01*
X004026Y002584D01*
X004036Y002541D01*
X004042Y002497D01*
X004044Y002453D01*
X004042Y002409D01*
X004036Y002365D01*
X004026Y002322D01*
X004013Y002280D01*
X003995Y002240D01*
X003974Y002201D01*
X003950Y002164D01*
X003923Y002129D01*
X003892Y002097D01*
X003859Y002068D01*
X003823Y002042D01*
X003785Y002020D01*
X003745Y002001D01*
X003704Y001985D01*
X003661Y001973D01*
X003618Y001965D01*
X003574Y001961D01*
X003530Y001961D01*
X003486Y001965D01*
X003443Y001973D01*
X003400Y001985D01*
X003359Y002001D01*
X003319Y002020D01*
X003281Y002042D01*
X003245Y002068D01*
X003212Y002097D01*
X003181Y002129D01*
X003154Y002164D01*
X003130Y002201D01*
X003109Y002240D01*
X003091Y002280D01*
X003078Y002322D01*
X003068Y002365D01*
X003062Y002409D01*
X003060Y002453D01*
X016391Y014853D02*
X016393Y014894D01*
X016399Y014935D01*
X016409Y014975D01*
X016422Y015014D01*
X016439Y015051D01*
X016460Y015087D01*
X016484Y015121D01*
X016511Y015152D01*
X016540Y015180D01*
X016573Y015206D01*
X016607Y015228D01*
X016644Y015247D01*
X016682Y015262D01*
X016722Y015274D01*
X016762Y015282D01*
X016803Y015286D01*
X016845Y015286D01*
X016886Y015282D01*
X016926Y015274D01*
X016966Y015262D01*
X017004Y015247D01*
X017040Y015228D01*
X017075Y015206D01*
X017108Y015180D01*
X017137Y015152D01*
X017164Y015121D01*
X017188Y015087D01*
X017209Y015051D01*
X017226Y015014D01*
X017239Y014975D01*
X017249Y014935D01*
X017255Y014894D01*
X017257Y014853D01*
X017255Y014812D01*
X017249Y014771D01*
X017239Y014731D01*
X017226Y014692D01*
X017209Y014655D01*
X017188Y014619D01*
X017164Y014585D01*
X017137Y014554D01*
X017108Y014526D01*
X017075Y014500D01*
X017041Y014478D01*
X017004Y014459D01*
X016966Y014444D01*
X016926Y014432D01*
X016886Y014424D01*
X016845Y014420D01*
X016803Y014420D01*
X016762Y014424D01*
X016722Y014432D01*
X016682Y014444D01*
X016644Y014459D01*
X016608Y014478D01*
X016573Y014500D01*
X016540Y014526D01*
X016511Y014554D01*
X016484Y014585D01*
X016460Y014619D01*
X016439Y014655D01*
X016422Y014692D01*
X016409Y014731D01*
X016399Y014771D01*
X016393Y014812D01*
X016391Y014853D01*
X012596Y017523D02*
X012598Y017550D01*
X012604Y017577D01*
X012613Y017603D01*
X012626Y017627D01*
X012642Y017650D01*
X012661Y017669D01*
X012683Y017686D01*
X012707Y017700D01*
X012732Y017710D01*
X012759Y017717D01*
X012786Y017720D01*
X012814Y017719D01*
X012841Y017714D01*
X012867Y017706D01*
X012891Y017694D01*
X012914Y017678D01*
X012935Y017660D01*
X012952Y017639D01*
X012967Y017615D01*
X012978Y017590D01*
X012986Y017564D01*
X012990Y017537D01*
X012990Y017509D01*
X012986Y017482D01*
X012978Y017456D01*
X012967Y017431D01*
X012952Y017407D01*
X012935Y017386D01*
X012914Y017368D01*
X012892Y017352D01*
X012867Y017340D01*
X012841Y017332D01*
X012814Y017327D01*
X012786Y017326D01*
X012759Y017329D01*
X012732Y017336D01*
X012707Y017346D01*
X012683Y017360D01*
X012661Y017377D01*
X012642Y017396D01*
X012626Y017419D01*
X012613Y017443D01*
X012604Y017469D01*
X012598Y017496D01*
X012596Y017523D01*
X012065Y017759D02*
X012067Y017786D01*
X012073Y017813D01*
X012082Y017839D01*
X012095Y017863D01*
X012111Y017886D01*
X012130Y017905D01*
X012152Y017922D01*
X012176Y017936D01*
X012201Y017946D01*
X012228Y017953D01*
X012255Y017956D01*
X012283Y017955D01*
X012310Y017950D01*
X012336Y017942D01*
X012360Y017930D01*
X012383Y017914D01*
X012404Y017896D01*
X012421Y017875D01*
X012436Y017851D01*
X012447Y017826D01*
X012455Y017800D01*
X012459Y017773D01*
X012459Y017745D01*
X012455Y017718D01*
X012447Y017692D01*
X012436Y017667D01*
X012421Y017643D01*
X012404Y017622D01*
X012383Y017604D01*
X012361Y017588D01*
X012336Y017576D01*
X012310Y017568D01*
X012283Y017563D01*
X012255Y017562D01*
X012228Y017565D01*
X012201Y017572D01*
X012176Y017582D01*
X012152Y017596D01*
X012130Y017613D01*
X012111Y017632D01*
X012095Y017655D01*
X012082Y017679D01*
X012073Y017705D01*
X012067Y017732D01*
X012065Y017759D01*
X013088Y017818D02*
X013090Y017845D01*
X013096Y017872D01*
X013105Y017898D01*
X013118Y017922D01*
X013134Y017945D01*
X013153Y017964D01*
X013175Y017981D01*
X013199Y017995D01*
X013224Y018005D01*
X013251Y018012D01*
X013278Y018015D01*
X013306Y018014D01*
X013333Y018009D01*
X013359Y018001D01*
X013383Y017989D01*
X013406Y017973D01*
X013427Y017955D01*
X013444Y017934D01*
X013459Y017910D01*
X013470Y017885D01*
X013478Y017859D01*
X013482Y017832D01*
X013482Y017804D01*
X013478Y017777D01*
X013470Y017751D01*
X013459Y017726D01*
X013444Y017702D01*
X013427Y017681D01*
X013406Y017663D01*
X013384Y017647D01*
X013359Y017635D01*
X013333Y017627D01*
X013306Y017622D01*
X013278Y017621D01*
X013251Y017624D01*
X013224Y017631D01*
X013199Y017641D01*
X013175Y017655D01*
X013153Y017672D01*
X013134Y017691D01*
X013118Y017714D01*
X013105Y017738D01*
X013096Y017764D01*
X013090Y017791D01*
X013088Y017818D01*
X013620Y018133D02*
X013622Y018160D01*
X013628Y018187D01*
X013637Y018213D01*
X013650Y018237D01*
X013666Y018260D01*
X013685Y018279D01*
X013707Y018296D01*
X013731Y018310D01*
X013756Y018320D01*
X013783Y018327D01*
X013810Y018330D01*
X013838Y018329D01*
X013865Y018324D01*
X013891Y018316D01*
X013915Y018304D01*
X013938Y018288D01*
X013959Y018270D01*
X013976Y018249D01*
X013991Y018225D01*
X014002Y018200D01*
X014010Y018174D01*
X014014Y018147D01*
X014014Y018119D01*
X014010Y018092D01*
X014002Y018066D01*
X013991Y018041D01*
X013976Y018017D01*
X013959Y017996D01*
X013938Y017978D01*
X013916Y017962D01*
X013891Y017950D01*
X013865Y017942D01*
X013838Y017937D01*
X013810Y017936D01*
X013783Y017939D01*
X013756Y017946D01*
X013731Y017956D01*
X013707Y017970D01*
X013685Y017987D01*
X013666Y018006D01*
X013650Y018029D01*
X013637Y018053D01*
X013628Y018079D01*
X013622Y018106D01*
X013620Y018133D01*
X013068Y018369D02*
X013070Y018396D01*
X013076Y018423D01*
X013085Y018449D01*
X013098Y018473D01*
X013114Y018496D01*
X013133Y018515D01*
X013155Y018532D01*
X013179Y018546D01*
X013204Y018556D01*
X013231Y018563D01*
X013258Y018566D01*
X013286Y018565D01*
X013313Y018560D01*
X013339Y018552D01*
X013363Y018540D01*
X013386Y018524D01*
X013407Y018506D01*
X013424Y018485D01*
X013439Y018461D01*
X013450Y018436D01*
X013458Y018410D01*
X013462Y018383D01*
X013462Y018355D01*
X013458Y018328D01*
X013450Y018302D01*
X013439Y018277D01*
X013424Y018253D01*
X013407Y018232D01*
X013386Y018214D01*
X013364Y018198D01*
X013339Y018186D01*
X013313Y018178D01*
X013286Y018173D01*
X013258Y018172D01*
X013231Y018175D01*
X013204Y018182D01*
X013179Y018192D01*
X013155Y018206D01*
X013133Y018223D01*
X013114Y018242D01*
X013098Y018265D01*
X013085Y018289D01*
X013076Y018315D01*
X013070Y018342D01*
X013068Y018369D01*
X014112Y018408D02*
X014114Y018435D01*
X014120Y018462D01*
X014129Y018488D01*
X014142Y018512D01*
X014158Y018535D01*
X014177Y018554D01*
X014199Y018571D01*
X014223Y018585D01*
X014248Y018595D01*
X014275Y018602D01*
X014302Y018605D01*
X014330Y018604D01*
X014357Y018599D01*
X014383Y018591D01*
X014407Y018579D01*
X014430Y018563D01*
X014451Y018545D01*
X014468Y018524D01*
X014483Y018500D01*
X014494Y018475D01*
X014502Y018449D01*
X014506Y018422D01*
X014506Y018394D01*
X014502Y018367D01*
X014494Y018341D01*
X014483Y018316D01*
X014468Y018292D01*
X014451Y018271D01*
X014430Y018253D01*
X014408Y018237D01*
X014383Y018225D01*
X014357Y018217D01*
X014330Y018212D01*
X014302Y018211D01*
X014275Y018214D01*
X014248Y018221D01*
X014223Y018231D01*
X014199Y018245D01*
X014177Y018262D01*
X014158Y018281D01*
X014142Y018304D01*
X014129Y018328D01*
X014120Y018354D01*
X014114Y018381D01*
X014112Y018408D01*
X014624Y018684D02*
X014626Y018711D01*
X014632Y018738D01*
X014641Y018764D01*
X014654Y018788D01*
X014670Y018811D01*
X014689Y018830D01*
X014711Y018847D01*
X014735Y018861D01*
X014760Y018871D01*
X014787Y018878D01*
X014814Y018881D01*
X014842Y018880D01*
X014869Y018875D01*
X014895Y018867D01*
X014919Y018855D01*
X014942Y018839D01*
X014963Y018821D01*
X014980Y018800D01*
X014995Y018776D01*
X015006Y018751D01*
X015014Y018725D01*
X015018Y018698D01*
X015018Y018670D01*
X015014Y018643D01*
X015006Y018617D01*
X014995Y018592D01*
X014980Y018568D01*
X014963Y018547D01*
X014942Y018529D01*
X014920Y018513D01*
X014895Y018501D01*
X014869Y018493D01*
X014842Y018488D01*
X014814Y018487D01*
X014787Y018490D01*
X014760Y018497D01*
X014735Y018507D01*
X014711Y018521D01*
X014689Y018538D01*
X014670Y018557D01*
X014654Y018580D01*
X014641Y018604D01*
X014632Y018630D01*
X014626Y018657D01*
X014624Y018684D01*
X014112Y018960D02*
X014114Y018987D01*
X014120Y019014D01*
X014129Y019040D01*
X014142Y019064D01*
X014158Y019087D01*
X014177Y019106D01*
X014199Y019123D01*
X014223Y019137D01*
X014248Y019147D01*
X014275Y019154D01*
X014302Y019157D01*
X014330Y019156D01*
X014357Y019151D01*
X014383Y019143D01*
X014407Y019131D01*
X014430Y019115D01*
X014451Y019097D01*
X014468Y019076D01*
X014483Y019052D01*
X014494Y019027D01*
X014502Y019001D01*
X014506Y018974D01*
X014506Y018946D01*
X014502Y018919D01*
X014494Y018893D01*
X014483Y018868D01*
X014468Y018844D01*
X014451Y018823D01*
X014430Y018805D01*
X014408Y018789D01*
X014383Y018777D01*
X014357Y018769D01*
X014330Y018764D01*
X014302Y018763D01*
X014275Y018766D01*
X014248Y018773D01*
X014223Y018783D01*
X014199Y018797D01*
X014177Y018814D01*
X014158Y018833D01*
X014142Y018856D01*
X014129Y018880D01*
X014120Y018906D01*
X014114Y018933D01*
X014112Y018960D01*
X015057Y019452D02*
X015059Y019479D01*
X015065Y019506D01*
X015074Y019532D01*
X015087Y019556D01*
X015103Y019579D01*
X015122Y019598D01*
X015144Y019615D01*
X015168Y019629D01*
X015193Y019639D01*
X015220Y019646D01*
X015247Y019649D01*
X015275Y019648D01*
X015302Y019643D01*
X015328Y019635D01*
X015352Y019623D01*
X015375Y019607D01*
X015396Y019589D01*
X015413Y019568D01*
X015428Y019544D01*
X015439Y019519D01*
X015447Y019493D01*
X015451Y019466D01*
X015451Y019438D01*
X015447Y019411D01*
X015439Y019385D01*
X015428Y019360D01*
X015413Y019336D01*
X015396Y019315D01*
X015375Y019297D01*
X015353Y019281D01*
X015328Y019269D01*
X015302Y019261D01*
X015275Y019256D01*
X015247Y019255D01*
X015220Y019258D01*
X015193Y019265D01*
X015168Y019275D01*
X015144Y019289D01*
X015122Y019306D01*
X015103Y019325D01*
X015087Y019348D01*
X015074Y019372D01*
X015065Y019398D01*
X015059Y019425D01*
X015057Y019452D01*
X015116Y018920D02*
X015118Y018947D01*
X015124Y018974D01*
X015133Y019000D01*
X015146Y019024D01*
X015162Y019047D01*
X015181Y019066D01*
X015203Y019083D01*
X015227Y019097D01*
X015252Y019107D01*
X015279Y019114D01*
X015306Y019117D01*
X015334Y019116D01*
X015361Y019111D01*
X015387Y019103D01*
X015411Y019091D01*
X015434Y019075D01*
X015455Y019057D01*
X015472Y019036D01*
X015487Y019012D01*
X015498Y018987D01*
X015506Y018961D01*
X015510Y018934D01*
X015510Y018906D01*
X015506Y018879D01*
X015498Y018853D01*
X015487Y018828D01*
X015472Y018804D01*
X015455Y018783D01*
X015434Y018765D01*
X015412Y018749D01*
X015387Y018737D01*
X015361Y018729D01*
X015334Y018724D01*
X015306Y018723D01*
X015279Y018726D01*
X015252Y018733D01*
X015227Y018743D01*
X015203Y018757D01*
X015181Y018774D01*
X015162Y018793D01*
X015146Y018816D01*
X015133Y018840D01*
X015124Y018866D01*
X015118Y018893D01*
X015116Y018920D01*
X015608Y019176D02*
X015610Y019203D01*
X015616Y019230D01*
X015625Y019256D01*
X015638Y019280D01*
X015654Y019303D01*
X015673Y019322D01*
X015695Y019339D01*
X015719Y019353D01*
X015744Y019363D01*
X015771Y019370D01*
X015798Y019373D01*
X015826Y019372D01*
X015853Y019367D01*
X015879Y019359D01*
X015903Y019347D01*
X015926Y019331D01*
X015947Y019313D01*
X015964Y019292D01*
X015979Y019268D01*
X015990Y019243D01*
X015998Y019217D01*
X016002Y019190D01*
X016002Y019162D01*
X015998Y019135D01*
X015990Y019109D01*
X015979Y019084D01*
X015964Y019060D01*
X015947Y019039D01*
X015926Y019021D01*
X015904Y019005D01*
X015879Y018993D01*
X015853Y018985D01*
X015826Y018980D01*
X015798Y018979D01*
X015771Y018982D01*
X015744Y018989D01*
X015719Y018999D01*
X015695Y019013D01*
X015673Y019030D01*
X015654Y019049D01*
X015638Y019072D01*
X015625Y019096D01*
X015616Y019122D01*
X015610Y019149D01*
X015608Y019176D01*
X016120Y019412D02*
X016122Y019439D01*
X016128Y019466D01*
X016137Y019492D01*
X016150Y019516D01*
X016166Y019539D01*
X016185Y019558D01*
X016207Y019575D01*
X016231Y019589D01*
X016256Y019599D01*
X016283Y019606D01*
X016310Y019609D01*
X016338Y019608D01*
X016365Y019603D01*
X016391Y019595D01*
X016415Y019583D01*
X016438Y019567D01*
X016459Y019549D01*
X016476Y019528D01*
X016491Y019504D01*
X016502Y019479D01*
X016510Y019453D01*
X016514Y019426D01*
X016514Y019398D01*
X016510Y019371D01*
X016502Y019345D01*
X016491Y019320D01*
X016476Y019296D01*
X016459Y019275D01*
X016438Y019257D01*
X016416Y019241D01*
X016391Y019229D01*
X016365Y019221D01*
X016338Y019216D01*
X016310Y019215D01*
X016283Y019218D01*
X016256Y019225D01*
X016231Y019235D01*
X016207Y019249D01*
X016185Y019266D01*
X016166Y019285D01*
X016150Y019308D01*
X016137Y019332D01*
X016128Y019358D01*
X016122Y019385D01*
X016120Y019412D01*
X016120Y019944D02*
X016122Y019971D01*
X016128Y019998D01*
X016137Y020024D01*
X016150Y020048D01*
X016166Y020071D01*
X016185Y020090D01*
X016207Y020107D01*
X016231Y020121D01*
X016256Y020131D01*
X016283Y020138D01*
X016310Y020141D01*
X016338Y020140D01*
X016365Y020135D01*
X016391Y020127D01*
X016415Y020115D01*
X016438Y020099D01*
X016459Y020081D01*
X016476Y020060D01*
X016491Y020036D01*
X016502Y020011D01*
X016510Y019985D01*
X016514Y019958D01*
X016514Y019930D01*
X016510Y019903D01*
X016502Y019877D01*
X016491Y019852D01*
X016476Y019828D01*
X016459Y019807D01*
X016438Y019789D01*
X016416Y019773D01*
X016391Y019761D01*
X016365Y019753D01*
X016338Y019748D01*
X016310Y019747D01*
X016283Y019750D01*
X016256Y019757D01*
X016231Y019767D01*
X016207Y019781D01*
X016185Y019798D01*
X016166Y019817D01*
X016150Y019840D01*
X016137Y019864D01*
X016128Y019890D01*
X016122Y019917D01*
X016120Y019944D01*
X012478Y021079D02*
X012480Y021123D01*
X012486Y021167D01*
X012496Y021210D01*
X012509Y021252D01*
X012527Y021292D01*
X012548Y021331D01*
X012572Y021368D01*
X012599Y021403D01*
X012630Y021435D01*
X012663Y021464D01*
X012699Y021490D01*
X012737Y021512D01*
X012777Y021531D01*
X012818Y021547D01*
X012861Y021559D01*
X012904Y021567D01*
X012948Y021571D01*
X012992Y021571D01*
X013036Y021567D01*
X013079Y021559D01*
X013122Y021547D01*
X013163Y021531D01*
X013203Y021512D01*
X013241Y021490D01*
X013277Y021464D01*
X013310Y021435D01*
X013341Y021403D01*
X013368Y021368D01*
X013392Y021331D01*
X013413Y021292D01*
X013431Y021252D01*
X013444Y021210D01*
X013454Y021167D01*
X013460Y021123D01*
X013462Y021079D01*
X013460Y021035D01*
X013454Y020991D01*
X013444Y020948D01*
X013431Y020906D01*
X013413Y020866D01*
X013392Y020827D01*
X013368Y020790D01*
X013341Y020755D01*
X013310Y020723D01*
X013277Y020694D01*
X013241Y020668D01*
X013203Y020646D01*
X013163Y020627D01*
X013122Y020611D01*
X013079Y020599D01*
X013036Y020591D01*
X012992Y020587D01*
X012948Y020587D01*
X012904Y020591D01*
X012861Y020599D01*
X012818Y020611D01*
X012777Y020627D01*
X012737Y020646D01*
X012699Y020668D01*
X012663Y020694D01*
X012630Y020723D01*
X012599Y020755D01*
X012572Y020790D01*
X012548Y020827D01*
X012527Y020866D01*
X012509Y020906D01*
X012496Y020948D01*
X012486Y020991D01*
X012480Y021035D01*
X012478Y021079D01*
X020144Y008781D02*
X020146Y008822D01*
X020152Y008863D01*
X020162Y008903D01*
X020175Y008942D01*
X020192Y008979D01*
X020213Y009015D01*
X020237Y009049D01*
X020264Y009080D01*
X020293Y009108D01*
X020326Y009134D01*
X020360Y009156D01*
X020397Y009175D01*
X020435Y009190D01*
X020475Y009202D01*
X020515Y009210D01*
X020556Y009214D01*
X020598Y009214D01*
X020639Y009210D01*
X020679Y009202D01*
X020719Y009190D01*
X020757Y009175D01*
X020793Y009156D01*
X020828Y009134D01*
X020861Y009108D01*
X020890Y009080D01*
X020917Y009049D01*
X020941Y009015D01*
X020962Y008979D01*
X020979Y008942D01*
X020992Y008903D01*
X021002Y008863D01*
X021008Y008822D01*
X021010Y008781D01*
X021008Y008740D01*
X021002Y008699D01*
X020992Y008659D01*
X020979Y008620D01*
X020962Y008583D01*
X020941Y008547D01*
X020917Y008513D01*
X020890Y008482D01*
X020861Y008454D01*
X020828Y008428D01*
X020794Y008406D01*
X020757Y008387D01*
X020719Y008372D01*
X020679Y008360D01*
X020639Y008352D01*
X020598Y008348D01*
X020556Y008348D01*
X020515Y008352D01*
X020475Y008360D01*
X020435Y008372D01*
X020397Y008387D01*
X020361Y008406D01*
X020326Y008428D01*
X020293Y008454D01*
X020264Y008482D01*
X020237Y008513D01*
X020213Y008547D01*
X020192Y008583D01*
X020175Y008620D01*
X020162Y008659D01*
X020152Y008699D01*
X020146Y008740D01*
X020144Y008781D01*
X023929Y002550D02*
X023931Y002594D01*
X023937Y002638D01*
X023947Y002681D01*
X023960Y002723D01*
X023978Y002763D01*
X023999Y002802D01*
X024023Y002839D01*
X024050Y002874D01*
X024081Y002906D01*
X024114Y002935D01*
X024150Y002961D01*
X024188Y002983D01*
X024228Y003002D01*
X024269Y003018D01*
X024312Y003030D01*
X024355Y003038D01*
X024399Y003042D01*
X024443Y003042D01*
X024487Y003038D01*
X024530Y003030D01*
X024573Y003018D01*
X024614Y003002D01*
X024654Y002983D01*
X024692Y002961D01*
X024728Y002935D01*
X024761Y002906D01*
X024792Y002874D01*
X024819Y002839D01*
X024843Y002802D01*
X024864Y002763D01*
X024882Y002723D01*
X024895Y002681D01*
X024905Y002638D01*
X024911Y002594D01*
X024913Y002550D01*
X024911Y002506D01*
X024905Y002462D01*
X024895Y002419D01*
X024882Y002377D01*
X024864Y002337D01*
X024843Y002298D01*
X024819Y002261D01*
X024792Y002226D01*
X024761Y002194D01*
X024728Y002165D01*
X024692Y002139D01*
X024654Y002117D01*
X024614Y002098D01*
X024573Y002082D01*
X024530Y002070D01*
X024487Y002062D01*
X024443Y002058D01*
X024399Y002058D01*
X024355Y002062D01*
X024312Y002070D01*
X024269Y002082D01*
X024228Y002098D01*
X024188Y002117D01*
X024150Y002139D01*
X024114Y002165D01*
X024081Y002194D01*
X024050Y002226D01*
X024023Y002261D01*
X023999Y002298D01*
X023978Y002337D01*
X023960Y002377D01*
X023947Y002419D01*
X023937Y002462D01*
X023931Y002506D01*
X023929Y002550D01*
X033359Y021185D02*
X033361Y021229D01*
X033367Y021273D01*
X033377Y021316D01*
X033390Y021358D01*
X033408Y021398D01*
X033429Y021437D01*
X033453Y021474D01*
X033480Y021509D01*
X033511Y021541D01*
X033544Y021570D01*
X033580Y021596D01*
X033618Y021618D01*
X033658Y021637D01*
X033699Y021653D01*
X033742Y021665D01*
X033785Y021673D01*
X033829Y021677D01*
X033873Y021677D01*
X033917Y021673D01*
X033960Y021665D01*
X034003Y021653D01*
X034044Y021637D01*
X034084Y021618D01*
X034122Y021596D01*
X034158Y021570D01*
X034191Y021541D01*
X034222Y021509D01*
X034249Y021474D01*
X034273Y021437D01*
X034294Y021398D01*
X034312Y021358D01*
X034325Y021316D01*
X034335Y021273D01*
X034341Y021229D01*
X034343Y021185D01*
X034341Y021141D01*
X034335Y021097D01*
X034325Y021054D01*
X034312Y021012D01*
X034294Y020972D01*
X034273Y020933D01*
X034249Y020896D01*
X034222Y020861D01*
X034191Y020829D01*
X034158Y020800D01*
X034122Y020774D01*
X034084Y020752D01*
X034044Y020733D01*
X034003Y020717D01*
X033960Y020705D01*
X033917Y020697D01*
X033873Y020693D01*
X033829Y020693D01*
X033785Y020697D01*
X033742Y020705D01*
X033699Y020717D01*
X033658Y020733D01*
X033618Y020752D01*
X033580Y020774D01*
X033544Y020800D01*
X033511Y020829D01*
X033480Y020861D01*
X033453Y020896D01*
X033429Y020933D01*
X033408Y020972D01*
X033390Y021012D01*
X033377Y021054D01*
X033367Y021097D01*
X033361Y021141D01*
X033359Y021185D01*
D11*
X033851Y021185D03*
X012970Y021079D03*
X024421Y002550D03*
X003552Y002453D03*
D12*
X020577Y008781D03*
X016824Y014853D03*
D13*
X013285Y017818D03*
X012793Y017523D03*
X012262Y017759D03*
X013265Y018369D03*
X013817Y018133D03*
X014309Y018408D03*
X014821Y018684D03*
X014309Y018960D03*
X015254Y019452D03*
X015313Y018920D03*
X015805Y019176D03*
X016317Y019412D03*
X016317Y019944D03*
D14*
G36*
X020846Y015409D02*
X020723Y015656D01*
X021532Y016061D01*
X021655Y015814D01*
X020846Y015409D01*
G37*
G36*
X021070Y014962D02*
X020947Y015209D01*
X021756Y015614D01*
X021879Y015367D01*
X021070Y014962D01*
G37*
G36*
X021294Y014515D02*
X021171Y014762D01*
X021980Y015167D01*
X022103Y014920D01*
X021294Y014515D01*
G37*
G36*
X021518Y014068D02*
X021395Y014315D01*
X022204Y014720D01*
X022327Y014473D01*
X021518Y014068D01*
G37*
G36*
X021742Y013621D02*
X021619Y013868D01*
X022428Y014273D01*
X022551Y014026D01*
X021742Y013621D01*
G37*
G36*
X021966Y013174D02*
X021843Y013421D01*
X022652Y013826D01*
X022775Y013579D01*
X021966Y013174D01*
G37*
G36*
X022189Y012727D02*
X022066Y012974D01*
X022875Y013379D01*
X022998Y013132D01*
X022189Y012727D01*
G37*
G36*
X022413Y012280D02*
X022290Y012527D01*
X023099Y012932D01*
X023222Y012685D01*
X022413Y012280D01*
G37*
G36*
X024244Y013196D02*
X024121Y013443D01*
X024930Y013848D01*
X025053Y013601D01*
X024244Y013196D01*
G37*
G36*
X024020Y013643D02*
X023897Y013890D01*
X024706Y014295D01*
X024829Y014048D01*
X024020Y013643D01*
G37*
G36*
X023796Y014090D02*
X023673Y014337D01*
X024482Y014742D01*
X024605Y014495D01*
X023796Y014090D01*
G37*
G36*
X023572Y014538D02*
X023449Y014785D01*
X024258Y015190D01*
X024381Y014943D01*
X023572Y014538D01*
G37*
G36*
X023348Y014985D02*
X023225Y015232D01*
X024034Y015637D01*
X024157Y015390D01*
X023348Y014985D01*
G37*
G36*
X023125Y015432D02*
X023002Y015679D01*
X023811Y016084D01*
X023934Y015837D01*
X023125Y015432D01*
G37*
G36*
X022901Y015879D02*
X022778Y016126D01*
X023587Y016531D01*
X023710Y016284D01*
X022901Y015879D01*
G37*
G36*
X022677Y016326D02*
X022554Y016573D01*
X023363Y016978D01*
X023486Y016731D01*
X022677Y016326D01*
G37*
D15*
G36*
X016102Y010251D02*
X016331Y010366D01*
X016560Y009909D01*
X016331Y009794D01*
X016102Y010251D01*
G37*
G36*
X015433Y009916D02*
X015662Y010031D01*
X015891Y009574D01*
X015662Y009459D01*
X015433Y009916D01*
G37*
G36*
X015892Y009001D02*
X016121Y009116D01*
X016350Y008659D01*
X016121Y008544D01*
X015892Y009001D01*
G37*
G36*
X016226Y009168D02*
X016455Y009283D01*
X016684Y008826D01*
X016455Y008711D01*
X016226Y009168D01*
G37*
G36*
X016561Y009336D02*
X016790Y009451D01*
X017019Y008994D01*
X016790Y008879D01*
X016561Y009336D01*
G37*
D16*
X018013Y019831D03*
X018604Y019831D03*
X019194Y019831D03*
X019785Y019831D03*
X020356Y019831D03*
X020946Y019831D03*
X021537Y019831D03*
X022127Y019831D03*
D17*
X013094Y011074D03*
X013094Y007157D03*
D18*
X024679Y005374D03*
X025133Y006265D03*
X025587Y007156D03*
X026041Y008047D03*
X026495Y008938D03*
D19*
G36*
X028781Y008914D02*
X028499Y008351D01*
X027127Y009038D01*
X027409Y009601D01*
X028781Y008914D01*
G37*
G36*
X029310Y009971D02*
X029028Y009408D01*
X027656Y010095D01*
X027938Y010658D01*
X029310Y009971D01*
G37*
G36*
X029839Y011027D02*
X029557Y010464D01*
X028185Y011151D01*
X028467Y011714D01*
X029839Y011027D01*
G37*
G36*
X030368Y012083D02*
X030086Y011520D01*
X028714Y012207D01*
X028996Y012770D01*
X030368Y012083D01*
G37*
G36*
X030896Y013139D02*
X030614Y012576D01*
X029242Y013263D01*
X029524Y013826D01*
X030896Y013139D01*
G37*
G36*
X031425Y014195D02*
X031143Y013632D01*
X029771Y014319D01*
X030053Y014882D01*
X031425Y014195D01*
G37*
X026202Y021364D03*
X025021Y021364D03*
X023840Y021364D03*
X022659Y021364D03*
X021477Y021364D03*
X020296Y021364D03*
G36*
X008622Y014725D02*
X008904Y015288D01*
X010276Y014601D01*
X009994Y014038D01*
X008622Y014725D01*
G37*
G36*
X008093Y013668D02*
X008375Y014231D01*
X009747Y013544D01*
X009465Y012981D01*
X008093Y013668D01*
G37*
G36*
X007564Y012612D02*
X007846Y013175D01*
X009218Y012488D01*
X008936Y011925D01*
X007564Y012612D01*
G37*
G36*
X007035Y011556D02*
X007317Y012119D01*
X008689Y011432D01*
X008407Y010869D01*
X007035Y011556D01*
G37*
G36*
X006506Y010500D02*
X006788Y011063D01*
X008160Y010376D01*
X007878Y009813D01*
X006506Y010500D01*
G37*
G36*
X005977Y009444D02*
X006259Y010007D01*
X007631Y009320D01*
X007349Y008757D01*
X005977Y009444D01*
G37*
X011205Y002277D03*
X012386Y002277D03*
X013567Y002277D03*
X014748Y002277D03*
X015929Y002277D03*
X017110Y002277D03*
D20*
X009422Y002356D02*
X009422Y004776D01*
X009834Y004776D01*
X009834Y002356D01*
X009422Y002356D01*
X009422Y002769D02*
X009834Y002769D01*
X009834Y003182D02*
X009422Y003182D01*
X009422Y003595D02*
X009834Y003595D01*
X009834Y004008D02*
X009422Y004008D01*
X009422Y004421D02*
X009834Y004421D01*
X007848Y004756D02*
X007848Y002336D01*
X007848Y004756D02*
X008260Y004756D01*
X008260Y002336D01*
X007848Y002336D01*
X007848Y002749D02*
X008260Y002749D01*
X008260Y003162D02*
X007848Y003162D01*
X007848Y003575D02*
X008260Y003575D01*
X008260Y003988D02*
X007848Y003988D01*
X007848Y004401D02*
X008260Y004401D01*
X007742Y005655D02*
X005579Y006737D01*
X007742Y005655D02*
X007557Y005287D01*
X005394Y006369D01*
X005579Y006737D01*
X006731Y005700D02*
X007652Y005700D01*
X006826Y006113D02*
X005906Y006113D01*
X006001Y006526D02*
X005473Y006526D01*
X006267Y008154D02*
X008430Y007072D01*
X008245Y006704D01*
X006082Y007786D01*
X006267Y008154D01*
X007419Y007117D02*
X008340Y007117D01*
X007514Y007530D02*
X006594Y007530D01*
X006689Y007943D02*
X006161Y007943D01*
X027986Y018863D02*
X027986Y021283D01*
X027986Y018863D02*
X027574Y018863D01*
X027574Y021283D01*
X027986Y021283D01*
X027986Y019276D02*
X027574Y019276D01*
X027574Y019689D02*
X027986Y019689D01*
X027986Y020102D02*
X027574Y020102D01*
X027574Y020515D02*
X027986Y020515D01*
X027986Y020928D02*
X027574Y020928D01*
X029561Y021303D02*
X029561Y018883D01*
X029149Y018883D01*
X029149Y021303D01*
X029561Y021303D01*
X029561Y019296D02*
X029149Y019296D01*
X029149Y019709D02*
X029561Y019709D01*
X029561Y020122D02*
X029149Y020122D01*
X029149Y020535D02*
X029561Y020535D01*
X029561Y020948D02*
X029149Y020948D01*
X029661Y017978D02*
X031824Y016896D01*
X029661Y017978D02*
X029846Y018346D01*
X032009Y017264D01*
X031824Y016896D01*
X031919Y017309D02*
X030998Y017309D01*
X031093Y017722D02*
X030173Y017722D01*
X030268Y018135D02*
X029740Y018135D01*
X028973Y016561D02*
X031136Y015479D01*
X028973Y016561D02*
X029158Y016929D01*
X031321Y015847D01*
X031136Y015479D01*
X031231Y015892D02*
X030310Y015892D01*
X030405Y016305D02*
X029485Y016305D01*
X029580Y016718D02*
X029052Y016718D01*
D21*
G36*
X020654Y016787D02*
X021146Y017034D01*
X021428Y016471D01*
X020936Y016224D01*
X020654Y016787D01*
G37*
G36*
X019985Y016452D02*
X020477Y016699D01*
X020759Y016136D01*
X020267Y015889D01*
X019985Y016452D01*
G37*
G36*
X018986Y009970D02*
X018494Y009723D01*
X018212Y010286D01*
X018704Y010533D01*
X018986Y009970D01*
G37*
G36*
X018317Y009635D02*
X017825Y009388D01*
X017543Y009951D01*
X018035Y010198D01*
X018317Y009635D01*
G37*
D22*
G36*
X021823Y008045D02*
X022582Y007665D01*
X022457Y007415D01*
X021698Y007795D01*
X021823Y008045D01*
G37*
G36*
X022046Y008492D02*
X022805Y008112D01*
X022680Y007862D01*
X021921Y008242D01*
X022046Y008492D01*
G37*
G36*
X022270Y008939D02*
X023029Y008559D01*
X022904Y008309D01*
X022145Y008689D01*
X022270Y008939D01*
G37*
G36*
X022494Y009386D02*
X023253Y009006D01*
X023128Y008756D01*
X022369Y009136D01*
X022494Y009386D01*
G37*
G36*
X022718Y009833D02*
X023477Y009453D01*
X023352Y009203D01*
X022593Y009583D01*
X022718Y009833D01*
G37*
G36*
X022942Y010280D02*
X023701Y009900D01*
X023576Y009650D01*
X022817Y010030D01*
X022942Y010280D01*
G37*
G36*
X024632Y009434D02*
X025391Y009054D01*
X025266Y008804D01*
X024507Y009184D01*
X024632Y009434D01*
G37*
G36*
X024408Y008987D02*
X025167Y008607D01*
X025042Y008357D01*
X024283Y008737D01*
X024408Y008987D01*
G37*
G36*
X024184Y008540D02*
X024943Y008160D01*
X024818Y007910D01*
X024059Y008290D01*
X024184Y008540D01*
G37*
G36*
X023960Y008092D02*
X024719Y007712D01*
X024594Y007462D01*
X023835Y007842D01*
X023960Y008092D01*
G37*
G36*
X023736Y007645D02*
X024495Y007265D01*
X024370Y007015D01*
X023611Y007395D01*
X023736Y007645D01*
G37*
G36*
X023513Y007198D02*
X024272Y006818D01*
X024147Y006568D01*
X023388Y006948D01*
X023513Y007198D01*
G37*
G36*
X023289Y006751D02*
X024048Y006371D01*
X023923Y006121D01*
X023164Y006501D01*
X023289Y006751D01*
G37*
G36*
X023065Y006304D02*
X023824Y005924D01*
X023699Y005674D01*
X022940Y006054D01*
X023065Y006304D01*
G37*
G36*
X021375Y007150D02*
X022134Y006770D01*
X022009Y006520D01*
X021250Y006900D01*
X021375Y007150D01*
G37*
G36*
X021599Y007598D02*
X022358Y007218D01*
X022233Y006968D01*
X021474Y007348D01*
X021599Y007598D01*
G37*
D23*
G36*
X026554Y009607D02*
X026097Y009836D01*
X026326Y010293D01*
X026783Y010064D01*
X026554Y009607D01*
G37*
G36*
X027029Y009355D02*
X026572Y009584D01*
X026801Y010041D01*
X027258Y009812D01*
X027029Y009355D01*
G37*
G36*
X027428Y010186D02*
X026971Y010415D01*
X027200Y010872D01*
X027657Y010643D01*
X027428Y010186D01*
G37*
G36*
X026953Y010438D02*
X026496Y010667D01*
X026725Y011124D01*
X027182Y010895D01*
X026953Y010438D01*
G37*
G36*
X029156Y013388D02*
X028699Y013617D01*
X028928Y014074D01*
X029385Y013845D01*
X029156Y013388D01*
G37*
G36*
X028638Y013628D02*
X028181Y013857D01*
X028410Y014314D01*
X028867Y014085D01*
X028638Y013628D01*
G37*
G36*
X029578Y014241D02*
X029121Y014470D01*
X029350Y014927D01*
X029807Y014698D01*
X029578Y014241D01*
G37*
G36*
X029064Y014493D02*
X028607Y014722D01*
X028836Y015179D01*
X029293Y014950D01*
X029064Y014493D01*
G37*
G36*
X011142Y014711D02*
X011599Y014482D01*
X011370Y014025D01*
X010913Y014254D01*
X011142Y014711D01*
G37*
G36*
X010655Y014959D02*
X011112Y014730D01*
X010883Y014273D01*
X010426Y014502D01*
X010655Y014959D01*
G37*
G36*
X010290Y014230D02*
X010747Y014001D01*
X010518Y013544D01*
X010061Y013773D01*
X010290Y014230D01*
G37*
G36*
X010776Y013981D02*
X011233Y013752D01*
X011004Y013295D01*
X010547Y013524D01*
X010776Y013981D01*
G37*
G36*
X009924Y013375D02*
X010381Y013146D01*
X010152Y012689D01*
X009695Y012918D01*
X009924Y013375D01*
G37*
G36*
X010394Y013127D02*
X010851Y012898D01*
X010622Y012441D01*
X010165Y012670D01*
X010394Y013127D01*
G37*
G36*
X008871Y011083D02*
X009328Y010854D01*
X009099Y010397D01*
X008642Y010626D01*
X008871Y011083D01*
G37*
G36*
X009358Y010835D02*
X009815Y010606D01*
X009586Y010149D01*
X009129Y010378D01*
X009358Y010835D01*
G37*
G36*
X008992Y010106D02*
X009449Y009877D01*
X009220Y009420D01*
X008763Y009649D01*
X008992Y010106D01*
G37*
G36*
X008505Y010354D02*
X008962Y010125D01*
X008733Y009668D01*
X008276Y009897D01*
X008505Y010354D01*
G37*
G36*
X008139Y009624D02*
X008596Y009395D01*
X008367Y008938D01*
X007910Y009167D01*
X008139Y009624D01*
G37*
G36*
X008626Y009376D02*
X009083Y009147D01*
X008854Y008690D01*
X008397Y008919D01*
X008626Y009376D01*
G37*
D24*
G36*
X027284Y011414D02*
X026933Y011591D01*
X027110Y011942D01*
X027461Y011765D01*
X027284Y011414D01*
G37*
G36*
X027524Y011882D02*
X027173Y012059D01*
X027350Y012410D01*
X027701Y012233D01*
X027524Y011882D01*
G37*
G36*
X027874Y012538D02*
X027523Y012715D01*
X027700Y013066D01*
X028051Y012889D01*
X027874Y012538D01*
G37*
G36*
X028131Y013043D02*
X027780Y013220D01*
X027957Y013571D01*
X028308Y013394D01*
X028131Y013043D01*
G37*
D25*
G36*
X028662Y012198D02*
X027924Y012568D01*
X028294Y013306D01*
X029032Y012936D01*
X028662Y012198D01*
G37*
G36*
X028092Y011118D02*
X027354Y011488D01*
X027724Y012226D01*
X028462Y011856D01*
X028092Y011118D01*
G37*
D26*
X018053Y004490D03*
X018053Y003947D03*
X017303Y003947D03*
X017303Y004490D03*
X016553Y004490D03*
X016553Y003947D03*
X015157Y003895D03*
X015157Y004441D03*
X014345Y004441D03*
X013595Y004441D03*
X013595Y003895D03*
X014345Y003895D03*
D27*
G36*
X020380Y013960D02*
X020183Y014346D01*
X020602Y014560D01*
X020799Y014174D01*
X020380Y013960D01*
G37*
G36*
X020076Y014556D02*
X019879Y014942D01*
X020298Y015156D01*
X020495Y014770D01*
X020076Y014556D01*
G37*
G36*
X024283Y017765D02*
X024480Y017379D01*
X024061Y017165D01*
X023864Y017551D01*
X024283Y017765D01*
G37*
G36*
X024587Y017168D02*
X024784Y016782D01*
X024365Y016568D01*
X024168Y016954D01*
X024587Y017168D01*
G37*
M02*
