G75*
%MOIN*%
%OFA0B0*%
%FSLAX24Y24*%
%IPPOS*%
%LPD*%
%AMOC8*
5,1,8,0,0,1.08239X$1,22.5*
%
%ADD10C,0.0000*%
D10*
X000100Y000100D02*
X000568Y001036D01*
X000687Y001273D02*
X000713Y001326D01*
X000832Y001564D02*
X001300Y002499D01*
X001419Y002737D02*
X001445Y002790D01*
X001564Y003028D02*
X002032Y003963D01*
X002150Y004201D02*
X002177Y004254D01*
X002296Y004491D02*
X002764Y005427D01*
X002882Y005665D02*
X002909Y005718D01*
X003028Y005955D02*
X003495Y006891D01*
X003614Y007129D02*
X003641Y007181D01*
X003760Y007419D02*
X004227Y008355D01*
X004346Y008592D02*
X004373Y008645D01*
X004491Y008883D02*
X004959Y009818D01*
X005078Y010056D02*
X005104Y010109D01*
X005223Y010347D02*
X005691Y011282D01*
X005810Y011520D02*
X005836Y011573D01*
X005823Y011546D02*
X006713Y011101D01*
X006951Y010982D02*
X007004Y010956D01*
X007242Y010837D02*
X008132Y010392D01*
X005955Y011810D02*
X006423Y012746D01*
X006542Y012984D02*
X006568Y013037D01*
X006687Y013274D02*
X007155Y014210D01*
X007274Y014448D02*
X007300Y014500D01*
X007419Y014738D02*
X007887Y015674D01*
X008006Y015911D02*
X008032Y015964D01*
X008019Y015942D02*
X004663Y009219D01*
X005549Y008777D01*
X004132Y005942D01*
X003925Y005873D01*
X001464Y000942D01*
X025175Y000942D01*
X028236Y007064D01*
X029230Y007172D01*
X032586Y013885D01*
X031730Y014308D01*
X033147Y017133D01*
X033315Y017212D01*
X035785Y022152D01*
X030145Y022152D01*
X029978Y022074D01*
X026966Y022074D01*
X026966Y022950D01*
X019417Y022950D01*
X018610Y022152D01*
X012065Y022152D01*
X009141Y016296D01*
X008019Y015942D01*
X008151Y016202D02*
X008619Y017137D01*
X008738Y017375D02*
X008764Y017428D01*
X008883Y017666D02*
X009351Y018601D01*
X009469Y018839D02*
X009496Y018892D01*
X009615Y019129D02*
X010083Y020065D01*
X010201Y020303D02*
X010228Y020356D01*
X010347Y020593D02*
X010814Y021529D01*
X010933Y021767D02*
X010960Y021819D01*
X011079Y022057D02*
X011546Y022993D01*
X012629Y022993D01*
X012895Y022993D02*
X012954Y022993D01*
X013220Y022993D02*
X014303Y022993D01*
X014569Y022993D02*
X014628Y022993D01*
X014893Y022993D02*
X015976Y022993D01*
X016242Y022993D02*
X016301Y022993D01*
X016567Y022993D02*
X017650Y022993D01*
X017915Y022993D02*
X017975Y022993D01*
X018240Y022993D02*
X019323Y022993D01*
X019589Y022993D02*
X019648Y022993D01*
X019914Y022993D02*
X020997Y022993D01*
X021262Y022993D02*
X021322Y022993D01*
X021587Y022993D02*
X022670Y022993D01*
X022936Y022993D02*
X022995Y022993D01*
X023261Y022993D02*
X024344Y022993D01*
X024344Y021972D01*
X024344Y021707D02*
X024344Y021648D01*
X024344Y021382D02*
X024344Y020362D01*
X024344Y022993D02*
X025427Y022993D01*
X025692Y022993D02*
X025751Y022993D01*
X026017Y022993D02*
X027100Y022993D01*
X027366Y022993D02*
X027425Y022993D01*
X027691Y022993D02*
X028774Y022993D01*
X029039Y022993D02*
X029098Y022993D01*
X029364Y022993D02*
X030447Y022993D01*
X030713Y022993D02*
X030772Y022993D01*
X031038Y022993D02*
X032121Y022993D01*
X032386Y022993D02*
X032445Y022993D01*
X032711Y022993D02*
X033794Y022993D01*
X034060Y022993D02*
X034119Y022993D01*
X034385Y022993D02*
X035468Y022993D01*
X035733Y022993D02*
X035792Y022993D01*
X036058Y022993D02*
X037141Y022993D01*
X036673Y022057D01*
X036554Y021819D02*
X036528Y021767D01*
X036409Y021529D02*
X035941Y020593D01*
X035823Y020356D02*
X035796Y020303D01*
X035677Y020065D02*
X035209Y019129D01*
X035091Y018892D02*
X035064Y018839D01*
X034945Y018601D02*
X034478Y017666D01*
X034359Y017428D02*
X034332Y017375D01*
X034213Y017137D02*
X033746Y016202D01*
X033627Y015964D02*
X033600Y015911D01*
X033482Y015674D02*
X033014Y014738D01*
X032895Y014500D02*
X032869Y014448D01*
X032750Y014210D02*
X032282Y013274D01*
X032163Y013037D02*
X032137Y012984D01*
X032018Y012746D02*
X031550Y011810D01*
X031431Y011573D02*
X031405Y011520D01*
X031418Y011546D02*
X030678Y011916D01*
X030440Y012035D02*
X030387Y012062D01*
X030150Y012180D02*
X029410Y012550D01*
X031286Y011282D02*
X030818Y010347D01*
X030699Y010109D02*
X030673Y010056D01*
X030554Y009818D02*
X030086Y008883D01*
X029967Y008645D02*
X029941Y008592D01*
X029822Y008355D02*
X029354Y007419D01*
X029235Y007181D02*
X029209Y007129D01*
X029090Y006891D02*
X028622Y005955D01*
X028504Y005718D02*
X028477Y005665D01*
X028358Y005427D02*
X027890Y004491D01*
X027772Y004254D02*
X027745Y004201D01*
X027626Y003963D02*
X027159Y003028D01*
X027040Y002790D02*
X027013Y002737D01*
X026894Y002499D02*
X026427Y001564D01*
X026308Y001326D02*
X026281Y001273D01*
X026163Y001036D02*
X025695Y000100D01*
X024649Y000100D01*
X024383Y000100D02*
X024324Y000100D01*
X024058Y000100D02*
X023012Y000100D01*
X022746Y000100D02*
X022687Y000100D01*
X022422Y000100D02*
X021376Y000100D01*
X021110Y000100D02*
X021051Y000100D01*
X020785Y000100D02*
X019739Y000100D01*
X019473Y000100D02*
X019414Y000100D01*
X019148Y000100D02*
X018102Y000100D01*
X017837Y000100D02*
X017778Y000100D01*
X017512Y000100D02*
X016466Y000100D01*
X016200Y000100D02*
X016141Y000100D01*
X015875Y000100D02*
X014829Y000100D01*
X014563Y000100D02*
X014504Y000100D01*
X014239Y000100D02*
X013193Y000100D01*
X012927Y000100D02*
X012868Y000100D01*
X012602Y000100D02*
X011556Y000100D01*
X011290Y000100D02*
X011231Y000100D01*
X010966Y000100D02*
X009919Y000100D01*
X009654Y000100D02*
X009595Y000100D01*
X009329Y000100D02*
X008283Y000100D01*
X008017Y000100D02*
X007958Y000100D01*
X007692Y000100D02*
X006646Y000100D01*
X006381Y000100D02*
X006322Y000100D01*
X006056Y000100D02*
X005010Y000100D01*
X004744Y000100D02*
X004685Y000100D01*
X004419Y000100D02*
X003373Y000100D01*
X003107Y000100D02*
X003048Y000100D01*
X002783Y000100D02*
X001737Y000100D01*
X001471Y000100D02*
X001412Y000100D01*
X001146Y000100D02*
X000100Y000100D01*
X001461Y000941D02*
X012066Y022152D01*
X035780Y022152D01*
X025175Y000941D01*
X001461Y000941D01*
X003043Y002228D02*
X003045Y002272D01*
X003051Y002316D01*
X003061Y002359D01*
X003074Y002401D01*
X003092Y002441D01*
X003113Y002480D01*
X003137Y002517D01*
X003164Y002552D01*
X003195Y002584D01*
X003228Y002613D01*
X003264Y002639D01*
X003302Y002661D01*
X003342Y002680D01*
X003383Y002696D01*
X003426Y002708D01*
X003469Y002716D01*
X003513Y002720D01*
X003557Y002720D01*
X003601Y002716D01*
X003644Y002708D01*
X003687Y002696D01*
X003728Y002680D01*
X003768Y002661D01*
X003806Y002639D01*
X003842Y002613D01*
X003875Y002584D01*
X003906Y002552D01*
X003933Y002517D01*
X003957Y002480D01*
X003978Y002441D01*
X003996Y002401D01*
X004009Y002359D01*
X004019Y002316D01*
X004025Y002272D01*
X004027Y002228D01*
X004025Y002184D01*
X004019Y002140D01*
X004009Y002097D01*
X003996Y002055D01*
X003978Y002015D01*
X003957Y001976D01*
X003933Y001939D01*
X003906Y001904D01*
X003875Y001872D01*
X003842Y001843D01*
X003806Y001817D01*
X003768Y001795D01*
X003728Y001776D01*
X003687Y001760D01*
X003644Y001748D01*
X003601Y001740D01*
X003557Y001736D01*
X003513Y001736D01*
X003469Y001740D01*
X003426Y001748D01*
X003383Y001760D01*
X003342Y001776D01*
X003302Y001795D01*
X003264Y001817D01*
X003228Y001843D01*
X003195Y001872D01*
X003164Y001904D01*
X003137Y001939D01*
X003113Y001976D01*
X003092Y002015D01*
X003074Y002055D01*
X003061Y002097D01*
X003051Y002140D01*
X003045Y002184D01*
X003043Y002228D01*
X023864Y002345D02*
X023866Y002389D01*
X023872Y002433D01*
X023882Y002476D01*
X023895Y002518D01*
X023913Y002558D01*
X023934Y002597D01*
X023958Y002634D01*
X023985Y002669D01*
X024016Y002701D01*
X024049Y002730D01*
X024085Y002756D01*
X024123Y002778D01*
X024163Y002797D01*
X024204Y002813D01*
X024247Y002825D01*
X024290Y002833D01*
X024334Y002837D01*
X024378Y002837D01*
X024422Y002833D01*
X024465Y002825D01*
X024508Y002813D01*
X024549Y002797D01*
X024589Y002778D01*
X024627Y002756D01*
X024663Y002730D01*
X024696Y002701D01*
X024727Y002669D01*
X024754Y002634D01*
X024778Y002597D01*
X024799Y002558D01*
X024817Y002518D01*
X024830Y002476D01*
X024840Y002433D01*
X024846Y002389D01*
X024848Y002345D01*
X024846Y002301D01*
X024840Y002257D01*
X024830Y002214D01*
X024817Y002172D01*
X024799Y002132D01*
X024778Y002093D01*
X024754Y002056D01*
X024727Y002021D01*
X024696Y001989D01*
X024663Y001960D01*
X024627Y001934D01*
X024589Y001912D01*
X024549Y001893D01*
X024508Y001877D01*
X024465Y001865D01*
X024422Y001857D01*
X024378Y001853D01*
X024334Y001853D01*
X024290Y001857D01*
X024247Y001865D01*
X024204Y001877D01*
X024163Y001893D01*
X024123Y001912D01*
X024085Y001934D01*
X024049Y001960D01*
X024016Y001989D01*
X023985Y002021D01*
X023958Y002056D01*
X023934Y002093D01*
X023913Y002132D01*
X023895Y002172D01*
X023882Y002214D01*
X023872Y002257D01*
X023866Y002301D01*
X023864Y002345D01*
X012412Y020766D02*
X012414Y020810D01*
X012420Y020854D01*
X012430Y020897D01*
X012443Y020939D01*
X012461Y020979D01*
X012482Y021018D01*
X012506Y021055D01*
X012533Y021090D01*
X012564Y021122D01*
X012597Y021151D01*
X012633Y021177D01*
X012671Y021199D01*
X012711Y021218D01*
X012752Y021234D01*
X012795Y021246D01*
X012838Y021254D01*
X012882Y021258D01*
X012926Y021258D01*
X012970Y021254D01*
X013013Y021246D01*
X013056Y021234D01*
X013097Y021218D01*
X013137Y021199D01*
X013175Y021177D01*
X013211Y021151D01*
X013244Y021122D01*
X013275Y021090D01*
X013302Y021055D01*
X013326Y021018D01*
X013347Y020979D01*
X013365Y020939D01*
X013378Y020897D01*
X013388Y020854D01*
X013394Y020810D01*
X013396Y020766D01*
X013394Y020722D01*
X013388Y020678D01*
X013378Y020635D01*
X013365Y020593D01*
X013347Y020553D01*
X013326Y020514D01*
X013302Y020477D01*
X013275Y020442D01*
X013244Y020410D01*
X013211Y020381D01*
X013175Y020355D01*
X013137Y020333D01*
X013097Y020314D01*
X013056Y020298D01*
X013013Y020286D01*
X012970Y020278D01*
X012926Y020274D01*
X012882Y020274D01*
X012838Y020278D01*
X012795Y020286D01*
X012752Y020298D01*
X012711Y020314D01*
X012671Y020333D01*
X012633Y020355D01*
X012597Y020381D01*
X012564Y020410D01*
X012533Y020442D01*
X012506Y020477D01*
X012482Y020514D01*
X012461Y020553D01*
X012443Y020593D01*
X012430Y020635D01*
X012420Y020678D01*
X012414Y020722D01*
X012412Y020766D01*
X033282Y020898D02*
X033284Y020942D01*
X033290Y020986D01*
X033300Y021029D01*
X033313Y021071D01*
X033331Y021111D01*
X033352Y021150D01*
X033376Y021187D01*
X033403Y021222D01*
X033434Y021254D01*
X033467Y021283D01*
X033503Y021309D01*
X033541Y021331D01*
X033581Y021350D01*
X033622Y021366D01*
X033665Y021378D01*
X033708Y021386D01*
X033752Y021390D01*
X033796Y021390D01*
X033840Y021386D01*
X033883Y021378D01*
X033926Y021366D01*
X033967Y021350D01*
X034007Y021331D01*
X034045Y021309D01*
X034081Y021283D01*
X034114Y021254D01*
X034145Y021222D01*
X034172Y021187D01*
X034196Y021150D01*
X034217Y021111D01*
X034235Y021071D01*
X034248Y021029D01*
X034258Y020986D01*
X034264Y020942D01*
X034266Y020898D01*
X034264Y020854D01*
X034258Y020810D01*
X034248Y020767D01*
X034235Y020725D01*
X034217Y020685D01*
X034196Y020646D01*
X034172Y020609D01*
X034145Y020574D01*
X034114Y020542D01*
X034081Y020513D01*
X034045Y020487D01*
X034007Y020465D01*
X033967Y020446D01*
X033926Y020430D01*
X033883Y020418D01*
X033840Y020410D01*
X033796Y020406D01*
X033752Y020406D01*
X033708Y020410D01*
X033665Y020418D01*
X033622Y020430D01*
X033581Y020446D01*
X033541Y020465D01*
X033503Y020487D01*
X033467Y020513D01*
X033434Y020542D01*
X033403Y020574D01*
X033376Y020609D01*
X033352Y020646D01*
X033331Y020685D01*
X033313Y020725D01*
X033300Y020767D01*
X033290Y020810D01*
X033284Y020854D01*
X033282Y020898D01*
M02*
