G75*
%MOIN*%
%OFA0B0*%
%FSLAX24Y24*%
%IPPOS*%
%LPD*%
%AMOC8*
5,1,8,0,0,1.08239X$1,22.5*
%
%ADD10C,0.0000*%
%ADD11C,0.0476*%
%ADD12R,0.1516X0.2165*%
%ADD13C,0.0554*%
%ADD14C,0.0740*%
%ADD15R,0.0591X0.1496*%
%ADD16R,0.2795X0.0787*%
%ADD17R,0.0787X0.2795*%
%ADD18C,0.0591*%
%ADD19C,0.0356*%
%ADD20C,0.0945*%
%ADD21C,0.0500*%
%ADD22C,0.0472*%
%ADD23C,0.0160*%
%ADD24C,0.0240*%
%ADD25C,0.0120*%
%ADD26C,0.0768*%
%ADD27C,0.0709*%
%ADD28C,0.0400*%
%ADD29C,0.0660*%
%ADD30C,0.0827*%
%ADD31C,0.0760*%
%ADD32C,0.0320*%
D10*
X001464Y000942D02*
X003925Y005873D01*
X004132Y005942D01*
X005549Y008777D01*
X004663Y009219D01*
X008019Y015942D01*
X009141Y016296D01*
X012065Y022152D01*
X018610Y022152D01*
X019417Y022950D01*
X026966Y022950D01*
X026966Y022074D01*
X029978Y022074D01*
X030145Y022152D01*
X035785Y022152D01*
X033315Y017212D01*
X033147Y017133D01*
X031730Y014308D01*
X032586Y013885D01*
X029230Y007172D01*
X028236Y007064D01*
X025175Y000942D01*
X001464Y000942D01*
X003043Y002228D02*
X003045Y002272D01*
X003051Y002316D01*
X003061Y002359D01*
X003074Y002401D01*
X003092Y002441D01*
X003113Y002480D01*
X003137Y002517D01*
X003164Y002552D01*
X003195Y002584D01*
X003228Y002613D01*
X003264Y002639D01*
X003302Y002661D01*
X003342Y002680D01*
X003383Y002696D01*
X003426Y002708D01*
X003469Y002716D01*
X003513Y002720D01*
X003557Y002720D01*
X003601Y002716D01*
X003644Y002708D01*
X003687Y002696D01*
X003728Y002680D01*
X003768Y002661D01*
X003806Y002639D01*
X003842Y002613D01*
X003875Y002584D01*
X003906Y002552D01*
X003933Y002517D01*
X003957Y002480D01*
X003978Y002441D01*
X003996Y002401D01*
X004009Y002359D01*
X004019Y002316D01*
X004025Y002272D01*
X004027Y002228D01*
X004025Y002184D01*
X004019Y002140D01*
X004009Y002097D01*
X003996Y002055D01*
X003978Y002015D01*
X003957Y001976D01*
X003933Y001939D01*
X003906Y001904D01*
X003875Y001872D01*
X003842Y001843D01*
X003806Y001817D01*
X003768Y001795D01*
X003728Y001776D01*
X003687Y001760D01*
X003644Y001748D01*
X003601Y001740D01*
X003557Y001736D01*
X003513Y001736D01*
X003469Y001740D01*
X003426Y001748D01*
X003383Y001760D01*
X003342Y001776D01*
X003302Y001795D01*
X003264Y001817D01*
X003228Y001843D01*
X003195Y001872D01*
X003164Y001904D01*
X003137Y001939D01*
X003113Y001976D01*
X003092Y002015D01*
X003074Y002055D01*
X003061Y002097D01*
X003051Y002140D01*
X003045Y002184D01*
X003043Y002228D01*
X023864Y002345D02*
X023866Y002389D01*
X023872Y002433D01*
X023882Y002476D01*
X023895Y002518D01*
X023913Y002558D01*
X023934Y002597D01*
X023958Y002634D01*
X023985Y002669D01*
X024016Y002701D01*
X024049Y002730D01*
X024085Y002756D01*
X024123Y002778D01*
X024163Y002797D01*
X024204Y002813D01*
X024247Y002825D01*
X024290Y002833D01*
X024334Y002837D01*
X024378Y002837D01*
X024422Y002833D01*
X024465Y002825D01*
X024508Y002813D01*
X024549Y002797D01*
X024589Y002778D01*
X024627Y002756D01*
X024663Y002730D01*
X024696Y002701D01*
X024727Y002669D01*
X024754Y002634D01*
X024778Y002597D01*
X024799Y002558D01*
X024817Y002518D01*
X024830Y002476D01*
X024840Y002433D01*
X024846Y002389D01*
X024848Y002345D01*
X024846Y002301D01*
X024840Y002257D01*
X024830Y002214D01*
X024817Y002172D01*
X024799Y002132D01*
X024778Y002093D01*
X024754Y002056D01*
X024727Y002021D01*
X024696Y001989D01*
X024663Y001960D01*
X024627Y001934D01*
X024589Y001912D01*
X024549Y001893D01*
X024508Y001877D01*
X024465Y001865D01*
X024422Y001857D01*
X024378Y001853D01*
X024334Y001853D01*
X024290Y001857D01*
X024247Y001865D01*
X024204Y001877D01*
X024163Y001893D01*
X024123Y001912D01*
X024085Y001934D01*
X024049Y001960D01*
X024016Y001989D01*
X023985Y002021D01*
X023958Y002056D01*
X023934Y002093D01*
X023913Y002132D01*
X023895Y002172D01*
X023882Y002214D01*
X023872Y002257D01*
X023866Y002301D01*
X023864Y002345D01*
X012412Y020766D02*
X012414Y020810D01*
X012420Y020854D01*
X012430Y020897D01*
X012443Y020939D01*
X012461Y020979D01*
X012482Y021018D01*
X012506Y021055D01*
X012533Y021090D01*
X012564Y021122D01*
X012597Y021151D01*
X012633Y021177D01*
X012671Y021199D01*
X012711Y021218D01*
X012752Y021234D01*
X012795Y021246D01*
X012838Y021254D01*
X012882Y021258D01*
X012926Y021258D01*
X012970Y021254D01*
X013013Y021246D01*
X013056Y021234D01*
X013097Y021218D01*
X013137Y021199D01*
X013175Y021177D01*
X013211Y021151D01*
X013244Y021122D01*
X013275Y021090D01*
X013302Y021055D01*
X013326Y021018D01*
X013347Y020979D01*
X013365Y020939D01*
X013378Y020897D01*
X013388Y020854D01*
X013394Y020810D01*
X013396Y020766D01*
X013394Y020722D01*
X013388Y020678D01*
X013378Y020635D01*
X013365Y020593D01*
X013347Y020553D01*
X013326Y020514D01*
X013302Y020477D01*
X013275Y020442D01*
X013244Y020410D01*
X013211Y020381D01*
X013175Y020355D01*
X013137Y020333D01*
X013097Y020314D01*
X013056Y020298D01*
X013013Y020286D01*
X012970Y020278D01*
X012926Y020274D01*
X012882Y020274D01*
X012838Y020278D01*
X012795Y020286D01*
X012752Y020298D01*
X012711Y020314D01*
X012671Y020333D01*
X012633Y020355D01*
X012597Y020381D01*
X012564Y020410D01*
X012533Y020442D01*
X012506Y020477D01*
X012482Y020514D01*
X012461Y020553D01*
X012443Y020593D01*
X012430Y020635D01*
X012420Y020678D01*
X012414Y020722D01*
X012412Y020766D01*
X033282Y020898D02*
X033284Y020942D01*
X033290Y020986D01*
X033300Y021029D01*
X033313Y021071D01*
X033331Y021111D01*
X033352Y021150D01*
X033376Y021187D01*
X033403Y021222D01*
X033434Y021254D01*
X033467Y021283D01*
X033503Y021309D01*
X033541Y021331D01*
X033581Y021350D01*
X033622Y021366D01*
X033665Y021378D01*
X033708Y021386D01*
X033752Y021390D01*
X033796Y021390D01*
X033840Y021386D01*
X033883Y021378D01*
X033926Y021366D01*
X033967Y021350D01*
X034007Y021331D01*
X034045Y021309D01*
X034081Y021283D01*
X034114Y021254D01*
X034145Y021222D01*
X034172Y021187D01*
X034196Y021150D01*
X034217Y021111D01*
X034235Y021071D01*
X034248Y021029D01*
X034258Y020986D01*
X034264Y020942D01*
X034266Y020898D01*
X034264Y020854D01*
X034258Y020810D01*
X034248Y020767D01*
X034235Y020725D01*
X034217Y020685D01*
X034196Y020646D01*
X034172Y020609D01*
X034145Y020574D01*
X034114Y020542D01*
X034081Y020513D01*
X034045Y020487D01*
X034007Y020465D01*
X033967Y020446D01*
X033926Y020430D01*
X033883Y020418D01*
X033840Y020410D01*
X033796Y020406D01*
X033752Y020406D01*
X033708Y020410D01*
X033665Y020418D01*
X033622Y020430D01*
X033581Y020446D01*
X033541Y020465D01*
X033503Y020487D01*
X033467Y020513D01*
X033434Y020542D01*
X033403Y020574D01*
X033376Y020609D01*
X033352Y020646D01*
X033331Y020685D01*
X033313Y020725D01*
X033300Y020767D01*
X033290Y020810D01*
X033284Y020854D01*
X033282Y020898D01*
D11*
X022361Y019596D03*
X021771Y019596D03*
X021180Y019596D03*
X020590Y019596D03*
X020019Y019596D03*
X019428Y019596D03*
X018838Y019596D03*
X018247Y019596D03*
D12*
X017033Y004058D03*
X020950Y004058D03*
D13*
X027557Y011158D03*
X026855Y011515D03*
X027212Y012217D03*
X027570Y012918D03*
X028272Y012561D03*
X028629Y013262D03*
X027927Y013620D03*
X028285Y014322D03*
X028986Y013964D03*
X029344Y014666D03*
X028642Y015023D03*
X027914Y011859D03*
X011161Y013141D03*
X010459Y013499D03*
X010102Y012797D03*
X010803Y012439D03*
X010446Y011738D03*
X009744Y012095D03*
X009387Y011394D03*
X010088Y011036D03*
X009731Y010335D03*
X009029Y010692D03*
X008672Y009991D03*
X009373Y009633D03*
D14*
X024703Y004476D03*
X025157Y005367D03*
X025611Y006258D03*
X026065Y007149D03*
X026519Y008040D03*
D15*
G36*
X029143Y008446D02*
X028879Y007919D01*
X027543Y008588D01*
X027807Y009115D01*
X029143Y008446D01*
G37*
G36*
X029672Y009503D02*
X029408Y008976D01*
X028072Y009645D01*
X028336Y010172D01*
X029672Y009503D01*
G37*
G36*
X030200Y010559D02*
X029936Y010032D01*
X028600Y010701D01*
X028864Y011228D01*
X030200Y010559D01*
G37*
G36*
X030729Y011615D02*
X030465Y011088D01*
X029129Y011757D01*
X029393Y012284D01*
X030729Y011615D01*
G37*
G36*
X031258Y012671D02*
X030994Y012144D01*
X029658Y012813D01*
X029922Y013340D01*
X031258Y012671D01*
G37*
G36*
X031787Y013727D02*
X031523Y013200D01*
X030187Y013869D01*
X030451Y014396D01*
X031787Y013727D01*
G37*
X026166Y021601D03*
X024984Y021601D03*
X023803Y021601D03*
X022622Y021601D03*
X021441Y021601D03*
X020260Y021601D03*
G36*
X008106Y014648D02*
X008370Y015175D01*
X009706Y014506D01*
X009442Y013979D01*
X008106Y014648D01*
G37*
G36*
X007577Y013592D02*
X007841Y014119D01*
X009177Y013450D01*
X008913Y012923D01*
X007577Y013592D01*
G37*
G36*
X007048Y012536D02*
X007312Y013063D01*
X008648Y012394D01*
X008384Y011867D01*
X007048Y012536D01*
G37*
G36*
X006519Y011480D02*
X006783Y012007D01*
X008119Y011338D01*
X007855Y010811D01*
X006519Y011480D01*
G37*
G36*
X005990Y010424D02*
X006254Y010951D01*
X007590Y010282D01*
X007326Y009755D01*
X005990Y010424D01*
G37*
G36*
X005462Y009367D02*
X005726Y009894D01*
X007062Y009225D01*
X006798Y008698D01*
X005462Y009367D01*
G37*
D16*
G36*
X005742Y008232D02*
X008240Y006982D01*
X007888Y006280D01*
X005390Y007530D01*
X005742Y008232D01*
G37*
G36*
X005037Y006824D02*
X007535Y005574D01*
X007183Y004872D01*
X004685Y006122D01*
X005037Y006824D01*
G37*
G36*
X031539Y014843D02*
X029041Y016093D01*
X029393Y016795D01*
X031891Y015545D01*
X031539Y014843D01*
G37*
G36*
X032244Y016251D02*
X029746Y017501D01*
X030098Y018203D01*
X032596Y016953D01*
X032244Y016251D01*
G37*
D17*
X029345Y020296D03*
X027770Y020296D03*
D18*
X026966Y021306D03*
X033069Y019574D03*
X028220Y016469D03*
X007513Y007826D03*
D19*
X010913Y010922D03*
X014958Y010893D03*
X015077Y009928D03*
X016578Y010648D03*
X017011Y010234D03*
X017017Y009111D03*
X017621Y009282D03*
X018444Y009957D03*
X020746Y009672D03*
X022006Y010814D03*
X021394Y011233D03*
X020923Y011916D03*
X020431Y011641D03*
X020844Y012841D03*
X020943Y013353D03*
X020057Y012979D03*
X019712Y014044D03*
X019770Y014979D03*
X018817Y015046D03*
X018206Y015066D03*
X017616Y013156D03*
X015556Y012354D03*
X016238Y007979D03*
X013580Y006601D03*
X012190Y004871D03*
X020077Y007113D03*
X023108Y006483D03*
X025903Y008491D03*
X023423Y010971D03*
X022754Y010971D03*
X021947Y012064D03*
X021782Y012588D03*
X023344Y012822D03*
X023256Y013422D03*
X023019Y014269D03*
X022760Y014730D03*
X022360Y015184D03*
X022084Y015696D03*
X021612Y016404D03*
X022285Y017293D03*
X024053Y016070D03*
X025305Y017200D03*
X026179Y019613D03*
X022596Y020578D03*
X021356Y020538D03*
X025293Y014495D03*
X025817Y013711D03*
X024801Y013096D03*
X025431Y012034D03*
X024407Y011523D03*
D20*
X018604Y011556D03*
X015048Y003791D03*
X010549Y001916D03*
X032045Y021168D03*
D21*
X030779Y020296D01*
X029345Y020296D01*
X026999Y017464D02*
X028220Y016469D01*
X028285Y016178D02*
X026999Y017464D01*
X028285Y016178D02*
X030107Y016178D01*
X030466Y015819D01*
X016674Y004058D02*
X015588Y005145D01*
X012935Y005184D01*
X012190Y004871D01*
X015048Y003791D02*
X015009Y002417D01*
X015431Y001995D01*
X018462Y001995D01*
X020526Y004058D01*
X020950Y004058D01*
X017033Y004058D02*
X016674Y004058D01*
X007513Y007826D02*
X006815Y007256D01*
D22*
X017478Y016877D03*
X017084Y017940D03*
X020195Y015558D03*
X022714Y018334D03*
D23*
X022285Y017293D02*
X022282Y017290D01*
X022468Y016424D02*
X022449Y016404D01*
X021612Y016404D01*
X021651Y016365D01*
X021651Y015184D01*
X020431Y013964D01*
X020431Y011641D01*
X020844Y011995D02*
X020923Y011916D01*
X020844Y011995D02*
X020844Y012841D01*
X021782Y012588D02*
X021848Y012600D01*
X021848Y014278D01*
X022281Y014712D01*
X022742Y014712D01*
X022760Y014730D01*
X022360Y015184D02*
X022163Y015184D01*
X021376Y014397D01*
X021376Y011956D01*
X022006Y011326D01*
X022006Y010814D01*
X022636Y011089D02*
X022636Y013649D01*
X022832Y013845D01*
X023580Y013845D01*
X023856Y014121D01*
X023856Y014318D01*
X022478Y015696D01*
X022084Y015696D01*
X022468Y016424D02*
X024890Y013964D01*
X024890Y013342D01*
X024801Y013096D01*
X024988Y012654D02*
X025313Y012979D01*
X025313Y014475D01*
X025293Y014495D01*
X025815Y014190D02*
X025815Y013713D01*
X025817Y013711D01*
X025736Y013630D01*
X025736Y012930D01*
X024880Y012074D01*
X024226Y012074D01*
X023478Y012822D01*
X023344Y012822D01*
X023344Y011050D01*
X023423Y010971D01*
X022754Y010971D02*
X022636Y011089D01*
X021947Y012064D02*
X022242Y012359D01*
X022242Y013924D01*
X022557Y014239D01*
X022990Y014239D01*
X023019Y014269D01*
X023256Y013422D02*
X023462Y013471D01*
X023689Y013471D01*
X024525Y012635D01*
X024988Y012635D01*
X024988Y012654D01*
X025431Y012034D02*
X027281Y014322D01*
X028285Y014322D01*
X027927Y013620D02*
X027233Y013620D01*
X027163Y013629D02*
X023108Y008412D01*
X016651Y008412D01*
X015136Y009928D01*
X015077Y009928D01*
X016238Y007979D02*
X016258Y007960D01*
X023246Y007960D01*
X027124Y012979D01*
X027509Y012979D01*
X027570Y012918D01*
X025817Y013711D02*
X025736Y013590D01*
X025815Y014190D02*
X026617Y014992D01*
X028611Y014992D01*
X028642Y015023D01*
X026648Y015023D02*
X026617Y014992D01*
X025305Y017200D02*
X025212Y017293D01*
X026179Y019613D02*
X026166Y019626D01*
X022596Y020578D02*
X022622Y021601D01*
X010459Y013499D02*
X010470Y013470D01*
X009148Y014577D02*
X008906Y014577D01*
X008551Y013521D02*
X008377Y013521D01*
X005226Y006638D02*
X004996Y006638D01*
X005037Y006719D02*
X007596Y005617D01*
X009762Y002428D01*
X010982Y002428D01*
X010982Y001365D01*
X005982Y001404D01*
X003384Y003452D01*
X005037Y006719D01*
X004916Y006480D02*
X005594Y006480D01*
X005962Y006321D02*
X004836Y006321D01*
X004755Y006163D02*
X006330Y006163D01*
X006698Y006004D02*
X004675Y006004D01*
X004595Y005846D02*
X007066Y005846D01*
X007434Y005687D02*
X004515Y005687D01*
X004435Y005529D02*
X007656Y005529D01*
X007764Y005370D02*
X004354Y005370D01*
X004274Y005212D02*
X007872Y005212D01*
X007979Y005053D02*
X004194Y005053D01*
X004114Y004895D02*
X008087Y004895D01*
X008194Y004736D02*
X004034Y004736D01*
X003953Y004578D02*
X008302Y004578D01*
X008410Y004419D02*
X003873Y004419D01*
X003793Y004261D02*
X008517Y004261D01*
X008625Y004102D02*
X003713Y004102D01*
X003632Y003944D02*
X008733Y003944D01*
X008840Y003785D02*
X003552Y003785D01*
X003472Y003627D02*
X008948Y003627D01*
X009055Y003468D02*
X003392Y003468D01*
X003564Y003310D02*
X009163Y003310D01*
X009271Y003151D02*
X003765Y003151D01*
X003966Y002993D02*
X009378Y002993D01*
X009486Y002834D02*
X004168Y002834D01*
X004369Y002676D02*
X009594Y002676D01*
X009701Y002517D02*
X004570Y002517D01*
X004771Y002359D02*
X010982Y002359D01*
X010982Y002200D02*
X004972Y002200D01*
X005173Y002042D02*
X010982Y002042D01*
X010982Y001883D02*
X005375Y001883D01*
X005576Y001725D02*
X010982Y001725D01*
X010982Y001566D02*
X005777Y001566D01*
X005978Y001408D02*
X010982Y001408D01*
X020903Y009475D02*
X020746Y009672D01*
X020903Y009475D02*
X023502Y009475D01*
X024604Y010893D01*
X024407Y011523D01*
X023847Y012447D02*
X023847Y012452D01*
X027734Y008812D02*
X027951Y008688D01*
X030209Y012742D02*
X030458Y012742D01*
D24*
X030987Y013798D02*
X030251Y014152D01*
X028541Y012291D02*
X028541Y012152D01*
X024073Y016089D02*
X024073Y018432D01*
X024978Y019338D01*
X024984Y021601D01*
X023803Y021601D02*
X023803Y019902D01*
X023856Y019495D01*
X023856Y019003D01*
X023462Y018609D01*
X023462Y017418D01*
X022468Y016424D01*
X022360Y016838D02*
X022754Y017231D01*
X022754Y018058D01*
X022714Y018334D01*
X022282Y017290D02*
X020962Y017290D01*
X020234Y016562D01*
X020195Y015558D01*
X019732Y015020D02*
X019770Y014979D01*
X019732Y015020D02*
X019732Y017546D01*
X020590Y018443D01*
X020590Y019596D01*
X019880Y020341D02*
X017714Y020341D01*
X017517Y020145D01*
X017517Y018964D01*
X018817Y017664D01*
X018817Y015046D01*
X017882Y014111D01*
X014102Y014111D01*
X010913Y010922D01*
X010088Y011036D02*
X011078Y009928D01*
X015077Y009928D01*
X015203Y010648D02*
X014958Y010893D01*
X015203Y010648D02*
X016578Y010648D01*
X017762Y010648D01*
X017872Y010538D01*
X017872Y009936D01*
X017621Y009282D01*
X017017Y009111D02*
X017011Y009117D01*
X017011Y010234D01*
X018444Y009957D02*
X018690Y009948D01*
X020109Y009948D01*
X021394Y011233D01*
X020057Y012979D02*
X019880Y013156D01*
X019880Y013255D01*
X020116Y013491D01*
X020116Y014554D01*
X020903Y015341D01*
X020903Y016365D01*
X021376Y016838D01*
X022360Y016838D01*
X019428Y017843D02*
X019289Y017704D01*
X019289Y014467D01*
X019712Y014044D01*
X018206Y015066D02*
X017665Y014525D01*
X013827Y014525D01*
X011584Y012400D01*
X010803Y012439D01*
X010102Y012797D02*
X008551Y013521D01*
X009148Y014577D02*
X009919Y014160D01*
X010470Y013470D01*
X009744Y012095D02*
X008795Y011977D01*
X008305Y012231D01*
X008278Y012034D01*
X007848Y012465D01*
X007319Y011409D02*
X008029Y011050D01*
X009387Y011394D01*
X009029Y010692D02*
X008521Y010676D01*
X008403Y010676D01*
X007636Y009948D01*
X007195Y009948D01*
X006790Y010353D01*
X006262Y009296D02*
X007419Y008747D01*
X008672Y009991D01*
X013580Y006601D02*
X019565Y006601D01*
X020077Y007113D01*
X023108Y006483D02*
X023108Y006291D01*
X023289Y006109D01*
X023289Y004850D01*
X023663Y004476D01*
X024703Y004476D01*
X017478Y016877D02*
X017084Y017271D01*
X017084Y017940D01*
X017478Y016887D02*
X017478Y016877D01*
X019428Y017843D02*
X019428Y019596D01*
X019880Y020341D02*
X020260Y020722D01*
X020260Y021601D01*
X021441Y021601D02*
X021356Y020538D01*
X026166Y019626D02*
X026166Y021601D01*
D25*
X026681Y021746D02*
X026681Y022440D01*
X026552Y022569D01*
X025779Y022569D01*
X025651Y022440D01*
X025651Y020762D01*
X025779Y020633D01*
X025826Y020633D01*
X025826Y019801D01*
X025781Y019692D01*
X025781Y019534D01*
X025841Y019388D01*
X025953Y019276D01*
X026100Y019215D01*
X026258Y019215D01*
X026404Y019276D01*
X026516Y019388D01*
X026577Y019534D01*
X026577Y019692D01*
X026516Y019839D01*
X026506Y019849D01*
X026506Y020633D01*
X026552Y020633D01*
X026681Y020762D01*
X026681Y020866D01*
X026864Y020791D01*
X027069Y020791D01*
X027157Y020827D01*
X027157Y018807D01*
X027159Y018805D01*
X027159Y018262D01*
X027156Y018214D01*
X027159Y018207D01*
X027159Y018199D01*
X027177Y018155D01*
X027193Y018109D01*
X027198Y018103D01*
X027201Y018096D01*
X027236Y018062D01*
X027912Y017311D01*
X027918Y017298D01*
X027949Y017270D01*
X027977Y017239D01*
X027990Y017233D01*
X028000Y017223D01*
X028039Y017209D01*
X028077Y017191D01*
X028091Y017190D01*
X028105Y017185D01*
X028147Y017187D01*
X028188Y017185D01*
X028202Y017190D01*
X029730Y017262D01*
X032228Y016011D01*
X032361Y016056D01*
X031574Y014487D01*
X031573Y014487D01*
X031533Y014406D01*
X031493Y014325D01*
X031493Y014324D01*
X031492Y014324D01*
X031521Y014238D01*
X031550Y014152D01*
X031551Y014152D01*
X031551Y014151D01*
X031632Y014111D01*
X031713Y014070D01*
X031714Y014071D01*
X032291Y013785D01*
X029087Y007378D01*
X028276Y007290D01*
X028253Y007301D01*
X028189Y007280D01*
X028122Y007273D01*
X028105Y007252D01*
X028080Y007244D01*
X028050Y007183D01*
X028007Y007131D01*
X028010Y007104D01*
X025039Y001162D01*
X011203Y001162D01*
X011235Y001193D01*
X011235Y001194D01*
X011236Y001195D01*
X011259Y001249D01*
X011282Y001303D01*
X011282Y001304D01*
X011282Y001305D01*
X011282Y001364D01*
X011282Y001422D01*
X011282Y001424D01*
X011282Y002488D01*
X011236Y002598D01*
X011152Y002682D01*
X011042Y002728D01*
X009920Y002728D01*
X007863Y005758D01*
X007853Y005783D01*
X007830Y005807D01*
X007811Y005835D01*
X007788Y005850D01*
X007770Y005869D01*
X007739Y005882D01*
X007711Y005901D01*
X007685Y005906D01*
X005402Y006889D01*
X005053Y007064D01*
X004916Y007018D01*
X005705Y008597D01*
X005771Y008728D01*
X005786Y008760D01*
X005729Y008933D01*
X005693Y008950D01*
X004958Y009318D01*
X008175Y015760D01*
X009123Y016060D01*
X009125Y016059D01*
X009209Y016087D01*
X009295Y016114D01*
X009296Y016116D01*
X009298Y016116D01*
X009337Y016196D01*
X009379Y016276D01*
X009378Y016278D01*
X012201Y021932D01*
X018609Y021932D01*
X018700Y021932D01*
X018700Y021932D01*
X018701Y021932D01*
X018765Y021997D01*
X019507Y022730D01*
X026746Y022730D01*
X026746Y021983D01*
X026875Y021854D01*
X027226Y021854D01*
X027157Y021785D01*
X027069Y021821D01*
X026864Y021821D01*
X026681Y021746D01*
X026681Y021788D02*
X026784Y021788D01*
X026822Y021907D02*
X026681Y021907D01*
X026681Y022025D02*
X026746Y022025D01*
X026746Y022144D02*
X026681Y022144D01*
X026681Y022262D02*
X026746Y022262D01*
X026746Y022381D02*
X026681Y022381D01*
X026622Y022499D02*
X026746Y022499D01*
X026746Y022618D02*
X019394Y022618D01*
X019274Y022499D02*
X019804Y022499D01*
X019745Y022440D02*
X019874Y022569D01*
X020646Y022569D01*
X020775Y022440D01*
X020775Y020762D01*
X020646Y020633D01*
X020591Y020633D01*
X020548Y020529D01*
X020168Y020149D01*
X020072Y020053D01*
X020110Y020053D01*
X020278Y019984D01*
X020304Y019958D01*
X020330Y019984D01*
X020498Y020053D01*
X020681Y020053D01*
X020849Y019984D01*
X020885Y019948D01*
X020921Y019984D01*
X021089Y020053D01*
X021271Y020053D01*
X021439Y019984D01*
X021475Y019948D01*
X021511Y019984D01*
X021680Y020053D01*
X021862Y020053D01*
X022030Y019984D01*
X022066Y019948D01*
X022102Y019984D01*
X022270Y020053D01*
X022452Y020053D01*
X022620Y019984D01*
X022749Y019855D01*
X022819Y019687D01*
X022819Y019505D01*
X022749Y019336D01*
X022620Y019208D01*
X022452Y019138D01*
X022270Y019138D01*
X022102Y019208D01*
X022066Y019244D01*
X022030Y019208D01*
X021862Y019138D01*
X021680Y019138D01*
X021511Y019208D01*
X021475Y019244D01*
X021439Y019208D01*
X021271Y019138D01*
X021089Y019138D01*
X020930Y019204D01*
X020930Y018447D01*
X020931Y018383D01*
X020930Y018379D01*
X020930Y018375D01*
X020905Y018316D01*
X020882Y018257D01*
X020879Y018254D01*
X020878Y018250D01*
X020833Y018205D01*
X020072Y017410D01*
X020072Y015240D01*
X020107Y015204D01*
X020159Y015078D01*
X020563Y015482D01*
X020563Y016433D01*
X020615Y016558D01*
X021087Y017030D01*
X021183Y017126D01*
X021308Y017178D01*
X022219Y017178D01*
X022414Y017372D01*
X022414Y017989D01*
X022328Y018075D01*
X022258Y018243D01*
X022258Y018424D01*
X022328Y018592D01*
X022456Y018720D01*
X022624Y018790D01*
X022805Y018790D01*
X022973Y018720D01*
X023101Y018592D01*
X023122Y018541D01*
X023122Y018677D01*
X023174Y018802D01*
X023270Y018897D01*
X023270Y018897D01*
X023516Y019144D01*
X023516Y019473D01*
X023472Y019814D01*
X023463Y019834D01*
X023463Y019880D01*
X023458Y019925D01*
X023463Y019947D01*
X023463Y020633D01*
X023417Y020633D01*
X023288Y020762D01*
X023288Y022440D01*
X023417Y022569D01*
X024190Y022569D01*
X024319Y022440D01*
X024319Y020762D01*
X024190Y020633D01*
X024143Y020633D01*
X024143Y019924D01*
X024187Y019583D01*
X024196Y019563D01*
X024196Y019517D01*
X024202Y019472D01*
X024196Y019450D01*
X024196Y019036D01*
X024638Y019479D01*
X024642Y020633D01*
X024598Y020633D01*
X024469Y020762D01*
X024469Y022440D01*
X024598Y022569D01*
X025371Y022569D01*
X025500Y022440D01*
X025500Y020762D01*
X025371Y020633D01*
X025322Y020633D01*
X025318Y019337D01*
X025318Y019270D01*
X025318Y019269D01*
X025318Y019269D01*
X025292Y019207D01*
X025266Y019145D01*
X025266Y019145D01*
X025266Y019144D01*
X025218Y019097D01*
X024413Y018291D01*
X024413Y016242D01*
X024451Y016149D01*
X024451Y015991D01*
X024390Y015844D01*
X024278Y015732D01*
X024132Y015672D01*
X023974Y015672D01*
X023827Y015732D01*
X023715Y015844D01*
X023655Y015991D01*
X023655Y016149D01*
X023715Y016295D01*
X023733Y016313D01*
X023733Y017208D01*
X022919Y016394D01*
X024916Y014364D01*
X024895Y014416D01*
X024895Y014574D01*
X024956Y014721D01*
X025068Y014833D01*
X025214Y014893D01*
X025372Y014893D01*
X025519Y014833D01*
X025631Y014721D01*
X025691Y014574D01*
X025691Y014491D01*
X026447Y015246D01*
X026478Y015277D01*
X026588Y015323D01*
X026708Y015323D01*
X026783Y015292D01*
X028216Y015292D01*
X028221Y015305D01*
X028361Y015445D01*
X028543Y015520D01*
X028741Y015520D01*
X028924Y015445D01*
X029064Y015305D01*
X029140Y015122D01*
X029140Y015119D01*
X029245Y015163D01*
X029443Y015163D01*
X029626Y015087D01*
X029765Y014947D01*
X029811Y014838D01*
X030290Y014567D01*
X030294Y014577D01*
X030467Y014635D01*
X031968Y013883D01*
X032026Y013710D01*
X031680Y013019D01*
X031507Y012962D01*
X030006Y013713D01*
X029948Y013886D01*
X029949Y013887D01*
X029447Y014170D01*
X029443Y014168D01*
X029440Y014168D01*
X029484Y014063D01*
X029484Y014004D01*
X029917Y013571D01*
X029939Y013578D01*
X031439Y012827D01*
X031497Y012654D01*
X031151Y011963D01*
X030978Y011905D01*
X029522Y012635D01*
X029691Y012381D01*
X030910Y011771D01*
X030968Y011598D01*
X030622Y010907D01*
X030449Y010849D01*
X029107Y011521D01*
X029108Y011519D01*
X029113Y011473D01*
X029125Y011428D01*
X029121Y011399D01*
X029126Y011343D01*
X030381Y010715D01*
X030439Y010542D01*
X030093Y009851D01*
X029920Y009793D01*
X028655Y010427D01*
X028679Y010247D01*
X029853Y009659D01*
X029910Y009486D01*
X029564Y008795D01*
X029391Y008737D01*
X028011Y009428D01*
X028044Y009243D01*
X029324Y008602D01*
X029381Y008429D01*
X029035Y007738D01*
X028862Y007681D01*
X027362Y008432D01*
X027304Y008605D01*
X027364Y008724D01*
X027010Y010734D01*
X026994Y010783D01*
X026997Y010807D01*
X026992Y010831D01*
X027004Y010882D01*
X027008Y010934D01*
X027020Y010955D01*
X027025Y010979D01*
X027055Y011021D01*
X027066Y011043D01*
X027059Y011059D01*
X027059Y011062D01*
X026954Y011018D01*
X026756Y011018D01*
X026573Y011094D01*
X026434Y011234D01*
X026358Y011416D01*
X026358Y011497D01*
X023508Y007808D01*
X023500Y007790D01*
X023471Y007761D01*
X023447Y007729D01*
X023430Y007719D01*
X023416Y007705D01*
X023378Y007690D01*
X023343Y007670D01*
X023324Y007667D01*
X023305Y007660D01*
X023265Y007660D01*
X023225Y007654D01*
X023206Y007660D01*
X016481Y007660D01*
X016463Y007642D01*
X016317Y007581D01*
X016159Y007581D01*
X016012Y007642D01*
X015900Y007754D01*
X015840Y007900D01*
X015840Y008058D01*
X015900Y008205D01*
X016012Y008317D01*
X016159Y008377D01*
X016262Y008377D01*
X015109Y009530D01*
X014997Y009530D01*
X014857Y009588D01*
X011136Y009588D01*
X011127Y009585D01*
X011069Y009588D01*
X011011Y009588D01*
X011002Y009592D01*
X010992Y009592D01*
X010939Y009618D01*
X010886Y009640D01*
X010879Y009647D01*
X010870Y009651D01*
X010831Y009694D01*
X010790Y009735D01*
X010786Y009745D01*
X010228Y010370D01*
X010228Y010236D01*
X010152Y010053D01*
X010012Y009913D01*
X009830Y009838D01*
X009827Y009838D01*
X009870Y009732D01*
X009870Y009534D01*
X009795Y009352D01*
X009655Y009212D01*
X009472Y009136D01*
X009274Y009136D01*
X009092Y009212D01*
X008952Y009352D01*
X008876Y009534D01*
X008876Y009537D01*
X008771Y009493D01*
X008654Y009493D01*
X007701Y008548D01*
X007697Y008540D01*
X007653Y008500D01*
X007611Y008458D01*
X007603Y008455D01*
X007597Y008449D01*
X007541Y008429D01*
X007485Y008407D01*
X007477Y008407D01*
X007469Y008404D01*
X007410Y008407D01*
X007350Y008407D01*
X007343Y008410D01*
X007334Y008411D01*
X007280Y008436D01*
X007225Y008459D01*
X007220Y008465D01*
X006984Y008577D01*
X006954Y008518D01*
X006781Y008460D01*
X005281Y009211D01*
X005223Y009384D01*
X005569Y010075D01*
X005742Y010133D01*
X007243Y009381D01*
X007300Y009209D01*
X007289Y009185D01*
X007349Y009157D01*
X008175Y009976D01*
X008175Y009990D01*
X007873Y009704D01*
X007828Y009660D01*
X007824Y009658D01*
X007821Y009655D01*
X007762Y009632D01*
X007703Y009608D01*
X007699Y009608D01*
X007694Y009606D01*
X007631Y009608D01*
X007500Y009608D01*
X007483Y009574D01*
X007310Y009516D01*
X007124Y009609D01*
X007003Y009660D01*
X006982Y009681D01*
X005809Y010268D01*
X005752Y010440D01*
X006098Y011131D01*
X006271Y011189D01*
X007697Y010475D01*
X007813Y010585D01*
X006338Y011324D01*
X006281Y011497D01*
X006627Y012188D01*
X006800Y012245D01*
X008300Y011494D01*
X008308Y011471D01*
X008948Y011633D01*
X008957Y011655D01*
X008868Y011644D01*
X008833Y011633D01*
X008802Y011635D01*
X008770Y011632D01*
X008735Y011641D01*
X008699Y011644D01*
X008670Y011659D01*
X008640Y011667D01*
X008611Y011690D01*
X008557Y011718D01*
X008541Y011686D01*
X008368Y011628D01*
X008236Y011694D01*
X008211Y011694D01*
X008189Y011703D01*
X008166Y011706D01*
X008127Y011729D01*
X008086Y011746D01*
X008069Y011763D01*
X008049Y011774D01*
X008033Y011796D01*
X006867Y012380D01*
X006810Y012553D01*
X007156Y013244D01*
X007329Y013301D01*
X008829Y012550D01*
X008887Y012377D01*
X008862Y012328D01*
X009332Y012387D01*
X009463Y012517D01*
X009645Y012593D01*
X009648Y012593D01*
X009627Y012643D01*
X009135Y012873D01*
X009070Y012742D01*
X008897Y012684D01*
X007396Y013436D01*
X007338Y013609D01*
X007684Y014300D01*
X007857Y014357D01*
X009358Y013606D01*
X009392Y013503D01*
X009917Y013258D01*
X010003Y013294D01*
X010006Y013294D01*
X009962Y013400D01*
X009962Y013562D01*
X009697Y013894D01*
X009657Y013915D01*
X009599Y013798D01*
X009426Y013741D01*
X007925Y014492D01*
X007867Y014665D01*
X008213Y015356D01*
X008386Y015414D01*
X009887Y014662D01*
X009927Y014543D01*
X010023Y014491D01*
X010024Y014491D01*
X010082Y014459D01*
X010140Y014427D01*
X010141Y014426D01*
X010142Y014425D01*
X010184Y014374D01*
X010226Y014322D01*
X010226Y014321D01*
X010486Y013996D01*
X010558Y013996D01*
X010741Y013920D01*
X010881Y013780D01*
X010956Y013597D01*
X010956Y013595D01*
X011062Y013638D01*
X011260Y013638D01*
X011442Y013563D01*
X011582Y013423D01*
X011658Y013240D01*
X011658Y013042D01*
X011587Y012871D01*
X013589Y014768D01*
X013634Y014813D01*
X013638Y014815D01*
X013642Y014818D01*
X013701Y014840D01*
X013759Y014865D01*
X013764Y014865D01*
X013768Y014866D01*
X013831Y014865D01*
X017524Y014865D01*
X017811Y015151D01*
X017869Y015291D01*
X017981Y015403D01*
X018127Y015464D01*
X018286Y015464D01*
X018432Y015403D01*
X018477Y015359D01*
X018477Y017523D01*
X017229Y018771D01*
X017177Y018896D01*
X017177Y020212D01*
X017229Y020337D01*
X017325Y020433D01*
X017522Y020630D01*
X017647Y020681D01*
X019739Y020681D01*
X019782Y020724D01*
X019745Y020762D01*
X019745Y022440D01*
X019745Y022381D02*
X019154Y022381D01*
X019034Y022262D02*
X019745Y022262D01*
X019745Y022144D02*
X018914Y022144D01*
X018794Y022025D02*
X019745Y022025D01*
X019745Y021907D02*
X012188Y021907D01*
X012129Y021788D02*
X019745Y021788D01*
X019745Y021670D02*
X012070Y021670D01*
X012010Y021551D02*
X019745Y021551D01*
X019745Y021433D02*
X013156Y021433D01*
X013046Y021478D02*
X013308Y021370D01*
X013508Y021169D01*
X013616Y020908D01*
X013616Y020624D01*
X013508Y020363D01*
X013308Y020162D01*
X013046Y020054D01*
X012763Y020054D01*
X012501Y020162D01*
X012301Y020363D01*
X012192Y020624D01*
X012192Y020908D01*
X012301Y021169D01*
X012501Y021370D01*
X012763Y021478D01*
X013046Y021478D01*
X013363Y021314D02*
X019745Y021314D01*
X019745Y021196D02*
X013482Y021196D01*
X013546Y021077D02*
X019745Y021077D01*
X019745Y020959D02*
X013595Y020959D01*
X013616Y020840D02*
X019745Y020840D01*
X019779Y020722D02*
X013616Y020722D01*
X013608Y020603D02*
X017495Y020603D01*
X017377Y020485D02*
X013558Y020485D01*
X013509Y020366D02*
X017258Y020366D01*
X017192Y020248D02*
X013393Y020248D01*
X013228Y020129D02*
X017177Y020129D01*
X017177Y020011D02*
X011241Y020011D01*
X011301Y020129D02*
X012581Y020129D01*
X012415Y020248D02*
X011360Y020248D01*
X011419Y020366D02*
X012299Y020366D01*
X012250Y020485D02*
X011478Y020485D01*
X011537Y020603D02*
X012201Y020603D01*
X012192Y020722D02*
X011596Y020722D01*
X011655Y020840D02*
X012192Y020840D01*
X012213Y020959D02*
X011715Y020959D01*
X011774Y021077D02*
X012262Y021077D01*
X012327Y021196D02*
X011833Y021196D01*
X011892Y021314D02*
X012445Y021314D01*
X012653Y021433D02*
X011951Y021433D01*
X011182Y019892D02*
X017177Y019892D01*
X017177Y019774D02*
X011123Y019774D01*
X011064Y019655D02*
X017177Y019655D01*
X017177Y019537D02*
X011005Y019537D01*
X010946Y019418D02*
X017177Y019418D01*
X017177Y019300D02*
X010887Y019300D01*
X010827Y019181D02*
X017177Y019181D01*
X017177Y019063D02*
X010768Y019063D01*
X010709Y018944D02*
X017177Y018944D01*
X017207Y018826D02*
X010650Y018826D01*
X010591Y018707D02*
X017293Y018707D01*
X017412Y018589D02*
X010532Y018589D01*
X010472Y018470D02*
X017530Y018470D01*
X017649Y018352D02*
X017283Y018352D01*
X017343Y018327D02*
X017175Y018396D01*
X016994Y018396D01*
X016826Y018327D01*
X016698Y018198D01*
X016628Y018031D01*
X016628Y017849D01*
X016698Y017681D01*
X016744Y017635D01*
X016744Y017203D01*
X016796Y017078D01*
X017022Y016852D01*
X017022Y016786D01*
X017091Y016618D01*
X017220Y016490D01*
X017387Y016421D01*
X017569Y016421D01*
X017737Y016490D01*
X017865Y016618D01*
X017934Y016786D01*
X017934Y016968D01*
X017865Y017135D01*
X017737Y017264D01*
X017569Y017333D01*
X017503Y017333D01*
X017424Y017411D01*
X017424Y017635D01*
X017471Y017681D01*
X017541Y017849D01*
X017541Y018031D01*
X017471Y018198D01*
X017343Y018327D01*
X017436Y018233D02*
X017767Y018233D01*
X017886Y018115D02*
X017506Y018115D01*
X017541Y017996D02*
X018004Y017996D01*
X018123Y017878D02*
X017541Y017878D01*
X017503Y017759D02*
X018241Y017759D01*
X018360Y017641D02*
X017430Y017641D01*
X017424Y017522D02*
X018477Y017522D01*
X018477Y017404D02*
X017432Y017404D01*
X017685Y017285D02*
X018477Y017285D01*
X018477Y017167D02*
X017834Y017167D01*
X017901Y017048D02*
X018477Y017048D01*
X018477Y016930D02*
X017934Y016930D01*
X017934Y016811D02*
X018477Y016811D01*
X018477Y016693D02*
X017896Y016693D01*
X017820Y016574D02*
X018477Y016574D01*
X018477Y016456D02*
X017653Y016456D01*
X017303Y016456D02*
X009467Y016456D01*
X009526Y016574D02*
X017136Y016574D01*
X017061Y016693D02*
X009585Y016693D01*
X009644Y016811D02*
X017022Y016811D01*
X016945Y016930D02*
X009704Y016930D01*
X009763Y017048D02*
X016826Y017048D01*
X016759Y017167D02*
X009822Y017167D01*
X009881Y017285D02*
X016744Y017285D01*
X016744Y017404D02*
X009940Y017404D01*
X009999Y017522D02*
X016744Y017522D01*
X016739Y017641D02*
X010058Y017641D01*
X010118Y017759D02*
X016665Y017759D01*
X016628Y017878D02*
X010177Y017878D01*
X010236Y017996D02*
X016628Y017996D01*
X016663Y018115D02*
X010295Y018115D01*
X010354Y018233D02*
X016732Y018233D01*
X016886Y018352D02*
X010413Y018352D01*
X009408Y016337D02*
X018477Y016337D01*
X018477Y016219D02*
X009349Y016219D01*
X009251Y016100D02*
X018477Y016100D01*
X018477Y015982D02*
X008876Y015982D01*
X008500Y015863D02*
X018477Y015863D01*
X018477Y015745D02*
X008167Y015745D01*
X008108Y015626D02*
X018477Y015626D01*
X018477Y015508D02*
X008048Y015508D01*
X007989Y015389D02*
X008313Y015389D01*
X008435Y015389D02*
X017967Y015389D01*
X017860Y015271D02*
X008672Y015271D01*
X008909Y015152D02*
X017811Y015152D01*
X017693Y015034D02*
X009145Y015034D01*
X009382Y014915D02*
X017575Y014915D01*
X018446Y015389D02*
X018477Y015389D01*
X018902Y014651D02*
X018949Y014670D01*
X018949Y014399D01*
X019001Y014274D01*
X019097Y014179D01*
X019316Y013959D01*
X019374Y013819D01*
X019486Y013707D01*
X019633Y013646D01*
X019776Y013646D01*
X019776Y013632D01*
X019591Y013447D01*
X019540Y013322D01*
X019540Y013187D01*
X019540Y013089D01*
X019591Y012964D01*
X019661Y012894D01*
X019719Y012754D01*
X019831Y012642D01*
X019978Y012581D01*
X020131Y012581D01*
X020131Y011904D01*
X020093Y011866D01*
X020033Y011720D01*
X020033Y011561D01*
X020093Y011415D01*
X020205Y011303D01*
X020352Y011243D01*
X020510Y011243D01*
X020656Y011303D01*
X020768Y011415D01*
X020816Y011530D01*
X020844Y011518D01*
X021002Y011518D01*
X021148Y011579D01*
X021238Y011669D01*
X021288Y011619D01*
X021169Y011570D01*
X021057Y011458D01*
X020998Y011318D01*
X019968Y010288D01*
X018696Y010288D01*
X018676Y010288D01*
X018670Y010294D01*
X018524Y010355D01*
X018365Y010355D01*
X018219Y010294D01*
X018107Y010182D01*
X018046Y010036D01*
X018046Y009877D01*
X018107Y009731D01*
X018219Y009619D01*
X018365Y009558D01*
X018524Y009558D01*
X018643Y009608D01*
X018683Y009608D01*
X018745Y009606D01*
X018751Y009608D01*
X020177Y009608D01*
X020302Y009660D01*
X021479Y010837D01*
X021608Y010890D01*
X021608Y010735D01*
X021668Y010588D01*
X021780Y010476D01*
X021926Y010416D01*
X022085Y010416D01*
X022231Y010476D01*
X022343Y010588D01*
X022404Y010735D01*
X022404Y010776D01*
X022416Y010746D01*
X022528Y010634D01*
X022674Y010573D01*
X022833Y010573D01*
X022979Y010634D01*
X023088Y010743D01*
X023197Y010634D01*
X023344Y010573D01*
X023502Y010573D01*
X023648Y010634D01*
X023760Y010746D01*
X023821Y010892D01*
X023821Y011051D01*
X023760Y011197D01*
X023648Y011309D01*
X023644Y011311D01*
X023644Y012225D01*
X023677Y012192D01*
X023687Y012189D01*
X023971Y011904D01*
X023971Y011904D01*
X024056Y011819D01*
X024166Y011774D01*
X024939Y011774D01*
X025050Y011819D01*
X025077Y011847D01*
X025093Y011809D01*
X025205Y011697D01*
X025263Y011673D01*
X022961Y008712D01*
X016776Y008712D01*
X015470Y010018D01*
X015414Y010154D01*
X015302Y010266D01*
X015156Y010326D01*
X014997Y010326D01*
X014857Y010268D01*
X011231Y010268D01*
X010999Y010527D01*
X011139Y010585D01*
X011251Y010697D01*
X011309Y010837D01*
X014243Y013771D01*
X017949Y013771D01*
X018074Y013823D01*
X018902Y014651D01*
X018949Y014560D02*
X018811Y014560D01*
X018692Y014441D02*
X018949Y014441D01*
X018981Y014323D02*
X018574Y014323D01*
X018455Y014204D02*
X019071Y014204D01*
X019190Y014086D02*
X018337Y014086D01*
X018218Y013967D02*
X019308Y013967D01*
X019362Y013849D02*
X018100Y013849D01*
X017841Y013494D02*
X017695Y013555D01*
X017537Y013555D01*
X017390Y013494D01*
X017278Y013382D01*
X017218Y013236D01*
X017218Y013077D01*
X017278Y012931D01*
X017390Y012819D01*
X017537Y012758D01*
X017695Y012758D01*
X017841Y012819D01*
X017953Y012931D01*
X018014Y013077D01*
X018014Y013236D01*
X017953Y013382D01*
X017841Y013494D01*
X017842Y013493D02*
X019637Y013493D01*
X019561Y013375D02*
X017956Y013375D01*
X018006Y013256D02*
X019540Y013256D01*
X019540Y013138D02*
X018014Y013138D01*
X017990Y013019D02*
X019569Y013019D01*
X019655Y012901D02*
X017923Y012901D01*
X017752Y012782D02*
X019708Y012782D01*
X019810Y012664D02*
X015809Y012664D01*
X015781Y012692D02*
X015635Y012752D01*
X015476Y012752D01*
X015330Y012692D01*
X015218Y012580D01*
X015157Y012434D01*
X015157Y012275D01*
X015218Y012129D01*
X015330Y012017D01*
X015476Y011956D01*
X015635Y011956D01*
X015781Y012017D01*
X015893Y012129D01*
X015954Y012275D01*
X015954Y012434D01*
X015893Y012580D01*
X015781Y012692D01*
X015908Y012545D02*
X020131Y012545D01*
X020131Y012427D02*
X015954Y012427D01*
X015954Y012308D02*
X020131Y012308D01*
X020131Y012190D02*
X015918Y012190D01*
X015835Y012071D02*
X020131Y012071D01*
X020131Y011953D02*
X012424Y011953D01*
X012543Y012071D02*
X015276Y012071D01*
X015193Y012190D02*
X012661Y012190D01*
X012780Y012308D02*
X015157Y012308D01*
X015157Y012427D02*
X012898Y012427D01*
X013017Y012545D02*
X015204Y012545D01*
X015302Y012664D02*
X013135Y012664D01*
X013254Y012782D02*
X017479Y012782D01*
X017309Y012901D02*
X013372Y012901D01*
X013491Y013019D02*
X017242Y013019D01*
X017218Y013138D02*
X013609Y013138D01*
X013728Y013256D02*
X017226Y013256D01*
X017275Y013375D02*
X013846Y013375D01*
X013965Y013493D02*
X017389Y013493D01*
X019463Y013730D02*
X014202Y013730D01*
X014083Y013612D02*
X019756Y013612D01*
X020129Y015152D02*
X020233Y015152D01*
X020352Y015271D02*
X020072Y015271D01*
X020072Y015389D02*
X020470Y015389D01*
X020563Y015508D02*
X020072Y015508D01*
X020072Y015626D02*
X020563Y015626D01*
X020563Y015745D02*
X020072Y015745D01*
X020072Y015863D02*
X020563Y015863D01*
X020563Y015982D02*
X020072Y015982D01*
X020072Y016100D02*
X020563Y016100D01*
X020563Y016219D02*
X020072Y016219D01*
X020072Y016337D02*
X020563Y016337D01*
X020573Y016456D02*
X020072Y016456D01*
X020072Y016574D02*
X020631Y016574D01*
X020750Y016693D02*
X020072Y016693D01*
X020072Y016811D02*
X020868Y016811D01*
X020987Y016930D02*
X020072Y016930D01*
X020072Y017048D02*
X021105Y017048D01*
X021282Y017167D02*
X020072Y017167D01*
X020072Y017285D02*
X022327Y017285D01*
X022414Y017404D02*
X020072Y017404D01*
X020179Y017522D02*
X022414Y017522D01*
X022414Y017641D02*
X020293Y017641D01*
X020406Y017759D02*
X022414Y017759D01*
X022414Y017878D02*
X020519Y017878D01*
X020633Y017996D02*
X022407Y017996D01*
X022311Y018115D02*
X020746Y018115D01*
X020860Y018233D02*
X022262Y018233D01*
X022258Y018352D02*
X020920Y018352D01*
X020930Y018470D02*
X022277Y018470D01*
X022326Y018589D02*
X020930Y018589D01*
X020930Y018707D02*
X022443Y018707D01*
X022986Y018707D02*
X023135Y018707D01*
X023122Y018589D02*
X023103Y018589D01*
X023198Y018826D02*
X020930Y018826D01*
X020930Y018944D02*
X023316Y018944D01*
X023435Y019063D02*
X020930Y019063D01*
X020930Y019181D02*
X020985Y019181D01*
X021375Y019181D02*
X021575Y019181D01*
X021966Y019181D02*
X022166Y019181D01*
X022557Y019181D02*
X023516Y019181D01*
X023516Y019300D02*
X022712Y019300D01*
X022783Y019418D02*
X023516Y019418D01*
X023508Y019537D02*
X022819Y019537D01*
X022819Y019655D02*
X023493Y019655D01*
X023477Y019774D02*
X022783Y019774D01*
X022712Y019892D02*
X023462Y019892D01*
X023463Y020011D02*
X022556Y020011D01*
X022517Y020180D02*
X022675Y020180D01*
X022822Y020240D01*
X022934Y020352D01*
X022994Y020498D01*
X022994Y020633D01*
X023009Y020633D01*
X023138Y020762D01*
X023138Y022440D01*
X023009Y022569D01*
X022236Y022569D01*
X022107Y022440D01*
X022107Y020762D01*
X022202Y020666D01*
X022198Y020657D01*
X022198Y020498D01*
X022259Y020352D01*
X022371Y020240D01*
X022517Y020180D01*
X022363Y020248D02*
X021628Y020248D01*
X021582Y020201D02*
X021694Y020313D01*
X021754Y020459D01*
X021754Y020618D01*
X021748Y020633D01*
X021828Y020633D01*
X021956Y020762D01*
X021956Y022440D01*
X021828Y022569D01*
X021055Y022569D01*
X020926Y022440D01*
X020926Y020762D01*
X020991Y020697D01*
X020958Y020618D01*
X020958Y020459D01*
X021019Y020313D01*
X021131Y020201D01*
X021277Y020140D01*
X021435Y020140D01*
X021582Y020201D01*
X021576Y020011D02*
X021375Y020011D01*
X021084Y020248D02*
X020267Y020248D01*
X020385Y020366D02*
X020996Y020366D01*
X020958Y020485D02*
X020504Y020485D01*
X020579Y020603D02*
X020958Y020603D01*
X020966Y020722D02*
X020735Y020722D01*
X020775Y020840D02*
X020926Y020840D01*
X020926Y020959D02*
X020775Y020959D01*
X020775Y021077D02*
X020926Y021077D01*
X020926Y021196D02*
X020775Y021196D01*
X020775Y021314D02*
X020926Y021314D01*
X020926Y021433D02*
X020775Y021433D01*
X020775Y021551D02*
X020926Y021551D01*
X020926Y021670D02*
X020775Y021670D01*
X020775Y021788D02*
X020926Y021788D01*
X020926Y021907D02*
X020775Y021907D01*
X020775Y022025D02*
X020926Y022025D01*
X020926Y022144D02*
X020775Y022144D01*
X020775Y022262D02*
X020926Y022262D01*
X020926Y022381D02*
X020775Y022381D01*
X020716Y022499D02*
X020985Y022499D01*
X021897Y022499D02*
X022166Y022499D01*
X022107Y022381D02*
X021956Y022381D01*
X021956Y022262D02*
X022107Y022262D01*
X022107Y022144D02*
X021956Y022144D01*
X021956Y022025D02*
X022107Y022025D01*
X022107Y021907D02*
X021956Y021907D01*
X021956Y021788D02*
X022107Y021788D01*
X022107Y021670D02*
X021956Y021670D01*
X021956Y021551D02*
X022107Y021551D01*
X022107Y021433D02*
X021956Y021433D01*
X021956Y021314D02*
X022107Y021314D01*
X022107Y021196D02*
X021956Y021196D01*
X021956Y021077D02*
X022107Y021077D01*
X022107Y020959D02*
X021956Y020959D01*
X021956Y020840D02*
X022107Y020840D01*
X022147Y020722D02*
X021916Y020722D01*
X021754Y020603D02*
X022198Y020603D01*
X022204Y020485D02*
X021754Y020485D01*
X021716Y020366D02*
X022253Y020366D01*
X022167Y020011D02*
X021965Y020011D01*
X022829Y020248D02*
X023463Y020248D01*
X023463Y020366D02*
X022939Y020366D01*
X022989Y020485D02*
X023463Y020485D01*
X023463Y020603D02*
X022994Y020603D01*
X023098Y020722D02*
X023328Y020722D01*
X023288Y020840D02*
X023138Y020840D01*
X023138Y020959D02*
X023288Y020959D01*
X023288Y021077D02*
X023138Y021077D01*
X023138Y021196D02*
X023288Y021196D01*
X023288Y021314D02*
X023138Y021314D01*
X023138Y021433D02*
X023288Y021433D01*
X023288Y021551D02*
X023138Y021551D01*
X023138Y021670D02*
X023288Y021670D01*
X023288Y021788D02*
X023138Y021788D01*
X023138Y021907D02*
X023288Y021907D01*
X023288Y022025D02*
X023138Y022025D01*
X023138Y022144D02*
X023288Y022144D01*
X023288Y022262D02*
X023138Y022262D01*
X023138Y022381D02*
X023288Y022381D01*
X023347Y022499D02*
X023078Y022499D01*
X024259Y022499D02*
X024528Y022499D01*
X024469Y022381D02*
X024319Y022381D01*
X024319Y022262D02*
X024469Y022262D01*
X024469Y022144D02*
X024319Y022144D01*
X024319Y022025D02*
X024469Y022025D01*
X024469Y021907D02*
X024319Y021907D01*
X024319Y021788D02*
X024469Y021788D01*
X024469Y021670D02*
X024319Y021670D01*
X024319Y021551D02*
X024469Y021551D01*
X024469Y021433D02*
X024319Y021433D01*
X024319Y021314D02*
X024469Y021314D01*
X024469Y021196D02*
X024319Y021196D01*
X024319Y021077D02*
X024469Y021077D01*
X024469Y020959D02*
X024319Y020959D01*
X024319Y020840D02*
X024469Y020840D01*
X024509Y020722D02*
X024279Y020722D01*
X024143Y020603D02*
X024642Y020603D01*
X024641Y020485D02*
X024143Y020485D01*
X024143Y020366D02*
X024641Y020366D01*
X024641Y020248D02*
X024143Y020248D01*
X024143Y020129D02*
X024640Y020129D01*
X024640Y020011D02*
X024143Y020011D01*
X024148Y019892D02*
X024640Y019892D01*
X024639Y019774D02*
X024163Y019774D01*
X024178Y019655D02*
X024639Y019655D01*
X024639Y019537D02*
X024196Y019537D01*
X024196Y019418D02*
X024578Y019418D01*
X024459Y019300D02*
X024196Y019300D01*
X024196Y019181D02*
X024341Y019181D01*
X024222Y019063D02*
X024196Y019063D01*
X024710Y018589D02*
X027159Y018589D01*
X027159Y018707D02*
X024828Y018707D01*
X024947Y018826D02*
X027157Y018826D01*
X027157Y018944D02*
X025065Y018944D01*
X025184Y019063D02*
X027157Y019063D01*
X027157Y019181D02*
X025281Y019181D01*
X025318Y019300D02*
X025929Y019300D01*
X025829Y019418D02*
X025318Y019418D01*
X025319Y019537D02*
X025781Y019537D01*
X025781Y019655D02*
X025319Y019655D01*
X025319Y019774D02*
X025814Y019774D01*
X025826Y019892D02*
X025320Y019892D01*
X025320Y020011D02*
X025826Y020011D01*
X025826Y020129D02*
X025320Y020129D01*
X025321Y020248D02*
X025826Y020248D01*
X025826Y020366D02*
X025321Y020366D01*
X025321Y020485D02*
X025826Y020485D01*
X025826Y020603D02*
X025322Y020603D01*
X025460Y020722D02*
X025691Y020722D01*
X025651Y020840D02*
X025500Y020840D01*
X025500Y020959D02*
X025651Y020959D01*
X025651Y021077D02*
X025500Y021077D01*
X025500Y021196D02*
X025651Y021196D01*
X025651Y021314D02*
X025500Y021314D01*
X025500Y021433D02*
X025651Y021433D01*
X025651Y021551D02*
X025500Y021551D01*
X025500Y021670D02*
X025651Y021670D01*
X025651Y021788D02*
X025500Y021788D01*
X025500Y021907D02*
X025651Y021907D01*
X025651Y022025D02*
X025500Y022025D01*
X025500Y022144D02*
X025651Y022144D01*
X025651Y022262D02*
X025500Y022262D01*
X025500Y022381D02*
X025651Y022381D01*
X025710Y022499D02*
X025441Y022499D01*
X027149Y021788D02*
X027160Y021788D01*
X026745Y020840D02*
X026681Y020840D01*
X026641Y020722D02*
X027157Y020722D01*
X027157Y020603D02*
X026506Y020603D01*
X026506Y020485D02*
X027157Y020485D01*
X027157Y020366D02*
X026506Y020366D01*
X026506Y020248D02*
X027157Y020248D01*
X027157Y020129D02*
X026506Y020129D01*
X026506Y020011D02*
X027157Y020011D01*
X027157Y019892D02*
X026506Y019892D01*
X026543Y019774D02*
X027157Y019774D01*
X027157Y019655D02*
X026577Y019655D01*
X026577Y019537D02*
X027157Y019537D01*
X027157Y019418D02*
X026529Y019418D01*
X026428Y019300D02*
X027157Y019300D01*
X027439Y019300D02*
X028108Y019300D01*
X028108Y019418D02*
X027439Y019418D01*
X027439Y019537D02*
X028108Y019537D01*
X028108Y019655D02*
X027439Y019655D01*
X027439Y019751D02*
X028108Y019751D01*
X028108Y018806D01*
X028699Y018373D01*
X030077Y018373D01*
X030903Y017979D01*
X032636Y017113D01*
X032242Y016326D01*
X029801Y017546D01*
X028147Y017467D01*
X027439Y018255D01*
X027439Y019751D01*
X027439Y019181D02*
X028108Y019181D01*
X028108Y019063D02*
X027439Y019063D01*
X027439Y018944D02*
X028108Y018944D01*
X028108Y018826D02*
X027439Y018826D01*
X027439Y018707D02*
X028243Y018707D01*
X028405Y018589D02*
X027439Y018589D01*
X027439Y018470D02*
X028566Y018470D01*
X028716Y018707D02*
X033816Y018707D01*
X033757Y018589D02*
X030275Y018589D01*
X030240Y018605D02*
X030235Y018610D01*
X030190Y018629D01*
X030147Y018650D01*
X030139Y018650D01*
X030132Y018653D01*
X030084Y018653D01*
X030035Y018655D01*
X030028Y018653D01*
X028790Y018653D01*
X028388Y018948D01*
X028388Y019807D01*
X028384Y019816D01*
X028384Y021784D01*
X028315Y021854D01*
X029940Y021854D01*
X029989Y021836D01*
X030027Y021854D01*
X030069Y021854D01*
X030107Y021891D01*
X030195Y021932D01*
X035429Y021932D01*
X033152Y017378D01*
X033066Y017337D01*
X032992Y017313D01*
X032985Y017299D01*
X032971Y017293D01*
X032945Y017220D01*
X032915Y017160D01*
X032884Y017254D01*
X032811Y017339D01*
X032711Y017388D01*
X031076Y018206D01*
X031074Y018208D01*
X031026Y018231D01*
X030979Y018255D01*
X030976Y018255D01*
X030240Y018605D01*
X030121Y018352D02*
X027439Y018352D01*
X027458Y018233D02*
X030370Y018233D01*
X030619Y018115D02*
X027565Y018115D01*
X027672Y017996D02*
X030868Y017996D01*
X031107Y017878D02*
X027778Y017878D01*
X027885Y017759D02*
X031344Y017759D01*
X031581Y017641D02*
X027992Y017641D01*
X028098Y017522D02*
X029294Y017522D01*
X029849Y017522D02*
X031818Y017522D01*
X032055Y017404D02*
X030086Y017404D01*
X030323Y017285D02*
X032292Y017285D01*
X032529Y017167D02*
X030560Y017167D01*
X030797Y017048D02*
X032603Y017048D01*
X032544Y016930D02*
X031034Y016930D01*
X031271Y016811D02*
X032485Y016811D01*
X032425Y016693D02*
X031508Y016693D01*
X031745Y016574D02*
X032366Y016574D01*
X032307Y016456D02*
X031982Y016456D01*
X032219Y016337D02*
X032248Y016337D01*
X032051Y016100D02*
X031141Y016100D01*
X031378Y015982D02*
X032324Y015982D01*
X032264Y015863D02*
X031614Y015863D01*
X031851Y015745D02*
X032205Y015745D01*
X032145Y015626D02*
X032030Y015626D01*
X032037Y015615D02*
X032014Y015651D01*
X031983Y015679D01*
X030768Y016287D01*
X030547Y015846D01*
X030439Y015899D01*
X030386Y015792D01*
X030493Y015738D01*
X030547Y015846D01*
X031886Y015175D01*
X032045Y015492D01*
X032053Y015533D01*
X032051Y015575D01*
X032037Y015615D01*
X032048Y015508D02*
X032086Y015508D01*
X032026Y015389D02*
X031993Y015389D01*
X031967Y015271D02*
X031934Y015271D01*
X031907Y015152D02*
X031664Y015152D01*
X031695Y015271D02*
X031427Y015271D01*
X031458Y015389D02*
X031190Y015389D01*
X031222Y015508D02*
X030954Y015508D01*
X030985Y015626D02*
X030717Y015626D01*
X030748Y015745D02*
X030496Y015745D01*
X030493Y015738D02*
X031832Y015068D01*
X031673Y014750D01*
X031645Y014719D01*
X031610Y014696D01*
X031570Y014682D01*
X031528Y014680D01*
X031487Y014688D01*
X030272Y015297D01*
X030493Y015738D01*
X030480Y015745D02*
X030362Y015745D01*
X030386Y015792D02*
X030165Y015350D01*
X028950Y015959D01*
X028918Y015987D01*
X028895Y016022D01*
X028882Y016062D01*
X028879Y016104D01*
X028888Y016145D01*
X029047Y016463D01*
X030386Y015792D01*
X030421Y015863D02*
X030244Y015863D01*
X030275Y015982D02*
X030007Y015982D01*
X030038Y016100D02*
X029770Y016100D01*
X029802Y016219D02*
X029534Y016219D01*
X029565Y016337D02*
X029297Y016337D01*
X029328Y016456D02*
X029060Y016456D01*
X029043Y016456D02*
X024413Y016456D01*
X024413Y016574D02*
X029102Y016574D01*
X029100Y016570D02*
X030439Y015899D01*
X030660Y016341D01*
X029446Y016949D01*
X029404Y016958D01*
X029362Y016955D01*
X029322Y016942D01*
X029287Y016919D01*
X029259Y016887D01*
X029100Y016570D01*
X029162Y016693D02*
X024413Y016693D01*
X024413Y016811D02*
X029221Y016811D01*
X029304Y016930D02*
X024413Y016930D01*
X024413Y017048D02*
X030158Y017048D01*
X030394Y016930D02*
X029485Y016930D01*
X029721Y016811D02*
X030631Y016811D01*
X030868Y016693D02*
X029958Y016693D01*
X030194Y016574D02*
X031104Y016574D01*
X031341Y016456D02*
X030431Y016456D01*
X030659Y016337D02*
X031578Y016337D01*
X031814Y016219D02*
X030904Y016219D01*
X030733Y016219D02*
X030599Y016219D01*
X030540Y016100D02*
X030674Y016100D01*
X030615Y015982D02*
X030481Y015982D01*
X030512Y015863D02*
X030555Y015863D01*
X030437Y015626D02*
X030303Y015626D01*
X030243Y015508D02*
X030377Y015508D01*
X030318Y015389D02*
X030184Y015389D01*
X030088Y015389D02*
X028980Y015389D01*
X029078Y015271D02*
X030324Y015271D01*
X030561Y015152D02*
X029469Y015152D01*
X029679Y015034D02*
X030798Y015034D01*
X031034Y014915D02*
X029779Y014915D01*
X029884Y014797D02*
X031271Y014797D01*
X031610Y014560D02*
X030617Y014560D01*
X030854Y014441D02*
X031550Y014441D01*
X031493Y014323D02*
X031090Y014323D01*
X031327Y014204D02*
X031533Y014204D01*
X031564Y014086D02*
X031683Y014086D01*
X031800Y013967D02*
X031923Y013967D01*
X031980Y013849D02*
X032163Y013849D01*
X032263Y013730D02*
X032019Y013730D01*
X031976Y013612D02*
X032204Y013612D01*
X032145Y013493D02*
X031917Y013493D01*
X031858Y013375D02*
X032085Y013375D01*
X032026Y013256D02*
X031798Y013256D01*
X031739Y013138D02*
X031967Y013138D01*
X031908Y013019D02*
X031679Y013019D01*
X031848Y012901D02*
X031292Y012901D01*
X031392Y013019D02*
X031056Y013019D01*
X031155Y013138D02*
X030819Y013138D01*
X030919Y013256D02*
X030582Y013256D01*
X030682Y013375D02*
X030346Y013375D01*
X030445Y013493D02*
X030109Y013493D01*
X030209Y013612D02*
X029876Y013612D01*
X029758Y013730D02*
X030000Y013730D01*
X029961Y013849D02*
X029639Y013849D01*
X029521Y013967D02*
X029807Y013967D01*
X029597Y014086D02*
X029474Y014086D01*
X030094Y014678D02*
X031670Y014678D01*
X031696Y014797D02*
X031729Y014797D01*
X031756Y014915D02*
X031789Y014915D01*
X031815Y015034D02*
X031848Y015034D01*
X029851Y015508D02*
X028772Y015508D01*
X028513Y015508D02*
X023791Y015508D01*
X023674Y015626D02*
X029614Y015626D01*
X029378Y015745D02*
X024291Y015745D01*
X024398Y015863D02*
X029141Y015863D01*
X028924Y015982D02*
X024447Y015982D01*
X024451Y016100D02*
X028879Y016100D01*
X028924Y016219D02*
X024422Y016219D01*
X024413Y016337D02*
X028984Y016337D01*
X028305Y015389D02*
X023908Y015389D01*
X024024Y015271D02*
X026471Y015271D01*
X026353Y015152D02*
X024141Y015152D01*
X024257Y015034D02*
X026234Y015034D01*
X026116Y014915D02*
X024374Y014915D01*
X024491Y014797D02*
X025032Y014797D01*
X024938Y014678D02*
X024607Y014678D01*
X024724Y014560D02*
X024895Y014560D01*
X024895Y014441D02*
X024841Y014441D01*
X025555Y014797D02*
X025997Y014797D01*
X025879Y014678D02*
X025648Y014678D01*
X025691Y014560D02*
X025760Y014560D01*
X027163Y013629D02*
X027233Y013620D01*
X029127Y015152D02*
X029219Y015152D01*
X029921Y017167D02*
X024413Y017167D01*
X024413Y017285D02*
X027932Y017285D01*
X027828Y017404D02*
X024413Y017404D01*
X024413Y017522D02*
X027722Y017522D01*
X027615Y017641D02*
X024413Y017641D01*
X024413Y017759D02*
X027508Y017759D01*
X027402Y017878D02*
X024413Y017878D01*
X024413Y017996D02*
X027295Y017996D01*
X027191Y018115D02*
X024413Y018115D01*
X024413Y018233D02*
X027157Y018233D01*
X027159Y018352D02*
X024473Y018352D01*
X024591Y018470D02*
X027159Y018470D01*
X028393Y018944D02*
X028792Y018944D01*
X028792Y018877D02*
X028802Y018836D01*
X028823Y018800D01*
X028853Y018770D01*
X028890Y018749D01*
X028930Y018738D01*
X029285Y018738D01*
X029285Y020236D01*
X028792Y020236D01*
X028792Y018877D01*
X028809Y018826D02*
X028555Y018826D01*
X028388Y019063D02*
X028792Y019063D01*
X028792Y019181D02*
X028388Y019181D01*
X028388Y019300D02*
X028792Y019300D01*
X028792Y019418D02*
X028388Y019418D01*
X028388Y019537D02*
X028792Y019537D01*
X028792Y019655D02*
X028388Y019655D01*
X028388Y019774D02*
X028792Y019774D01*
X028792Y019892D02*
X028384Y019892D01*
X028384Y020011D02*
X028792Y020011D01*
X028792Y020129D02*
X028384Y020129D01*
X028384Y020248D02*
X029285Y020248D01*
X029285Y020236D02*
X029285Y020356D01*
X029285Y021853D01*
X028930Y021853D01*
X028890Y021842D01*
X028853Y021821D01*
X028823Y021791D01*
X028802Y021755D01*
X028792Y021714D01*
X028792Y020356D01*
X029285Y020356D01*
X029405Y020356D01*
X029405Y021853D01*
X029760Y021853D01*
X029801Y021842D01*
X029837Y021821D01*
X029867Y021791D01*
X029888Y021755D01*
X029899Y021714D01*
X029899Y020356D01*
X029405Y020356D01*
X029405Y020236D01*
X029899Y020236D01*
X029899Y018877D01*
X029888Y018836D01*
X029867Y018800D01*
X029837Y018770D01*
X029801Y018749D01*
X029760Y018738D01*
X029405Y018738D01*
X029405Y020236D01*
X029285Y020236D01*
X029285Y020129D02*
X029405Y020129D01*
X029405Y020011D02*
X029285Y020011D01*
X029285Y019892D02*
X029405Y019892D01*
X029405Y019774D02*
X029285Y019774D01*
X029285Y019655D02*
X029405Y019655D01*
X029405Y019537D02*
X029285Y019537D01*
X029285Y019418D02*
X029405Y019418D01*
X029405Y019300D02*
X029285Y019300D01*
X029285Y019181D02*
X029405Y019181D01*
X029405Y019063D02*
X029285Y019063D01*
X029285Y018944D02*
X029405Y018944D01*
X029405Y018826D02*
X029285Y018826D01*
X029882Y018826D02*
X033876Y018826D01*
X033935Y018944D02*
X029899Y018944D01*
X029899Y019063D02*
X033994Y019063D01*
X034054Y019181D02*
X029899Y019181D01*
X029899Y019300D02*
X034113Y019300D01*
X034172Y019418D02*
X029899Y019418D01*
X029899Y019537D02*
X034231Y019537D01*
X034291Y019655D02*
X029899Y019655D01*
X029899Y019774D02*
X034350Y019774D01*
X034409Y019892D02*
X029899Y019892D01*
X029899Y020011D02*
X034468Y020011D01*
X034528Y020129D02*
X029899Y020129D01*
X029899Y020366D02*
X033300Y020366D01*
X033371Y020295D02*
X033633Y020186D01*
X033916Y020186D01*
X034178Y020295D01*
X034378Y020495D01*
X034487Y020757D01*
X034487Y021040D01*
X034378Y021302D01*
X034178Y021502D01*
X033916Y021611D01*
X033633Y021611D01*
X033371Y021502D01*
X033171Y021302D01*
X033062Y021040D01*
X033062Y020757D01*
X033171Y020495D01*
X033371Y020295D01*
X033485Y020248D02*
X029405Y020248D01*
X029405Y020366D02*
X029285Y020366D01*
X029285Y020485D02*
X029405Y020485D01*
X029405Y020603D02*
X029285Y020603D01*
X029285Y020722D02*
X029405Y020722D01*
X029405Y020840D02*
X029285Y020840D01*
X029285Y020959D02*
X029405Y020959D01*
X029405Y021077D02*
X029285Y021077D01*
X029285Y021196D02*
X029405Y021196D01*
X029405Y021314D02*
X029285Y021314D01*
X029285Y021433D02*
X029405Y021433D01*
X029405Y021551D02*
X029285Y021551D01*
X029285Y021670D02*
X029405Y021670D01*
X029405Y021788D02*
X029285Y021788D01*
X028822Y021788D02*
X028380Y021788D01*
X028384Y021670D02*
X028792Y021670D01*
X028792Y021551D02*
X028384Y021551D01*
X028384Y021433D02*
X028792Y021433D01*
X028792Y021314D02*
X028384Y021314D01*
X028384Y021196D02*
X028792Y021196D01*
X028792Y021077D02*
X028384Y021077D01*
X028384Y020959D02*
X028792Y020959D01*
X028792Y020840D02*
X028384Y020840D01*
X028384Y020722D02*
X028792Y020722D01*
X028792Y020603D02*
X028384Y020603D01*
X028384Y020485D02*
X028792Y020485D01*
X028792Y020366D02*
X028384Y020366D01*
X029899Y020485D02*
X033181Y020485D01*
X033126Y020603D02*
X029899Y020603D01*
X029899Y020722D02*
X033077Y020722D01*
X033062Y020840D02*
X029899Y020840D01*
X029899Y020959D02*
X033062Y020959D01*
X033078Y021077D02*
X029899Y021077D01*
X029899Y021196D02*
X033127Y021196D01*
X033183Y021314D02*
X029899Y021314D01*
X029899Y021433D02*
X033301Y021433D01*
X033489Y021551D02*
X029899Y021551D01*
X029899Y021670D02*
X035298Y021670D01*
X035357Y021788D02*
X029869Y021788D01*
X030139Y021907D02*
X035416Y021907D01*
X035239Y021551D02*
X034060Y021551D01*
X034247Y021433D02*
X035179Y021433D01*
X035120Y021314D02*
X034366Y021314D01*
X034422Y021196D02*
X035061Y021196D01*
X035002Y021077D02*
X034471Y021077D01*
X034487Y020959D02*
X034942Y020959D01*
X034883Y020840D02*
X034487Y020840D01*
X034472Y020722D02*
X034824Y020722D01*
X034765Y020603D02*
X034423Y020603D01*
X034368Y020485D02*
X034705Y020485D01*
X034646Y020366D02*
X034249Y020366D01*
X034064Y020248D02*
X034587Y020248D01*
X033698Y018470D02*
X030524Y018470D01*
X030773Y018352D02*
X033639Y018352D01*
X033579Y018233D02*
X031022Y018233D01*
X031259Y018115D02*
X033520Y018115D01*
X033461Y017996D02*
X031496Y017996D01*
X031733Y017878D02*
X033402Y017878D01*
X033342Y017759D02*
X031970Y017759D01*
X032207Y017641D02*
X033283Y017641D01*
X033224Y017522D02*
X032444Y017522D01*
X032681Y017404D02*
X033165Y017404D01*
X032968Y017285D02*
X032857Y017285D01*
X032913Y017167D02*
X032918Y017167D01*
X031789Y012782D02*
X031454Y012782D01*
X031494Y012664D02*
X031730Y012664D01*
X031671Y012545D02*
X031442Y012545D01*
X031383Y012427D02*
X031611Y012427D01*
X031552Y012308D02*
X031323Y012308D01*
X031264Y012190D02*
X031493Y012190D01*
X031434Y012071D02*
X031205Y012071D01*
X031119Y011953D02*
X031374Y011953D01*
X031315Y011834D02*
X030784Y011834D01*
X030884Y011953D02*
X030548Y011953D01*
X030647Y012071D02*
X030311Y012071D01*
X030410Y012190D02*
X030074Y012190D01*
X030174Y012308D02*
X029838Y012308D01*
X029937Y012427D02*
X029661Y012427D01*
X029701Y012545D02*
X029582Y012545D01*
X029545Y011916D02*
X029929Y011686D01*
X029666Y011242D02*
X029330Y011242D01*
X029429Y011360D02*
X029125Y011360D01*
X029112Y011479D02*
X029192Y011479D01*
X029566Y011123D02*
X029902Y011123D01*
X029803Y011005D02*
X030139Y011005D01*
X030039Y010886D02*
X030376Y010886D01*
X030276Y010768D02*
X030782Y010768D01*
X030841Y010886D02*
X030559Y010886D01*
X030671Y011005D02*
X030900Y011005D01*
X030960Y011123D02*
X030730Y011123D01*
X030789Y011242D02*
X031019Y011242D01*
X031078Y011360D02*
X030849Y011360D01*
X030908Y011479D02*
X031137Y011479D01*
X031197Y011597D02*
X030967Y011597D01*
X030929Y011716D02*
X031256Y011716D01*
X030723Y010649D02*
X030403Y010649D01*
X030433Y010531D02*
X030663Y010531D01*
X030604Y010412D02*
X030374Y010412D01*
X030315Y010294D02*
X030545Y010294D01*
X030486Y010175D02*
X030255Y010175D01*
X030196Y010057D02*
X030426Y010057D01*
X030367Y009938D02*
X030137Y009938D01*
X029999Y009820D02*
X030308Y009820D01*
X030249Y009701D02*
X029768Y009701D01*
X029868Y009820D02*
X029531Y009820D01*
X029631Y009938D02*
X029295Y009938D01*
X029394Y010057D02*
X029058Y010057D01*
X029158Y010175D02*
X028821Y010175D01*
X028921Y010294D02*
X028672Y010294D01*
X028657Y010412D02*
X028684Y010412D01*
X029878Y009583D02*
X030189Y009583D01*
X030130Y009464D02*
X029899Y009464D01*
X029840Y009346D02*
X030071Y009346D01*
X030012Y009227D02*
X029781Y009227D01*
X029721Y009109D02*
X029952Y009109D01*
X029893Y008990D02*
X029662Y008990D01*
X029603Y008872D02*
X029834Y008872D01*
X029775Y008753D02*
X029439Y008753D01*
X029360Y008753D02*
X029023Y008753D01*
X029123Y008872D02*
X028786Y008872D01*
X028886Y008990D02*
X028549Y008990D01*
X028650Y009109D02*
X028313Y009109D01*
X028413Y009227D02*
X028076Y009227D01*
X028026Y009346D02*
X028176Y009346D01*
X027951Y008688D02*
X028343Y008517D01*
X027904Y008161D02*
X027108Y008161D01*
X027109Y008158D02*
X027019Y008375D01*
X026853Y008541D01*
X026636Y008630D01*
X026401Y008630D01*
X026185Y008541D01*
X026019Y008375D01*
X025929Y008158D01*
X025929Y007923D01*
X026005Y007739D01*
X025947Y007739D01*
X025731Y007650D01*
X025565Y007484D01*
X025475Y007267D01*
X025475Y007032D01*
X025551Y006848D01*
X025494Y006848D01*
X025277Y006759D01*
X025111Y006593D01*
X025021Y006376D01*
X025021Y006141D01*
X025111Y005924D01*
X025137Y005897D01*
X025115Y005897D01*
X025033Y005884D01*
X024953Y005859D01*
X024879Y005821D01*
X024812Y005772D01*
X024753Y005713D01*
X024704Y005645D01*
X024703Y005644D01*
X025139Y005421D01*
X025103Y005350D01*
X024666Y005572D01*
X024666Y005571D01*
X024640Y005492D01*
X024627Y005409D01*
X024627Y005326D01*
X024640Y005243D01*
X024666Y005164D01*
X024704Y005090D01*
X024720Y005066D01*
X024586Y005066D01*
X024369Y004977D01*
X024208Y004816D01*
X023804Y004816D01*
X023629Y004991D01*
X023629Y006177D01*
X023578Y006302D01*
X023497Y006382D01*
X023506Y006404D01*
X023506Y006562D01*
X023446Y006709D01*
X023334Y006821D01*
X023187Y006881D01*
X023029Y006881D01*
X022883Y006821D01*
X022771Y006709D01*
X022710Y006562D01*
X022710Y006404D01*
X022768Y006264D01*
X022768Y006223D01*
X022820Y006098D01*
X022949Y005969D01*
X022949Y004782D01*
X023001Y004657D01*
X023375Y004284D01*
X023470Y004188D01*
X023595Y004136D01*
X024208Y004136D01*
X024369Y003976D01*
X024586Y003886D01*
X024820Y003886D01*
X025037Y003976D01*
X025203Y004142D01*
X025293Y004359D01*
X025293Y004594D01*
X025203Y004811D01*
X025176Y004837D01*
X025199Y004837D01*
X025281Y004850D01*
X025360Y004876D01*
X025435Y004914D01*
X025502Y004963D01*
X025561Y005022D01*
X025610Y005090D01*
X025611Y005091D01*
X025174Y005314D01*
X025211Y005385D01*
X025647Y005162D01*
X025648Y005164D01*
X025674Y005243D01*
X025687Y005326D01*
X025687Y005409D01*
X025674Y005492D01*
X025648Y005571D01*
X025610Y005645D01*
X025593Y005668D01*
X025728Y005668D01*
X025945Y005758D01*
X026111Y005924D01*
X026201Y006141D01*
X026201Y006376D01*
X026125Y006559D01*
X026182Y006559D01*
X026399Y006649D01*
X026565Y006815D01*
X026655Y007032D01*
X026655Y007267D01*
X026579Y007450D01*
X029123Y007450D01*
X029182Y007568D02*
X026881Y007568D01*
X026853Y007540D02*
X027019Y007706D01*
X027109Y007923D01*
X027109Y008158D01*
X027109Y008042D02*
X028141Y008042D01*
X028378Y007924D02*
X027109Y007924D01*
X027060Y007805D02*
X028614Y007805D01*
X028851Y007687D02*
X026999Y007687D01*
X026853Y007540D02*
X026636Y007450D01*
X026579Y007450D01*
X026628Y007331D02*
X028657Y007331D01*
X028879Y007687D02*
X029241Y007687D01*
X029301Y007805D02*
X029069Y007805D01*
X029128Y007924D02*
X029360Y007924D01*
X029419Y008042D02*
X029187Y008042D01*
X029247Y008161D02*
X029478Y008161D01*
X029538Y008279D02*
X029306Y008279D01*
X029365Y008398D02*
X029597Y008398D01*
X029656Y008516D02*
X029352Y008516D01*
X029259Y008635D02*
X029715Y008635D01*
X028064Y007213D02*
X026655Y007213D01*
X026655Y007094D02*
X028005Y007094D01*
X027946Y006976D02*
X026631Y006976D01*
X026582Y006857D02*
X027887Y006857D01*
X027827Y006739D02*
X026488Y006739D01*
X026328Y006620D02*
X027768Y006620D01*
X027709Y006502D02*
X026149Y006502D01*
X026198Y006383D02*
X027650Y006383D01*
X027590Y006265D02*
X026201Y006265D01*
X026201Y006146D02*
X027531Y006146D01*
X027472Y006028D02*
X026154Y006028D01*
X026096Y005909D02*
X027413Y005909D01*
X027353Y005791D02*
X025977Y005791D01*
X025737Y005672D02*
X027294Y005672D01*
X027235Y005554D02*
X025654Y005554D01*
X025683Y005435D02*
X027176Y005435D01*
X027116Y005317D02*
X025685Y005317D01*
X025659Y005198D02*
X027057Y005198D01*
X026998Y005080D02*
X025603Y005080D01*
X025577Y005198D02*
X025401Y005198D01*
X025345Y005317D02*
X025176Y005317D01*
X025112Y005435D02*
X024936Y005435D01*
X024880Y005554D02*
X024704Y005554D01*
X024660Y005554D02*
X023629Y005554D01*
X023629Y005672D02*
X024723Y005672D01*
X024838Y005791D02*
X023629Y005791D01*
X023629Y005909D02*
X025126Y005909D01*
X025068Y006028D02*
X023629Y006028D01*
X023629Y006146D02*
X025021Y006146D01*
X025021Y006265D02*
X023593Y006265D01*
X023497Y006383D02*
X025024Y006383D01*
X025073Y006502D02*
X023506Y006502D01*
X023482Y006620D02*
X025138Y006620D01*
X025257Y006739D02*
X023416Y006739D01*
X023246Y006857D02*
X025547Y006857D01*
X025498Y006976D02*
X008402Y006976D01*
X008402Y006971D02*
X008399Y007013D01*
X008386Y007053D01*
X008363Y007088D01*
X008331Y007116D01*
X007116Y007725D01*
X006895Y007283D01*
X006788Y007337D01*
X006734Y007229D01*
X006842Y007176D01*
X006895Y007283D01*
X008234Y006612D01*
X008393Y006930D01*
X008402Y006971D01*
X008357Y006857D02*
X022970Y006857D01*
X022800Y006739D02*
X008298Y006739D01*
X008238Y006620D02*
X022734Y006620D01*
X022710Y006502D02*
X008179Y006502D01*
X008181Y006505D02*
X006842Y007176D01*
X006621Y006734D01*
X007835Y006126D01*
X007877Y006117D01*
X007919Y006120D01*
X007959Y006133D01*
X007994Y006156D01*
X008022Y006188D01*
X008181Y006505D01*
X008219Y006620D02*
X007951Y006620D01*
X007983Y006739D02*
X007715Y006739D01*
X007746Y006857D02*
X007478Y006857D01*
X007509Y006976D02*
X007241Y006976D01*
X007273Y007094D02*
X007005Y007094D01*
X007036Y007213D02*
X006860Y007213D01*
X006768Y007213D02*
X006726Y007213D01*
X006734Y007229D02*
X006513Y006788D01*
X005298Y007396D01*
X005267Y007424D01*
X005244Y007460D01*
X005230Y007500D01*
X005228Y007542D01*
X005236Y007583D01*
X005395Y007900D01*
X006734Y007229D01*
X006785Y007331D02*
X006532Y007331D01*
X006563Y007450D02*
X006295Y007450D01*
X006326Y007568D02*
X006058Y007568D01*
X006090Y007687D02*
X005822Y007687D01*
X005853Y007805D02*
X005585Y007805D01*
X005616Y007924D02*
X005368Y007924D01*
X005449Y008007D02*
X006788Y007337D01*
X007009Y007778D01*
X005794Y008387D01*
X005753Y008395D01*
X005711Y008393D01*
X005671Y008379D01*
X005636Y008356D01*
X005608Y008325D01*
X005449Y008007D01*
X005466Y008042D02*
X005428Y008042D01*
X005487Y008161D02*
X005526Y008161D01*
X005546Y008279D02*
X005585Y008279D01*
X005605Y008398D02*
X016242Y008398D01*
X016123Y008516D02*
X007671Y008516D01*
X007788Y008635D02*
X016005Y008635D01*
X015886Y008753D02*
X007908Y008753D01*
X008027Y008872D02*
X015768Y008872D01*
X015649Y008990D02*
X008146Y008990D01*
X008266Y009109D02*
X015531Y009109D01*
X015412Y009227D02*
X009670Y009227D01*
X009789Y009346D02*
X015294Y009346D01*
X015175Y009464D02*
X009841Y009464D01*
X009870Y009583D02*
X014870Y009583D01*
X015550Y009938D02*
X016671Y009938D01*
X016671Y010014D02*
X016671Y009315D01*
X016619Y009190D01*
X016619Y009031D01*
X016680Y008885D01*
X016792Y008773D01*
X016938Y008712D01*
X017096Y008712D01*
X017243Y008773D01*
X017355Y008885D01*
X017415Y009031D01*
X017415Y009190D01*
X017355Y009336D01*
X017351Y009340D01*
X017351Y010014D01*
X017409Y010155D01*
X017409Y010313D01*
X017348Y010459D01*
X017237Y010571D01*
X017090Y010632D01*
X016932Y010632D01*
X016785Y010571D01*
X016673Y010459D01*
X016613Y010313D01*
X016613Y010155D01*
X016671Y010014D01*
X016653Y010057D02*
X015454Y010057D01*
X015393Y010175D02*
X016613Y010175D01*
X016613Y010294D02*
X015235Y010294D01*
X014919Y010294D02*
X011208Y010294D01*
X011102Y010412D02*
X016654Y010412D01*
X016745Y010531D02*
X011008Y010531D01*
X011203Y010649D02*
X020330Y010649D01*
X020448Y010768D02*
X011280Y010768D01*
X011358Y010886D02*
X020567Y010886D01*
X020685Y011005D02*
X011476Y011005D01*
X011595Y011123D02*
X020804Y011123D01*
X020922Y011242D02*
X011713Y011242D01*
X011832Y011360D02*
X020148Y011360D01*
X020067Y011479D02*
X011950Y011479D01*
X012069Y011597D02*
X020033Y011597D01*
X020033Y011716D02*
X012187Y011716D01*
X012306Y011834D02*
X020080Y011834D01*
X020713Y011360D02*
X021016Y011360D01*
X021077Y011479D02*
X020795Y011479D01*
X021167Y011597D02*
X021234Y011597D01*
X021598Y010886D02*
X021608Y010886D01*
X021608Y010768D02*
X021410Y010768D01*
X021291Y010649D02*
X021643Y010649D01*
X021726Y010531D02*
X021173Y010531D01*
X021054Y010412D02*
X024283Y010412D01*
X024375Y010531D02*
X022285Y010531D01*
X022368Y010649D02*
X022513Y010649D01*
X022407Y010768D02*
X022404Y010768D01*
X022994Y010649D02*
X023182Y010649D01*
X023664Y010649D02*
X024467Y010649D01*
X024559Y010768D02*
X023769Y010768D01*
X023819Y010886D02*
X024651Y010886D01*
X024743Y011005D02*
X023821Y011005D01*
X023791Y011123D02*
X024835Y011123D01*
X024927Y011242D02*
X023716Y011242D01*
X023644Y011360D02*
X025019Y011360D01*
X025112Y011479D02*
X023644Y011479D01*
X023644Y011597D02*
X025204Y011597D01*
X025187Y011716D02*
X023644Y011716D01*
X023644Y011834D02*
X024041Y011834D01*
X023923Y011953D02*
X023644Y011953D01*
X023644Y012071D02*
X023804Y012071D01*
X023684Y012190D02*
X023644Y012190D01*
X025064Y011834D02*
X025083Y011834D01*
X026069Y011123D02*
X026544Y011123D01*
X026430Y011242D02*
X026160Y011242D01*
X026252Y011360D02*
X026381Y011360D01*
X026358Y011479D02*
X026343Y011479D01*
X025977Y011005D02*
X027043Y011005D01*
X027004Y010886D02*
X025886Y010886D01*
X025794Y010768D02*
X026999Y010768D01*
X027024Y010649D02*
X025703Y010649D01*
X025611Y010531D02*
X027045Y010531D01*
X027066Y010412D02*
X025520Y010412D01*
X025428Y010294D02*
X027087Y010294D01*
X027108Y010175D02*
X025336Y010175D01*
X025245Y010057D02*
X027129Y010057D01*
X027150Y009938D02*
X025153Y009938D01*
X025062Y009820D02*
X027171Y009820D01*
X027191Y009701D02*
X024970Y009701D01*
X024879Y009583D02*
X027212Y009583D01*
X027233Y009464D02*
X024787Y009464D01*
X024696Y009346D02*
X027254Y009346D01*
X027275Y009227D02*
X024604Y009227D01*
X024513Y009109D02*
X027296Y009109D01*
X027317Y008990D02*
X024421Y008990D01*
X024329Y008872D02*
X027338Y008872D01*
X027358Y008753D02*
X024238Y008753D01*
X024146Y008635D02*
X027319Y008635D01*
X027334Y008516D02*
X026878Y008516D01*
X026996Y008398D02*
X027431Y008398D01*
X027668Y008279D02*
X027059Y008279D01*
X026160Y008516D02*
X024055Y008516D01*
X023963Y008398D02*
X026042Y008398D01*
X025979Y008279D02*
X023872Y008279D01*
X023780Y008161D02*
X025930Y008161D01*
X025929Y008042D02*
X023689Y008042D01*
X023597Y007924D02*
X025929Y007924D01*
X025978Y007805D02*
X023507Y007805D01*
X023373Y007687D02*
X025820Y007687D01*
X025649Y007568D02*
X007429Y007568D01*
X007666Y007450D02*
X025551Y007450D01*
X025501Y007331D02*
X007902Y007331D01*
X008139Y007213D02*
X025475Y007213D01*
X025475Y007094D02*
X008356Y007094D01*
X008120Y006383D02*
X022719Y006383D01*
X022768Y006265D02*
X008060Y006265D01*
X007978Y006146D02*
X022800Y006146D01*
X022890Y006028D02*
X007402Y006028D01*
X007559Y006265D02*
X006851Y006265D01*
X006576Y006383D02*
X007322Y006383D01*
X007085Y006502D02*
X006301Y006502D01*
X006026Y006620D02*
X006849Y006620D01*
X006623Y006739D02*
X005751Y006739D01*
X005476Y006857D02*
X006376Y006857D01*
X006548Y006857D02*
X006682Y006857D01*
X006741Y006976D02*
X006607Y006976D01*
X006666Y007094D02*
X006801Y007094D01*
X006800Y007331D02*
X006919Y007331D01*
X006979Y007450D02*
X006845Y007450D01*
X006904Y007568D02*
X007038Y007568D01*
X007097Y007687D02*
X006963Y007687D01*
X006956Y007805D02*
X015879Y007805D01*
X015840Y007924D02*
X006719Y007924D01*
X006482Y008042D02*
X015840Y008042D01*
X015882Y008161D02*
X006246Y008161D01*
X006009Y008279D02*
X015975Y008279D01*
X015968Y007687D02*
X007192Y007687D01*
X006139Y006976D02*
X005229Y006976D01*
X004954Y007094D02*
X005902Y007094D01*
X005666Y007213D02*
X005013Y007213D01*
X005072Y007331D02*
X005429Y007331D01*
X005250Y007450D02*
X005131Y007450D01*
X005191Y007568D02*
X005233Y007568D01*
X005250Y007687D02*
X005288Y007687D01*
X005309Y007805D02*
X005348Y007805D01*
X005665Y008516D02*
X006669Y008516D01*
X006433Y008635D02*
X005724Y008635D01*
X005705Y008597D02*
X005705Y008597D01*
X005783Y008753D02*
X006196Y008753D01*
X005959Y008872D02*
X005749Y008872D01*
X005723Y008990D02*
X005614Y008990D01*
X005486Y009109D02*
X005377Y009109D01*
X005275Y009227D02*
X005140Y009227D01*
X005236Y009346D02*
X004972Y009346D01*
X005031Y009464D02*
X005263Y009464D01*
X005322Y009583D02*
X005090Y009583D01*
X005149Y009701D02*
X005382Y009701D01*
X005441Y009820D02*
X005209Y009820D01*
X005268Y009938D02*
X005500Y009938D01*
X005560Y010057D02*
X005327Y010057D01*
X005386Y010175D02*
X005994Y010175D01*
X005895Y010057D02*
X006231Y010057D01*
X006131Y009938D02*
X006467Y009938D01*
X006368Y009820D02*
X006704Y009820D01*
X006604Y009701D02*
X006941Y009701D01*
X006841Y009583D02*
X007177Y009583D01*
X007078Y009464D02*
X007659Y009464D01*
X007778Y009583D02*
X007487Y009583D01*
X007539Y009346D02*
X007255Y009346D01*
X007294Y009227D02*
X007420Y009227D01*
X007870Y009701D02*
X007897Y009701D01*
X007994Y009820D02*
X008017Y009820D01*
X008119Y009938D02*
X008136Y009938D01*
X008624Y009464D02*
X008905Y009464D01*
X008958Y009346D02*
X008505Y009346D01*
X008385Y009227D02*
X009076Y009227D01*
X009870Y009701D02*
X010825Y009701D01*
X010719Y009820D02*
X009834Y009820D01*
X010037Y009938D02*
X010614Y009938D01*
X010508Y010057D02*
X010154Y010057D01*
X010203Y010175D02*
X010402Y010175D01*
X010296Y010294D02*
X010228Y010294D01*
X008804Y011597D02*
X008094Y011597D01*
X008151Y011716D02*
X007857Y011716D01*
X007957Y011834D02*
X007621Y011834D01*
X007720Y011953D02*
X007384Y011953D01*
X007484Y012071D02*
X007147Y012071D01*
X007247Y012190D02*
X006911Y012190D01*
X007010Y012308D02*
X006451Y012308D01*
X006392Y012190D02*
X006633Y012190D01*
X006568Y012071D02*
X006333Y012071D01*
X006274Y011953D02*
X006509Y011953D01*
X006450Y011834D02*
X006214Y011834D01*
X006155Y011716D02*
X006390Y011716D01*
X006331Y011597D02*
X006096Y011597D01*
X006037Y011479D02*
X006287Y011479D01*
X006326Y011360D02*
X005978Y011360D01*
X005919Y011242D02*
X006502Y011242D01*
X006403Y011123D02*
X006739Y011123D01*
X006639Y011005D02*
X006975Y011005D01*
X006876Y010886D02*
X007212Y010886D01*
X007113Y010768D02*
X007449Y010768D01*
X007349Y010649D02*
X007685Y010649D01*
X007756Y010531D02*
X007586Y010531D01*
X008305Y011479D02*
X008336Y011479D01*
X008556Y011716D02*
X008561Y011716D01*
X008870Y012427D02*
X009372Y012427D01*
X009531Y012545D02*
X008831Y012545D01*
X008602Y012664D02*
X009584Y012664D01*
X009330Y012782D02*
X009090Y012782D01*
X008701Y012782D02*
X008365Y012782D01*
X008465Y012901D02*
X008129Y012901D01*
X008228Y013019D02*
X007892Y013019D01*
X007992Y013138D02*
X007655Y013138D01*
X007755Y013256D02*
X007419Y013256D01*
X007518Y013375D02*
X006984Y013375D01*
X007043Y013493D02*
X007377Y013493D01*
X007340Y013612D02*
X007102Y013612D01*
X007161Y013730D02*
X007399Y013730D01*
X007458Y013849D02*
X007220Y013849D01*
X007279Y013967D02*
X007518Y013967D01*
X007577Y014086D02*
X007339Y014086D01*
X007398Y014204D02*
X007637Y014204D01*
X007753Y014323D02*
X007457Y014323D01*
X007516Y014441D02*
X008027Y014441D01*
X007927Y014323D02*
X008264Y014323D01*
X008163Y014204D02*
X008500Y014204D01*
X008400Y014086D02*
X008737Y014086D01*
X008637Y013967D02*
X008973Y013967D01*
X008873Y013849D02*
X009210Y013849D01*
X009110Y013730D02*
X009828Y013730D01*
X009922Y013612D02*
X009347Y013612D01*
X009414Y013493D02*
X009962Y013493D01*
X009972Y013375D02*
X009668Y013375D01*
X009624Y013849D02*
X009733Y013849D01*
X010225Y014323D02*
X013119Y014323D01*
X013244Y014441D02*
X010115Y014441D01*
X009921Y014560D02*
X013369Y014560D01*
X013494Y014678D02*
X009855Y014678D01*
X009619Y014797D02*
X013618Y014797D01*
X012994Y014204D02*
X010319Y014204D01*
X010414Y014086D02*
X012869Y014086D01*
X012744Y013967D02*
X010627Y013967D01*
X010812Y013849D02*
X012619Y013849D01*
X012493Y013730D02*
X010901Y013730D01*
X010950Y013612D02*
X010997Y013612D01*
X011324Y013612D02*
X012368Y013612D01*
X012243Y013493D02*
X011512Y013493D01*
X011602Y013375D02*
X012118Y013375D01*
X011993Y013256D02*
X011651Y013256D01*
X011658Y013138D02*
X011868Y013138D01*
X011743Y013019D02*
X011648Y013019D01*
X011618Y012901D02*
X011599Y012901D01*
X007902Y014560D02*
X007575Y014560D01*
X007634Y014678D02*
X007874Y014678D01*
X007933Y014797D02*
X007694Y014797D01*
X007753Y014915D02*
X007993Y014915D01*
X008052Y015034D02*
X007812Y015034D01*
X007871Y015152D02*
X008111Y015152D01*
X008171Y015271D02*
X007930Y015271D01*
X007193Y013256D02*
X006924Y013256D01*
X006865Y013138D02*
X007102Y013138D01*
X007043Y013019D02*
X006806Y013019D01*
X006747Y012901D02*
X006984Y012901D01*
X006924Y012782D02*
X006688Y012782D01*
X006629Y012664D02*
X006865Y012664D01*
X006812Y012545D02*
X006569Y012545D01*
X006510Y012427D02*
X006852Y012427D01*
X006094Y011123D02*
X005859Y011123D01*
X005800Y011005D02*
X006034Y011005D01*
X005975Y010886D02*
X005741Y010886D01*
X005682Y010768D02*
X005916Y010768D01*
X005856Y010649D02*
X005623Y010649D01*
X005564Y010531D02*
X005797Y010531D01*
X005761Y010412D02*
X005504Y010412D01*
X005445Y010294D02*
X005801Y010294D01*
X006950Y008516D02*
X007113Y008516D01*
X007127Y006146D02*
X007795Y006146D01*
X007677Y005909D02*
X022949Y005909D01*
X022949Y005791D02*
X007846Y005791D01*
X007922Y005672D02*
X022949Y005672D01*
X022949Y005554D02*
X015829Y005554D01*
X015855Y005543D02*
X015771Y005578D01*
X015689Y005613D01*
X015685Y005613D01*
X015682Y005615D01*
X015592Y005615D01*
X013031Y005653D01*
X013027Y005654D01*
X012938Y005654D01*
X012849Y005655D01*
X012844Y005654D01*
X012840Y005654D01*
X012758Y005619D01*
X012675Y005586D01*
X012672Y005583D01*
X011922Y005269D01*
X011790Y005136D01*
X011719Y004963D01*
X011720Y004776D01*
X011792Y004603D01*
X011925Y004472D01*
X012098Y004401D01*
X012285Y004402D01*
X013026Y004713D01*
X015391Y004677D01*
X016055Y004013D01*
X015706Y004013D01*
X015741Y003929D02*
X015635Y004183D01*
X015440Y004378D01*
X015186Y004483D01*
X014910Y004483D01*
X014656Y004378D01*
X014461Y004183D01*
X014356Y003929D01*
X014356Y003653D01*
X014461Y003399D01*
X014564Y003296D01*
X014541Y002517D01*
X014539Y002511D01*
X014539Y002424D01*
X014536Y002337D01*
X014539Y002331D01*
X014539Y002324D01*
X014572Y002244D01*
X014603Y002162D01*
X014608Y002157D01*
X014610Y002151D01*
X014672Y002090D01*
X014731Y002026D01*
X014738Y002024D01*
X015032Y001729D01*
X015165Y001597D01*
X015337Y001525D01*
X018556Y001525D01*
X018729Y001597D01*
X019994Y002862D01*
X020101Y002756D01*
X021799Y002756D01*
X021928Y002885D01*
X021928Y005232D01*
X021799Y005361D01*
X020101Y005361D01*
X019972Y005232D01*
X019972Y004170D01*
X018268Y002465D01*
X015626Y002465D01*
X015484Y002606D01*
X015503Y003267D01*
X015635Y003399D01*
X015741Y003653D01*
X015741Y003929D01*
X015741Y003895D02*
X016055Y003895D01*
X016055Y004013D02*
X016055Y002885D01*
X016184Y002756D01*
X017882Y002756D01*
X018011Y002885D01*
X018011Y003625D01*
X018034Y003625D01*
X018106Y003553D01*
X018317Y003465D01*
X018546Y003465D01*
X018757Y003553D01*
X018919Y003714D01*
X019006Y003925D01*
X019006Y004154D01*
X018919Y004365D01*
X018757Y004527D01*
X018546Y004614D01*
X018317Y004614D01*
X018106Y004527D01*
X018045Y004465D01*
X018011Y004465D01*
X018011Y005232D01*
X017882Y005361D01*
X016184Y005361D01*
X016110Y005287D01*
X015923Y005474D01*
X015860Y005539D01*
X015857Y005540D01*
X015855Y005543D01*
X015963Y005435D02*
X022949Y005435D01*
X022949Y005317D02*
X021844Y005317D01*
X021928Y005198D02*
X022949Y005198D01*
X022949Y005080D02*
X021928Y005080D01*
X021928Y004961D02*
X022949Y004961D01*
X022949Y004843D02*
X021928Y004843D01*
X021928Y004724D02*
X022974Y004724D01*
X023053Y004606D02*
X021928Y004606D01*
X021928Y004487D02*
X023172Y004487D01*
X023290Y004369D02*
X021928Y004369D01*
X021928Y004250D02*
X023409Y004250D01*
X023778Y004843D02*
X024235Y004843D01*
X024353Y004961D02*
X023659Y004961D01*
X023629Y005080D02*
X024711Y005080D01*
X024655Y005198D02*
X023629Y005198D01*
X023629Y005317D02*
X024628Y005317D01*
X024631Y005435D02*
X023629Y005435D01*
X025231Y004843D02*
X026879Y004843D01*
X026939Y004961D02*
X025499Y004961D01*
X025239Y004724D02*
X026820Y004724D01*
X026761Y004606D02*
X025288Y004606D01*
X025293Y004487D02*
X026702Y004487D01*
X026642Y004369D02*
X025293Y004369D01*
X025248Y004250D02*
X026583Y004250D01*
X026524Y004132D02*
X025192Y004132D01*
X025074Y004013D02*
X026465Y004013D01*
X026405Y003895D02*
X024840Y003895D01*
X024566Y003895D02*
X021928Y003895D01*
X021928Y004013D02*
X024332Y004013D01*
X024213Y004132D02*
X021928Y004132D01*
X021928Y003776D02*
X026346Y003776D01*
X026287Y003658D02*
X021928Y003658D01*
X021928Y003539D02*
X026228Y003539D01*
X026168Y003421D02*
X021928Y003421D01*
X021928Y003302D02*
X026109Y003302D01*
X026050Y003184D02*
X021928Y003184D01*
X021928Y003065D02*
X025991Y003065D01*
X025931Y002947D02*
X024761Y002947D01*
X024759Y002949D02*
X024497Y003057D01*
X024214Y003057D01*
X023952Y002949D01*
X023752Y002749D01*
X023643Y002487D01*
X023643Y002203D01*
X023752Y001942D01*
X023952Y001741D01*
X024214Y001633D01*
X024497Y001633D01*
X024759Y001741D01*
X024959Y001942D01*
X025068Y002203D01*
X025068Y002487D01*
X024959Y002749D01*
X024759Y002949D01*
X024880Y002828D02*
X025872Y002828D01*
X025813Y002710D02*
X024975Y002710D01*
X025024Y002591D02*
X025754Y002591D01*
X025694Y002473D02*
X025068Y002473D01*
X025068Y002354D02*
X025635Y002354D01*
X025576Y002236D02*
X025068Y002236D01*
X025032Y002117D02*
X025517Y002117D01*
X025457Y001999D02*
X024983Y001999D01*
X024898Y001880D02*
X025398Y001880D01*
X025339Y001762D02*
X024779Y001762D01*
X024521Y001643D02*
X025280Y001643D01*
X025220Y001525D02*
X011282Y001525D01*
X011282Y001643D02*
X015118Y001643D01*
X015000Y001762D02*
X011282Y001762D01*
X011282Y001880D02*
X014881Y001880D01*
X014763Y001999D02*
X011282Y001999D01*
X011282Y002117D02*
X014644Y002117D01*
X014575Y002236D02*
X011282Y002236D01*
X011282Y002354D02*
X014537Y002354D01*
X014539Y002473D02*
X011282Y002473D01*
X011239Y002591D02*
X014543Y002591D01*
X014547Y002710D02*
X011087Y002710D01*
X009853Y002828D02*
X014550Y002828D01*
X014554Y002947D02*
X009772Y002947D01*
X009692Y003065D02*
X014557Y003065D01*
X014560Y003184D02*
X009611Y003184D01*
X009531Y003302D02*
X014558Y003302D01*
X014452Y003421D02*
X009450Y003421D01*
X009370Y003539D02*
X014403Y003539D01*
X014356Y003658D02*
X009289Y003658D01*
X009209Y003776D02*
X014356Y003776D01*
X014356Y003895D02*
X009128Y003895D01*
X009048Y004013D02*
X014391Y004013D01*
X014440Y004132D02*
X008968Y004132D01*
X008887Y004250D02*
X014528Y004250D01*
X014646Y004369D02*
X008807Y004369D01*
X008726Y004487D02*
X011910Y004487D01*
X011791Y004606D02*
X008646Y004606D01*
X008565Y004724D02*
X011742Y004724D01*
X011720Y004843D02*
X008485Y004843D01*
X008404Y004961D02*
X011719Y004961D01*
X011767Y005080D02*
X008324Y005080D01*
X008243Y005198D02*
X011852Y005198D01*
X012036Y005317D02*
X008163Y005317D01*
X008082Y005435D02*
X012319Y005435D01*
X012601Y005554D02*
X008002Y005554D01*
X012489Y004487D02*
X015581Y004487D01*
X015463Y004606D02*
X012771Y004606D01*
X015450Y004369D02*
X015700Y004369D01*
X015818Y004250D02*
X015568Y004250D01*
X015656Y004132D02*
X015937Y004132D01*
X016055Y003776D02*
X015741Y003776D01*
X015741Y003658D02*
X016055Y003658D01*
X016055Y003539D02*
X015693Y003539D01*
X015644Y003421D02*
X016055Y003421D01*
X016055Y003302D02*
X015538Y003302D01*
X015501Y003184D02*
X016055Y003184D01*
X016055Y003065D02*
X015497Y003065D01*
X015494Y002947D02*
X016055Y002947D01*
X016112Y002828D02*
X015491Y002828D01*
X015487Y002710D02*
X018512Y002710D01*
X018631Y002828D02*
X017954Y002828D01*
X018011Y002947D02*
X018749Y002947D01*
X018868Y003065D02*
X018011Y003065D01*
X018011Y003184D02*
X018986Y003184D01*
X019105Y003302D02*
X018011Y003302D01*
X018011Y003421D02*
X019223Y003421D01*
X019342Y003539D02*
X018724Y003539D01*
X018862Y003658D02*
X019460Y003658D01*
X019579Y003776D02*
X018944Y003776D01*
X018993Y003895D02*
X019697Y003895D01*
X019816Y004013D02*
X019006Y004013D01*
X019006Y004132D02*
X019934Y004132D01*
X019972Y004250D02*
X018966Y004250D01*
X018915Y004369D02*
X019972Y004369D01*
X019972Y004487D02*
X018797Y004487D01*
X018566Y004606D02*
X019972Y004606D01*
X019972Y004724D02*
X018011Y004724D01*
X018011Y004606D02*
X018297Y004606D01*
X018067Y004487D02*
X018011Y004487D01*
X018011Y004843D02*
X019972Y004843D01*
X019972Y004961D02*
X018011Y004961D01*
X018011Y005080D02*
X019972Y005080D01*
X019972Y005198D02*
X018011Y005198D01*
X017926Y005317D02*
X020056Y005317D01*
X018140Y003539D02*
X018011Y003539D01*
X018394Y002591D02*
X015500Y002591D01*
X015618Y002473D02*
X018275Y002473D01*
X018894Y001762D02*
X023932Y001762D01*
X023814Y001880D02*
X019012Y001880D01*
X019131Y001999D02*
X023728Y001999D01*
X023679Y002117D02*
X019249Y002117D01*
X019368Y002236D02*
X023643Y002236D01*
X023643Y002354D02*
X019486Y002354D01*
X019605Y002473D02*
X023643Y002473D01*
X023687Y002591D02*
X019723Y002591D01*
X019842Y002710D02*
X023736Y002710D01*
X023831Y002828D02*
X021871Y002828D01*
X021928Y002947D02*
X023950Y002947D01*
X024190Y001643D02*
X018775Y001643D01*
X019960Y002828D02*
X020029Y002828D01*
X016139Y005317D02*
X016081Y005317D01*
X016735Y008753D02*
X016840Y008753D01*
X016693Y008872D02*
X016616Y008872D01*
X016636Y008990D02*
X016498Y008990D01*
X016379Y009109D02*
X016619Y009109D01*
X016635Y009227D02*
X016261Y009227D01*
X016142Y009346D02*
X016671Y009346D01*
X016671Y009464D02*
X016024Y009464D01*
X015905Y009583D02*
X016671Y009583D01*
X016671Y009701D02*
X015787Y009701D01*
X015668Y009820D02*
X016671Y009820D01*
X017351Y009820D02*
X018070Y009820D01*
X018046Y009938D02*
X017351Y009938D01*
X017369Y010057D02*
X018055Y010057D01*
X018104Y010175D02*
X017409Y010175D01*
X017409Y010294D02*
X018218Y010294D01*
X018671Y010294D02*
X019974Y010294D01*
X020093Y010412D02*
X017368Y010412D01*
X017277Y010531D02*
X020211Y010531D01*
X020699Y010057D02*
X024006Y010057D01*
X024098Y010175D02*
X020817Y010175D01*
X020936Y010294D02*
X024190Y010294D01*
X023914Y009938D02*
X020580Y009938D01*
X020462Y009820D02*
X023822Y009820D01*
X023730Y009701D02*
X020343Y009701D01*
X018582Y009583D02*
X023638Y009583D01*
X023546Y009464D02*
X017351Y009464D01*
X017351Y009346D02*
X023453Y009346D01*
X023361Y009227D02*
X017400Y009227D01*
X017415Y009109D02*
X023269Y009109D01*
X023177Y008990D02*
X017398Y008990D01*
X017341Y008872D02*
X023085Y008872D01*
X022993Y008753D02*
X017195Y008753D01*
X017351Y009583D02*
X018307Y009583D01*
X018137Y009701D02*
X017351Y009701D01*
X023558Y015745D02*
X023815Y015745D01*
X023708Y015863D02*
X023441Y015863D01*
X023325Y015982D02*
X023659Y015982D01*
X023655Y016100D02*
X023208Y016100D01*
X023091Y016219D02*
X023684Y016219D01*
X023733Y016337D02*
X022975Y016337D01*
X022980Y016456D02*
X023733Y016456D01*
X023733Y016574D02*
X023099Y016574D01*
X023217Y016693D02*
X023733Y016693D01*
X023733Y016811D02*
X023336Y016811D01*
X023454Y016930D02*
X023733Y016930D01*
X023733Y017048D02*
X023573Y017048D01*
X023691Y017167D02*
X023733Y017167D01*
X024073Y016089D02*
X024053Y016070D01*
X023463Y020129D02*
X020148Y020129D01*
X020213Y020011D02*
X020395Y020011D01*
X020784Y020011D02*
X020985Y020011D01*
X025161Y001406D02*
X011282Y001406D01*
X011275Y001288D02*
X025102Y001288D01*
X025043Y001169D02*
X011210Y001169D01*
D26*
X004683Y002901D03*
X003935Y003609D03*
X013423Y015971D03*
X028108Y018019D03*
X022832Y003885D03*
D27*
X018432Y004040D03*
D28*
X017033Y004058D01*
D29*
X006263Y005848D02*
X006110Y005848D01*
X027770Y020296D02*
X027770Y020502D01*
D30*
X004407Y004515D03*
D31*
X005741Y005848D02*
X006110Y005848D01*
D32*
X027734Y008812D02*
X027380Y010823D01*
X027557Y011158D01*
X028147Y011390D02*
X027914Y011859D01*
X028541Y012152D02*
X028738Y011404D01*
X028777Y011030D01*
X029400Y010630D01*
X028872Y009574D02*
X028344Y009869D01*
X028147Y011390D01*
X028541Y012291D02*
X028272Y012561D01*
X028994Y012740D02*
X028629Y013262D01*
X028994Y012740D02*
X029545Y011916D01*
X030209Y012742D02*
X028986Y013964D01*
X029344Y014666D02*
X030251Y014152D01*
M02*
