  0
SECTION
  2
HEADER
  9
$ACADVER
  1
AC1009
  9
$INSBASE
 10
0.0
 20
0.0
 30
0.0
  9
$EXTMIN
 10
-3.440399999999999
 20
-48.811184298015043
 30
0.0
  9
$EXTMAX
 10
278.38054993097018
 20
177.5943649892198
 30
0.0
  9
$LIMMIN
 10
0.0
 20
0.0
  9
$LIMMAX
 10
12.0
 20
9.0
  9
$ORTHOMODE
 70
     0
  9
$REGENMODE
 70
     1
  9
$FILLMODE
 70
     1
  9
$QTEXTMODE
 70
     0
  9
$MIRRTEXT
 70
     0
  9
$DRAGMODE
 70
     2
  9
$LTSCALE
 40
1.0
  9
$OSMODE
 70
   167
  9
$ATTMODE
 70
     1
  9
$TEXTSIZE
 40
0.2
  9
$TRACEWID
 40
0.05
  9
$TEXTSTYLE
  7
STANDARD
  9
$CLAYER
  8
0
  9
$CELTYPE
  6
CONTINUOUS
  9
$CECOLOR
 62
   256
  9
$DIMSCALE
 40
1.0
  9
$DIMASZ
 40
0.18
  9
$DIMEXO
 40
0.0625
  9
$DIMDLI
 40
0.38
  9
$DIMRND
 40
0.0
  9
$DIMDLE
 40
0.0
  9
$DIMEXE
 40
0.18
  9
$DIMTP
 40
0.0
  9
$DIMTM
 40
0.0
  9
$DIMTXT
 40
0.18
  9
$DIMCEN
 40
0.09
  9
$DIMTSZ
 40
0.0
  9
$DIMTOL
 70
     0
  9
$DIMLIM
 70
     0
  9
$DIMTIH
 70
     1
  9
$DIMTOH
 70
     1
  9
$DIMSE1
 70
     0
  9
$DIMSE2
 70
     0
  9
$DIMTAD
 70
     0
  9
$DIMZIN
 70
     0
  9
$DIMBLK
  1

  9
$DIMASO
 70
     1
  9
$DIMSHO
 70
     1
  9
$DIMPOST
  1

  9
$DIMAPOST
  1

  9
$DIMALT
 70
     0
  9
$DIMALTD
 70
     2
  9
$DIMALTF
 40
25.399999999999999
  9
$DIMLFAC
 40
1.0
  9
$DIMTOFL
 70
     0
  9
$DIMTVP
 40
0.0
  9
$DIMTIX
 70
     0
  9
$DIMSOXD
 70
     0
  9
$DIMSAH
 70
     0
  9
$DIMBLK1
  1

  9
$DIMBLK2
  1

  9
$DIMSTYLE
  2
STANDARD
  9
$DIMCLRD
 70
     0
  9
$DIMCLRE
 70
     0
  9
$DIMCLRT
 70
     0
  9
$DIMTFAC
 40
1.0
  9
$DIMGAP
 40
0.09
  9
$LUNITS
 70
     2
  9
$LUPREC
 70
     4
  9
$SKETCHINC
 40
0.1
  9
$FILLETRAD
 40
0.0
  9
$AUNITS
 70
     0
  9
$AUPREC
 70
     0
  9
$MENU
  1
.
  9
$ELEVATION
 40
0.0
  9
$PELEVATION
 40
0.0
  9
$THICKNESS
 40
0.0
  9
$LIMCHECK
 70
     0
  9
$BLIPMODE
 70
     0
  9
$CHAMFERA
 40
0.0
  9
$CHAMFERB
 40
0.0
  9
$SKPOLY
 70
     0
  9
$TDCREATE
 40
2456788.5949262269
  9
$TDUPDATE
 40
2456789.8761144448
  9
$TDINDWG
 40
0.219369456
  9
$TDUSRTIMER
 40
0.2193694213
  9
$USRTIMER
 70
     1
  9
$ANGBASE
 50
0.0
  9
$ANGDIR
 70
     0
  9
$PDMODE
 70
     0
  9
$PDSIZE
 40
0.0
  9
$PLINEWID
 40
0.0
  9
$COORDS
 70
     1
  9
$SPLFRAME
 70
     0
  9
$SPLINETYPE
 70
     6
  9
$SPLINESEGS
 70
     8
  9
$ATTDIA
 70
     1
  9
$ATTREQ
 70
     1
  9
$HANDLING
 70
     1
  9
$HANDSEED
  5
28DE
  9
$SURFTAB1
 70
     6
  9
$SURFTAB2
 70
     6
  9
$SURFTYPE
 70
     6
  9
$SURFU
 70
     6
  9
$SURFV
 70
     6
  9
$UCSNAME
  2

  9
$UCSORG
 10
0.0
 20
0.0
 30
0.0
  9
$UCSXDIR
 10
1.0
 20
0.0
 30
0.0
  9
$UCSYDIR
 10
0.0
 20
1.0
 30
0.0
  9
$PUCSNAME
  2

  9
$PUCSORG
 10
0.0
 20
0.0
 30
0.0
  9
$PUCSXDIR
 10
1.0
 20
0.0
 30
0.0
  9
$PUCSYDIR
 10
0.0
 20
1.0
 30
0.0
  9
$USERI1
 70
     0
  9
$USERI2
 70
     0
  9
$USERI3
 70
     0
  9
$USERI4
 70
     0
  9
$USERI5
 70
     0
  9
$USERR1
 40
0.0
  9
$USERR2
 40
0.0
  9
$USERR3
 40
0.0
  9
$USERR4
 40
0.0
  9
$USERR5
 40
0.0
  9
$WORLDVIEW
 70
     1
  9
$SHADEDGE
 70
     3
  9
$SHADEDIF
 70
    70
  9
$TILEMODE
 70
     1
  9
$MAXACTVP
 70
    64
  9
$PLIMCHECK
 70
     0
  9
$PEXTMIN
 10
1.0000000000000000E+020
 20
1.0000000000000000E+020
 30
1.0000000000000000E+020
  9
$PEXTMAX
 10
-1.0000000000000000E+020
 20
-1.0000000000000000E+020
 30
-1.0000000000000000E+020
  9
$PLIMMIN
 10
0.0
 20
0.0
  9
$PLIMMAX
 10
12.0
 20
9.0
  9
$UNITMODE
 70
     0
  9
$VISRETAIN
 70
     1
  9
$PLINEGEN
 70
     0
  9
$PSLTSCALE
 70
     1
  0
ENDSEC
  0
SECTION
  2
TABLES
  0
TABLE
  2
VPORT
 70
     1
  0
VPORT
  2
*ACTIVE
 70
     0
 10
0.0
 20
0.0
 11
1.0
 21
1.0
 12
57.392022555657398
 22
24.140692336303189
 13
0.0
 23
0.0
 14
1.0
 24
1.0
 15
0.0
 25
0.0
 16
0.0
 26
0.0
 36
1.0
 17
0.0
 27
0.0
 37
0.0
 40
127.3747520315422
 41
1.786201022146507
 42
50.0
 43
0.0
 44
0.0
 50
0.0
 51
0.0
 71
     0
 72
   100
 73
     1
 74
     1
 75
     0
 76
     0
 77
     0
 78
     0
  0
ENDTAB
  0
TABLE
  2
LTYPE
 70
     2
  0
LTYPE
  2
CONTINUOUS
 70
     0
  3
Solid line
 72
    65
 73
     0
 40
0.0
  0
ENDTAB
  0
TABLE
  2
LAYER
 70
     4
  0
LAYER
  2
0
 70
     0
 62
     7
  6
CONTINUOUS
  0
LAYER
  2
20
 70
     0
 62
     7
  6
CONTINUOUS
  0
LAYER
  2
22
 70
     0
 62
   253
  6
CONTINUOUS
  0
LAYER
  2
46
 70
     0
 62
   140
  6
CONTINUOUS
  0
ENDTAB
  0
TABLE
  2
STYLE
 70
     1
  0
STYLE
  2
STANDARD
 70
     0
 40
0.0
 41
1.0
 50
0.0
 71
     0
 42
0.2
  3
txt
  4

  0
ENDTAB
  0
TABLE
  2
VIEW
 70
     0
  0
ENDTAB
  0
TABLE
  2
UCS
 70
     0
  0
ENDTAB
  0
TABLE
  2
APPID
 70
     5
  0
APPID
  2
ACAD
 70
     0
  0
APPID
  2
ACADANNOTATIVE
 70
     0
  0
APPID
  2
ACAD_EXEMPT_FROM_CAD_STANDARDS
 70
     0
  0
APPID
  2
ACAD_NAV_VCDISPLAY
 70
     0
  0
APPID
  2
ACAD_MLEADERVER
 70
     0
  0
ENDTAB
  0
TABLE
  2
DIMSTYLE
 70
     2
  0
DIMSTYLE
  2
STANDARD
 70
     0
  3

  4

  5

  6

  7

 40
1.0
 41
0.18
 42
0.0625
 43
0.38
 44
0.18
 45
0.0
 46
0.0
 47
0.0
 48
0.0
140
0.18
141
0.09
142
0.0
143
25.399999999999999
144
1.0
145
0.0
146
1.0
147
0.09
 71
     0
 72
     0
 73
     1
 74
     1
 75
     0
 76
     0
 77
     0
 78
     0
170
     0
171
     2
172
     0
173
     0
174
     0
175
     0
176
     0
177
     0
178
     0
  0
ENDTAB
  0
ENDSEC
  0
SECTION
  2
BLOCKS
  0
BLOCK
  8
0
  2
$MODEL_SPACE
 70
     0
 10
0.0
 20
0.0
 30
0.0
  3
$MODEL_SPACE
  1

  0
ENDBLK
  5
71
  8
0
  0
BLOCK
 67
     1
  8
0
  2
$PAPER_SPACE
 70
     0
 10
0.0
 20
0.0
 30
0.0
  3
$PAPER_SPACE
  1

  0
ENDBLK
  5
6D
 67
     1
  8
0
  0
BLOCK
  8
0
  2
*U1
 70
     1
 10
0.0
 20
0.0
 30
0.0
  3
*U1
  1

  0
POLYLINE
  5
1B3F
  8
0
  6
CONTINUOUS
 66
     1
 10
0.0
 20
0.0
 30
0.0
  0
VERTEX
  5
2322
  8
0
  6
CONTINUOUS
 10
3.6470410168666261
 20
3.2836787770161231
 30
0.0
  0
VERTEX
  5
2323
  8
0
  6
CONTINUOUS
 10
-3.6470410168666252
 20
3.283678777016124
 30
0.0
  0
SEQEND
  5
2324
  8
0
  6
CONTINUOUS
  0
LINE
  5
1B40
  8
0
  6
CONTINUOUS
 10
0.3658344551731698
 20
-3.283678777016124
 30
0.0
 11
3.6470410168666261
 21
3.2836787770161231
 31
0.0
  0
ENDBLK
  5
1B3A
  8
0
  0
BLOCK
  8
0
  2
*U2
 70
     1
 10
0.0
 20
0.0
 30
0.0
  3
*U2
  1

  0
INSERT
  5
1B4F
  8
0
  6
BYBLOCK
 62
     0
  2
*U1
 10
0.0
 20
0.0
 30
0.0
  0
INSERT
  5
1B50
  8
0
  6
BYBLOCK
 62
     0
  2
*U1
 10
0.0000000000000004
 20
6.5730821980412504
 30
0.0
  0
INSERT
  5
1B51
  8
0
  6
BYBLOCK
 62
     0
  2
*U1
 10
0.0000000000000008
 20
13.146164396082501
 30
0.0
  0
INSERT
  5
1B52
  8
0
  6
BYBLOCK
 62
     0
  2
*U1
 10
0.0000000000000012
 20
19.719246594123749
 30
0.0
  0
INSERT
  5
1B53
  8
0
  6
BYBLOCK
 62
     0
  2
*U1
 10
0.0000000000000016
 20
26.292328792165002
 30
0.0
  0
INSERT
  5
1B54
  8
0
  6
BYBLOCK
 62
     0
  2
*U1
 10
0.000000000000002
 20
32.86541099020625
 30
0.0
  0
INSERT
  5
1B55
  8
0
  6
BYBLOCK
 62
     0
  2
*U1
 10
7.285843488648819
 20
0.0
 30
0.0
  0
INSERT
  5
1B56
  8
0
  6
BYBLOCK
 62
     0
  2
*U1
 10
7.285843488648819
 20
6.5730821980412504
 30
0.0
  0
INSERT
  5
1B57
  8
0
  6
BYBLOCK
 62
     0
  2
*U1
 10
7.285843488648819
 20
13.146164396082501
 30
0.0
  0
INSERT
  5
1B58
  8
0
  6
BYBLOCK
 62
     0
  2
*U1
 10
7.285843488648819
 20
19.719246594123749
 30
0.0
  0
INSERT
  5
1B59
  8
0
  6
BYBLOCK
 62
     0
  2
*U1
 10
7.2858434886488199
 20
26.292328792165002
 30
0.0
  0
INSERT
  5
1B5A
  8
0
  6
BYBLOCK
 62
     0
  2
*U1
 10
7.2858434886488199
 20
32.86541099020625
 30
0.0
  0
INSERT
  5
1B5B
  8
0
  6
BYBLOCK
 62
     0
  2
*U1
 10
14.57168697729764
 20
0.0
 30
0.0
  0
INSERT
  5
1B5C
  8
0
  6
BYBLOCK
 62
     0
  2
*U1
 10
14.57168697729764
 20
6.5730821980412504
 30
0.0
  0
INSERT
  5
1B5D
  8
0
  6
BYBLOCK
 62
     0
  2
*U1
 10
14.57168697729764
 20
13.146164396082501
 30
0.0
  0
INSERT
  5
1B5E
  8
0
  6
BYBLOCK
 62
     0
  2
*U1
 10
14.57168697729764
 20
19.719246594123749
 30
0.0
  0
INSERT
  5
1B5F
  8
0
  6
BYBLOCK
 62
     0
  2
*U1
 10
14.57168697729764
 20
26.292328792165002
 30
0.0
  0
INSERT
  5
1B60
  8
0
  6
BYBLOCK
 62
     0
  2
*U1
 10
14.57168697729764
 20
32.86541099020625
 30
0.0
  0
INSERT
  5
1B61
  8
0
  6
BYBLOCK
 62
     0
  2
*U1
 10
21.857530465946461
 20
0.0
 30
0.0
  0
INSERT
  5
1B62
  8
0
  6
BYBLOCK
 62
     0
  2
*U1
 10
21.857530465946461
 20
6.5730821980412504
 30
0.0
  0
INSERT
  5
1B63
  8
0
  6
BYBLOCK
 62
     0
  2
*U1
 10
21.857530465946461
 20
13.146164396082501
 30
0.0
  0
INSERT
  5
1B64
  8
0
  6
BYBLOCK
 62
     0
  2
*U1
 10
21.857530465946461
 20
19.719246594123749
 30
0.0
  0
INSERT
  5
1B65
  8
0
  6
BYBLOCK
 62
     0
  2
*U1
 10
21.857530465946461
 20
26.292328792165002
 30
0.0
  0
INSERT
  5
1B66
  8
0
  6
BYBLOCK
 62
     0
  2
*U1
 10
21.857530465946461
 20
32.86541099020625
 30
0.0
  0
INSERT
  5
1B67
  8
0
  6
BYBLOCK
 62
     0
  2
*U1
 10
29.14337395459528
 20
0.0
 30
0.0
  0
INSERT
  5
1B68
  8
0
  6
BYBLOCK
 62
     0
  2
*U1
 10
29.14337395459528
 20
6.5730821980412504
 30
0.0
  0
INSERT
  5
1B69
  8
0
  6
BYBLOCK
 62
     0
  2
*U1
 10
29.14337395459528
 20
13.146164396082501
 30
0.0
  0
INSERT
  5
1B6A
  8
0
  6
BYBLOCK
 62
     0
  2
*U1
 10
29.14337395459528
 20
19.719246594123749
 30
0.0
  0
INSERT
  5
1B6B
  8
0
  6
BYBLOCK
 62
     0
  2
*U1
 10
29.14337395459528
 20
26.292328792165002
 30
0.0
  0
INSERT
  5
1B6C
  8
0
  6
BYBLOCK
 62
     0
  2
*U1
 10
29.14337395459528
 20
32.86541099020625
 30
0.0
  0
INSERT
  5
1B6D
  8
0
  6
BYBLOCK
 62
     0
  2
*U1
 10
36.429217443244099
 20
0.0
 30
0.0
  0
INSERT
  5
1B6E
  8
0
  6
BYBLOCK
 62
     0
  2
*U1
 10
36.429217443244099
 20
6.5730821980412504
 30
0.0
  0
INSERT
  5
1B6F
  8
0
  6
BYBLOCK
 62
     0
  2
*U1
 10
36.429217443244099
 20
13.146164396082501
 30
0.0
  0
INSERT
  5
1B70
  8
0
  6
BYBLOCK
 62
     0
  2
*U1
 10
36.429217443244099
 20
19.719246594123749
 30
0.0
  0
INSERT
  5
1B71
  8
0
  6
BYBLOCK
 62
     0
  2
*U1
 10
36.429217443244099
 20
26.292328792165002
 30
0.0
  0
INSERT
  5
1B72
  8
0
  6
BYBLOCK
 62
     0
  2
*U1
 10
36.429217443244099
 20
32.86541099020625
 30
0.0
  0
INSERT
  5
1B73
  8
0
  6
BYBLOCK
 62
     0
  2
*U1
 10
43.715060931892907
 20
0.0
 30
0.0
  0
INSERT
  5
1B74
  8
0
  6
BYBLOCK
 62
     0
  2
*U1
 10
43.715060931892907
 20
6.5730821980412504
 30
0.0
  0
INSERT
  5
1B75
  8
0
  6
BYBLOCK
 62
     0
  2
*U1
 10
43.715060931892907
 20
13.146164396082501
 30
0.0
  0
INSERT
  5
1B76
  8
0
  6
BYBLOCK
 62
     0
  2
*U1
 10
43.715060931892907
 20
19.719246594123749
 30
0.0
  0
INSERT
  5
1B77
  8
0
  6
BYBLOCK
 62
     0
  2
*U1
 10
43.715060931892907
 20
26.292328792165002
 30
0.0
  0
INSERT
  5
1B78
  8
0
  6
BYBLOCK
 62
     0
  2
*U1
 10
43.715060931892907
 20
32.86541099020625
 30
0.0
  0
INSERT
  5
1B79
  8
0
  6
BYBLOCK
 62
     0
  2
*U1
 10
51.00090442054173
 20
0.0
 30
0.0
  0
INSERT
  5
1B7A
  8
0
  6
BYBLOCK
 62
     0
  2
*U1
 10
51.00090442054173
 20
6.5730821980412504
 30
0.0
  0
INSERT
  5
1B7B
  8
0
  6
BYBLOCK
 62
     0
  2
*U1
 10
51.00090442054173
 20
13.146164396082501
 30
0.0
  0
INSERT
  5
1B7C
  8
0
  6
BYBLOCK
 62
     0
  2
*U1
 10
51.00090442054173
 20
19.719246594123749
 30
0.0
  0
INSERT
  5
1B7D
  8
0
  6
BYBLOCK
 62
     0
  2
*U1
 10
51.00090442054173
 20
26.292328792165002
 30
0.0
  0
INSERT
  5
1B7E
  8
0
  6
BYBLOCK
 62
     0
  2
*U1
 10
51.00090442054173
 20
32.86541099020625
 30
0.0
  0
INSERT
  5
1BC4
  8
0
  6
BYBLOCK
 62
     0
  2
*U1
 10
0.0000000000000024
 20
39.438493188247513
 30
0.0
  0
INSERT
  5
1BC5
  8
0
  6
BYBLOCK
 62
     0
  2
*U1
 10
0.0000000000000028
 20
46.011575386288747
 30
0.0
  0
INSERT
  5
1BC6
  8
0
  6
BYBLOCK
 62
     0
  2
*U1
 10
7.2858434886488208
 20
39.438493188247513
 30
0.0
  0
INSERT
  5
1BC7
  8
0
  6
BYBLOCK
 62
     0
  2
*U1
 10
7.2858434886488208
 20
46.011575386288747
 30
0.0
  0
INSERT
  5
1BC8
  8
0
  6
BYBLOCK
 62
     0
  2
*U1
 10
14.57168697729764
 20
39.438493188247513
 30
0.0
  0
INSERT
  5
1BC9
  8
0
  6
BYBLOCK
 62
     0
  2
*U1
 10
14.57168697729764
 20
46.011575386288747
 30
0.0
  0
INSERT
  5
1BCA
  8
0
  6
BYBLOCK
 62
     0
  2
*U1
 10
21.857530465946461
 20
39.438493188247513
 30
0.0
  0
INSERT
  5
1BCB
  8
0
  6
BYBLOCK
 62
     0
  2
*U1
 10
21.857530465946461
 20
46.011575386288747
 30
0.0
  0
INSERT
  5
1BCC
  8
0
  6
BYBLOCK
 62
     0
  2
*U1
 10
29.14337395459528
 20
39.438493188247513
 30
0.0
  0
INSERT
  5
1BCD
  8
0
  6
BYBLOCK
 62
     0
  2
*U1
 10
29.14337395459528
 20
46.011575386288747
 30
0.0
  0
INSERT
  5
1BCE
  8
0
  6
BYBLOCK
 62
     0
  2
*U1
 10
36.429217443244099
 20
39.438493188247513
 30
0.0
  0
INSERT
  5
1BCF
  8
0
  6
BYBLOCK
 62
     0
  2
*U1
 10
36.429217443244099
 20
46.011575386288747
 30
0.0
  0
INSERT
  5
1BD0
  8
0
  6
BYBLOCK
 62
     0
  2
*U1
 10
43.715060931892907
 20
39.438493188247513
 30
0.0
  0
INSERT
  5
1BD1
  8
0
  6
BYBLOCK
 62
     0
  2
*U1
 10
43.715060931892907
 20
46.011575386288747
 30
0.0
  0
INSERT
  5
1BD2
  8
0
  6
BYBLOCK
 62
     0
  2
*U1
 10
51.00090442054173
 20
39.438493188247513
 30
0.0
  0
INSERT
  5
1BD3
  8
0
  6
BYBLOCK
 62
     0
  2
*U1
 10
51.00090442054173
 20
46.011575386288747
 30
0.0
  0
INSERT
  5
1BD4
  8
0
  6
BYBLOCK
 62
     0
  2
*U1
 10
58.286747909190552
 20
0.0
 30
0.0
  0
INSERT
  5
1BD5
  8
0
  6
BYBLOCK
 62
     0
  2
*U1
 10
58.286747909190552
 20
6.5730821980412504
 30
0.0
  0
INSERT
  5
1BD6
  8
0
  6
BYBLOCK
 62
     0
  2
*U1
 10
58.286747909190552
 20
13.146164396082501
 30
0.0
  0
INSERT
  5
1BD7
  8
0
  6
BYBLOCK
 62
     0
  2
*U1
 10
58.286747909190552
 20
19.719246594123749
 30
0.0
  0
INSERT
  5
1BD8
  8
0
  6
BYBLOCK
 62
     0
  2
*U1
 10
58.286747909190552
 20
26.292328792165002
 30
0.0
  0
INSERT
  5
1BD9
  8
0
  6
BYBLOCK
 62
     0
  2
*U1
 10
58.286747909190552
 20
32.86541099020625
 30
0.0
  0
INSERT
  5
1BDA
  8
0
  6
BYBLOCK
 62
     0
  2
*U1
 10
58.286747909190552
 20
39.438493188247513
 30
0.0
  0
INSERT
  5
1BDB
  8
0
  6
BYBLOCK
 62
     0
  2
*U1
 10
58.286747909190552
 20
46.011575386288747
 30
0.0
  0
INSERT
  5
1BF4
  8
0
  6
BYBLOCK
 62
     0
  2
*U1
 10
0.0000000000000032
 20
52.58465758433001
 30
0.0
  0
INSERT
  5
1BF5
  8
0
  6
BYBLOCK
 62
     0
  2
*U1
 10
7.2858434886488217
 20
52.58465758433001
 30
0.0
  0
INSERT
  5
1BF6
  8
0
  6
BYBLOCK
 62
     0
  2
*U1
 10
14.57168697729764
 20
52.58465758433001
 30
0.0
  0
INSERT
  5
1BF7
  8
0
  6
BYBLOCK
 62
     0
  2
*U1
 10
21.857530465946461
 20
52.58465758433001
 30
0.0
  0
INSERT
  5
1BF8
  8
0
  6
BYBLOCK
 62
     0
  2
*U1
 10
29.14337395459528
 20
52.58465758433001
 30
0.0
  0
INSERT
  5
1BF9
  8
0
  6
BYBLOCK
 62
     0
  2
*U1
 10
36.429217443244099
 20
52.58465758433001
 30
0.0
  0
INSERT
  5
1BFA
  8
0
  6
BYBLOCK
 62
     0
  2
*U1
 10
43.715060931892907
 20
52.58465758433001
 30
0.0
  0
INSERT
  5
1BFB
  8
0
  6
BYBLOCK
 62
     0
  2
*U1
 10
51.00090442054173
 20
52.58465758433001
 30
0.0
  0
INSERT
  5
1BFC
  8
0
  6
BYBLOCK
 62
     0
  2
*U1
 10
58.286747909190552
 20
52.58465758433001
 30
0.0
  0
INSERT
  5
1C09
  8
0
  6
BYBLOCK
 62
     0
  2
*U1
 10
65.572591397839375
 20
0.0
 30
0.0
  0
INSERT
  5
1C0A
  8
0
  6
BYBLOCK
 62
     0
  2
*U1
 10
65.572591397839375
 20
6.5730821980412504
 30
0.0
  0
INSERT
  5
1C0B
  8
0
  6
BYBLOCK
 62
     0
  2
*U1
 10
65.572591397839375
 20
13.146164396082501
 30
0.0
  0
INSERT
  5
1C0C
  8
0
  6
BYBLOCK
 62
     0
  2
*U1
 10
65.572591397839375
 20
19.719246594123749
 30
0.0
  0
INSERT
  5
1C0D
  8
0
  6
BYBLOCK
 62
     0
  2
*U1
 10
65.572591397839375
 20
26.292328792165002
 30
0.0
  0
INSERT
  5
1C0E
  8
0
  6
BYBLOCK
 62
     0
  2
*U1
 10
65.572591397839375
 20
32.86541099020625
 30
0.0
  0
INSERT
  5
1C0F
  8
0
  6
BYBLOCK
 62
     0
  2
*U1
 10
65.572591397839375
 20
39.438493188247513
 30
0.0
  0
INSERT
  5
1C10
  8
0
  6
BYBLOCK
 62
     0
  2
*U1
 10
65.572591397839375
 20
46.011575386288747
 30
0.0
  0
INSERT
  5
1C11
  8
0
  6
BYBLOCK
 62
     0
  2
*U1
 10
65.572591397839375
 20
52.58465758433001
 30
0.0
  0
INSERT
  5
1C12
  8
0
  6
BYBLOCK
 62
     0
  2
*U1
 10
72.858434886488183
 20
0.0
 30
0.0
  0
INSERT
  5
1C13
  8
0
  6
BYBLOCK
 62
     0
  2
*U1
 10
72.858434886488183
 20
6.5730821980412504
 30
0.0
  0
INSERT
  5
1C14
  8
0
  6
BYBLOCK
 62
     0
  2
*U1
 10
72.858434886488183
 20
13.146164396082501
 30
0.0
  0
INSERT
  5
1C15
  8
0
  6
BYBLOCK
 62
     0
  2
*U1
 10
72.858434886488183
 20
19.719246594123749
 30
0.0
  0
INSERT
  5
1C16
  8
0
  6
BYBLOCK
 62
     0
  2
*U1
 10
72.858434886488183
 20
26.292328792165002
 30
0.0
  0
INSERT
  5
1C17
  8
0
  6
BYBLOCK
 62
     0
  2
*U1
 10
72.858434886488183
 20
32.86541099020625
 30
0.0
  0
INSERT
  5
1C18
  8
0
  6
BYBLOCK
 62
     0
  2
*U1
 10
72.858434886488183
 20
39.438493188247513
 30
0.0
  0
INSERT
  5
1C19
  8
0
  6
BYBLOCK
 62
     0
  2
*U1
 10
72.858434886488183
 20
46.011575386288747
 30
0.0
  0
INSERT
  5
1C1A
  8
0
  6
BYBLOCK
 62
     0
  2
*U1
 10
72.858434886488183
 20
52.58465758433001
 30
0.0
  0
INSERT
  5
1C1B
  8
0
  6
BYBLOCK
 62
     0
  2
*U1
 10
80.144278375137006
 20
0.0
 30
0.0
  0
INSERT
  5
1C1C
  8
0
  6
BYBLOCK
 62
     0
  2
*U1
 10
80.144278375137006
 20
6.5730821980412504
 30
0.0
  0
INSERT
  5
1C1D
  8
0
  6
BYBLOCK
 62
     0
  2
*U1
 10
80.144278375137006
 20
13.146164396082501
 30
0.0
  0
INSERT
  5
1C1E
  8
0
  6
BYBLOCK
 62
     0
  2
*U1
 10
80.144278375137006
 20
19.719246594123749
 30
0.0
  0
INSERT
  5
1C1F
  8
0
  6
BYBLOCK
 62
     0
  2
*U1
 10
80.144278375137006
 20
26.292328792165002
 30
0.0
  0
INSERT
  5
1C20
  8
0
  6
BYBLOCK
 62
     0
  2
*U1
 10
80.144278375137006
 20
32.86541099020625
 30
0.0
  0
INSERT
  5
1C21
  8
0
  6
BYBLOCK
 62
     0
  2
*U1
 10
80.144278375137006
 20
39.438493188247513
 30
0.0
  0
INSERT
  5
1C22
  8
0
  6
BYBLOCK
 62
     0
  2
*U1
 10
80.144278375137006
 20
46.011575386288747
 30
0.0
  0
INSERT
  5
1C23
  8
0
  6
BYBLOCK
 62
     0
  2
*U1
 10
80.144278375137006
 20
52.58465758433001
 30
0.0
  0
INSERT
  5
1C24
  8
0
  6
BYBLOCK
 62
     0
  2
*U1
 10
87.430121863785828
 20
0.0
 30
0.0
  0
INSERT
  5
1C25
  8
0
  6
BYBLOCK
 62
     0
  2
*U1
 10
87.430121863785828
 20
6.5730821980412504
 30
0.0
  0
INSERT
  5
1C26
  8
0
  6
BYBLOCK
 62
     0
  2
*U1
 10
87.430121863785828
 20
13.146164396082501
 30
0.0
  0
INSERT
  5
1C27
  8
0
  6
BYBLOCK
 62
     0
  2
*U1
 10
87.430121863785828
 20
19.719246594123749
 30
0.0
  0
INSERT
  5
1C28
  8
0
  6
BYBLOCK
 62
     0
  2
*U1
 10
87.430121863785828
 20
26.292328792165002
 30
0.0
  0
INSERT
  5
1C29
  8
0
  6
BYBLOCK
 62
     0
  2
*U1
 10
87.430121863785828
 20
32.86541099020625
 30
0.0
  0
INSERT
  5
1C2A
  8
0
  6
BYBLOCK
 62
     0
  2
*U1
 10
87.430121863785828
 20
39.438493188247513
 30
0.0
  0
INSERT
  5
1C2B
  8
0
  6
BYBLOCK
 62
     0
  2
*U1
 10
87.430121863785828
 20
46.011575386288747
 30
0.0
  0
INSERT
  5
1C2C
  8
0
  6
BYBLOCK
 62
     0
  2
*U1
 10
87.430121863785828
 20
52.58465758433001
 30
0.0
  0
ENDBLK
  5
1B3D
  8
0
  0
BLOCK
  8
0
  2
*U3
 70
     1
 10
0.0
 20
0.0
 30
0.0
  3
*U3
  1

  0
POLYLINE
  5
1B82
  8
0
  6
CONTINUOUS
 66
     1
 10
0.0
 20
0.0
 30
0.0
  0
VERTEX
  5
2325
  8
0
  6
CONTINUOUS
 10
3.6470410168666261
 20
3.2836787770161231
 30
0.0
  0
VERTEX
  5
2326
  8
0
  6
CONTINUOUS
 10
-3.6470410168666252
 20
3.283678777016124
 30
0.0
  0
SEQEND
  5
2327
  8
0
  6
CONTINUOUS
  0
LINE
  5
1B83
  8
0
  6
CONTINUOUS
 10
0.3658344551731698
 20
-3.283678777016124
 30
0.0
 11
3.6470410168666261
 21
3.2836787770161231
 31
0.0
  0
ENDBLK
  5
1B84
  8
0
  0
BLOCK
  8
0
  2
*U5
 70
     1
 10
0.0
 20
0.0
 30
0.0
  3
*U5
  1

  0
INSERT
  5
1B89
  8
0
  6
BYBLOCK
 62
     0
  2
*U3
 10
0.0
 20
0.0
 30
0.0
  0
INSERT
  5
1B8A
  8
0
  6
BYBLOCK
 62
     0
  2
*U3
 10
0.0000000000000006
 20
9.8510363310483751
 30
0.0
  0
INSERT
  5
1B8B
  8
0
  6
BYBLOCK
 62
     0
  2
*U3
 10
0.0000000000000012
 20
19.70207266209675
 30
0.0
  0
INSERT
  5
1B8C
  8
0
  6
BYBLOCK
 62
     0
  2
*U3
 10
0.0000000000000018
 20
29.553108993145131
 30
0.0
  0
INSERT
  5
1B8D
  8
0
  6
BYBLOCK
 62
     0
  2
*U3
 10
0.0000000000000024
 20
39.4041453241935
 30
0.0
  0
INSERT
  5
1B8E
  8
0
  6
BYBLOCK
 62
     0
  2
*U3
 10
0.000000000000003
 20
49.255181655241877
 30
0.0
  0
INSERT
  5
1B8F
  8
0
  6
BYBLOCK
 62
     0
  2
*U3
 10
10.94112305059987
 20
0.0
 30
0.0
  0
INSERT
  5
1B90
  8
0
  6
BYBLOCK
 62
     0
  2
*U3
 10
10.94112305059987
 20
9.8510363310483751
 30
0.0
  0
INSERT
  5
1B91
  8
0
  6
BYBLOCK
 62
     0
  2
*U3
 10
10.941123050599881
 20
19.70207266209675
 30
0.0
  0
INSERT
  5
1B92
  8
0
  6
BYBLOCK
 62
     0
  2
*U3
 10
10.941123050599881
 20
29.553108993145131
 30
0.0
  0
INSERT
  5
1B93
  8
0
  6
BYBLOCK
 62
     0
  2
*U3
 10
10.941123050599881
 20
39.4041453241935
 30
0.0
  0
INSERT
  5
1B94
  8
0
  6
BYBLOCK
 62
     0
  2
*U3
 10
10.941123050599881
 20
49.255181655241877
 30
0.0
  0
INSERT
  5
1B95
  8
0
  6
BYBLOCK
 62
     0
  2
*U3
 10
21.882246101199751
 20
0.0
 30
0.0
  0
INSERT
  5
1B96
  8
0
  6
BYBLOCK
 62
     0
  2
*U3
 10
21.882246101199751
 20
9.8510363310483751
 30
0.0
  0
INSERT
  5
1B97
  8
0
  6
BYBLOCK
 62
     0
  2
*U3
 10
21.882246101199751
 20
19.70207266209675
 30
0.0
  0
INSERT
  5
1B98
  8
0
  6
BYBLOCK
 62
     0
  2
*U3
 10
21.882246101199762
 20
29.553108993145131
 30
0.0
  0
INSERT
  5
1B99
  8
0
  6
BYBLOCK
 62
     0
  2
*U3
 10
21.882246101199762
 20
39.4041453241935
 30
0.0
  0
INSERT
  5
1B9A
  8
0
  6
BYBLOCK
 62
     0
  2
*U3
 10
21.882246101199762
 20
49.255181655241877
 30
0.0
  0
INSERT
  5
1B9B
  8
0
  6
BYBLOCK
 62
     0
  2
*U3
 10
32.823369151799632
 20
0.0
 30
0.0
  0
INSERT
  5
1B9C
  8
0
  6
BYBLOCK
 62
     0
  2
*U3
 10
32.823369151799632
 20
9.8510363310483751
 30
0.0
  0
INSERT
  5
1B9D
  8
0
  6
BYBLOCK
 62
     0
  2
*U3
 10
32.823369151799632
 20
19.70207266209675
 30
0.0
  0
INSERT
  5
1B9E
  8
0
  6
BYBLOCK
 62
     0
  2
*U3
 10
32.823369151799632
 20
29.553108993145131
 30
0.0
  0
INSERT
  5
1B9F
  8
0
  6
BYBLOCK
 62
     0
  2
*U3
 10
32.823369151799632
 20
39.4041453241935
 30
0.0
  0
INSERT
  5
1BA0
  8
0
  6
BYBLOCK
 62
     0
  2
*U3
 10
32.823369151799632
 20
49.255181655241877
 30
0.0
  0
INSERT
  5
1BA1
  8
0
  6
BYBLOCK
 62
     0
  2
*U3
 10
43.764492202399502
 20
0.0
 30
0.0
  0
INSERT
  5
1BA2
  8
0
  6
BYBLOCK
 62
     0
  2
*U3
 10
43.764492202399502
 20
9.8510363310483751
 30
0.0
  0
INSERT
  5
1BA3
  8
0
  6
BYBLOCK
 62
     0
  2
*U3
 10
43.764492202399502
 20
19.70207266209675
 30
0.0
  0
INSERT
  5
1BA4
  8
0
  6
BYBLOCK
 62
     0
  2
*U3
 10
43.764492202399502
 20
29.553108993145131
 30
0.0
  0
INSERT
  5
1BA5
  8
0
  6
BYBLOCK
 62
     0
  2
*U3
 10
43.764492202399502
 20
39.4041453241935
 30
0.0
  0
INSERT
  5
1BA6
  8
0
  6
BYBLOCK
 62
     0
  2
*U3
 10
43.764492202399502
 20
49.255181655241877
 30
0.0
  0
INSERT
  5
1BA7
  8
0
  6
BYBLOCK
 62
     0
  2
*U3
 10
54.70561525299938
 20
0.0
 30
0.0
  0
INSERT
  5
1BA8
  8
0
  6
BYBLOCK
 62
     0
  2
*U3
 10
54.70561525299938
 20
9.8510363310483751
 30
0.0
  0
INSERT
  5
1BA9
  8
0
  6
BYBLOCK
 62
     0
  2
*U3
 10
54.70561525299938
 20
19.70207266209675
 30
0.0
  0
INSERT
  5
1BAA
  8
0
  6
BYBLOCK
 62
     0
  2
*U3
 10
54.70561525299938
 20
29.553108993145131
 30
0.0
  0
INSERT
  5
1BAB
  8
0
  6
BYBLOCK
 62
     0
  2
*U3
 10
54.70561525299938
 20
39.4041453241935
 30
0.0
  0
INSERT
  5
1BAC
  8
0
  6
BYBLOCK
 62
     0
  2
*U3
 10
54.70561525299938
 20
49.255181655241877
 30
0.0
  0
INSERT
  5
1BAD
  8
0
  6
BYBLOCK
 62
     0
  2
*U3
 10
65.646738303599264
 20
0.0
 30
0.0
  0
INSERT
  5
1BAE
  8
0
  6
BYBLOCK
 62
     0
  2
*U3
 10
65.646738303599264
 20
9.8510363310483751
 30
0.0
  0
INSERT
  5
1BAF
  8
0
  6
BYBLOCK
 62
     0
  2
*U3
 10
65.646738303599264
 20
19.70207266209675
 30
0.0
  0
INSERT
  5
1BB0
  8
0
  6
BYBLOCK
 62
     0
  2
*U3
 10
65.646738303599264
 20
29.553108993145131
 30
0.0
  0
INSERT
  5
1BB1
  8
0
  6
BYBLOCK
 62
     0
  2
*U3
 10
65.646738303599264
 20
39.4041453241935
 30
0.0
  0
INSERT
  5
1BB2
  8
0
  6
BYBLOCK
 62
     0
  2
*U3
 10
65.646738303599264
 20
49.255181655241877
 30
0.0
  0
INSERT
  5
1BB3
  8
0
  6
BYBLOCK
 62
     0
  2
*U3
 10
76.587861354199134
 20
0.0
 30
0.0
  0
INSERT
  5
1BB4
  8
0
  6
BYBLOCK
 62
     0
  2
*U3
 10
76.587861354199134
 20
9.8510363310483751
 30
0.0
  0
INSERT
  5
1BB5
  8
0
  6
BYBLOCK
 62
     0
  2
*U3
 10
76.587861354199134
 20
19.70207266209675
 30
0.0
  0
INSERT
  5
1BB6
  8
0
  6
BYBLOCK
 62
     0
  2
*U3
 10
76.587861354199134
 20
29.553108993145131
 30
0.0
  0
INSERT
  5
1BB7
  8
0
  6
BYBLOCK
 62
     0
  2
*U3
 10
76.587861354199134
 20
39.4041453241935
 30
0.0
  0
INSERT
  5
1BB8
  8
0
  6
BYBLOCK
 62
     0
  2
*U3
 10
76.587861354199134
 20
49.255181655241877
 30
0.0
  0
ENDBLK
  5
1BB9
  8
0
  0
ENDSEC
  0
SECTION
  2
ENTITIES
  0
LINE
  5
1AE
  8
46
 10
0.0158
 20
0.0227
 30
0.0
 11
60.2502
 21
0.0227
 31
0.0
  0
LINE
  5
1BB
  8
20
 10
0.025
 20
0.025
 30
0.0
 11
60.25
 21
0.025
 31
0.0
  0
LINE
  5
1BC
  8
20
 10
60.25
 20
0.025
 30
0.0
 11
68.025000000000006
 21
15.574999999999999
 31
0.0
  0
LINE
  5
1BD
  8
20
 10
45.575000000000003
 20
54.700000000000003
 30
0.0
 11
43.575000000000003
 21
53.899999999999999
 31
0.0
  0
LINE
  5
1BE
  8
20
 10
43.575000000000003
 20
53.899999999999999
 30
0.0
 11
26.949999999999999
 21
53.899999999999999
 31
0.0
  0
LINE
  5
1BF
  8
20
 10
26.949999999999999
 20
53.899999999999999
 30
0.0
 11
19.524999999999999
 21
39.024999999999999
 31
0.0
  0
LINE
  5
1C0
  8
20
 10
19.524999999999999
 20
39.024999999999999
 30
0.0
 11
17.850000000000001
 21
37.524999999999999
 31
0.0
  0
LINE
  5
1C1
  8
20
 10
9.3249999999999993
 20
20.475000000000001
 30
0.0
 11
11.9
 21
19.175000000000001
 31
0.0
  0
LINE
  5
1C2
  8
20
 10
80.549999999999969
 20
41.25
 30
0.0
 11
80.924999999999983
 21
41.350000000000001
 31
0.0
  0
LINE
  5
1C3
  8
20
 10
80.924999999999983
 20
41.350000000000001
 30
0.0
 11
87.200000000000003
 21
53.899999999999999
 31
0.0
  0
LINE
  5
1C4
  8
20
 10
87.200000000000003
 20
53.899999999999999
 30
0.0
 11
72.567499999999995
 21
53.89800000000001
 31
0.0
  0
LINE
  5
1C5
  8
20
 10
72.567499999999995
 20
53.899999999999999
 30
0.0
 11
72.567499999999995
 21
53.700000000000003
 31
0.0
  0
LINE
  5
1C6
  8
20
 10
64.658299999999997
 20
51.92499999999999
 30
0.0
 11
64.658299999999997
 21
54.700000000000003
 31
0.0
  0
LINE
  5
1C7
  8
20
 10
6.75
 20
12.65
 30
0.0
 11
6.2750000000000004
 21
12.550000000000001
 31
0.0
  0
LINE
  5
1C8
  8
20
 10
6.2750000000000004
 20
12.550000000000001
 30
0.0
 11
0.025
 21
0.025
 31
0.0
  0
LINE
  5
1F9
  8
20
 10
72.567499999999995
 20
51.92499999999999
 30
0.0
 11
64.658299999999997
 21
51.92499999999999
 31
0.0
  0
LINE
  5
1FA
  8
20
 10
64.658299999999997
 20
54.700000000000003
 30
0.0
 11
45.575000000000003
 21
54.700000000000003
 31
0.0
  0
LINE
  5
1FB
  8
20
 10
17.850000000000001
 20
37.524999999999999
 30
0.0
 11
9.3249999999999993
 21
20.475000000000001
 31
0.0
  0
LINE
  5
1FC
  8
20
 10
72.567499999999995
 20
53.700000000000003
 30
0.0
 11
72.567499999999995
 21
51.92499999999999
 31
0.0
  0
LINE
  5
1FD
  8
20
 10
80.549999999999969
 20
41.25
 30
0.0
 11
79.049999999999997
 21
42.0
 31
0.0
  0
LINE
  5
1FE
  8
20
 10
69.375
 20
16.475000000000001
 30
0.0
 11
77.924999999999997
 21
33.45000000000001
 31
0.0
  0
LINE
  5
1FF
  8
20
 10
79.049999999999997
 20
42.0
 30
0.0
 11
75.400000000000006
 21
34.70000000000001
 31
0.0
  0
LINE
  5
200
  8
20
 10
75.400000000000006
 20
34.70000000000001
 30
0.0
 11
77.924999999999997
 21
33.45000000000001
 31
0.0
  0
LINE
  5
201
  8
20
 10
69.375
 20
16.475000000000001
 30
0.0
 11
68.025000000000006
 21
15.574999999999999
 31
0.0
  0
LINE
  5
202
  8
20
 10
11.9
 20
19.175000000000001
 30
0.0
 11
8.25
 21
11.9
 31
0.0
  0
LINE
  5
203
  8
20
 10
6.75
 20
12.65
 30
0.0
 11
8.25
 21
11.9
 31
0.0
  0
CIRCLE
  5
205
  8
20
 10
5.284399999999998
 20
3.2924000000000002
 30
0.0
 40
1.25
  0
CIRCLE
  5
206
  8
20
 10
82.092600000000004
 20
50.714700000000001
 30
0.0
 40
1.25
  0
CIRCLE
  5
207
  8
20
 10
29.0824
 20
50.378100000000003
 30
0.0
 40
1.25
  0
CIRCLE
  5
208
  8
20
 10
58.168700000000001
 20
3.5893000000000002
 30
0.0
 40
1.25
  0
LINE
  5
8A8
  8
22
 10
17.871737023017872
 20
37.541551284479233
 30
0.0
 11
17.468737023017869
 21
36.736751284479233
 31
0.0
  0
LINE
  5
8BA
  8
22
 10
16.365200000000002
 20
34.488300000000002
 30
0.0
 11
16.1861
 21
34.130699999999997
 31
0.0
  0
LINE
  5
8F1
  8
22
 10
11.088137023017859
 20
23.995051284479231
 30
0.0
 11
10.90903702301787
 21
23.637451284479241
 31
0.0
  0
LINE
  5
1B33
  8
0
  6
CONTINUOUS
 10
0.0250000000000004
 20
0.0250000000000004
 30
0.0
 11
7.3150000000000004
 21
0.0250000000000004
 31
0.0
  0
POLYLINE
  5
1C2D
  8
0
  6
CONTINUOUS
 66
     1
 10
0.0
 20
0.0
 30
0.0
  0
VERTEX
  5
232B
  8
0
  6
CONTINUOUS
 10
0.0158
 20
0.0227
 30
0.0
  0
VERTEX
  5
232C
  8
0
  6
CONTINUOUS
 10
7.3150000000000004
 20
0.0250000000000004
 30
0.0
  0
SEQEND
  5
232D
  8
0
  6
CONTINUOUS
  0
POLYLINE
  5
1C4E
  8
20
 66
     1
 10
0.0
 20
0.0
 30
0.0
 70
     1
  0
VERTEX
  5
232E
  8
20
 10
8.4561449850299262
 20
5.9934999999999938
 30
0.0
  0
VERTEX
  5
232F
  8
20
 10
7.5465869850299256
 20
5.9934999999999938
 30
0.0
  0
VERTEX
  5
2330
  8
20
 10
7.5465869850299256
 20
6.3126249999999979
 30
0.0
  0
VERTEX
  5
2331
  8
20
 10
5.3520074850299189
 20
6.3126249999999979
 30
0.0
  0
VERTEX
  5
2332
  8
20
 10
5.1220074850299318
 20
6.2206250000000001
 30
0.0
  0
VERTEX
  5
2333
  8
20
 10
3.2101324850299391
 20
6.2206250000000001
 30
0.0
  0
VERTEX
  5
2334
  8
20
 10
2.3562574850299312
 20
4.5099999999999962
 30
0.0
  0
VERTEX
  5
2335
  8
20
 10
2.1636324850299431
 20
4.3374999999999968
 30
0.0
  0
VERTEX
  5
2336
  8
20
 10
1.1832574850299189
 20
2.376749999999999
 30
0.0
  0
VERTEX
  5
2337
  8
20
 10
1.4793824850299111
 20
2.2272499999999971
 30
0.0
  0
VERTEX
  5
2338
  8
20
 10
1.059632485029933
 20
1.390624999999998
 30
0.0
  0
VERTEX
  5
2339
  8
20
 10
0.8871324850299274
 20
1.476875000000001
 30
0.0
  0
VERTEX
  5
233A
  8
20
 10
0.8325074850299117
 20
1.465374999999995
 30
0.0
  0
VERTEX
  5
233B
  8
20
 10
0.1137574850299118
 20
0.0249999999999983
 30
0.0
  0
VERTEX
  5
233C
  8
20
 10
7.0396324850299212
 20
0.0249999999999983
 30
0.0
  0
VERTEX
  5
233D
  8
20
 10
7.9337574850299237
 20
1.8132499999999969
 30
0.0
  0
VERTEX
  5
233E
  8
20
 10
8.0890074850299136
 20
1.9167499999999931
 30
0.0
  0
VERTEX
  5
233F
  8
20
 10
9.0722574850299331
 20
3.8688749999999992
 30
0.0
  0
VERTEX
  5
2340
  8
20
 10
8.7818824850299375
 20
4.0126249999999981
 30
0.0
  0
VERTEX
  5
2341
  8
20
 10
9.2016324850299132
 20
4.8521249999999947
 30
0.0
  0
VERTEX
  5
2342
  8
20
 10
9.3741324850299215
 20
4.7658750000000003
 30
0.0
  0
VERTEX
  5
2343
  8
20
 10
9.4172574850299142
 20
4.7773749999999984
 30
0.0
  0
VERTEX
  5
2344
  8
20
 10
10.13888248502994
 20
6.2206250000000001
 30
0.0
  0
VERTEX
  5
2345
  8
20
 10
8.4561449850299262
 20
6.2203949999999928
 30
0.0
  0
SEQEND
  5
2346
  8
20
  0
POLYLINE
  5
1C51
  8
20
 66
     1
 10
0.0
 20
0.0
 30
0.0
 70
     1
  0
VERTEX
  5
2347
  8
20
 10
11.64975409821224
 20
5.059679649896343
 30
0.0
  0
VERTEX
  5
2348
  8
20
 10
12.195588349310439
 20
4.332107848840197
 30
0.0
  0
VERTEX
  5
2349
  8
20
 10
11.94031452288919
 20
4.1405979557034156
 30
0.0
  0
VERTEX
  5
234A
  8
20
 10
13.257302178275591
 20
2.3851143478676469
 30
0.0
  0
VERTEX
  5
234B
  8
20
 10
13.468919780946029
 20
2.2563432709908731
 30
0.0
  0
VERTEX
  5
234C
  8
20
 10
14.61625382541418
 20
0.7270000766654825
 30
0.0
  0
VERTEX
  5
234D
  8
20
 10
16.497031888317409
 20
1.070532148460819
 30
0.0
  0
VERTEX
  5
234E
  8
20
 10
16.750613802060101
 20
1.019966808082293
 30
0.0
  0
VERTEX
  5
234F
  8
20
 10
18.90738518205039
 20
1.4124116036647181
 30
0.0
  0
VERTEX
  5
2350
  8
20
 10
18.849265542237909
 20
1.739003662804357
 30
0.0
  0
VERTEX
  5
2351
  8
20
 10
19.770392820495111
 20
1.9053045659152119
 30
0.0
  0
VERTEX
  5
2352
  8
20
 10
19.804918755590339
 20
1.7155592832181199
 30
0.0
  0
VERTEX
  5
2353
  8
20
 10
19.846898785097402
 20
1.6787650207905831
 30
0.0
  0
VERTEX
  5
2354
  8
20
 10
21.430409238441861
 20
1.968206460936728
 30
0.0
  0
VERTEX
  5
2355
  8
20
 10
17.274126963067818
 20
7.5083384235380324
 30
0.0
  0
VERTEX
  5
2356
  8
20
 10
15.307100865774609
 20
7.150419563050848
 30
0.0
  0
VERTEX
  5
2357
  8
20
 10
15.131142379463331
 20
7.21249551326546
 30
0.0
  0
VERTEX
  5
2358
  8
20
 10
12.97954497772643
 20
6.8275264249427829
 30
0.0
  0
VERTEX
  5
2359
  8
20
 10
13.03881351723772
 20
6.5089845229123036
 30
0.0
  0
VERTEX
  5
235A
  8
20
 10
12.11538647477855
 20
6.3409583054488632
 30
0.0
  0
VERTEX
  5
235B
  8
20
 10
12.08086053968332
 20
6.5307035881459541
 30
0.0
  0
VERTEX
  5
235C
  8
20
 10
12.045781767586559
 20
6.5582987937655171
 30
0.0
  0
VERTEX
  5
235D
  8
20
 10
10.45824623568758
 20
6.269431803468783
 30
0.0
  0
VERTEX
  5
235E
  8
20
 10
11.468256707390941
 20
4.923517841190443
 30
0.0
  0
SEQEND
  5
235F
  8
20
  0
POLYLINE
  5
1C52
  8
20
 66
     1
 10
0.0
 20
0.0
 30
0.0
 70
     1
  0
VERTEX
  5
2360
  8
20
 10
11.11926369070502
 20
8.0245976577602907
 30
0.0
  0
VERTEX
  5
2361
  8
20
 10
11.37895266464159
 20
8.8962956514368745
 30
0.0
  0
VERTEX
  5
2362
  8
20
 10
11.073111121571159
 20
8.9874094053783544
 30
0.0
  0
VERTEX
  5
2363
  8
20
 10
11.69968809475726
 20
11.090640367135331
 30
0.0
  0
VERTEX
  5
2364
  8
20
 10
11.853526200104749
 20
11.284799676320061
 30
0.0
  0
VERTEX
  5
2365
  8
20
 10
12.39938787912353
 20
13.117093605525691
 30
0.0
  0
VERTEX
  5
2366
  8
20
 10
14.28259961829035
 20
13.44702382801878
 30
0.0
  0
VERTEX
  5
2367
  8
20
 10
14.50291596151831
 20
13.58238020774156
 30
0.0
  0
VERTEX
  5
2368
  8
20
 10
16.661958506275681
 20
13.962131432957079
 30
0.0
  0
VERTEX
  5
2369
  8
20
 10
16.720688628651239
 20
13.635648602856079
 30
0.0
  0
VERTEX
  5
236A
  8
20
 10
17.642332746749851
 20
13.79906088115618
 30
0.0
  0
VERTEX
  5
236B
  8
20
 10
17.608923548050551
 20
13.989005973070309
 30
0.0
  0
VERTEX
  5
236C
  8
20
 10
17.635540912889891
 20
14.03807384967007
 30
0.0
  0
VERTEX
  5
236D
  8
20
 10
19.221172008057909
 20
14.31566299420089
 30
0.0
  0
VERTEX
  5
236E
  8
20
 10
17.24375729413876
 20
7.6780749108078661
 30
0.0
  0
VERTEX
  5
236F
  8
20
 10
15.274659841295531
 20
7.3317328842916627
 30
0.0
  0
VERTEX
  5
2370
  8
20
 10
15.131142379463331
 20
7.21249551326546
 30
0.0
  0
VERTEX
  5
2371
  8
20
 10
12.97954497772643
 20
6.8275264249427829
 30
0.0
  0
VERTEX
  5
2372
  8
20
 10
12.92468382452436
 20
7.1468569073498589
 30
0.0
  0
VERTEX
  5
2373
  8
20
 10
12.000284377208891
 20
6.9842654736798808
 30
0.0
  0
VERTEX
  5
2374
  8
20
 10
12.03369357590819
 20
6.794320381765738
 30
0.0
  0
VERTEX
  5
2375
  8
20
 10
12.01035958958925
 20
6.7562738220334007
 30
0.0
  0
VERTEX
  5
2376
  8
20
 10
10.42115232057429
 20
6.4767501929158149
 30
0.0
  0
VERTEX
  5
2377
  8
20
 10
10.901813108911179
 20
8.089378715968051
 30
0.0
  0
SEQEND
  5
2378
  8
20
  0
POLYLINE
  5
1C59
  8
20
 66
     1
 10
0.0
 20
0.0
 30
0.0
  0
VERTEX
  5
2379
  8
20
 10
11.248283566850031
 20
19.50402188858056
 30
0.0
  0
VERTEX
  5
237A
  8
20
 10
13.79603305554029
 20
20.445476973760279
 30
0.0
  0
VERTEX
  5
237B
  8
20
 10
15.254565148459189
 20
19.078004227395429
 30
0.0
  0
VERTEX
  5
237C
  8
20
 10
15.43606552237946
 20
19.0347326805454
 30
0.0
  0
VERTEX
  5
237D
  8
20
 10
17.034999234079759
 20
17.544436212149481
 30
0.0
  0
VERTEX
  5
237E
  8
20
 10
16.812451540075362
 20
17.308949000143571
 30
0.0
  0
VERTEX
  5
237F
  8
20
 10
17.497164355400621
 20
16.666984302493191
 30
0.0
  0
VERTEX
  5
2380
  8
20
 10
17.629074909712351
 20
16.807678716601121
 30
0.0
  0
VERTEX
  5
2381
  8
20
 10
17.67351254928958
 20
16.811839463385368
 30
0.0
  0
VERTEX
  5
2382
  8
20
 10
18.850655813992638
 20
15.70818782564397
 30
0.0
  0
VERTEX
  5
2383
  8
20
 10
17.27215652254872
 20
15.12513934248212
 30
0.0
  0
VERTEX
  5
2384
  8
20
 10
17.193511020038599
 20
15.337968442841859
 30
0.0
  0
VERTEX
  5
2385
  8
20
 10
16.34033924073541
 20
15.022700825785151
 30
0.0
  0
VERTEX
  5
2386
  8
20
 10
16.450953163424479
 20
14.723359338963929
 30
0.0
  0
VERTEX
  5
2387
  8
20
 10
14.392422210107259
 20
13.96268234045862
 30
0.0
  0
VERTEX
  5
2388
  8
20
 10
14.14479189955097
 20
13.96925723922576
 30
0.0
  0
VERTEX
  5
2389
  8
20
 10
12.35143974877521
 20
13.30657022491739
 30
0.0
  0
VERTEX
  5
238A
  8
20
 10
10.95756852728063
 20
14.615181482754981
 30
0.0
  0
VERTEX
  5
238B
  8
20
 10
10.71709361756564
 20
14.71022072950367
 30
0.0
  0
VERTEX
  5
238C
  8
20
 10
9.9981338796279484
 20
15.384294239532419
 30
0.0
  0
SEQEND
  5
238D
  8
20
  0
POLYLINE
  5
1C5A
  8
20
 66
     1
 10
0.0
 20
0.0
 30
0.0
 70
     1
  0
VERTEX
  5
238E
  8
20
 10
19.247151181825419
 20
17.54131157356602
 30
0.0
  0
VERTEX
  5
238F
  8
20
 10
19.501708072011429
 20
18.414522055078258
 30
0.0
  0
VERTEX
  5
2390
  8
20
 10
19.808080282373592
 20
18.32520892982334
 30
0.0
  0
VERTEX
  5
2391
  8
20
 10
20.422274575410359
 20
20.432089218833909
 30
0.0
  0
VERTEX
  5
2392
  8
20
 10
20.398320875309491
 20
20.67864594709636
 30
0.0
  0
VERTEX
  5
2393
  8
20
 10
20.933395004088901
 20
22.514119099266111
 30
0.0
  0
VERTEX
  5
2394
  8
20
 10
19.53010250891068
 20
23.812622306511479
 30
0.0
  0
VERTEX
  5
2395
  8
20
 10
19.41840563296789
 20
24.045827041732728
 30
0.0
  0
VERTEX
  5
2396
  8
20
 10
17.81038696850775
 20
25.53577726837549
 30
0.0
  0
VERTEX
  5
2397
  8
20
 10
17.583985105083531
 20
25.293326321041739
 30
0.0
  0
VERTEX
  5
2398
  8
20
 10
16.898268015640529
 20
25.93044760178098
 30
0.0
  0
VERTEX
  5
2399
  8
20
 10
17.029348680741069
 20
26.071915519475429
 30
0.0
  0
VERTEX
  5
239A
  8
20
 10
17.033596072978849
 20
26.127576100537588
 30
0.0
  0
VERTEX
  5
239B
  8
20
 10
15.85193664885526
 20
27.220719599125442
 30
0.0
  0
VERTEX
  5
239C
  8
20
 10
13.9136004439987
 20
20.571614601265399
 30
0.0
  0
VERTEX
  5
239D
  8
20
 10
15.380151190764391
 20
19.21274503972316
 30
0.0
  0
VERTEX
  5
239E
  8
20
 10
15.43606552237946
 20
19.0347326805454
 30
0.0
  0
VERTEX
  5
239F
  8
20
 10
17.034999234079759
 20
17.544436212149488
 30
0.0
  0
VERTEX
  5
23A0
  8
20
 10
17.254271631997359
 20
17.78297618497681
 30
0.0
  0
VERTEX
  5
23A1
  8
20
 10
17.942748831443641
 20
17.145050281487531
 30
0.0
  0
VERTEX
  5
23A2
  8
20
 10
17.811668166343111
 20
17.003582363793079
 30
0.0
  0
VERTEX
  5
23A3
  8
20
 10
17.810639265105479
 20
16.958962222743981
 30
0.0
  0
VERTEX
  5
23A4
  8
20
 10
18.994254176482311
 20
15.862253991402801
 30
0.0
  0
VERTEX
  5
23A5
  8
20
 10
19.464979063282929
 20
17.477810746132519
 30
0.0
  0
SEQEND
  5
23A6
  8
20
  0
POLYLINE
  5
1C5B
  8
20
 66
     1
 10
0.0
 20
0.0
 30
0.0
 70
     1
  0
VERTEX
  5
23A7
  8
20
 10
22.559390599068589
 20
4.6164507535708701
 30
0.0
  0
VERTEX
  5
23A8
  8
20
 10
22.819079573005141
 20
5.4881487472474566
 30
0.0
  0
VERTEX
  5
23A9
  8
20
 10
23.124921116075559
 20
5.3970349933059723
 30
0.0
  0
VERTEX
  5
23AA
  8
20
 10
23.75149808926167
 20
7.5002659550629431
 30
0.0
  0
VERTEX
  5
23AB
  8
20
 10
23.728995124730741
 20
7.7469593205742919
 30
0.0
  0
VERTEX
  5
23AC
  8
20
 10
24.274856803749511
 20
9.5792532497799279
 30
0.0
  0
VERTEX
  5
23AD
  8
20
 10
22.879226774864129
 20
10.88598858209609
 30
0.0
  0
VERTEX
  5
23AE
  8
20
 10
22.76890361207003
 20
11.119846317431289
 30
0.0
  0
VERTEX
  5
23AF
  8
20
 10
21.169677105043199
 20
12.61922961810787
 30
0.0
  0
VERTEX
  5
23B0
  8
20
 10
20.94185298886633
 20
12.378114629537629
 30
0.0
  0
VERTEX
  5
23B1
  8
20
 10
20.259895502757921
 20
13.01925848255792
 30
0.0
  0
VERTEX
  5
23B2
  8
20
 10
20.39180605706964
 20
13.15995289666585
 30
0.0
  0
VERTEX
  5
23B3
  8
20
 10
20.39638078817422
 20
13.21558753030642
 30
0.0
  0
VERTEX
  5
23B4
  8
20
 10
19.221172008057909
 20
14.31566299420089
 30
0.0
  0
VERTEX
  5
23B5
  8
20
 10
17.243757294138771
 20
7.6780749108078679
 30
0.0
  0
VERTEX
  5
23B6
  8
20
 10
18.702289387057661
 20
6.310602164442999
 30
0.0
  0
VERTEX
  5
23B7
  8
20
 10
18.757155628838689
 20
6.1322639800493484
 30
0.0
  0
VERTEX
  5
23B8
  8
20
 10
20.347295303584851
 20
4.6325878840462273
 30
0.0
  0
VERTEX
  5
23B9
  8
20
 10
20.567967072067809
 20
4.8698339034429656
 30
0.0
  0
VERTEX
  5
23BA
  8
20
 10
21.252679887393079
 20
4.2278692057925902
 30
0.0
  0
VERTEX
  5
23BB
  8
20
 10
21.120769333081359
 20
4.0871747916846468
 30
0.0
  0
VERTEX
  5
23BC
  8
20
 10
21.119477980497209
 20
4.042561474911488
 30
0.0
  0
VERTEX
  5
23BD
  8
20
 10
22.296621245200239
 20
2.9389098371700539
 30
0.0
  0
VERTEX
  5
23BE
  8
20
 10
22.77684118086243
 20
4.5516696953631088
 30
0.0
  0
SEQEND
  5
23BF
  8
20
  0
POLYLINE
  5
1C5C
  8
20
 66
     1
 10
0.0
 20
0.0
 30
0.0
 70
     1
  0
VERTEX
  5
23C0
  8
20
 10
29.24532101454303
 20
11.74759403076942
 30
0.0
  0
VERTEX
  5
23C1
  8
20
 10
28.392149235239831
 20
11.432326413712721
 30
0.0
  0
VERTEX
  5
23C2
  8
20
 10
28.5027631579289
 20
11.132984926891501
 30
0.0
  0
VERTEX
  5
23C3
  8
20
 10
26.444232204611652
 20
10.37230792838619
 30
0.0
  0
VERTEX
  5
23C4
  8
20
 10
26.19660189405538
 20
10.37888282715334
 30
0.0
  0
VERTEX
  5
23C5
  8
20
 10
24.403249743279599
 20
9.7161958128449903
 30
0.0
  0
VERTEX
  5
23C6
  8
20
 10
23.009378521785042
 20
11.0248070706826
 30
0.0
  0
VERTEX
  5
23C7
  8
20
 10
22.76890361207003
 20
11.11984631743128
 30
0.0
  0
VERTEX
  5
23C8
  8
20
 10
21.169677105043199
 20
12.61922961810787
 30
0.0
  0
VERTEX
  5
23C9
  8
20
 10
21.395625295698661
 20
12.862103414068921
 30
0.0
  0
VERTEX
  5
23CA
  8
20
 10
20.71190900219942
 20
13.50137134156776
 30
0.0
  0
VERTEX
  5
23CB
  8
20
 10
20.579998447887689
 20
13.36067692745983
 30
0.0
  0
VERTEX
  5
23CC
  8
20
 10
20.524773727704279
 20
13.35253009337146
 30
0.0
  0
VERTEX
  5
23CD
  8
20
 10
19.351323754978811
 20
14.454481482787379
 30
0.0
  0
VERTEX
  5
23CE
  8
20
 10
25.84784305004473
 20
16.855102561687861
 30
0.0
  0
VERTEX
  5
23CF
  8
20
 10
27.306375142963631
 20
15.487629815323
 30
0.0
  0
VERTEX
  5
23D0
  8
20
 10
27.487875516883911
 20
15.444358268472961
 30
0.0
  0
VERTEX
  5
23D1
  8
20
 10
29.08680922858419
 20
13.954061800077049
 30
0.0
  0
VERTEX
  5
23D2
  8
20
 10
28.864261534579779
 20
13.71857458807114
 30
0.0
  0
VERTEX
  5
23D3
  8
20
 10
29.548974349905031
 20
13.076609890420761
 30
0.0
  0
VERTEX
  5
23D4
  8
20
 10
29.680884904216772
 20
13.217304304528691
 30
0.0
  0
VERTEX
  5
23D5
  8
20
 10
29.725322543794
 20
13.22146505131294
 30
0.0
  0
VERTEX
  5
23D6
  8
20
 10
30.902465808497048
 20
12.11781341357152
 30
0.0
  0
VERTEX
  5
23D7
  8
20
 10
29.323966517053119
 20
11.53476493040969
 30
0.0
  0
SEQEND
  5
23D8
  8
20
  0
POLYLINE
  5
1C5D
  8
20
 66
     1
 10
0.0
 20
0.0
 30
0.0
 70
     1
  0
VERTEX
  5
23D9
  8
20
 10
25.891018386001178
 20
24.71166013788141
 30
0.0
  0
VERTEX
  5
23DA
  8
20
 10
25.03971586667981
 20
24.39137936112283
 30
0.0
  0
VERTEX
  5
23DB
  8
20
 10
25.152088692693191
 20
24.092693717680159
 30
0.0
  0
VERTEX
  5
23DC
  8
20
 10
23.098067885662701
 20
23.31992097870318
 30
0.0
  0
VERTEX
  5
23DD
  8
20
 10
22.850403183790231
 20
23.325039127433762
 30
0.0
  0
VERTEX
  5
23DE
  8
20
 10
21.0609801847868
 20
22.65181453915541
 30
0.0
  0
VERTEX
  5
23DF
  8
20
 10
19.659435431809889
 20
23.952203985303338
 30
0.0
  0
VERTEX
  5
23E0
  8
20
 10
19.41840563296789
 20
24.045827041732739
 30
0.0
  0
VERTEX
  5
23E1
  8
20
 10
17.81038696850776
 20
25.53577726837549
 30
0.0
  0
VERTEX
  5
23E2
  8
20
 10
18.034902593029361
 20
25.77997595791059
 30
0.0
  0
VERTEX
  5
23E3
  8
20
 10
17.347437761384992
 20
26.41521099974722
 30
0.0
  0
VERTEX
  5
23E4
  8
20
 10
17.216357096284451
 20
26.273743082052778
 30
0.0
  0
VERTEX
  5
23E5
  8
20
 10
17.161181253676659
 20
26.265271540426799
 30
0.0
  0
VERTEX
  5
23E6
  8
20
 10
15.981269571754391
 20
27.36030127791723
 30
0.0
  0
VERTEX
  5
23E7
  8
20
 10
22.463555292956311
 20
29.79909531274814
 30
0.0
  0
VERTEX
  5
23E8
  8
20
 10
23.93010603972203
 20
28.440225751205929
 30
0.0
  0
VERTEX
  5
23E9
  8
20
 10
24.111857809833602
 20
28.398022593014819
 30
0.0
  0
VERTEX
  5
23EA
  8
20
 10
25.719530232540642
 20
26.917157319131899
 30
0.0
  0
VERTEX
  5
23EB
  8
20
 10
25.49837159572045
 20
26.680365088505919
 30
0.0
  0
VERTEX
  5
23EC
  8
20
 10
26.186848795166739
 20
26.042439185016651
 30
0.0
  0
VERTEX
  5
23ED
  8
20
 10
26.31792946026728
 20
26.183907102711089
 30
0.0
  0
VERTEX
  5
23EE
  8
20
 10
26.362341856264511
 20
26.188329173129379
 30
0.0
  0
VERTEX
  5
23EF
  8
20
 10
27.545956767641361
 20
25.091620941788239
 30
0.0
  0
VERTEX
  5
23F0
  8
20
 10
25.970914452928909
 20
24.49929733625531
 30
0.0
  0
SEQEND
  5
23F1
  8
20
  0
POLYLINE
  5
1C5E
  8
20
 66
     1
 10
0.0
 20
0.0
 30
0.0
 70
     1
  0
VERTEX
  5
23F2
  8
20
 10
26.11576403802794
 20
24.11428885099604
 30
0.0
  0
VERTEX
  5
23F3
  8
20
 10
25.264461518706561
 20
23.794008074237489
 30
0.0
  0
VERTEX
  5
23F4
  8
20
 10
25.152088692693191
 20
24.092693717680159
 30
0.0
  0
VERTEX
  5
23F5
  8
20
 10
23.098067885662701
 20
23.31992097870318
 30
0.0
  0
VERTEX
  5
23F6
  8
20
 10
22.91519472311326
 20
23.152823981665009
 30
0.0
  0
VERTEX
  5
23F7
  8
20
 10
21.125771724109828
 20
22.47959939338665
 30
0.0
  0
VERTEX
  5
23F8
  8
20
 10
20.928944655420509
 20
20.577863472896851
 30
0.0
  0
VERTEX
  5
23F9
  8
20
 10
20.809398992809179
 20
20.34858313100986
 30
0.0
  0
VERTEX
  5
23FA
  8
20
 10
20.582250010171119
 20
18.168198063456089
 30
0.0
  0
VERTEX
  5
23FB
  8
20
 10
20.912051886092652
 20
18.132547141116969
 30
0.0
  0
VERTEX
  5
23FC
  8
20
 10
20.813785115167079
 20
17.201700701119019
 30
0.0
  0
VERTEX
  5
23FD
  8
20
 10
20.621962381951199
 20
17.221684482582781
 30
0.0
  0
VERTEX
  5
23FE
  8
20
 10
20.574885481758798
 20
17.191686047735711
 30
0.0
  0
VERTEX
  5
23FF
  8
20
 10
20.409366337362709
 20
15.590472409284111
 30
0.0
  0
VERTEX
  5
2400
  8
20
 10
26.891652058564631
 20
18.029266444115049
 30
0.0
  0
VERTEX
  5
2401
  8
20
 10
27.09881725973894
 20
20.017828778452952
 30
0.0
  0
VERTEX
  5
2402
  8
20
 10
27.207678548112121
 20
20.169367659251659
 30
0.0
  0
VERTEX
  5
2403
  8
20
 10
27.44055549580861
 20
22.34269250964946
 30
0.0
  0
VERTEX
  5
2404
  8
20
 10
27.118160078796191
 20
22.374986444287138
 30
0.0
  0
VERTEX
  5
2405
  8
20
 10
27.215414481919829
 20
23.30852374593773
 30
0.0
  0
VERTEX
  5
2406
  8
20
 10
27.407237215135702
 20
23.28853996447398
 30
0.0
  0
VERTEX
  5
2407
  8
20
 10
27.44355066871756
 20
23.314488928113342
 30
0.0
  0
VERTEX
  5
2408
  8
20
 10
27.610748306964378
 20
24.919405796019511
 30
0.0
  0
VERTEX
  5
2409
  8
20
 10
26.035867971100242
 20
24.32665165262215
 30
0.0
  0
SEQEND
  5
240A
  8
20
  0
POLYLINE
  5
1C5F
  8
20
 66
     1
 10
0.0
 20
0.0
 30
0.0
 70
     1
  0
VERTEX
  5
240B
  8
20
 10
29.110622639679349
 20
23.793382600001159
 30
0.0
  0
VERTEX
  5
240C
  8
20
 10
29.87473980090666
 20
23.300005746792671
 30
0.0
  0
VERTEX
  5
240D
  8
20
 10
30.04784463675017
 20
23.568101777036649
 30
0.0
  0
VERTEX
  5
240E
  8
20
 10
31.891504807544798
 20
22.377683213486119
 30
0.0
  0
VERTEX
  5
240F
  8
20
 10
32.034823074864867
 20
22.175634025780798
 30
0.0
  0
VERTEX
  5
2410
  8
20
 10
33.640983976777058
 20
21.138564513745258
 30
0.0
  0
VERTEX
  5
2411
  8
20
 10
33.430417703403791
 20
19.238300781847052
 30
0.0
  0
VERTEX
  5
2412
  8
20
 10
33.498671251833841
 20
18.988897306025841
 30
0.0
  0
VERTEX
  5
2413
  8
20
 10
33.258700515508743
 20
16.809886119998438
 30
0.0
  0
VERTEX
  5
2414
  8
20
 10
32.928832564346649
 20
16.844920394946129
 30
0.0
  0
VERTEX
  5
2415
  8
20
 10
32.827647998447162
 20
15.91438660364744
 30
0.0
  0
VERTEX
  5
2416
  8
20
 10
33.019349862320553
 20
15.89327480866282
 30
0.0
  0
VERTEX
  5
2417
  8
20
 10
33.059002161701272
 20
15.8539831329691
 30
0.0
  0
VERTEX
  5
2418
  8
20
 10
32.881511033803889
 20
14.25405232113919
 30
0.0
  0
VERTEX
  5
2419
  8
20
 10
27.063102593643791
 20
18.01089510985139
 30
0.0
  0
VERTEX
  5
241A
  8
20
 10
27.281961534984269
 20
19.998204432005419
 30
0.0
  0
VERTEX
  5
241B
  8
20
 10
27.207678548112121
 20
20.169367659251659
 30
0.0
  0
VERTEX
  5
241C
  8
20
 10
27.44055549580861
 20
22.34269250964946
 30
0.0
  0
VERTEX
  5
241D
  8
20
 10
27.762473881815978
 20
22.305946681649498
 30
0.0
  0
VERTEX
  5
241E
  8
20
 10
27.865217950741091
 20
23.238895752499939
 30
0.0
  0
VERTEX
  5
241F
  8
20
 10
27.673516086867721
 20
23.260007547484559
 30
0.0
  0
VERTEX
  5
2420
  8
20
 10
27.643524905693969
 20
23.293061211075791
 30
0.0
  0
VERTEX
  5
2421
  8
20
 10
27.820160257065211
 20
24.896966805483089
 30
0.0
  0
VERTEX
  5
2422
  8
20
 10
29.233698618461069
 20
23.983996462225111
 30
0.0
  0
SEQEND
  5
2423
  8
20
  0
POLYLINE
  5
1C60
  8
20
 66
     1
 10
0.0
 20
0.0
 30
0.0
 70
     1
  0
VERTEX
  5
2424
  8
20
 10
23.171073685209411
 20
4.4342232456879103
 30
0.0
  0
VERTEX
  5
2425
  8
20
 10
23.430762659145991
 20
5.3059212393644897
 30
0.0
  0
VERTEX
  5
2426
  8
20
 10
23.124921116075559
 20
5.3970349933059723
 30
0.0
  0
VERTEX
  5
2427
  8
20
 10
23.75149808926168
 20
7.5002659550629431
 30
0.0
  0
VERTEX
  5
2428
  8
20
 10
23.905336194609159
 20
7.694425264247676
 30
0.0
  0
VERTEX
  5
2429
  8
20
 10
24.451197873627951
 20
9.5267191934533102
 30
0.0
  0
VERTEX
  5
242A
  8
20
 10
26.334409612794779
 20
9.8566494159463787
 30
0.0
  0
VERTEX
  5
242B
  8
20
 10
26.554725956022729
 20
9.9920057956691721
 30
0.0
  0
VERTEX
  5
242C
  8
20
 10
28.713768500780098
 20
10.371757020884671
 30
0.0
  0
VERTEX
  5
242D
  8
20
 10
28.77249862315567
 20
10.045274190783671
 30
0.0
  0
VERTEX
  5
242E
  8
20
 10
29.694142741254279
 20
10.20868646908376
 30
0.0
  0
VERTEX
  5
242F
  8
20
 10
29.660733542554969
 20
10.398631560997901
 30
0.0
  0
VERTEX
  5
2430
  8
20
 10
29.687350907394318
 20
10.447699437597651
 30
0.0
  0
VERTEX
  5
2431
  8
20
 10
31.27298200256234
 20
10.725288582128471
 30
0.0
  0
VERTEX
  5
2432
  8
20
 10
29.295567288643149
 20
4.0877004987354582
 30
0.0
  0
VERTEX
  5
2433
  8
20
 10
27.326469835799919
 20
3.7413584722192619
 30
0.0
  0
VERTEX
  5
2434
  8
20
 10
27.182952373967719
 20
3.6221211011930592
 30
0.0
  0
VERTEX
  5
2435
  8
20
 10
25.031354972230819
 20
3.2371520128703919
 30
0.0
  0
VERTEX
  5
2436
  8
20
 10
24.97649381902875
 20
3.556482495277467
 30
0.0
  0
VERTEX
  5
2437
  8
20
 10
24.052094371713292
 20
3.3938910616074951
 30
0.0
  0
VERTEX
  5
2438
  8
20
 10
24.085503570412591
 20
3.2039459696933541
 30
0.0
  0
VERTEX
  5
2439
  8
20
 10
24.062169584093638
 20
3.1658994099610172
 30
0.0
  0
VERTEX
  5
243A
  8
20
 10
22.472962315078671
 20
2.8863757808434372
 30
0.0
  0
VERTEX
  5
243B
  8
20
 10
22.95362310341557
 20
4.4990043038956697
 30
0.0
  0
SEQEND
  5
243C
  8
20
  0
POLYLINE
  5
1C62
  8
20
 66
     1
 10
0.0
 20
0.0
 30
0.0
  0
VERTEX
  5
243D
  8
20
 10
34.549172389814871
 20
0.0227000000000003
 30
0.0
  0
VERTEX
  5
243E
  8
20
 10
34.828651175366787
 20
0.9612952832906707
 30
0.0
  0
VERTEX
  5
243F
  8
20
 10
34.611200593572953
 20
1.0260763414984311
 30
0.0
  0
VERTEX
  5
2440
  8
20
 10
34.870889567509508
 20
1.897774335175014
 30
0.0
  0
VERTEX
  5
2441
  8
20
 10
35.176731110579937
 20
1.806660581233529
 30
0.0
  0
VERTEX
  5
2442
  8
20
 10
35.803308083766062
 20
3.909891542990497
 30
0.0
  0
VERTEX
  5
2443
  8
20
 10
35.780805119235119
 20
4.1565849085018476
 30
0.0
  0
VERTEX
  5
2444
  8
20
 10
36.32666679825391
 20
5.9888788377074782
 30
0.0
  0
VERTEX
  5
2445
  8
20
 10
34.931036769368532
 20
7.2956141700236499
 30
0.0
  0
VERTEX
  5
2446
  8
20
 10
34.820713606574451
 20
7.5294719053588457
 30
0.0
  0
VERTEX
  5
2447
  8
20
 10
33.221487099547623
 20
9.0288552060354448
 30
0.0
  0
VERTEX
  5
2448
  8
20
 10
32.99366298337074
 20
8.7877402174652026
 30
0.0
  0
VERTEX
  5
2449
  8
20
 10
32.311705497262338
 20
9.4288840704854948
 30
0.0
  0
VERTEX
  5
244A
  8
20
 10
32.443616051574061
 20
9.5695784845934249
 30
0.0
  0
VERTEX
  5
244B
  8
20
 10
32.448190782678651
 20
9.6252131182339937
 30
0.0
  0
VERTEX
  5
244C
  8
20
 10
31.27298200256234
 20
10.725288582128471
 30
0.0
  0
VERTEX
  5
244D
  8
20
 10
29.295567288643159
 20
4.0877004987354608
 30
0.0
  0
VERTEX
  5
244E
  8
20
 10
30.754099381562039
 20
2.7202277523705831
 30
0.0
  0
VERTEX
  5
244F
  8
20
 10
30.808965623343081
 20
2.5418895679769302
 30
0.0
  0
VERTEX
  5
2450
  8
20
 10
32.399105298089218
 20
1.0422134719738021
 30
0.0
  0
VERTEX
  5
2451
  8
20
 10
32.619777066572183
 20
1.2794594913705379
 30
0.0
  0
VERTEX
  5
2452
  8
20
 10
33.304489881897439
 20
0.6374947937201583
 30
0.0
  0
VERTEX
  5
2453
  8
20
 10
33.172579327585723
 20
0.4968003796122176
 30
0.0
  0
VERTEX
  5
2454
  8
20
 10
33.171287975001583
 20
0.452187062839057
 30
0.0
  0
VERTEX
  5
2455
  8
20
 10
33.62937437292755
 20
0.0227000000000002
 30
0.0
  0
SEQEND
  5
2456
  8
20
  0
POLYLINE
  5
1C63
  8
20
 66
     1
 10
0.0
 20
0.0
 30
0.0
 70
     1
  0
VERTEX
  5
2457
  8
20
 10
21.687667272419649
 20
35.884117719629131
 30
0.0
  0
VERTEX
  5
2458
  8
20
 10
20.83636475309827
 20
35.56383694287058
 30
0.0
  0
VERTEX
  5
2459
  8
20
 10
20.723991927084889
 20
35.862522586313261
 30
0.0
  0
VERTEX
  5
245A
  8
20
 10
18.669971120054392
 20
35.089749847336293
 30
0.0
  0
VERTEX
  5
245B
  8
20
 10
18.487097957504961
 20
34.922652850298121
 30
0.0
  0
VERTEX
  5
245C
  8
20
 10
16.697674958501519
 20
34.249428262019762
 30
0.0
  0
VERTEX
  5
245D
  8
20
 10
16.500847889812199
 20
32.347692341529957
 30
0.0
  0
VERTEX
  5
245E
  8
20
 10
16.38130222720088
 20
32.118411999642973
 30
0.0
  0
VERTEX
  5
245F
  8
20
 10
16.15415324456281
 20
29.938026932089208
 30
0.0
  0
VERTEX
  5
2460
  8
20
 10
16.483955120484332
 20
29.902376009750089
 30
0.0
  0
VERTEX
  5
2461
  8
20
 10
16.385688349558759
 20
28.971529569752139
 30
0.0
  0
VERTEX
  5
2462
  8
20
 10
16.19386561634289
 20
28.99151335121589
 30
0.0
  0
VERTEX
  5
2463
  8
20
 10
16.146788716150478
 20
28.96151491636882
 30
0.0
  0
VERTEX
  5
2464
  8
20
 10
15.981269571754391
 20
27.36030127791723
 30
0.0
  0
VERTEX
  5
2465
  8
20
 10
22.463555292956311
 20
29.79909531274815
 30
0.0
  0
VERTEX
  5
2466
  8
20
 10
22.670720494130641
 20
31.787657647086039
 30
0.0
  0
VERTEX
  5
2467
  8
20
 10
22.779581782503811
 20
31.939196527884761
 30
0.0
  0
VERTEX
  5
2468
  8
20
 10
23.012458730200311
 20
34.112521378282551
 30
0.0
  0
VERTEX
  5
2469
  8
20
 10
22.690063313187899
 20
34.144815312920237
 30
0.0
  0
VERTEX
  5
246A
  8
20
 10
22.787317716311541
 20
35.078352614570832
 30
0.0
  0
VERTEX
  5
246B
  8
20
 10
22.97914044952741
 20
35.058368833107068
 30
0.0
  0
VERTEX
  5
246C
  8
20
 10
23.015453903109272
 20
35.08431779674644
 30
0.0
  0
VERTEX
  5
246D
  8
20
 10
23.18265154135608
 20
36.689234664652609
 30
0.0
  0
VERTEX
  5
246E
  8
20
 10
21.60777120549195
 20
36.096480521255252
 30
0.0
  0
SEQEND
  5
246F
  8
20
  0
POLYLINE
  5
1C64
  8
20
 66
     1
 10
0.0
 20
0.0
 30
0.0
 70
     1
  0
VERTEX
  5
2470
  8
20
 10
24.682525874071072
 20
35.563211468634243
 30
0.0
  0
VERTEX
  5
2471
  8
20
 10
25.446643035298369
 20
35.069834615425727
 30
0.0
  0
VERTEX
  5
2472
  8
20
 10
25.6197478711419
 20
35.337930645669722
 30
0.0
  0
VERTEX
  5
2473
  8
20
 10
27.463408041936511
 20
34.147512082119171
 30
0.0
  0
VERTEX
  5
2474
  8
20
 10
27.606726309256569
 20
33.945462894413851
 30
0.0
  0
VERTEX
  5
2475
  8
20
 10
29.212887211168749
 20
32.908393382378293
 30
0.0
  0
VERTEX
  5
2476
  8
20
 10
29.00232093779546
 20
31.00812965048009
 30
0.0
  0
VERTEX
  5
2477
  8
20
 10
29.07057448622551
 20
30.758726174658879
 30
0.0
  0
VERTEX
  5
2478
  8
20
 10
28.830603749900391
 20
28.579714988631469
 30
0.0
  0
VERTEX
  5
2479
  8
20
 10
28.50073579873829
 20
28.614749263579171
 30
0.0
  0
VERTEX
  5
247A
  8
20
 10
28.399551232838789
 20
27.684215472280481
 30
0.0
  0
VERTEX
  5
247B
  8
20
 10
28.59125309671218
 20
27.663103677295862
 30
0.0
  0
VERTEX
  5
247C
  8
20
 10
28.630905396092921
 20
27.62381200160214
 30
0.0
  0
VERTEX
  5
247D
  8
20
 10
28.453414268195509
 20
26.023881189772229
 30
0.0
  0
VERTEX
  5
247E
  8
20
 10
22.63500582803545
 20
29.780723978484499
 30
0.0
  0
VERTEX
  5
247F
  8
20
 10
22.853864769375939
 20
31.768033300638528
 30
0.0
  0
VERTEX
  5
2480
  8
20
 10
22.779581782503811
 20
31.939196527884771
 30
0.0
  0
VERTEX
  5
2481
  8
20
 10
23.012458730200311
 20
34.112521378282551
 30
0.0
  0
VERTEX
  5
2482
  8
20
 10
23.33437711620768
 20
34.075775550282593
 30
0.0
  0
VERTEX
  5
2483
  8
20
 10
23.437121185132799
 20
35.008724621133027
 30
0.0
  0
VERTEX
  5
2484
  8
20
 10
23.24541932125943
 20
35.029836416117647
 30
0.0
  0
VERTEX
  5
2485
  8
20
 10
23.215428140085681
 20
35.062890079708893
 30
0.0
  0
VERTEX
  5
2486
  8
20
 10
23.392063491456941
 20
36.66679567411618
 30
0.0
  0
VERTEX
  5
2487
  8
20
 10
24.805601852852789
 20
35.753825330858177
 30
0.0
  0
SEQEND
  5
2488
  8
20
  0
POLYLINE
  5
1C6A
  8
20
 66
     1
 10
0.0
 20
0.0
 30
0.0
 70
     1
  0
VERTEX
  5
2489
  8
20
 10
37.391917865551562
 20
34.154635740631718
 30
0.0
  0
VERTEX
  5
248A
  8
20
 10
38.153119615195003
 20
33.656772655332396
 30
0.0
  0
VERTEX
  5
248B
  8
20
 10
38.32779847800105
 20
33.92384579234507
 30
0.0
  0
VERTEX
  5
248C
  8
20
 10
40.16442435027264
 20
32.722602858079568
 30
0.0
  0
VERTEX
  5
248D
  8
20
 10
40.306551623707058
 20
32.519714124666152
 30
0.0
  0
VERTEX
  5
248E
  8
20
 10
41.906584381485608
 20
31.47321463127852
 30
0.0
  0
VERTEX
  5
248F
  8
20
 10
41.684843825838399
 20
29.574222390053912
 30
0.0
  0
VERTEX
  5
2490
  8
20
 10
41.751629126842772
 20
29.324421741146121
 30
0.0
  0
VERTEX
  5
2491
  8
20
 10
41.498844940244439
 20
27.1468598343038
 30
0.0
  0
VERTEX
  5
2492
  8
20
 10
41.169188778278517
 20
27.183833886054821
 30
0.0
  0
VERTEX
  5
2493
  8
20
 10
41.062532282127947
 20
26.253911391997448
 30
0.0
  0
VERTEX
  5
2494
  8
20
 10
41.254106643433737
 20
26.231672313997599
 30
0.0
  0
VERTEX
  5
2495
  8
20
 10
41.293527131289743
 20
26.192148071282588
 30
0.0
  0
VERTEX
  5
2496
  8
20
 10
41.106627797842272
 20
24.593288996103698
 30
0.0
  0
VERTEX
  5
2497
  8
20
 10
35.310418905378299
 20
28.384292424029699
 30
0.0
  0
VERTEX
  5
2498
  8
20
 10
35.540964013976748
 20
30.370279969566258
 30
0.0
  0
VERTEX
  5
2499
  8
20
 10
35.467689146069873
 20
30.54187719050303
 30
0.0
  0
VERTEX
  5
249A
  8
20
 10
35.713346218024647
 20
32.71379458790183
 30
0.0
  0
VERTEX
  5
249B
  8
20
 10
36.035042884498338
 20
32.675155774453387
 30
0.0
  0
VERTEX
  5
249C
  8
20
 10
36.143273064097613
 20
33.60748433280817
 30
0.0
  0
VERTEX
  5
249D
  8
20
 10
35.951698702791838
 20
33.629723410808019
 30
0.0
  0
VERTEX
  5
249E
  8
20
 10
35.921902472125488
 20
33.662952919728212
 30
0.0
  0
VERTEX
  5
249F
  8
20
 10
36.107969424724232
 20
35.265791742653221
 30
0.0
  0
VERTEX
  5
24A0
  8
20
 10
37.516112963323209
 20
34.344522334983452
 30
0.0
  0
SEQEND
  5
24A1
  8
20
  0
POLYLINE
  5
1C6B
  8
20
 66
     1
 10
0.0
 20
0.0
 30
0.0
 70
     1
  0
VERTEX
  5
24A2
  8
20
 10
34.398998745114667
 20
34.493153102574013
 30
0.0
  0
VERTEX
  5
24A3
  8
20
 10
33.545826965811472
 20
34.177885485517322
 30
0.0
  0
VERTEX
  5
24A4
  8
20
 10
33.435213043122403
 20
34.477226972338528
 30
0.0
  0
VERTEX
  5
24A5
  8
20
 10
31.376682089805179
 20
33.71654997383321
 30
0.0
  0
VERTEX
  5
24A6
  8
20
 10
31.19282917611466
 20
33.550531582901641
 30
0.0
  0
VERTEX
  5
24A7
  8
20
 10
29.399477025338889
 20
32.887844568593273
 30
0.0
  0
VERTEX
  5
24A8
  8
20
 10
29.191466776817201
 20
30.987299346095259
 30
0.0
  0
VERTEX
  5
24A9
  8
20
 10
29.070574486225521
 20
30.758726174658879
 30
0.0
  0
VERTEX
  5
24AA
  8
20
 10
28.830603749900391
 20
28.579714988631469
 30
0.0
  0
VERTEX
  5
24AB
  8
20
 10
29.160190210462691
 20
28.5421246888321
 30
0.0
  0
VERTEX
  5
24AC
  8
20
 10
29.056449619711518
 20
27.6118723881332
 30
0.0
  0
VERTEX
  5
24AD
  8
20
 10
28.864747755838131
 20
27.632984183117809
 30
0.0
  0
VERTEX
  5
24AE
  8
20
 10
28.81749521026293
 20
27.60326318781712
 30
0.0
  0
VERTEX
  5
24AF
  8
20
 10
28.642560107217161
 20
26.00305088538742
 30
0.0
  0
VERTEX
  5
24B0
  8
20
 10
35.139079402283052
 20
28.403671964287991
 30
0.0
  0
VERTEX
  5
24B1
  8
20
 10
35.357938343623587
 20
30.39098128644202
 30
0.0
  0
VERTEX
  5
24B2
  8
20
 10
35.467689146069873
 20
30.54187719050303
 30
0.0
  0
VERTEX
  5
24B3
  8
20
 10
35.713346218024647
 20
32.71379458790183
 30
0.0
  0
VERTEX
  5
24B4
  8
20
 10
35.391146341417482
 20
32.747984391050181
 30
0.0
  0
VERTEX
  5
24B5
  8
20
 10
35.493890410342622
 20
33.680933461900622
 30
0.0
  0
VERTEX
  5
24B6
  8
20
 10
35.685592274215992
 20
33.659821666916002
 30
0.0
  0
VERTEX
  5
24B7
  8
20
 10
35.722057739185011
 20
33.685556574912582
 30
0.0
  0
VERTEX
  5
24B8
  8
20
 10
35.898693090556321
 20
35.289462169319869
 30
0.0
  0
VERTEX
  5
24B9
  8
20
 10
34.320353242604568
 20
34.705982202933761
 30
0.0
  0
SEQEND
  5
24BA
  8
20
  0
POLYLINE
  5
1C6C
  8
20
 66
     1
 10
0.0
 20
0.0
 30
0.0
 70
     1
  0
VERTEX
  5
24BB
  8
20
 10
38.827095510722963
 20
22.723324233941021
 30
0.0
  0
VERTEX
  5
24BC
  8
20
 10
37.973923731419781
 20
22.40805661688432
 30
0.0
  0
VERTEX
  5
24BD
  8
20
 10
37.863309808730712
 20
22.707398103705529
 30
0.0
  0
VERTEX
  5
24BE
  8
20
 10
35.804778855413488
 20
21.946721105200201
 30
0.0
  0
VERTEX
  5
24BF
  8
20
 10
35.620925941722959
 20
21.780702714268621
 30
0.0
  0
VERTEX
  5
24C0
  8
20
 10
33.827573790947199
 20
21.118015699960232
 30
0.0
  0
VERTEX
  5
24C1
  8
20
 10
33.619563542425531
 20
19.217470477462228
 30
0.0
  0
VERTEX
  5
24C2
  8
20
 10
33.498671251833841
 20
18.988897306025841
 30
0.0
  0
VERTEX
  5
24C3
  8
20
 10
33.258700515508743
 20
16.809886119998438
 30
0.0
  0
VERTEX
  5
24C4
  8
20
 10
33.588286976071032
 20
16.772295820199069
 30
0.0
  0
VERTEX
  5
24C5
  8
20
 10
33.484546385319867
 20
15.842043519500169
 30
0.0
  0
VERTEX
  5
24C6
  8
20
 10
33.292844521446483
 20
15.86315531448478
 30
0.0
  0
VERTEX
  5
24C7
  8
20
 10
33.245591975871299
 20
15.833434319184081
 30
0.0
  0
VERTEX
  5
24C8
  8
20
 10
33.070656872825531
 20
14.233222016754381
 30
0.0
  0
VERTEX
  5
24C9
  8
20
 10
39.567176167891397
 20
16.633843095654999
 30
0.0
  0
VERTEX
  5
24CA
  8
20
 10
39.786035109231911
 20
18.621152417809029
 30
0.0
  0
VERTEX
  5
24CB
  8
20
 10
39.895785911678203
 20
18.772048321870042
 30
0.0
  0
VERTEX
  5
24CC
  8
20
 10
40.141442983632949
 20
20.94396571926886
 30
0.0
  0
VERTEX
  5
24CD
  8
20
 10
39.819243107025791
 20
20.9781555224172
 30
0.0
  0
VERTEX
  5
24CE
  8
20
 10
39.921987175950918
 20
21.911104593267641
 30
0.0
  0
VERTEX
  5
24CF
  8
20
 10
40.113689039824287
 20
21.889992798283028
 30
0.0
  0
VERTEX
  5
24D0
  8
20
 10
40.150154504793321
 20
21.915727706279601
 30
0.0
  0
VERTEX
  5
24D1
  8
20
 10
40.326789856164609
 20
23.519633300686881
 30
0.0
  0
VERTEX
  5
24D2
  8
20
 10
38.74845000821287
 20
22.936153334300769
 30
0.0
  0
SEQEND
  5
24D3
  8
20
  0
POLYLINE
  5
1C6D
  8
20
 66
     1
 10
0.0
 20
0.0
 30
0.0
 70
     1
  0
VERTEX
  5
24D4
  8
20
 10
41.297131009047433
 20
8.1572196186969492
 30
0.0
  0
VERTEX
  5
24D5
  8
20
 10
40.443959229744223
 20
7.8419520016402648
 30
0.0
  0
VERTEX
  5
24D6
  8
20
 10
40.554573152433292
 20
7.5426105148190308
 30
0.0
  0
VERTEX
  5
24D7
  8
20
 10
38.496042199116062
 20
6.7819335163137424
 30
0.0
  0
VERTEX
  5
24D8
  8
20
 10
38.248411888559772
 20
6.7885084150808899
 30
0.0
  0
VERTEX
  5
24D9
  8
20
 10
36.455059737783998
 20
6.1258214007725442
 30
0.0
  0
VERTEX
  5
24DA
  8
20
 10
35.061188516289448
 20
7.434432658610155
 30
0.0
  0
VERTEX
  5
24DB
  8
20
 10
34.820713606574451
 20
7.5294719053588457
 30
0.0
  0
VERTEX
  5
24DC
  8
20
 10
33.221487099547623
 20
9.0288552060354448
 30
0.0
  0
VERTEX
  5
24DD
  8
20
 10
33.447435290203082
 20
9.2717290019964977
 30
0.0
  0
VERTEX
  5
24DE
  8
20
 10
32.763718996703837
 20
9.9109969294953331
 30
0.0
  0
VERTEX
  5
24DF
  8
20
 10
32.631808442392121
 20
9.7703025153874066
 30
0.0
  0
VERTEX
  5
24E0
  8
20
 10
32.576583722208703
 20
9.7621556812990278
 30
0.0
  0
VERTEX
  5
24E1
  8
20
 10
31.403133749483239
 20
10.86410707071496
 30
0.0
  0
VERTEX
  5
24E2
  8
20
 10
37.899653044549162
 20
13.26472814961541
 30
0.0
  0
VERTEX
  5
24E3
  8
20
 10
39.358185137468062
 20
11.89725540325054
 30
0.0
  0
VERTEX
  5
24E4
  8
20
 10
39.539685511388342
 20
11.8539838564005
 30
0.0
  0
VERTEX
  5
24E5
  8
20
 10
41.138619223088611
 20
10.36368738800458
 30
0.0
  0
VERTEX
  5
24E6
  8
20
 10
40.916071529084192
 20
10.12820017599868
 30
0.0
  0
VERTEX
  5
24E7
  8
20
 10
41.600784344409441
 20
9.4862354783482985
 30
0.0
  0
VERTEX
  5
24E8
  8
20
 10
41.732694898721178
 20
9.6269298924562232
 30
0.0
  0
VERTEX
  5
24E9
  8
20
 10
41.777132538298417
 20
9.6310906392404618
 30
0.0
  0
VERTEX
  5
24EA
  8
20
 10
42.954275803001458
 20
8.5274390014990473
 30
0.0
  0
VERTEX
  5
24EB
  8
20
 10
41.375776511557532
 20
7.9443905183372223
 30
0.0
  0
SEQEND
  5
24EC
  8
20
  0
POLYLINE
  5
1C6E
  8
20
 66
     1
 10
0.0
 20
0.0
 30
0.0
  0
VERTEX
  5
24ED
  8
20
 10
38.344337223718483
 20
0.0226999999999998
 30
0.0
  0
VERTEX
  5
24EE
  8
20
 10
42.258439511593828
 20
1.469055506768455
 30
0.0
  0
VERTEX
  5
24EF
  8
20
 10
42.477298452934413
 20
3.4563648289224882
 30
0.0
  0
VERTEX
  5
24F0
  8
20
 10
42.587049255380698
 20
3.6072607329835118
 30
0.0
  0
VERTEX
  5
24F1
  8
20
 10
42.832706327335508
 20
5.7791781303823022
 30
0.0
  0
VERTEX
  5
24F2
  8
20
 10
42.51050645072835
 20
5.8133679335306381
 30
0.0
  0
VERTEX
  5
24F3
  8
20
 10
42.613250519653491
 20
6.7463170043810647
 30
0.0
  0
VERTEX
  5
24F4
  8
20
 10
42.804952383526867
 20
6.7252052093964556
 30
0.0
  0
VERTEX
  5
24F5
  8
20
 10
42.841417848495887
 20
6.7509401173930392
 30
0.0
  0
VERTEX
  5
24F6
  8
20
 10
43.018053199867232
 20
8.3548457118003157
 30
0.0
  0
VERTEX
  5
24F7
  8
20
 10
41.439713351915472
 20
7.7713657454142364
 30
0.0
  0
VERTEX
  5
24F8
  8
20
 10
41.518358854425571
 20
7.5585366450545086
 30
0.0
  0
VERTEX
  5
24F9
  8
20
 10
40.665187075122361
 20
7.2432690279977967
 30
0.0
  0
VERTEX
  5
24FA
  8
20
 10
40.554573152433292
 20
7.5426105148190308
 30
0.0
  0
VERTEX
  5
24FB
  8
20
 10
38.496042199116062
 20
6.7819335163137451
 30
0.0
  0
VERTEX
  5
24FC
  8
20
 10
38.312189285425532
 20
6.6159151253821831
 30
0.0
  0
VERTEX
  5
24FD
  8
20
 10
36.518837134649758
 20
5.953228111073833
 30
0.0
  0
VERTEX
  5
24FE
  8
20
 10
36.310826886128048
 20
4.0526828885758341
 30
0.0
  0
VERTEX
  5
24FF
  8
20
 10
36.18993459553635
 20
3.824109717139442
 30
0.0
  0
VERTEX
  5
2500
  8
20
 10
35.949963859211167
 20
1.6450985311120261
 30
0.0
  0
VERTEX
  5
2501
  8
20
 10
36.279550319773492
 20
1.6075082313126641
 30
0.0
  0
VERTEX
  5
2502
  8
20
 10
36.175809729022312
 20
0.6772559306137662
 30
0.0
  0
VERTEX
  5
2503
  8
20
 10
35.984107865148928
 20
0.6983677255983843
 30
0.0
  0
VERTEX
  5
2504
  8
20
 10
35.936855319573731
 20
0.6686467302977129
 30
0.0
  0
VERTEX
  5
2505
  8
20
 10
35.866240465747673
 20
0.0227000000000008
 30
0.0
  0
SEQEND
  5
2506
  8
20
  0
POLYLINE
  5
1C6F
  8
20
 66
     1
 10
0.0
 20
0.0
 30
0.0
  0
VERTEX
  5
2507
  8
20
 10
44.611536679557076
 20
0.0226999999999995
 30
0.0
  0
VERTEX
  5
2508
  8
20
 10
42.429779014689117
 20
1.4496759665101631
 30
0.0
  0
VERTEX
  5
2509
  8
20
 10
42.660324123287587
 20
3.4356635120467258
 30
0.0
  0
VERTEX
  5
250A
  8
20
 10
42.587049255380698
 20
3.6072607329835118
 30
0.0
  0
VERTEX
  5
250B
  8
20
 10
42.832706327335508
 20
5.7791781303823022
 30
0.0
  0
VERTEX
  5
250C
  8
20
 10
43.154402993809207
 20
5.7405393169338419
 30
0.0
  0
VERTEX
  5
250D
  8
20
 10
43.26263317340851
 20
6.6728678752886061
 30
0.0
  0
VERTEX
  5
250E
  8
20
 10
43.071058812102713
 20
6.6951069532884731
 30
0.0
  0
VERTEX
  5
250F
  8
20
 10
43.041262581436378
 20
6.7283364622086621
 30
0.0
  0
VERTEX
  5
2510
  8
20
 10
43.227329534035142
 20
8.3311752851336784
 30
0.0
  0
VERTEX
  5
2511
  8
20
 10
44.635473072634099
 20
7.4099058774638742
 30
0.0
  0
VERTEX
  5
2512
  8
20
 10
44.511277974862452
 20
7.2200192831121788
 30
0.0
  0
VERTEX
  5
2513
  8
20
 10
45.272479724505871
 20
6.7221561978128221
 30
0.0
  0
VERTEX
  5
2514
  8
20
 10
45.447158587311939
 20
6.9892293348254908
 30
0.0
  0
VERTEX
  5
2515
  8
20
 10
47.283784459583529
 20
5.7879864005599693
 30
0.0
  0
VERTEX
  5
2516
  8
20
 10
47.425911733017927
 20
5.5850976671465524
 30
0.0
  0
VERTEX
  5
2517
  8
20
 10
49.025944490796483
 20
4.5385981737588992
 30
0.0
  0
VERTEX
  5
2518
  8
20
 10
48.804203935149218
 20
2.6396059325342871
 30
0.0
  0
VERTEX
  5
2519
  8
20
 10
48.870989236153591
 20
2.3898052836264991
 30
0.0
  0
VERTEX
  5
251A
  8
20
 10
48.618205049555257
 20
0.2122433767841514
 30
0.0
  0
VERTEX
  5
251B
  8
20
 10
48.288548887589307
 20
0.2492174285352053
 30
0.0
  0
VERTEX
  5
251C
  8
20
 10
48.262568706016118
 20
0.0227000000000006
 30
0.0
  0
SEQEND
  5
251D
  8
20
  0
POLYLINE
  5
1C70
  8
20
 66
     1
 10
0.0
 20
0.0
 30
0.0
 70
     1
  0
VERTEX
  5
251E
  8
20
 10
44.86063570047456
 20
7.7541655571374903
 30
0.0
  0
VERTEX
  5
251F
  8
20
 10
45.621837450118001
 20
7.2563024718381541
 30
0.0
  0
VERTEX
  5
2520
  8
20
 10
45.447158587311939
 20
6.9892293348254881
 30
0.0
  0
VERTEX
  5
2521
  8
20
 10
47.283784459583529
 20
5.7879864005599648
 30
0.0
  0
VERTEX
  5
2522
  8
20
 10
47.526627473734933
 20
5.7390857821808652
 30
0.0
  0
VERTEX
  5
2523
  8
20
 10
49.12666023151349
 20
4.6925862887932146
 30
0.0
  0
VERTEX
  5
2524
  8
20
 10
50.777602979823072
 20
5.6568105614881139
 30
0.0
  0
VERTEX
  5
2525
  8
20
 10
51.033230294671817
 20
5.6957376282696819
 30
0.0
  0
VERTEX
  5
2526
  8
20
 10
52.926950332104703
 20
6.8000474230964221
 30
0.0
  0
VERTEX
  5
2527
  8
20
 10
52.760957248803876
 20
7.0872521617782587
 30
0.0
  0
VERTEX
  5
2528
  8
20
 10
53.57018451979858
 20
7.5576590888142832
 30
0.0
  0
VERTEX
  5
2529
  8
20
 10
53.667337874182159
 20
7.3910561529697381
 30
0.0
  0
VERTEX
  5
252A
  8
20
 10
53.719347829627779
 20
7.3707804246340061
 30
0.0
  0
VERTEX
  5
252B
  8
20
 10
55.109279311780952
 20
8.1827977754613102
 30
0.0
  0
VERTEX
  5
252C
  8
20
 10
49.313070419317008
 20
11.97380120338735
 30
0.0
  0
VERTEX
  5
252D
  8
20
 10
47.585953317728681
 20
10.966644762944201
 30
0.0
  0
VERTEX
  5
252E
  8
20
 10
47.399373241515143
 20
10.96500535446736
 30
0.0
  0
VERTEX
  5
252F
  8
20
 10
45.507968190131002
 20
9.8694874359815756
 30
0.0
  0
VERTEX
  5
2530
  8
20
 10
45.672296511734373
 20
9.5902421927919832
 30
0.0
  0
VERTEX
  5
2531
  8
20
 10
44.861495557291001
 20
9.1174292014585419
 30
0.0
  0
VERTEX
  5
2532
  8
20
 10
44.7643422029074
 20
9.2840321373030861
 30
0.0
  0
VERTEX
  5
2533
  8
20
 10
44.721956504651423
 20
9.2980131318439732
 30
0.0
  0
VERTEX
  5
2534
  8
20
 10
43.328045274752142
 20
8.4851634001679912
 30
0.0
  0
VERTEX
  5
2535
  8
20
 10
44.736440602702913
 20
7.5642789627857994
 30
0.0
  0
SEQEND
  5
2536
  8
20
  0
POLYLINE
  5
1C71
  8
20
 66
     1
 10
0.0
 20
0.0
 30
0.0
 70
     1
  0
VERTEX
  5
2537
  8
20
 10
43.35100346080273
 20
10.36053647601234
 30
0.0
  0
VERTEX
  5
2538
  8
20
 10
43.297913133681043
 20
11.26854372957925
 30
0.0
  0
VERTEX
  5
2539
  8
20
 10
42.979332224278288
 20
11.24991660448914
 30
0.0
  0
VERTEX
  5
253A
  8
20
 10
42.851236002212659
 20
13.440754466977539
 30
0.0
  0
VERTEX
  5
253B
  8
20
 10
42.929654192245792
 20
13.67573231161809
 30
0.0
  0
VERTEX
  5
253C
  8
20
 10
42.818059253642872
 20
15.584347669751651
 30
0.0
  0
VERTEX
  5
253D
  8
20
 10
44.475927586461509
 20
16.536614962735701
 30
0.0
  0
VERTEX
  5
253E
  8
20
 10
44.636890083606801
 20
16.73898026395543
 30
0.0
  0
VERTEX
  5
253F
  8
20
 10
46.537073241777442
 20
17.832131519971568
 30
0.0
  0
VERTEX
  5
2540
  8
20
 10
46.70360298207676
 20
17.545237617594999
 30
0.0
  0
VERTEX
  5
2541
  8
20
 10
47.514301039491549
 20
18.013105240784409
 30
0.0
  0
VERTEX
  5
2542
  8
20
 10
47.41812937473938
 20
18.1802767796264
 30
0.0
  0
VERTEX
  5
2543
  8
20
 10
47.426421341053768
 20
18.23547989475264
 30
0.0
  0
VERTEX
  5
2544
  8
20
 10
48.822387596353309
 20
19.03707824629166
 30
0.0
  0
VERTEX
  5
2545
  8
20
 10
49.22664655439003
 20
12.123011482767319
 30
0.0
  0
VERTEX
  5
2546
  8
20
 10
47.493634935061387
 20
11.126031891503329
 30
0.0
  0
VERTEX
  5
2547
  8
20
 10
47.399373241515143
 20
10.96500535446736
 30
0.0
  0
VERTEX
  5
2548
  8
20
 10
45.507968190130988
 20
9.8694874359815827
 30
0.0
  0
VERTEX
  5
2549
  8
20
 10
45.347514270272967
 20
10.150976765667799
 30
0.0
  0
VERTEX
  5
254A
  8
20
 10
44.533946114575301
 20
9.6829413305406717
 30
0.0
  0
VERTEX
  5
254B
  8
20
 10
44.630117779327449
 20
9.5157697916986663
 30
0.0
  0
VERTEX
  5
254C
  8
20
 10
44.621154565262053
 20
9.4720470697040753
 30
0.0
  0
VERTEX
  5
254D
  8
20
 10
43.222486023617378
 20
8.6674108079443783
 30
0.0
  0
VERTEX
  5
254E
  8
20
 10
43.12449530431568
 20
10.347292757885199
 30
0.0
  0
SEQEND
  5
254F
  8
20
  0
POLYLINE
  5
1C72
  8
20
 66
     1
 10
0.0
 20
0.0
 30
0.0
 70
     1
  0
VERTEX
  5
2550
  8
20
 10
55.26765153143495
 20
11.057291641545129
 30
0.0
  0
VERTEX
  5
2551
  8
20
 10
55.214561204313242
 20
11.96529889511204
 30
0.0
  0
VERTEX
  5
2552
  8
20
 10
55.533142113715989
 20
11.98392602020215
 30
0.0
  0
VERTEX
  5
2553
  8
20
 10
55.405045891650381
 20
14.17476388269055
 30
0.0
  0
VERTEX
  5
2554
  8
20
 10
55.299777791577448
 20
14.39900176331518
 30
0.0
  0
VERTEX
  5
2555
  8
20
 10
55.188182852974528
 20
16.30761712144874
 30
0.0
  0
VERTEX
  5
2556
  8
20
 10
53.43063422913314
 20
17.060188208511779
 30
0.0
  0
VERTEX
  5
2557
  8
20
 10
53.247184932329517
 20
17.242416077201671
 30
0.0
  0
VERTEX
  5
2558
  8
20
 10
51.232554032614232
 20
18.10667185012851
 30
0.0
  0
VERTEX
  5
2559
  8
20
 10
51.100593551491151
 20
17.802325506226079
 30
0.0
  0
VERTEX
  5
255A
  8
20
 10
50.240894408253737
 20
18.17252658164572
 30
0.0
  0
VERTEX
  5
255B
  8
20
 10
50.31692864047605
 20
18.349766836752639
 30
0.0
  0
VERTEX
  5
255C
  8
20
 10
50.302259820527212
 20
18.403627456376888
 30
0.0
  0
VERTEX
  5
255D
  8
20
 10
48.822387596353302
 20
19.03707824629166
 30
0.0
  0
VERTEX
  5
255E
  8
20
 10
49.226646554390022
 20
12.123011482767319
 30
0.0
  0
VERTEX
  5
255F
  8
20
 10
51.064037198998392
 20
11.33478994206277
 30
0.0
  0
VERTEX
  5
2560
  8
20
 10
51.176422581821498
 20
11.18584586454471
 30
0.0
  0
VERTEX
  5
2561
  8
20
 10
53.182610998625798
 20
10.318216557521721
 30
0.0
  0
VERTEX
  5
2562
  8
20
 10
53.309166907058561
 20
10.61648708098282
 30
0.0
  0
VERTEX
  5
2563
  8
20
 10
54.17173614857888
 20
10.24645381750096
 30
0.0
  0
VERTEX
  5
2564
  8
20
 10
54.095701916356568
 20
10.069213562394021
 30
0.0
  0
VERTEX
  5
2565
  8
20
 10
54.10969948855444
 20
10.02683333590142
 30
0.0
  0
VERTEX
  5
2566
  8
20
 10
55.592609622948977
 20
9.3906802596414707
 30
0.0
  0
VERTEX
  5
2567
  8
20
 10
55.494159687922
 20
11.070535359672251
 30
0.0
  0
SEQEND
  5
2568
  8
20
  0
POLYLINE
  5
1C73
  8
20
 66
     1
 10
0.0
 20
0.0
 30
0.0
 70
     1
  0
VERTEX
  5
2569
  8
20
 10
55.904813350240438
 20
11.09454589172535
 30
0.0
  0
VERTEX
  5
256A
  8
20
 10
55.851723023118758
 20
12.002553145292261
 30
0.0
  0
VERTEX
  5
256B
  8
20
 10
55.533142113716011
 20
11.98392602020215
 30
0.0
  0
VERTEX
  5
256C
  8
20
 10
55.405045891650381
 20
14.17476388269055
 30
0.0
  0
VERTEX
  5
256D
  8
20
 10
55.483464081683529
 20
14.409741727331101
 30
0.0
  0
VERTEX
  5
256E
  8
20
 10
55.371869143080623
 20
16.318357085464658
 30
0.0
  0
VERTEX
  5
256F
  8
20
 10
57.02973747589926
 20
17.270624378448691
 30
0.0
  0
VERTEX
  5
2570
  8
20
 10
57.190699973044573
 20
17.47298967966843
 30
0.0
  0
VERTEX
  5
2571
  8
20
 10
59.090883131215222
 20
18.566140935684551
 30
0.0
  0
VERTEX
  5
2572
  8
20
 10
59.257412871514539
 20
18.279247033307978
 30
0.0
  0
VERTEX
  5
2573
  8
20
 10
60.068110928929329
 20
18.747114656497381
 30
0.0
  0
VERTEX
  5
2574
  8
20
 10
59.971939264177159
 20
18.914286195339379
 30
0.0
  0
VERTEX
  5
2575
  8
20
 10
59.98023123049154
 20
18.969489310465619
 30
0.0
  0
VERTEX
  5
2576
  8
20
 10
61.376197485791089
 20
19.771087662004621
 30
0.0
  0
VERTEX
  5
2577
  8
20
 10
61.780456443827767
 20
12.85702089848027
 30
0.0
  0
VERTEX
  5
2578
  8
20
 10
60.047444824499102
 20
11.860041307216299
 30
0.0
  0
VERTEX
  5
2579
  8
20
 10
59.953183130952858
 20
11.699014770180341
 30
0.0
  0
VERTEX
  5
257A
  8
20
 10
58.06177807956869
 20
10.603496851694571
 30
0.0
  0
VERTEX
  5
257B
  8
20
 10
57.901324159710683
 20
10.884986181380791
 30
0.0
  0
VERTEX
  5
257C
  8
20
 10
57.087756004013002
 20
10.41695074625367
 30
0.0
  0
VERTEX
  5
257D
  8
20
 10
57.183927668765151
 20
10.24977920741166
 30
0.0
  0
VERTEX
  5
257E
  8
20
 10
57.174964454699747
 20
10.20605648541707
 30
0.0
  0
VERTEX
  5
257F
  8
20
 10
55.776295913055073
 20
9.4014202236573894
 30
0.0
  0
VERTEX
  5
2580
  8
20
 10
55.678305193753388
 20
11.08130217359821
 30
0.0
  0
SEQEND
  5
2581
  8
20
  0
POLYLINE
  5
1C75
  8
20
 66
     1
 10
0.0
 20
0.0
 30
0.0
  0
VERTEX
  5
2582
  8
20
 10
49.738996501085559
 20
0.0227
 30
0.0
  0
VERTEX
  5
2583
  8
20
 10
49.726455270311398
 20
0.2175194704397114
 30
0.0
  0
VERTEX
  5
2584
  8
20
 10
49.407989443017627
 20
0.1970186784769652
 30
0.0
  0
VERTEX
  5
2585
  8
20
 10
49.267008267067091
 20
2.3870651368535429
 30
0.0
  0
VERTEX
  5
2586
  8
20
 10
49.344042889737182
 20
2.6225001956491161
 30
0.0
  0
VERTEX
  5
2587
  8
20
 10
49.22122282978016
 20
4.5304260979045523
 30
0.0
  0
VERTEX
  5
2588
  8
20
 10
50.873460956148207
 20
5.4924289981215111
 30
0.0
  0
VERTEX
  5
2589
  8
20
 10
51.033230294671817
 20
5.6957376282696819
 30
0.0
  0
VERTEX
  5
258A
  8
20
 10
52.926950332104703
 20
6.8000474230964221
 30
0.0
  0
VERTEX
  5
258B
  8
20
 10
53.095164787883427
 20
6.5141380624730303
 30
0.0
  0
VERTEX
  5
258C
  8
20
 10
53.903096680819672
 20
6.9867663619869944
 30
0.0
  0
VERTEX
  5
258D
  8
20
 10
53.805943326436079
 20
7.1533692978315306
 30
0.0
  0
VERTEX
  5
258E
  8
20
 10
53.813910427894463
 20
7.2086202337453349
 30
0.0
  0
VERTEX
  5
258F
  8
20
 10
55.205137288106087
 20
8.0184162120946851
 30
0.0
  0
VERTEX
  5
2590
  8
20
 10
55.650059881243578
 20
1.106847041367913
 30
0.0
  0
VERTEX
  5
2591
  8
20
 10
53.922942779655237
 20
0.0996906009247525
 30
0.0
  0
VERTEX
  5
2592
  8
20
 10
53.829629923649946
 20
-0.0618876259628323
 30
0.0
  0
SEQEND
  5
2593
  8
20
  0
POLYLINE
  5
1C76
  8
20
 66
     1
 10
0.0
 20
0.0
 30
0.0
 70
     1
  0
VERTEX
  5
2594
  8
20
 10
59.121471936366461
 20
20.04077305172423
 30
0.0
  0
VERTEX
  5
2595
  8
20
 10
58.426920329785929
 20
19.453496437886741
 30
0.0
  0
VERTEX
  5
2596
  8
20
 10
58.63297057549967
 20
19.2098079854186
 30
0.0
  0
VERTEX
  5
2597
  8
20
 10
56.957158018748331
 20
17.792828290273061
 30
0.0
  0
VERTEX
  5
2598
  8
20
 10
56.722124829016003
 20
17.714576135515241
 30
0.0
  0
VERTEX
  5
2599
  8
20
 10
55.262189505670896
 20
16.480130969752778
 30
0.0
  0
VERTEX
  5
259A
  8
20
 10
53.505654671592488
 20
17.235065260217269
 30
0.0
  0
VERTEX
  5
259B
  8
20
 10
53.247184932329517
 20
17.242416077201671
 30
0.0
  0
VERTEX
  5
259C
  8
20
 10
51.232554032614232
 20
18.106671850128521
 30
0.0
  0
VERTEX
  5
259D
  8
20
 10
51.362151310335889
 20
18.412031983793909
 30
0.0
  0
VERTEX
  5
259E
  8
20
 10
50.501438377335496
 20
18.779869855812102
 30
0.0
  0
VERTEX
  5
259F
  8
20
 10
50.425404145113212
 20
18.602629600705178
 30
0.0
  0
VERTEX
  5
25A0
  8
20
 10
50.376266473223581
 20
18.576141304680942
 30
0.0
  0
VERTEX
  5
25A1
  8
20
 10
48.89740803881265
 20
19.211955297997171
 30
0.0
  0
VERTEX
  5
25A2
  8
20
 10
54.18610607481012
 20
23.683802522541129
 30
0.0
  0
VERTEX
  5
25A3
  8
20
 10
56.023496719418489
 20
22.895580981836591
 30
0.0
  0
VERTEX
  5
25A4
  8
20
 10
56.208874965174999
 20
22.91678754922118
 30
0.0
  0
VERTEX
  5
25A5
  8
20
 10
58.220132330794129
 20
22.060974259205299
 30
0.0
  0
VERTEX
  5
25A6
  8
20
 10
58.09121321895995
 20
21.763717525507161
 30
0.0
  0
VERTEX
  5
25A7
  8
20
 10
58.953782460480269
 20
21.393684262025289
 30
0.0
  0
VERTEX
  5
25A8
  8
20
 10
59.029816692702582
 20
21.570924517132219
 30
0.0
  0
VERTEX
  5
25A9
  8
20
 10
59.070172798737481
 20
21.589987579076642
 30
0.0
  0
VERTEX
  5
25AA
  8
20
 10
60.553082933132039
 20
20.953834502816711
 30
0.0
  0
VERTEX
  5
25AB
  8
20
 10
59.267971804760393
 20
19.867512757410879
 30
0.0
  0
SEQEND
  5
25AC
  8
20
  0
POLYLINE
  5
1C77
  8
20
 66
     1
 10
0.0
 20
0.0
 30
0.0
 70
     1
  0
VERTEX
  5
25AD
  8
20
 10
51.414078961560953
 20
29.156038408910401
 30
0.0
  0
VERTEX
  5
25AE
  8
20
 10
50.719527354980443
 20
28.568761795072891
 30
0.0
  0
VERTEX
  5
25AF
  8
20
 10
50.513477109266702
 20
28.812450247541019
 30
0.0
  0
VERTEX
  5
25B0
  8
20
 10
48.837664552515328
 20
27.395470552395508
 30
0.0
  0
VERTEX
  5
25B1
  8
20
 10
48.721435108059389
 20
27.17671334396238
 30
0.0
  0
VERTEX
  5
25B2
  8
20
 10
47.261499784714267
 20
25.942268178199921
 30
0.0
  0
VERTEX
  5
25B3
  8
20
 10
47.713972089368667
 20
24.084686626888988
 30
0.0
  0
VERTEX
  5
25B4
  8
20
 10
47.678259372498943
 20
23.828590468232139
 30
0.0
  0
VERTEX
  5
25B5
  8
20
 10
48.195633293986617
 20
21.69833228470381
 30
0.0
  0
VERTEX
  5
25B6
  8
20
 10
48.518286657782419
 20
21.7753717061468
 30
0.0
  0
VERTEX
  5
25B7
  8
20
 10
48.737945283389152
 20
20.865491746305089
 30
0.0
  0
VERTEX
  5
25B8
  8
20
 10
48.550532539970241
 20
20.819974979018792
 30
0.0
  0
VERTEX
  5
25B9
  8
20
 10
48.516245336240118
 20
20.775923551285171
 30
0.0
  0
VERTEX
  5
25BA
  8
20
 10
48.89740803881265
 20
19.211955297997171
 30
0.0
  0
VERTEX
  5
25BB
  8
20
 10
54.18610607481012
 20
23.683802522541129
 30
0.0
  0
VERTEX
  5
25BC
  8
20
 10
53.714248920608753
 20
25.626647962650551
 30
0.0
  0
VERTEX
  5
25BD
  8
20
 10
53.765972952929332
 20
25.805922715419872
 30
0.0
  0
VERTEX
  5
25BE
  8
20
 10
53.256363348465143
 20
27.931451033077121
 30
0.0
  0
VERTEX
  5
25BF
  8
20
 10
52.941813384636617
 20
27.853733445746659
 30
0.0
  0
VERTEX
  5
25C0
  8
20
 10
52.720298450509929
 20
28.765808797052049
 30
0.0
  0
VERTEX
  5
25C1
  8
20
 10
52.907711193928861
 20
28.811325564338361
 30
0.0
  0
VERTEX
  5
25C2
  8
20
 10
52.933216831804209
 20
28.847951757992199
 30
0.0
  0
VERTEX
  5
25C3
  8
20
 10
52.552393212175453
 20
30.415971711263818
 30
0.0
  0
VERTEX
  5
25C4
  8
20
 10
51.267579093167022
 20
29.32929870322377
 30
0.0
  0
SEQEND
  5
25C5
  8
20
  0
POLYLINE
  5
1C79
  8
20
 66
     1
 10
0.0
 20
0.0
 30
0.0
 70
     1
  0
VERTEX
  5
25C6
  8
20
 10
60.30078932766326
 20
22.812301394786559
 30
0.0
  0
VERTEX
  5
25C7
  8
20
 10
60.242358746116679
 20
23.719980645680899
 30
0.0
  0
VERTEX
  5
25C8
  8
20
 10
60.56082457341045
 20
23.74048143764367
 30
0.0
  0
VERTEX
  5
25C9
  8
20
 10
60.419843397459971
 20
25.930527896020251
 30
0.0
  0
VERTEX
  5
25CA
  8
20
 10
60.313258083672409
 20
26.15414267836881
 30
0.0
  0
VERTEX
  5
25CB
  8
20
 10
60.190438023715451
 20
28.06206858062427
 30
0.0
  0
VERTEX
  5
25CC
  8
20
 10
58.42849295657377
 20
28.804288215655021
 30
0.0
  0
VERTEX
  5
25CD
  8
20
 10
58.24397491423926
 20
28.985433827465101
 30
0.0
  0
VERTEX
  5
25CE
  8
20
 10
56.224295055918169
 20
29.837823980515381
 30
0.0
  0
VERTEX
  5
25CF
  8
20
 10
56.094127114953189
 20
29.532706670665629
 30
0.0
  0
VERTEX
  5
25D0
  8
20
 10
55.232265210727562
 20
29.897844331239789
 30
0.0
  0
VERTEX
  5
25D1
  8
20
 10
55.30725554677305
 20
30.075528776253389
 30
0.0
  0
VERTEX
  5
25D2
  8
20
 10
55.292270156174268
 20
30.129302177611329
 30
0.0
  0
VERTEX
  5
25D3
  8
20
 10
53.80869738622053
 20
30.754036952837499
 30
0.0
  0
VERTEX
  5
25D4
  8
20
 10
54.253619979357921
 20
23.84246778211072
 30
0.0
  0
VERTEX
  5
25D5
  8
20
 10
56.09561539266543
 20
23.0650679651059
 30
0.0
  0
VERTEX
  5
25D6
  8
20
 10
56.208874965174999
 20
22.91678754922118
 30
0.0
  0
VERTEX
  5
25D7
  8
20
 10
58.220132330794129
 20
22.060974259205299
 30
0.0
  0
VERTEX
  5
25D8
  8
20
 10
58.344931532383782
 20
22.35998406240175
 30
0.0
  0
VERTEX
  5
25D9
  8
20
 10
59.20966249811655
 20
21.995031093647079
 30
0.0
  0
VERTEX
  5
25DA
  8
20
 10
59.134672162071077
 20
21.817346648633489
 30
0.0
  0
VERTEX
  5
25DB
  8
20
 10
59.148918785391942
 20
21.775049493304181
 30
0.0
  0
VERTEX
  5
25DC
  8
20
 10
60.635545308672292
 20
21.147630348390319
 30
0.0
  0
VERTEX
  5
25DD
  8
20
 10
60.527215661807602
 20
22.826877273180241
 30
0.0
  0
SEQEND
  5
25DE
  8
20
  0
POLYLINE
  5
1C7A
  8
20
 66
     1
 10
0.0
 20
0.0
 30
0.0
 70
     1
  0
VERTEX
  5
25DF
  8
20
 10
60.937720982250781
 20
22.853302978712051
 30
0.0
  0
VERTEX
  5
25E0
  8
20
 10
60.879290400704242
 20
23.760982229606391
 30
0.0
  0
VERTEX
  5
25E1
  8
20
 10
60.56082457341045
 20
23.74048143764367
 30
0.0
  0
VERTEX
  5
25E2
  8
20
 10
60.419843397459971
 20
25.930527896020251
 30
0.0
  0
VERTEX
  5
25E3
  8
20
 10
60.496878020130069
 20
26.1659629548158
 30
0.0
  0
VERTEX
  5
25E4
  8
20
 10
60.37405796017309
 20
28.07388885707125
 30
0.0
  0
VERTEX
  5
25E5
  8
20
 10
62.026296086541159
 20
29.035891757288159
 30
0.0
  0
VERTEX
  5
25E6
  8
20
 10
62.18606542506479
 20
29.239200387436341
 30
0.0
  0
VERTEX
  5
25E7
  8
20
 10
64.079785462497682
 20
30.343510182263032
 30
0.0
  0
VERTEX
  5
25E8
  8
20
 10
64.247999918276406
 20
30.057600821639632
 30
0.0
  0
VERTEX
  5
25E9
  8
20
 10
65.055931811212659
 20
30.530229121153582
 30
0.0
  0
VERTEX
  5
25EA
  8
20
 10
64.958778456829066
 20
30.696832056998119
 30
0.0
  0
VERTEX
  5
25EB
  8
20
 10
64.966745558287442
 20
30.75208299291193
 30
0.0
  0
VERTEX
  5
25EC
  8
20
 10
66.357972418499102
 20
31.56187897126124
 30
0.0
  0
VERTEX
  5
25ED
  8
20
 10
66.802895011636423
 20
24.650309800534458
 30
0.0
  0
VERTEX
  5
25EE
  8
20
 10
65.07577791004806
 20
23.64315336009134
 30
0.0
  0
VERTEX
  5
25EF
  8
20
 10
64.982465054042791
 20
23.481575133203759
 30
0.0
  0
VERTEX
  5
25F0
  8
20
 10
63.097536892950828
 20
22.374950352328369
 30
0.0
  0
VERTEX
  5
25F1
  8
20
 10
62.935429943825369
 20
22.655490973576409
 30
0.0
  0
VERTEX
  5
25F2
  8
20
 10
62.124628989381982
 20
22.182677982242989
 30
0.0
  0
VERTEX
  5
25F3
  8
20
 10
62.221782343765561
 20
22.016075046398448
 30
0.0
  0
VERTEX
  5
25F4
  8
20
 10
62.213076475029212
 20
21.972300356513269
 30
0.0
  0
VERTEX
  5
25F5
  8
20
 10
60.819165245129923
 20
21.159450624837302
 30
0.0
  0
VERTEX
  5
25F6
  8
20
 10
60.711294648106453
 20
22.838727100318341
 30
0.0
  0
SEQEND
  5
25F7
  8
20
  0
POLYLINE
  5
1C7B
  8
20
 66
     1
 10
0.0
 20
0.0
 30
0.0
  0
VERTEX
  5
25F8
  8
20
 10
72.978028385952143
 20
23.628380918308501
 30
0.0
  0
VERTEX
  5
25F9
  8
20
 10
72.850064359941726
 20
23.620143413210251
 30
0.0
  0
VERTEX
  5
25FA
  8
20
 10
72.791633778395152
 20
24.52782266410459
 30
0.0
  0
VERTEX
  5
25FB
  8
20
 10
73.11009960568893
 20
24.54832345606734
 30
0.0
  0
VERTEX
  5
25FC
  8
20
 10
72.969118429738472
 20
26.738369914443929
 30
0.0
  0
VERTEX
  5
25FD
  8
20
 10
72.862533115950896
 20
26.961984696792491
 30
0.0
  0
VERTEX
  5
25FE
  8
20
 10
72.739713055993946
 20
28.869910599047952
 30
0.0
  0
VERTEX
  5
25FF
  8
20
 10
70.977767988852307
 20
29.61213023407872
 30
0.0
  0
VERTEX
  5
2600
  8
20
 10
70.79324994651779
 20
29.7932758458888
 30
0.0
  0
VERTEX
  5
2601
  8
20
 10
68.773570088196706
 20
30.645665998939101
 30
0.0
  0
VERTEX
  5
2602
  8
20
 10
68.643402147231726
 20
30.340548689089349
 30
0.0
  0
VERTEX
  5
2603
  8
20
 10
67.781540243006106
 20
30.70568634966353
 30
0.0
  0
VERTEX
  5
2604
  8
20
 10
67.856530579051594
 20
30.88337079467712
 30
0.0
  0
VERTEX
  5
2605
  8
20
 10
67.841545188452827
 20
30.93714419603506
 30
0.0
  0
VERTEX
  5
2606
  8
20
 10
66.357972418499088
 20
31.56187897126124
 30
0.0
  0
VERTEX
  5
2607
  8
20
 10
66.802895011636394
 20
24.650309800534458
 30
0.0
  0
VERTEX
  5
2608
  8
20
 10
68.644890424943895
 20
23.872909983529631
 30
0.0
  0
VERTEX
  5
2609
  8
20
 10
68.758149997453472
 20
23.7246295676449
 30
0.0
  0
VERTEX
  5
260A
  8
20
 10
70.769407363072574
 20
22.868816277629001
 30
0.0
  0
VERTEX
  5
260B
  8
20
 10
70.894206564662241
 20
23.167826080825449
 30
0.0
  0
VERTEX
  5
260C
  8
20
 10
71.758937530395002
 20
22.80287311207077
 30
0.0
  0
VERTEX
  5
260D
  8
20
 10
71.683947194349528
 20
22.625188667057181
 30
0.0
  0
VERTEX
  5
260E
  8
20
 10
71.698193817670386
 20
22.582891511727869
 30
0.0
  0
VERTEX
  5
260F
  8
20
 10
72.319384657712973
 20
22.320722756102651
 30
0.0
  0
SEQEND
  5
2610
  8
20
  0
POLYLINE
  5
1C7D
  8
20
 66
     1
 10
0.0
 20
0.0
 30
0.0
 70
     1
  0
VERTEX
  5
2611
  8
20
 10
47.101928226455399
 20
33.027440659183171
 30
0.0
  0
VERTEX
  5
2612
  8
20
 10
46.246916708429872
 20
32.717197110648051
 30
0.0
  0
VERTEX
  5
2613
  8
20
 10
46.138065516503389
 20
33.017184083100503
 30
0.0
  0
VERTEX
  5
2614
  8
20
 10
44.075095645728013
 20
32.26862914584256
 30
0.0
  0
VERTEX
  5
2615
  8
20
 10
43.890269342533863
 20
32.103695105548887
 30
0.0
  0
VERTEX
  5
2616
  8
20
 10
42.093050093156627
 20
31.451568595358658
 30
0.0
  0
VERTEX
  5
2617
  8
20
 10
41.873863862326772
 20
29.552279833094062
 30
0.0
  0
VERTEX
  5
2618
  8
20
 10
41.751629126842758
 20
29.324421741146121
 30
0.0
  0
VERTEX
  5
2619
  8
20
 10
41.498844940244432
 20
27.1468598343038
 30
0.0
  0
VERTEX
  5
261A
  8
20
 10
41.828204581170347
 20
27.107331457735331
 30
0.0
  0
VERTEX
  5
261B
  8
20
 10
41.718993760202338
 20
26.177705484717961
 30
0.0
  0
VERTEX
  5
261C
  8
20
 10
41.527419398896562
 20
26.199944562717821
 30
0.0
  0
VERTEX
  5
261D
  8
20
 10
41.479992842960613
 20
26.170502035362741
 30
0.0
  0
VERTEX
  5
261E
  8
20
 10
41.295647834330531
 20
24.571346439143859
 30
0.0
  0
VERTEX
  5
261F
  8
20
 10
47.806175912149762
 20
26.93371149635929
 30
0.0
  0
VERTEX
  5
2620
  8
20
 10
48.036721020748267
 20
28.91969904189585
 30
0.0
  0
VERTEX
  5
2621
  8
20
 10
48.147357539694909
 20
29.069946747952759
 30
0.0
  0
VERTEX
  5
2622
  8
20
 10
48.405786235736791
 20
31.240381540151571
 30
0.0
  0
VERTEX
  5
2623
  8
20
 10
48.0837930482231
 20
31.276466028782629
 30
0.0
  0
VERTEX
  5
2624
  8
20
 10
48.192023227822403
 20
32.208794587137412
 30
0.0
  0
VERTEX
  5
2625
  8
20
 10
48.383597589128179
 20
32.186555509137548
 30
0.0
  0
VERTEX
  5
2626
  8
20
 10
48.420213803714482
 20
32.212075471017791
 30
0.0
  0
VERTEX
  5
2627
  8
20
 10
48.606280756313282
 20
33.814914293942813
 30
0.0
  0
VERTEX
  5
2628
  8
20
 10
47.024536009637039
 20
33.240728694011537
 30
0.0
  0
SEQEND
  5
2629
  8
20
  0
POLYLINE
  5
1C80
  8
20
 66
     1
 10
0.0
 20
0.0
 30
0.0
 70
     1
  0
VERTEX
  5
262A
  8
20
 10
24.094181793975579
 20
38.460747553246549
 30
0.0
  0
VERTEX
  5
262B
  8
20
 10
24.355660800040631
 20
39.331910273265741
 30
0.0
  0
VERTEX
  5
262C
  8
20
 10
24.050007061602699
 20
39.423652072920639
 30
0.0
  0
VERTEX
  5
262D
  8
20
 10
24.680903020288959
 20
41.525591527598984
 30
0.0
  0
VERTEX
  5
262E
  8
20
 10
24.835139629319631
 20
41.719434423869963
 30
0.0
  0
VERTEX
  5
262F
  8
20
 10
25.38476392454945
 20
43.550603217214288
 30
0.0
  0
VERTEX
  5
2630
  8
20
 10
27.268649409847399
 20
43.876664384073742
 30
0.0
  0
VERTEX
  5
2631
  8
20
 10
27.489243327713631
 20
44.011567920074157
 30
0.0
  0
VERTEX
  5
2632
  8
20
 10
29.649061375434218
 20
44.386883392530812
 30
0.0
  0
VERTEX
  5
2633
  8
20
 10
29.707120736103771
 20
44.060280611979842
 30
0.0
  0
VERTEX
  5
2634
  8
20
 10
30.629098579662791
 20
44.221799369748837
 30
0.0
  0
VERTEX
  5
2635
  8
20
 10
30.59607962314168
 20
44.411812687730126
 30
0.0
  0
VERTEX
  5
2636
  8
20
 10
30.622797723566869
 20
44.460825785313027
 30
0.0
  0
VERTEX
  5
2637
  8
20
 10
32.20899567736079
 20
44.735157253622717
 30
0.0
  0
VERTEX
  5
2638
  8
20
 10
30.21795067403956
 20
38.101645038334759
 30
0.0
  0
VERTEX
  5
2639
  8
20
 10
28.248145944300241
 20
37.7593485223992
 30
0.0
  0
VERTEX
  5
263A
  8
20
 10
28.104383856326109
 20
37.640406206290457
 30
0.0
  0
VERTEX
  5
263B
  8
20
 10
25.952000217755579
 20
37.259857588451773
 30
0.0
  0
VERTEX
  5
263C
  8
20
 10
25.897795126253321
 20
37.579300089037133
 30
0.0
  0
VERTEX
  5
263D
  8
20
 10
24.97306364541107
 20
37.418607833967698
 30
0.0
  0
VERTEX
  5
263E
  8
20
 10
25.006082601932182
 20
37.22859451598643
 30
0.0
  0
VERTEX
  5
263F
  8
20
 10
24.98267051230539
 20
37.190595967536439
 30
0.0
  0
VERTEX
  5
2640
  8
20
 10
23.392892418528628
 20
36.91433736464311
 30
0.0
  0
VERTEX
  5
2641
  8
20
 10
23.876864739583478
 20
38.525975146298492
 30
0.0
  0
SEQEND
  5
2642
  8
20
  0
POLYLINE
  5
1C81
  8
20
 66
     1
 10
0.0
 20
0.0
 30
0.0
 70
     1
  0
VERTEX
  5
2643
  8
20
 10
37.741275591163692
 20
34.688782014657072
 30
0.0
  0
VERTEX
  5
2644
  8
20
 10
38.502477340807111
 20
34.190918929357743
 30
0.0
  0
VERTEX
  5
2645
  8
20
 10
38.32779847800105
 20
33.92384579234507
 30
0.0
  0
VERTEX
  5
2646
  8
20
 10
40.16442435027264
 20
32.722602858079568
 30
0.0
  0
VERTEX
  5
2647
  8
20
 10
40.407267364424058
 20
32.673702239700468
 30
0.0
  0
VERTEX
  5
2648
  8
20
 10
42.007300122202608
 20
31.62720274631285
 30
0.0
  0
VERTEX
  5
2649
  8
20
 10
43.658242870512197
 20
32.591427019007753
 30
0.0
  0
VERTEX
  5
264A
  8
20
 10
43.913870185360949
 20
32.630354085789307
 30
0.0
  0
VERTEX
  5
264B
  8
20
 10
45.80759022279377
 20
33.734663880616083
 30
0.0
  0
VERTEX
  5
264C
  8
20
 10
45.641597139493001
 20
34.021868619297891
 30
0.0
  0
VERTEX
  5
264D
  8
20
 10
46.450824410487677
 20
34.492275546333921
 30
0.0
  0
VERTEX
  5
264E
  8
20
 10
46.547977764871277
 20
34.325672610489391
 30
0.0
  0
VERTEX
  5
264F
  8
20
 10
46.599987720316904
 20
34.305396882153673
 30
0.0
  0
VERTEX
  5
2650
  8
20
 10
47.989919202470027
 20
35.117414232980963
 30
0.0
  0
VERTEX
  5
2651
  8
20
 10
42.193710310006082
 20
38.908417660906977
 30
0.0
  0
VERTEX
  5
2652
  8
20
 10
40.466593208417763
 20
37.901261220463809
 30
0.0
  0
VERTEX
  5
2653
  8
20
 10
40.280013132204239
 20
37.899621811986982
 30
0.0
  0
VERTEX
  5
2654
  8
20
 10
38.388608080820092
 20
36.804103893501157
 30
0.0
  0
VERTEX
  5
2655
  8
20
 10
38.552936402423462
 20
36.524858650311572
 30
0.0
  0
VERTEX
  5
2656
  8
20
 10
37.742135447980068
 20
36.05204565897813
 30
0.0
  0
VERTEX
  5
2657
  8
20
 10
37.644982093596482
 20
36.218648594822653
 30
0.0
  0
VERTEX
  5
2658
  8
20
 10
37.602596395340512
 20
36.232629589363562
 30
0.0
  0
VERTEX
  5
2659
  8
20
 10
36.208685165441253
 20
35.419779857687558
 30
0.0
  0
VERTEX
  5
265A
  8
20
 10
37.617080493392002
 20
34.498895420305359
 30
0.0
  0
SEQEND
  5
265B
  8
20
  0
POLYLINE
  5
1C82
  8
20
 66
     1
 10
0.0
 20
0.0
 30
0.0
 70
     1
  0
VERTEX
  5
265C
  8
20
 10
36.23164335149184
 20
37.295152933531902
 30
0.0
  0
VERTEX
  5
265D
  8
20
 10
36.178553024370117
 20
38.203160187098788
 30
0.0
  0
VERTEX
  5
265E
  8
20
 10
35.859972114967377
 20
38.184533062008668
 30
0.0
  0
VERTEX
  5
265F
  8
20
 10
35.731875892901712
 20
40.375370924497062
 30
0.0
  0
VERTEX
  5
2660
  8
20
 10
35.810294082934853
 20
40.610348769137637
 30
0.0
  0
VERTEX
  5
2661
  8
20
 10
35.698699144331911
 20
42.518964127271161
 30
0.0
  0
VERTEX
  5
2662
  8
20
 10
37.35656747715052
 20
43.471231420255258
 30
0.0
  0
VERTEX
  5
2663
  8
20
 10
37.517529974295798
 20
43.673596721474993
 30
0.0
  0
VERTEX
  5
2664
  8
20
 10
39.417713132466417
 20
44.766747977491121
 30
0.0
  0
VERTEX
  5
2665
  8
20
 10
39.584242872765763
 20
44.479854075114602
 30
0.0
  0
VERTEX
  5
2666
  8
20
 10
40.39494093018051
 20
44.947721698304008
 30
0.0
  0
VERTEX
  5
2667
  8
20
 10
40.298769265428362
 20
45.114893237145999
 30
0.0
  0
VERTEX
  5
2668
  8
20
 10
40.307061231742779
 20
45.170096352272253
 30
0.0
  0
VERTEX
  5
2669
  8
20
 10
41.703027487042263
 20
45.971694703811274
 30
0.0
  0
VERTEX
  5
266A
  8
20
 10
42.107286445079119
 20
39.057627940286928
 30
0.0
  0
VERTEX
  5
266B
  8
20
 10
40.374274825750469
 20
38.060648349022927
 30
0.0
  0
VERTEX
  5
266C
  8
20
 10
40.280013132204239
 20
37.899621811986982
 30
0.0
  0
VERTEX
  5
266D
  8
20
 10
38.388608080820092
 20
36.804103893501171
 30
0.0
  0
VERTEX
  5
266E
  8
20
 10
38.228154160962077
 20
37.08559322318736
 30
0.0
  0
VERTEX
  5
266F
  8
20
 10
37.414586005264397
 20
36.617557788060211
 30
0.0
  0
VERTEX
  5
2670
  8
20
 10
37.510757670016552
 20
36.450386249218226
 30
0.0
  0
VERTEX
  5
2671
  8
20
 10
37.501794455951163
 20
36.406663527223628
 30
0.0
  0
VERTEX
  5
2672
  8
20
 10
36.10312591430651
 20
35.602027265463917
 30
0.0
  0
VERTEX
  5
2673
  8
20
 10
36.005135195004762
 20
37.281909215404738
 30
0.0
  0
SEQEND
  5
2674
  8
20
  0
POLYLINE
  5
1C83
  8
20
 66
     1
 10
0.0
 20
0.0
 30
0.0
  0
VERTEX
  5
2675
  8
20
 10
23.232907704536931
 20
46.453299946799582
 30
0.0
  0
VERTEX
  5
2676
  8
20
 10
24.00687605450462
 20
45.404396725323707
 30
0.0
  0
VERTEX
  5
2677
  8
20
 10
24.217465015997998
 20
45.273950225573259
 30
0.0
  0
VERTEX
  5
2678
  8
20
 10
25.352625473535561
 20
43.7355495133828
 30
0.0
  0
VERTEX
  5
2679
  8
20
 10
27.2360707060799
 20
44.064144191148621
 30
0.0
  0
VERTEX
  5
267A
  8
20
 10
27.489243327713631
 20
44.011567920074171
 30
0.0
  0
VERTEX
  5
267B
  8
20
 10
29.649061375434218
 20
44.386883392530812
 30
0.0
  0
VERTEX
  5
267C
  8
20
 10
29.59353552567114
 20
44.713926425835403
 30
0.0
  0
VERTEX
  5
267D
  8
20
 10
30.51595362198379
 20
44.87291167269801
 30
0.0
  0
VERTEX
  5
267E
  8
20
 10
30.548972578504902
 20
44.682898354716713
 30
0.0
  0
VERTEX
  5
267F
  8
20
 10
30.59065927255299
 20
44.645772081481418
 30
0.0
  0
VERTEX
  5
2680
  8
20
 10
32.176416973593312
 20
44.922637060697511
 30
0.0
  0
VERTEX
  5
2681
  8
20
 10
29.073250674461811
 20
49.128133484511622
 30
0.0
  0
SEQEND
  5
2682
  8
20
  0
POLYLINE
  5
1C85
  8
20
 66
     1
 10
0.0
 20
0.0
 30
0.0
 70
     1
  0
VERTEX
  5
2683
  8
20
 10
40.734634321601803
 20
50.739462425911938
 30
0.0
  0
VERTEX
  5
2684
  8
20
 10
39.825103988685157
 20
50.74655671012907
 30
0.0
  0
VERTEX
  5
2685
  8
20
 10
39.827593069591259
 20
51.065672002932857
 30
0.0
  0
VERTEX
  5
2686
  8
20
 10
37.633080324667887
 20
51.082789075961777
 30
0.0
  0
VERTEX
  5
2687
  8
20
 10
37.402369747971512
 20
50.992585806617363
 30
0.0
  0
VERTEX
  5
2688
  8
20
 10
35.490552903696603
 20
51.007497867901613
 30
0.0
  0
VERTEX
  5
2689
  8
20
 10
34.623361506382629
 20
49.303584875206653
 30
0.0
  0
VERTEX
  5
268A
  8
20
 10
34.429396916542821
 20
49.132592540544337
 30
0.0
  0
VERTEX
  5
268B
  8
20
 10
33.433758465875762
 20
47.179548818893892
 30
0.0
  0
VERTEX
  5
268C
  8
20
 10
33.728708402377279
 20
47.027743678721592
 30
0.0
  0
VERTEX
  5
268D
  8
20
 10
33.302445742079762
 20
46.194418053553939
 30
0.0
  0
VERTEX
  5
268E
  8
20
 10
33.130623713782057
 20
46.282010879125806
 30
0.0
  0
VERTEX
  5
268F
  8
20
 10
33.07591067876497
 20
46.270937287828517
 30
0.0
  0
VERTEX
  5
2690
  8
20
 10
32.34594804151363
 20
44.836212139466618
 30
0.0
  0
VERTEX
  5
2691
  8
20
 10
39.271612369120021
 20
44.78219235655866
 30
0.0
  0
VERTEX
  5
2692
  8
20
 10
40.179657994215219
 20
46.563414049911422
 30
0.0
  0
VERTEX
  5
2693
  8
20
 10
40.335710541278488
 20
46.665699997406961
 30
0.0
  0
VERTEX
  5
2694
  8
20
 10
41.334156632036454
 20
48.61009655726177
 30
0.0
  0
VERTEX
  5
2695
  8
20
 10
41.044911672325838
 20
48.756107024033881
 30
0.0
  0
VERTEX
  5
2696
  8
20
 10
41.47119675677569
 20
49.59230756174933
 30
0.0
  0
VERTEX
  5
2697
  8
20
 10
41.64301878507338
 20
49.504714736177448
 30
0.0
  0
VERTEX
  5
2698
  8
20
 10
41.686232169899313
 20
49.515878024083939
 30
0.0
  0
VERTEX
  5
2699
  8
20
 10
42.419092143850762
 20
50.953455660841342
 30
0.0
  0
VERTEX
  5
269A
  8
20
 10
40.736404035701881
 20
50.9663505241829
 30
0.0
  0
SEQEND
  5
269B
  8
20
  0
POLYLINE
  5
1C86
  8
20
 66
     1
 10
0.0
 20
0.0
 30
0.0
 70
     1
  0
VERTEX
  5
269C
  8
20
 10
48.148291422124082
 20
37.991908099064929
 30
0.0
  0
VERTEX
  5
269D
  8
20
 10
48.09520109500238
 20
38.899915352631808
 30
0.0
  0
VERTEX
  5
269E
  8
20
 10
48.413782004405121
 20
38.918542477721928
 30
0.0
  0
VERTEX
  5
269F
  8
20
 10
48.285685782339442
 20
41.109380340210322
 30
0.0
  0
VERTEX
  5
26A0
  8
20
 10
48.180417682266508
 20
41.333618220834978
 30
0.0
  0
VERTEX
  5
26A1
  8
20
 10
48.068822743663532
 20
43.242233578968502
 30
0.0
  0
VERTEX
  5
26A2
  8
20
 10
46.31127411982213
 20
43.99480466603152
 30
0.0
  0
VERTEX
  5
26A3
  8
20
 10
46.127824823018507
 20
44.177032534721398
 30
0.0
  0
VERTEX
  5
26A4
  8
20
 10
44.113193923303221
 20
45.041288307648152
 30
0.0
  0
VERTEX
  5
26A5
  8
20
 10
43.981233442180127
 20
44.736941963745757
 30
0.0
  0
VERTEX
  5
26A6
  8
20
 10
43.121534298942727
 20
45.107143039165379
 30
0.0
  0
VERTEX
  5
26A7
  8
20
 10
43.197568531165018
 20
45.284383294272303
 30
0.0
  0
VERTEX
  5
26A8
  8
20
 10
43.182899711216152
 20
45.338243913896548
 30
0.0
  0
VERTEX
  5
26A9
  8
20
 10
41.70302748704227
 20
45.971694703811274
 30
0.0
  0
VERTEX
  5
26AA
  8
20
 10
42.107286445079133
 20
39.057627940286928
 30
0.0
  0
VERTEX
  5
26AB
  8
20
 10
43.944677089687531
 20
38.269406399582437
 30
0.0
  0
VERTEX
  5
26AC
  8
20
 10
44.05706247251063
 20
38.120462322064412
 30
0.0
  0
VERTEX
  5
26AD
  8
20
 10
46.063250889314958
 20
37.252833015041467
 30
0.0
  0
VERTEX
  5
26AE
  8
20
 10
46.189806797747721
 20
37.551103538502552
 30
0.0
  0
VERTEX
  5
26AF
  8
20
 10
47.052376039268047
 20
37.181070275020687
 30
0.0
  0
VERTEX
  5
26B0
  8
20
 10
46.976341807045742
 20
37.003830019913778
 30
0.0
  0
VERTEX
  5
26B1
  8
20
 10
46.990339379243608
 20
36.961449793421167
 30
0.0
  0
VERTEX
  5
26B2
  8
20
 10
48.473249513638159
 20
36.325296717161258
 30
0.0
  0
VERTEX
  5
26B3
  8
20
 10
48.37479957861116
 20
38.005151817192043
 30
0.0
  0
SEQEND
  5
26B4
  8
20
  0
POLYLINE
  5
1C87
  8
20
 66
     1
 10
0.0
 20
0.0
 30
0.0
 70
     1
  0
VERTEX
  5
26B5
  8
20
 10
48.785453240929591
 20
38.029162349245169
 30
0.0
  0
VERTEX
  5
26B6
  8
20
 10
48.732362913807862
 20
38.937169602812048
 30
0.0
  0
VERTEX
  5
26B7
  8
20
 10
48.413782004405121
 20
38.918542477721928
 30
0.0
  0
VERTEX
  5
26B8
  8
20
 10
48.285685782339442
 20
41.109380340210322
 30
0.0
  0
VERTEX
  5
26B9
  8
20
 10
48.364103972372583
 20
41.344358184850897
 30
0.0
  0
VERTEX
  5
26BA
  8
20
 10
48.252509033769641
 20
43.252973542984428
 30
0.0
  0
VERTEX
  5
26BB
  8
20
 10
49.910377366588243
 20
44.205240835968517
 30
0.0
  0
VERTEX
  5
26BC
  8
20
 10
50.07133986373352
 20
44.40760613718826
 30
0.0
  0
VERTEX
  5
26BD
  8
20
 10
51.97152302190414
 20
45.500757393204402
 30
0.0
  0
VERTEX
  5
26BE
  8
20
 10
52.138052762203479
 20
45.213863490827883
 30
0.0
  0
VERTEX
  5
26BF
  8
20
 10
52.948750819618233
 20
45.681731114017289
 30
0.0
  0
VERTEX
  5
26C0
  8
20
 10
52.852579154866071
 20
45.84890265285928
 30
0.0
  0
VERTEX
  5
26C1
  8
20
 10
52.860871121180502
 20
45.904105767985527
 30
0.0
  0
VERTEX
  5
26C2
  8
20
 10
54.256837376479979
 20
46.705704119524562
 30
0.0
  0
VERTEX
  5
26C3
  8
20
 10
54.661096334516863
 20
39.791637356000209
 30
0.0
  0
VERTEX
  5
26C4
  8
20
 10
52.928084715188227
 20
38.794657764736201
 30
0.0
  0
VERTEX
  5
26C5
  8
20
 10
52.83382302164199
 20
38.63363122770027
 30
0.0
  0
VERTEX
  5
26C6
  8
20
 10
50.942417970257843
 20
37.538113309214438
 30
0.0
  0
VERTEX
  5
26C7
  8
20
 10
50.781964050399829
 20
37.819602638900633
 30
0.0
  0
VERTEX
  5
26C8
  8
20
 10
49.968395894702162
 20
37.35156720377347
 30
0.0
  0
VERTEX
  5
26C9
  8
20
 10
50.064567559454311
 20
37.184395664931493
 30
0.0
  0
VERTEX
  5
26CA
  8
20
 10
50.055604345388907
 20
37.140672942936902
 30
0.0
  0
VERTEX
  5
26CB
  8
20
 10
48.656935803744261
 20
36.336036681177177
 30
0.0
  0
VERTEX
  5
26CC
  8
20
 10
48.558945084442513
 20
38.015918631117998
 30
0.0
  0
SEQEND
  5
26CD
  8
20
  0
POLYLINE
  5
1C88
  8
20
 66
     1
 10
0.0
 20
0.0
 30
0.0
 70
     1
  0
VERTEX
  5
26CE
  8
20
 10
50.29508548060145
 20
35.422791430370353
 30
0.0
  0
VERTEX
  5
26CF
  8
20
 10
51.056287230244848
 20
34.924928345071017
 30
0.0
  0
VERTEX
  5
26D0
  8
20
 10
50.881608367438787
 20
34.657855208058372
 30
0.0
  0
VERTEX
  5
26D1
  8
20
 10
52.718234239710391
 20
33.456612273792857
 30
0.0
  0
VERTEX
  5
26D2
  8
20
 10
52.961077253861809
 20
33.407711655413749
 30
0.0
  0
VERTEX
  5
26D3
  8
20
 10
54.561110011640373
 20
32.361212162026149
 30
0.0
  0
VERTEX
  5
26D4
  8
20
 10
56.212052759949948
 20
33.325436434721063
 30
0.0
  0
VERTEX
  5
26D5
  8
20
 10
56.467680074798693
 20
33.364363501502609
 30
0.0
  0
VERTEX
  5
26D6
  8
20
 10
58.361400112231529
 20
34.468673296329371
 30
0.0
  0
VERTEX
  5
26D7
  8
20
 10
58.195407028930752
 20
34.755878035011207
 30
0.0
  0
VERTEX
  5
26D8
  8
20
 10
59.004634299925421
 20
35.22628496204721
 30
0.0
  0
VERTEX
  5
26D9
  8
20
 10
59.101787654309007
 20
35.05968202620268
 30
0.0
  0
VERTEX
  5
26DA
  8
20
 10
59.153797609754669
 20
35.039406297866968
 30
0.0
  0
VERTEX
  5
26DB
  8
20
 10
60.543729091907778
 20
35.851423648694258
 30
0.0
  0
VERTEX
  5
26DC
  8
20
 10
54.747520199443819
 20
39.64242707662028
 30
0.0
  0
VERTEX
  5
26DD
  8
20
 10
53.020403097855493
 20
38.635270636177111
 30
0.0
  0
VERTEX
  5
26DE
  8
20
 10
52.83382302164199
 20
38.63363122770027
 30
0.0
  0
VERTEX
  5
26DF
  8
20
 10
50.942417970257843
 20
37.538113309214438
 30
0.0
  0
VERTEX
  5
26E0
  8
20
 10
51.106746291861207
 20
37.25886806602486
 30
0.0
  0
VERTEX
  5
26E1
  8
20
 10
50.295945337417798
 20
36.786055074691419
 30
0.0
  0
VERTEX
  5
26E2
  8
20
 10
50.198791983034234
 20
36.952658010535941
 30
0.0
  0
VERTEX
  5
26E3
  8
20
 10
50.156406284778257
 20
36.966639005076843
 30
0.0
  0
VERTEX
  5
26E4
  8
20
 10
48.76249505487899
 20
36.153789273400847
 30
0.0
  0
VERTEX
  5
26E5
  8
20
 10
50.170890382829747
 20
35.232904836018648
 30
0.0
  0
SEQEND
  5
26E6
  8
20
  0
POLYLINE
  5
1C89
  8
20
 66
     1
 10
0.0
 20
0.0
 30
0.0
 70
     1
  0
VERTEX
  5
26E7
  8
20
 10
56.829019159617133
 20
45.412770393222267
 30
0.0
  0
VERTEX
  5
26E8
  8
20
 10
57.590220909260552
 20
44.914907307922967
 30
0.0
  0
VERTEX
  5
26E9
  8
20
 10
57.764899772066599
 20
45.181980444935633
 30
0.0
  0
VERTEX
  5
26EA
  8
20
 10
59.601525644338203
 20
43.980737510670131
 30
0.0
  0
VERTEX
  5
26EB
  8
20
 10
59.743652917772621
 20
43.7778487772567
 30
0.0
  0
VERTEX
  5
26EC
  8
20
 10
61.343685675551157
 20
42.731349283869051
 30
0.0
  0
VERTEX
  5
26ED
  8
20
 10
61.12194511990392
 20
40.83235704264446
 30
0.0
  0
VERTEX
  5
26EE
  8
20
 10
61.1887304209083
 20
40.58255639373666
 30
0.0
  0
VERTEX
  5
26EF
  8
20
 10
60.935946234309981
 20
38.404994486894353
 30
0.0
  0
VERTEX
  5
26F0
  8
20
 10
60.606290072344031
 20
38.441968538645362
 30
0.0
  0
VERTEX
  5
26F1
  8
20
 10
60.499633576193489
 20
37.512046044588018
 30
0.0
  0
VERTEX
  5
26F2
  8
20
 10
60.691207937499257
 20
37.489806966588162
 30
0.0
  0
VERTEX
  5
26F3
  8
20
 10
60.730628425355263
 20
37.45028272387313
 30
0.0
  0
VERTEX
  5
26F4
  8
20
 10
60.543729091907792
 20
35.851423648694258
 30
0.0
  0
VERTEX
  5
26F5
  8
20
 10
54.747520199443819
 20
39.64242707662028
 30
0.0
  0
VERTEX
  5
26F6
  8
20
 10
54.978065308042289
 20
41.628414622156832
 30
0.0
  0
VERTEX
  5
26F7
  8
20
 10
54.9047904401354
 20
41.800011843093579
 30
0.0
  0
VERTEX
  5
26F8
  8
20
 10
55.15044751209021
 20
43.9719292404924
 30
0.0
  0
VERTEX
  5
26F9
  8
20
 10
55.472144178563887
 20
43.933290427043957
 30
0.0
  0
VERTEX
  5
26FA
  8
20
 10
55.580374358163162
 20
44.86561898539874
 30
0.0
  0
VERTEX
  5
26FB
  8
20
 10
55.388799996857401
 20
44.887858063398582
 30
0.0
  0
VERTEX
  5
26FC
  8
20
 10
55.359003766191051
 20
44.921087572318783
 30
0.0
  0
VERTEX
  5
26FD
  8
20
 10
55.545070718789802
 20
46.523926395243791
 30
0.0
  0
VERTEX
  5
26FE
  8
20
 10
56.953214257388758
 20
45.602656987574022
 30
0.0
  0
SEQEND
  5
26FF
  8
20
  0
POLYLINE
  5
1C8A
  8
20
 66
     1
 10
0.0
 20
0.0
 30
0.0
 70
     1
  0
VERTEX
  5
2700
  8
20
 10
66.53902952052087
 20
44.285575311773762
 30
0.0
  0
VERTEX
  5
2701
  8
20
 10
65.684018002495378
 20
43.975331763238643
 30
0.0
  0
VERTEX
  5
2702
  8
20
 10
65.575166810568874
 20
44.27531873569108
 30
0.0
  0
VERTEX
  5
2703
  8
20
 10
63.512196939793512
 20
43.52676379843313
 30
0.0
  0
VERTEX
  5
2704
  8
20
 10
63.327370636599369
 20
43.361829758139457
 30
0.0
  0
VERTEX
  5
2705
  8
20
 10
61.530151387222141
 20
42.7097032479492
 30
0.0
  0
VERTEX
  5
2706
  8
20
 10
61.310965156392299
 20
40.81041448568461
 30
0.0
  0
VERTEX
  5
2707
  8
20
 10
61.1887304209083
 20
40.58255639373666
 30
0.0
  0
VERTEX
  5
2708
  8
20
 10
60.935946234309981
 20
38.404994486894353
 30
0.0
  0
VERTEX
  5
2709
  8
20
 10
61.265305875235917
 20
38.365466110325862
 30
0.0
  0
VERTEX
  5
270A
  8
20
 10
61.156095054267908
 20
37.435840137308531
 30
0.0
  0
VERTEX
  5
270B
  8
20
 10
60.964520692962118
 20
37.458079215308381
 30
0.0
  0
VERTEX
  5
270C
  8
20
 10
60.917094137026169
 20
37.428636687953279
 30
0.0
  0
VERTEX
  5
270D
  8
20
 10
60.732749128396122
 20
35.829481091734422
 30
0.0
  0
VERTEX
  5
270E
  8
20
 10
67.243277206215339
 20
38.191846148949907
 30
0.0
  0
VERTEX
  5
270F
  8
20
 10
67.473822314813816
 20
40.177833694486459
 30
0.0
  0
VERTEX
  5
2710
  8
20
 10
67.584458833760436
 20
40.328081400543361
 30
0.0
  0
VERTEX
  5
2711
  8
20
 10
67.842887529802283
 20
42.498516192742187
 30
0.0
  0
VERTEX
  5
2712
  8
20
 10
67.520894342288614
 20
42.534600681373242
 30
0.0
  0
VERTEX
  5
2713
  8
20
 10
67.629124521887917
 20
43.466929239728032
 30
0.0
  0
VERTEX
  5
2714
  8
20
 10
67.820698883193671
 20
43.444690161728161
 30
0.0
  0
VERTEX
  5
2715
  8
20
 10
67.857315097779974
 20
43.47021012360841
 30
0.0
  0
VERTEX
  5
2716
  8
20
 10
68.043382050378753
 20
45.073048946533419
 30
0.0
  0
VERTEX
  5
2717
  8
20
 10
66.461637303702545
 20
44.49886334660215
 30
0.0
  0
SEQEND
  5
2718
  8
20
  0
POLYLINE
  5
1C8B
  8
20
 66
     1
 10
0.0
 20
0.0
 30
0.0
  0
VERTEX
  5
2719
  8
20
 10
77.896161771371439
 20
33.392745154272561
 30
0.0
  0
VERTEX
  5
271A
  8
20
 10
76.798491042387184
 20
32.45374319659291
 30
0.0
  0
VERTEX
  5
271B
  8
20
 10
76.650974539185626
 20
32.62613873687215
 30
0.0
  0
VERTEX
  5
271C
  8
20
 10
75.959889487398073
 20
32.034786721098307
 30
0.0
  0
VERTEX
  5
271D
  8
20
 10
76.167369617344534
 20
31.792314534440919
 30
0.0
  0
VERTEX
  5
271E
  8
20
 10
74.499921156213546
 20
30.365501718654588
 30
0.0
  0
VERTEX
  5
271F
  8
20
 10
74.265352335575045
 20
30.285868381513339
 30
0.0
  0
VERTEX
  5
2720
  8
20
 10
72.812703649744876
 20
29.042856792194481
 30
0.0
  0
VERTEX
  5
2721
  8
20
 10
71.051758453750494
 20
29.78744555315879
 30
0.0
  0
VERTEX
  5
2722
  8
20
 10
70.79324994651779
 20
29.7932758458888
 30
0.0
  0
VERTEX
  5
2723
  8
20
 10
68.773570088196706
 20
30.645665998939101
 30
0.0
  0
VERTEX
  5
2724
  8
20
 10
68.901368903228189
 20
30.951783179936101
 30
0.0
  0
VERTEX
  5
2725
  8
20
 10
68.038507127855283
 20
31.314551714576741
 30
0.0
  0
VERTEX
  5
2726
  8
20
 10
67.963516791809795
 20
31.13686726956314
 30
0.0
  0
VERTEX
  5
2727
  8
20
 10
67.914535782203728
 20
31.110090389181568
 30
0.0
  0
VERTEX
  5
2728
  8
20
 10
66.43196288339729
 20
31.737194290341311
 30
0.0
  0
VERTEX
  5
2729
  8
20
 10
71.694264664096323
 20
36.240073867287236
 30
0.0
  0
VERTEX
  5
272A
  8
20
 10
73.536260077403838
 20
35.462674050282423
 30
0.0
  0
VERTEX
  5
272B
  8
20
 10
73.721510372517074
 20
35.484970701610742
 30
0.0
  0
VERTEX
  5
272C
  8
20
 10
75.434063802535775
 20
34.768127605071562
 30
0.0
  0
SEQEND
  5
272D
  8
20
  0
POLYLINE
  5
1C8D
  8
20
 66
     1
 10
0.0
 20
0.0
 30
0.0
 70
     1
  0
VERTEX
  5
272E
  8
20
 10
52.002111827055259
 20
46.975389509244323
 30
0.0
  0
VERTEX
  5
272F
  8
20
 10
51.307560220474812
 20
46.388112895406792
 30
0.0
  0
VERTEX
  5
2730
  8
20
 10
51.51361046618856
 20
46.144424442938657
 30
0.0
  0
VERTEX
  5
2731
  8
20
 10
49.837797909437299
 20
44.727444747793037
 30
0.0
  0
VERTEX
  5
2732
  8
20
 10
49.60276471970495
 20
44.649192593035202
 30
0.0
  0
VERTEX
  5
2733
  8
20
 10
48.142829396359943
 20
43.414747427272673
 30
0.0
  0
VERTEX
  5
2734
  8
20
 10
46.386294562281471
 20
44.169681717737049
 30
0.0
  0
VERTEX
  5
2735
  8
20
 10
46.127824823018507
 20
44.177032534721413
 30
0.0
  0
VERTEX
  5
2736
  8
20
 10
44.113193923303207
 20
45.041288307648173
 30
0.0
  0
VERTEX
  5
2737
  8
20
 10
44.242791201024822
 20
45.346648441313548
 30
0.0
  0
VERTEX
  5
2738
  8
20
 10
43.382078268024422
 20
45.714486313331683
 30
0.0
  0
VERTEX
  5
2739
  8
20
 10
43.306044035802117
 20
45.537246058224753
 30
0.0
  0
VERTEX
  5
273A
  8
20
 10
43.256906363912471
 20
45.510757762200541
 30
0.0
  0
VERTEX
  5
273B
  8
20
 10
41.77804792950154
 20
46.146571755516653
 30
0.0
  0
VERTEX
  5
273C
  8
20
 10
47.06674596549874
 20
50.618418980060952
 30
0.0
  0
VERTEX
  5
273D
  8
20
 10
48.904136610107159
 20
49.83019743935651
 30
0.0
  0
VERTEX
  5
273E
  8
20
 10
49.089514855863648
 20
49.851404006741092
 30
0.0
  0
VERTEX
  5
273F
  8
20
 10
51.100772221482828
 20
48.995590716725332
 30
0.0
  0
VERTEX
  5
2740
  8
20
 10
50.971853109648691
 20
48.698333983027197
 30
0.0
  0
VERTEX
  5
2741
  8
20
 10
51.834422351169039
 20
48.328300719545368
 30
0.0
  0
VERTEX
  5
2742
  8
20
 10
51.910456583391309
 20
48.505540974652298
 30
0.0
  0
VERTEX
  5
2743
  8
20
 10
51.950812689426243
 20
48.524604036596742
 30
0.0
  0
VERTEX
  5
2744
  8
20
 10
53.433722823820808
 20
47.88845096033689
 30
0.0
  0
VERTEX
  5
2745
  8
20
 10
52.148611695449247
 20
46.802129214930957
 30
0.0
  0
SEQEND
  5
2746
  8
20
  0
POLYLINE
  5
1C90
  8
20
 66
     1
 10
0.0
 20
0.0
 30
0.0
 70
     1
  0
VERTEX
  5
2747
  8
20
 10
57.178376885229262
 20
45.946916667247621
 30
0.0
  0
VERTEX
  5
2748
  8
20
 10
57.93957863487266
 20
45.449053581948291
 30
0.0
  0
VERTEX
  5
2749
  8
20
 10
57.764899772066613
 20
45.181980444935647
 30
0.0
  0
VERTEX
  5
274A
  8
20
 10
59.60152564433821
 20
43.980737510670139
 30
0.0
  0
VERTEX
  5
274B
  8
20
 10
59.844368658489621
 20
43.931836892291031
 30
0.0
  0
VERTEX
  5
274C
  8
20
 10
61.444401416268192
 20
42.885337398903438
 30
0.0
  0
VERTEX
  5
274D
  8
20
 10
63.09534416457776
 20
43.849561671598352
 30
0.0
  0
VERTEX
  5
274E
  8
20
 10
63.350971479426512
 20
43.88848873837992
 30
0.0
  0
VERTEX
  5
274F
  8
20
 10
65.244691516859334
 20
44.992798533206688
 30
0.0
  0
VERTEX
  5
2750
  8
20
 10
65.078698433558543
 20
45.280003271888532
 30
0.0
  0
VERTEX
  5
2751
  8
20
 10
65.887925704553226
 20
45.75041019892452
 30
0.0
  0
VERTEX
  5
2752
  8
20
 10
65.985079058936819
 20
45.583807263079997
 30
0.0
  0
VERTEX
  5
2753
  8
20
 10
66.037089014382445
 20
45.563531534744307
 30
0.0
  0
VERTEX
  5
2754
  8
20
 10
67.427020496535576
 20
46.375548885571597
 30
0.0
  0
VERTEX
  5
2755
  8
20
 10
61.630811604071589
 20
50.166552313497583
 30
0.0
  0
VERTEX
  5
2756
  8
20
 10
59.903694502483269
 20
49.159395873054393
 30
0.0
  0
VERTEX
  5
2757
  8
20
 10
59.717114426269788
 20
49.157756464577538
 30
0.0
  0
VERTEX
  5
2758
  8
20
 10
57.825709374885619
 20
48.062238546091713
 30
0.0
  0
VERTEX
  5
2759
  8
20
 10
57.990037696488997
 20
47.782993302902121
 30
0.0
  0
VERTEX
  5
275A
  8
20
 10
57.179236742045589
 20
47.310180311568679
 30
0.0
  0
VERTEX
  5
275B
  8
20
 10
57.082083387662017
 20
47.476783247413209
 30
0.0
  0
VERTEX
  5
275C
  8
20
 10
57.039697689406061
 20
47.490764241954103
 30
0.0
  0
VERTEX
  5
275D
  8
20
 10
55.64578645950678
 20
46.6779145102781
 30
0.0
  0
VERTEX
  5
275E
  8
20
 10
57.054181787457551
 20
45.757030072895908
 30
0.0
  0
SEQEND
  5
275F
  8
20
  0
POLYLINE
  5
1C99
  8
20
 66
     1
 10
0.0
 20
0.0
 30
0.0
  0
VERTEX
  5
2760
  8
20
 10
82.892137954518475
 20
45.284275909036971
 30
0.0
  0
VERTEX
  5
2761
  8
20
 10
81.710365029359238
 20
44.261229023799153
 30
0.0
  0
VERTEX
  5
2762
  8
20
 10
81.561836995683166
 20
44.432753844852279
 30
0.0
  0
VERTEX
  5
2763
  8
20
 10
80.874242411459306
 20
43.837346888972533
 30
0.0
  0
VERTEX
  5
2764
  8
20
 10
81.083145246457335
 20
43.596099358094399
 30
0.0
  0
VERTEX
  5
2765
  8
20
 10
79.424118577626189
 20
42.159502791925831
 30
0.0
  0
VERTEX
  5
2766
  8
20
 10
79.19002224257946
 20
42.07849102785611
 30
0.0
  0
VERTEX
  5
2767
  8
20
 10
79.08130332045296
 20
41.984348339773511
 30
0.0
  0
SEQEND
  5
2768
  8
20
  0
POLYLINE
  5
1C9A
  8
20
 66
     1
 10
0.0
 20
0.0
 30
0.0
  0
VERTEX
  5
2769
  8
20
 10
83.058266196909017
 20
45.61653239381809
 30
0.0
  0
VERTEX
  5
276A
  8
20
 10
82.934706593401685
 20
47.235202991954282
 30
0.0
  0
VERTEX
  5
276B
  8
20
 10
82.70846740510089
 20
47.217964352159008
 30
0.0
  0
VERTEX
  5
276C
  8
20
 10
82.639362564822704
 20
48.124893388199951
 30
0.0
  0
VERTEX
  5
276D
  8
20
 10
82.957565173811446
 20
48.149139321008818
 30
0.0
  0
VERTEX
  5
276E
  8
20
 10
82.838507758663809
 20
49.711643862206529
 30
0.0
  0
SEQEND
  5
276F
  8
20
  0
POLYLINE
  5
1C9D
  8
20
 66
     1
 10
0.0
 20
0.0
 30
0.0
  0
VERTEX
  5
2770
  8
20
 10
19.963317883314019
 20
39.903111584416983
 30
0.0
  0
VERTEX
  5
2771
  8
20
 10
21.270816836273841
 20
38.664912177761011
 30
0.0
  0
VERTEX
  5
2772
  8
20
 10
21.49197547309404
 20
38.901704408387012
 30
0.0
  0
VERTEX
  5
2773
  8
20
 10
22.17536816565493
 20
38.258334576754869
 30
0.0
  0
VERTEX
  5
2774
  8
20
 10
22.043168885182581
 20
38.117911420749202
 30
0.0
  0
VERTEX
  5
2775
  8
20
 10
22.041785893821569
 20
38.073300850702481
 30
0.0
  0
VERTEX
  5
2776
  8
20
 10
23.216659632402308
 20
36.967233537417087
 30
0.0
  0
VERTEX
  5
2777
  8
20
 10
23.700191371491812
 20
38.5790035595044
 30
0.0
  0
VERTEX
  5
2778
  8
20
 10
23.482874317099711
 20
38.644231152556351
 30
0.0
  0
VERTEX
  5
2779
  8
20
 10
23.74435332316477
 20
39.51539387257553
 30
0.0
  0
VERTEX
  5
277A
  8
20
 10
24.050007061602699
 20
39.423652072920632
 30
0.0
  0
VERTEX
  5
277B
  8
20
 10
24.680903020288909
 20
41.525591527598991
 30
0.0
  0
VERTEX
  5
277C
  8
20
 10
24.658906843193229
 20
41.772330596643968
 30
0.0
  0
VERTEX
  5
277D
  8
20
 10
25.208531138423002
 20
43.603499389988308
 30
0.0
  0
VERTEX
  5
277E
  8
20
 10
23.815588256683679
 20
44.91309876936424
 30
0.0
  0
VERTEX
  5
277F
  8
20
 10
23.705745700563
 20
45.147182629315893
 30
0.0
  0
VERTEX
  5
2780
  8
20
 10
22.940537948690821
 20
45.867576025155017
 30
0.0
  0
SEQEND
  5
2781
  8
20
  0
POLYLINE
  5
1C9E
  8
20
 66
     1
 10
0.0
 20
0.0
 30
0.0
  0
VERTEX
  5
2782
  8
20
 10
19.965791281190018
 20
39.908066708107967
 30
0.0
  0
VERTEX
  5
2783
  8
20
 10
21.291433466932389
 20
38.68698618776498
 30
0.0
  0
VERTEX
  5
2784
  8
20
 10
21.070274830112211
 20
38.450193957138993
 30
0.0
  0
VERTEX
  5
2785
  8
20
 10
21.75875202955849
 20
37.812268053649717
 30
0.0
  0
VERTEX
  5
2786
  8
20
 10
21.88983269465902
 20
37.953735971344152
 30
0.0
  0
VERTEX
  5
2787
  8
20
 10
21.934245090656251
 20
37.958158041762452
 30
0.0
  0
VERTEX
  5
2788
  8
20
 10
23.11786000203308
 20
36.861449810421277
 30
0.0
  0
VERTEX
  5
2789
  8
20
 10
21.542817687320628
 20
36.26912620488838
 30
0.0
  0
VERTEX
  5
278A
  8
20
 10
21.462921620392901
 20
36.481489006514479
 30
0.0
  0
VERTEX
  5
278B
  8
20
 10
20.611619101071518
 20
36.161208229755921
 30
0.0
  0
VERTEX
  5
278C
  8
20
 10
20.723991927084899
 20
35.862522586313233
 30
0.0
  0
VERTEX
  5
278D
  8
20
 10
18.669971120054392
 20
35.0897498473363
 30
0.0
  0
VERTEX
  5
278E
  8
20
 10
18.422306418181929
 20
35.094867996066867
 30
0.0
  0
VERTEX
  5
278F
  8
20
 10
16.632883419178491
 20
34.421643407788551
 30
0.0
  0
VERTEX
  5
2790
  8
20
 10
16.404344064120568
 20
34.63368812824114
 30
0.0
  0
SEQEND
  5
2791
  8
20
  0
POLYLINE
  5
1CA0
  8
20
 66
     1
 10
0.0
 20
0.0
 30
0.0
  0
VERTEX
  5
2792
  8
20
 10
33.366227671619761
 20
53.899999999999999
 30
0.0
  0
VERTEX
  5
2793
  8
20
 10
34.125619987017551
 20
52.87085062196919
 30
0.0
  0
VERTEX
  5
2794
  8
20
 10
34.188152338615929
 20
52.631155596982062
 30
0.0
  0
VERTEX
  5
2795
  8
20
 10
35.323312796153473
 20
51.092754884791589
 30
0.0
  0
VERTEX
  5
2796
  8
20
 10
34.453830438462241
 20
49.390009796437582
 30
0.0
  0
VERTEX
  5
2797
  8
20
 10
34.429396916542821
 20
49.132592540544337
 30
0.0
  0
VERTEX
  5
2798
  8
20
 10
33.433758465875762
 20
47.179548818893892
 30
0.0
  0
VERTEX
  5
2799
  8
20
 10
33.137640625033256
 20
47.329062998688848
 30
0.0
  0
VERTEX
  5
279A
  8
20
 10
32.713668925113033
 20
46.494569469180227
 30
0.0
  0
VERTEX
  5
279B
  8
20
 10
32.885490953410731
 20
46.406976643608338
 30
0.0
  0
VERTEX
  5
279C
  8
20
 10
32.90867057122194
 20
46.35619430471845
 30
0.0
  0
VERTEX
  5
279D
  8
20
 10
32.176416973593312
 20
44.922637060697511
 30
0.0
  0
VERTEX
  5
279E
  8
20
 10
29.073250674461811
 20
49.128133484511622
 30
0.0
  0
SEQEND
  5
279F
  8
20
  0
POLYLINE
  5
1CA1
  8
20
 66
     1
 10
0.0
 20
0.0
 30
0.0
  0
VERTEX
  5
27A0
  8
20
 10
41.173440537336297
 20
53.899999999999999
 30
0.0
  0
VERTEX
  5
27A1
  8
20
 10
41.372277690958619
 20
53.497447888490861
 30
0.0
  0
VERTEX
  5
27A2
  8
20
 10
41.0807903160173
 20
53.355967100484811
 30
0.0
  0
VERTEX
  5
27A3
  8
20
 10
41.493979695519762
 20
52.513218710295661
 30
0.0
  0
VERTEX
  5
27A4
  8
20
 10
41.667147172955879
 20
52.598120637590682
 30
0.0
  0
VERTEX
  5
27A5
  8
20
 10
41.710181164563359
 20
52.58628462511497
 30
0.0
  0
VERTEX
  5
27A6
  8
20
 10
42.420527289598418
 20
51.137450063899387
 30
0.0
  0
VERTEX
  5
27A7
  8
20
 10
40.7378427693139
 20
51.150804913248578
 30
0.0
  0
VERTEX
  5
27A8
  8
20
 10
40.739612483413993
 20
51.377693011519547
 30
0.0
  0
VERTEX
  5
27A9
  8
20
 10
39.830082150497347
 20
51.384787295736629
 30
0.0
  0
VERTEX
  5
27AA
  8
20
 10
39.827593069591259
 20
51.06567200293285
 30
0.0
  0
VERTEX
  5
27AB
  8
20
 10
37.633080324667887
 20
51.082789075961777
 30
0.0
  0
VERTEX
  5
27AC
  8
20
 10
37.403804893719162
 20
51.17658020967535
 30
0.0
  0
VERTEX
  5
27AD
  8
20
 10
35.491988049444267
 20
51.191492270959607
 30
0.0
  0
VERTEX
  5
27AE
  8
20
 10
34.651481393375811
 20
52.90872521012502
 30
0.0
  0
VERTEX
  5
27AF
  8
20
 10
34.46020770181287
 20
53.082722381196497
 30
0.0
  0
VERTEX
  5
27B0
  8
20
 10
34.059506334565079
 20
53.899999999999999
 30
0.0
  0
SEQEND
  5
27B1
  8
20
  0
POLYLINE
  5
1CA2
  8
20
 66
     1
 10
0.0
 20
0.0
 30
0.0
  0
VERTEX
  5
27B2
  8
20
 10
46.881727657801981
 20
54.70000000000001
 30
0.0
  0
VERTEX
  5
27B3
  8
20
 10
47.134259870046499
 20
50.77708423963049
 30
0.0
  0
VERTEX
  5
27B4
  8
20
 10
48.976255283354071
 20
49.999684422625791
 30
0.0
  0
VERTEX
  5
27B5
  8
20
 10
49.089514855863648
 20
49.851404006741092
 30
0.0
  0
VERTEX
  5
27B6
  8
20
 10
51.100772221482828
 20
48.995590716725332
 30
0.0
  0
VERTEX
  5
27B7
  8
20
 10
51.225571423072473
 20
49.294600519921772
 30
0.0
  0
VERTEX
  5
27B8
  8
20
 10
52.09030238880527
 20
48.929647551167157
 30
0.0
  0
VERTEX
  5
27B9
  8
20
 10
52.015312052759789
 20
48.751963106153582
 30
0.0
  0
VERTEX
  5
27BA
  8
20
 10
52.029558676080669
 20
48.70966595082426
 30
0.0
  0
VERTEX
  5
27BB
  8
20
 10
53.516185199361033
 20
48.082246805910501
 30
0.0
  0
VERTEX
  5
27BC
  8
20
 10
53.407855552496279
 20
49.761493730700408
 30
0.0
  0
VERTEX
  5
27BD
  8
20
 10
53.181429218351902
 20
49.746917852306737
 30
0.0
  0
VERTEX
  5
27BE
  8
20
 10
53.122998636805292
 20
50.65459710320107
 30
0.0
  0
VERTEX
  5
27BF
  8
20
 10
53.441464464099063
 20
50.675097895163823
 30
0.0
  0
VERTEX
  5
27C0
  8
20
 10
53.300483288148428
 20
52.865144353540401
 30
0.0
  0
VERTEX
  5
27C1
  8
20
 10
53.193897974360858
 20
53.088759135888992
 30
0.0
  0
VERTEX
  5
27C2
  8
20
 10
53.090176598545611
 20
54.700000000000003
 30
0.0
  0
SEQEND
  5
27C3
  8
20
  0
POLYLINE
  5
1CA3
  8
20
 66
     1
 10
0.0
 20
0.0
 30
0.0
  0
VERTEX
  5
27C4
  8
20
 10
61.288045515875993
 20
54.700000000000003
 30
0.0
  0
VERTEX
  5
27C5
  8
20
 10
61.544387739144632
 20
50.315762592877483
 30
0.0
  0
VERTEX
  5
27C6
  8
20
 10
59.811376119816003
 20
49.318783001613468
 30
0.0
  0
VERTEX
  5
27C7
  8
20
 10
59.717114426269788
 20
49.157756464577538
 30
0.0
  0
VERTEX
  5
27C8
  8
20
 10
57.825709374885619
 20
48.062238546091713
 30
0.0
  0
VERTEX
  5
27C9
  8
20
 10
57.665255455027619
 20
48.343727875777908
 30
0.0
  0
VERTEX
  5
27CA
  8
20
 10
56.851687299329939
 20
47.875692440650731
 30
0.0
  0
VERTEX
  5
27CB
  8
20
 10
56.947858964082087
 20
47.708520901808761
 30
0.0
  0
VERTEX
  5
27CC
  8
20
 10
56.938895750016691
 20
47.664798179814163
 30
0.0
  0
VERTEX
  5
27CD
  8
20
 10
55.540227208372038
 20
46.860161918054438
 30
0.0
  0
VERTEX
  5
27CE
  8
20
 10
55.442236489070282
 20
48.540043867995273
 30
0.0
  0
VERTEX
  5
27CF
  8
20
 10
55.668744645557382
 20
48.553287586122451
 30
0.0
  0
VERTEX
  5
27D0
  8
20
 10
55.615654318435652
 20
49.461294839689309
 30
0.0
  0
VERTEX
  5
27D1
  8
20
 10
55.297073409032919
 20
49.442667714599189
 30
0.0
  0
VERTEX
  5
27D2
  8
20
 10
55.168977186967219
 20
51.63350557708759
 30
0.0
  0
VERTEX
  5
27D3
  8
20
 10
55.247395377000352
 20
51.868483421728172
 30
0.0
  0
VERTEX
  5
27D4
  8
20
 10
55.135800438397418
 20
53.777098779861703
 30
0.0
  0
VERTEX
  5
27D5
  8
20
 10
56.793668771216012
 20
54.729366072845792
 30
0.0
  0
SEQEND
  5
27D6
  8
20
  0
POLYLINE
  5
1CA5
  8
20
 66
     1
 10
0.0
 20
0.0
 30
0.0
  0
VERTEX
  5
27D7
  8
20
 10
5.494128650038137
 20
10.985133814676431
 30
0.0
  0
VERTEX
  5
27D8
  8
20
 10
6.6504793925532546
 20
9.9009765765153794
 30
0.0
  0
VERTEX
  5
27D9
  8
20
 10
6.7053456343342734
 20
9.7226383921217359
 30
0.0
  0
VERTEX
  5
27DA
  8
20
 10
8.2954853090804654
 20
8.2229622961186095
 30
0.0
  0
VERTEX
  5
27DB
  8
20
 10
8.5161570775634168
 20
8.4602083155153416
 30
0.0
  0
VERTEX
  5
27DC
  8
20
 10
9.2008698928886812
 20
7.8182436178649617
 30
0.0
  0
VERTEX
  5
27DD
  8
20
 10
9.0689593385769545
 20
7.6775492037570334
 30
0.0
  0
VERTEX
  5
27DE
  8
20
 10
9.0676679859928218
 20
7.6329358869838559
 30
0.0
  0
VERTEX
  5
27DF
  8
20
 10
10.24481125069584
 20
6.5292842492424397
 30
0.0
  0
VERTEX
  5
27E0
  8
20
 10
10.72503118635804
 20
8.1420441074354883
 30
0.0
  0
VERTEX
  5
27E1
  8
20
 10
10.50758060456419
 20
8.2068251656432576
 30
0.0
  0
VERTEX
  5
27E2
  8
20
 10
10.76726957850077
 20
9.0785231593198326
 30
0.0
  0
VERTEX
  5
27E3
  8
20
 10
11.073111121571159
 20
8.9874094053783544
 30
0.0
  0
VERTEX
  5
27E4
  8
20
 10
11.69968809475726
 20
11.090640367135331
 30
0.0
  0
VERTEX
  5
27E5
  8
20
 10
11.677185130226331
 20
11.33733373264668
 30
0.0
  0
VERTEX
  5
27E6
  8
20
 10
12.22304680924511
 20
13.16962766185231
 30
0.0
  0
VERTEX
  5
27E7
  8
20
 10
10.827416780359741
 20
14.47636299416847
 30
0.0
  0
VERTEX
  5
27E8
  8
20
 10
10.71709361756564
 20
14.71022072950367
 30
0.0
  0
VERTEX
  5
27E9
  8
20
 10
9.9981338796279502
 20
15.384294239532419
 30
0.0
  0
SEQEND
  5
27EA
  8
20
  0
POLYLINE
  5
1CA6
  8
20
 66
     1
 10
0.0
 20
0.0
 30
0.0
  0
VERTEX
  5
27EB
  8
20
 10
14.178948443543479
 20
0.0227000000000022
 30
0.0
  0
VERTEX
  5
27EC
  8
20
 10
14.46936330714089
 20
0.6035297271948121
 30
0.0
  0
VERTEX
  5
27ED
  8
20
 10
13.26976873891169
 20
2.2029891515004092
 30
0.0
  0
VERTEX
  5
27EE
  8
20
 10
13.24662543534459
 20
2.3881355800373911
 30
0.0
  0
VERTEX
  5
27EF
  8
20
 10
11.94031452288919
 20
4.1405979557034156
 30
0.0
  0
VERTEX
  5
27F0
  8
20
 10
11.68188096638964
 20
3.9451656144699312
 30
0.0
  0
VERTEX
  5
27F1
  8
20
 10
11.11872724625632
 20
4.6960372413143618
 30
0.0
  0
VERTEX
  5
27F2
  8
20
 10
11.273015936703819
 20
4.8117537591499717
 30
0.0
  0
VERTEX
  5
27F3
  8
20
 10
11.282016110313259
 20
4.8554688881100958
 30
0.0
  0
VERTEX
  5
27F4
  8
20
 10
10.31385457775527
 20
6.146350931520729
 30
0.0
  0
VERTEX
  5
27F5
  8
20
 10
9.5615172083515887
 20
4.6411618970785433
 30
0.0
  0
VERTEX
  5
27F6
  8
20
 10
9.7644582658535217
 20
4.5396913683275759
 30
0.0
  0
VERTEX
  5
27F7
  8
20
 10
9.3576915623577666
 20
3.726157961336074
 30
0.0
  0
VERTEX
  5
27F8
  8
20
 10
9.0722574850299331
 20
3.8688749999999992
 30
0.0
  0
VERTEX
  5
27F9
  8
20
 10
8.0908116962244332
 20
1.905983422388998
 30
0.0
  0
VERTEX
  5
27FA
  8
20
 10
8.0702398708314433
 20
1.659121517673025
 30
0.0
  0
VERTEX
  5
27FB
  8
20
 10
7.2520291119949096
 20
0.0227000000000008
 30
0.0
  0
SEQEND
  5
27FC
  8
20
  0
POLYLINE
  5
1CA7
  8
20
 66
     1
 10
0.0
 20
0.0
 30
0.0
  0
VERTEX
  5
27FD
  8
20
 10
32.248216946216253
 20
0.0227000000000008
 30
0.0
  0
VERTEX
  5
27FE
  8
20
 10
29.3259369575722
 20
3.9179640114656382
 30
0.0
  0
VERTEX
  5
27FF
  8
20
 10
27.358910860278979
 20
3.5600451509784481
 30
0.0
  0
VERTEX
  5
2800
  8
20
 10
27.182952373967719
 20
3.6221211011930592
 30
0.0
  0
VERTEX
  5
2801
  8
20
 10
25.031354972230819
 20
3.2371520128703919
 30
0.0
  0
VERTEX
  5
2802
  8
20
 10
25.09062351174212
 20
2.9186101108399161
 30
0.0
  0
VERTEX
  5
2803
  8
20
 10
24.167196469282938
 20
2.7505838933764708
 30
0.0
  0
VERTEX
  5
2804
  8
20
 10
24.132670534187699
 20
2.9403291760735639
 30
0.0
  0
VERTEX
  5
2805
  8
20
 10
24.097591762090978
 20
2.9679243816931211
 30
0.0
  0
VERTEX
  5
2806
  8
20
 10
22.510056230191939
 20
2.6790573913963911
 30
0.0
  0
VERTEX
  5
2807
  8
20
 10
23.520066701895331
 20
1.3331434291180511
 30
0.0
  0
VERTEX
  5
2808
  8
20
 10
23.70156409271662
 20
1.4693052378239491
 30
0.0
  0
VERTEX
  5
2809
  8
20
 10
24.247398343814812
 20
0.7417334367678105
 30
0.0
  0
VERTEX
  5
280A
  8
20
 10
23.99212451739357
 20
0.5502235436310184
 30
0.0
  0
VERTEX
  5
280B
  8
20
 10
24.387879847598128
 20
0.0226999999999997
 30
0.0
  0
SEQEND
  5
280C
  8
20
  0
POLYLINE
  5
1CAA
  8
20
 66
     1
 10
0.0
 20
0.0
 30
0.0
  0
VERTEX
  5
280D
  8
20
 10
65.42712005560594
 20
10.379240111211869
 30
0.0
  0
VERTEX
  5
280E
  8
20
 10
61.866880308754759
 20
12.707810619100281
 30
0.0
  0
VERTEX
  5
280F
  8
20
 10
60.139763207166389
 20
11.70065417865715
 30
0.0
  0
VERTEX
  5
2810
  8
20
 10
59.953183130952858
 20
11.69901477018033
 30
0.0
  0
VERTEX
  5
2811
  8
20
 10
58.06177807956869
 20
10.60349685169456
 30
0.0
  0
VERTEX
  5
2812
  8
20
 10
58.226106401172061
 20
10.32425160850498
 30
0.0
  0
VERTEX
  5
2813
  8
20
 10
57.415305446728659
 20
9.8514386171715511
 30
0.0
  0
VERTEX
  5
2814
  8
20
 10
57.31815209234508
 20
10.01804155301609
 30
0.0
  0
VERTEX
  5
2815
  8
20
 10
57.275766394089111
 20
10.032022547556981
 30
0.0
  0
VERTEX
  5
2816
  8
20
 10
55.881855164189808
 20
9.2191728158810378
 30
0.0
  0
VERTEX
  5
2817
  8
20
 10
57.290250492140551
 20
8.2982883784988246
 30
0.0
  0
VERTEX
  5
2818
  8
20
 10
57.414445589912212
 20
8.4881749728504943
 30
0.0
  0
VERTEX
  5
2819
  8
20
 10
58.175647339555638
 20
7.9903118875511581
 30
0.0
  0
VERTEX
  5
281A
  8
20
 10
58.00096847674957
 20
7.7232387505384841
 30
0.0
  0
VERTEX
  5
281B
  8
20
 10
59.837594349021131
 20
6.521995816272919
 30
0.0
  0
VERTEX
  5
281C
  8
20
 10
60.080437363172543
 20
6.4730951978938256
 30
0.0
  0
VERTEX
  5
281D
  8
20
 10
61.680470120951071
 20
5.4265957045061342
 30
0.0
  0
VERTEX
  5
281E
  8
20
 10
63.331412869260681
 20
6.390819977201005
 30
0.0
  0
VERTEX
  5
281F
  8
20
 10
63.441274914666401
 20
6.4075498293328019
 30
0.0
  0
SEQEND
  5
2820
  8
20
  0
POLYLINE
  5
1CAB
  8
20
 66
     1
 10
0.0
 20
0.0
 30
0.0
  0
VERTEX
  5
2821
  8
20
 10
67.848396671662982
 20
15.221793343325951
 30
0.0
  0
VERTEX
  5
2822
  8
20
 10
67.741992742412293
 20
17.041626537161651
 30
0.0
  0
VERTEX
  5
2823
  8
20
 10
65.984444118570934
 20
17.794197624224712
 30
0.0
  0
VERTEX
  5
2824
  8
20
 10
65.80099482176729
 20
17.976425492914601
 30
0.0
  0
VERTEX
  5
2825
  8
20
 10
63.786363922052011
 20
18.840681265841461
 30
0.0
  0
VERTEX
  5
2826
  8
20
 10
63.654403440928938
 20
18.53633492193903
 30
0.0
  0
VERTEX
  5
2827
  8
20
 10
62.79470429769151
 20
18.90653599735867
 30
0.0
  0
VERTEX
  5
2828
  8
20
 10
62.870738529913837
 20
19.08377625246559
 30
0.0
  0
VERTEX
  5
2829
  8
20
 10
62.856069709964999
 20
19.137636872089839
 30
0.0
  0
VERTEX
  5
282A
  8
20
 10
61.376197485791081
 20
19.771087662004621
 30
0.0
  0
VERTEX
  5
282B
  8
20
 10
61.780456443827767
 20
12.857020898480281
 30
0.0
  0
VERTEX
  5
282C
  8
20
 10
63.617847088436143
 20
12.06879935777571
 30
0.0
  0
VERTEX
  5
282D
  8
20
 10
63.730232471259228
 20
11.919855280257661
 30
0.0
  0
VERTEX
  5
282E
  8
20
 10
65.736420888063535
 20
11.05222597323465
 30
0.0
  0
VERTEX
  5
282F
  8
20
 10
65.862976796496284
 20
11.350496496695749
 30
0.0
  0
VERTEX
  5
2830
  8
20
 10
65.903957993903376
 20
11.33291598780673
 30
0.0
  0
SEQEND
  5
2831
  8
20
  0
POLYLINE
  5
1CAD
  8
20
 66
     1
 10
0.0
 20
0.0
 30
0.0
  0
VERTEX
  5
2832
  8
20
 10
75.699642979828397
 20
34.551661891174071
 30
0.0
  0
VERTEX
  5
2833
  8
20
 10
75.610598766349383
 20
34.342993109213211
 30
0.0
  0
VERTEX
  5
2834
  8
20
 10
76.475329732082159
 20
33.978040140458553
 30
0.0
  0
VERTEX
  5
2835
  8
20
 10
76.54152616516032
 20
34.134888037049357
 30
0.0
  0
SEQEND
  5
2836
  8
20
  0
POLYLINE
  5
1CAF
  8
20
 66
     1
 10
0.0
 20
0.0
 30
0.0
  0
VERTEX
  5
2837
  8
20
 10
77.759507196732017
 20
39.419014393464053
 30
0.0
  0
VERTEX
  5
2838
  8
20
 10
77.672738449288602
 20
40.653583471647053
 30
0.0
  0
VERTEX
  5
2839
  8
20
 10
75.906457905276625
 20
41.385425972527379
 30
0.0
  0
VERTEX
  5
283A
  8
20
 10
75.720877502063345
 20
41.565483059497588
 30
0.0
  0
VERTEX
  5
283B
  8
20
 10
73.696218569648124
 20
42.40597809845751
 30
0.0
  0
VERTEX
  5
283C
  8
20
 10
73.567847672883289
 20
42.100100380261502
 30
0.0
  0
VERTEX
  5
283D
  8
20
 10
72.70385282962269
 20
42.46016199157836
 30
0.0
  0
VERTEX
  5
283E
  8
20
 10
72.777796674692453
 20
42.638284478301109
 30
0.0
  0
VERTEX
  5
283F
  8
20
 10
72.762495231964891
 20
42.691968800737492
 30
0.0
  0
VERTEX
  5
2840
  8
20
 10
71.275273250485185
 20
43.307965944341817
 30
0.0
  0
VERTEX
  5
2841
  8
20
 10
71.760844083610976
 20
36.399133518986403
 30
0.0
  0
VERTEX
  5
2842
  8
20
 10
73.60738052930347
 20
35.632582325096273
 30
0.0
  0
VERTEX
  5
2843
  8
20
 10
73.721510372517074
 20
35.484970701610742
 30
0.0
  0
VERTEX
  5
2844
  8
20
 10
75.434063802535775
 20
34.768127605071562
 30
0.0
  0
SEQEND
  5
2845
  8
20
  0
POLYLINE
  5
1CB6
  8
20
 66
     1
 10
0.0
 20
0.0
 30
0.0
  0
VERTEX
  5
2846
  8
20
 10
42.877883861629442
 20
14.56116358069742
 30
0.0
  0
VERTEX
  5
2847
  8
20
 10
39.738515670986672
 20
16.614463555396721
 30
0.0
  0
VERTEX
  5
2848
  8
20
 10
39.969060779585121
 20
18.600451100933281
 30
0.0
  0
VERTEX
  5
2849
  8
20
 10
39.895785911678203
 20
18.772048321870042
 30
0.0
  0
VERTEX
  5
284A
  8
20
 10
40.141442983632949
 20
20.943965719268871
 30
0.0
  0
VERTEX
  5
284B
  8
20
 10
40.463139650106662
 20
20.90532690582042
 30
0.0
  0
VERTEX
  5
284C
  8
20
 10
40.571369829705922
 20
21.837655464175199
 30
0.0
  0
VERTEX
  5
284D
  8
20
 10
40.379795468400147
 20
21.859894542175059
 30
0.0
  0
VERTEX
  5
284E
  8
20
 10
40.349999237733783
 20
21.893124051095231
 30
0.0
  0
VERTEX
  5
284F
  8
20
 10
40.536066190332498
 20
23.49596287402025
 30
0.0
  0
VERTEX
  5
2850
  8
20
 10
41.94420972893149
 20
22.574693466350499
 30
0.0
  0
VERTEX
  5
2851
  8
20
 10
41.820014631159843
 20
22.38480687199878
 30
0.0
  0
VERTEX
  5
2852
  8
20
 10
42.581216380803291
 20
21.886943786699469
 30
0.0
  0
VERTEX
  5
2853
  8
20
 10
42.755895243609338
 20
22.154016923712131
 30
0.0
  0
VERTEX
  5
2854
  8
20
 10
44.592521115880949
 20
20.952773989446669
 30
0.0
  0
VERTEX
  5
2855
  8
20
 10
44.734648389315382
 20
20.749885256033249
 30
0.0
  0
VERTEX
  5
2856
  8
20
 10
46.334681147093939
 20
19.703385762645642
 30
0.0
  0
VERTEX
  5
2857
  8
20
 10
46.112940591446751
 20
17.80439352142103
 30
0.0
  0
VERTEX
  5
2858
  8
20
 10
46.163051370179488
 20
17.616961483884928
 30
0.0
  0
SEQEND
  5
2859
  8
20
  0
POLYLINE
  5
1CB7
  8
20
 66
     1
 10
0.0
 20
0.0
 30
0.0
  0
VERTEX
  5
285A
  8
20
 10
79.012296893835455
 20
41.924593787670922
 30
0.0
  0
VERTEX
  5
285B
  8
20
 10
77.744710458489834
 20
40.826956025390473
 30
0.0
  0
VERTEX
  5
285C
  8
20
 10
75.97941583241213
 20
41.56117349276046
 30
0.0
  0
VERTEX
  5
285D
  8
20
 10
75.720877502063345
 20
41.565483059497588
 30
0.0
  0
VERTEX
  5
285E
  8
20
 10
73.696218569648124
 20
42.40597809845751
 30
0.0
  0
VERTEX
  5
285F
  8
20
 10
73.822214499923348
 20
42.712841734587762
 30
0.0
  0
VERTEX
  5
2860
  8
20
 10
72.95723373872849
 20
43.070528379414981
 30
0.0
  0
VERTEX
  5
2861
  8
20
 10
72.883289893658684
 20
42.892405892692217
 30
0.0
  0
VERTEX
  5
2862
  8
20
 10
72.834467241166138
 20
42.865341354480947
 30
0.0
  0
VERTEX
  5
2863
  8
20
 10
71.348231177620718
 20
43.483713464574969
 30
0.0
  0
VERTEX
  5
2864
  8
20
 10
76.583954618029637
 20
48.01746958628879
 30
0.0
  0
VERTEX
  5
2865
  8
20
 10
78.430491063722144
 20
47.250918392398653
 30
0.0
  0
VERTEX
  5
2866
  8
20
 10
78.615606998202722
 20
47.274304356166951
 30
0.0
  0
VERTEX
  5
2867
  8
20
 10
80.636793309229489
 20
46.442211528266782
 30
0.0
  0
VERTEX
  5
2868
  8
20
 10
80.511380166267443
 20
46.143458709539701
 30
0.0
  0
VERTEX
  5
2869
  8
20
 10
81.378242934984797
 20
45.783598663533382
 30
0.0
  0
VERTEX
  5
286A
  8
20
 10
81.452186780054603
 20
45.961721150256139
 30
0.0
  0
VERTEX
  5
286B
  8
20
 10
81.492315827830836
 20
45.981257658377373
 30
0.0
  0
VERTEX
  5
286C
  8
20
 10
82.940116635143085
 20
45.380233270286212
 30
0.0
  0
SEQEND
  5
286D
  8
20
  0
POLYLINE
  5
1CB8
  8
20
 66
     1
 10
0.0
 20
0.0
 30
0.0
  0
VERTEX
  5
286E
  8
20
 10
82.582175207149916
 20
51.864837433763519
 30
0.0
  0
VERTEX
  5
286F
  8
20
 10
82.536363373693376
 20
52.466070021651063
 30
0.0
  0
VERTEX
  5
2870
  8
20
 10
80.765808469256243
 20
53.187510065330088
 30
0.0
  0
VERTEX
  5
2871
  8
20
 10
80.579172126575884
 20
53.366472397165317
 30
0.0
  0
VERTEX
  5
2872
  8
20
 10
79.274960080626485
 20
53.898916789349833
 30
0.0
  0
SEQEND
  5
2873
  8
20
  0
POLYLINE
  5
1CBB
  8
20
 66
     1
 10
0.0
 20
0.0
 30
0.0
  0
VERTEX
  5
2874
  8
20
 10
76.213632721718824
 20
53.89849836087091
 30
0.0
  0
VERTEX
  5
2875
  8
20
 10
76.649597248744939
 20
48.176918126370992
 30
0.0
  0
VERTEX
  5
2876
  8
20
 10
78.500610833380463
 20
47.421242079628847
 30
0.0
  0
VERTEX
  5
2877
  8
20
 10
78.615606998202722
 20
47.274304356166958
 30
0.0
  0
VERTEX
  5
2878
  8
20
 10
80.636793309229489
 20
46.442211528266803
 30
0.0
  0
VERTEX
  5
2879
  8
20
 10
80.758066203245178
 20
46.742668826900143
 30
0.0
  0
VERTEX
  5
287A
  8
20
 10
81.627030779955106
 20
46.387914155439233
 30
0.0
  0
VERTEX
  5
287B
  8
20
 10
81.554135984449417
 20
46.20935979036183
 30
0.0
  0
VERTEX
  5
287C
  8
20
 10
81.568879222540303
 20
46.16723316510425
 30
0.0
  0
VERTEX
  5
287D
  8
20
 10
83.034455851761109
 20
45.568911703522261
 30
0.0
  0
SEQEND
  5
287E
  8
20
  0
POLYLINE
  5
1CBC
  8
20
 66
     1
 10
0.0
 20
0.0
 30
0.0
  0
VERTEX
  5
287F
  8
20
 10
68.262398259764197
 20
51.92499999999999
 30
0.0
  0
VERTEX
  5
2880
  8
20
 10
68.19425656102004
 20
51.334539722561928
 30
0.0
  0
VERTEX
  5
2881
  8
20
 10
68.072021825536041
 20
51.106681630614013
 30
0.0
  0
VERTEX
  5
2882
  8
20
 10
67.81923763893775
 20
48.92911972377167
 30
0.0
  0
VERTEX
  5
2883
  8
20
 10
68.148597279863679
 20
48.889591347203201
 30
0.0
  0
VERTEX
  5
2884
  8
20
 10
68.039386458895677
 20
47.95996537418587
 30
0.0
  0
VERTEX
  5
2885
  8
20
 10
67.847812097589895
 20
47.982204452185712
 30
0.0
  0
VERTEX
  5
2886
  8
20
 10
67.800385541653952
 20
47.952761924830611
 30
0.0
  0
VERTEX
  5
2887
  8
20
 10
67.616040533023906
 20
46.353606328611761
 30
0.0
  0
VERTEX
  5
2888
  8
20
 10
74.126568610843094
 20
48.715971385827281
 30
0.0
  0
VERTEX
  5
2889
  8
20
 10
74.357113719441557
 20
50.701958931363833
 30
0.0
  0
VERTEX
  5
288A
  8
20
 10
74.467750238388163
 20
50.85220663742075
 30
0.0
  0
VERTEX
  5
288B
  8
20
 10
74.726178934429996
 20
53.022641429619568
 30
0.0
  0
VERTEX
  5
288C
  8
20
 10
74.404185746916326
 20
53.05872591825063
 30
0.0
  0
VERTEX
  5
288D
  8
20
 10
74.501644304652643
 20
53.898264362795793
 30
0.0
  0
SEQEND
  5
288E
  8
20
  0
POLYLINE
  5
1CBD
  8
20
 66
     1
 10
0.0
 20
0.0
 30
0.0
  0
VERTEX
  5
288F
  8
20
 10
68.071620911206594
 20
51.92499999999999
 30
0.0
  0
VERTEX
  5
2890
  8
20
 10
68.005236524531682
 20
51.356482279521778
 30
0.0
  0
VERTEX
  5
2891
  8
20
 10
68.072021825536055
 20
51.106681630614013
 30
0.0
  0
VERTEX
  5
2892
  8
20
 10
67.81923763893775
 20
48.92911972377167
 30
0.0
  0
VERTEX
  5
2893
  8
20
 10
67.489581476971793
 20
48.966093775522701
 30
0.0
  0
VERTEX
  5
2894
  8
20
 10
67.382924980821272
 20
48.036171281465357
 30
0.0
  0
VERTEX
  5
2895
  8
20
 10
67.574499342127041
 20
48.013932203465501
 30
0.0
  0
VERTEX
  5
2896
  8
20
 10
67.613919829983033
 20
47.974407960750462
 30
0.0
  0
VERTEX
  5
2897
  8
20
 10
67.427020496535576
 20
46.375548885571597
 30
0.0
  0
VERTEX
  5
2898
  8
20
 10
61.630811604071589
 20
50.166552313497583
 30
0.0
  0
VERTEX
  5
2899
  8
20
 10
61.86135671267003
 20
52.152539859034121
 30
0.0
  0
VERTEX
  5
289A
  8
20
 10
61.788081844763163
 20
52.324137079970882
 30
0.0
  0
VERTEX
  5
289B
  8
20
 10
62.033738916717951
 20
54.496054477369697
 30
0.0
  0
VERTEX
  5
289C
  8
20
 10
62.355435583191642
 20
54.45741566392126
 30
0.0
  0
VERTEX
  5
289D
  8
20
 10
62.383596198917168
 20
54.700000000000003
 30
0.0
  0
SEQEND
  5
289E
  8
20
  0
POLYLINE
  5
1CBE
  8
20
 66
     1
 10
0.0
 20
0.0
 30
0.0
  0
VERTEX
  5
289F
  8
20
 10
28.590070892522551
 20
51.52706129174593
 30
0.0
  0
VERTEX
  5
28A0
  8
20
 10
28.972279828450951
 20
52.276802085880121
 30
0.0
  0
VERTEX
  5
28A1
  8
20
 10
28.96338322834842
 20
52.463177145924682
 30
0.0
  0
VERTEX
  5
28A2
  8
20
 10
29.690542188247068
 20
53.899999999999999
 30
0.0
  0
SEQEND
  5
28A3
  8
20
  0
POLYLINE
  5
1CBF
  8
20
 66
     1
 10
0.0
 20
0.0
 30
0.0
  0
VERTEX
  5
28A4
  8
20
 10
27.834811853919462
 20
50.455713257626009
 30
0.0
  0
VERTEX
  5
28A5
  8
20
 10
26.09442947361644
 20
50.153283876591829
 30
0.0
  0
VERTEX
  5
28A6
  8
20
 10
25.91896918738205
 20
50.216754345745109
 30
0.0
  0
VERTEX
  5
28A7
  8
20
 10
25.03623881898131
 20
50.066033997622483
 30
0.0
  0
SEQEND
  5
28A8
  8
20
  0
POLYLINE
  5
1CC0
  8
20
 66
     1
 10
0.0
 20
0.0
 30
0.0
 70
     1
  0
VERTEX
  5
28A9
  8
20
 10
38.605867665344832
 20
23.322007207583461
 30
0.0
  0
VERTEX
  5
28AA
  8
20
 10
37.752695886041643
 20
23.006739590526738
 30
0.0
  0
VERTEX
  5
28AB
  8
20
 10
37.863309808730712
 20
22.707398103705529
 30
0.0
  0
VERTEX
  5
28AC
  8
20
 10
35.804778855413488
 20
21.946721105200201
 30
0.0
  0
VERTEX
  5
28AD
  8
20
 10
35.557148544857192
 20
21.953296003967338
 30
0.0
  0
VERTEX
  5
28AE
  8
20
 10
33.763796394081417
 20
21.29060898965896
 30
0.0
  0
VERTEX
  5
28AF
  8
20
 10
32.369925172586854
 20
22.599220247496518
 30
0.0
  0
VERTEX
  5
28B0
  8
20
 10
32.129450262871863
 20
22.694259494245209
 30
0.0
  0
VERTEX
  5
28B1
  8
20
 10
30.530223755845039
 20
24.193642794921772
 30
0.0
  0
VERTEX
  5
28B2
  8
20
 10
30.756171946500451
 20
24.436516590882832
 30
0.0
  0
VERTEX
  5
28B3
  8
20
 10
30.07245565300121
 20
25.07578451838166
 30
0.0
  0
VERTEX
  5
28B4
  8
20
 10
29.940545098689459
 20
24.935090104273719
 30
0.0
  0
VERTEX
  5
28B5
  8
20
 10
29.885320378506059
 20
24.926943270185369
 30
0.0
  0
VERTEX
  5
28B6
  8
20
 10
28.711870405780591
 20
26.028894659601249
 30
0.0
  0
VERTEX
  5
28B7
  8
20
 10
35.20838970084646
 20
28.429515738501859
 30
0.0
  0
VERTEX
  5
28B8
  8
20
 10
36.666921793765368
 20
27.062042992137009
 30
0.0
  0
VERTEX
  5
28B9
  8
20
 10
36.848422167685648
 20
27.01877144528699
 30
0.0
  0
VERTEX
  5
28BA
  8
20
 10
38.44735587938596
 20
25.528474976891079
 30
0.0
  0
VERTEX
  5
28BB
  8
20
 10
38.224808185381562
 20
25.292987764885162
 30
0.0
  0
VERTEX
  5
28BC
  8
20
 10
38.909521000706832
 20
24.651023067234789
 30
0.0
  0
VERTEX
  5
28BD
  8
20
 10
39.041431555018562
 20
24.791717481342719
 30
0.0
  0
VERTEX
  5
28BE
  8
20
 10
39.085869194595787
 20
24.795878228126981
 30
0.0
  0
VERTEX
  5
28BF
  8
20
 10
40.263012459298842
 20
23.69222659038558
 30
0.0
  0
VERTEX
  5
28C0
  8
20
 10
38.684513167854938
 20
23.10917810722372
 30
0.0
  0
SEQEND
  5
28C1
  8
20
  0
POLYLINE
  5
1CC3
  8
20
 66
     1
 10
0.0
 20
0.0
 30
0.0
  0
VERTEX
  5
28C2
  8
20
 10
65.658582724999235
 20
31.154782920075899
 30
0.0
  0
VERTEX
  5
28C3
  8
20
 10
64.370566226758555
 20
32.37834823296734
 30
0.0
  0
VERTEX
  5
28C4
  8
20
 10
64.130654527029705
 20
32.47480038150853
 30
0.0
  0
VERTEX
  5
28C5
  8
20
 10
62.540275513514857
 20
33.983564874892593
 30
0.0
  0
VERTEX
  5
28C6
  8
20
 10
62.76764845209523
 20
34.225105373414728
 30
0.0
  0
VERTEX
  5
28C7
  8
20
 10
62.087704354539703
 20
34.868384066769593
 30
0.0
  0
VERTEX
  5
28C8
  8
20
 10
61.954968475356338
 20
34.728468024524879
 30
0.0
  0
VERTEX
  5
28C9
  8
20
 10
61.89969678847072
 20
34.7206461798691
 30
0.0
  0
VERTEX
  5
28CA
  8
20
 10
60.732749128396122
 20
35.829481091734422
 30
0.0
  0
VERTEX
  5
28CB
  8
20
 10
67.243277206215339
 20
38.191846148949907
 30
0.0
  0
VERTEX
  5
28CC
  8
20
 10
68.693740177485495
 20
36.815817534749193
 30
0.0
  0
VERTEX
  5
28CD
  8
20
 10
68.874982874979011
 20
36.771479096512643
 30
0.0
  0
VERTEX
  5
28CE
  8
20
 10
70.465122549725166
 20
35.271803000509479
 30
0.0
  0
VERTEX
  5
28CF
  8
20
 10
70.241193499082215
 20
35.037628955399597
 30
0.0
  0
VERTEX
  5
28D0
  8
20
 10
70.263876328901347
 20
35.016110155195541
 30
0.0
  0
SEQEND
  5
28D1
  8
20
  0
POLYLINE
  5
1CC4
  8
20
 66
     1
 10
0.0
 20
0.0
 30
0.0
  0
VERTEX
  5
28D2
  8
20
 10
12.435375599354799
 20
26.695751198709608
 30
0.0
  0
VERTEX
  5
28D3
  8
20
 10
13.29484700316984
 20
26.85214008744785
 30
0.0
  0
VERTEX
  5
28D4
  8
20
 10
13.35549658008496
 20
26.526008374109509
 30
0.0
  0
VERTEX
  5
28D5
  8
20
 10
14.27616351254089
 20
26.694839214323
 30
0.0
  0
VERTEX
  5
28D6
  8
20
 10
14.24163757744566
 20
26.8845844970201
 30
0.0
  0
VERTEX
  5
28D7
  8
20
 10
14.267965849709549
 20
26.933808096081911
 30
0.0
  0
VERTEX
  5
28D8
  8
20
 10
15.85193664885526
 20
27.220719599125442
 30
0.0
  0
VERTEX
  5
28D9
  8
20
 10
13.9136004439987
 20
20.571614601265399
 30
0.0
  0
VERTEX
  5
28DA
  8
20
 10
11.946574346705489
 20
20.213695740778189
 30
0.0
  0
VERTEX
  5
28DB
  8
20
 10
11.80376075808566
 20
20.093616219603611
 30
0.0
  0
VERTEX
  5
28DC
  8
20
 10
10.54258158725734
 20
19.860298616141922
 30
0.0
  0
SEQEND
  5
28DD
  8
20
  0
ENDSEC
  0
EOF
