  0
SECTION
  2
HEADER
  9
$ACADVER
  1
AC1009
  9
$INSBASE
 10
0.0
 20
0.0
 30
0.0
  9
$EXTMIN
 10
-3.440399999999999
 20
-2.1133000000000002
 30
0.0
  9
$EXTMAX
 10
90.644000000000005
 20
56.628199999999993
 30
0.0
  9
$LIMMIN
 10
0.0
 20
0.0
  9
$LIMMAX
 10
12.0
 20
9.0
  9
$ORTHOMODE
 70
     0
  9
$REGENMODE
 70
     1
  9
$FILLMODE
 70
     1
  9
$QTEXTMODE
 70
     0
  9
$MIRRTEXT
 70
     0
  9
$DRAGMODE
 70
     2
  9
$LTSCALE
 40
1.0
  9
$OSMODE
 70
   167
  9
$ATTMODE
 70
     1
  9
$TEXTSIZE
 40
0.2
  9
$TRACEWID
 40
0.05
  9
$TEXTSTYLE
  7
STANDARD
  9
$CLAYER
  8
0
  9
$CELTYPE
  6
CONTINUOUS
  9
$CECOLOR
 62
   256
  9
$DIMSCALE
 40
1.0
  9
$DIMASZ
 40
0.18
  9
$DIMEXO
 40
0.0625
  9
$DIMDLI
 40
0.38
  9
$DIMRND
 40
0.0
  9
$DIMDLE
 40
0.0
  9
$DIMEXE
 40
0.18
  9
$DIMTP
 40
0.0
  9
$DIMTM
 40
0.0
  9
$DIMTXT
 40
0.18
  9
$DIMCEN
 40
0.09
  9
$DIMTSZ
 40
0.0
  9
$DIMTOL
 70
     0
  9
$DIMLIM
 70
     0
  9
$DIMTIH
 70
     1
  9
$DIMTOH
 70
     1
  9
$DIMSE1
 70
     0
  9
$DIMSE2
 70
     0
  9
$DIMTAD
 70
     0
  9
$DIMZIN
 70
     0
  9
$DIMBLK
  1

  9
$DIMASO
 70
     1
  9
$DIMSHO
 70
     1
  9
$DIMPOST
  1

  9
$DIMAPOST
  1

  9
$DIMALT
 70
     0
  9
$DIMALTD
 70
     2
  9
$DIMALTF
 40
25.399999999999999
  9
$DIMLFAC
 40
1.0
  9
$DIMTOFL
 70
     0
  9
$DIMTVP
 40
0.0
  9
$DIMTIX
 70
     0
  9
$DIMSOXD
 70
     0
  9
$DIMSAH
 70
     0
  9
$DIMBLK1
  1

  9
$DIMBLK2
  1

  9
$DIMSTYLE
  2
STANDARD
  9
$DIMCLRD
 70
     0
  9
$DIMCLRE
 70
     0
  9
$DIMCLRT
 70
     0
  9
$DIMTFAC
 40
1.0
  9
$DIMGAP
 40
0.09
  9
$LUNITS
 70
     2
  9
$LUPREC
 70
     4
  9
$SKETCHINC
 40
0.1
  9
$FILLETRAD
 40
0.0
  9
$AUNITS
 70
     0
  9
$AUPREC
 70
     0
  9
$MENU
  1
.
  9
$ELEVATION
 40
0.0
  9
$PELEVATION
 40
0.0
  9
$THICKNESS
 40
0.0
  9
$LIMCHECK
 70
     0
  9
$BLIPMODE
 70
     0
  9
$CHAMFERA
 40
0.0
  9
$CHAMFERB
 40
0.0
  9
$SKPOLY
 70
     0
  9
$TDCREATE
 40
2456788.5949262269
  9
$TDUPDATE
 40
2456788.6553937732
  9
$TDINDWG
 40
0.041719213
  9
$TDUSRTIMER
 40
0.041719213
  9
$USRTIMER
 70
     1
  9
$ANGBASE
 50
0.0
  9
$ANGDIR
 70
     0
  9
$PDMODE
 70
     0
  9
$PDSIZE
 40
0.0
  9
$PLINEWID
 40
0.0
  9
$COORDS
 70
     1
  9
$SPLFRAME
 70
     0
  9
$SPLINETYPE
 70
     6
  9
$SPLINESEGS
 70
     8
  9
$ATTDIA
 70
     1
  9
$ATTREQ
 70
     1
  9
$HANDLING
 70
     1
  9
$HANDSEED
  5
1B3D
  9
$SURFTAB1
 70
     6
  9
$SURFTAB2
 70
     6
  9
$SURFTYPE
 70
     6
  9
$SURFU
 70
     6
  9
$SURFV
 70
     6
  9
$UCSNAME
  2

  9
$UCSORG
 10
0.0
 20
0.0
 30
0.0
  9
$UCSXDIR
 10
1.0
 20
0.0
 30
0.0
  9
$UCSYDIR
 10
0.0
 20
1.0
 30
0.0
  9
$PUCSNAME
  2

  9
$PUCSORG
 10
0.0
 20
0.0
 30
0.0
  9
$PUCSXDIR
 10
1.0
 20
0.0
 30
0.0
  9
$PUCSYDIR
 10
0.0
 20
1.0
 30
0.0
  9
$USERI1
 70
     0
  9
$USERI2
 70
     0
  9
$USERI3
 70
     0
  9
$USERI4
 70
     0
  9
$USERI5
 70
     0
  9
$USERR1
 40
0.0
  9
$USERR2
 40
0.0
  9
$USERR3
 40
0.0
  9
$USERR4
 40
0.0
  9
$USERR5
 40
0.0
  9
$WORLDVIEW
 70
     1
  9
$SHADEDGE
 70
     3
  9
$SHADEDIF
 70
    70
  9
$TILEMODE
 70
     1
  9
$MAXACTVP
 70
    64
  9
$PLIMCHECK
 70
     0
  9
$PEXTMIN
 10
1.0000000000000000E+020
 20
1.0000000000000000E+020
 30
1.0000000000000000E+020
  9
$PEXTMAX
 10
-1.0000000000000000E+020
 20
-1.0000000000000000E+020
 30
-1.0000000000000000E+020
  9
$PLIMMIN
 10
0.0
 20
0.0
  9
$PLIMMAX
 10
12.0
 20
9.0
  9
$UNITMODE
 70
     0
  9
$VISRETAIN
 70
     1
  9
$PLINEGEN
 70
     0
  9
$PSLTSCALE
 70
     1
  0
ENDSEC
  0
SECTION
  2
TABLES
  0
TABLE
  2
VPORT
 70
     1
  0
VPORT
  2
*ACTIVE
 70
     0
 10
0.0
 20
0.0
 11
1.0
 21
1.0
 12
69.071038669128583
 22
31.022064902005329
 13
0.0
 23
0.0
 14
1.0
 24
1.0
 15
0.0
 25
0.0
 16
0.0
 26
0.0
 36
1.0
 17
0.0
 27
0.0
 37
0.0
 40
96.009284359617084
 41
1.8441226575809191
 42
50.0
 43
0.0
 44
0.0
 50
0.0
 51
0.0
 71
     0
 72
   100
 73
     1
 74
     1
 75
     0
 76
     0
 77
     0
 78
     0
  0
ENDTAB
  0
TABLE
  2
LTYPE
 70
     1
  0
LTYPE
  2
CONTINUOUS
 70
     0
  3
Solid line
 72
    65
 73
     0
 40
0.0
  0
ENDTAB
  0
TABLE
  2
LAYER
 70
     4
  0
LAYER
  2
0
 70
     4
 62
     7
  6
CONTINUOUS
  0
LAYER
  2
20
 70
     4
 62
     7
  6
CONTINUOUS
  0
LAYER
  2
22
 70
     4
 62
   253
  6
CONTINUOUS
  0
LAYER
  2
46
 70
     4
 62
   140
  6
CONTINUOUS
  0
ENDTAB
  0
TABLE
  2
STYLE
 70
     1
  0
STYLE
  2
STANDARD
 70
     0
 40
0.0
 41
1.0
 50
0.0
 71
     0
 42
0.2
  3
txt
  4

  0
ENDTAB
  0
TABLE
  2
VIEW
 70
     0
  0
ENDTAB
  0
TABLE
  2
UCS
 70
     0
  0
ENDTAB
  0
TABLE
  2
APPID
 70
     5
  0
APPID
  2
ACAD
 70
     0
  0
APPID
  2
ACADANNOTATIVE
 70
     0
  0
APPID
  2
ACAD_EXEMPT_FROM_CAD_STANDARDS
 70
     0
  0
APPID
  2
ACAD_NAV_VCDISPLAY
 70
     0
  0
APPID
  2
ACAD_MLEADERVER
 70
     0
  0
ENDTAB
  0
TABLE
  2
DIMSTYLE
 70
     1
  0
DIMSTYLE
  2
STANDARD
 70
     0
  3

  4

  5

  6

  7

 40
1.0
 41
0.18
 42
0.0625
 43
0.38
 44
0.18
 45
0.0
 46
0.0
 47
0.0
 48
0.0
140
0.18
141
0.09
142
0.0
143
25.399999999999999
144
1.0
145
0.0
146
1.0
147
0.09
 71
     0
 72
     0
 73
     1
 74
     1
 75
     0
 76
     0
 77
     0
 78
     0
170
     0
171
     2
172
     0
173
     0
174
     0
175
     0
176
     0
177
     0
178
     0
  0
ENDTAB
  0
ENDSEC
  0
SECTION
  2
BLOCKS
  0
BLOCK
  8
0
  2
$MODEL_SPACE
 70
     0
 10
0.0
 20
0.0
 30
0.0
  3
$MODEL_SPACE
  1

  0
ENDBLK
  5
71
  8
0
  0
BLOCK
 67
     1
  8
0
  2
$PAPER_SPACE
 70
     0
 10
0.0
 20
0.0
 30
0.0
  3
$PAPER_SPACE
  1

  0
ENDBLK
  5
6D
 67
     1
  8
0
  0
ENDSEC
  0
SECTION
  2
ENTITIES
  0
LINE
  5
133
  8
46
 10
-3.440399999999999
 20
-2.1133000000000002
 30
0.0
 11
-0.7834
 21
-2.1133000000000002
 31
0.0
  0
LINE
  5
134
  8
46
 10
-0.1084
 20
-2.1133000000000002
 30
0.0
 11
0.0416
 21
-2.1133000000000002
 31
0.0
  0
LINE
  5
135
  8
46
 10
0.7166000000000001
 20
-2.1133000000000002
 30
0.0
 11
3.3734999999999991
 21
-2.1133000000000002
 31
0.0
  0
LINE
  5
136
  8
46
 10
4.0484999999999989
 20
-2.1133000000000002
 30
0.0
 11
4.1985000000000001
 21
-2.1133000000000002
 31
0.0
  0
LINE
  5
137
  8
46
 10
4.8734999999999991
 20
-2.1133000000000002
 30
0.0
 11
7.5304000000000002
 21
-2.1133000000000002
 31
0.0
  0
LINE
  5
138
  8
46
 10
8.2053999999999991
 20
-2.1133000000000002
 30
0.0
 11
8.3553999999999995
 21
-2.1133000000000002
 31
0.0
  0
LINE
  5
139
  8
46
 10
9.0304000000000002
 20
-2.1133000000000002
 30
0.0
 11
11.6873
 21
-2.1133000000000002
 31
0.0
  0
LINE
  5
13A
  8
46
 10
12.362299999999999
 20
-2.1133000000000002
 30
0.0
 11
12.5123
 21
-2.1133000000000002
 31
0.0
  0
LINE
  5
13B
  8
46
 10
13.1873
 20
-2.1133000000000002
 30
0.0
 11
15.844200000000001
 21
-2.1133000000000002
 31
0.0
  0
LINE
  5
13C
  8
46
 10
16.519200000000001
 20
-2.1133000000000002
 30
0.0
 11
16.6692
 21
-2.1133000000000002
 31
0.0
  0
LINE
  5
13D
  8
46
 10
17.344200000000001
 20
-2.1133000000000002
 30
0.0
 11
20.001100000000001
 21
-2.1133000000000002
 31
0.0
  0
LINE
  5
13E
  8
46
 10
20.676100000000002
 20
-2.1133000000000002
 30
0.0
 11
20.8261
 21
-2.1133000000000002
 31
0.0
  0
LINE
  5
13F
  8
46
 10
21.501100000000001
 20
-2.1133000000000002
 30
0.0
 11
24.158100000000001
 21
-2.1133000000000002
 31
0.0
  0
LINE
  5
140
  8
46
 10
24.833100000000002
 20
-2.1133000000000002
 30
0.0
 11
24.9831
 21
-2.1133000000000002
 31
0.0
  0
LINE
  5
141
  8
46
 10
25.658100000000001
 20
-2.1133000000000002
 30
0.0
 11
28.315000000000001
 21
-2.1133000000000002
 31
0.0
  0
LINE
  5
142
  8
46
 10
28.989999999999998
 20
-2.1133000000000002
 30
0.0
 11
29.140000000000001
 21
-2.1133000000000002
 31
0.0
  0
LINE
  5
143
  8
46
 10
29.815000000000001
 20
-2.1133000000000002
 30
0.0
 11
32.471899999999998
 21
-2.1133000000000002
 31
0.0
  0
LINE
  5
144
  8
46
 10
33.146900000000009
 20
-2.1133000000000002
 30
0.0
 11
33.296900000000001
 21
-2.1133000000000002
 31
0.0
  0
LINE
  5
145
  8
46
 10
33.971899999999998
 20
-2.1133000000000002
 30
0.0
 11
36.628799999999998
 21
-2.1133000000000002
 31
0.0
  0
LINE
  5
146
  8
46
 10
37.303800000000003
 20
-2.1133000000000002
 30
0.0
 11
37.453800000000001
 21
-2.1133000000000002
 31
0.0
  0
LINE
  5
147
  8
46
 10
38.128799999999998
 20
-2.1133000000000002
 30
0.0
 11
40.785699999999999
 21
-2.1133000000000002
 31
0.0
  0
LINE
  5
148
  8
46
 10
41.460700000000003
 20
-2.1133000000000002
 30
0.0
 11
41.610700000000001
 21
-2.1133000000000002
 31
0.0
  0
LINE
  5
149
  8
46
 10
42.285699999999999
 20
-2.1133000000000002
 30
0.0
 11
44.942700000000002
 21
-2.1133000000000002
 31
0.0
  0
LINE
  5
14A
  8
46
 10
45.617699999999999
 20
-2.1133000000000002
 30
0.0
 11
45.767699999999991
 21
-2.1133000000000002
 31
0.0
  0
LINE
  5
14B
  8
46
 10
46.442700000000002
 20
-2.1133000000000002
 30
0.0
 11
49.099600000000002
 21
-2.1133000000000002
 31
0.0
  0
LINE
  5
14C
  8
46
 10
49.7746
 20
-2.1133000000000002
 30
0.0
 11
49.924599999999998
 21
-2.1133000000000002
 31
0.0
  0
LINE
  5
14D
  8
46
 10
50.599600000000002
 20
-2.1133000000000002
 30
0.0
 11
53.256500000000003
 21
-2.1133000000000002
 31
0.0
  0
LINE
  5
14E
  8
46
 10
53.9315
 20
-2.1133000000000002
 30
0.0
 11
54.081499999999998
 21
-2.1133000000000002
 31
0.0
  0
LINE
  5
14F
  8
46
 10
54.756500000000003
 20
-2.1133000000000002
 30
0.0
 11
57.413400000000003
 21
-2.1133000000000002
 31
0.0
  0
LINE
  5
150
  8
46
 10
58.0884
 20
-2.1133000000000002
 30
0.0
 11
58.238399999999999
 21
-2.1133000000000002
 31
0.0
  0
LINE
  5
151
  8
46
 10
58.913400000000003
 20
-2.1133000000000002
 30
0.0
 11
61.570300000000003
 21
-2.1133000000000002
 31
0.0
  0
LINE
  5
152
  8
46
 10
61.570300000000003
 20
-2.1133000000000002
 30
0.0
 11
62.758499999999998
 21
0.2631
 31
0.0
  0
LINE
  5
153
  8
46
 10
63.060400000000001
 20
0.8667999999999999
 30
0.0
 11
63.127499999999998
 21
1.000999999999999
 31
0.0
  0
LINE
  5
154
  8
46
 10
63.429400000000001
 20
1.6047
 30
0.0
 11
64.617599999999996
 21
3.981199999999999
 31
0.0
  0
LINE
  5
155
  8
46
 10
64.919399999999996
 20
4.5849000000000002
 30
0.0
 11
64.986500000000007
 21
4.7191000000000001
 31
0.0
  0
LINE
  5
156
  8
46
 10
65.288399999999996
 20
5.3227999999999991
 30
0.0
 11
66.476600000000005
 21
7.6992000000000003
 31
0.0
  0
LINE
  5
157
  8
46
 10
66.778499999999994
 20
8.3030000000000008
 30
0.0
 11
66.845500000000001
 21
8.4370999999999992
 31
0.0
  0
LINE
  5
158
  8
46
 10
67.147400000000005
 20
9.0409000000000006
 30
0.0
 11
68.335599999999999
 21
11.417299999999999
 31
0.0
  0
LINE
  5
159
  8
46
 10
68.637500000000003
 20
12.021000000000001
 30
0.0
 11
68.704599999999999
 21
12.155200000000001
 31
0.0
  0
LINE
  5
15A
  8
46
 10
69.006399999999999
 20
12.758900000000001
 30
0.0
 11
70.194699999999997
 21
15.135300000000001
 31
0.0
  0
LINE
  5
15B
  8
46
 10
70.496499999999983
 20
15.739100000000001
 30
0.0
 11
70.563599999999994
 21
15.873200000000001
 31
0.0
  0
LINE
  5
15C
  8
46
 10
70.865499999999983
 20
16.477
 30
0.0
 11
72.053700000000006
 21
18.853400000000001
 31
0.0
  0
LINE
  5
15D
  8
46
 10
72.355599999999995
 20
19.457100000000001
 30
0.0
 11
72.422600000000003
 21
19.5913
 31
0.0
  0
LINE
  5
15E
  8
46
 10
72.724500000000006
 20
20.195
 30
0.0
 11
73.912700000000001
 21
22.5715
 31
0.0
  0
LINE
  5
15F
  8
46
 10
74.214600000000004
 20
23.1752
 30
0.0
 11
74.281700000000001
 21
23.3094
 31
0.0
  0
LINE
  5
160
  8
46
 10
74.583500000000001
 20
23.9131
 30
0.0
 11
75.771699999999996
 21
26.2895
 31
0.0
  0
LINE
  5
161
  8
46
 10
76.073599999999985
 20
26.8933
 30
0.0
 11
76.140699999999995
 21
27.0274
 31
0.0
  0
LINE
  5
162
  8
46
 10
76.442599999999999
 20
27.6312
 30
0.0
 11
77.630799999999994
 21
30.0076
 31
0.0
  0
LINE
  5
163
  8
46
 10
77.932699999999997
 20
30.6113
 30
0.0
 11
77.999700000000004
 21
30.7455
 31
0.0
  0
LINE
  5
164
  8
46
 10
78.301599999999993
 20
31.3492
 30
0.0
 11
79.489800000000002
 21
33.7256
 31
0.0
  0
LINE
  5
166
  8
46
 10
80.160600000000017
 20
35.06730000000001
 30
0.0
 11
81.348799999999997
 21
37.4437
 31
0.0
  0
LINE
  5
168
  8
46
 10
82.019700000000014
 20
38.785400000000003
 30
0.0
 11
83.207899999999995
 21
41.161799999999992
 31
0.0
  0
LINE
  5
169
  8
46
 10
83.509699999999995
 20
41.765500000000003
 30
0.0
 11
83.576800000000006
 21
41.899700000000003
 31
0.0
  0
LINE
  5
16A
  8
46
 10
83.878699999999995
 20
42.503399999999999
 30
0.0
 11
85.066900000000004
 21
44.879800000000003
 31
0.0
  0
LINE
  5
16B
  8
46
 10
85.368799999999993
 20
45.483600000000003
 30
0.0
 11
85.435900000000004
 21
45.617699999999999
 31
0.0
  0
LINE
  5
16C
  8
46
 10
85.737700000000004
 20
46.221499999999999
 30
0.0
 11
86.925899999999999
 21
48.597900000000003
 31
0.0
  0
LINE
  5
16D
  8
46
 10
87.227800000000002
 20
49.201599999999999
 30
0.0
 11
87.294899999999998
 21
49.335799999999999
 31
0.0
  0
LINE
  5
16E
  8
46
 10
87.596800000000016
 20
49.939500000000002
 30
0.0
 11
88.784999999999997
 21
52.316000000000003
 31
0.0
  0
LINE
  5
16F
  8
46
 10
89.086799999999997
 20
52.919699999999999
 30
0.0
 11
89.153899999999993
 21
53.053899999999999
 31
0.0
  0
LINE
  5
170
  8
46
 10
89.455799999999996
 20
53.657600000000002
 30
0.0
 11
90.644000000000005
 21
56.033999999999999
 31
0.0
  0
LINE
  5
171
  8
46
 10
90.644000000000005
 20
56.033999999999999
 30
0.0
 11
87.893299999999996
 21
56.033999999999999
 31
0.0
  0
LINE
  5
172
  8
46
 10
87.218299999999999
 20
56.033999999999999
 30
0.0
 11
87.068299999999994
 21
56.033999999999999
 31
0.0
  0
LINE
  5
173
  8
46
 10
86.393299999999996
 20
56.033999999999999
 30
0.0
 11
83.642700000000005
 21
56.033999999999999
 31
0.0
  0
LINE
  5
174
  8
46
 10
82.967699999999994
 20
56.033999999999999
 30
0.0
 11
82.817699999999988
 21
56.033999999999999
 31
0.0
  0
LINE
  5
175
  8
46
 10
82.142700000000005
 20
56.033999999999999
 30
0.0
 11
79.391999999999996
 21
56.033999999999999
 31
0.0
  0
LINE
  5
176
  8
46
 10
78.716999999999999
 20
56.033999999999999
 30
0.0
 11
78.566999999999993
 21
56.033999999999999
 31
0.0
  0
LINE
  5
177
  8
46
 10
77.891999999999996
 20
56.033999999999999
 30
0.0
 11
75.141300000000001
 21
56.033999999999999
 31
0.0
  0
LINE
  5
178
  8
46
 10
74.466300000000004
 20
56.033999999999999
 30
0.0
 11
74.316299999999998
 21
56.033999999999999
 31
0.0
  0
LINE
  5
179
  8
46
 10
73.641300000000001
 20
56.033999999999999
 30
0.0
 11
70.890699999999995
 21
56.033999999999999
 31
0.0
  0
LINE
  5
17A
  8
46
 10
70.215599999999995
 20
56.033999999999999
 30
0.0
 11
70.065700000000007
 21
56.033999999999999
 31
0.0
  0
LINE
  5
17B
  8
46
 10
69.390699999999995
 20
56.033999999999999
 30
0.0
 11
66.640000000000001
 21
56.033999999999999
 31
0.0
  0
LINE
  5
17C
  8
46
 10
65.965000000000003
 20
56.033999999999999
 30
0.0
 11
65.814999999999998
 21
56.033999999999999
 31
0.0
  0
LINE
  5
17D
  8
46
 10
65.140000000000001
 20
56.033999999999999
 30
0.0
 11
62.389299999999992
 21
56.033999999999999
 31
0.0
  0
LINE
  5
17E
  8
46
 10
61.780700000000003
 20
56.041600000000003
 30
0.0
 11
61.630700000000012
 21
56.041600000000003
 31
0.0
  0
LINE
  5
17F
  8
46
 10
60.889299999999999
 20
56.033999999999999
 30
0.0
 11
58.138599999999997
 21
56.033999999999999
 31
0.0
  0
LINE
  5
180
  8
46
 10
58.138599999999997
 20
56.033999999999999
 30
0.0
 11
55.387999999999998
 21
56.033999999999999
 31
0.0
  0
LINE
  5
181
  8
46
 10
54.713000000000001
 20
56.033999999999999
 30
0.0
 11
54.563000000000002
 21
56.033999999999999
 31
0.0
  0
LINE
  5
182
  8
46
 10
53.887999999999991
 20
56.033999999999999
 30
0.0
 11
51.137300000000003
 21
56.033999999999999
 31
0.0
  0
LINE
  5
183
  8
46
 10
50.462299999999999
 20
56.033999999999999
 30
0.0
 11
50.3123
 21
56.033999999999999
 31
0.0
  0
LINE
  5
184
  8
46
 10
49.637300000000003
 20
56.033999999999999
 30
0.0
 11
46.886600000000001
 21
56.033999999999999
 31
0.0
  0
LINE
  5
185
  8
46
 10
46.21159999999999
 20
56.033999999999999
 30
0.0
 11
46.061599999999999
 21
56.033999999999999
 31
0.0
  0
LINE
  5
186
  8
46
 10
45.386600000000001
 20
56.033999999999999
 30
0.0
 11
42.636000000000003
 21
56.033999999999999
 31
0.0
  0
LINE
  5
187
  8
46
 10
41.960999999999999
 20
56.033999999999999
 30
0.0
 11
41.810999999999993
 21
56.033999999999999
 31
0.0
  0
LINE
  5
188
  8
46
 10
41.136000000000003
 20
56.033999999999999
 30
0.0
 11
38.385300000000001
 21
56.033999999999999
 31
0.0
  0
LINE
  5
189
  8
46
 10
37.710299999999997
 20
56.033999999999999
 30
0.0
 11
37.560299999999998
 21
56.033999999999999
 31
0.0
  0
LINE
  5
18A
  8
46
 10
36.885300000000001
 20
56.033999999999999
 30
0.0
 11
34.134599999999999
 21
56.033999999999999
 31
0.0
  0
LINE
  5
18B
  8
46
 10
33.459600000000002
 20
56.033999999999999
 30
0.0
 11
33.30960000000001
 21
56.033999999999999
 31
0.0
  0
LINE
  5
18C
  8
46
 10
32.634599999999999
 20
56.033999999999999
 30
0.0
 11
29.884
 21
56.033999999999999
 31
0.0
  0
LINE
  5
18D
  8
46
 10
29.209
 20
56.033999999999999
 30
0.0
 11
29.059000000000001
 21
56.033999999999999
 31
0.0
  0
LINE
  5
18E
  8
46
 10
28.384
 20
56.033999999999999
 30
0.0
 11
25.633299999999998
 21
56.033999999999999
 31
0.0
  0
LINE
  5
18F
  8
46
 10
25.633299999999998
 20
56.033999999999999
 30
0.0
 11
24.4451
 21
53.657600000000002
 31
0.0
  0
LINE
  5
190
  8
46
 10
24.1432
 20
53.053899999999999
 30
0.0
 11
24.0761
 21
52.919699999999999
 31
0.0
  0
LINE
  5
191
  8
46
 10
23.7743
 20
52.316000000000003
 30
0.0
 11
22.586099999999998
 21
49.939500000000002
 31
0.0
  0
LINE
  5
192
  8
46
 10
22.284199999999998
 20
49.335799999999999
 30
0.0
 11
22.217099999999999
 21
49.201599999999999
 31
0.0
  0
LINE
  5
193
  8
46
 10
21.915199999999999
 20
48.597900000000003
 30
0.0
 11
20.727
 21
46.221499999999999
 31
0.0
  0
LINE
  5
194
  8
46
 10
20.4252
 20
45.617699999999999
 30
0.0
 11
20.3581
 21
45.483600000000003
 31
0.0
  0
LINE
  5
195
  8
46
 10
20.0562
 20
44.879800000000003
 30
0.0
 11
18.867999999999999
 21
42.503399999999999
 31
0.0
  0
LINE
  5
196
  8
46
 10
18.566099999999999
 20
41.899700000000003
 30
0.0
 11
18.499099999999999
 21
41.765500000000003
 31
0.0
  0
LINE
  5
197
  8
46
 10
18.197199999999999
 20
41.161799999999992
 30
0.0
 11
17.009
 21
38.785400000000003
 31
0.0
  0
LINE
  5
198
  8
46
 10
16.707100000000001
 20
38.18160000000001
 30
0.0
 11
16.640000000000001
 21
38.04740000000001
 31
0.0
  0
LINE
  5
199
  8
46
 10
16.338200000000001
 20
37.4437
 30
0.0
 11
15.149900000000001
 21
35.06730000000001
 31
0.0
  0
LINE
  5
19A
  8
46
 10
14.848100000000001
 20
34.4636
 30
0.0
 11
14.781000000000001
 21
34.3294
 31
0.0
  0
LINE
  5
19B
  8
46
 10
14.479100000000001
 20
33.7256
 30
0.0
 11
13.290900000000001
 21
31.3492
 31
0.0
  0
LINE
  5
19C
  8
46
 10
12.989000000000001
 20
30.7455
 30
0.0
 11
12.922000000000001
 21
30.6113
 31
0.0
  0
LINE
  5
19D
  8
46
 10
12.620100000000001
 20
30.0076
 30
0.0
 11
11.431900000000001
 21
27.6312
 31
0.0
  0
LINE
  5
19E
  8
46
 10
11.130000000000001
 20
27.0274
 30
0.0
 11
11.062900000000001
 21
26.8933
 31
0.0
  0
LINE
  5
19F
  8
46
 10
10.761100000000001
 20
26.2895
 30
0.0
 11
9.5728000000000009
 21
23.9131
 31
0.0
  0
LINE
  5
1A0
  8
46
 10
9.2710000000000008
 20
23.3094
 30
0.0
 11
9.2039000000000009
 21
23.1752
 31
0.0
  0
LINE
  5
1A1
  8
46
 10
8.9019999999999992
 20
22.5715
 30
0.0
 11
7.7137999999999991
 21
20.195
 31
0.0
  0
LINE
  5
1A3
  8
46
 10
7.0430000000000001
 20
18.853400000000001
 30
0.0
 11
5.8548
 21
16.477
 31
0.0
  0
LINE
  5
1A4
  8
46
 10
5.5529000000000002
 20
15.873200000000001
 30
0.0
 11
5.4858000000000002
 21
15.739100000000001
 31
0.0
  0
LINE
  5
1A5
  8
46
 10
5.1840000000000002
 20
15.135300000000001
 30
0.0
 11
3.9958
 21
12.758900000000001
 31
0.0
  0
LINE
  5
1A6
  8
46
 10
3.6939000000000002
 20
12.155200000000001
 30
0.0
 11
3.6267999999999989
 21
12.021000000000001
 31
0.0
  0
LINE
  5
1A7
  8
46
 10
3.3248999999999991
 20
11.417299999999999
 30
0.0
 11
2.1366999999999989
 21
9.0409000000000006
 31
0.0
  0
LINE
  5
1A8
  8
46
 10
1.8349
 20
8.4370999999999992
 30
0.0
 11
1.7678
 21
8.3030000000000008
 31
0.0
  0
LINE
  5
1A9
  8
46
 10
1.4658999999999991
 20
7.6992000000000003
 30
0.0
 11
0.2777
 21
5.3227999999999991
 31
0.0
  0
LINE
  5
1AA
  8
46
 10
-0.0242
 20
4.7191000000000001
 30
0.0
 11
-0.0913
 21
4.5849000000000002
 31
0.0
  0
LINE
  5
1AB
  8
46
 10
-0.3931
 20
3.981199999999999
 30
0.0
 11
-1.581299999999999
 21
1.6047
 31
0.0
  0
LINE
  5
1AC
  8
46
 10
-1.8832
 20
1.000999999999999
 30
0.0
 11
-1.9502999999999999
 21
0.8667999999999999
 31
0.0
  0
LINE
  5
1AD
  8
46
 10
-2.2522000000000002
 20
0.2631
 30
0.0
 11
-3.440399999999999
 21
-2.1133000000000002
 31
0.0
  0
LINE
  5
1AE
  8
46
 10
0.0158
 20
0.0227
 30
0.0
 11
60.2502
 21
0.0227
 31
0.0
  0
LINE
  5
1AF
  8
46
 10
26.953399999999998
 20
53.89800000000001
 30
0.0
 11
0.0158
 21
0.0227
 31
0.0
  0
LINE
  5
1B0
  8
46
 10
87.187799999999996
 20
53.89800000000001
 30
0.0
 11
26.953399999999998
 21
53.89800000000001
 31
0.0
  0
LINE
  5
1B1
  8
46
 10
60.2502
 20
0.0227
 30
0.0
 11
87.187799999999996
 21
53.89800000000001
 31
0.0
  0
LINE
  5
1B2
  8
46
 10
58.138599999999997
 20
56.033999999999999
 30
0.0
 11
58.138599999999997
 21
53.442799999999998
 31
0.0
  0
LINE
  5
1B3
  8
46
 10
58.138599999999997
 20
52.767800000000001
 30
0.0
 11
58.138599999999997
 21
52.617800000000003
 31
0.0
  0
LINE
  5
1B4
  8
46
 10
58.138599999999997
 20
51.942799999999998
 30
0.0
 11
58.138599999999997
 21
49.351599999999991
 31
0.0
  0
LINE
  5
1B6
  8
46
 10
13.990137023017869
 20
25.630451284479228
 30
0.0
 11
14.124337023017871
 21
25.563351284479229
 31
0.0
  0
LINE
  5
1B7
  8
46
 10
14.6991
 20
25.158999999999999
 30
0.0
 11
16.960100000000001
 21
24.028500000000001
 31
0.0
  0
LINE
  5
1B8
  8
46
 10
76.107200000000006
 20
26.9604
 30
0.0
 11
74.227599999999995
 21
27.900099999999998
 31
0.0
  0
LINE
  5
1B9
  8
46
 10
73.623900000000006
 20
28.202000000000002
 30
0.0
 11
73.489699999999999
 21
28.269100000000002
 31
0.0
  0
LINE
  5
1BA
  8
46
 10
72.885999999999996
 20
28.570900000000002
 30
0.0
 11
71.006500000000003
 21
29.5107
 31
0.0
  0
LINE
  5
1BB
  8
20
 10
0.025
 20
0.025
 30
0.0
 11
60.25
 21
0.025
 31
0.0
  0
LINE
  5
1BC
  8
20
 10
60.25
 20
0.025
 30
0.0
 11
68.025000000000006
 21
15.574999999999999
 31
0.0
  0
LINE
  5
1BD
  8
20
 10
45.575000000000003
 20
54.700000000000003
 30
0.0
 11
43.575000000000003
 21
53.899999999999999
 31
0.0
  0
LINE
  5
1BE
  8
20
 10
43.575000000000003
 20
53.899999999999999
 30
0.0
 11
26.949999999999999
 21
53.899999999999999
 31
0.0
  0
LINE
  5
1BF
  8
20
 10
26.949999999999999
 20
53.899999999999999
 30
0.0
 11
19.524999999999999
 21
39.024999999999999
 31
0.0
  0
LINE
  5
1C0
  8
20
 10
19.524999999999999
 20
39.024999999999999
 30
0.0
 11
17.850000000000001
 21
37.524999999999999
 31
0.0
  0
LINE
  5
1C1
  8
20
 10
9.3249999999999993
 20
20.475000000000001
 30
0.0
 11
11.9
 21
19.175000000000001
 31
0.0
  0
LINE
  5
1C2
  8
20
 10
80.549999999999983
 20
41.25
 30
0.0
 11
80.924999999999983
 21
41.350000000000001
 31
0.0
  0
LINE
  5
1C3
  8
20
 10
80.924999999999983
 20
41.350000000000001
 30
0.0
 11
87.200000000000003
 21
53.899999999999999
 31
0.0
  0
LINE
  5
1C4
  8
20
 10
87.200000000000003
 20
53.899999999999999
 30
0.0
 11
72.567499999999995
 21
53.89800000000001
 31
0.0
  0
LINE
  5
1C5
  8
20
 10
72.567499999999995
 20
53.899999999999999
 30
0.0
 11
72.567499999999995
 21
53.700000000000003
 31
0.0
  0
LINE
  5
1C6
  8
20
 10
64.658299999999997
 20
51.92499999999999
 30
0.0
 11
64.658299999999997
 21
54.700000000000003
 31
0.0
  0
LINE
  5
1C7
  8
20
 10
6.75
 20
12.65
 30
0.0
 11
6.2750000000000004
 21
12.550000000000001
 31
0.0
  0
LINE
  5
1C8
  8
20
 10
6.2750000000000004
 20
12.550000000000001
 30
0.0
 11
0.025
 21
0.025
 31
0.0
  0
LINE
  5
1F9
  8
20
 10
72.567499999999995
 20
51.92499999999999
 30
0.0
 11
64.658299999999997
 21
51.92499999999999
 31
0.0
  0
LINE
  5
1FA
  8
20
 10
64.658299999999997
 20
54.700000000000003
 30
0.0
 11
45.575000000000003
 21
54.700000000000003
 31
0.0
  0
LINE
  5
1FB
  8
20
 10
17.850000000000001
 20
37.524999999999999
 30
0.0
 11
9.3249999999999993
 21
20.475000000000001
 31
0.0
  0
LINE
  5
1FC
  8
20
 10
72.567499999999995
 20
53.700000000000003
 30
0.0
 11
72.567499999999995
 21
51.92499999999999
 31
0.0
  0
LINE
  5
1FD
  8
20
 10
80.549999999999983
 20
41.25
 30
0.0
 11
79.049999999999997
 21
42.0
 31
0.0
  0
LINE
  5
1FE
  8
20
 10
69.375
 20
16.475000000000001
 30
0.0
 11
77.924999999999997
 21
33.45000000000001
 31
0.0
  0
LINE
  5
1FF
  8
20
 10
79.049999999999997
 20
42.0
 30
0.0
 11
75.400000000000006
 21
34.70000000000001
 31
0.0
  0
LINE
  5
200
  8
20
 10
75.400000000000006
 20
34.70000000000001
 30
0.0
 11
77.924999999999997
 21
33.45000000000001
 31
0.0
  0
LINE
  5
201
  8
20
 10
69.375
 20
16.475000000000001
 30
0.0
 11
68.025000000000006
 21
15.574999999999999
 31
0.0
  0
LINE
  5
202
  8
20
 10
11.9
 20
19.175000000000001
 30
0.0
 11
8.25
 21
11.9
 31
0.0
  0
LINE
  5
203
  8
20
 10
6.75
 20
12.65
 30
0.0
 11
8.25
 21
11.9
 31
0.0
  0
LINE
  5
204
  8
20
 10
80.712500000000006
 20
40.950000000000003
 30
0.0
 11
79.037499999999994
 21
41.787499999999987
 31
0.0
  0
CIRCLE
  5
205
  8
20
 10
5.2843999999999989
 20
3.2924000000000002
 30
0.0
 40
1.25
  0
CIRCLE
  5
206
  8
20
 10
82.092600000000004
 20
50.714700000000001
 30
0.0
 40
1.25
  0
CIRCLE
  5
207
  8
20
 10
29.0824
 20
50.378100000000003
 30
0.0
 40
1.25
  0
CIRCLE
  5
208
  8
20
 10
58.168700000000001
 20
3.5893000000000002
 30
0.0
 40
1.25
  0
LINE
  5
5CC
  8
22
 10
64.658299999999997
 20
49.806100000000001
 30
0.0
 11
64.658299999999997
 21
54.706099999999999
 31
0.0
  0
LINE
  5
5CD
  8
22
 10
64.658299999999997
 20
54.706099999999999
 30
0.0
 11
63.758299999999998
 21
54.706099999999999
 31
0.0
  0
LINE
  5
5CE
  8
22
 10
62.758299999999998
 20
52.706100000000013
 30
0.0
 11
62.758299999999998
 21
55.706100000000013
 31
0.0
  0
LINE
  5
5D0
  8
22
 10
62.558300000000003
 20
55.706100000000013
 30
0.0
 11
62.558300000000003
 21
52.706100000000013
 31
0.0
  0
LINE
  5
5D1
  8
22
 10
59.858299999999993
 20
52.706100000000013
 30
0.0
 11
59.858299999999993
 21
55.706100000000013
 31
0.0
  0
LINE
  5
5D3
  8
22
 10
59.758299999999998
 20
55.706100000000013
 30
0.0
 11
59.758299999999998
 21
52.706100000000013
 31
0.0
  0
LINE
  5
5D4
  8
22
 10
59.758299999999998
 20
52.706100000000013
 30
0.0
 11
59.558300000000003
 21
52.706100000000013
 31
0.0
  0
LINE
  5
5D5
  8
22
 10
59.558300000000003
 20
52.706100000000013
 30
0.0
 11
59.558300000000003
 21
55.706100000000013
 31
0.0
  0
LINE
  5
5D7
  8
22
 10
59.458300000000001
 20
55.706100000000013
 30
0.0
 11
59.458300000000001
 21
52.706100000000013
 31
0.0
  0
LINE
  5
5D8
  8
22
 10
63.758299999999998
 20
52.706100000000013
 30
0.0
 11
62.758299999999998
 21
52.706100000000013
 31
0.0
  0
LINE
  5
5D9
  8
22
 10
62.558300000000003
 20
52.706100000000013
 30
0.0
 11
61.3583
 21
52.706100000000013
 31
0.0
  0
LINE
  5
5DA
  8
22
 10
60.958300000000001
 20
52.706100000000013
 30
0.0
 11
59.858299999999993
 21
52.706100000000013
 31
0.0
  0
LINE
  5
5DB
  8
22
 10
59.458300000000001
 20
52.706100000000013
 30
0.0
 11
58.3583
 21
52.706100000000013
 31
0.0
  0
LINE
  5
5DC
  8
22
 10
58.3583
 20
52.706100000000013
 30
0.0
 11
58.3583
 21
54.706099999999999
 31
0.0
  0
LINE
  5
5DD
  8
22
 10
63.758299999999998
 20
52.706100000000013
 30
0.0
 11
63.758299999999998
 21
54.706099999999999
 31
0.0
  0
LINE
  5
5DE
  8
22
 10
61.3583
 20
52.706100000000013
 30
0.0
 11
61.3583
 21
54.706099999999999
 31
0.0
  0
LINE
  5
5E0
  8
22
 10
60.958300000000001
 20
54.706099999999999
 30
0.0
 11
60.958300000000001
 21
52.706100000000013
 31
0.0
  0
LINE
  5
5E1
  8
22
 10
64.654600000000002
 20
49.799999999999997
 30
0.0
 11
63.404600000000002
 21
49.799999999999997
 31
0.0
  0
LINE
  5
5E2
  8
22
 10
63.404600000000002
 20
49.799999999999997
 30
0.0
 11
61.904600000000002
 21
49.799999999999997
 31
0.0
  0
LINE
  5
5E3
  8
22
 10
61.904600000000002
 20
49.799999999999997
 30
0.0
 11
60.404600000000002
 21
49.799999999999997
 31
0.0
  0
LINE
  5
5E4
  8
22
 10
60.404600000000002
 20
49.799999999999997
 30
0.0
 11
58.904600000000002
 21
49.799999999999997
 31
0.0
  0
LINE
  5
5E5
  8
22
 10
58.904600000000002
 20
49.799999999999997
 30
0.0
 11
57.404600000000002
 21
49.799999999999997
 31
0.0
  0
LINE
  5
5E6
  8
22
 10
57.404600000000002
 20
49.799999999999997
 30
0.0
 11
55.904600000000002
 21
49.799999999999997
 31
0.0
  0
LINE
  5
5E7
  8
22
 10
55.904600000000002
 20
49.799999999999997
 30
0.0
 11
54.404600000000002
 21
49.799999999999997
 31
0.0
  0
LINE
  5
5E8
  8
22
 10
54.404600000000002
 20
49.799999999999997
 30
0.0
 11
52.904600000000002
 21
49.799999999999997
 31
0.0
  0
LINE
  5
5E9
  8
22
 10
52.904600000000002
 20
49.799999999999997
 30
0.0
 11
51.404600000000002
 21
49.799999999999997
 31
0.0
  0
LINE
  5
5EA
  8
22
 10
51.404600000000002
 20
49.799999999999997
 30
0.0
 11
49.904600000000002
 21
49.799999999999997
 31
0.0
  0
LINE
  5
5EB
  8
22
 10
49.904600000000002
 20
49.799999999999997
 30
0.0
 11
48.404600000000002
 21
49.799999999999997
 31
0.0
  0
LINE
  5
5EC
  8
22
 10
48.404600000000002
 20
49.799999999999997
 30
0.0
 11
46.904600000000002
 21
49.799999999999997
 31
0.0
  0
LINE
  5
5ED
  8
22
 10
46.904600000000002
 20
49.799999999999997
 30
0.0
 11
45.654600000000002
 21
49.799999999999997
 31
0.0
  0
LINE
  5
5EE
  8
22
 10
45.654600000000002
 20
49.799999999999997
 30
0.0
 11
45.654600000000002
 21
54.750000000000007
 31
0.0
  0
LINE
  5
5EF
  8
22
 10
56.758299999999998
 20
52.706100000000013
 30
0.0
 11
56.758299999999998
 21
55.706100000000013
 31
0.0
  0
LINE
  5
5F1
  8
22
 10
56.558300000000003
 20
55.706100000000013
 30
0.0
 11
56.558300000000003
 21
52.706100000000013
 31
0.0
  0
LINE
  5
5F2
  8
22
 10
50.758299999999991
 20
52.706100000000013
 30
0.0
 11
50.758299999999991
 21
55.706100000000013
 31
0.0
  0
LINE
  5
5F4
  8
22
 10
50.558300000000003
 20
55.706100000000013
 30
0.0
 11
50.558300000000003
 21
52.706100000000013
 31
0.0
  0
LINE
  5
5F5
  8
22
 10
53.8583
 20
52.706100000000013
 30
0.0
 11
53.8583
 21
55.706100000000013
 31
0.0
  0
LINE
  5
5F7
  8
22
 10
53.758299999999998
 20
55.706100000000013
 30
0.0
 11
53.758299999999998
 21
52.706100000000013
 31
0.0
  0
LINE
  5
5F8
  8
22
 10
53.758299999999998
 20
52.706100000000013
 30
0.0
 11
53.558300000000003
 21
52.706100000000013
 31
0.0
  0
LINE
  5
5F9
  8
22
 10
53.558300000000003
 20
52.706100000000013
 30
0.0
 11
53.558300000000003
 21
55.706100000000013
 31
0.0
  0
LINE
  5
5FB
  8
22
 10
53.458300000000001
 20
55.706100000000013
 30
0.0
 11
53.458300000000001
 21
52.706100000000013
 31
0.0
  0
LINE
  5
5FC
  8
22
 10
47.858299999999993
 20
52.706100000000013
 30
0.0
 11
47.858299999999993
 21
55.706100000000013
 31
0.0
  0
LINE
  5
5FE
  8
22
 10
47.758299999999998
 20
55.706100000000013
 30
0.0
 11
47.758299999999998
 21
52.706100000000013
 31
0.0
  0
LINE
  5
5FF
  8
22
 10
47.758299999999998
 20
52.706100000000013
 30
0.0
 11
47.558300000000003
 21
52.706100000000013
 31
0.0
  0
LINE
  5
600
  8
22
 10
47.558300000000003
 20
52.706100000000013
 30
0.0
 11
47.558300000000003
 21
55.706100000000013
 31
0.0
  0
LINE
  5
602
  8
22
 10
47.458300000000001
 20
55.706100000000013
 30
0.0
 11
47.458300000000001
 21
52.706100000000013
 31
0.0
  0
LINE
  5
604
  8
22
 10
46.554600000000001
 20
54.750000000000007
 30
0.0
 11
46.554600000000001
 21
52.700000000000003
 31
0.0
  0
LINE
  5
605
  8
22
 10
46.554600000000001
 20
52.700000000000003
 30
0.0
 11
47.454599999999999
 21
52.700000000000003
 31
0.0
  0
LINE
  5
606
  8
22
 10
56.754600000000011
 20
52.700000000000003
 30
0.0
 11
57.954599999999999
 21
52.700000000000003
 31
0.0
  0
LINE
  5
607
  8
22
 10
57.954599999999999
 20
52.700000000000003
 30
0.0
 11
57.954599999999999
 21
54.700000000000003
 31
0.0
  0
LINE
  5
609
  8
22
 10
56.558300000000003
 20
52.706100000000013
 30
0.0
 11
55.408299999999997
 21
52.706100000000013
 31
0.0
  0
LINE
  5
60A
  8
22
 10
55.008299999999998
 20
52.706100000000013
 30
0.0
 11
53.8583
 21
52.706100000000013
 31
0.0
  0
LINE
  5
60B
  8
22
 10
55.408299999999997
 20
52.706100000000013
 30
0.0
 11
55.408299999999997
 21
54.706099999999999
 31
0.0
  0
LINE
  5
60D
  8
22
 10
55.008299999999998
 20
54.706099999999999
 30
0.0
 11
55.008299999999998
 21
52.706100000000013
 31
0.0
  0
LINE
  5
60E
  8
22
 10
53.458300000000001
 20
52.706100000000013
 30
0.0
 11
52.458300000000001
 21
52.706100000000013
 31
0.0
  0
LINE
  5
60F
  8
22
 10
52.058300000000003
 20
52.706100000000013
 30
0.0
 11
50.758299999999991
 21
52.706100000000013
 31
0.0
  0
LINE
  5
610
  8
22
 10
52.458300000000001
 20
52.706100000000013
 30
0.0
 11
52.458300000000001
 21
54.706099999999999
 31
0.0
  0
LINE
  5
612
  8
22
 10
52.058300000000003
 20
54.706099999999999
 30
0.0
 11
52.058300000000003
 21
52.706100000000013
 31
0.0
  0
LINE
  5
613
  8
22
 10
50.558300000000003
 20
52.706100000000013
 30
0.0
 11
49.508299999999991
 21
52.706100000000013
 31
0.0
  0
LINE
  5
614
  8
22
 10
49.1083
 20
52.706100000000013
 30
0.0
 11
47.858299999999993
 21
52.706100000000013
 31
0.0
  0
LINE
  5
615
  8
22
 10
49.508299999999991
 20
52.706100000000013
 30
0.0
 11
49.508299999999991
 21
54.706099999999999
 31
0.0
  0
LINE
  5
617
  8
22
 10
49.1083
 20
54.706099999999999
 30
0.0
 11
49.1083
 21
52.706100000000013
 31
0.0
  0
LINE
  5
624
  8
22
 10
63.404600000000002
 20
49.799999999999997
 30
0.0
 11
63.404600000000002
 21
49.299999999999997
 31
0.0
  0
LINE
  5
625
  8
22
 10
63.404600000000002
 20
49.299999999999997
 30
0.0
 11
61.904600000000002
 21
49.299999999999997
 31
0.0
  0
LINE
  5
626
  8
22
 10
61.904600000000002
 20
49.299999999999997
 30
0.0
 11
61.904600000000002
 21
49.799999999999997
 31
0.0
  0
LINE
  5
627
  8
22
 10
60.404600000000002
 20
49.799999999999997
 30
0.0
 11
60.404600000000002
 21
49.299999999999997
 31
0.0
  0
LINE
  5
628
  8
22
 10
60.404600000000002
 20
49.299999999999997
 30
0.0
 11
58.904600000000002
 21
49.299999999999997
 31
0.0
  0
LINE
  5
629
  8
22
 10
58.904600000000002
 20
49.299999999999997
 30
0.0
 11
58.904600000000002
 21
49.799999999999997
 31
0.0
  0
LINE
  5
62A
  8
22
 10
57.404600000000002
 20
49.799999999999997
 30
0.0
 11
57.404600000000002
 21
49.299999999999997
 31
0.0
  0
LINE
  5
62B
  8
22
 10
57.404600000000002
 20
49.299999999999997
 30
0.0
 11
55.904600000000002
 21
49.299999999999997
 31
0.0
  0
LINE
  5
62C
  8
22
 10
55.904600000000002
 20
49.299999999999997
 30
0.0
 11
55.904600000000002
 21
49.799999999999997
 31
0.0
  0
LINE
  5
62D
  8
22
 10
54.404600000000002
 20
49.799999999999997
 30
0.0
 11
54.404600000000002
 21
49.299999999999997
 31
0.0
  0
LINE
  5
62E
  8
22
 10
54.404600000000002
 20
49.299999999999997
 30
0.0
 11
52.904600000000002
 21
49.299999999999997
 31
0.0
  0
LINE
  5
62F
  8
22
 10
52.904600000000002
 20
49.299999999999997
 30
0.0
 11
52.904600000000002
 21
49.799999999999997
 31
0.0
  0
LINE
  5
630
  8
22
 10
51.404600000000002
 20
49.799999999999997
 30
0.0
 11
51.404600000000002
 21
49.299999999999997
 31
0.0
  0
LINE
  5
631
  8
22
 10
51.404600000000002
 20
49.299999999999997
 30
0.0
 11
49.904600000000002
 21
49.299999999999997
 31
0.0
  0
LINE
  5
632
  8
22
 10
49.904600000000002
 20
49.299999999999997
 30
0.0
 11
49.904600000000002
 21
49.799999999999997
 31
0.0
  0
LINE
  5
633
  8
22
 10
48.404600000000002
 20
49.799999999999997
 30
0.0
 11
48.404600000000002
 21
49.299999999999997
 31
0.0
  0
LINE
  5
634
  8
22
 10
48.404600000000002
 20
49.299999999999997
 30
0.0
 11
46.904600000000002
 21
49.299999999999997
 31
0.0
  0
LINE
  5
635
  8
22
 10
46.904600000000002
 20
49.299999999999997
 30
0.0
 11
46.904600000000002
 21
49.799999999999997
 31
0.0
  0
LINE
  5
8A7
  8
22
 10
22.253037023017871
 20
35.34745128447922
 30
0.0
 11
17.871737023017872
 21
37.541551284479233
 31
0.0
  0
LINE
  5
8A8
  8
22
 10
17.871737023017872
 20
37.541551284479233
 30
0.0
 11
17.468737023017869
 21
36.736751284479233
 31
0.0
  0
LINE
  5
8A9
  8
22
 10
18.809237023017872
 20
34.94705128447923
 30
0.0
 11
16.12683702301787
 21
36.290351284479229
 31
0.0
  0
LINE
  5
8AB
  8
22
 10
16.03723702301787
 20
36.111551284479219
 30
0.0
 11
18.719737023017871
 21
34.76825128447922
 31
0.0
  0
LINE
  5
8AC
  8
22
 10
17.510737023017871
 20
32.354051284479233
 30
0.0
 11
14.82833702301787
 21
33.697351284479232
 31
0.0
  0
LINE
  5
8AE
  8
22
 10
14.783537023017869
 20
33.607951284479228
 30
0.0
 11
17.466037023017869
 21
32.264651284479228
 31
0.0
  0
LINE
  5
8AF
  8
22
 10
17.466037023017869
 20
32.264651284479228
 30
0.0
 11
17.376437023017871
 21
32.08575128447923
 31
0.0
  0
LINE
  5
8B0
  8
22
 10
17.376437023017871
 20
32.08575128447923
 30
0.0
 11
14.69393702301787
 21
33.429051284479229
 31
0.0
  0
LINE
  5
8B2
  8
22
 10
14.64923702301787
 20
33.339651284479231
 30
0.0
 11
17.331637023017869
 21
31.996351284479228
 31
0.0
  0
LINE
  5
8B3
  8
22
 10
19.257037023017869
 20
35.841251284479227
 30
0.0
 11
18.809237023017872
 21
34.94705128447923
 31
0.0
  0
LINE
  5
8B4
  8
22
 10
18.719737023017871
 20
34.76825128447922
 30
0.0
 11
18.182437023017869
 21
33.695251284479227
 31
0.0
  0
LINE
  5
8B5
  8
22
 10
18.00333702301787
 20
33.337651284479222
 30
0.0
 11
17.510737023017871
 21
32.354051284479233
 31
0.0
  0
LINE
  5
8B6
  8
22
 10
17.331637023017869
 20
31.996351284479228
 30
0.0
 11
16.839137023017869
 21
31.012851284479229
 31
0.0
  0
LINE
  5
8B7
  8
22
 10
16.839137023017869
 20
31.012851284479229
 30
0.0
 11
15.05083702301787
 21
31.908351284479231
 31
0.0
  0
LINE
  5
8B8
  8
22
 10
19.257037023017869
 20
35.841251284479227
 30
0.0
 11
17.468737023017869
 21
36.736751284479233
 31
0.0
  0
LINE
  5
8B9
  8
22
 10
18.182437023017869
 20
33.695251284479227
 30
0.0
 11
16.394137023017869
 21
34.590751284479232
 31
0.0
  0
LINE
  5
8BA
  8
22
 10
16.365200000000002
 20
34.488300000000002
 30
0.0
 11
16.1861
 21
34.130699999999997
 31
0.0
  0
LINE
  5
8BB
  8
22
 10
16.215037023017871
 20
34.23315128447922
 30
0.0
 11
18.00333702301787
 21
33.337651284479222
 31
0.0
  0
LINE
  5
8BC
  8
22
 10
22.256837023017869
 20
35.34145128447922
 30
0.0
 11
21.69713702301787
 21
34.223751284479221
 31
0.0
  0
LINE
  5
8BD
  8
22
 10
21.69713702301787
 20
34.223751284479221
 30
0.0
 11
21.025537023017868
 21
32.88255128447922
 31
0.0
  0
LINE
  5
8BE
  8
22
 10
21.025537023017868
 20
32.88255128447922
 30
0.0
 11
20.35393702301787
 21
31.54125128447923
 31
0.0
  0
LINE
  5
8BF
  8
22
 10
20.35393702301787
 20
31.54125128447923
 30
0.0
 11
19.682237023017869
 21
30.20005128447923
 31
0.0
  0
LINE
  5
8C0
  8
22
 10
19.682237023017869
 20
30.20005128447923
 30
0.0
 11
19.010637023017871
 21
28.858851284479229
 31
0.0
  0
LINE
  5
8C1
  8
22
 10
19.010637023017871
 20
28.858851284479229
 30
0.0
 11
18.33893702301787
 21
27.517551284479229
 31
0.0
  0
LINE
  5
8C2
  8
22
 10
18.33893702301787
 20
27.517551284479229
 30
0.0
 11
17.667337023017868
 21
26.176351284479232
 31
0.0
  0
LINE
  5
8C3
  8
22
 10
17.667337023017868
 20
26.176351284479232
 30
0.0
 11
16.99573702301787
 21
24.835151284479231
 31
0.0
  0
LINE
  5
8C4
  8
22
 10
16.99573702301787
 20
24.835151284479231
 30
0.0
 11
16.324037023017869
 21
23.493851284479231
 31
0.0
  0
LINE
  5
8C5
  8
22
 10
16.324037023017869
 20
23.493851284479231
 30
0.0
 11
15.652437023017869
 21
22.15265128447923
 31
0.0
  0
LINE
  5
8C6
  8
22
 10
15.652437023017869
 20
22.15265128447923
 30
0.0
 11
14.98073702301787
 21
20.811451284479229
 31
0.0
  0
LINE
  5
8C7
  8
22
 10
14.98073702301787
 20
20.811451284479229
 30
0.0
 11
14.30913702301787
 21
19.470251284479229
 31
0.0
  0
LINE
  5
8C8
  8
22
 10
14.30913702301787
 20
19.470251284479229
 30
0.0
 11
13.749437023017871
 21
18.35255128447923
 31
0.0
  0
LINE
  5
8C9
  8
22
 10
13.749437023017871
 20
18.35255128447923
 30
0.0
 11
9.3233370230178707
 21
20.56895128447923
 31
0.0
  0
LINE
  5
8CA
  8
22
 10
16.122737023017869
 20
29.582151284479231
 30
0.0
 11
13.44023702301787
 21
30.92545128447923
 31
0.0
  0
LINE
  5
8CC
  8
22
 10
13.350737023017871
 20
30.746651284479231
 30
0.0
 11
16.033137023017868
 21
29.403351284479228
 31
0.0
  0
LINE
  5
8CD
  8
22
 10
13.436137023017871
 20
24.217251284479229
 30
0.0
 11
10.753737023017869
 21
25.560551284479232
 31
0.0
  0
LINE
  5
8CF
  8
22
 10
10.66413702301787
 20
25.381651284479229
 30
0.0
 11
13.34663702301787
 21
24.03845128447923
 31
0.0
  0
LINE
  5
8D0
  8
22
 10
14.82423702301787
 20
26.989151284479231
 30
0.0
 11
12.141737023017869
 21
28.33235128447923
 31
0.0
  0
LINE
  5
8D2
  8
22
 10
12.096937023017871
 20
28.242951284479229
 30
0.0
 11
14.77943702301787
 21
26.89975128447923
 31
0.0
  0
LINE
  5
8D3
  8
22
 10
14.77943702301787
 20
26.89975128447923
 30
0.0
 11
14.689937023017871
 21
26.720851284479231
 31
0.0
  0
LINE
  5
8D4
  8
22
 10
14.689937023017871
 20
26.720851284479231
 30
0.0
 11
12.00743702301787
 21
28.06415128447923
 31
0.0
  0
LINE
  5
8D6
  8
22
 10
11.962637023017869
 20
27.974751284479229
 30
0.0
 11
14.64513702301787
 21
26.63145128447923
 31
0.0
  0
LINE
  5
8D7
  8
22
 10
12.13763702301787
 20
21.624151284479229
 30
0.0
 11
9.4552370230178706
 21
22.967451284479228
 31
0.0
  0
LINE
  5
8D9
  8
22
 10
9.4104370230178702
 20
22.878051284479231
 30
0.0
 11
12.092937023017869
 21
21.534751284479231
 31
0.0
  0
LINE
  5
8DA
  8
22
 10
12.092937023017869
 20
21.534751284479231
 30
0.0
 11
12.00333702301787
 21
21.355951284479229
 31
0.0
  0
LINE
  5
8DB
  8
22
 10
12.00333702301787
 20
21.355951284479229
 30
0.0
 11
9.3208370230178712
 21
22.699251284479232
 31
0.0
  0
LINE
  5
8DD
  8
22
 10
9.2761370230178706
 20
22.60985128447923
 30
0.0
 11
11.95853702301787
 21
21.266551284479231
 31
0.0
  0
LINE
  5
8DE
  8
22
 10
9.3233370230178707
 20
20.56895128447923
 30
0.0
 11
9.7263370230178712
 21
21.37365128447923
 31
0.0
  0
LINE
  5
8DF
  8
22
 10
9.7263370230178712
 20
21.37365128447923
 30
0.0
 11
11.55933702301787
 21
20.455751284479231
 31
0.0
  0
LINE
  5
8E0
  8
22
 10
11.55933702301787
 20
20.455751284479231
 30
0.0
 11
11.96233702301787
 21
21.260451284479231
 31
0.0
  0
LINE
  5
8E1
  8
22
 10
16.126537023017871
 20
29.576151284479231
 30
0.0
 11
16.663837023017869
 21
30.649151284479231
 31
0.0
  0
LINE
  5
8E2
  8
22
 10
16.663837023017869
 20
30.649151284479231
 30
0.0
 11
14.87553702301787
 21
31.54465128447923
 31
0.0
  0
LINE
  5
8E3
  8
22
 10
14.87553702301787
 20
31.54465128447923
 30
0.0
 11
15.05463702301787
 21
31.902251284479231
 31
0.0
  0
LINE
  5
8E4
  8
22
 10
16.033137023017868
 20
29.403351284479228
 30
0.0
 11
15.518237023017869
 21
28.37505128447923
 31
0.0
  0
LINE
  5
8E5
  8
22
 10
15.339137023017869
 20
28.017351284479229
 30
0.0
 11
14.82423702301787
 21
26.989151284479231
 31
0.0
  0
LINE
  5
8E6
  8
22
 10
15.518237023017869
 20
28.37505128447923
 30
0.0
 11
13.72993702301787
 21
29.270551284479229
 31
0.0
  0
LINE
  5
8E7
  8
22
 10
13.701000000000001
 20
29.168099999999999
 30
0.0
 11
13.5219
 21
28.810500000000001
 31
0.0
  0
LINE
  5
8E8
  8
22
 10
13.55083702301787
 20
28.912951284479231
 30
0.0
 11
15.339137023017869
 21
28.017351284479229
 31
0.0
  0
LINE
  5
8E9
  8
22
 10
14.64513702301787
 20
26.63145128447923
 30
0.0
 11
14.197337023017869
 21
25.737351284479232
 31
0.0
  0
LINE
  5
8EA
  8
22
 10
14.018237023017869
 20
25.37965128447923
 30
0.0
 11
13.436137023017871
 21
24.217251284479229
 31
0.0
  0
LINE
  5
8EB
  8
22
 10
14.197337023017869
 20
25.737351284479232
 30
0.0
 11
12.40903702301787
 21
26.63285128447923
 31
0.0
  0
LINE
  5
8EC
  8
22
 10
12.40903702301787
 20
26.63285128447923
 30
0.0
 11
12.22993702301787
 21
26.275151284479229
 31
0.0
  0
LINE
  5
8ED
  8
22
 10
12.22993702301787
 20
26.275151284479229
 30
0.0
 11
14.018237023017869
 21
25.37965128447923
 31
0.0
  0
LINE
  5
8EE
  8
22
 10
13.34663702301787
 20
24.03845128447923
 30
0.0
 11
12.87643702301787
 21
23.099551284479229
 31
0.0
  0
LINE
  5
8EF
  8
22
 10
12.697337023017869
 20
22.741851284479232
 30
0.0
 11
12.13763702301787
 21
21.624151284479229
 31
0.0
  0
LINE
  5
8F0
  8
22
 10
12.87643702301787
 20
23.099551284479229
 30
0.0
 11
11.08813702301787
 21
23.995051284479231
 31
0.0
  0
LINE
  5
8F1
  8
22
 10
11.08813702301787
 20
23.995051284479231
 30
0.0
 11
10.90903702301787
 21
23.63745128447923
 31
0.0
  0
LINE
  5
8F2
  8
22
 10
10.90903702301787
 20
23.63745128447923
 30
0.0
 11
12.697337023017869
 21
22.741851284479232
 31
0.0
  0
LINE
  5
8FF
  8
22
 10
21.69713702301787
 20
34.223751284479221
 30
0.0
 11
22.144237023017869
 21
33.99985128447922
 31
0.0
  0
LINE
  5
900
  8
22
 10
22.144237023017869
 20
33.99985128447922
 30
0.0
 11
21.472637023017871
 21
32.65865128447922
 31
0.0
  0
LINE
  5
901
  8
22
 10
21.472637023017871
 20
32.65865128447922
 30
0.0
 11
21.025537023017868
 21
32.88255128447922
 31
0.0
  0
LINE
  5
902
  8
22
 10
20.35393702301787
 20
31.54125128447923
 30
0.0
 11
20.80093702301787
 21
31.31745128447923
 31
0.0
  0
LINE
  5
903
  8
22
 10
20.80093702301787
 20
31.31745128447923
 30
0.0
 11
20.129337023017872
 21
29.976151284479229
 31
0.0
  0
LINE
  5
904
  8
22
 10
20.129337023017872
 20
29.976151284479229
 30
0.0
 11
19.682237023017869
 21
30.20005128447923
 31
0.0
  0
LINE
  5
905
  8
22
 10
19.010637023017871
 20
28.858851284479229
 30
0.0
 11
19.45773702301787
 21
28.634951284479229
 31
0.0
  0
LINE
  5
906
  8
22
 10
19.45773702301787
 20
28.634951284479229
 30
0.0
 11
18.786037023017869
 21
27.293751284479232
 31
0.0
  0
LINE
  5
907
  8
22
 10
18.786037023017869
 20
27.293751284479232
 30
0.0
 11
18.33893702301787
 21
27.517551284479229
 31
0.0
  0
LINE
  5
908
  8
22
 10
17.685223661654572
 20
26.1673939630953
 30
0.0
 11
18.132323661654571
 21
25.9434939630953
 31
0.0
  0
LINE
  5
909
  8
22
 10
18.114437023017871
 20
25.952451284479231
 30
0.0
 11
17.44273702301787
 21
24.611251284479231
 31
0.0
  0
LINE
  5
90A
  8
22
 10
17.44273702301787
 20
24.611251284479231
 30
0.0
 11
16.99573702301787
 21
24.835151284479231
 31
0.0
  0
LINE
  5
90B
  8
22
 10
16.324037023017869
 20
23.493851284479231
 30
0.0
 11
16.771137023017872
 21
23.27005128447923
 31
0.0
  0
LINE
  5
90C
  8
22
 10
16.771137023017872
 20
23.27005128447923
 30
0.0
 11
16.09953702301787
 21
21.92875128447923
 31
0.0
  0
LINE
  5
90D
  8
22
 10
16.09953702301787
 20
21.92875128447923
 30
0.0
 11
15.652437023017869
 21
22.15265128447923
 31
0.0
  0
LINE
  5
90E
  8
22
 10
14.98073702301787
 20
20.811451284479229
 30
0.0
 11
15.427837023017871
 21
20.587551284479229
 31
0.0
  0
LINE
  5
90F
  8
22
 10
15.427837023017871
 20
20.587551284479229
 30
0.0
 11
14.756237023017871
 21
19.246351284479228
 31
0.0
  0
LINE
  5
910
  8
22
 10
14.756237023017871
 20
19.246351284479228
 30
0.0
 11
14.30913702301787
 21
19.470251284479229
 31
0.0
  0
LINE
  5
912
  8
22
 10
64.960655270253696
 20
18.5795002268537
 30
0.0
 11
69.342055270253695
 21
16.385500226853701
 31
0.0
  0
LINE
  5
913
  8
22
 10
69.342055270253695
 20
16.385500226853701
 30
0.0
 11
69.745055270253701
 21
17.190200226853701
 31
0.0
  0
LINE
  5
914
  8
22
 10
68.404455270253692
 20
18.979900226853701
 30
0.0
 11
71.086955270253696
 21
17.636600226853702
 31
0.0
  0
LINE
  5
916
  8
22
 10
71.176455270253697
 20
17.8155002268537
 30
0.0
 11
68.494055270253696
 21
19.1587002268537
 31
0.0
  0
LINE
  5
917
  8
22
 10
69.702955270253696
 20
21.573000226853701
 30
0.0
 11
72.385455270253701
 21
20.229700226853701
 31
0.0
  0
LINE
  5
919
  8
22
 10
72.430255270253696
 20
20.319100226853699
 30
0.0
 11
69.747755270253691
 21
21.662400226853698
 31
0.0
  0
LINE
  5
91A
  8
22
 10
69.747755270253691
 20
21.662400226853698
 30
0.0
 11
69.837255270253692
 21
21.841200226853701
 31
0.0
  0
LINE
  5
91B
  8
22
 10
69.837255270253692
 20
21.841200226853701
 30
0.0
 11
72.519755270253697
 21
20.497900226853702
 31
0.0
  0
LINE
  5
91D
  8
22
 10
72.564555270253692
 20
20.587300226853699
 30
0.0
 11
69.882055270253701
 21
21.930600226853699
 31
0.0
  0
LINE
  5
91E
  8
22
 10
67.956755270253694
 20
18.085800226853699
 30
0.0
 11
68.404455270253692
 21
18.979900226853701
 31
0.0
  0
LINE
  5
91F
  8
22
 10
68.494055270253696
 20
19.1587002268537
 30
0.0
 11
69.031355270253684
 21
20.2317002268537
 31
0.0
  0
LINE
  5
920
  8
22
 10
69.210455270253689
 20
20.589400226853702
 30
0.0
 11
69.702955270253696
 21
21.573000226853701
 31
0.0
  0
LINE
  5
921
  8
22
 10
69.882055270253701
 20
21.930600226853699
 30
0.0
 11
70.374655270253697
 21
22.914200226853701
 31
0.0
  0
LINE
  5
922
  8
22
 10
70.374655270253697
 20
22.914200226853701
 30
0.0
 11
72.16295527025369
 21
22.018700226853699
 31
0.0
  0
LINE
  5
923
  8
22
 10
67.956755270253694
 20
18.085800226853699
 30
0.0
 11
69.745055270253701
 21
17.190200226853701
 31
0.0
  0
LINE
  5
924
  8
22
 10
69.031355270253684
 20
20.2317002268537
 30
0.0
 11
70.819655270253691
 21
19.336200226853698
 31
0.0
  0
LINE
  5
925
  8
22
 10
70.819655270253691
 20
19.336200226853698
 30
0.0
 11
70.998755270253696
 21
19.6939002268537
 31
0.0
  0
LINE
  5
926
  8
22
 10
70.998755270253696
 20
19.6939002268537
 30
0.0
 11
69.210455270253689
 21
20.589400226853702
 31
0.0
  0
LINE
  5
927
  8
22
 10
64.956855270253683
 20
18.5856002268537
 30
0.0
 11
65.51655527025369
 21
19.703300226853699
 31
0.0
  0
LINE
  5
928
  8
22
 10
65.51655527025369
 20
19.703300226853699
 30
0.0
 11
66.188255270253691
 21
21.0445002268537
 31
0.0
  0
LINE
  5
929
  8
22
 10
66.188255270253691
 20
21.0445002268537
 30
0.0
 11
66.859855270253689
 21
22.3857002268537
 31
0.0
  0
LINE
  5
92A
  8
22
 10
66.859855270253689
 20
22.3857002268537
 30
0.0
 11
67.531455270253701
 21
23.726900226853701
 31
0.0
  0
LINE
  5
92B
  8
22
 10
67.531455270253701
 20
23.726900226853701
 30
0.0
 11
68.203155270253689
 21
25.068200226853701
 31
0.0
  0
LINE
  5
92C
  8
22
 10
68.203155270253689
 20
25.068200226853701
 30
0.0
 11
68.874755270253701
 21
26.409400226853698
 31
0.0
  0
LINE
  5
92D
  8
22
 10
68.874755270253701
 20
26.409400226853698
 30
0.0
 11
69.546455270253688
 21
27.750600226853699
 31
0.0
  0
LINE
  5
92E
  8
22
 10
69.546455270253688
 20
27.750600226853699
 30
0.0
 11
70.2180552702537
 21
29.091900226853699
 31
0.0
  0
LINE
  5
92F
  8
22
 10
70.2180552702537
 20
29.091900226853699
 30
0.0
 11
70.889655270253684
 21
30.4331002268537
 31
0.0
  0
LINE
  5
930
  8
22
 10
70.889655270253684
 20
30.4331002268537
 30
0.0
 11
71.561355270253685
 21
31.7743002268537
 31
0.0
  0
LINE
  5
931
  8
22
 10
71.561355270253685
 20
31.7743002268537
 30
0.0
 11
72.232955270253697
 21
33.115600226853701
 31
0.0
  0
LINE
  5
932
  8
22
 10
72.232955270253697
 20
33.115600226853701
 30
0.0
 11
72.904655270253699
 21
34.456800226853687
 31
0.0
  0
LINE
  5
933
  8
22
 10
72.904655270253699
 20
34.456800226853687
 30
0.0
 11
73.464355270253691
 21
35.574500226853687
 31
0.0
  0
LINE
  5
934
  8
22
 10
73.464355270253691
 20
35.574500226853687
 30
0.0
 11
77.890355270253693
 21
33.358100226853701
 31
0.0
  0
LINE
  5
935
  8
22
 10
71.09105527025369
 20
24.3448002268537
 30
0.0
 11
73.773455270253692
 21
23.0016002268537
 31
0.0
  0
LINE
  5
937
  8
22
 10
73.863055270253696
 20
23.180400226853699
 30
0.0
 11
71.180555270253691
 21
24.523700226853698
 31
0.0
  0
LINE
  5
938
  8
22
 10
73.7775552702537
 20
29.709800226853702
 30
0.0
 11
76.46005527025369
 21
28.366500226853699
 31
0.0
  0
LINE
  5
93A
  8
22
 10
76.549555270253691
 20
28.545300226853701
 30
0.0
 11
73.86715527025369
 21
29.888600226853701
 31
0.0
  0
LINE
  5
93B
  8
22
 10
72.389555270253695
 20
26.937900226853699
 30
0.0
 11
75.071955270253696
 21
25.5946002268537
 31
0.0
  0
LINE
  5
93D
  8
22
 10
75.116755270253691
 20
25.684000226853701
 30
0.0
 11
72.434355270253675
 21
27.027300226853701
 31
0.0
  0
LINE
  5
93E
  8
22
 10
72.434355270253675
 20
27.027300226853701
 30
0.0
 11
72.523855270253691
 21
27.2061002268537
 31
0.0
  0
LINE
  5
93F
  8
22
 10
72.523855270253691
 20
27.2061002268537
 30
0.0
 11
75.206355270253695
 21
25.8629002268537
 31
0.0
  0
LINE
  5
941
  8
22
 10
75.251055270253701
 20
25.952300226853701
 30
0.0
 11
72.5686552702537
 21
27.295500226853701
 31
0.0
  0
LINE
  5
942
  8
22
 10
75.076055270253676
 20
32.302800226853698
 30
0.0
 11
77.758555270253694
 21
30.959500226853699
 31
0.0
  0
LINE
  5
944
  8
22
 10
77.803355270253689
 20
31.0489002268537
 30
0.0
 11
75.120855270253685
 21
32.392200226853703
 31
0.0
  0
LINE
  5
945
  8
22
 10
75.120855270253685
 20
32.392200226853703
 30
0.0
 11
75.210455270253689
 21
32.571100226853687
 31
0.0
  0
LINE
  5
946
  8
22
 10
75.210455270253689
 20
32.571100226853687
 30
0.0
 11
77.89285527025369
 21
31.227800226853699
 31
0.0
  0
LINE
  5
948
  8
22
 10
77.9376552702537
 20
31.3172002268537
 30
0.0
 11
75.255155270253695
 21
32.660500226853713
 31
0.0
  0
LINE
  5
949
  8
22
 10
77.890355270253693
 20
33.358100226853701
 30
0.0
 11
77.487355270253701
 21
32.5533002268537
 31
0.0
  0
LINE
  5
94A
  8
22
 10
77.487355270253701
 20
32.5533002268537
 30
0.0
 11
75.654355270253689
 21
33.471300226853707
 31
0.0
  0
LINE
  5
94B
  8
22
 10
75.654355270253689
 20
33.471300226853707
 30
0.0
 11
75.251355270253697
 21
32.666500226853707
 31
0.0
  0
LINE
  5
94C
  8
22
 10
71.087255270253692
 20
24.3509002268537
 30
0.0
 11
70.54995527025369
 21
23.277900226853699
 31
0.0
  0
LINE
  5
94D
  8
22
 10
70.54995527025369
 20
23.277900226853699
 30
0.0
 11
72.338255270253697
 21
22.382400226853701
 31
0.0
  0
LINE
  5
94E
  8
22
 10
72.338255270253697
 20
22.382400226853701
 30
0.0
 11
72.159155270253692
 21
22.0247002268537
 31
0.0
  0
LINE
  5
94F
  8
22
 10
71.180555270253691
 20
24.523700226853698
 30
0.0
 11
71.695455270253689
 21
25.5519002268537
 31
0.0
  0
LINE
  5
950
  8
22
 10
71.874655270253697
 20
25.909600226853701
 30
0.0
 11
72.389555270253695
 21
26.937900226853699
 31
0.0
  0
LINE
  5
951
  8
22
 10
71.695455270253689
 20
25.5519002268537
 30
0.0
 11
73.483855270253699
 21
24.656400226853702
 31
0.0
  0
LINE
  5
952
  8
22
 10
73.483855270253699
 20
24.656400226853702
 30
0.0
 11
73.66295527025369
 21
25.014100226853699
 31
0.0
  0
LINE
  5
953
  8
22
 10
73.66295527025369
 20
25.014100226853699
 30
0.0
 11
71.874655270253697
 21
25.909600226853701
 31
0.0
  0
LINE
  5
954
  8
22
 10
72.5686552702537
 20
27.295500226853701
 30
0.0
 11
73.016355270253698
 21
28.189700226853699
 31
0.0
  0
LINE
  5
955
  8
22
 10
73.195455270253674
 20
28.5474002268537
 30
0.0
 11
73.7775552702537
 21
29.709800226853702
 31
0.0
  0
LINE
  5
956
  8
22
 10
73.016355270253698
 20
28.189700226853699
 30
0.0
 11
74.80465527025369
 21
27.2942002268537
 31
0.0
  0
LINE
  5
957
  8
22
 10
74.80465527025369
 20
27.2942002268537
 30
0.0
 11
74.983855270253684
 21
27.651800226853702
 31
0.0
  0
LINE
  5
958
  8
22
 10
74.983855270253684
 20
27.651800226853702
 30
0.0
 11
73.195455270253674
 21
28.5474002268537
 31
0.0
  0
LINE
  5
959
  8
22
 10
73.86715527025369
 20
29.888600226853701
 30
0.0
 11
74.337255270253692
 21
30.827500226853701
 31
0.0
  0
LINE
  5
95A
  8
22
 10
74.516355270253698
 20
31.185100226853699
 30
0.0
 11
75.076055270253676
 21
32.302800226853698
 31
0.0
  0
LINE
  5
95B
  8
22
 10
74.337255270253692
 20
30.827500226853701
 30
0.0
 11
76.125555270253699
 21
29.931900226853699
 31
0.0
  0
LINE
  5
95C
  8
22
 10
76.125555270253699
 20
29.931900226853699
 30
0.0
 11
76.30465527025369
 21
30.2896002268537
 31
0.0
  0
LINE
  5
95D
  8
22
 10
76.30465527025369
 20
30.2896002268537
 30
0.0
 11
74.516355270253698
 21
31.185100226853699
 31
0.0
  0
LINE
  5
96A
  8
22
 10
65.51655527025369
 20
19.703300226853699
 30
0.0
 11
65.069555270253701
 21
19.9271002268537
 31
0.0
  0
LINE
  5
96B
  8
22
 10
65.069555270253701
 20
19.9271002268537
 30
0.0
 11
65.741155270253685
 21
21.2684002268537
 31
0.0
  0
LINE
  5
96C
  8
22
 10
65.741155270253685
 20
21.2684002268537
 30
0.0
 11
66.188255270253691
 21
21.0445002268537
 31
0.0
  0
LINE
  5
96D
  8
22
 10
66.859855270253689
 20
22.3857002268537
 30
0.0
 11
66.412755270253697
 21
22.609600226853701
 31
0.0
  0
LINE
  5
96E
  8
22
 10
66.412755270253697
 20
22.609600226853701
 30
0.0
 11
67.084455270253699
 21
23.950800226853701
 31
0.0
  0
LINE
  5
96F
  8
22
 10
67.084455270253699
 20
23.950800226853701
 30
0.0
 11
67.531455270253701
 21
23.726900226853701
 31
0.0
  0
LINE
  5
970
  8
22
 10
68.203155270253689
 20
25.068200226853701
 30
0.0
 11
67.756055270253697
 21
25.292100226853702
 31
0.0
  0
LINE
  5
971
  8
22
 10
67.756055270253697
 20
25.292100226853702
 30
0.0
 11
68.427655270253695
 21
26.633300226853699
 31
0.0
  0
LINE
  5
972
  8
22
 10
68.427655270253695
 20
26.633300226853699
 30
0.0
 11
68.874755270253701
 21
26.409400226853698
 31
0.0
  0
LINE
  5
973
  8
22
 10
69.546455270253688
 20
27.750600226853699
 30
0.0
 11
69.099355270253696
 21
27.974500226853699
 31
0.0
  0
LINE
  5
974
  8
22
 10
69.099355270253696
 20
27.974500226853699
 30
0.0
 11
69.770955270253694
 21
29.3158002268537
 31
0.0
  0
LINE
  5
975
  8
22
 10
69.770955270253694
 20
29.3158002268537
 30
0.0
 11
70.2180552702537
 21
29.091900226853699
 31
0.0
  0
LINE
  5
976
  8
22
 10
70.889655270253684
 20
30.4331002268537
 30
0.0
 11
70.442655270253695
 21
30.6570002268537
 31
0.0
  0
LINE
  5
977
  8
22
 10
70.442655270253695
 20
30.6570002268537
 30
0.0
 11
71.114255270253693
 21
31.998200226853712
 31
0.0
  0
LINE
  5
978
  8
22
 10
71.114255270253693
 20
31.998200226853712
 30
0.0
 11
71.561355270253685
 21
31.7743002268537
 31
0.0
  0
LINE
  5
979
  8
22
 10
72.232955270253697
 20
33.115600226853701
 30
0.0
 11
71.785855270253691
 21
33.339400226853712
 31
0.0
  0
LINE
  5
97A
  8
22
 10
71.785855270253691
 20
33.339400226853712
 30
0.0
 11
72.457555270253692
 21
34.680700226853702
 31
0.0
  0
LINE
  5
97B
  8
22
 10
72.457555270253692
 20
34.680700226853702
 30
0.0
 11
72.904655270253699
 21
34.456800226853687
 31
0.0
  0
LINE
  5
99A
  8
22
 10
69.326669352306368
 20
37.657438610207002
 30
0.0
 11
79.564769352306371
 21
32.530638610206992
 31
0.0
  0
LINE
  5
99B
  8
22
 10
78.98896935230637
 20
41.654138610206992
 30
0.0
 11
72.819269352306378
 21
44.743638610206993
 31
0.0
  0
LINE
  5
99C
  8
22
 10
69.192769352306371
 20
38.060038610207002
 30
0.0
 11
69.640569352306372
 21
38.954138610206989
 31
0.0
  0
LINE
  5
99D
  8
22
 10
69.640569352306372
 20
38.954138610206989
 30
0.0
 11
70.200269352306378
 21
40.071838610206989
 31
0.0
  0
LINE
  5
99E
  8
22
 10
70.200269352306378
 20
40.071838610206989
 30
0.0
 11
71.431569352306369
 21
42.530838610206992
 31
0.0
  0
LINE
  5
99F
  8
22
 10
71.431569352306369
 20
42.530838610206992
 30
0.0
 11
72.013669352306366
 21
43.69323861020699
 31
0.0
  0
LINE
  5
9A0
  8
22
 10
72.013669352306366
 20
43.69323861020699
 30
0.0
 11
72.483769352306382
 21
44.63203861020699
 31
0.0
  0
LINE
  5
9A1
  8
22
 10
75.611400000000003
 20
34.909399999999998
 30
0.0
 11
76.305400000000006
 21
36.295299999999997
 31
0.0
  0
LINE
  5
9A2
  8
22
 10
76.369569352306371
 20
36.423338610206997
 30
0.0
 11
77.085969352306364
 21
37.853938610207003
 31
0.0
  0
LINE
  5
9A3
  8
22
 10
78.205369352306377
 20
40.089338610206987
 30
0.0
 11
78.98896935230637
 21
41.654138610206992
 31
0.0
  0
LINE
  5
9A4
  8
22
 10
76.279969352306381
 20
36.244438610206991
 30
0.0
 11
80.08016935230637
 21
34.341538610207003
 31
0.0
  0
LINE
  5
9A6
  8
22
 10
80.169769352306375
 20
34.520338610206991
 30
0.0
 11
76.369569352306371
 21
36.423338610206997
 31
0.0
  0
LINE
  5
9A7
  8
22
 10
78.026269352306372
 20
39.731638610206993
 30
0.0
 11
81.871169352306396
 21
37.806338610206993
 31
0.0
  0
LINE
  5
9A9
  8
22
 10
81.915869352306359
 20
37.89573861020699
 30
0.0
 11
78.160469352306364
 21
39.776338610206992
 31
0.0
  0
LINE
  5
9AA
  8
22
 10
78.160469352306364
 20
39.776338610206992
 30
0.0
 11
78.250069352306369
 21
39.955138610206987
 31
0.0
  0
LINE
  5
9AB
  8
22
 10
78.250069352306369
 20
39.955138610206987
 30
0.0
 11
82.005469352306378
 21
38.074538610206993
 31
0.0
  0
LINE
  5
9AD
  8
22
 10
82.050269352306373
 20
38.163938610206991
 30
0.0
 11
78.205369352306377
 21
40.089338610206987
 31
0.0
  0
LINE
  5
9AE
  8
22
 10
75.585969352306378
 20
34.858538610206992
 30
0.0
 11
79.654369352306375
 21
32.821238610206997
 31
0.0
  0
LINE
  5
9B2
  8
22
 10
77.220269352306374
 20
38.122238610206992
 30
0.0
 11
81.288669352306385
 21
36.084938610206997
 31
0.0
  0
LINE
  5
9B6
  8
22
 10
81.199069352306381
 20
35.794238610207003
 30
0.0
 11
77.085969352306364
 21
37.853938610207003
 31
0.0
  0
LINE
  5
9B7
  8
22
 10
77.220269352306374
 20
38.122238610206992
 30
0.0
 11
78.026269352306372
 21
39.731638610206993
 31
0.0
  0
ARC
  5
9B8
  8
22
 10
69.461069352306382
 20
37.925738610206992
 30
0.0
 40
0.3
 50
153.40000000000001
 51
243.40000000000009
  0
ARC
  5
9B9
  8
22
 10
72.707369352306372
 20
44.520138610206992
 30
0.0
 40
0.25
 50
63.399999999999991
 51
153.40000000000001
  0
LINE
  5
9BA
  8
22
 10
69.640569352306372
 20
38.954138610206989
 30
0.0
 11
69.282869352306363
 21
39.133238610207002
 31
0.0
  0
LINE
  5
9BB
  8
22
 10
69.282869352306363
 20
39.133238610207002
 30
0.0
 11
69.84256935230637
 21
40.250938610206987
 31
0.0
  0
LINE
  5
9BC
  8
22
 10
69.84256935230637
 20
40.250938610206987
 30
0.0
 11
70.200269352306378
 21
40.071838610206989
 31
0.0
  0
LINE
  5
9BD
  8
22
 10
71.431569352306369
 20
42.530838610206992
 30
0.0
 11
71.029169352306369
 21
42.732238610206977
 31
0.0
  0
LINE
  5
9BE
  8
22
 10
71.029169352306369
 20
42.732238610206977
 30
0.0
 11
71.61126935230638
 21
43.894638610206997
 31
0.0
  0
LINE
  5
9BF
  8
22
 10
71.61126935230638
 20
43.894638610206997
 30
0.0
 11
72.013669352306366
 21
43.69323861020699
 31
0.0
  0
LINE
  5
9C1
  8
22
 10
72.567499999999995
 20
45.17819999999999
 30
0.0
 11
72.567499999999995
 21
56.628199999999993
 31
0.0
  0
LINE
  5
9C2
  8
22
 10
64.667500000000004
 20
52.028199999999998
 30
0.0
 11
64.667500000000004
 21
45.1282
 31
0.0
  0
LINE
  5
9C3
  8
22
 10
72.267499999999998
 20
44.8782
 30
0.0
 11
71.267499999999998
 21
44.8782
 31
0.0
  0
LINE
  5
9C4
  8
22
 10
71.267499999999998
 20
44.8782
 30
0.0
 11
70.017499999999998
 21
44.8782
 31
0.0
  0
LINE
  5
9C5
  8
22
 10
70.017499999999998
 20
44.8782
 30
0.0
 11
67.267499999999998
 21
44.8782
 31
0.0
  0
LINE
  5
9C6
  8
22
 10
67.267499999999998
 20
44.8782
 30
0.0
 11
65.967500000000001
 21
44.8782
 31
0.0
  0
LINE
  5
9C7
  8
22
 10
65.967500000000001
 20
44.8782
 30
0.0
 11
64.917500000000004
 21
44.8782
 31
0.0
  0
LINE
  5
9C8
  8
22
 10
72.267499999999998
 20
52.028199999999998
 30
0.0
 11
70.717500000000001
 21
52.028199999999998
 31
0.0
  0
LINE
  5
9C9
  8
22
 10
70.517499999999998
 20
52.028199999999998
 30
0.0
 11
68.917500000000004
 21
52.028199999999998
 31
0.0
  0
LINE
  5
9CA
  8
22
 10
66.417500000000004
 20
52.028199999999998
 30
0.0
 11
64.667500000000004
 21
52.028199999999998
 31
0.0
  0
LINE
  5
9CB
  8
22
 10
70.717500000000001
 20
52.028199999999998
 30
0.0
 11
70.717500000000001
 21
56.278199999999991
 31
0.0
  0
LINE
  5
9CC
  8
22
 10
70.717500000000001
 20
56.278199999999991
 30
0.0
 11
70.517499999999998
 21
56.278199999999991
 31
0.0
  0
LINE
  5
9CD
  8
22
 10
70.517499999999998
 20
56.278199999999991
 30
0.0
 11
70.517499999999998
 21
52.028199999999998
 31
0.0
  0
LINE
  5
9CE
  8
22
 10
66.817499999999995
 20
52.028199999999998
 30
0.0
 11
66.817499999999995
 21
56.328200000000002
 31
0.0
  0
LINE
  5
9CF
  8
22
 10
66.817499999999995
 20
56.328200000000002
 30
0.0
 11
66.717500000000001
 21
56.328200000000002
 31
0.0
  0
LINE
  5
9D0
  8
22
 10
66.717500000000001
 20
56.328200000000002
 30
0.0
 11
66.717500000000001
 21
52.1282
 31
0.0
  0
LINE
  5
9D1
  8
22
 10
66.717500000000001
 20
52.1282
 30
0.0
 11
66.517499999999984
 21
52.1282
 31
0.0
  0
LINE
  5
9D2
  8
22
 10
66.517499999999984
 20
52.1282
 30
0.0
 11
66.517499999999984
 21
56.328200000000002
 31
0.0
  0
LINE
  5
9D3
  8
22
 10
66.517499999999984
 20
56.328200000000002
 30
0.0
 11
66.417500000000004
 21
56.328200000000002
 31
0.0
  0
LINE
  5
9D4
  8
22
 10
66.417500000000004
 20
56.328200000000002
 30
0.0
 11
66.417500000000004
 21
52.028199999999998
 31
0.0
  0
LINE
  5
9D5
  8
22
 10
72.267499999999998
 20
52.028199999999998
 30
0.0
 11
72.267499999999998
 21
56.578200000000002
 31
0.0
  0
LINE
  5
9D9
  8
22
 10
68.617500000000007
 20
52.028199999999998
 30
0.0
 11
68.617500000000007
 21
56.578200000000002
 31
0.0
  0
LINE
  5
9DD
  8
22
 10
68.917500000000004
 20
56.628199999999993
 30
0.0
 11
68.917500000000004
 21
52.028199999999998
 31
0.0
  0
LINE
  5
9DE
  8
22
 10
68.617500000000007
 20
52.028199999999998
 30
0.0
 11
66.817499999999995
 21
52.028199999999998
 31
0.0
  0
ARC
  5
9DF
  8
22
 10
72.267499999999998
 20
45.17819999999999
 30
0.0
 40
0.3
 50
270.0
 51
0.0
  0
ARC
  5
9E0
  8
22
 10
64.917500000000004
 20
45.1282
 30
0.0
 40
0.25
 50
180.0
 51
270.0
  0
LINE
  5
9E1
  8
22
 10
71.267499999999998
 20
44.8782
 30
0.0
 11
71.267499999999998
 21
44.478200000000001
 31
0.0
  0
LINE
  5
9E2
  8
22
 10
71.267499999999998
 20
44.478200000000001
 30
0.0
 11
70.017499999999998
 21
44.478200000000001
 31
0.0
  0
LINE
  5
9E3
  8
22
 10
70.017499999999998
 20
44.478200000000001
 30
0.0
 11
70.017499999999998
 21
44.8782
 31
0.0
  0
LINE
  5
9E4
  8
22
 10
67.267499999999998
 20
44.8782
 30
0.0
 11
67.267499999999998
 21
44.428199999999997
 31
0.0
  0
LINE
  5
9E5
  8
22
 10
67.267499999999998
 20
44.428199999999997
 30
0.0
 11
65.967500000000001
 21
44.428199999999997
 31
0.0
  0
LINE
  5
9E6
  8
22
 10
65.967500000000001
 20
44.428199999999997
 30
0.0
 11
65.967500000000001
 21
44.8782
 31
0.0
  0
LINE
  5
9E8
  8
22
 10
17.890976990890628
 20
16.256253807819959
 30
0.0
 11
7.6529769908906378
 21
21.383053807819959
 31
0.0
  0
LINE
  5
9E9
  8
22
 10
8.2287769908906387
 20
12.259553807819961
 30
0.0
 11
14.398476990890639
 21
9.1700538078199578
 31
0.0
  0
LINE
  5
9EA
  8
22
 10
18.024976990890629
 20
15.85365380781996
 30
0.0
 11
17.577176990890631
 21
14.95945380781996
 31
0.0
  0
LINE
  5
9EB
  8
22
 10
17.577176990890631
 20
14.95945380781996
 30
0.0
 11
17.017476990890628
 21
13.841753807819959
 31
0.0
  0
LINE
  5
9EC
  8
22
 10
17.017476990890628
 20
13.841753807819959
 30
0.0
 11
15.78617699089064
 21
11.382853807819959
 31
0.0
  0
LINE
  5
9ED
  8
22
 10
15.78617699089064
 20
11.382853807819959
 30
0.0
 11
15.204076990890639
 21
10.220453807819959
 31
0.0
  0
LINE
  5
9EE
  8
22
 10
15.204076990890639
 20
10.220453807819959
 30
0.0
 11
14.73387699089063
 21
9.2816538078199589
 31
0.0
  0
LINE
  5
9EF
  8
22
 10
11.631776990890639
 20
19.055153807819959
 30
0.0
 11
10.93767699089064
 21
17.66915380781996
 31
0.0
  0
LINE
  5
9F0
  8
22
 10
10.848176990890639
 20
17.490353807819961
 30
0.0
 11
10.131776990890639
 21
16.059753807819959
 31
0.0
  0
LINE
  5
9F1
  8
22
 10
9.0124389411487797
 20
13.82432278600001
 30
0.0
 11
8.2288389411487781
 21
12.25952278600001
 31
0.0
  0
LINE
  5
9F2
  8
22
 10
10.93767699089064
 20
17.66915380781996
 30
0.0
 11
7.1375769908906381
 21
19.572153807819959
 31
0.0
  0
LINE
  5
9F4
  8
22
 10
7.0479769908906382
 20
19.39335380781996
 30
0.0
 11
10.848176990890639
 21
17.490353807819961
 31
0.0
  0
LINE
  5
9F5
  8
22
 10
9.1914769908906386
 20
14.18195380781996
 30
0.0
 11
5.3465769908906378
 21
16.107353807819958
 31
0.0
  0
LINE
  5
9F7
  8
22
 10
5.3017769908906383
 20
16.017953807819961
 30
0.0
 11
9.0572769908906388
 21
14.137353807819959
 31
0.0
  0
LINE
  5
9F8
  8
22
 10
9.0572769908906388
 20
14.137353807819959
 30
0.0
 11
8.9676769908906362
 21
13.95855380781996
 31
0.0
  0
LINE
  5
9F9
  8
22
 10
8.9676769908906362
 20
13.95855380781996
 30
0.0
 11
5.2122769908906381
 21
15.83905380781996
 31
0.0
  0
LINE
  5
9FB
  8
22
 10
5.1674769908906377
 20
15.749653807819961
 30
0.0
 11
9.0123769908906386
 21
13.824353807819961
 31
0.0
  0
LINE
  5
9FC
  8
22
 10
11.631776990890639
 20
19.055153807819959
 30
0.0
 11
7.5633769908906379
 21
21.092453807819961
 31
0.0
  0
LINE
  5
A00
  8
22
 10
9.997376990890638
 20
15.791453807819961
 30
0.0
 11
5.9289769908906376
 21
17.828753807819961
 31
0.0
  0
LINE
  5
A04
  8
22
 10
6.0186769908906381
 20
18.119353807819959
 30
0.0
 11
10.131776990890639
 21
16.059753807819959
 31
0.0
  0
LINE
  5
A05
  8
22
 10
9.997376990890638
 20
15.791453807819961
 30
0.0
 11
9.1914769908906386
 21
14.18195380781996
 31
0.0
  0
ARC
  5
A06
  8
22
 10
17.756676990890639
 20
15.987953807819959
 30
0.0
 40
0.3
 50
333.39999999999998
 51
63.399999999999991
  0
ARC
  5
A07
  8
22
 10
14.51037699089064
 20
9.3935538078199592
 30
0.0
 40
0.25
 50
243.40000000000009
 51
333.39999999999998
  0
LINE
  5
A08
  8
22
 10
17.577176990890631
 20
14.95945380781996
 30
0.0
 11
17.934876990890629
 21
14.78035380781996
 31
0.0
  0
LINE
  5
A09
  8
22
 10
17.934876990890629
 20
14.78035380781996
 30
0.0
 11
17.37517699089063
 21
13.662653807819961
 31
0.0
  0
LINE
  5
A0A
  8
22
 10
17.37517699089063
 20
13.662653807819961
 30
0.0
 11
17.017476990890628
 21
13.841753807819959
 31
0.0
  0
LINE
  5
A0B
  8
22
 10
15.78617699089064
 20
11.382853807819959
 30
0.0
 11
16.188476990890631
 21
11.18135380781996
 31
0.0
  0
LINE
  5
A0C
  8
22
 10
16.188476990890631
 20
11.18135380781996
 30
0.0
 11
15.606376990890629
 21
10.01895380781996
 31
0.0
  0
LINE
  5
A0D
  8
22
 10
15.606376990890629
 20
10.01895380781996
 30
0.0
 11
15.204076990890639
 21
10.220453807819959
 31
0.0
  0
LINE
  5
A11
  8
46
 10
68.617500000000007
 20
55.294400000000003
 30
0.0
 11
68.617500000000007
 21
52.703199999999988
 31
0.0
  0
LINE
  5
A12
  8
46
 10
68.617500000000007
 20
52.028199999999998
 30
0.0
 11
68.617500000000007
 21
51.8782
 31
0.0
  0
LINE
  5
A13
  8
46
 10
68.617500000000007
 20
51.203199999999988
 30
0.0
 11
68.617500000000007
 21
48.612000000000002
 31
0.0
  0
LINE
  5
A24
  8
46
 10
83.195340854713166
 20
35.130150031932132
 30
0.0
 11
80.878407721430733
 21
36.290382032825953
 31
0.0
  0
LINE
  5
A25
  8
46
 10
80.274853435784834
 20
36.592619066093661
 30
0.0
 11
80.140730261196865
 21
36.659782851264268
 31
0.0
  0
LINE
  5
A26
  8
46
 10
79.537175975550966
 20
36.96201988453199
 30
0.0
 11
77.220242842268533
 21
38.122251885425783
 31
0.0
  0
LINE
  5
12E4
  8
46
 10
76.931271764511763
 20
24.987194686895101
 30
0.0
 11
75.051671764511767
 21
25.926894686895089
 31
0.0
  0
LINE
  5
1A17
  8
46
 10
75.064193767853311
 20
22.562466064028818
 30
0.0
 11
73.184593767853301
 21
23.502166064028831
 31
0.0
  0
ENDSEC
  0
EOF
