  0
SECTION
  2
HEADER
  9
$ACADVER
  1
AC1009
  9
$FILLMODE
 70
1
  9
$EXTMIN
 10
-3.4404
 20
-2.8034
 30
0.0000
  9
$EXTMAX
 10
106.6711
 20
76.6047
 30
0.0000
  0
ENDSEC
  0
SECTION
  2
TABLES
  0
TABLE
  2
LTYPE
 70
1
  0
LTYPE
  2
CONTINUOUS
 70
64
  3
Solid line
 72
65
 73
0
 40
0
  0
ENDTAB
  0
TABLE
  2
LAYER
 70
255
  0
LAYER
  2
20
 70
64
 62
7
  6
CONTINUOUS
  0
LAYER
  2
22
 70
64
 62
253
  6
CONTINUOUS
  0
LAYER
  2
24
 70
64
 62
7
  6
CONTINUOUS
  0
ENDTAB
  0
ENDSEC
  0
SECTION
  2
BLOCKS
  0
BLOCK
  8
0
  2
RECT
 70
64
 10
0.0000
 20
0.0000
 30
0.0000
  3
RECT
  0
SOLID
  8
0
 10
-0.5000
 20
-0.5000
 30
0.0000
 11
0.5000
 21
-0.5000
 31
0.0000
 12
-0.5000
 22
0.5000
 32
0.0000
 13
0.5000
 23
0.5000
 33
0.0000
  0
ENDBLK
  8
0
  0
BLOCK
  8
0
  2
PIE
 70
64
 10
0.0000
 20
0.0000
 30
0.0000
  3
PIE
  0
POLYLINE
  8
0
 66
1
 10
0.0000
 20
0.0000
 30
0.0000
 40
0.5000
 41
0.5000
 70
0
  0
VERTEX
  8
0
 10
0.0000
 20
-0.2500
 30
0.0000
 42
1.0000
  0
VERTEX
  8
0
 10
0.0000
 20
0.2500
 30
0.0000
 42
1.0000
  0
VERTEX
  8
0
 10
0.0000
 20
-0.2500
 30
0.0000
  0
SEQEND
  8
0
  0
ENDBLK
  8
0
  0
BLOCK
  8
0
  2
OCTAGONP
 70
64
 10
0.0000
 20
0.0000
 30
0.0000
  3
OCTAGONP
  0
POLYLINE
  8
0
 66
1
 10
0.0000
 20
0.0000
 30
0.0000
 40
0.5000
 41
0.5000
 70
0
  0
VERTEX
  8
0
 10
-0.2500
 20
-0.1036
 30
0.0000
  0
VERTEX
  8
0
 10
-0.2500
 20
0.1036
 30
0.0000
  0
VERTEX
  8
0
 10
-0.1036
 20
0.2500
 30
0.0000
  0
VERTEX
  8
0
 10
0.1036
 20
0.2500
 30
0.0000
  0
VERTEX
  8
0
 10
0.2500
 20
0.1036
 30
0.0000
  0
VERTEX
  8
0
 10
0.2500
 20
-0.1036
 30
0.0000
  0
VERTEX
  8
0
 10
0.1036
 20
-0.2500
 30
0.0000
  0
VERTEX
  8
0
 10
-0.1036
 20
-0.2500
 30
0.0000
  0
VERTEX
  8
0
 10
-0.2500
 20
-0.1036
 30
0.0000
  0
VERTEX
  8
0
 10
-0.2500
 20
0.1036
 30
0.0000
  0
SEQEND
  8
0
  0
ENDBLK
  8
0
  0
BLOCK
  8
0
  2
SQUAREP
 70
64
 10
0.0000
 20
0.0000
 30
0.0000
  3
SQUAREP
  0
SOLID
  8
0
 10
-0.5000
 20
-0.5000
 30
0.0000
 11
0.5000
 21
-0.5000
 31
0.0000
 12
-0.5000
 22
0.5000
 32
0.0000
 13
0.5000
 23
0.5000
 33
0.0000
  0
ENDBLK
  8
0
  0
BLOCK
  8
0
  2
ROUNDP
 70
64
 10
0.0000
 20
0.0000
 30
0.0000
  3
ROUNDP
  0
POLYLINE
  8
0
 66
1
 10
0.0000
 20
0.0000
 30
0.0000
 40
0.5000
 41
0.5000
 70
0
  0
VERTEX
  8
0
 10
0.0000
 20
-0.2500
 30
0.0000
 42
1.0000
  0
VERTEX
  8
0
 10
0.0000
 20
0.2500
 30
0.0000
 42
1.0000
  0
VERTEX
  8
0
 10
0.0000
 20
-0.2500
 30
0.0000
  0
SEQEND
  8
0
  0
ENDBLK
  8
0
  0
BLOCK
  8
0
  2
ANNULUSP
 70
64
 10
0.0000
 20
0.0000
 30
0.0000
  3
ANNULUSP
  0
POLYLINE
  8
0
 66
1
 10
0.0000
 20
0.0000
 30
0.0000
 40
0.5000
 41
0.5000
 70
0
  0
VERTEX
  8
0
 10
0.0000
 20
-0.2500
 30
0.0000
 42
1.0000
  0
VERTEX
  8
0
 10
0.0000
 20
0.2500
 30
0.0000
 42
1.0000
  0
VERTEX
  8
0
 10
0.0000
 20
-0.2500
 30
0.0000
  0
SEQEND
  8
0
  0
ENDBLK
  8
0
  0
BLOCK
  8
0
  2
THERMALP
 70
64
 10
0.0000
 20
0.0000
 30
0.0000
  3
THERMALP
  0
POLYLINE
  8
0
 66
1
 10
0.0000
 20
0.0000
 30
0.0000
 40
0.1000
 41
0.1000
 70
0
  0
VERTEX
  8
0
 10
-0.2379
 20
0.4500
 30
0.0000
  0
VERTEX
  8
0
 10
0.2379
 20
0.4500
 30
0.0000
  0
SEQEND
  8
0
  0
POLYLINE
  8
0
 66
1
 10
0.0000
 20
0.0000
 30
0.0000
 40
0.0500
 41
0.0500
 70
0
  0
VERTEX
  8
0
 10
0.2379
 20
0.4250
 30
0.0000
 42
1.0000
  0
VERTEX
  8
0
 10
0.2379
 20
0.4750
 30
0.0000
  0
SEQEND
  8
0
  0
POLYLINE
  8
0
 66
1
 10
0.0000
 20
0.0000
 30
0.0000
 40
0.0500
 41
0.0500
 70
0
  0
VERTEX
  8
0
 10
-0.2379
 20
0.4750
 30
0.0000
 42
1.0000
  0
VERTEX
  8
0
 10
-0.2379
 20
0.4250
 30
0.0000
  0
SEQEND
  8
0
  0
POLYLINE
  8
0
 66
1
 10
0.0000
 20
0.0000
 30
0.0000
 40
0.1000
 41
0.1000
 70
0
  0
VERTEX
  8
0
 10
0.4500
 20
0.2379
 30
0.0000
  0
VERTEX
  8
0
 10
0.4500
 20
-0.2379
 30
0.0000
  0
SEQEND
  8
0
  0
POLYLINE
  8
0
 66
1
 10
0.0000
 20
0.0000
 30
0.0000
 40
0.0500
 41
0.0500
 70
0
  0
VERTEX
  8
0
 10
0.4250
 20
-0.2379
 30
0.0000
 42
1.0000
  0
VERTEX
  8
0
 10
0.4750
 20
-0.2379
 30
0.0000
  0
SEQEND
  8
0
  0
POLYLINE
  8
0
 66
1
 10
0.0000
 20
0.0000
 30
0.0000
 40
0.0500
 41
0.0500
 70
0
  0
VERTEX
  8
0
 10
0.4750
 20
0.2379
 30
0.0000
 42
1.0000
  0
VERTEX
  8
0
 10
0.4250
 20
0.2379
 30
0.0000
  0
SEQEND
  8
0
  0
POLYLINE
  8
0
 66
1
 10
0.0000
 20
0.0000
 30
0.0000
 40
0.1000
 41
0.1000
 70
0
  0
VERTEX
  8
0
 10
0.2379
 20
-0.4500
 30
0.0000
  0
VERTEX
  8
0
 10
-0.2379
 20
-0.4500
 30
0.0000
  0
SEQEND
  8
0
  0
POLYLINE
  8
0
 66
1
 10
0.0000
 20
0.0000
 30
0.0000
 40
0.0500
 41
0.0500
 70
0
  0
VERTEX
  8
0
 10
-0.2379
 20
-0.4250
 30
0.0000
 42
1.0000
  0
VERTEX
  8
0
 10
-0.2379
 20
-0.4750
 30
0.0000
  0
SEQEND
  8
0
  0
POLYLINE
  8
0
 66
1
 10
0.0000
 20
0.0000
 30
0.0000
 40
0.0500
 41
0.0500
 70
0
  0
VERTEX
  8
0
 10
0.2379
 20
-0.4750
 30
0.0000
 42
1.0000
  0
VERTEX
  8
0
 10
0.2379
 20
-0.4250
 30
0.0000
  0
SEQEND
  8
0
  0
POLYLINE
  8
0
 66
1
 10
0.0000
 20
0.0000
 30
0.0000
 40
0.1000
 41
0.1000
 70
0
  0
VERTEX
  8
0
 10
-0.4500
 20
-0.2379
 30
0.0000
  0
VERTEX
  8
0
 10
-0.4500
 20
0.2379
 30
0.0000
  0
SEQEND
  8
0
  0
POLYLINE
  8
0
 66
1
 10
0.0000
 20
0.0000
 30
0.0000
 40
0.0500
 41
0.0500
 70
0
  0
VERTEX
  8
0
 10
-0.4250
 20
0.2379
 30
0.0000
 42
1.0000
  0
VERTEX
  8
0
 10
-0.4750
 20
0.2379
 30
0.0000
  0
SEQEND
  8
0
  0
POLYLINE
  8
0
 66
1
 10
0.0000
 20
0.0000
 30
0.0000
 40
0.0500
 41
0.0500
 70
0
  0
VERTEX
  8
0
 10
-0.4750
 20
-0.2379
 30
0.0000
 42
1.0000
  0
VERTEX
  8
0
 10
-0.4250
 20
-0.2379
 30
0.0000
  0
SEQEND
  8
0
  0
ENDBLK
  8
0
  0
BLOCK
  8
0
  2
OCTAGONV
 70
64
 10
0.0000
 20
0.0000
 30
0.0000
  3
OCTAGONV
  0
POLYLINE
  8
0
 66
1
 10
0.0000
 20
0.0000
 30
0.0000
 40
0.5000
 41
0.5000
 70
0
  0
VERTEX
  8
0
 10
-0.2500
 20
-0.1036
 30
0.0000
  0
VERTEX
  8
0
 10
-0.2500
 20
0.1036
 30
0.0000
  0
VERTEX
  8
0
 10
-0.1036
 20
0.2500
 30
0.0000
  0
VERTEX
  8
0
 10
0.1036
 20
0.2500
 30
0.0000
  0
VERTEX
  8
0
 10
0.2500
 20
0.1036
 30
0.0000
  0
VERTEX
  8
0
 10
0.2500
 20
-0.1036
 30
0.0000
  0
VERTEX
  8
0
 10
0.1036
 20
-0.2500
 30
0.0000
  0
VERTEX
  8
0
 10
-0.1036
 20
-0.2500
 30
0.0000
  0
VERTEX
  8
0
 10
-0.2500
 20
-0.1036
 30
0.0000
  0
VERTEX
  8
0
 10
-0.2500
 20
0.1036
 30
0.0000
  0
SEQEND
  8
0
  0
ENDBLK
  8
0
  0
BLOCK
  8
0
  2
SQUAREV
 70
64
 10
0.0000
 20
0.0000
 30
0.0000
  3
SQUAREV
  0
SOLID
  8
0
 10
-0.5000
 20
-0.5000
 30
0.0000
 11
0.5000
 21
-0.5000
 31
0.0000
 12
-0.5000
 22
0.5000
 32
0.0000
 13
0.5000
 23
0.5000
 33
0.0000
  0
ENDBLK
  8
0
  0
BLOCK
  8
0
  2
ROUNDV
 70
64
 10
0.0000
 20
0.0000
 30
0.0000
  3
ROUNDV
  0
POLYLINE
  8
0
 66
1
 10
0.0000
 20
0.0000
 30
0.0000
 40
0.5000
 41
0.5000
 70
0
  0
VERTEX
  8
0
 10
0.0000
 20
-0.2500
 30
0.0000
 42
1.0000
  0
VERTEX
  8
0
 10
0.0000
 20
0.2500
 30
0.0000
 42
1.0000
  0
VERTEX
  8
0
 10
0.0000
 20
-0.2500
 30
0.0000
  0
SEQEND
  8
0
  0
ENDBLK
  8
0
  0
BLOCK
  8
0
  2
ANNULUSV
 70
64
 10
0.0000
 20
0.0000
 30
0.0000
  3
ANNULUSV
  0
POLYLINE
  8
0
 66
1
 10
0.0000
 20
0.0000
 30
0.0000
 40
0.5000
 41
0.5000
 70
0
  0
VERTEX
  8
0
 10
0.0000
 20
-0.2500
 30
0.0000
 42
1.0000
  0
VERTEX
  8
0
 10
0.0000
 20
0.2500
 30
0.0000
 42
1.0000
  0
VERTEX
  8
0
 10
0.0000
 20
-0.2500
 30
0.0000
  0
SEQEND
  8
0
  0
ENDBLK
  8
0
  0
BLOCK
  8
0
  2
THERMALV
 70
64
 10
0.0000
 20
0.0000
 30
0.0000
  3
THERMALV
  0
POLYLINE
  8
0
 66
1
 10
0.0000
 20
0.0000
 30
0.0000
 40
0.1000
 41
0.1000
 70
0
  0
VERTEX
  8
0
 10
-0.2379
 20
0.4500
 30
0.0000
  0
VERTEX
  8
0
 10
0.2379
 20
0.4500
 30
0.0000
  0
SEQEND
  8
0
  0
POLYLINE
  8
0
 66
1
 10
0.0000
 20
0.0000
 30
0.0000
 40
0.0500
 41
0.0500
 70
0
  0
VERTEX
  8
0
 10
0.2379
 20
0.4250
 30
0.0000
 42
1.0000
  0
VERTEX
  8
0
 10
0.2379
 20
0.4750
 30
0.0000
  0
SEQEND
  8
0
  0
POLYLINE
  8
0
 66
1
 10
0.0000
 20
0.0000
 30
0.0000
 40
0.0500
 41
0.0500
 70
0
  0
VERTEX
  8
0
 10
-0.2379
 20
0.4750
 30
0.0000
 42
1.0000
  0
VERTEX
  8
0
 10
-0.2379
 20
0.4250
 30
0.0000
  0
SEQEND
  8
0
  0
POLYLINE
  8
0
 66
1
 10
0.0000
 20
0.0000
 30
0.0000
 40
0.1000
 41
0.1000
 70
0
  0
VERTEX
  8
0
 10
0.4500
 20
0.2379
 30
0.0000
  0
VERTEX
  8
0
 10
0.4500
 20
-0.2379
 30
0.0000
  0
SEQEND
  8
0
  0
POLYLINE
  8
0
 66
1
 10
0.0000
 20
0.0000
 30
0.0000
 40
0.0500
 41
0.0500
 70
0
  0
VERTEX
  8
0
 10
0.4250
 20
-0.2379
 30
0.0000
 42
1.0000
  0
VERTEX
  8
0
 10
0.4750
 20
-0.2379
 30
0.0000
  0
SEQEND
  8
0
  0
POLYLINE
  8
0
 66
1
 10
0.0000
 20
0.0000
 30
0.0000
 40
0.0500
 41
0.0500
 70
0
  0
VERTEX
  8
0
 10
0.4750
 20
0.2379
 30
0.0000
 42
1.0000
  0
VERTEX
  8
0
 10
0.4250
 20
0.2379
 30
0.0000
  0
SEQEND
  8
0
  0
POLYLINE
  8
0
 66
1
 10
0.0000
 20
0.0000
 30
0.0000
 40
0.1000
 41
0.1000
 70
0
  0
VERTEX
  8
0
 10
0.2379
 20
-0.4500
 30
0.0000
  0
VERTEX
  8
0
 10
-0.2379
 20
-0.4500
 30
0.0000
  0
SEQEND
  8
0
  0
POLYLINE
  8
0
 66
1
 10
0.0000
 20
0.0000
 30
0.0000
 40
0.0500
 41
0.0500
 70
0
  0
VERTEX
  8
0
 10
-0.2379
 20
-0.4250
 30
0.0000
 42
1.0000
  0
VERTEX
  8
0
 10
-0.2379
 20
-0.4750
 30
0.0000
  0
SEQEND
  8
0
  0
POLYLINE
  8
0
 66
1
 10
0.0000
 20
0.0000
 30
0.0000
 40
0.0500
 41
0.0500
 70
0
  0
VERTEX
  8
0
 10
0.2379
 20
-0.4750
 30
0.0000
 42
1.0000
  0
VERTEX
  8
0
 10
0.2379
 20
-0.4250
 30
0.0000
  0
SEQEND
  8
0
  0
POLYLINE
  8
0
 66
1
 10
0.0000
 20
0.0000
 30
0.0000
 40
0.1000
 41
0.1000
 70
0
  0
VERTEX
  8
0
 10
-0.4500
 20
-0.2379
 30
0.0000
  0
VERTEX
  8
0
 10
-0.4500
 20
0.2379
 30
0.0000
  0
SEQEND
  8
0
  0
POLYLINE
  8
0
 66
1
 10
0.0000
 20
0.0000
 30
0.0000
 40
0.0500
 41
0.0500
 70
0
  0
VERTEX
  8
0
 10
-0.4250
 20
0.2379
 30
0.0000
 42
1.0000
  0
VERTEX
  8
0
 10
-0.4750
 20
0.2379
 30
0.0000
  0
SEQEND
  8
0
  0
POLYLINE
  8
0
 66
1
 10
0.0000
 20
0.0000
 30
0.0000
 40
0.0500
 41
0.0500
 70
0
  0
VERTEX
  8
0
 10
-0.4750
 20
-0.2379
 30
0.0000
 42
1.0000
  0
VERTEX
  8
0
 10
-0.4250
 20
-0.2379
 30
0.0000
  0
SEQEND
  8
0
  0
ENDBLK
  8
0
  0
ENDSEC
  0
SECTION
  2
ENTITIES
  0
LINE
  8
20
 10
42.8607
 20
0.0250
 30
0.0000
 11
60.2500
 21
0.0250
 31
0.0000
  0
LINE
  8
20
 10
60.2500
 20
0.0250
 30
0.0000
 11
68.0250
 21
15.5750
 31
0.0000
  0
LINE
  8
20
 10
45.5750
 20
54.7000
 30
0.0000
 11
43.5750
 21
53.9000
 31
0.0000
  0
LINE
  8
20
 10
43.5750
 20
53.9000
 30
0.0000
 11
26.9500
 21
53.9000
 31
0.0000
  0
LINE
  8
20
 10
26.9500
 20
53.9000
 30
0.0000
 11
19.5250
 21
39.0250
 31
0.0000
  0
LINE
  8
20
 10
19.5250
 20
39.0250
 30
0.0000
 11
17.8500
 21
37.5250
 31
0.0000
  0
LINE
  8
20
 10
9.3250
 20
20.4750
 30
0.0000
 11
11.9000
 21
19.1750
 31
0.0000
  0
LINE
  8
20
 10
80.5500
 20
41.2500
 30
0.0000
 11
80.9250
 21
41.3500
 31
0.0000
  0
LINE
  8
20
 10
80.9250
 20
41.3500
 30
0.0000
 11
87.2000
 21
53.9000
 31
0.0000
  0
LINE
  8
20
 10
87.2000
 20
53.9000
 30
0.0000
 11
72.5675
 21
53.8980
 31
0.0000
  0
LINE
  8
20
 10
64.6583
 20
51.9250
 30
0.0000
 11
64.6583
 21
54.7000
 31
0.0000
  0
LINE
  8
20
 10
6.7500
 20
12.6500
 30
0.0000
 11
6.2750
 21
12.5500
 31
0.0000
  0
LINE
  8
20
 10
6.2750
 20
12.5500
 30
0.0000
 11
0.0250
 21
0.0250
 31
0.0000
  0
LINE
  8
20
 10
72.5675
 20
51.9250
 30
0.0000
 11
64.6583
 21
51.9250
 31
0.0000
  0
LINE
  8
20
 10
64.6583
 20
54.7000
 30
0.0000
 11
45.5750
 21
54.7000
 31
0.0000
  0
LINE
  8
20
 10
17.8500
 20
37.5250
 30
0.0000
 11
9.3250
 21
20.4750
 31
0.0000
  0
LINE
  8
20
 10
72.5675
 20
53.9000
 30
0.0000
 11
72.5675
 21
51.9250
 31
0.0000
  0
LINE
  8
20
 10
80.5500
 20
41.2500
 30
0.0000
 11
79.0500
 21
42.0000
 31
0.0000
  0
LINE
  8
20
 10
69.3750
 20
16.4750
 30
0.0000
 11
77.9250
 21
33.4500
 31
0.0000
  0
LINE
  8
20
 10
79.0500
 20
42.0000
 30
0.0000
 11
75.4000
 21
34.7000
 31
0.0000
  0
LINE
  8
20
 10
75.4000
 20
34.7000
 30
0.0000
 11
77.9250
 21
33.4500
 31
0.0000
  0
LINE
  8
20
 10
69.3750
 20
16.4750
 30
0.0000
 11
68.0250
 21
15.5750
 31
0.0000
  0
LINE
  8
20
 10
11.9000
 20
19.1750
 30
0.0000
 11
8.2500
 21
11.9000
 31
0.0000
  0
LINE
  8
20
 10
6.7500
 20
12.6500
 30
0.0000
 11
8.2500
 21
11.9000
 31
0.0000
  0
LINE
  8
20
 10
14.2972
 20
0.3255
 30
0.0000
 11
14.0310
 21
0.0250
 31
0.0000
  0
LINE
  8
20
 10
14.2972
 20
0.3255
 30
0.0000
 11
14.2985
 21
2.0026
 31
0.0000
  0
LINE
  8
20
 10
14.2985
 20
2.0026
 30
0.0000
 11
22.4602
 21
1.9962
 31
0.0000
  0
LINE
  8
20
 10
41.4513
 20
-0.7789
 30
0.0000
 11
42.8607
 21
0.0250
 31
0.0000
  0
LINE
  8
20
 10
14.0310
 20
0.0250
 30
0.0000
 11
0.0250
 21
0.0250
 31
0.0000
  0
LINE
  8
20
 10
22.4449
 20
-0.7789
 30
0.0000
 11
22.4602
 21
1.9962
 31
0.0000
  0
LINE
  8
20
 10
41.4513
 20
-0.7789
 30
0.0000
 11
22.4449
 21
-0.7789
 31
0.0000
  0
CIRCLE
  8
20
 10
5.1267
 20
3.1731
 30
0.0000
 40
1.2500
  0
CIRCLE
  8
20
 10
82.0865
 20
50.7516
 30
0.0000
 40
1.2500
  0
CIRCLE
  8
20
 10
29.0506
 20
50.4841
 30
0.0000
 40
1.2500
  0
CIRCLE
  8
20
 10
58.1346
 20
3.4188
 30
0.0000
 40
1.2500
  0
CIRCLE
  8
20
 10
38.8396
 20
34.6683
 30
0.0000
 40
1.1000
  0
CIRCLE
  8
20
 10
48.3707
 20
19.2469
 30
0.0000
 40
1.1000
  0
POINT
  8
24
 10
37.3196
 20
20.9582
 30
0.0000
  0
POLYLINE
  8
22
 66
1
 10
0.0000
 20
0.0000
 30
0.0000
 40
0.1524
 41
0.1524
 70
0
  0
VERTEX
  8
22
 10
35.6854
 20
21.0458
 30
0.0000
  0
VERTEX
  8
22
 10
36.4108
 20
19.5972
 30
0.0000
  0
SEQEND
  8
0
  0
POLYLINE
  8
22
 66
1
 10
0.0000
 20
0.0000
 30
0.0000
 40
0.0762
 41
0.0762
 70
0
  0
VERTEX
  8
22
 10
36.3767
 20
19.5802
 30
0.0000
 42
1.0000
  0
VERTEX
  8
22
 10
36.4448
 20
19.6143
 30
0.0000
  0
SEQEND
  8
0
  0
POLYLINE
  8
22
 66
1
 10
0.0000
 20
0.0000
 30
0.0000
 40
0.0762
 41
0.0762
 70
0
  0
VERTEX
  8
22
 10
35.7195
 20
21.0628
 30
0.0000
 42
1.0000
  0
VERTEX
  8
22
 10
35.6513
 20
21.0287
 30
0.0000
  0
SEQEND
  8
0
  0
POLYLINE
  8
22
 66
1
 10
0.0000
 20
0.0000
 30
0.0000
 40
0.1524
 41
0.1524
 70
0
  0
VERTEX
  8
22
 10
38.9537
 20
20.8707
 30
0.0000
  0
VERTEX
  8
22
 10
38.2284
 20
22.3192
 30
0.0000
  0
SEQEND
  8
0
  0
POLYLINE
  8
22
 66
1
 10
0.0000
 20
0.0000
 30
0.0000
 40
0.0762
 41
0.0762
 70
0
  0
VERTEX
  8
22
 10
38.2624
 20
22.3362
 30
0.0000
 42
1.0000
  0
VERTEX
  8
22
 10
38.1943
 20
22.3021
 30
0.0000
  0
SEQEND
  8
0
  0
POLYLINE
  8
22
 66
1
 10
0.0000
 20
0.0000
 30
0.0000
 40
0.0762
 41
0.0762
 70
0
  0
VERTEX
  8
22
 10
38.9197
 20
20.8536
 30
0.0000
 42
1.0000
  0
VERTEX
  8
22
 10
38.9878
 20
20.8877
 30
0.0000
  0
SEQEND
  8
0
  0
POLYLINE
  8
22
 66
1
 10
0.0000
 20
0.0000
 30
0.0000
 40
0.1524
 41
0.1524
 70
0
  0
VERTEX
  8
22
 10
37.4236
 20
21.9162
 30
0.0000
  0
VERTEX
  8
22
 10
36.4901
 20
21.4487
 30
0.0000
  0
SEQEND
  8
0
  0
POLYLINE
  8
22
 66
1
 10
0.0000
 20
0.0000
 30
0.0000
 40
0.0762
 41
0.0762
 70
0
  0
VERTEX
  8
22
 10
36.4731
 20
21.4828
 30
0.0000
 42
1.0000
  0
VERTEX
  8
22
 10
36.5072
 20
21.4147
 30
0.0000
  0
SEQEND
  8
0
  0
POLYLINE
  8
22
 66
1
 10
0.0000
 20
0.0000
 30
0.0000
 40
0.0762
 41
0.0762
 70
0
  0
VERTEX
  8
22
 10
37.4407
 20
21.8821
 30
0.0000
 42
1.0000
  0
VERTEX
  8
22
 10
37.4066
 20
21.9503
 30
0.0000
  0
SEQEND
  8
0
  0
POLYLINE
  8
22
 66
1
 10
0.0000
 20
0.0000
 30
0.0000
 40
0.1524
 41
0.1524
 70
0
  0
VERTEX
  8
22
 10
38.0650
 20
20.4256
 30
0.0000
  0
VERTEX
  8
22
 10
38.1490
 20
20.4677
 30
0.0000
  0
SEQEND
  8
0
  0
POLYLINE
  8
22
 66
1
 10
0.0000
 20
0.0000
 30
0.0000
 40
0.0762
 41
0.0762
 70
0
  0
VERTEX
  8
22
 10
38.1661
 20
20.4336
 30
0.0000
 42
1.0000
  0
VERTEX
  8
22
 10
38.1320
 20
20.5017
 30
0.0000
  0
SEQEND
  8
0
  0
POLYLINE
  8
22
 66
1
 10
0.0000
 20
0.0000
 30
0.0000
 40
0.0762
 41
0.0762
 70
0
  0
VERTEX
  8
22
 10
38.0479
 20
20.4596
 30
0.0000
 42
1.0000
  0
VERTEX
  8
22
 10
38.0820
 20
20.3915
 30
0.0000
  0
SEQEND
  8
0
  0
POLYLINE
  8
22
 66
1
 10
0.0000
 20
0.0000
 30
0.0000
 40
0.1524
 41
0.1524
 70
0
  0
VERTEX
  8
22
 10
37.2155
 20
20.0002
 30
0.0000
  0
VERTEX
  8
22
 10
37.2996
 20
20.0423
 30
0.0000
  0
SEQEND
  8
0
  0
POLYLINE
  8
22
 66
1
 10
0.0000
 20
0.0000
 30
0.0000
 40
0.0762
 41
0.0762
 70
0
  0
VERTEX
  8
22
 10
37.3166
 20
20.0082
 30
0.0000
 42
1.0000
  0
VERTEX
  8
22
 10
37.2825
 20
20.0764
 30
0.0000
  0
SEQEND
  8
0
  0
POLYLINE
  8
22
 66
1
 10
0.0000
 20
0.0000
 30
0.0000
 40
0.0762
 41
0.0762
 70
0
  0
VERTEX
  8
22
 10
37.1985
 20
20.0343
 30
0.0000
 42
1.0000
  0
VERTEX
  8
22
 10
37.2326
 20
19.9661
 30
0.0000
  0
SEQEND
  8
0
  0
POLYLINE
  8
22
 66
1
 10
0.0000
 20
0.0000
 30
0.0000
 40
0.1524
 41
0.1524
 70
0
  0
VERTEX
  8
22
 10
38.8697
 20
20.8286
 30
0.0000
  0
VERTEX
  8
22
 10
38.9537
 20
20.8707
 30
0.0000
  0
SEQEND
  8
0
  0
POLYLINE
  8
22
 66
1
 10
0.0000
 20
0.0000
 30
0.0000
 40
0.0762
 41
0.0762
 70
0
  0
VERTEX
  8
22
 10
38.9708
 20
20.8366
 30
0.0000
 42
1.0000
  0
VERTEX
  8
22
 10
38.9367
 20
20.9047
 30
0.0000
  0
SEQEND
  8
0
  0
POLYLINE
  8
22
 66
1
 10
0.0000
 20
0.0000
 30
0.0000
 40
0.0762
 41
0.0762
 70
0
  0
VERTEX
  8
22
 10
38.8526
 20
20.8626
 30
0.0000
 42
1.0000
  0
VERTEX
  8
22
 10
38.8868
 20
20.7945
 30
0.0000
  0
SEQEND
  8
0
  0
POLYLINE
  8
22
 66
1
 10
0.0000
 20
0.0000
 30
0.0000
 40
0.1524
 41
0.1524
 70
0
  0
VERTEX
  8
22
 10
36.4108
 20
19.5972
 30
0.0000
  0
VERTEX
  8
22
 10
36.4948
 20
19.6393
 30
0.0000
  0
SEQEND
  8
0
  0
POLYLINE
  8
22
 66
1
 10
0.0000
 20
0.0000
 30
0.0000
 40
0.0762
 41
0.0762
 70
0
  0
VERTEX
  8
22
 10
36.5119
 20
19.6052
 30
0.0000
 42
1.0000
  0
VERTEX
  8
22
 10
36.4778
 20
19.6734
 30
0.0000
  0
SEQEND
  8
0
  0
POLYLINE
  8
22
 66
1
 10
0.0000
 20
0.0000
 30
0.0000
 40
0.0762
 41
0.0762
 70
0
  0
VERTEX
  8
22
 10
36.3937
 20
19.6313
 30
0.0000
 42
1.0000
  0
VERTEX
  8
22
 10
36.4278
 20
19.5632
 30
0.0000
  0
SEQEND
  8
0
  0
POLYLINE
  8
22
 66
1
 10
0.0000
 20
0.0000
 30
0.0000
 40
0.1524
 41
0.1524
 70
0
  0
VERTEX
  8
22
 10
35.7695
 20
21.0878
 30
0.0000
  0
VERTEX
  8
22
 10
35.6854
 20
21.0458
 30
0.0000
  0
SEQEND
  8
0
  0
POLYLINE
  8
22
 66
1
 10
0.0000
 20
0.0000
 30
0.0000
 40
0.0762
 41
0.0762
 70
0
  0
VERTEX
  8
22
 10
35.6683
 20
21.0798
 30
0.0000
 42
1.0000
  0
VERTEX
  8
22
 10
35.7025
 20
21.0117
 30
0.0000
  0
SEQEND
  8
0
  0
POLYLINE
  8
22
 66
1
 10
0.0000
 20
0.0000
 30
0.0000
 40
0.0762
 41
0.0762
 70
0
  0
VERTEX
  8
22
 10
35.7865
 20
21.0538
 30
0.0000
 42
1.0000
  0
VERTEX
  8
22
 10
35.7524
 20
21.1219
 30
0.0000
  0
SEQEND
  8
0
  0
POLYLINE
  8
22
 66
1
 10
0.0000
 20
0.0000
 30
0.0000
 40
0.1524
 41
0.1524
 70
0
  0
VERTEX
  8
22
 10
38.2284
 20
22.3192
 30
0.0000
  0
VERTEX
  8
22
 10
38.1443
 20
22.2771
 30
0.0000
  0
SEQEND
  8
0
  0
POLYLINE
  8
22
 66
1
 10
0.0000
 20
0.0000
 30
0.0000
 40
0.0762
 41
0.0762
 70
0
  0
VERTEX
  8
22
 10
38.1273
 20
22.3112
 30
0.0000
 42
1.0000
  0
VERTEX
  8
22
 10
38.1614
 20
22.2430
 30
0.0000
  0
SEQEND
  8
0
  0
POLYLINE
  8
22
 66
1
 10
0.0000
 20
0.0000
 30
0.0000
 40
0.0762
 41
0.0762
 70
0
  0
VERTEX
  8
22
 10
38.2454
 20
22.2851
 30
0.0000
 42
1.0000
  0
VERTEX
  8
22
 10
38.2113
 20
22.3532
 30
0.0000
  0
SEQEND
  8
0
  0
POINT
  8
24
 10
51.2028
 20
14.3046
 30
0.0000
  0
POLYLINE
  8
22
 66
1
 10
0.0000
 20
0.0000
 30
0.0000
 40
0.1524
 41
0.1524
 70
0
  0
VERTEX
  8
22
 10
54.1322
 20
12.2127
 30
0.0000
  0
VERTEX
  8
22
 10
52.0655
 20
13.2476
 30
0.0000
  0
SEQEND
  8
0
  0
POLYLINE
  8
22
 66
1
 10
0.0000
 20
0.0000
 30
0.0000
 40
0.0762
 41
0.0762
 70
0
  0
VERTEX
  8
22
 10
52.0825
 20
13.2817
 30
0.0000
 42
1.0000
  0
VERTEX
  8
22
 10
52.0484
 20
13.2136
 30
0.0000
  0
SEQEND
  8
0
  0
POLYLINE
  8
22
 66
1
 10
0.0000
 20
0.0000
 30
0.0000
 40
0.0762
 41
0.0762
 70
0
  0
VERTEX
  8
22
 10
54.1152
 20
12.1786
 30
0.0000
 42
1.0000
  0
VERTEX
  8
22
 10
54.1493
 20
12.2468
 30
0.0000
  0
SEQEND
  8
0
  0
POLYLINE
  8
22
 66
1
 10
0.0000
 20
0.0000
 30
0.0000
 40
0.1524
 41
0.1524
 70
0
  0
VERTEX
  8
22
 10
56.5465
 20
22.1960
 30
0.0000
  0
VERTEX
  8
22
 10
57.2959
 20
21.8207
 30
0.0000
  0
SEQEND
  8
0
  0
POLYLINE
  8
22
 66
1
 10
0.0000
 20
0.0000
 30
0.0000
 40
0.0762
 41
0.0762
 70
0
  0
VERTEX
  8
22
 10
57.2789
 20
21.7866
 30
0.0000
 42
1.0000
  0
VERTEX
  8
22
 10
57.3130
 20
21.8547
 30
0.0000
  0
SEQEND
  8
0
  0
POLYLINE
  8
22
 66
1
 10
0.0000
 20
0.0000
 30
0.0000
 40
0.0762
 41
0.0762
 70
0
  0
VERTEX
  8
22
 10
56.5635
 20
22.2300
 30
0.0000
 42
1.0000
  0
VERTEX
  8
22
 10
56.5294
 20
22.1619
 30
0.0000
  0
SEQEND
  8
0
  0
POLYLINE
  8
22
 66
1
 10
0.0000
 20
0.0000
 30
0.0000
 40
0.1524
 41
0.1524
 70
0
  0
VERTEX
  8
22
 10
57.2959
 20
21.8207
 30
0.0000
  0
VERTEX
  8
22
 10
57.8410
 20
21.5477
 30
0.0000
  0
SEQEND
  8
0
  0
POLYLINE
  8
22
 66
1
 10
0.0000
 20
0.0000
 30
0.0000
 40
0.0762
 41
0.0762
 70
0
  0
VERTEX
  8
22
 10
57.8240
 20
21.5136
 30
0.0000
 42
1.0000
  0
VERTEX
  8
22
 10
57.8581
 20
21.5818
 30
0.0000
  0
SEQEND
  8
0
  0
POLYLINE
  8
22
 66
1
 10
0.0000
 20
0.0000
 30
0.0000
 40
0.0762
 41
0.0762
 70
0
  0
VERTEX
  8
22
 10
57.3130
 20
21.8547
 30
0.0000
 42
1.0000
  0
VERTEX
  8
22
 10
57.2789
 20
21.7866
 30
0.0000
  0
SEQEND
  8
0
  0
POLYLINE
  8
22
 66
1
 10
0.0000
 20
0.0000
 30
0.0000
 40
0.1524
 41
0.1524
 70
0
  0
VERTEX
  8
22
 10
57.8410
 20
21.5477
 30
0.0000
  0
VERTEX
  8
22
 10
58.6132
 20
21.1610
 30
0.0000
  0
SEQEND
  8
0
  0
POLYLINE
  8
22
 66
1
 10
0.0000
 20
0.0000
 30
0.0000
 40
0.0762
 41
0.0762
 70
0
  0
VERTEX
  8
22
 10
58.5962
 20
21.1270
 30
0.0000
 42
1.0000
  0
VERTEX
  8
22
 10
58.6303
 20
21.1951
 30
0.0000
  0
SEQEND
  8
0
  0
POLYLINE
  8
22
 66
1
 10
0.0000
 20
0.0000
 30
0.0000
 40
0.0762
 41
0.0762
 70
0
  0
VERTEX
  8
22
 10
57.8581
 20
21.5818
 30
0.0000
 42
1.0000
  0
VERTEX
  8
22
 10
57.8240
 20
21.5136
 30
0.0000
  0
SEQEND
  8
0
  0
ARC
  8
22
 10
57.5685
 20
21.6842
 30
0.0000
 40
0.3048
 50
153.4001
 51
333.4001
  0
POLYLINE
  8
22
 66
1
 10
0.0000
 20
0.0000
 30
0.0000
 40
0.0762
 41
0.0762
 70
0
  0
VERTEX
  8
22
 10
60.6204
 20
21.1700
 30
0.0000
  0
VERTEX
  8
22
 10
59.5515
 20
20.8144
 30
0.0000
  0
SEQEND
  8
0
  0
POLYLINE
  8
22
 66
1
 10
0.0000
 20
0.0000
 30
0.0000
 40
0.0381
 41
0.0381
 70
0
  0
VERTEX
  8
22
 10
59.5455
 20
20.8325
 30
0.0000
 42
1.0000
  0
VERTEX
  8
22
 10
59.5575
 20
20.7964
 30
0.0000
  0
SEQEND
  8
0
  0
POLYLINE
  8
22
 66
1
 10
0.0000
 20
0.0000
 30
0.0000
 40
0.0381
 41
0.0381
 70
0
  0
VERTEX
  8
22
 10
60.6264
 20
21.1519
 30
0.0000
 42
1.0000
  0
VERTEX
  8
22
 10
60.6144
 20
21.1881
 30
0.0000
  0
SEQEND
  8
0
  0
POLYLINE
  8
22
 66
1
 10
0.0000
 20
0.0000
 30
0.0000
 40
0.0762
 41
0.0762
 70
0
  0
VERTEX
  8
22
 10
60.2637
 20
20.4578
 30
0.0000
  0
VERTEX
  8
22
 10
59.9082
 20
21.5267
 30
0.0000
  0
SEQEND
  8
0
  0
POLYLINE
  8
22
 66
1
 10
0.0000
 20
0.0000
 30
0.0000
 40
0.0381
 41
0.0381
 70
0
  0
VERTEX
  8
22
 10
59.9262
 20
21.5327
 30
0.0000
 42
1.0000
  0
VERTEX
  8
22
 10
59.8901
 20
21.5207
 30
0.0000
  0
SEQEND
  8
0
  0
POLYLINE
  8
22
 66
1
 10
0.0000
 20
0.0000
 30
0.0000
 40
0.0381
 41
0.0381
 70
0
  0
VERTEX
  8
22
 10
60.2457
 20
20.4518
 30
0.0000
 42
1.0000
  0
VERTEX
  8
22
 10
60.2818
 20
20.4638
 30
0.0000
  0
SEQEND
  8
0
  0
POLYLINE
  8
22
 66
1
 10
0.0000
 20
0.0000
 30
0.0000
 40
0.0762
 41
0.0762
 70
0
  0
VERTEX
  8
22
 10
60.4421
 20
20.8139
 30
0.0000
  0
VERTEX
  8
22
 10
59.7298
 20
21.1706
 30
0.0000
  0
SEQEND
  8
0
  0
POLYLINE
  8
22
 66
1
 10
0.0000
 20
0.0000
 30
0.0000
 40
0.0381
 41
0.0381
 70
0
  0
VERTEX
  8
22
 10
59.7384
 20
21.1876
 30
0.0000
 42
1.0000
  0
VERTEX
  8
22
 10
59.7213
 20
21.1535
 30
0.0000
  0
SEQEND
  8
0
  0
POLYLINE
  8
22
 66
1
 10
0.0000
 20
0.0000
 30
0.0000
 40
0.0381
 41
0.0381
 70
0
  0
VERTEX
  8
22
 10
60.4335
 20
20.7969
 30
0.0000
 42
1.0000
  0
VERTEX
  8
22
 10
60.4506
 20
20.8309
 30
0.0000
  0
SEQEND
  8
0
  0
POLYLINE
  8
22
 66
1
 10
0.0000
 20
0.0000
 30
0.0000
 40
0.0762
 41
0.0762
 70
0
  0
VERTEX
  8
22
 10
59.9076
 20
20.6361
 30
0.0000
  0
VERTEX
  8
22
 10
60.2643
 20
21.3484
 30
0.0000
  0
SEQEND
  8
0
  0
POLYLINE
  8
22
 66
1
 10
0.0000
 20
0.0000
 30
0.0000
 40
0.0381
 41
0.0381
 70
0
  0
VERTEX
  8
22
 10
60.2813
 20
21.3398
 30
0.0000
 42
1.0000
  0
VERTEX
  8
22
 10
60.2472
 20
21.3569
 30
0.0000
  0
SEQEND
  8
0
  0
POLYLINE
  8
22
 66
1
 10
0.0000
 20
0.0000
 30
0.0000
 40
0.0381
 41
0.0381
 70
0
  0
VERTEX
  8
22
 10
59.8906
 20
20.6446
 30
0.0000
 42
1.0000
  0
VERTEX
  8
22
 10
59.9247
 20
20.6276
 30
0.0000
  0
SEQEND
  8
0
  0
POINT
  8
24
 10
54.2413
 20
34.0996
 30
0.0000
  0
POINT
  8
24
 10
48.7009
 20
38.7541
 30
0.0000
  0
POINT
  8
24
 10
42.4966
 20
22.2411
 30
0.0000
  0
POINT
  8
24
 10
64.6552
 20
49.8013
 30
0.0000
  0
LINE
  8
22
 10
64.6589
 20
49.8075
 30
0.0000
 11
64.6589
 21
54.7075
 31
0.0000
  0
LINE
  8
22
 10
64.6589
 20
54.7075
 30
0.0000
 11
63.7589
 21
54.7075
 31
0.0000
  0
LINE
  8
22
 10
62.7589
 20
52.7075
 30
0.0000
 11
62.7589
 21
55.7075
 31
0.0000
  0
LINE
  8
22
 10
62.7589
 20
55.7075
 30
0.0000
 11
62.5589
 21
55.7075
 31
0.0000
  0
LINE
  8
22
 10
62.5589
 20
55.7075
 30
0.0000
 11
62.5589
 21
52.7075
 31
0.0000
  0
LINE
  8
22
 10
59.8589
 20
52.7075
 30
0.0000
 11
59.8589
 21
55.7075
 31
0.0000
  0
LINE
  8
22
 10
59.8589
 20
55.7075
 30
0.0000
 11
59.7589
 21
55.7075
 31
0.0000
  0
LINE
  8
22
 10
59.7589
 20
55.7075
 30
0.0000
 11
59.7589
 21
52.7075
 31
0.0000
  0
LINE
  8
22
 10
59.7589
 20
52.7075
 30
0.0000
 11
59.5589
 21
52.7075
 31
0.0000
  0
LINE
  8
22
 10
59.5589
 20
52.7075
 30
0.0000
 11
59.5589
 21
55.7075
 31
0.0000
  0
LINE
  8
22
 10
59.5589
 20
55.7075
 30
0.0000
 11
59.4589
 21
55.7075
 31
0.0000
  0
LINE
  8
22
 10
59.4589
 20
55.7075
 30
0.0000
 11
59.4589
 21
52.7075
 31
0.0000
  0
LINE
  8
22
 10
63.7589
 20
52.7075
 30
0.0000
 11
62.7589
 21
52.7075
 31
0.0000
  0
LINE
  8
22
 10
62.5589
 20
52.7075
 30
0.0000
 11
61.3589
 21
52.7075
 31
0.0000
  0
LINE
  8
22
 10
60.9589
 20
52.7075
 30
0.0000
 11
59.8589
 21
52.7075
 31
0.0000
  0
LINE
  8
22
 10
59.4589
 20
52.7075
 30
0.0000
 11
58.3589
 21
52.7075
 31
0.0000
  0
LINE
  8
22
 10
58.3589
 20
52.7075
 30
0.0000
 11
58.3589
 21
54.7075
 31
0.0000
  0
LINE
  8
22
 10
63.7589
 20
52.7075
 30
0.0000
 11
63.7589
 21
54.7075
 31
0.0000
  0
LINE
  8
22
 10
61.3589
 20
52.7075
 30
0.0000
 11
61.3589
 21
54.7075
 31
0.0000
  0
LINE
  8
22
 10
61.3589
 20
54.7075
 30
0.0000
 11
60.9589
 21
54.7075
 31
0.0000
  0
LINE
  8
22
 10
60.9589
 20
54.7075
 30
0.0000
 11
60.9589
 21
52.7075
 31
0.0000
  0
LINE
  8
22
 10
64.6552
 20
49.8013
 30
0.0000
 11
63.4052
 21
49.8013
 31
0.0000
  0
LINE
  8
22
 10
63.4052
 20
49.8013
 30
0.0000
 11
61.9052
 21
49.8013
 31
0.0000
  0
LINE
  8
22
 10
61.9052
 20
49.8013
 30
0.0000
 11
60.4052
 21
49.8013
 31
0.0000
  0
LINE
  8
22
 10
60.4052
 20
49.8013
 30
0.0000
 11
58.9052
 21
49.8013
 31
0.0000
  0
LINE
  8
22
 10
58.9052
 20
49.8013
 30
0.0000
 11
57.4052
 21
49.8013
 31
0.0000
  0
LINE
  8
22
 10
57.4052
 20
49.8013
 30
0.0000
 11
55.9052
 21
49.8013
 31
0.0000
  0
LINE
  8
22
 10
55.9052
 20
49.8013
 30
0.0000
 11
54.4052
 21
49.8013
 31
0.0000
  0
LINE
  8
22
 10
54.4052
 20
49.8013
 30
0.0000
 11
52.9052
 21
49.8013
 31
0.0000
  0
LINE
  8
22
 10
52.9052
 20
49.8013
 30
0.0000
 11
51.4052
 21
49.8013
 31
0.0000
  0
LINE
  8
22
 10
51.4052
 20
49.8013
 30
0.0000
 11
49.9052
 21
49.8013
 31
0.0000
  0
LINE
  8
22
 10
49.9052
 20
49.8013
 30
0.0000
 11
48.4052
 21
49.8013
 31
0.0000
  0
LINE
  8
22
 10
48.4052
 20
49.8013
 30
0.0000
 11
46.9052
 21
49.8013
 31
0.0000
  0
LINE
  8
22
 10
46.9052
 20
49.8013
 30
0.0000
 11
45.6552
 21
49.8013
 31
0.0000
  0
LINE
  8
22
 10
45.6552
 20
49.8013
 30
0.0000
 11
45.6552
 21
54.7013
 31
0.0000
  0
LINE
  8
22
 10
56.7589
 20
52.7075
 30
0.0000
 11
56.7589
 21
55.7075
 31
0.0000
  0
LINE
  8
22
 10
56.7589
 20
55.7075
 30
0.0000
 11
56.5589
 21
55.7075
 31
0.0000
  0
LINE
  8
22
 10
56.5589
 20
55.7075
 30
0.0000
 11
56.5589
 21
52.7075
 31
0.0000
  0
LINE
  8
22
 10
50.7589
 20
52.7075
 30
0.0000
 11
50.7589
 21
55.7075
 31
0.0000
  0
LINE
  8
22
 10
50.7589
 20
55.7075
 30
0.0000
 11
50.5589
 21
55.7075
 31
0.0000
  0
LINE
  8
22
 10
50.5589
 20
55.7075
 30
0.0000
 11
50.5589
 21
52.7075
 31
0.0000
  0
LINE
  8
22
 10
53.8589
 20
52.7075
 30
0.0000
 11
53.8589
 21
55.7075
 31
0.0000
  0
LINE
  8
22
 10
53.8589
 20
55.7075
 30
0.0000
 11
53.7589
 21
55.7075
 31
0.0000
  0
LINE
  8
22
 10
53.7589
 20
55.7075
 30
0.0000
 11
53.7589
 21
52.7075
 31
0.0000
  0
LINE
  8
22
 10
53.7589
 20
52.7075
 30
0.0000
 11
53.5589
 21
52.7075
 31
0.0000
  0
LINE
  8
22
 10
53.5589
 20
52.7075
 30
0.0000
 11
53.5589
 21
55.7075
 31
0.0000
  0
LINE
  8
22
 10
53.5589
 20
55.7075
 30
0.0000
 11
53.4589
 21
55.7075
 31
0.0000
  0
LINE
  8
22
 10
53.4589
 20
55.7075
 30
0.0000
 11
53.4589
 21
52.7075
 31
0.0000
  0
LINE
  8
22
 10
47.8589
 20
52.7075
 30
0.0000
 11
47.8589
 21
55.7075
 31
0.0000
  0
LINE
  8
22
 10
47.8589
 20
55.7075
 30
0.0000
 11
47.7589
 21
55.7075
 31
0.0000
  0
LINE
  8
22
 10
47.7589
 20
55.7075
 30
0.0000
 11
47.7589
 21
52.7075
 31
0.0000
  0
LINE
  8
22
 10
47.7589
 20
52.7075
 30
0.0000
 11
47.5589
 21
52.7075
 31
0.0000
  0
LINE
  8
22
 10
47.5589
 20
52.7075
 30
0.0000
 11
47.5589
 21
55.7075
 31
0.0000
  0
LINE
  8
22
 10
47.5589
 20
55.7075
 30
0.0000
 11
47.4589
 21
55.7075
 31
0.0000
  0
LINE
  8
22
 10
47.4589
 20
55.7075
 30
0.0000
 11
47.4589
 21
52.7075
 31
0.0000
  0
LINE
  8
22
 10
45.6552
 20
54.7013
 30
0.0000
 11
46.5552
 21
54.7013
 31
0.0000
  0
LINE
  8
22
 10
46.5552
 20
54.7013
 30
0.0000
 11
46.5552
 21
52.7013
 31
0.0000
  0
LINE
  8
22
 10
46.5552
 20
52.7013
 30
0.0000
 11
47.4552
 21
52.7013
 31
0.0000
  0
LINE
  8
22
 10
56.7552
 20
52.7013
 30
0.0000
 11
57.9552
 21
52.7013
 31
0.0000
  0
LINE
  8
22
 10
57.9552
 20
52.7013
 30
0.0000
 11
57.9552
 21
54.7013
 31
0.0000
  0
LINE
  8
22
 10
57.9552
 20
54.7013
 30
0.0000
 11
58.3552
 21
54.7013
 31
0.0000
  0
LINE
  8
22
 10
56.5589
 20
52.7075
 30
0.0000
 11
55.4089
 21
52.7075
 31
0.0000
  0
LINE
  8
22
 10
55.0089
 20
52.7075
 30
0.0000
 11
53.8589
 21
52.7075
 31
0.0000
  0
LINE
  8
22
 10
55.4089
 20
52.7075
 30
0.0000
 11
55.4089
 21
54.7075
 31
0.0000
  0
LINE
  8
22
 10
55.4089
 20
54.7075
 30
0.0000
 11
55.0089
 21
54.7075
 31
0.0000
  0
LINE
  8
22
 10
55.0089
 20
54.7075
 30
0.0000
 11
55.0089
 21
52.7075
 31
0.0000
  0
LINE
  8
22
 10
53.4589
 20
52.7075
 30
0.0000
 11
52.4589
 21
52.7075
 31
0.0000
  0
LINE
  8
22
 10
52.0589
 20
52.7075
 30
0.0000
 11
50.7589
 21
52.7075
 31
0.0000
  0
LINE
  8
22
 10
52.4589
 20
52.7075
 30
0.0000
 11
52.4589
 21
54.7075
 31
0.0000
  0
LINE
  8
22
 10
52.4589
 20
54.7075
 30
0.0000
 11
52.0589
 21
54.7075
 31
0.0000
  0
LINE
  8
22
 10
52.0589
 20
54.7075
 30
0.0000
 11
52.0589
 21
52.7075
 31
0.0000
  0
LINE
  8
22
 10
50.5589
 20
52.7075
 30
0.0000
 11
49.5089
 21
52.7075
 31
0.0000
  0
LINE
  8
22
 10
49.1089
 20
52.7075
 30
0.0000
 11
47.8589
 21
52.7075
 31
0.0000
  0
LINE
  8
22
 10
49.5089
 20
52.7075
 30
0.0000
 11
49.5089
 21
54.7075
 31
0.0000
  0
LINE
  8
22
 10
49.5089
 20
54.7075
 30
0.0000
 11
49.1089
 21
54.7075
 31
0.0000
  0
LINE
  8
22
 10
49.1089
 20
54.7075
 30
0.0000
 11
49.1089
 21
52.7075
 31
0.0000
  0
LINE
  8
22
 10
59.7552
 20
55.4013
 30
0.0000
 11
59.7052
 21
55.2013
 31
0.0000
  0
ARC
  8
22
 10
59.9177
 20
55.1482
 30
0.0000
 40
0.2190
 50
165.9638
 51
222.1087
  0
LINE
  8
22
 10
59.5552
 20
55.4013
 30
0.0000
 11
59.6052
 21
55.2013
 31
0.0000
  0
ARC
  8
22
 10
59.3927
 20
55.1482
 30
0.0000
 40
0.2190
 50
317.8913
 51
14.0362
  0
LINE
  8
22
 10
53.5552
 20
55.4013
 30
0.0000
 11
53.6052
 21
55.2013
 31
0.0000
  0
ARC
  8
22
 10
53.3927
 20
55.1482
 30
0.0000
 40
0.2190
 50
317.8913
 51
14.0362
  0
LINE
  8
22
 10
53.7552
 20
55.4013
 30
0.0000
 11
53.7052
 21
55.2013
 31
0.0000
  0
ARC
  8
22
 10
53.9177
 20
55.1482
 30
0.0000
 40
0.2190
 50
165.9638
 51
222.1087
  0
LINE
  8
22
 10
47.7552
 20
55.4513
 30
0.0000
 11
47.7052
 21
55.2513
 31
0.0000
  0
ARC
  8
22
 10
47.9177
 20
55.1982
 30
0.0000
 40
0.2190
 50
165.9638
 51
222.1087
  0
LINE
  8
22
 10
47.5552
 20
55.4513
 30
0.0000
 11
47.6052
 21
55.2513
 31
0.0000
  0
ARC
  8
22
 10
47.3927
 20
55.1982
 30
0.0000
 40
0.2190
 50
317.8913
 51
14.0362
  0
LINE
  8
22
 10
63.4052
 20
49.8013
 30
0.0000
 11
63.4052
 21
49.3013
 31
0.0000
  0
LINE
  8
22
 10
63.4052
 20
49.3013
 30
0.0000
 11
61.9052
 21
49.3013
 31
0.0000
  0
LINE
  8
22
 10
61.9052
 20
49.3013
 30
0.0000
 11
61.9052
 21
49.8013
 31
0.0000
  0
LINE
  8
22
 10
60.4052
 20
49.8013
 30
0.0000
 11
60.4052
 21
49.3013
 31
0.0000
  0
LINE
  8
22
 10
60.4052
 20
49.3013
 30
0.0000
 11
58.9052
 21
49.3013
 31
0.0000
  0
LINE
  8
22
 10
58.9052
 20
49.3013
 30
0.0000
 11
58.9052
 21
49.8013
 31
0.0000
  0
LINE
  8
22
 10
57.4052
 20
49.8013
 30
0.0000
 11
57.4052
 21
49.3013
 31
0.0000
  0
LINE
  8
22
 10
57.4052
 20
49.3013
 30
0.0000
 11
55.9052
 21
49.3013
 31
0.0000
  0
LINE
  8
22
 10
55.9052
 20
49.3013
 30
0.0000
 11
55.9052
 21
49.8013
 31
0.0000
  0
LINE
  8
22
 10
54.4052
 20
49.8013
 30
0.0000
 11
54.4052
 21
49.3013
 31
0.0000
  0
LINE
  8
22
 10
54.4052
 20
49.3013
 30
0.0000
 11
52.9052
 21
49.3013
 31
0.0000
  0
LINE
  8
22
 10
52.9052
 20
49.3013
 30
0.0000
 11
52.9052
 21
49.8013
 31
0.0000
  0
LINE
  8
22
 10
51.4052
 20
49.8013
 30
0.0000
 11
51.4052
 21
49.3013
 31
0.0000
  0
LINE
  8
22
 10
51.4052
 20
49.3013
 30
0.0000
 11
49.9052
 21
49.3013
 31
0.0000
  0
LINE
  8
22
 10
49.9052
 20
49.3013
 30
0.0000
 11
49.9052
 21
49.8013
 31
0.0000
  0
LINE
  8
22
 10
48.4052
 20
49.8013
 30
0.0000
 11
48.4052
 21
49.3013
 31
0.0000
  0
LINE
  8
22
 10
48.4052
 20
49.3013
 30
0.0000
 11
46.9052
 21
49.3013
 31
0.0000
  0
LINE
  8
22
 10
46.9052
 20
49.3013
 30
0.0000
 11
46.9052
 21
49.8013
 31
0.0000
  0
POINT
  8
24
 10
29.3650
 20
20.0964
 30
0.0000
  0
POLYLINE
  8
22
 66
1
 10
0.0000
 20
0.0000
 30
0.0000
 40
0.2032
 41
0.2032
 70
0
  0
VERTEX
  8
22
 10
22.8650
 20
26.5964
 30
0.0000
  0
VERTEX
  8
22
 10
22.8650
 20
13.5714
 30
0.0000
  0
SEQEND
  8
0
  0
POLYLINE
  8
22
 66
1
 10
0.0000
 20
0.0000
 30
0.0000
 40
0.1016
 41
0.1016
 70
0
  0
VERTEX
  8
22
 10
22.8142
 20
13.5714
 30
0.0000
 42
1.0000
  0
VERTEX
  8
22
 10
22.9158
 20
13.5714
 30
0.0000
  0
SEQEND
  8
0
  0
POLYLINE
  8
22
 66
1
 10
0.0000
 20
0.0000
 30
0.0000
 40
0.1016
 41
0.1016
 70
0
  0
VERTEX
  8
22
 10
22.9158
 20
26.5964
 30
0.0000
 42
1.0000
  0
VERTEX
  8
22
 10
22.8142
 20
26.5964
 30
0.0000
  0
SEQEND
  8
0
  0
POLYLINE
  8
22
 66
1
 10
0.0000
 20
0.0000
 30
0.0000
 40
0.2032
 41
0.2032
 70
0
  0
VERTEX
  8
22
 10
22.8650
 20
13.5714
 30
0.0000
  0
VERTEX
  8
22
 10
35.8650
 20
13.5714
 30
0.0000
  0
SEQEND
  8
0
  0
POLYLINE
  8
22
 66
1
 10
0.0000
 20
0.0000
 30
0.0000
 40
0.1016
 41
0.1016
 70
0
  0
VERTEX
  8
22
 10
35.8650
 20
13.5206
 30
0.0000
 42
1.0000
  0
VERTEX
  8
22
 10
35.8650
 20
13.6222
 30
0.0000
  0
SEQEND
  8
0
  0
POLYLINE
  8
22
 66
1
 10
0.0000
 20
0.0000
 30
0.0000
 40
0.1016
 41
0.1016
 70
0
  0
VERTEX
  8
22
 10
22.8650
 20
13.6222
 30
0.0000
 42
1.0000
  0
VERTEX
  8
22
 10
22.8650
 20
13.5206
 30
0.0000
  0
SEQEND
  8
0
  0
POLYLINE
  8
22
 66
1
 10
0.0000
 20
0.0000
 30
0.0000
 40
0.2032
 41
0.2032
 70
0
  0
VERTEX
  8
22
 10
35.8650
 20
13.5714
 30
0.0000
  0
VERTEX
  8
22
 10
35.8650
 20
26.5964
 30
0.0000
  0
SEQEND
  8
0
  0
POLYLINE
  8
22
 66
1
 10
0.0000
 20
0.0000
 30
0.0000
 40
0.1016
 41
0.1016
 70
0
  0
VERTEX
  8
22
 10
35.9158
 20
26.5964
 30
0.0000
 42
1.0000
  0
VERTEX
  8
22
 10
35.8142
 20
26.5964
 30
0.0000
  0
SEQEND
  8
0
  0
POLYLINE
  8
22
 66
1
 10
0.0000
 20
0.0000
 30
0.0000
 40
0.1016
 41
0.1016
 70
0
  0
VERTEX
  8
22
 10
35.8142
 20
13.5714
 30
0.0000
 42
1.0000
  0
VERTEX
  8
22
 10
35.9158
 20
13.5714
 30
0.0000
  0
SEQEND
  8
0
  0
POLYLINE
  8
22
 66
1
 10
0.0000
 20
0.0000
 30
0.0000
 40
0.2032
 41
0.2032
 70
0
  0
VERTEX
  8
22
 10
35.8650
 20
26.5964
 30
0.0000
  0
VERTEX
  8
22
 10
22.8650
 20
26.5964
 30
0.0000
  0
SEQEND
  8
0
  0
POLYLINE
  8
22
 66
1
 10
0.0000
 20
0.0000
 30
0.0000
 40
0.1016
 41
0.1016
 70
0
  0
VERTEX
  8
22
 10
22.8650
 20
26.6472
 30
0.0000
 42
1.0000
  0
VERTEX
  8
22
 10
22.8650
 20
26.5456
 30
0.0000
  0
SEQEND
  8
0
  0
POLYLINE
  8
22
 66
1
 10
0.0000
 20
0.0000
 30
0.0000
 40
0.1016
 41
0.1016
 70
0
  0
VERTEX
  8
22
 10
35.8650
 20
26.5456
 30
0.0000
 42
1.0000
  0
VERTEX
  8
22
 10
35.8650
 20
26.6472
 30
0.0000
  0
SEQEND
  8
0
  0
POLYLINE
  8
22
 66
1
 10
0.0000
 20
0.0000
 30
0.0000
 40
1.0160
 41
1.0160
 70
0
  0
VERTEX
  8
22
 10
25.5820
 20
24.6218
 30
0.0000
 42
1.2138
  0
VERTEX
  8
22
 10
24.8219
 20
23.8970
 30
0.0000
  0
SEQEND
  8
0
  0
POLYLINE
  8
22
 66
1
 10
0.0000
 20
0.0000
 30
0.0000
 40
1.0160
 41
1.0160
 70
0
  0
VERTEX
  8
22
 10
33.8904
 20
23.8794
 30
0.0000
 42
1.2138
  0
VERTEX
  8
22
 10
33.1656
 20
24.6395
 30
0.0000
  0
SEQEND
  8
0
  0
POLYLINE
  8
22
 66
1
 10
0.0000
 20
0.0000
 30
0.0000
 40
1.0160
 41
1.0160
 70
0
  0
VERTEX
  8
22
 10
33.1480
 20
15.5710
 30
0.0000
 42
1.2138
  0
VERTEX
  8
22
 10
33.9081
 20
16.2958
 30
0.0000
  0
SEQEND
  8
0
  0
POLYLINE
  8
22
 66
1
 10
0.0000
 20
0.0000
 30
0.0000
 40
1.0160
 41
1.0160
 70
0
  0
VERTEX
  8
22
 10
24.8396
 20
16.3134
 30
0.0000
 42
1.2138
  0
VERTEX
  8
22
 10
25.5644
 20
15.5533
 30
0.0000
  0
SEQEND
  8
0
  0
POLYLINE
  8
22
 66
1
 10
0.0000
 20
0.0000
 30
0.0000
 40
0.2032
 41
0.2032
 70
0
  0
VERTEX
  8
22
 10
23.4650
 20
20.0964
 30
0.0000
 42
0.2503
  0
VERTEX
  8
22
 10
26.0900
 20
15.1964
 30
0.0000
  0
SEQEND
  8
0
  0
POLYLINE
  8
22
 66
1
 10
0.0000
 20
0.0000
 30
0.0000
 40
0.1016
 41
0.1016
 70
0
  0
VERTEX
  8
22
 10
23.5158
 20
20.0965
 30
0.0000
 42
1.0000
  0
VERTEX
  8
22
 10
23.4142
 20
20.0964
 30
0.0000
  0
SEQEND
  8
0
  0
POLYLINE
  8
22
 66
1
 10
0.0000
 20
0.0000
 30
0.0000
 40
0.1016
 41
0.1016
 70
0
  0
VERTEX
  8
22
 10
26.0618
 20
15.1542
 30
0.0000
 42
1.0000
  0
VERTEX
  8
22
 10
26.1182
 20
15.2387
 30
0.0000
  0
SEQEND
  8
0
  0
POLYLINE
  8
22
 66
1
 10
0.0000
 20
0.0000
 30
0.0000
 40
0.2032
 41
0.2032
 70
0
  0
VERTEX
  8
22
 10
26.1400
 20
25.0464
 30
0.0000
 42
0.2538
  0
VERTEX
  8
22
 10
23.4650
 20
20.0964
 30
0.0000
  0
SEQEND
  8
0
  0
POLYLINE
  8
22
 66
1
 10
0.0000
 20
0.0000
 30
0.0000
 40
0.1016
 41
0.1016
 70
0
  0
VERTEX
  8
22
 10
26.1678
 20
25.0039
 30
0.0000
 42
1.0000
  0
VERTEX
  8
22
 10
26.1123
 20
25.0890
 30
0.0000
  0
SEQEND
  8
0
  0
POLYLINE
  8
22
 66
1
 10
0.0000
 20
0.0000
 30
0.0000
 40
0.1016
 41
0.1016
 70
0
  0
VERTEX
  8
22
 10
23.4142
 20
20.0963
 30
0.0000
 42
1.0000
  0
VERTEX
  8
22
 10
23.5158
 20
20.0965
 30
0.0000
  0
SEQEND
  8
0
  0
POLYLINE
  8
22
 66
1
 10
0.0000
 20
0.0000
 30
0.0000
 40
0.2032
 41
0.2032
 70
0
  0
VERTEX
  8
22
 10
35.2650
 20
20.0964
 30
0.0000
 42
0.2503
  0
VERTEX
  8
22
 10
32.6400
 20
24.9964
 30
0.0000
  0
SEQEND
  8
0
  0
POLYLINE
  8
22
 66
1
 10
0.0000
 20
0.0000
 30
0.0000
 40
0.1016
 41
0.1016
 70
0
  0
VERTEX
  8
22
 10
35.2142
 20
20.0964
 30
0.0000
 42
1.0000
  0
VERTEX
  8
22
 10
35.3158
 20
20.0965
 30
0.0000
  0
SEQEND
  8
0
  0
POLYLINE
  8
22
 66
1
 10
0.0000
 20
0.0000
 30
0.0000
 40
0.1016
 41
0.1016
 70
0
  0
VERTEX
  8
22
 10
32.6682
 20
25.0387
 30
0.0000
 42
1.0000
  0
VERTEX
  8
22
 10
32.6118
 20
24.9542
 30
0.0000
  0
SEQEND
  8
0
  0
POLYLINE
  8
22
 66
1
 10
0.0000
 20
0.0000
 30
0.0000
 40
0.2032
 41
0.2032
 70
0
  0
VERTEX
  8
22
 10
32.5900
 20
15.1464
 30
0.0000
 42
0.2538
  0
VERTEX
  8
22
 10
35.2650
 20
20.0964
 30
0.0000
  0
SEQEND
  8
0
  0
POLYLINE
  8
22
 66
1
 10
0.0000
 20
0.0000
 30
0.0000
 40
0.1016
 41
0.1016
 70
0
  0
VERTEX
  8
22
 10
32.5623
 20
15.1890
 30
0.0000
 42
1.0000
  0
VERTEX
  8
22
 10
32.6178
 20
15.1039
 30
0.0000
  0
SEQEND
  8
0
  0
POLYLINE
  8
22
 66
1
 10
0.0000
 20
0.0000
 30
0.0000
 40
0.1016
 41
0.1016
 70
0
  0
VERTEX
  8
22
 10
35.3158
 20
20.0965
 30
0.0000
 42
1.0000
  0
VERTEX
  8
22
 10
35.2142
 20
20.0963
 30
0.0000
  0
SEQEND
  8
0
  0
POINT
  8
24
 10
22.2568
 20
35.3415
 30
0.0000
  0
LINE
  8
22
 10
22.2530
 20
35.3475
 30
0.0000
 11
17.8717
 21
37.5416
 31
0.0000
  0
LINE
  8
22
 10
17.8717
 20
37.5416
 30
0.0000
 11
17.4687
 21
36.7368
 31
0.0000
  0
LINE
  8
22
 10
18.8092
 20
34.9472
 30
0.0000
 11
16.1268
 21
36.2904
 31
0.0000
  0
LINE
  8
22
 10
16.1268
 20
36.2904
 30
0.0000
 11
16.0372
 21
36.1116
 31
0.0000
  0
LINE
  8
22
 10
16.0372
 20
36.1116
 30
0.0000
 11
18.7197
 21
34.7683
 31
0.0000
  0
LINE
  8
22
 10
17.5107
 20
32.3541
 30
0.0000
 11
14.8283
 21
33.6974
 31
0.0000
  0
LINE
  8
22
 10
14.8283
 20
33.6974
 30
0.0000
 11
14.7835
 21
33.6080
 31
0.0000
  0
LINE
  8
22
 10
14.7835
 20
33.6080
 30
0.0000
 11
17.4660
 21
32.2647
 31
0.0000
  0
LINE
  8
22
 10
17.4660
 20
32.2647
 30
0.0000
 11
17.3764
 21
32.0859
 31
0.0000
  0
LINE
  8
22
 10
17.3764
 20
32.0859
 30
0.0000
 11
14.6940
 21
33.4291
 31
0.0000
  0
LINE
  8
22
 10
14.6940
 20
33.4291
 30
0.0000
 11
14.6492
 21
33.3397
 31
0.0000
  0
LINE
  8
22
 10
14.6492
 20
33.3397
 30
0.0000
 11
17.3316
 21
31.9964
 31
0.0000
  0
LINE
  8
22
 10
19.2570
 20
35.8413
 30
0.0000
 11
18.8092
 21
34.9472
 31
0.0000
  0
LINE
  8
22
 10
18.7197
 20
34.7683
 30
0.0000
 11
18.1824
 21
33.6953
 31
0.0000
  0
LINE
  8
22
 10
18.0033
 20
33.3377
 30
0.0000
 11
17.5107
 21
32.3541
 31
0.0000
  0
LINE
  8
22
 10
17.3316
 20
31.9964
 30
0.0000
 11
16.8391
 21
31.0129
 31
0.0000
  0
LINE
  8
22
 10
16.8391
 20
31.0129
 30
0.0000
 11
15.0508
 21
31.9084
 31
0.0000
  0
LINE
  8
22
 10
19.2570
 20
35.8413
 30
0.0000
 11
17.4687
 21
36.7368
 31
0.0000
  0
LINE
  8
22
 10
18.1824
 20
33.6953
 30
0.0000
 11
16.3941
 21
34.5909
 31
0.0000
  0
LINE
  8
22
 10
16.3941
 20
34.5909
 30
0.0000
 11
16.2150
 21
34.2332
 31
0.0000
  0
LINE
  8
22
 10
16.2150
 20
34.2332
 30
0.0000
 11
18.0033
 21
33.3377
 31
0.0000
  0
LINE
  8
22
 10
22.2568
 20
35.3415
 30
0.0000
 11
21.6971
 21
34.2238
 31
0.0000
  0
LINE
  8
22
 10
21.6971
 20
34.2238
 30
0.0000
 11
21.0255
 21
32.8826
 31
0.0000
  0
LINE
  8
22
 10
21.0255
 20
32.8826
 30
0.0000
 11
20.3539
 21
31.5414
 31
0.0000
  0
LINE
  8
22
 10
20.3539
 20
31.5414
 30
0.0000
 11
19.6822
 21
30.2001
 31
0.0000
  0
LINE
  8
22
 10
19.6822
 20
30.2001
 30
0.0000
 11
19.0106
 21
28.8589
 31
0.0000
  0
LINE
  8
22
 10
19.0106
 20
28.8589
 30
0.0000
 11
18.3389
 21
27.5177
 31
0.0000
  0
LINE
  8
22
 10
18.3389
 20
27.5177
 30
0.0000
 11
17.6673
 21
26.1764
 31
0.0000
  0
LINE
  8
22
 10
17.6673
 20
26.1764
 30
0.0000
 11
16.9957
 21
24.8352
 31
0.0000
  0
LINE
  8
22
 10
16.9957
 20
24.8352
 30
0.0000
 11
16.3240
 21
23.4940
 31
0.0000
  0
LINE
  8
22
 10
16.3240
 20
23.4940
 30
0.0000
 11
15.6524
 21
22.1527
 31
0.0000
  0
LINE
  8
22
 10
15.6524
 20
22.1527
 30
0.0000
 11
14.9807
 21
20.8115
 31
0.0000
  0
LINE
  8
22
 10
14.9807
 20
20.8115
 30
0.0000
 11
14.3091
 21
19.4703
 31
0.0000
  0
LINE
  8
22
 10
14.3091
 20
19.4703
 30
0.0000
 11
13.7494
 21
18.3526
 31
0.0000
  0
LINE
  8
22
 10
13.7494
 20
18.3526
 30
0.0000
 11
9.3681
 21
20.5466
 31
0.0000
  0
LINE
  8
22
 10
16.1227
 20
29.5822
 30
0.0000
 11
13.4402
 21
30.9255
 31
0.0000
  0
LINE
  8
22
 10
13.4402
 20
30.9255
 30
0.0000
 11
13.3507
 21
30.7467
 31
0.0000
  0
LINE
  8
22
 10
13.3507
 20
30.7467
 30
0.0000
 11
16.0331
 21
29.4034
 31
0.0000
  0
LINE
  8
22
 10
13.4361
 20
24.2173
 30
0.0000
 11
10.7537
 21
25.5606
 31
0.0000
  0
LINE
  8
22
 10
10.7537
 20
25.5606
 30
0.0000
 11
10.6641
 21
25.3818
 31
0.0000
  0
LINE
  8
22
 10
10.6641
 20
25.3818
 30
0.0000
 11
13.3466
 21
24.0385
 31
0.0000
  0
LINE
  8
22
 10
14.8242
 20
26.9892
 30
0.0000
 11
12.1417
 21
28.3325
 31
0.0000
  0
LINE
  8
22
 10
12.1417
 20
28.3325
 30
0.0000
 11
12.0969
 21
28.2430
 31
0.0000
  0
LINE
  8
22
 10
12.0969
 20
28.2430
 30
0.0000
 11
14.7794
 21
26.8998
 31
0.0000
  0
LINE
  8
22
 10
14.7794
 20
26.8998
 30
0.0000
 11
14.6899
 21
26.7209
 31
0.0000
  0
LINE
  8
22
 10
14.6899
 20
26.7209
 30
0.0000
 11
12.0074
 21
28.0642
 31
0.0000
  0
LINE
  8
22
 10
12.0074
 20
28.0642
 30
0.0000
 11
11.9626
 21
27.9748
 31
0.0000
  0
LINE
  8
22
 10
11.9626
 20
27.9748
 30
0.0000
 11
14.6451
 21
26.6315
 31
0.0000
  0
LINE
  8
22
 10
12.1376
 20
21.6243
 30
0.0000
 11
9.4552
 21
22.9675
 31
0.0000
  0
LINE
  8
22
 10
9.4552
 20
22.9675
 30
0.0000
 11
9.4104
 21
22.8781
 31
0.0000
  0
LINE
  8
22
 10
9.4104
 20
22.8781
 30
0.0000
 11
12.0929
 21
21.5348
 31
0.0000
  0
LINE
  8
22
 10
12.0929
 20
21.5348
 30
0.0000
 11
12.0033
 21
21.3560
 31
0.0000
  0
LINE
  8
22
 10
12.0033
 20
21.3560
 30
0.0000
 11
9.3208
 21
22.6993
 31
0.0000
  0
LINE
  8
22
 10
9.3208
 20
22.6993
 30
0.0000
 11
9.2761
 21
22.6099
 31
0.0000
  0
LINE
  8
22
 10
9.2761
 20
22.6099
 30
0.0000
 11
11.9585
 21
21.2666
 31
0.0000
  0
LINE
  8
22
 10
9.3681
 20
20.5466
 30
0.0000
 11
9.7710
 21
21.3513
 31
0.0000
  0
LINE
  8
22
 10
9.7710
 20
21.3513
 30
0.0000
 11
11.5593
 21
20.4558
 31
0.0000
  0
LINE
  8
22
 10
11.5593
 20
20.4558
 30
0.0000
 11
11.9623
 21
21.2606
 31
0.0000
  0
LINE
  8
22
 10
16.1265
 20
29.5762
 30
0.0000
 11
16.6638
 21
30.6492
 31
0.0000
  0
LINE
  8
22
 10
16.6638
 20
30.6492
 30
0.0000
 11
14.8755
 21
31.5447
 31
0.0000
  0
LINE
  8
22
 10
14.8755
 20
31.5447
 30
0.0000
 11
15.0546
 21
31.9024
 31
0.0000
  0
LINE
  8
22
 10
16.0331
 20
29.4034
 30
0.0000
 11
15.5182
 21
28.3751
 31
0.0000
  0
LINE
  8
22
 10
15.3391
 20
28.0175
 30
0.0000
 11
14.8242
 21
26.9892
 31
0.0000
  0
LINE
  8
22
 10
15.5182
 20
28.3751
 30
0.0000
 11
13.7299
 21
29.2706
 31
0.0000
  0
LINE
  8
22
 10
13.7299
 20
29.2706
 30
0.0000
 11
13.5508
 21
28.9130
 31
0.0000
  0
LINE
  8
22
 10
13.5508
 20
28.9130
 30
0.0000
 11
15.3391
 21
28.0175
 31
0.0000
  0
LINE
  8
22
 10
14.6451
 20
26.6315
 30
0.0000
 11
14.1973
 21
25.7374
 31
0.0000
  0
LINE
  8
22
 10
14.0182
 20
25.3797
 30
0.0000
 11
13.4361
 21
24.2173
 31
0.0000
  0
LINE
  8
22
 10
14.1973
 20
25.7374
 30
0.0000
 11
12.4090
 21
26.6329
 31
0.0000
  0
LINE
  8
22
 10
12.4090
 20
26.6329
 30
0.0000
 11
12.2299
 21
26.2752
 31
0.0000
  0
LINE
  8
22
 10
12.2299
 20
26.2752
 30
0.0000
 11
14.0182
 21
25.3797
 31
0.0000
  0
LINE
  8
22
 10
13.3466
 20
24.0385
 30
0.0000
 11
12.8764
 21
23.0996
 31
0.0000
  0
LINE
  8
22
 10
12.6973
 20
22.7420
 30
0.0000
 11
12.1376
 21
21.6243
 31
0.0000
  0
LINE
  8
22
 10
12.8764
 20
23.0996
 30
0.0000
 11
11.0881
 21
23.9951
 31
0.0000
  0
LINE
  8
22
 10
11.0881
 20
23.9951
 30
0.0000
 11
10.9090
 21
23.6375
 31
0.0000
  0
LINE
  8
22
 10
10.9090
 20
23.6375
 30
0.0000
 11
12.6973
 21
22.7420
 31
0.0000
  0
LINE
  8
22
 10
15.0555
 20
33.4676
 30
0.0000
 11
15.2120
 21
33.3333
 31
0.0000
  0
ARC
  8
22
 10
15.3546
 20
33.4996
 30
0.0000
 40
0.2190
 50
229.3638
 51
285.5088
  0
LINE
  8
22
 10
14.9660
 20
33.2888
 30
0.0000
 11
15.1672
 21
33.2439
 31
0.0000
  0
ARC
  8
22
 10
15.1196
 20
33.0301
 30
0.0000
 40
0.2190
 50
21.2915
 51
77.4364
  0
LINE
  8
22
 10
12.2794
 20
27.9238
 30
0.0000
 11
12.4807
 21
27.8790
 31
0.0000
  0
ARC
  8
22
 10
12.4330
 20
27.6652
 30
0.0000
 40
0.2190
 50
21.2915
 51
77.4364
  0
LINE
  8
22
 10
12.3690
 20
28.1027
 30
0.0000
 11
12.5254
 21
27.9684
 31
0.0000
  0
ARC
  8
22
 10
12.6681
 20
28.1346
 30
0.0000
 40
0.2190
 50
229.3638
 51
285.5088
  0
LINE
  8
22
 10
9.6377
 20
22.7601
 30
0.0000
 11
9.7942
 21
22.6259
 31
0.0000
  0
ARC
  8
22
 10
9.9368
 20
22.7921
 30
0.0000
 40
0.2190
 50
229.3638
 51
285.5088
  0
LINE
  8
22
 10
9.5482
 20
22.5813
 30
0.0000
 11
9.7494
 21
22.5365
 31
0.0000
  0
ARC
  8
22
 10
9.7018
 20
22.3227
 30
0.0000
 40
0.2190
 50
21.2915
 51
77.4364
  0
LINE
  8
22
 10
21.6971
 20
34.2238
 30
0.0000
 11
22.1442
 21
33.9999
 31
0.0000
  0
LINE
  8
22
 10
22.1442
 20
33.9999
 30
0.0000
 11
21.4726
 21
32.6587
 31
0.0000
  0
LINE
  8
22
 10
21.4726
 20
32.6587
 30
0.0000
 11
21.0255
 21
32.8826
 31
0.0000
  0
LINE
  8
22
 10
20.3539
 20
31.5414
 30
0.0000
 11
20.8009
 21
31.3175
 31
0.0000
  0
LINE
  8
22
 10
20.8009
 20
31.3175
 30
0.0000
 11
20.1293
 21
29.9762
 31
0.0000
  0
LINE
  8
22
 10
20.1293
 20
29.9762
 30
0.0000
 11
19.6822
 21
30.2001
 31
0.0000
  0
LINE
  8
22
 10
19.0106
 20
28.8589
 30
0.0000
 11
19.4577
 21
28.6350
 31
0.0000
  0
LINE
  8
22
 10
19.4577
 20
28.6350
 30
0.0000
 11
18.7860
 21
27.2938
 31
0.0000
  0
LINE
  8
22
 10
18.7860
 20
27.2938
 30
0.0000
 11
18.3389
 21
27.5177
 31
0.0000
  0
LINE
  8
22
 10
17.6673
 20
26.1764
 30
0.0000
 11
18.1144
 21
25.9525
 31
0.0000
  0
LINE
  8
22
 10
18.1144
 20
25.9525
 30
0.0000
 11
17.4427
 21
24.6113
 31
0.0000
  0
LINE
  8
22
 10
17.4427
 20
24.6113
 30
0.0000
 11
16.9957
 21
24.8352
 31
0.0000
  0
LINE
  8
22
 10
16.3240
 20
23.4940
 30
0.0000
 11
16.7711
 21
23.2701
 31
0.0000
  0
LINE
  8
22
 10
16.7711
 20
23.2701
 30
0.0000
 11
16.0995
 21
21.9289
 31
0.0000
  0
LINE
  8
22
 10
16.0995
 20
21.9289
 30
0.0000
 11
15.6524
 21
22.1527
 31
0.0000
  0
LINE
  8
22
 10
14.9807
 20
20.8115
 30
0.0000
 11
15.4278
 21
20.5876
 31
0.0000
  0
LINE
  8
22
 10
15.4278
 20
20.5876
 30
0.0000
 11
14.7562
 21
19.2464
 31
0.0000
  0
LINE
  8
22
 10
14.7562
 20
19.2464
 30
0.0000
 11
14.3091
 21
19.4703
 31
0.0000
  0
POINT
  8
24
 10
64.9575
 20
18.5868
 30
0.0000
  0
LINE
  8
22
 10
64.9613
 20
18.5808
 30
0.0000
 11
69.3426
 21
16.3867
 31
0.0000
  0
LINE
  8
22
 10
69.3426
 20
16.3867
 30
0.0000
 11
69.7456
 21
17.1915
 31
0.0000
  0
LINE
  8
22
 10
68.4050
 20
18.9812
 30
0.0000
 11
71.0875
 21
17.6379
 31
0.0000
  0
LINE
  8
22
 10
71.0875
 20
17.6379
 30
0.0000
 11
71.1771
 21
17.8167
 31
0.0000
  0
LINE
  8
22
 10
71.1771
 20
17.8167
 30
0.0000
 11
68.4946
 21
19.1600
 31
0.0000
  0
LINE
  8
22
 10
69.7035
 20
21.5742
 30
0.0000
 11
72.3860
 21
20.2309
 31
0.0000
  0
LINE
  8
22
 10
72.3860
 20
20.2309
 30
0.0000
 11
72.4308
 21
20.3203
 31
0.0000
  0
LINE
  8
22
 10
72.4308
 20
20.3203
 30
0.0000
 11
69.7483
 21
21.6636
 31
0.0000
  0
LINE
  8
22
 10
69.7483
 20
21.6636
 30
0.0000
 11
69.8379
 21
21.8425
 31
0.0000
  0
LINE
  8
22
 10
69.8379
 20
21.8425
 30
0.0000
 11
72.5203
 21
20.4992
 31
0.0000
  0
LINE
  8
22
 10
72.5203
 20
20.4992
 30
0.0000
 11
72.5651
 21
20.5886
 31
0.0000
  0
LINE
  8
22
 10
72.5651
 20
20.5886
 30
0.0000
 11
69.8826
 21
21.9319
 31
0.0000
  0
LINE
  8
22
 10
67.9573
 20
18.0870
 30
0.0000
 11
68.4050
 21
18.9812
 31
0.0000
  0
LINE
  8
22
 10
68.4946
 20
19.1600
 30
0.0000
 11
69.0319
 21
20.2330
 31
0.0000
  0
LINE
  8
22
 10
69.2110
 20
20.5906
 30
0.0000
 11
69.7035
 21
21.5742
 31
0.0000
  0
LINE
  8
22
 10
69.8826
 20
21.9319
 30
0.0000
 11
70.3752
 21
22.9154
 31
0.0000
  0
LINE
  8
22
 10
70.3752
 20
22.9154
 30
0.0000
 11
72.1635
 21
22.0199
 31
0.0000
  0
LINE
  8
22
 10
67.9573
 20
18.0870
 30
0.0000
 11
69.7456
 21
17.1915
 31
0.0000
  0
LINE
  8
22
 10
69.0319
 20
20.2330
 30
0.0000
 11
70.8202
 21
19.3375
 31
0.0000
  0
LINE
  8
22
 10
70.8202
 20
19.3375
 30
0.0000
 11
70.9993
 21
19.6951
 31
0.0000
  0
LINE
  8
22
 10
70.9993
 20
19.6951
 30
0.0000
 11
69.2110
 21
20.5906
 31
0.0000
  0
LINE
  8
22
 10
64.9575
 20
18.5868
 30
0.0000
 11
65.5172
 21
19.7045
 31
0.0000
  0
LINE
  8
22
 10
65.5172
 20
19.7045
 30
0.0000
 11
66.1888
 21
21.0457
 31
0.0000
  0
LINE
  8
22
 10
66.1888
 20
21.0457
 30
0.0000
 11
66.8604
 21
22.3870
 31
0.0000
  0
LINE
  8
22
 10
66.8604
 20
22.3870
 30
0.0000
 11
67.5321
 21
23.7282
 31
0.0000
  0
LINE
  8
22
 10
67.5321
 20
23.7282
 30
0.0000
 11
68.2037
 21
25.0694
 31
0.0000
  0
LINE
  8
22
 10
68.2037
 20
25.0694
 30
0.0000
 11
68.8753
 21
26.4107
 31
0.0000
  0
LINE
  8
22
 10
68.8753
 20
26.4107
 30
0.0000
 11
69.5470
 21
27.7519
 31
0.0000
  0
LINE
  8
22
 10
69.5470
 20
27.7519
 30
0.0000
 11
70.2186
 21
29.0931
 31
0.0000
  0
LINE
  8
22
 10
70.2186
 20
29.0931
 30
0.0000
 11
70.8903
 21
30.4344
 31
0.0000
  0
LINE
  8
22
 10
70.8903
 20
30.4344
 30
0.0000
 11
71.5619
 21
31.7756
 31
0.0000
  0
LINE
  8
22
 10
71.5619
 20
31.7756
 30
0.0000
 11
72.2335
 21
33.1168
 31
0.0000
  0
LINE
  8
22
 10
72.2335
 20
33.1168
 30
0.0000
 11
72.9052
 21
34.4581
 31
0.0000
  0
LINE
  8
22
 10
72.9052
 20
34.4581
 30
0.0000
 11
73.4649
 21
35.5757
 31
0.0000
  0
LINE
  8
22
 10
73.4649
 20
35.5757
 30
0.0000
 11
77.8462
 21
33.3817
 31
0.0000
  0
LINE
  8
22
 10
71.0916
 20
24.3461
 30
0.0000
 11
73.7741
 21
23.0028
 31
0.0000
  0
LINE
  8
22
 10
73.7741
 20
23.0028
 30
0.0000
 11
73.8636
 21
23.1816
 31
0.0000
  0
LINE
  8
22
 10
73.8636
 20
23.1816
 30
0.0000
 11
71.1812
 21
24.5249
 31
0.0000
  0
LINE
  8
22
 10
73.7782
 20
29.7110
 30
0.0000
 11
76.4606
 21
28.3677
 31
0.0000
  0
LINE
  8
22
 10
76.4606
 20
28.3677
 30
0.0000
 11
76.5502
 21
28.5466
 31
0.0000
  0
LINE
  8
22
 10
76.5502
 20
28.5466
 30
0.0000
 11
73.8677
 21
29.8898
 31
0.0000
  0
LINE
  8
22
 10
72.3901
 20
26.9391
 30
0.0000
 11
75.0726
 21
25.5959
 31
0.0000
  0
LINE
  8
22
 10
75.0726
 20
25.5959
 30
0.0000
 11
75.1173
 21
25.6853
 31
0.0000
  0
LINE
  8
22
 10
75.1173
 20
25.6853
 30
0.0000
 11
72.4349
 21
27.0286
 31
0.0000
  0
LINE
  8
22
 10
72.4349
 20
27.0286
 30
0.0000
 11
72.5244
 21
27.2074
 31
0.0000
  0
LINE
  8
22
 10
72.5244
 20
27.2074
 30
0.0000
 11
75.2069
 21
25.8641
 31
0.0000
  0
LINE
  8
22
 10
75.2069
 20
25.8641
 30
0.0000
 11
75.2517
 21
25.9535
 31
0.0000
  0
LINE
  8
22
 10
75.2517
 20
25.9535
 30
0.0000
 11
72.5692
 21
27.2968
 31
0.0000
  0
LINE
  8
22
 10
75.0767
 20
32.3041
 30
0.0000
 11
77.7591
 21
30.9608
 31
0.0000
  0
LINE
  8
22
 10
77.7591
 20
30.9608
 30
0.0000
 11
77.8039
 21
31.0502
 31
0.0000
  0
LINE
  8
22
 10
77.8039
 20
31.0502
 30
0.0000
 11
75.1214
 21
32.3935
 31
0.0000
  0
LINE
  8
22
 10
75.1214
 20
32.3935
 30
0.0000
 11
75.2110
 21
32.5723
 31
0.0000
  0
LINE
  8
22
 10
75.2110
 20
32.5723
 30
0.0000
 11
77.8934
 21
31.2290
 31
0.0000
  0
LINE
  8
22
 10
77.8934
 20
31.2290
 30
0.0000
 11
77.9382
 21
31.3184
 31
0.0000
  0
LINE
  8
22
 10
77.9382
 20
31.3184
 30
0.0000
 11
75.2558
 21
32.6617
 31
0.0000
  0
LINE
  8
22
 10
77.8462
 20
33.3817
 30
0.0000
 11
77.4433
 21
32.5770
 31
0.0000
  0
LINE
  8
22
 10
77.4433
 20
32.5770
 30
0.0000
 11
75.6549
 21
33.4725
 31
0.0000
  0
LINE
  8
22
 10
75.6549
 20
33.4725
 30
0.0000
 11
75.2520
 21
32.6678
 31
0.0000
  0
LINE
  8
22
 10
71.0878
 20
24.3521
 30
0.0000
 11
70.5505
 21
23.2791
 31
0.0000
  0
LINE
  8
22
 10
70.5505
 20
23.2791
 30
0.0000
 11
72.3388
 21
22.3836
 31
0.0000
  0
LINE
  8
22
 10
72.3388
 20
22.3836
 30
0.0000
 11
72.1597
 21
22.0260
 31
0.0000
  0
LINE
  8
22
 10
71.1812
 20
24.5249
 30
0.0000
 11
71.6961
 21
25.5532
 31
0.0000
  0
LINE
  8
22
 10
71.8752
 20
25.9109
 30
0.0000
 11
72.3901
 21
26.9391
 31
0.0000
  0
LINE
  8
22
 10
71.6961
 20
25.5532
 30
0.0000
 11
73.4844
 21
24.6577
 31
0.0000
  0
LINE
  8
22
 10
73.4844
 20
24.6577
 30
0.0000
 11
73.6635
 21
25.0153
 31
0.0000
  0
LINE
  8
22
 10
73.6635
 20
25.0153
 30
0.0000
 11
71.8752
 21
25.9109
 31
0.0000
  0
LINE
  8
22
 10
72.5692
 20
27.2968
 30
0.0000
 11
73.0170
 21
28.1910
 31
0.0000
  0
LINE
  8
22
 10
73.1961
 20
28.5486
 30
0.0000
 11
73.7782
 21
29.7110
 31
0.0000
  0
LINE
  8
22
 10
73.0170
 20
28.1910
 30
0.0000
 11
74.8053
 21
27.2954
 31
0.0000
  0
LINE
  8
22
 10
74.8053
 20
27.2954
 30
0.0000
 11
74.9844
 21
27.6531
 31
0.0000
  0
LINE
  8
22
 10
74.9844
 20
27.6531
 30
0.0000
 11
73.1961
 21
28.5486
 31
0.0000
  0
LINE
  8
22
 10
73.8677
 20
29.8898
 30
0.0000
 11
74.3379
 21
30.8287
 31
0.0000
  0
LINE
  8
22
 10
74.5170
 20
31.1864
 30
0.0000
 11
75.0767
 21
32.3041
 31
0.0000
  0
LINE
  8
22
 10
74.3379
 20
30.8287
 30
0.0000
 11
76.1262
 21
29.9332
 31
0.0000
  0
LINE
  8
22
 10
76.1262
 20
29.9332
 30
0.0000
 11
76.3053
 21
30.2909
 31
0.0000
  0
LINE
  8
22
 10
76.3053
 20
30.2909
 30
0.0000
 11
74.5170
 21
31.1864
 31
0.0000
  0
LINE
  8
22
 10
72.1587
 20
20.4607
 30
0.0000
 11
72.0023
 21
20.5950
 31
0.0000
  0
ARC
  8
22
 10
71.8596
 20
20.4288
 30
0.0000
 40
0.2190
 50
49.3638
 51
105.5088
  0
LINE
  8
22
 10
72.2483
 20
20.6395
 30
0.0000
 11
72.0471
 21
20.6844
 31
0.0000
  0
ARC
  8
22
 10
72.0947
 20
20.8982
 30
0.0000
 40
0.2190
 50
201.2915
 51
257.4364
  0
LINE
  8
22
 10
74.9348
 20
26.0045
 30
0.0000
 11
74.7336
 21
26.0493
 31
0.0000
  0
ARC
  8
22
 10
74.7813
 20
26.2631
 30
0.0000
 40
0.2190
 50
201.2915
 51
257.4364
  0
LINE
  8
22
 10
74.8453
 20
25.8256
 30
0.0000
 11
74.6889
 21
25.9599
 31
0.0000
  0
ARC
  8
22
 10
74.5462
 20
25.7937
 30
0.0000
 40
0.2190
 50
49.3638
 51
105.5088
  0
LINE
  8
22
 10
77.5766
 20
31.1682
 30
0.0000
 11
77.4201
 21
31.3024
 31
0.0000
  0
ARC
  8
22
 10
77.2775
 20
31.1362
 30
0.0000
 40
0.2190
 50
49.3638
 51
105.5088
  0
LINE
  8
22
 10
77.6661
 20
31.3470
 30
0.0000
 11
77.4649
 21
31.3919
 31
0.0000
  0
ARC
  8
22
 10
77.5125
 20
31.6057
 30
0.0000
 40
0.2190
 50
201.2915
 51
257.4364
  0
LINE
  8
22
 10
65.5172
 20
19.7045
 30
0.0000
 11
65.0701
 21
19.9284
 31
0.0000
  0
LINE
  8
22
 10
65.0701
 20
19.9284
 30
0.0000
 11
65.7417
 21
21.2696
 31
0.0000
  0
LINE
  8
22
 10
65.7417
 20
21.2696
 30
0.0000
 11
66.1888
 21
21.0457
 31
0.0000
  0
LINE
  8
22
 10
66.8604
 20
22.3870
 30
0.0000
 11
66.4134
 21
22.6109
 31
0.0000
  0
LINE
  8
22
 10
66.4134
 20
22.6109
 30
0.0000
 11
67.0850
 21
23.9521
 31
0.0000
  0
LINE
  8
22
 10
67.0850
 20
23.9521
 30
0.0000
 11
67.5321
 21
23.7282
 31
0.0000
  0
LINE
  8
22
 10
68.2037
 20
25.0694
 30
0.0000
 11
67.7566
 21
25.2933
 31
0.0000
  0
LINE
  8
22
 10
67.7566
 20
25.2933
 30
0.0000
 11
68.4283
 21
26.6345
 31
0.0000
  0
LINE
  8
22
 10
68.4283
 20
26.6345
 30
0.0000
 11
68.8753
 21
26.4107
 31
0.0000
  0
LINE
  8
22
 10
69.5470
 20
27.7519
 30
0.0000
 11
69.0999
 21
27.9758
 31
0.0000
  0
LINE
  8
22
 10
69.0999
 20
27.9758
 30
0.0000
 11
69.7715
 21
29.3170
 31
0.0000
  0
LINE
  8
22
 10
69.7715
 20
29.3170
 30
0.0000
 11
70.2186
 21
29.0931
 31
0.0000
  0
LINE
  8
22
 10
70.8903
 20
30.4344
 30
0.0000
 11
70.4432
 21
30.6582
 31
0.0000
  0
LINE
  8
22
 10
70.4432
 20
30.6582
 30
0.0000
 11
71.1148
 21
31.9995
 31
0.0000
  0
LINE
  8
22
 10
71.1148
 20
31.9995
 30
0.0000
 11
71.5619
 21
31.7756
 31
0.0000
  0
LINE
  8
22
 10
72.2335
 20
33.1168
 30
0.0000
 11
71.7865
 21
33.3407
 31
0.0000
  0
LINE
  8
22
 10
71.7865
 20
33.3407
 30
0.0000
 11
72.4581
 21
34.6819
 31
0.0000
  0
LINE
  8
22
 10
72.4581
 20
34.6819
 30
0.0000
 11
72.9052
 21
34.4581
 31
0.0000
  0
POINT
  8
24
 10
22.5689
 20
4.1324
 30
0.0000
  0
LINE
  8
22
 10
22.5652
 20
4.1263
 30
0.0000
 11
22.5652
 21
-0.7737
 31
0.0000
  0
LINE
  8
22
 10
22.5652
 20
-0.7737
 30
0.0000
 11
23.4652
 21
-0.7737
 31
0.0000
  0
LINE
  8
22
 10
24.4652
 20
1.2263
 30
0.0000
 11
24.4652
 21
-1.7737
 31
0.0000
  0
LINE
  8
22
 10
24.4652
 20
-1.7737
 30
0.0000
 11
24.6652
 21
-1.7737
 31
0.0000
  0
LINE
  8
22
 10
24.6652
 20
-1.7737
 30
0.0000
 11
24.6652
 21
1.2263
 31
0.0000
  0
LINE
  8
22
 10
27.3652
 20
1.2263
 30
0.0000
 11
27.3652
 21
-1.7737
 31
0.0000
  0
LINE
  8
22
 10
27.3652
 20
-1.7737
 30
0.0000
 11
27.4652
 21
-1.7737
 31
0.0000
  0
LINE
  8
22
 10
27.4652
 20
-1.7737
 30
0.0000
 11
27.4652
 21
1.2263
 31
0.0000
  0
LINE
  8
22
 10
27.4652
 20
1.2263
 30
0.0000
 11
27.6652
 21
1.2263
 31
0.0000
  0
LINE
  8
22
 10
27.6652
 20
1.2263
 30
0.0000
 11
27.6652
 21
-1.7737
 31
0.0000
  0
LINE
  8
22
 10
27.6652
 20
-1.7737
 30
0.0000
 11
27.7652
 21
-1.7737
 31
0.0000
  0
LINE
  8
22
 10
27.7652
 20
-1.7737
 30
0.0000
 11
27.7652
 21
1.2263
 31
0.0000
  0
LINE
  8
22
 10
23.4652
 20
1.2263
 30
0.0000
 11
24.4652
 21
1.2263
 31
0.0000
  0
LINE
  8
22
 10
24.6652
 20
1.2263
 30
0.0000
 11
25.8652
 21
1.2263
 31
0.0000
  0
LINE
  8
22
 10
26.2652
 20
1.2263
 30
0.0000
 11
27.3652
 21
1.2263
 31
0.0000
  0
LINE
  8
22
 10
27.7652
 20
1.2263
 30
0.0000
 11
28.8652
 21
1.2263
 31
0.0000
  0
LINE
  8
22
 10
28.8652
 20
1.2263
 30
0.0000
 11
28.8652
 21
-0.7737
 31
0.0000
  0
LINE
  8
22
 10
23.4652
 20
1.2263
 30
0.0000
 11
23.4652
 21
-0.7737
 31
0.0000
  0
LINE
  8
22
 10
25.8652
 20
1.2263
 30
0.0000
 11
25.8652
 21
-0.7737
 31
0.0000
  0
LINE
  8
22
 10
25.8652
 20
-0.7737
 30
0.0000
 11
26.2652
 21
-0.7737
 31
0.0000
  0
LINE
  8
22
 10
26.2652
 20
-0.7737
 30
0.0000
 11
26.2652
 21
1.2263
 31
0.0000
  0
LINE
  8
22
 10
22.5689
 20
4.1324
 30
0.0000
 11
23.8189
 21
4.1324
 31
0.0000
  0
LINE
  8
22
 10
23.8189
 20
4.1324
 30
0.0000
 11
25.3189
 21
4.1324
 31
0.0000
  0
LINE
  8
22
 10
25.3189
 20
4.1324
 30
0.0000
 11
26.8189
 21
4.1324
 31
0.0000
  0
LINE
  8
22
 10
26.8189
 20
4.1324
 30
0.0000
 11
28.3189
 21
4.1324
 31
0.0000
  0
LINE
  8
22
 10
28.3189
 20
4.1324
 30
0.0000
 11
29.8189
 21
4.1324
 31
0.0000
  0
LINE
  8
22
 10
29.8189
 20
4.1324
 30
0.0000
 11
31.3189
 21
4.1324
 31
0.0000
  0
LINE
  8
22
 10
31.3189
 20
4.1324
 30
0.0000
 11
32.8189
 21
4.1324
 31
0.0000
  0
LINE
  8
22
 10
32.8189
 20
4.1324
 30
0.0000
 11
34.3189
 21
4.1324
 31
0.0000
  0
LINE
  8
22
 10
34.3189
 20
4.1324
 30
0.0000
 11
35.8189
 21
4.1324
 31
0.0000
  0
LINE
  8
22
 10
35.8189
 20
4.1324
 30
0.0000
 11
37.3189
 21
4.1324
 31
0.0000
  0
LINE
  8
22
 10
37.3189
 20
4.1324
 30
0.0000
 11
38.8189
 21
4.1324
 31
0.0000
  0
LINE
  8
22
 10
38.8189
 20
4.1324
 30
0.0000
 11
40.3189
 21
4.1324
 31
0.0000
  0
LINE
  8
22
 10
40.3189
 20
4.1324
 30
0.0000
 11
41.5689
 21
4.1324
 31
0.0000
  0
LINE
  8
22
 10
41.5689
 20
4.1324
 30
0.0000
 11
41.5689
 21
-0.7676
 31
0.0000
  0
LINE
  8
22
 10
30.4652
 20
1.2263
 30
0.0000
 11
30.4652
 21
-1.7737
 31
0.0000
  0
LINE
  8
22
 10
30.4652
 20
-1.7737
 30
0.0000
 11
30.6652
 21
-1.7737
 31
0.0000
  0
LINE
  8
22
 10
30.6652
 20
-1.7737
 30
0.0000
 11
30.6652
 21
1.2263
 31
0.0000
  0
LINE
  8
22
 10
36.4652
 20
1.2263
 30
0.0000
 11
36.4652
 21
-1.7737
 31
0.0000
  0
LINE
  8
22
 10
36.4652
 20
-1.7737
 30
0.0000
 11
36.6652
 21
-1.7737
 31
0.0000
  0
LINE
  8
22
 10
36.6652
 20
-1.7737
 30
0.0000
 11
36.6652
 21
1.2263
 31
0.0000
  0
LINE
  8
22
 10
33.3652
 20
1.2263
 30
0.0000
 11
33.3652
 21
-1.7737
 31
0.0000
  0
LINE
  8
22
 10
33.3652
 20
-1.7737
 30
0.0000
 11
33.4652
 21
-1.7737
 31
0.0000
  0
LINE
  8
22
 10
33.4652
 20
-1.7737
 30
0.0000
 11
33.4652
 21
1.2263
 31
0.0000
  0
LINE
  8
22
 10
33.4652
 20
1.2263
 30
0.0000
 11
33.6652
 21
1.2263
 31
0.0000
  0
LINE
  8
22
 10
33.6652
 20
1.2263
 30
0.0000
 11
33.6652
 21
-1.7737
 31
0.0000
  0
LINE
  8
22
 10
33.6652
 20
-1.7737
 30
0.0000
 11
33.7652
 21
-1.7737
 31
0.0000
  0
LINE
  8
22
 10
33.7652
 20
-1.7737
 30
0.0000
 11
33.7652
 21
1.2263
 31
0.0000
  0
LINE
  8
22
 10
39.3652
 20
1.2263
 30
0.0000
 11
39.3652
 21
-1.7737
 31
0.0000
  0
LINE
  8
22
 10
39.3652
 20
-1.7737
 30
0.0000
 11
39.4652
 21
-1.7737
 31
0.0000
  0
LINE
  8
22
 10
39.4652
 20
-1.7737
 30
0.0000
 11
39.4652
 21
1.2263
 31
0.0000
  0
LINE
  8
22
 10
39.4652
 20
1.2263
 30
0.0000
 11
39.6652
 21
1.2263
 31
0.0000
  0
LINE
  8
22
 10
39.6652
 20
1.2263
 30
0.0000
 11
39.6652
 21
-1.7737
 31
0.0000
  0
LINE
  8
22
 10
39.6652
 20
-1.7737
 30
0.0000
 11
39.7652
 21
-1.7737
 31
0.0000
  0
LINE
  8
22
 10
39.7652
 20
-1.7737
 30
0.0000
 11
39.7652
 21
1.2263
 31
0.0000
  0
LINE
  8
22
 10
41.5689
 20
-0.7676
 30
0.0000
 11
40.6689
 21
-0.7676
 31
0.0000
  0
LINE
  8
22
 10
40.6689
 20
-0.7676
 30
0.0000
 11
40.6689
 21
1.2324
 31
0.0000
  0
LINE
  8
22
 10
40.6689
 20
1.2324
 30
0.0000
 11
39.7689
 21
1.2324
 31
0.0000
  0
LINE
  8
22
 10
30.4689
 20
1.2324
 30
0.0000
 11
29.2689
 21
1.2324
 31
0.0000
  0
LINE
  8
22
 10
29.2689
 20
1.2324
 30
0.0000
 11
29.2689
 21
-0.7676
 31
0.0000
  0
LINE
  8
22
 10
29.2689
 20
-0.7676
 30
0.0000
 11
28.8689
 21
-0.7676
 31
0.0000
  0
LINE
  8
22
 10
30.6652
 20
1.2263
 30
0.0000
 11
31.8152
 21
1.2263
 31
0.0000
  0
LINE
  8
22
 10
32.2152
 20
1.2263
 30
0.0000
 11
33.3652
 21
1.2263
 31
0.0000
  0
LINE
  8
22
 10
31.8152
 20
1.2263
 30
0.0000
 11
31.8152
 21
-0.7737
 31
0.0000
  0
LINE
  8
22
 10
31.8152
 20
-0.7737
 30
0.0000
 11
32.2152
 21
-0.7737
 31
0.0000
  0
LINE
  8
22
 10
32.2152
 20
-0.7737
 30
0.0000
 11
32.2152
 21
1.2263
 31
0.0000
  0
LINE
  8
22
 10
33.7652
 20
1.2263
 30
0.0000
 11
34.7652
 21
1.2263
 31
0.0000
  0
LINE
  8
22
 10
35.1652
 20
1.2263
 30
0.0000
 11
36.4652
 21
1.2263
 31
0.0000
  0
LINE
  8
22
 10
34.7652
 20
1.2263
 30
0.0000
 11
34.7652
 21
-0.7737
 31
0.0000
  0
LINE
  8
22
 10
34.7652
 20
-0.7737
 30
0.0000
 11
35.1652
 21
-0.7737
 31
0.0000
  0
LINE
  8
22
 10
35.1652
 20
-0.7737
 30
0.0000
 11
35.1652
 21
1.2263
 31
0.0000
  0
LINE
  8
22
 10
36.6652
 20
1.2263
 30
0.0000
 11
37.7152
 21
1.2263
 31
0.0000
  0
LINE
  8
22
 10
38.1152
 20
1.2263
 30
0.0000
 11
39.3652
 21
1.2263
 31
0.0000
  0
LINE
  8
22
 10
37.7152
 20
1.2263
 30
0.0000
 11
37.7152
 21
-0.7737
 31
0.0000
  0
LINE
  8
22
 10
37.7152
 20
-0.7737
 30
0.0000
 11
38.1152
 21
-0.7737
 31
0.0000
  0
LINE
  8
22
 10
38.1152
 20
-0.7737
 30
0.0000
 11
38.1152
 21
1.2263
 31
0.0000
  0
LINE
  8
22
 10
27.4689
 20
-1.4676
 30
0.0000
 11
27.5189
 21
-1.2676
 31
0.0000
  0
ARC
  8
22
 10
27.3064
 20
-1.2145
 30
0.0000
 40
0.2190
 50
345.9638
 51
42.1087
  0
LINE
  8
22
 10
27.6689
 20
-1.4676
 30
0.0000
 11
27.6189
 21
-1.2676
 31
0.0000
  0
ARC
  8
22
 10
27.8314
 20
-1.2145
 30
0.0000
 40
0.2190
 50
137.8913
 51
194.0362
  0
LINE
  8
22
 10
33.6689
 20
-1.4676
 30
0.0000
 11
33.6189
 21
-1.2676
 31
0.0000
  0
ARC
  8
22
 10
33.8314
 20
-1.2145
 30
0.0000
 40
0.2190
 50
137.8913
 51
194.0362
  0
LINE
  8
22
 10
33.4689
 20
-1.4676
 30
0.0000
 11
33.5189
 21
-1.2676
 31
0.0000
  0
ARC
  8
22
 10
33.3064
 20
-1.2145
 30
0.0000
 40
0.2190
 50
345.9638
 51
42.1087
  0
LINE
  8
22
 10
39.4689
 20
-1.5176
 30
0.0000
 11
39.5189
 21
-1.3176
 31
0.0000
  0
ARC
  8
22
 10
39.3064
 20
-1.2645
 30
0.0000
 40
0.2190
 50
345.9638
 51
42.1087
  0
LINE
  8
22
 10
39.6689
 20
-1.5176
 30
0.0000
 11
39.6189
 21
-1.3176
 31
0.0000
  0
ARC
  8
22
 10
39.8314
 20
-1.2645
 30
0.0000
 40
0.2190
 50
137.8913
 51
194.0362
  0
LINE
  8
22
 10
23.8189
 20
4.1324
 30
0.0000
 11
23.8189
 21
4.6324
 31
0.0000
  0
LINE
  8
22
 10
23.8189
 20
4.6324
 30
0.0000
 11
25.3189
 21
4.6324
 31
0.0000
  0
LINE
  8
22
 10
25.3189
 20
4.6324
 30
0.0000
 11
25.3189
 21
4.1324
 31
0.0000
  0
LINE
  8
22
 10
26.8189
 20
4.1324
 30
0.0000
 11
26.8189
 21
4.6324
 31
0.0000
  0
LINE
  8
22
 10
26.8189
 20
4.6324
 30
0.0000
 11
28.3189
 21
4.6324
 31
0.0000
  0
LINE
  8
22
 10
28.3189
 20
4.6324
 30
0.0000
 11
28.3189
 21
4.1324
 31
0.0000
  0
LINE
  8
22
 10
29.8189
 20
4.1324
 30
0.0000
 11
29.8189
 21
4.6324
 31
0.0000
  0
LINE
  8
22
 10
29.8189
 20
4.6324
 30
0.0000
 11
31.3189
 21
4.6324
 31
0.0000
  0
LINE
  8
22
 10
31.3189
 20
4.6324
 30
0.0000
 11
31.3189
 21
4.1324
 31
0.0000
  0
LINE
  8
22
 10
32.8189
 20
4.1324
 30
0.0000
 11
32.8189
 21
4.6324
 31
0.0000
  0
LINE
  8
22
 10
32.8189
 20
4.6324
 30
0.0000
 11
34.3189
 21
4.6324
 31
0.0000
  0
LINE
  8
22
 10
34.3189
 20
4.6324
 30
0.0000
 11
34.3189
 21
4.1324
 31
0.0000
  0
LINE
  8
22
 10
35.8189
 20
4.1324
 30
0.0000
 11
35.8189
 21
4.6324
 31
0.0000
  0
LINE
  8
22
 10
35.8189
 20
4.6324
 30
0.0000
 11
37.3189
 21
4.6324
 31
0.0000
  0
LINE
  8
22
 10
37.3189
 20
4.6324
 30
0.0000
 11
37.3189
 21
4.1324
 31
0.0000
  0
LINE
  8
22
 10
38.8189
 20
4.1324
 30
0.0000
 11
38.8189
 21
4.6324
 31
0.0000
  0
LINE
  8
22
 10
38.8189
 20
4.6324
 30
0.0000
 11
40.3189
 21
4.6324
 31
0.0000
  0
LINE
  8
22
 10
40.3189
 20
4.6324
 30
0.0000
 11
40.3189
 21
4.1324
 31
0.0000
  0
POINT
  8
24
 10
69.6386
 20
34.6264
 30
0.0000
  0
POINT
  8
24
 10
68.5572
 20
32.4300
 30
0.0000
  0
POINT
  8
24
 10
66.7336
 20
29.5587
 30
0.0000
  0
POINT
  8
24
 10
65.2868
 20
26.8040
 30
0.0000
  0
POINT
  8
24
 10
64.2773
 20
24.3259
 30
0.0000
  0
POINT
  8
24
 10
63.2632
 20
22.2166
 30
0.0000
  0
POINT
  8
24
 10
70.9453
 20
33.9862
 30
0.0000
  0
POINT
  8
24
 10
69.8725
 20
31.8182
 30
0.0000
  0
POINT
  8
24
 10
68.4409
 20
29.3328
 30
0.0000
  0
POINT
  8
24
 10
66.9918
 20
26.5886
 30
0.0000
  0
POINT
  8
24
 10
65.4840
 20
23.6856
 30
0.0000
  0
POINT
  8
24
 10
64.4699
 20
21.5764
 30
0.0000
  0
POINT
  8
24
 10
24.6960
 20
33.4371
 30
0.0000
  0
POINT
  8
24
 10
23.7672
 20
31.5842
 30
0.0000
  0
POINT
  8
24
 10
22.7972
 20
29.4139
 30
0.0000
  0
POINT
  8
24
 10
20.1634
 20
23.5923
 30
0.0000
  0
POINT
  8
24
 10
19.2346
 20
21.7395
 30
0.0000
  0
POINT
  8
24
 10
18.3058
 20
19.8866
 30
0.0000
  0
POINT
  8
24
 10
23.4595
 20
34.0676
 30
0.0000
  0
POINT
  8
24
 10
22.5307
 20
32.2147
 30
0.0000
  0
POINT
  8
24
 10
21.6019
 20
30.0444
 30
0.0000
  0
POINT
  8
24
 10
18.9268
 20
24.2228
 30
0.0000
  0
POINT
  8
24
 10
17.9980
 20
22.3700
 30
0.0000
  0
POINT
  8
24
 10
17.0692
 20
20.5171
 30
0.0000
  0
POINT
  8
24
 10
41.9604
 20
8.3465
 30
0.0000
  0
POINT
  8
24
 10
40.0554
 20
8.3465
 30
0.0000
  0
POINT
  8
24
 10
38.1504
 20
8.3465
 30
0.0000
  0
POINT
  8
24
 10
34.6044
 20
8.2226
 30
0.0000
  0
POINT
  8
24
 10
32.5407
 20
8.2226
 30
0.0000
  0
POINT
  8
24
 10
30.6357
 20
8.2226
 30
0.0000
  0
POINT
  8
24
 10
41.9604
 20
6.9678
 30
0.0000
  0
POINT
  8
24
 10
40.0554
 20
6.9678
 30
0.0000
  0
POINT
  8
24
 10
38.1504
 20
6.9678
 30
0.0000
  0
POINT
  8
24
 10
34.6044
 20
6.8351
 30
0.0000
  0
POINT
  8
24
 10
32.5407
 20
6.8351
 30
0.0000
  0
POINT
  8
24
 10
30.6357
 20
6.8351
 30
0.0000
  0
POINT
  8
24
 10
65.7945
 20
27.7943
 30
0.0000
  0
POINT
  8
24
 10
67.2383
 20
30.5429
 30
0.0000
  0
POINT
  8
24
 10
14.6617
 20
9.4491
 30
0.0000
  0
LINE
  8
22
 10
14.6617
 20
8.7491
 30
0.0000
 11
14.6617
 21
-2.7009
 31
0.0000
  0
LINE
  8
22
 10
22.5617
 20
1.8991
 30
0.0000
 11
22.5617
 21
8.7991
 31
0.0000
  0
LINE
  8
22
 10
14.9617
 20
9.0491
 30
0.0000
 11
15.9617
 21
9.0491
 31
0.0000
  0
LINE
  8
22
 10
15.9617
 20
9.0491
 30
0.0000
 11
17.2117
 21
9.0491
 31
0.0000
  0
LINE
  8
22
 10
17.2117
 20
9.0491
 30
0.0000
 11
19.9617
 21
9.0491
 31
0.0000
  0
LINE
  8
22
 10
19.9617
 20
9.0491
 30
0.0000
 11
21.2617
 21
9.0491
 31
0.0000
  0
LINE
  8
22
 10
21.2617
 20
9.0491
 30
0.0000
 11
22.3117
 21
9.0491
 31
0.0000
  0
LINE
  8
22
 10
14.9617
 20
1.8991
 30
0.0000
 11
16.5117
 21
1.8991
 31
0.0000
  0
LINE
  8
22
 10
16.7117
 20
1.8991
 30
0.0000
 11
18.3117
 21
1.8991
 31
0.0000
  0
LINE
  8
22
 10
20.8117
 20
1.8991
 30
0.0000
 11
22.5617
 21
1.8991
 31
0.0000
  0
LINE
  8
22
 10
16.5117
 20
1.8991
 30
0.0000
 11
16.5117
 21
-2.3509
 31
0.0000
  0
LINE
  8
22
 10
16.5117
 20
-2.3509
 30
0.0000
 11
16.7117
 21
-2.3509
 31
0.0000
  0
LINE
  8
22
 10
16.7117
 20
-2.3509
 30
0.0000
 11
16.7117
 21
1.8991
 31
0.0000
  0
LINE
  8
22
 10
20.4117
 20
1.8991
 30
0.0000
 11
20.4117
 21
-2.4009
 31
0.0000
  0
LINE
  8
22
 10
20.4117
 20
-2.4009
 30
0.0000
 11
20.5117
 21
-2.4009
 31
0.0000
  0
LINE
  8
22
 10
20.5117
 20
-2.4009
 30
0.0000
 11
20.5117
 21
1.7991
 31
0.0000
  0
LINE
  8
22
 10
20.5117
 20
1.7991
 30
0.0000
 11
20.7117
 21
1.7991
 31
0.0000
  0
LINE
  8
22
 10
20.7117
 20
1.7991
 30
0.0000
 11
20.7117
 21
-2.4009
 31
0.0000
  0
LINE
  8
22
 10
20.7117
 20
-2.4009
 30
0.0000
 11
20.8117
 21
-2.4009
 31
0.0000
  0
LINE
  8
22
 10
20.8117
 20
-2.4009
 30
0.0000
 11
20.8117
 21
1.8991
 31
0.0000
  0
LINE
  8
22
 10
14.9617
 20
1.8991
 30
0.0000
 11
14.9617
 21
-2.6509
 31
0.0000
  0
ARC
  8
22
 10
14.8117
 20
-2.6509
 30
0.0000
 40
0.1500
 50
270.0000
 51
0.0000
  0
LINE
  8
22
 10
14.8117
 20
-2.8009
 30
0.0000
 11
14.7617
 21
-2.8009
 31
0.0000
  0
ARC
  8
22
 10
14.7617
 20
-2.7009
 30
0.0000
 40
0.1000
 50
180.0000
 51
270.0000
  0
LINE
  8
22
 10
18.6117
 20
1.8991
 30
0.0000
 11
18.6117
 21
-2.6509
 31
0.0000
  0
ARC
  8
22
 10
18.4867
 20
-2.6759
 30
0.0000
 40
0.1275
 50
281.3099
 51
11.3099
  0
LINE
  8
22
 10
18.5117
 20
-2.8009
 30
0.0000
 11
18.4617
 21
-2.8009
 31
0.0000
  0
ARC
  8
22
 10
18.4367
 20
-2.6759
 30
0.0000
 40
0.1275
 50
191.3099
 51
281.3099
  0
LINE
  8
22
 10
18.3117
 20
-2.7009
 30
0.0000
 11
18.3117
 21
1.8991
 31
0.0000
  0
LINE
  8
22
 10
18.6117
 20
1.8991
 30
0.0000
 11
20.4117
 21
1.8991
 31
0.0000
  0
ARC
  8
22
 10
14.9617
 20
8.7491
 30
0.0000
 40
0.3000
 50
90.0000
 51
180.0000
  0
ARC
  8
22
 10
22.3117
 20
8.7991
 30
0.0000
 40
0.2500
 50
0.0000
 51
90.0000
  0
LINE
  8
22
 10
15.9617
 20
9.0491
 30
0.0000
 11
15.9617
 21
9.4491
 31
0.0000
  0
LINE
  8
22
 10
15.9617
 20
9.4491
 30
0.0000
 11
17.2117
 21
9.4491
 31
0.0000
  0
LINE
  8
22
 10
17.2117
 20
9.4491
 30
0.0000
 11
17.2117
 21
9.0491
 31
0.0000
  0
LINE
  8
22
 10
19.9617
 20
9.0491
 30
0.0000
 11
19.9617
 21
9.4991
 31
0.0000
  0
LINE
  8
22
 10
19.9617
 20
9.4991
 30
0.0000
 11
21.2617
 21
9.4991
 31
0.0000
  0
LINE
  8
22
 10
21.2617
 20
9.4991
 30
0.0000
 11
21.2617
 21
9.0491
 31
0.0000
  0
POINT
  8
24
 10
68.6991
 20
37.9700
 30
0.0000
  0
LINE
  8
22
 10
69.3250
 20
37.6565
 30
0.0000
 11
79.5631
 21
32.5297
 31
0.0000
  0
LINE
  8
22
 10
78.9873
 20
41.6532
 30
0.0000
 11
72.8176
 21
44.7427
 31
0.0000
  0
LINE
  8
22
 10
69.1911
 20
38.0591
 30
0.0000
 11
69.6388
 21
38.9533
 31
0.0000
  0
LINE
  8
22
 10
69.6388
 20
38.9533
 30
0.0000
 11
70.1985
 21
40.0709
 31
0.0000
  0
LINE
  8
22
 10
70.1985
 20
40.0709
 30
0.0000
 11
71.4299
 21
42.5299
 31
0.0000
  0
LINE
  8
22
 10
71.4299
 20
42.5299
 30
0.0000
 11
72.0120
 21
43.6923
 31
0.0000
  0
LINE
  8
22
 10
72.0120
 20
43.6923
 30
0.0000
 11
72.4821
 21
44.6311
 31
0.0000
  0
LINE
  8
22
 10
75.5843
 20
34.8576
 30
0.0000
 11
76.2783
 21
36.2436
 31
0.0000
  0
LINE
  8
22
 10
76.3679
 20
36.4224
 30
0.0000
 11
77.0843
 21
37.8530
 31
0.0000
  0
LINE
  8
22
 10
78.2037
 20
40.0884
 30
0.0000
 11
78.9873
 21
41.6532
 31
0.0000
  0
LINE
  8
22
 10
76.2783
 20
36.2436
 30
0.0000
 11
80.0785
 21
34.3406
 31
0.0000
  0
LINE
  8
22
 10
80.0785
 20
34.3406
 30
0.0000
 11
80.1680
 21
34.5194
 31
0.0000
  0
LINE
  8
22
 10
80.1680
 20
34.5194
 30
0.0000
 11
76.3679
 21
36.4224
 31
0.0000
  0
LINE
  8
22
 10
78.0246
 20
39.7308
 30
0.0000
 11
81.8694
 21
37.8054
 31
0.0000
  0
LINE
  8
22
 10
81.8694
 20
37.8054
 30
0.0000
 11
81.9142
 21
37.8948
 31
0.0000
  0
LINE
  8
22
 10
81.9142
 20
37.8948
 30
0.0000
 11
78.1588
 21
39.7754
 31
0.0000
  0
LINE
  8
22
 10
78.1588
 20
39.7754
 30
0.0000
 11
78.2483
 21
39.9542
 31
0.0000
  0
LINE
  8
22
 10
78.2483
 20
39.9542
 30
0.0000
 11
82.0038
 21
38.0736
 31
0.0000
  0
LINE
  8
22
 10
82.0038
 20
38.0736
 30
0.0000
 11
82.0485
 21
38.1631
 31
0.0000
  0
LINE
  8
22
 10
82.0485
 20
38.1631
 30
0.0000
 11
78.2037
 21
40.0884
 31
0.0000
  0
LINE
  8
22
 10
75.5843
 20
34.8576
 30
0.0000
 11
79.6527
 21
32.8203
 31
0.0000
  0
ARC
  8
22
 10
79.5855
 20
32.6862
 30
0.0000
 40
0.1500
 50
333.4000
 51
63.4000
  0
LINE
  8
22
 10
79.7197
 20
32.6190
 30
0.0000
 11
79.6973
 21
32.5743
 31
0.0000
  0
ARC
  8
22
 10
79.6078
 20
32.6191
 30
0.0000
 40
0.1000
 50
243.4005
 51
333.4005
  0
LINE
  8
22
 10
77.2186
 20
38.1213
 30
0.0000
 11
81.2870
 21
36.0840
 31
0.0000
  0
ARC
  8
22
 10
81.2534
 20
35.9610
 30
0.0000
 40
0.1275
 50
344.7100
 51
74.7100
  0
LINE
  8
22
 10
81.3764
 20
35.9274
 30
0.0000
 11
81.3540
 21
35.8827
 31
0.0000
  0
ARC
  8
22
 10
81.2310
 20
35.9163
 30
0.0000
 40
0.1275
 50
254.7100
 51
344.7100
  0
LINE
  8
22
 10
81.1974
 20
35.7933
 30
0.0000
 11
77.0843
 21
37.8530
 31
0.0000
  0
LINE
  8
22
 10
77.2186
 20
38.1213
 30
0.0000
 11
78.0246
 21
39.7308
 31
0.0000
  0
ARC
  8
22
 10
69.4593
 20
37.9248
 30
0.0000
 40
0.3000
 50
153.4000
 51
243.4000
  0
ARC
  8
22
 10
72.7057
 20
44.5192
 30
0.0000
 40
0.2500
 50
63.4000
 51
153.4000
  0
LINE
  8
22
 10
69.6388
 20
38.9533
 30
0.0000
 11
69.2812
 21
39.1324
 31
0.0000
  0
LINE
  8
22
 10
69.2812
 20
39.1324
 30
0.0000
 11
69.8409
 21
40.2500
 31
0.0000
  0
LINE
  8
22
 10
69.8409
 20
40.2500
 30
0.0000
 11
70.1985
 21
40.0709
 31
0.0000
  0
LINE
  8
22
 10
71.4299
 20
42.5299
 30
0.0000
 11
71.0275
 21
42.7314
 31
0.0000
  0
LINE
  8
22
 10
71.0275
 20
42.7314
 30
0.0000
 11
71.6096
 21
43.8938
 31
0.0000
  0
LINE
  8
22
 10
71.6096
 20
43.8938
 30
0.0000
 11
72.0120
 21
43.6923
 31
0.0000
  0
POINT
  8
24
 10
72.5675
 20
44.4782
 30
0.0000
  0
LINE
  8
22
 10
72.5675
 20
45.1782
 30
0.0000
 11
72.5675
 21
56.6282
 31
0.0000
  0
LINE
  8
22
 10
64.6675
 20
52.0282
 30
0.0000
 11
64.6675
 21
45.1282
 31
0.0000
  0
LINE
  8
22
 10
72.2675
 20
44.8782
 30
0.0000
 11
71.2675
 21
44.8782
 31
0.0000
  0
LINE
  8
22
 10
71.2675
 20
44.8782
 30
0.0000
 11
70.0175
 21
44.8782
 31
0.0000
  0
LINE
  8
22
 10
70.0175
 20
44.8782
 30
0.0000
 11
67.2675
 21
44.8782
 31
0.0000
  0
LINE
  8
22
 10
67.2675
 20
44.8782
 30
0.0000
 11
65.9675
 21
44.8782
 31
0.0000
  0
LINE
  8
22
 10
65.9675
 20
44.8782
 30
0.0000
 11
64.9175
 21
44.8782
 31
0.0000
  0
LINE
  8
22
 10
72.2675
 20
52.0282
 30
0.0000
 11
70.7175
 21
52.0282
 31
0.0000
  0
LINE
  8
22
 10
70.5175
 20
52.0282
 30
0.0000
 11
68.9175
 21
52.0282
 31
0.0000
  0
LINE
  8
22
 10
66.4175
 20
52.0282
 30
0.0000
 11
64.6675
 21
52.0282
 31
0.0000
  0
LINE
  8
22
 10
70.7175
 20
52.0282
 30
0.0000
 11
70.7175
 21
56.2782
 31
0.0000
  0
LINE
  8
22
 10
70.7175
 20
56.2782
 30
0.0000
 11
70.5175
 21
56.2782
 31
0.0000
  0
LINE
  8
22
 10
70.5175
 20
56.2782
 30
0.0000
 11
70.5175
 21
52.0282
 31
0.0000
  0
LINE
  8
22
 10
66.8175
 20
52.0282
 30
0.0000
 11
66.8175
 21
56.3282
 31
0.0000
  0
LINE
  8
22
 10
66.8175
 20
56.3282
 30
0.0000
 11
66.7175
 21
56.3282
 31
0.0000
  0
LINE
  8
22
 10
66.7175
 20
56.3282
 30
0.0000
 11
66.7175
 21
52.1282
 31
0.0000
  0
LINE
  8
22
 10
66.7175
 20
52.1282
 30
0.0000
 11
66.5175
 21
52.1282
 31
0.0000
  0
LINE
  8
22
 10
66.5175
 20
52.1282
 30
0.0000
 11
66.5175
 21
56.3282
 31
0.0000
  0
LINE
  8
22
 10
66.5175
 20
56.3282
 30
0.0000
 11
66.4175
 21
56.3282
 31
0.0000
  0
LINE
  8
22
 10
66.4175
 20
56.3282
 30
0.0000
 11
66.4175
 21
52.0282
 31
0.0000
  0
LINE
  8
22
 10
72.2675
 20
52.0282
 30
0.0000
 11
72.2675
 21
56.5782
 31
0.0000
  0
ARC
  8
22
 10
72.4175
 20
56.5782
 30
0.0000
 40
0.1500
 50
90.0000
 51
180.0000
  0
LINE
  8
22
 10
72.4175
 20
56.7282
 30
0.0000
 11
72.4675
 21
56.7282
 31
0.0000
  0
ARC
  8
22
 10
72.4675
 20
56.6282
 30
0.0000
 40
0.1000
 50
0.0000
 51
90.0000
  0
LINE
  8
22
 10
68.6175
 20
52.0282
 30
0.0000
 11
68.6175
 21
56.5782
 31
0.0000
  0
ARC
  8
22
 10
68.7425
 20
56.6032
 30
0.0000
 40
0.1275
 50
101.3099
 51
191.3099
  0
LINE
  8
22
 10
68.7175
 20
56.7282
 30
0.0000
 11
68.7675
 21
56.7282
 31
0.0000
  0
ARC
  8
22
 10
68.7925
 20
56.6032
 30
0.0000
 40
0.1275
 50
11.3099
 51
101.3099
  0
LINE
  8
22
 10
68.9175
 20
56.6282
 30
0.0000
 11
68.9175
 21
52.0282
 31
0.0000
  0
LINE
  8
22
 10
68.6175
 20
52.0282
 30
0.0000
 11
66.8175
 21
52.0282
 31
0.0000
  0
ARC
  8
22
 10
72.2675
 20
45.1782
 30
0.0000
 40
0.3000
 50
270.0000
 51
0.0000
  0
ARC
  8
22
 10
64.9175
 20
45.1282
 30
0.0000
 40
0.2500
 50
180.0000
 51
270.0000
  0
LINE
  8
22
 10
71.2675
 20
44.8782
 30
0.0000
 11
71.2675
 21
44.4782
 31
0.0000
  0
LINE
  8
22
 10
71.2675
 20
44.4782
 30
0.0000
 11
70.0175
 21
44.4782
 31
0.0000
  0
LINE
  8
22
 10
70.0175
 20
44.4782
 30
0.0000
 11
70.0175
 21
44.8782
 31
0.0000
  0
LINE
  8
22
 10
67.2675
 20
44.8782
 30
0.0000
 11
67.2675
 21
44.4282
 31
0.0000
  0
LINE
  8
22
 10
67.2675
 20
44.4282
 30
0.0000
 11
65.9675
 21
44.4282
 31
0.0000
  0
LINE
  8
22
 10
65.9675
 20
44.4282
 30
0.0000
 11
65.9675
 21
44.8782
 31
0.0000
  0
POINT
  8
24
 10
18.5157
 20
15.9427
 30
0.0000
  0
LINE
  8
22
 10
17.8898
 20
16.2562
 30
0.0000
 11
7.6517
 21
21.3830
 31
0.0000
  0
LINE
  8
22
 10
8.2275
 20
12.2595
 30
0.0000
 11
14.3972
 21
9.1700
 31
0.0000
  0
LINE
  8
22
 10
18.0237
 20
15.8536
 30
0.0000
 11
17.5759
 21
14.9594
 31
0.0000
  0
LINE
  8
22
 10
17.5759
 20
14.9594
 30
0.0000
 11
17.0162
 21
13.8418
 31
0.0000
  0
LINE
  8
22
 10
17.0162
 20
13.8418
 30
0.0000
 11
15.7849
 21
11.3828
 31
0.0000
  0
LINE
  8
22
 10
15.7849
 20
11.3828
 30
0.0000
 11
15.2028
 21
10.2204
 31
0.0000
  0
LINE
  8
22
 10
15.2028
 20
10.2204
 30
0.0000
 11
14.7327
 21
9.2816
 31
0.0000
  0
LINE
  8
22
 10
11.6305
 20
19.0551
 30
0.0000
 11
10.9365
 21
17.6691
 31
0.0000
  0
LINE
  8
22
 10
10.8469
 20
17.4903
 30
0.0000
 11
10.1305
 21
16.0597
 31
0.0000
  0
LINE
  8
22
 10
9.0111
 20
13.8243
 30
0.0000
 11
8.2275
 21
12.2595
 31
0.0000
  0
LINE
  8
22
 10
10.9365
 20
17.6691
 30
0.0000
 11
7.1363
 21
19.5721
 31
0.0000
  0
LINE
  8
22
 10
7.1363
 20
19.5721
 30
0.0000
 11
7.0467
 21
19.3933
 31
0.0000
  0
LINE
  8
22
 10
7.0467
 20
19.3933
 30
0.0000
 11
10.8469
 21
17.4903
 31
0.0000
  0
LINE
  8
22
 10
9.1902
 20
14.1819
 30
0.0000
 11
5.3453
 21
16.1073
 31
0.0000
  0
LINE
  8
22
 10
5.3453
 20
16.1073
 30
0.0000
 11
5.3006
 21
16.0179
 31
0.0000
  0
LINE
  8
22
 10
5.3006
 20
16.0179
 30
0.0000
 11
9.0560
 21
14.1373
 31
0.0000
  0
LINE
  8
22
 10
9.0560
 20
14.1373
 30
0.0000
 11
8.9664
 21
13.9585
 31
0.0000
  0
LINE
  8
22
 10
8.9664
 20
13.9585
 30
0.0000
 11
5.2110
 21
15.8391
 31
0.0000
  0
LINE
  8
22
 10
5.2110
 20
15.8391
 30
0.0000
 11
5.1662
 21
15.7496
 31
0.0000
  0
LINE
  8
22
 10
5.1662
 20
15.7496
 30
0.0000
 11
9.0111
 21
13.8243
 31
0.0000
  0
LINE
  8
22
 10
11.6305
 20
19.0551
 30
0.0000
 11
7.5621
 21
21.0924
 31
0.0000
  0
ARC
  8
22
 10
7.6292
 20
21.2265
 30
0.0000
 40
0.1500
 50
153.4000
 51
243.4000
  0
LINE
  8
22
 10
7.4951
 20
21.2937
 30
0.0000
 11
7.5175
 21
21.3384
 31
0.0000
  0
ARC
  8
22
 10
7.6069
 20
21.2936
 30
0.0000
 40
0.1000
 50
63.4005
 51
153.4005
  0
LINE
  8
22
 10
9.9962
 20
15.7914
 30
0.0000
 11
5.9278
 21
17.8287
 31
0.0000
  0
ARC
  8
22
 10
5.9614
 20
17.9517
 30
0.0000
 40
0.1275
 50
164.7100
 51
254.7100
  0
LINE
  8
22
 10
5.8384
 20
17.9853
 30
0.0000
 11
5.8608
 21
18.0300
 31
0.0000
  0
ARC
  8
22
 10
5.9838
 20
17.9964
 30
0.0000
 40
0.1275
 50
74.7100
 51
164.7100
  0
LINE
  8
22
 10
6.0174
 20
18.1194
 30
0.0000
 11
10.1305
 21
16.0597
 31
0.0000
  0
LINE
  8
22
 10
9.9962
 20
15.7914
 30
0.0000
 11
9.1902
 21
14.1819
 31
0.0000
  0
ARC
  8
22
 10
17.7554
 20
15.9879
 30
0.0000
 40
0.3000
 50
333.4000
 51
63.4000
  0
ARC
  8
22
 10
14.5091
 20
9.3935
 30
0.0000
 40
0.2500
 50
243.4000
 51
333.4000
  0
LINE
  8
22
 10
17.5759
 20
14.9594
 30
0.0000
 11
17.9336
 21
14.7803
 31
0.0000
  0
LINE
  8
22
 10
17.9336
 20
14.7803
 30
0.0000
 11
17.3739
 21
13.6627
 31
0.0000
  0
LINE
  8
22
 10
17.3739
 20
13.6627
 30
0.0000
 11
17.0162
 21
13.8418
 31
0.0000
  0
LINE
  8
22
 10
15.7849
 20
11.3828
 30
0.0000
 11
16.1873
 21
11.1813
 31
0.0000
  0
LINE
  8
22
 10
16.1873
 20
11.1813
 30
0.0000
 11
15.6052
 21
10.0189
 31
0.0000
  0
LINE
  8
22
 10
15.6052
 20
10.0189
 30
0.0000
 11
15.2028
 21
10.2204
 31
0.0000
  0
ENDSEC
  0
EOF
