  0
SECTION
  2
HEADER
  9
$ACADVER
  1
AC1009
  9
$FILLMODE
 70
1
  9
$EXTMIN
 10
-3.6404
 20
-2.8034
 30
0.0000
  9
$EXTMAX
 10
106.6443
 20
76.6047
 30
0.0000
  0
ENDSEC
  0
SECTION
  2
TABLES
  0
TABLE
  2
LTYPE
 70
1
  0
LTYPE
  2
CONTINUOUS
 70
64
  3
Solid line
 72
65
 73
0
 40
0
  0
ENDTAB
  0
TABLE
  2
LAYER
 70
255
  0
LAYER
  2
31
 70
64
 62
253
  6
CONTINUOUS
  0
LAYER
  2
46
 70
64
 62
140
  6
CONTINUOUS
  0
ENDTAB
  0
ENDSEC
  0
SECTION
  2
BLOCKS
  0
BLOCK
  8
0
  2
RECT
 70
64
 10
0.0000
 20
0.0000
 30
0.0000
  3
RECT
  0
SOLID
  8
0
 10
-0.5000
 20
-0.5000
 30
0.0000
 11
0.5000
 21
-0.5000
 31
0.0000
 12
-0.5000
 22
0.5000
 32
0.0000
 13
0.5000
 23
0.5000
 33
0.0000
  0
ENDBLK
  8
0
  0
BLOCK
  8
0
  2
PIE
 70
64
 10
0.0000
 20
0.0000
 30
0.0000
  3
PIE
  0
POLYLINE
  8
0
 66
1
 10
0.0000
 20
0.0000
 30
0.0000
 40
0.5000
 41
0.5000
 70
0
  0
VERTEX
  8
0
 10
0.0000
 20
-0.2500
 30
0.0000
 42
1.0000
  0
VERTEX
  8
0
 10
0.0000
 20
0.2500
 30
0.0000
 42
1.0000
  0
VERTEX
  8
0
 10
0.0000
 20
-0.2500
 30
0.0000
  0
SEQEND
  8
0
  0
ENDBLK
  8
0
  0
BLOCK
  8
0
  2
OCTAGONP
 70
64
 10
0.0000
 20
0.0000
 30
0.0000
  3
OCTAGONP
  0
POLYLINE
  8
0
 66
1
 10
0.0000
 20
0.0000
 30
0.0000
 40
0.5000
 41
0.5000
 70
0
  0
VERTEX
  8
0
 10
-0.2500
 20
-0.1036
 30
0.0000
  0
VERTEX
  8
0
 10
-0.2500
 20
0.1036
 30
0.0000
  0
VERTEX
  8
0
 10
-0.1036
 20
0.2500
 30
0.0000
  0
VERTEX
  8
0
 10
0.1036
 20
0.2500
 30
0.0000
  0
VERTEX
  8
0
 10
0.2500
 20
0.1036
 30
0.0000
  0
VERTEX
  8
0
 10
0.2500
 20
-0.1036
 30
0.0000
  0
VERTEX
  8
0
 10
0.1036
 20
-0.2500
 30
0.0000
  0
VERTEX
  8
0
 10
-0.1036
 20
-0.2500
 30
0.0000
  0
VERTEX
  8
0
 10
-0.2500
 20
-0.1036
 30
0.0000
  0
VERTEX
  8
0
 10
-0.2500
 20
0.1036
 30
0.0000
  0
SEQEND
  8
0
  0
ENDBLK
  8
0
  0
BLOCK
  8
0
  2
SQUAREP
 70
64
 10
0.0000
 20
0.0000
 30
0.0000
  3
SQUAREP
  0
SOLID
  8
0
 10
-0.5000
 20
-0.5000
 30
0.0000
 11
0.5000
 21
-0.5000
 31
0.0000
 12
-0.5000
 22
0.5000
 32
0.0000
 13
0.5000
 23
0.5000
 33
0.0000
  0
ENDBLK
  8
0
  0
BLOCK
  8
0
  2
ROUNDP
 70
64
 10
0.0000
 20
0.0000
 30
0.0000
  3
ROUNDP
  0
POLYLINE
  8
0
 66
1
 10
0.0000
 20
0.0000
 30
0.0000
 40
0.5000
 41
0.5000
 70
0
  0
VERTEX
  8
0
 10
0.0000
 20
-0.2500
 30
0.0000
 42
1.0000
  0
VERTEX
  8
0
 10
0.0000
 20
0.2500
 30
0.0000
 42
1.0000
  0
VERTEX
  8
0
 10
0.0000
 20
-0.2500
 30
0.0000
  0
SEQEND
  8
0
  0
ENDBLK
  8
0
  0
BLOCK
  8
0
  2
ANNULUSP
 70
64
 10
0.0000
 20
0.0000
 30
0.0000
  3
ANNULUSP
  0
POLYLINE
  8
0
 66
1
 10
0.0000
 20
0.0000
 30
0.0000
 40
0.5000
 41
0.5000
 70
0
  0
VERTEX
  8
0
 10
0.0000
 20
-0.2500
 30
0.0000
 42
1.0000
  0
VERTEX
  8
0
 10
0.0000
 20
0.2500
 30
0.0000
 42
1.0000
  0
VERTEX
  8
0
 10
0.0000
 20
-0.2500
 30
0.0000
  0
SEQEND
  8
0
  0
ENDBLK
  8
0
  0
BLOCK
  8
0
  2
THERMALP
 70
64
 10
0.0000
 20
0.0000
 30
0.0000
  3
THERMALP
  0
POLYLINE
  8
0
 66
1
 10
0.0000
 20
0.0000
 30
0.0000
 40
0.1000
 41
0.1000
 70
0
  0
VERTEX
  8
0
 10
-0.2379
 20
0.4500
 30
0.0000
  0
VERTEX
  8
0
 10
0.2379
 20
0.4500
 30
0.0000
  0
SEQEND
  8
0
  0
POLYLINE
  8
0
 66
1
 10
0.0000
 20
0.0000
 30
0.0000
 40
0.0500
 41
0.0500
 70
0
  0
VERTEX
  8
0
 10
0.2379
 20
0.4250
 30
0.0000
 42
1.0000
  0
VERTEX
  8
0
 10
0.2379
 20
0.4750
 30
0.0000
  0
SEQEND
  8
0
  0
POLYLINE
  8
0
 66
1
 10
0.0000
 20
0.0000
 30
0.0000
 40
0.0500
 41
0.0500
 70
0
  0
VERTEX
  8
0
 10
-0.2379
 20
0.4750
 30
0.0000
 42
1.0000
  0
VERTEX
  8
0
 10
-0.2379
 20
0.4250
 30
0.0000
  0
SEQEND
  8
0
  0
POLYLINE
  8
0
 66
1
 10
0.0000
 20
0.0000
 30
0.0000
 40
0.1000
 41
0.1000
 70
0
  0
VERTEX
  8
0
 10
0.4500
 20
0.2379
 30
0.0000
  0
VERTEX
  8
0
 10
0.4500
 20
-0.2379
 30
0.0000
  0
SEQEND
  8
0
  0
POLYLINE
  8
0
 66
1
 10
0.0000
 20
0.0000
 30
0.0000
 40
0.0500
 41
0.0500
 70
0
  0
VERTEX
  8
0
 10
0.4250
 20
-0.2379
 30
0.0000
 42
1.0000
  0
VERTEX
  8
0
 10
0.4750
 20
-0.2379
 30
0.0000
  0
SEQEND
  8
0
  0
POLYLINE
  8
0
 66
1
 10
0.0000
 20
0.0000
 30
0.0000
 40
0.0500
 41
0.0500
 70
0
  0
VERTEX
  8
0
 10
0.4750
 20
0.2379
 30
0.0000
 42
1.0000
  0
VERTEX
  8
0
 10
0.4250
 20
0.2379
 30
0.0000
  0
SEQEND
  8
0
  0
POLYLINE
  8
0
 66
1
 10
0.0000
 20
0.0000
 30
0.0000
 40
0.1000
 41
0.1000
 70
0
  0
VERTEX
  8
0
 10
0.2379
 20
-0.4500
 30
0.0000
  0
VERTEX
  8
0
 10
-0.2379
 20
-0.4500
 30
0.0000
  0
SEQEND
  8
0
  0
POLYLINE
  8
0
 66
1
 10
0.0000
 20
0.0000
 30
0.0000
 40
0.0500
 41
0.0500
 70
0
  0
VERTEX
  8
0
 10
-0.2379
 20
-0.4250
 30
0.0000
 42
1.0000
  0
VERTEX
  8
0
 10
-0.2379
 20
-0.4750
 30
0.0000
  0
SEQEND
  8
0
  0
POLYLINE
  8
0
 66
1
 10
0.0000
 20
0.0000
 30
0.0000
 40
0.0500
 41
0.0500
 70
0
  0
VERTEX
  8
0
 10
0.2379
 20
-0.4750
 30
0.0000
 42
1.0000
  0
VERTEX
  8
0
 10
0.2379
 20
-0.4250
 30
0.0000
  0
SEQEND
  8
0
  0
POLYLINE
  8
0
 66
1
 10
0.0000
 20
0.0000
 30
0.0000
 40
0.1000
 41
0.1000
 70
0
  0
VERTEX
  8
0
 10
-0.4500
 20
-0.2379
 30
0.0000
  0
VERTEX
  8
0
 10
-0.4500
 20
0.2379
 30
0.0000
  0
SEQEND
  8
0
  0
POLYLINE
  8
0
 66
1
 10
0.0000
 20
0.0000
 30
0.0000
 40
0.0500
 41
0.0500
 70
0
  0
VERTEX
  8
0
 10
-0.4250
 20
0.2379
 30
0.0000
 42
1.0000
  0
VERTEX
  8
0
 10
-0.4750
 20
0.2379
 30
0.0000
  0
SEQEND
  8
0
  0
POLYLINE
  8
0
 66
1
 10
0.0000
 20
0.0000
 30
0.0000
 40
0.0500
 41
0.0500
 70
0
  0
VERTEX
  8
0
 10
-0.4750
 20
-0.2379
 30
0.0000
 42
1.0000
  0
VERTEX
  8
0
 10
-0.4250
 20
-0.2379
 30
0.0000
  0
SEQEND
  8
0
  0
ENDBLK
  8
0
  0
BLOCK
  8
0
  2
OCTAGONV
 70
64
 10
0.0000
 20
0.0000
 30
0.0000
  3
OCTAGONV
  0
POLYLINE
  8
0
 66
1
 10
0.0000
 20
0.0000
 30
0.0000
 40
0.5000
 41
0.5000
 70
0
  0
VERTEX
  8
0
 10
-0.2500
 20
-0.1036
 30
0.0000
  0
VERTEX
  8
0
 10
-0.2500
 20
0.1036
 30
0.0000
  0
VERTEX
  8
0
 10
-0.1036
 20
0.2500
 30
0.0000
  0
VERTEX
  8
0
 10
0.1036
 20
0.2500
 30
0.0000
  0
VERTEX
  8
0
 10
0.2500
 20
0.1036
 30
0.0000
  0
VERTEX
  8
0
 10
0.2500
 20
-0.1036
 30
0.0000
  0
VERTEX
  8
0
 10
0.1036
 20
-0.2500
 30
0.0000
  0
VERTEX
  8
0
 10
-0.1036
 20
-0.2500
 30
0.0000
  0
VERTEX
  8
0
 10
-0.2500
 20
-0.1036
 30
0.0000
  0
VERTEX
  8
0
 10
-0.2500
 20
0.1036
 30
0.0000
  0
SEQEND
  8
0
  0
ENDBLK
  8
0
  0
BLOCK
  8
0
  2
SQUAREV
 70
64
 10
0.0000
 20
0.0000
 30
0.0000
  3
SQUAREV
  0
SOLID
  8
0
 10
-0.5000
 20
-0.5000
 30
0.0000
 11
0.5000
 21
-0.5000
 31
0.0000
 12
-0.5000
 22
0.5000
 32
0.0000
 13
0.5000
 23
0.5000
 33
0.0000
  0
ENDBLK
  8
0
  0
BLOCK
  8
0
  2
ROUNDV
 70
64
 10
0.0000
 20
0.0000
 30
0.0000
  3
ROUNDV
  0
POLYLINE
  8
0
 66
1
 10
0.0000
 20
0.0000
 30
0.0000
 40
0.5000
 41
0.5000
 70
0
  0
VERTEX
  8
0
 10
0.0000
 20
-0.2500
 30
0.0000
 42
1.0000
  0
VERTEX
  8
0
 10
0.0000
 20
0.2500
 30
0.0000
 42
1.0000
  0
VERTEX
  8
0
 10
0.0000
 20
-0.2500
 30
0.0000
  0
SEQEND
  8
0
  0
ENDBLK
  8
0
  0
BLOCK
  8
0
  2
ANNULUSV
 70
64
 10
0.0000
 20
0.0000
 30
0.0000
  3
ANNULUSV
  0
POLYLINE
  8
0
 66
1
 10
0.0000
 20
0.0000
 30
0.0000
 40
0.5000
 41
0.5000
 70
0
  0
VERTEX
  8
0
 10
0.0000
 20
-0.2500
 30
0.0000
 42
1.0000
  0
VERTEX
  8
0
 10
0.0000
 20
0.2500
 30
0.0000
 42
1.0000
  0
VERTEX
  8
0
 10
0.0000
 20
-0.2500
 30
0.0000
  0
SEQEND
  8
0
  0
ENDBLK
  8
0
  0
BLOCK
  8
0
  2
THERMALV
 70
64
 10
0.0000
 20
0.0000
 30
0.0000
  3
THERMALV
  0
POLYLINE
  8
0
 66
1
 10
0.0000
 20
0.0000
 30
0.0000
 40
0.1000
 41
0.1000
 70
0
  0
VERTEX
  8
0
 10
-0.2379
 20
0.4500
 30
0.0000
  0
VERTEX
  8
0
 10
0.2379
 20
0.4500
 30
0.0000
  0
SEQEND
  8
0
  0
POLYLINE
  8
0
 66
1
 10
0.0000
 20
0.0000
 30
0.0000
 40
0.0500
 41
0.0500
 70
0
  0
VERTEX
  8
0
 10
0.2379
 20
0.4250
 30
0.0000
 42
1.0000
  0
VERTEX
  8
0
 10
0.2379
 20
0.4750
 30
0.0000
  0
SEQEND
  8
0
  0
POLYLINE
  8
0
 66
1
 10
0.0000
 20
0.0000
 30
0.0000
 40
0.0500
 41
0.0500
 70
0
  0
VERTEX
  8
0
 10
-0.2379
 20
0.4750
 30
0.0000
 42
1.0000
  0
VERTEX
  8
0
 10
-0.2379
 20
0.4250
 30
0.0000
  0
SEQEND
  8
0
  0
POLYLINE
  8
0
 66
1
 10
0.0000
 20
0.0000
 30
0.0000
 40
0.1000
 41
0.1000
 70
0
  0
VERTEX
  8
0
 10
0.4500
 20
0.2379
 30
0.0000
  0
VERTEX
  8
0
 10
0.4500
 20
-0.2379
 30
0.0000
  0
SEQEND
  8
0
  0
POLYLINE
  8
0
 66
1
 10
0.0000
 20
0.0000
 30
0.0000
 40
0.0500
 41
0.0500
 70
0
  0
VERTEX
  8
0
 10
0.4250
 20
-0.2379
 30
0.0000
 42
1.0000
  0
VERTEX
  8
0
 10
0.4750
 20
-0.2379
 30
0.0000
  0
SEQEND
  8
0
  0
POLYLINE
  8
0
 66
1
 10
0.0000
 20
0.0000
 30
0.0000
 40
0.0500
 41
0.0500
 70
0
  0
VERTEX
  8
0
 10
0.4750
 20
0.2379
 30
0.0000
 42
1.0000
  0
VERTEX
  8
0
 10
0.4250
 20
0.2379
 30
0.0000
  0
SEQEND
  8
0
  0
POLYLINE
  8
0
 66
1
 10
0.0000
 20
0.0000
 30
0.0000
 40
0.1000
 41
0.1000
 70
0
  0
VERTEX
  8
0
 10
0.2379
 20
-0.4500
 30
0.0000
  0
VERTEX
  8
0
 10
-0.2379
 20
-0.4500
 30
0.0000
  0
SEQEND
  8
0
  0
POLYLINE
  8
0
 66
1
 10
0.0000
 20
0.0000
 30
0.0000
 40
0.0500
 41
0.0500
 70
0
  0
VERTEX
  8
0
 10
-0.2379
 20
-0.4250
 30
0.0000
 42
1.0000
  0
VERTEX
  8
0
 10
-0.2379
 20
-0.4750
 30
0.0000
  0
SEQEND
  8
0
  0
POLYLINE
  8
0
 66
1
 10
0.0000
 20
0.0000
 30
0.0000
 40
0.0500
 41
0.0500
 70
0
  0
VERTEX
  8
0
 10
0.2379
 20
-0.4750
 30
0.0000
 42
1.0000
  0
VERTEX
  8
0
 10
0.2379
 20
-0.4250
 30
0.0000
  0
SEQEND
  8
0
  0
POLYLINE
  8
0
 66
1
 10
0.0000
 20
0.0000
 30
0.0000
 40
0.1000
 41
0.1000
 70
0
  0
VERTEX
  8
0
 10
-0.4500
 20
-0.2379
 30
0.0000
  0
VERTEX
  8
0
 10
-0.4500
 20
0.2379
 30
0.0000
  0
SEQEND
  8
0
  0
POLYLINE
  8
0
 66
1
 10
0.0000
 20
0.0000
 30
0.0000
 40
0.0500
 41
0.0500
 70
0
  0
VERTEX
  8
0
 10
-0.4250
 20
0.2379
 30
0.0000
 42
1.0000
  0
VERTEX
  8
0
 10
-0.4750
 20
0.2379
 30
0.0000
  0
SEQEND
  8
0
  0
POLYLINE
  8
0
 66
1
 10
0.0000
 20
0.0000
 30
0.0000
 40
0.0500
 41
0.0500
 70
0
  0
VERTEX
  8
0
 10
-0.4750
 20
-0.2379
 30
0.0000
 42
1.0000
  0
VERTEX
  8
0
 10
-0.4250
 20
-0.2379
 30
0.0000
  0
SEQEND
  8
0
  0
ENDBLK
  8
0
  0
ENDSEC
  0
SECTION
  2
ENTITIES
  0
LINE
  8
46
 10
42.8607
 20
0.0250
 30
0.0000
 11
60.2500
 21
0.0250
 31
0.0000
  0
LINE
  8
46
 10
60.2500
 20
0.0250
 30
0.0000
 11
68.0250
 21
15.5750
 31
0.0000
  0
LINE
  8
46
 10
45.5750
 20
54.7000
 30
0.0000
 11
43.5750
 21
53.9000
 31
0.0000
  0
LINE
  8
46
 10
43.5750
 20
53.9000
 30
0.0000
 11
26.9500
 21
53.9000
 31
0.0000
  0
LINE
  8
46
 10
26.9500
 20
53.9000
 30
0.0000
 11
19.5250
 21
39.0250
 31
0.0000
  0
LINE
  8
46
 10
19.5250
 20
39.0250
 30
0.0000
 11
17.8500
 21
37.5250
 31
0.0000
  0
LINE
  8
46
 10
9.3250
 20
20.4750
 30
0.0000
 11
11.9000
 21
19.1750
 31
0.0000
  0
LINE
  8
46
 10
80.5500
 20
41.2500
 30
0.0000
 11
80.9250
 21
41.3500
 31
0.0000
  0
LINE
  8
46
 10
80.9250
 20
41.3500
 30
0.0000
 11
87.2000
 21
53.9000
 31
0.0000
  0
LINE
  8
46
 10
87.2000
 20
53.9000
 30
0.0000
 11
72.5675
 21
53.8980
 31
0.0000
  0
LINE
  8
46
 10
64.6583
 20
51.9250
 30
0.0000
 11
64.6583
 21
54.7000
 31
0.0000
  0
LINE
  8
46
 10
6.7500
 20
12.6500
 30
0.0000
 11
6.2750
 21
12.5500
 31
0.0000
  0
LINE
  8
46
 10
6.2750
 20
12.5500
 30
0.0000
 11
0.0250
 21
0.0250
 31
0.0000
  0
LINE
  8
46
 10
72.5675
 20
51.9250
 30
0.0000
 11
64.6583
 21
51.9250
 31
0.0000
  0
LINE
  8
46
 10
64.6583
 20
54.7000
 30
0.0000
 11
45.5750
 21
54.7000
 31
0.0000
  0
LINE
  8
46
 10
17.8500
 20
37.5250
 30
0.0000
 11
9.3250
 21
20.4750
 31
0.0000
  0
LINE
  8
46
 10
72.5675
 20
53.9000
 30
0.0000
 11
72.5675
 21
51.9250
 31
0.0000
  0
LINE
  8
46
 10
80.5500
 20
41.2500
 30
0.0000
 11
79.0500
 21
42.0000
 31
0.0000
  0
LINE
  8
46
 10
69.3750
 20
16.4750
 30
0.0000
 11
77.9250
 21
33.4500
 31
0.0000
  0
LINE
  8
46
 10
79.0500
 20
42.0000
 30
0.0000
 11
75.4000
 21
34.7000
 31
0.0000
  0
LINE
  8
46
 10
75.4000
 20
34.7000
 30
0.0000
 11
77.9250
 21
33.4500
 31
0.0000
  0
LINE
  8
46
 10
69.3750
 20
16.4750
 30
0.0000
 11
68.0250
 21
15.5750
 31
0.0000
  0
LINE
  8
46
 10
11.9000
 20
19.1750
 30
0.0000
 11
8.2500
 21
11.9000
 31
0.0000
  0
LINE
  8
46
 10
6.7500
 20
12.6500
 30
0.0000
 11
8.2500
 21
11.9000
 31
0.0000
  0
LINE
  8
46
 10
14.2972
 20
0.3255
 30
0.0000
 11
14.0310
 21
0.0250
 31
0.0000
  0
LINE
  8
46
 10
14.2972
 20
0.3255
 30
0.0000
 11
14.2985
 21
2.0026
 31
0.0000
  0
LINE
  8
46
 10
14.2985
 20
2.0026
 30
0.0000
 11
22.4602
 21
1.9962
 31
0.0000
  0
LINE
  8
46
 10
41.4513
 20
-0.7789
 30
0.0000
 11
42.8607
 21
0.0250
 31
0.0000
  0
LINE
  8
46
 10
14.0310
 20
0.0250
 30
0.0000
 11
0.0250
 21
0.0250
 31
0.0000
  0
LINE
  8
46
 10
22.4449
 20
-0.7789
 30
0.0000
 11
22.4602
 21
1.9962
 31
0.0000
  0
LINE
  8
46
 10
41.4513
 20
-0.7789
 30
0.0000
 11
22.4449
 21
-0.7789
 31
0.0000
  0
INSERT
  8
31
  2
RECT
 10
43.4770
 20
27.1612
 30
0.0000
 41
2.2225
 42
2.2225
 43
1.0000
 50
26.6000
  0
INSERT
  8
31
  2
RECT
 10
75.2821
 20
42.1920
 30
0.0000
 41
3.0000
 42
2.5000
 43
1.0000
 50
301.5000
  0
INSERT
  8
31
  2
RECT
 10
71.6246
 20
48.1605
 30
0.0000
 41
3.0000
 42
2.5000
 43
1.0000
 50
301.5000
  0
INSERT
  8
31
  2
RECT
 10
32.7485
 20
2.5014
 30
0.0000
 41
3.0000
 42
2.5000
 43
1.0000
 50
270.0000
  0
INSERT
  8
31
  2
RECT
 10
32.7485
 20
9.5014
 30
0.0000
 41
3.0000
 42
2.5000
 43
1.0000
 50
270.0000
  0
INSERT
  8
31
  2
RECT
 10
49.5679
 20
4.6934
 30
0.0000
 41
2.8000
 42
3.8000
 43
1.0000
 50
0.0000
  0
INSERT
  8
31
  2
RECT
 10
42.1679
 20
4.6934
 30
0.0000
 41
2.8000
 42
3.8000
 43
1.0000
 50
0.0000
  0
INSERT
  8
31
  2
RECT
 10
56.5592
 20
47.4809
 30
0.0000
 41
2.5400
 42
2.5400
 43
1.0000
 50
270.0000
  0
INSERT
  8
31
  2
RECT
 10
56.5592
 20
42.7818
 30
0.0000
 41
2.5400
 42
2.5400
 43
1.0000
 50
90.0000
  0
INSERT
  8
31
  2
RECT
 10
11.4050
 20
6.8661
 30
0.0000
 41
2.2860
 42
2.7940
 43
1.0000
 50
90.0000
  0
INSERT
  8
31
  2
RECT
 10
11.4050
 20
10.9581
 30
0.0000
 41
2.2860
 42
2.7940
 43
1.0000
 50
90.0000
  0
INSERT
  8
31
  2
RECT
 10
27.4334
 20
6.7985
 30
0.0000
 41
1.0668
 42
2.1590
 43
1.0000
 50
90.0000
  0
INSERT
  8
31
  2
RECT
 10
27.4334
 20
8.5003
 30
0.0000
 41
1.0668
 42
2.1590
 43
1.0000
 50
90.0000
  0
INSERT
  8
31
  2
RECT
 10
27.4334
 20
10.2021
 30
0.0000
 41
1.0668
 42
2.1590
 43
1.0000
 50
90.0000
  0
INSERT
  8
31
  2
RECT
 10
27.4334
 20
11.9039
 30
0.0000
 41
1.0668
 42
2.1590
 43
1.0000
 50
90.0000
  0
INSERT
  8
31
  2
RECT
 10
27.4334
 20
13.6057
 30
0.0000
 41
1.0668
 42
2.1590
 43
1.0000
 50
90.0000
  0
INSERT
  8
31
  2
RECT
 10
19.1022
 20
10.2021
 30
0.0000
 41
10.8000
 42
10.4100
 43
1.0000
 50
90.0000
  0
INSERT
  8
31
  2
RECT
 10
45.1776
 20
23.6913
 30
0.0000
 41
1.3000
 42
1.6000
 43
1.0000
 50
31.5000
  0
INSERT
  8
31
  2
RECT
 10
46.7976
 20
24.6841
 30
0.0000
 41
1.3000
 42
1.6000
 43
1.0000
 50
31.5000
  0
INSERT
  8
31
  2
RECT
 10
46.9382
 20
26.2672
 30
0.0000
 41
1.4300
 42
0.3500
 43
1.0000
 50
206.6000
  0
INSERT
  8
31
  2
RECT
 10
46.6471
 20
26.8484
 30
0.0000
 41
1.4300
 42
0.3500
 43
1.0000
 50
206.6000
  0
INSERT
  8
31
  2
RECT
 10
46.3561
 20
27.4296
 30
0.0000
 41
1.4300
 42
0.3500
 43
1.0000
 50
206.6000
  0
INSERT
  8
31
  2
RECT
 10
46.0650
 20
28.0108
 30
0.0000
 41
1.4300
 42
0.3500
 43
1.0000
 50
206.6000
  0
INSERT
  8
31
  2
RECT
 10
45.7740
 20
28.5920
 30
0.0000
 41
1.4300
 42
0.3500
 43
1.0000
 50
206.6000
  0
INSERT
  8
31
  2
RECT
 10
45.4829
 20
29.1732
 30
0.0000
 41
1.4300
 42
0.3500
 43
1.0000
 50
206.6000
  0
INSERT
  8
31
  2
RECT
 10
45.1919
 20
29.7544
 30
0.0000
 41
1.4300
 42
0.3500
 43
1.0000
 50
206.6000
  0
INSERT
  8
31
  2
RECT
 10
44.9009
 20
30.3356
 30
0.0000
 41
1.4300
 42
0.3500
 43
1.0000
 50
206.6000
  0
INSERT
  8
31
  2
RECT
 10
40.0724
 20
27.9177
 30
0.0000
 41
1.4300
 42
0.3500
 43
1.0000
 50
206.6000
  0
INSERT
  8
31
  2
RECT
 10
40.3635
 20
27.3365
 30
0.0000
 41
1.4300
 42
0.3500
 43
1.0000
 50
206.6000
  0
INSERT
  8
31
  2
RECT
 10
40.6545
 20
26.7553
 30
0.0000
 41
1.4300
 42
0.3500
 43
1.0000
 50
206.6000
  0
INSERT
  8
31
  2
RECT
 10
40.9456
 20
26.1741
 30
0.0000
 41
1.4300
 42
0.3500
 43
1.0000
 50
206.6000
  0
INSERT
  8
31
  2
RECT
 10
41.2366
 20
25.5929
 30
0.0000
 41
1.4300
 42
0.3500
 43
1.0000
 50
206.6000
  0
INSERT
  8
31
  2
RECT
 10
41.5276
 20
25.0117
 30
0.0000
 41
1.4300
 42
0.3500
 43
1.0000
 50
206.6000
  0
INSERT
  8
31
  2
RECT
 10
41.8187
 20
24.4305
 30
0.0000
 41
1.4300
 42
0.3500
 43
1.0000
 50
206.6000
  0
INSERT
  8
31
  2
RECT
 10
42.1097
 20
23.8493
 30
0.0000
 41
1.4300
 42
0.3500
 43
1.0000
 50
206.6000
  0
ENDSEC
  0
EOF
