  0
SECTION
  2
HEADER
  9
$ACADVER
  1
AC1009
  9
$FILLMODE
 70
1
  9
$EXTMIN
 10
-3.6404
 20
-2.8034
 30
0.0000
  9
$EXTMAX
 10
106.6443
 20
76.6047
 30
0.0000
  0
ENDSEC
  0
SECTION
  2
TABLES
  0
TABLE
  2
LTYPE
 70
1
  0
LTYPE
  2
CONTINUOUS
 70
64
  3
Solid line
 72
65
 73
0
 40
0
  0
ENDTAB
  0
TABLE
  2
LAYER
 70
255
  0
LAYER
  2
32
 70
64
 62
253
  6
CONTINUOUS
  0
LAYER
  2
46
 70
64
 62
140
  6
CONTINUOUS
  0
ENDTAB
  0
ENDSEC
  0
SECTION
  2
BLOCKS
  0
BLOCK
  8
0
  2
RECT
 70
64
 10
0.0000
 20
0.0000
 30
0.0000
  3
RECT
  0
SOLID
  8
0
 10
-0.5000
 20
-0.5000
 30
0.0000
 11
0.5000
 21
-0.5000
 31
0.0000
 12
-0.5000
 22
0.5000
 32
0.0000
 13
0.5000
 23
0.5000
 33
0.0000
  0
ENDBLK
  8
0
  0
BLOCK
  8
0
  2
PIE
 70
64
 10
0.0000
 20
0.0000
 30
0.0000
  3
PIE
  0
POLYLINE
  8
0
 66
1
 10
0.0000
 20
0.0000
 30
0.0000
 40
0.5000
 41
0.5000
 70
0
  0
VERTEX
  8
0
 10
0.0000
 20
-0.2500
 30
0.0000
 42
1.0000
  0
VERTEX
  8
0
 10
0.0000
 20
0.2500
 30
0.0000
 42
1.0000
  0
VERTEX
  8
0
 10
0.0000
 20
-0.2500
 30
0.0000
  0
SEQEND
  8
0
  0
ENDBLK
  8
0
  0
BLOCK
  8
0
  2
OCTAGONP
 70
64
 10
0.0000
 20
0.0000
 30
0.0000
  3
OCTAGONP
  0
POLYLINE
  8
0
 66
1
 10
0.0000
 20
0.0000
 30
0.0000
 40
0.5000
 41
0.5000
 70
0
  0
VERTEX
  8
0
 10
-0.2500
 20
-0.1036
 30
0.0000
  0
VERTEX
  8
0
 10
-0.2500
 20
0.1036
 30
0.0000
  0
VERTEX
  8
0
 10
-0.1036
 20
0.2500
 30
0.0000
  0
VERTEX
  8
0
 10
0.1036
 20
0.2500
 30
0.0000
  0
VERTEX
  8
0
 10
0.2500
 20
0.1036
 30
0.0000
  0
VERTEX
  8
0
 10
0.2500
 20
-0.1036
 30
0.0000
  0
VERTEX
  8
0
 10
0.1036
 20
-0.2500
 30
0.0000
  0
VERTEX
  8
0
 10
-0.1036
 20
-0.2500
 30
0.0000
  0
VERTEX
  8
0
 10
-0.2500
 20
-0.1036
 30
0.0000
  0
VERTEX
  8
0
 10
-0.2500
 20
0.1036
 30
0.0000
  0
SEQEND
  8
0
  0
ENDBLK
  8
0
  0
BLOCK
  8
0
  2
SQUAREP
 70
64
 10
0.0000
 20
0.0000
 30
0.0000
  3
SQUAREP
  0
SOLID
  8
0
 10
-0.5000
 20
-0.5000
 30
0.0000
 11
0.5000
 21
-0.5000
 31
0.0000
 12
-0.5000
 22
0.5000
 32
0.0000
 13
0.5000
 23
0.5000
 33
0.0000
  0
ENDBLK
  8
0
  0
BLOCK
  8
0
  2
ROUNDP
 70
64
 10
0.0000
 20
0.0000
 30
0.0000
  3
ROUNDP
  0
POLYLINE
  8
0
 66
1
 10
0.0000
 20
0.0000
 30
0.0000
 40
0.5000
 41
0.5000
 70
0
  0
VERTEX
  8
0
 10
0.0000
 20
-0.2500
 30
0.0000
 42
1.0000
  0
VERTEX
  8
0
 10
0.0000
 20
0.2500
 30
0.0000
 42
1.0000
  0
VERTEX
  8
0
 10
0.0000
 20
-0.2500
 30
0.0000
  0
SEQEND
  8
0
  0
ENDBLK
  8
0
  0
BLOCK
  8
0
  2
ANNULUSP
 70
64
 10
0.0000
 20
0.0000
 30
0.0000
  3
ANNULUSP
  0
POLYLINE
  8
0
 66
1
 10
0.0000
 20
0.0000
 30
0.0000
 40
0.5000
 41
0.5000
 70
0
  0
VERTEX
  8
0
 10
0.0000
 20
-0.2500
 30
0.0000
 42
1.0000
  0
VERTEX
  8
0
 10
0.0000
 20
0.2500
 30
0.0000
 42
1.0000
  0
VERTEX
  8
0
 10
0.0000
 20
-0.2500
 30
0.0000
  0
SEQEND
  8
0
  0
ENDBLK
  8
0
  0
BLOCK
  8
0
  2
THERMALP
 70
64
 10
0.0000
 20
0.0000
 30
0.0000
  3
THERMALP
  0
POLYLINE
  8
0
 66
1
 10
0.0000
 20
0.0000
 30
0.0000
 40
0.1000
 41
0.1000
 70
0
  0
VERTEX
  8
0
 10
-0.2379
 20
0.4500
 30
0.0000
  0
VERTEX
  8
0
 10
0.2379
 20
0.4500
 30
0.0000
  0
SEQEND
  8
0
  0
POLYLINE
  8
0
 66
1
 10
0.0000
 20
0.0000
 30
0.0000
 40
0.0500
 41
0.0500
 70
0
  0
VERTEX
  8
0
 10
0.2379
 20
0.4250
 30
0.0000
 42
1.0000
  0
VERTEX
  8
0
 10
0.2379
 20
0.4750
 30
0.0000
  0
SEQEND
  8
0
  0
POLYLINE
  8
0
 66
1
 10
0.0000
 20
0.0000
 30
0.0000
 40
0.0500
 41
0.0500
 70
0
  0
VERTEX
  8
0
 10
-0.2379
 20
0.4750
 30
0.0000
 42
1.0000
  0
VERTEX
  8
0
 10
-0.2379
 20
0.4250
 30
0.0000
  0
SEQEND
  8
0
  0
POLYLINE
  8
0
 66
1
 10
0.0000
 20
0.0000
 30
0.0000
 40
0.1000
 41
0.1000
 70
0
  0
VERTEX
  8
0
 10
0.4500
 20
0.2379
 30
0.0000
  0
VERTEX
  8
0
 10
0.4500
 20
-0.2379
 30
0.0000
  0
SEQEND
  8
0
  0
POLYLINE
  8
0
 66
1
 10
0.0000
 20
0.0000
 30
0.0000
 40
0.0500
 41
0.0500
 70
0
  0
VERTEX
  8
0
 10
0.4250
 20
-0.2379
 30
0.0000
 42
1.0000
  0
VERTEX
  8
0
 10
0.4750
 20
-0.2379
 30
0.0000
  0
SEQEND
  8
0
  0
POLYLINE
  8
0
 66
1
 10
0.0000
 20
0.0000
 30
0.0000
 40
0.0500
 41
0.0500
 70
0
  0
VERTEX
  8
0
 10
0.4750
 20
0.2379
 30
0.0000
 42
1.0000
  0
VERTEX
  8
0
 10
0.4250
 20
0.2379
 30
0.0000
  0
SEQEND
  8
0
  0
POLYLINE
  8
0
 66
1
 10
0.0000
 20
0.0000
 30
0.0000
 40
0.1000
 41
0.1000
 70
0
  0
VERTEX
  8
0
 10
0.2379
 20
-0.4500
 30
0.0000
  0
VERTEX
  8
0
 10
-0.2379
 20
-0.4500
 30
0.0000
  0
SEQEND
  8
0
  0
POLYLINE
  8
0
 66
1
 10
0.0000
 20
0.0000
 30
0.0000
 40
0.0500
 41
0.0500
 70
0
  0
VERTEX
  8
0
 10
-0.2379
 20
-0.4250
 30
0.0000
 42
1.0000
  0
VERTEX
  8
0
 10
-0.2379
 20
-0.4750
 30
0.0000
  0
SEQEND
  8
0
  0
POLYLINE
  8
0
 66
1
 10
0.0000
 20
0.0000
 30
0.0000
 40
0.0500
 41
0.0500
 70
0
  0
VERTEX
  8
0
 10
0.2379
 20
-0.4750
 30
0.0000
 42
1.0000
  0
VERTEX
  8
0
 10
0.2379
 20
-0.4250
 30
0.0000
  0
SEQEND
  8
0
  0
POLYLINE
  8
0
 66
1
 10
0.0000
 20
0.0000
 30
0.0000
 40
0.1000
 41
0.1000
 70
0
  0
VERTEX
  8
0
 10
-0.4500
 20
-0.2379
 30
0.0000
  0
VERTEX
  8
0
 10
-0.4500
 20
0.2379
 30
0.0000
  0
SEQEND
  8
0
  0
POLYLINE
  8
0
 66
1
 10
0.0000
 20
0.0000
 30
0.0000
 40
0.0500
 41
0.0500
 70
0
  0
VERTEX
  8
0
 10
-0.4250
 20
0.2379
 30
0.0000
 42
1.0000
  0
VERTEX
  8
0
 10
-0.4750
 20
0.2379
 30
0.0000
  0
SEQEND
  8
0
  0
POLYLINE
  8
0
 66
1
 10
0.0000
 20
0.0000
 30
0.0000
 40
0.0500
 41
0.0500
 70
0
  0
VERTEX
  8
0
 10
-0.4750
 20
-0.2379
 30
0.0000
 42
1.0000
  0
VERTEX
  8
0
 10
-0.4250
 20
-0.2379
 30
0.0000
  0
SEQEND
  8
0
  0
ENDBLK
  8
0
  0
BLOCK
  8
0
  2
OCTAGONV
 70
64
 10
0.0000
 20
0.0000
 30
0.0000
  3
OCTAGONV
  0
POLYLINE
  8
0
 66
1
 10
0.0000
 20
0.0000
 30
0.0000
 40
0.5000
 41
0.5000
 70
0
  0
VERTEX
  8
0
 10
-0.2500
 20
-0.1036
 30
0.0000
  0
VERTEX
  8
0
 10
-0.2500
 20
0.1036
 30
0.0000
  0
VERTEX
  8
0
 10
-0.1036
 20
0.2500
 30
0.0000
  0
VERTEX
  8
0
 10
0.1036
 20
0.2500
 30
0.0000
  0
VERTEX
  8
0
 10
0.2500
 20
0.1036
 30
0.0000
  0
VERTEX
  8
0
 10
0.2500
 20
-0.1036
 30
0.0000
  0
VERTEX
  8
0
 10
0.1036
 20
-0.2500
 30
0.0000
  0
VERTEX
  8
0
 10
-0.1036
 20
-0.2500
 30
0.0000
  0
VERTEX
  8
0
 10
-0.2500
 20
-0.1036
 30
0.0000
  0
VERTEX
  8
0
 10
-0.2500
 20
0.1036
 30
0.0000
  0
SEQEND
  8
0
  0
ENDBLK
  8
0
  0
BLOCK
  8
0
  2
SQUAREV
 70
64
 10
0.0000
 20
0.0000
 30
0.0000
  3
SQUAREV
  0
SOLID
  8
0
 10
-0.5000
 20
-0.5000
 30
0.0000
 11
0.5000
 21
-0.5000
 31
0.0000
 12
-0.5000
 22
0.5000
 32
0.0000
 13
0.5000
 23
0.5000
 33
0.0000
  0
ENDBLK
  8
0
  0
BLOCK
  8
0
  2
ROUNDV
 70
64
 10
0.0000
 20
0.0000
 30
0.0000
  3
ROUNDV
  0
POLYLINE
  8
0
 66
1
 10
0.0000
 20
0.0000
 30
0.0000
 40
0.5000
 41
0.5000
 70
0
  0
VERTEX
  8
0
 10
0.0000
 20
-0.2500
 30
0.0000
 42
1.0000
  0
VERTEX
  8
0
 10
0.0000
 20
0.2500
 30
0.0000
 42
1.0000
  0
VERTEX
  8
0
 10
0.0000
 20
-0.2500
 30
0.0000
  0
SEQEND
  8
0
  0
ENDBLK
  8
0
  0
BLOCK
  8
0
  2
ANNULUSV
 70
64
 10
0.0000
 20
0.0000
 30
0.0000
  3
ANNULUSV
  0
POLYLINE
  8
0
 66
1
 10
0.0000
 20
0.0000
 30
0.0000
 40
0.5000
 41
0.5000
 70
0
  0
VERTEX
  8
0
 10
0.0000
 20
-0.2500
 30
0.0000
 42
1.0000
  0
VERTEX
  8
0
 10
0.0000
 20
0.2500
 30
0.0000
 42
1.0000
  0
VERTEX
  8
0
 10
0.0000
 20
-0.2500
 30
0.0000
  0
SEQEND
  8
0
  0
ENDBLK
  8
0
  0
BLOCK
  8
0
  2
THERMALV
 70
64
 10
0.0000
 20
0.0000
 30
0.0000
  3
THERMALV
  0
POLYLINE
  8
0
 66
1
 10
0.0000
 20
0.0000
 30
0.0000
 40
0.1000
 41
0.1000
 70
0
  0
VERTEX
  8
0
 10
-0.2379
 20
0.4500
 30
0.0000
  0
VERTEX
  8
0
 10
0.2379
 20
0.4500
 30
0.0000
  0
SEQEND
  8
0
  0
POLYLINE
  8
0
 66
1
 10
0.0000
 20
0.0000
 30
0.0000
 40
0.0500
 41
0.0500
 70
0
  0
VERTEX
  8
0
 10
0.2379
 20
0.4250
 30
0.0000
 42
1.0000
  0
VERTEX
  8
0
 10
0.2379
 20
0.4750
 30
0.0000
  0
SEQEND
  8
0
  0
POLYLINE
  8
0
 66
1
 10
0.0000
 20
0.0000
 30
0.0000
 40
0.0500
 41
0.0500
 70
0
  0
VERTEX
  8
0
 10
-0.2379
 20
0.4750
 30
0.0000
 42
1.0000
  0
VERTEX
  8
0
 10
-0.2379
 20
0.4250
 30
0.0000
  0
SEQEND
  8
0
  0
POLYLINE
  8
0
 66
1
 10
0.0000
 20
0.0000
 30
0.0000
 40
0.1000
 41
0.1000
 70
0
  0
VERTEX
  8
0
 10
0.4500
 20
0.2379
 30
0.0000
  0
VERTEX
  8
0
 10
0.4500
 20
-0.2379
 30
0.0000
  0
SEQEND
  8
0
  0
POLYLINE
  8
0
 66
1
 10
0.0000
 20
0.0000
 30
0.0000
 40
0.0500
 41
0.0500
 70
0
  0
VERTEX
  8
0
 10
0.4250
 20
-0.2379
 30
0.0000
 42
1.0000
  0
VERTEX
  8
0
 10
0.4750
 20
-0.2379
 30
0.0000
  0
SEQEND
  8
0
  0
POLYLINE
  8
0
 66
1
 10
0.0000
 20
0.0000
 30
0.0000
 40
0.0500
 41
0.0500
 70
0
  0
VERTEX
  8
0
 10
0.4750
 20
0.2379
 30
0.0000
 42
1.0000
  0
VERTEX
  8
0
 10
0.4250
 20
0.2379
 30
0.0000
  0
SEQEND
  8
0
  0
POLYLINE
  8
0
 66
1
 10
0.0000
 20
0.0000
 30
0.0000
 40
0.1000
 41
0.1000
 70
0
  0
VERTEX
  8
0
 10
0.2379
 20
-0.4500
 30
0.0000
  0
VERTEX
  8
0
 10
-0.2379
 20
-0.4500
 30
0.0000
  0
SEQEND
  8
0
  0
POLYLINE
  8
0
 66
1
 10
0.0000
 20
0.0000
 30
0.0000
 40
0.0500
 41
0.0500
 70
0
  0
VERTEX
  8
0
 10
-0.2379
 20
-0.4250
 30
0.0000
 42
1.0000
  0
VERTEX
  8
0
 10
-0.2379
 20
-0.4750
 30
0.0000
  0
SEQEND
  8
0
  0
POLYLINE
  8
0
 66
1
 10
0.0000
 20
0.0000
 30
0.0000
 40
0.0500
 41
0.0500
 70
0
  0
VERTEX
  8
0
 10
0.2379
 20
-0.4750
 30
0.0000
 42
1.0000
  0
VERTEX
  8
0
 10
0.2379
 20
-0.4250
 30
0.0000
  0
SEQEND
  8
0
  0
POLYLINE
  8
0
 66
1
 10
0.0000
 20
0.0000
 30
0.0000
 40
0.1000
 41
0.1000
 70
0
  0
VERTEX
  8
0
 10
-0.4500
 20
-0.2379
 30
0.0000
  0
VERTEX
  8
0
 10
-0.4500
 20
0.2379
 30
0.0000
  0
SEQEND
  8
0
  0
POLYLINE
  8
0
 66
1
 10
0.0000
 20
0.0000
 30
0.0000
 40
0.0500
 41
0.0500
 70
0
  0
VERTEX
  8
0
 10
-0.4250
 20
0.2379
 30
0.0000
 42
1.0000
  0
VERTEX
  8
0
 10
-0.4750
 20
0.2379
 30
0.0000
  0
SEQEND
  8
0
  0
POLYLINE
  8
0
 66
1
 10
0.0000
 20
0.0000
 30
0.0000
 40
0.0500
 41
0.0500
 70
0
  0
VERTEX
  8
0
 10
-0.4750
 20
-0.2379
 30
0.0000
 42
1.0000
  0
VERTEX
  8
0
 10
-0.4250
 20
-0.2379
 30
0.0000
  0
SEQEND
  8
0
  0
ENDBLK
  8
0
  0
BLOCK
  8
0
  2
RECT1136000X320000R50
 70
64
 10
0.0000
 20
0.0000
 30
0.0000
  3
RECT1136000X320000R50
  0
POLYLINE
  8
0
 66
1
 10
0.0000
 20
0.0000
 30
0.0000
 40
0.5000
 41
0.5000
 70
1
  0
VERTEX
  8
0
 10
3.3000
 20
-0.5000
 30
0.0000
  0
VERTEX
  8
0
 10
3.3000
 20
0.5000
 30
0.0000
 42
0.4142
  0
VERTEX
  8
0
 10
3.0500
 20
0.7500
 30
0.0000
  0
VERTEX
  8
0
 10
-3.0500
 20
0.7500
 30
0.0000
 42
0.4142
  0
VERTEX
  8
0
 10
-3.3000
 20
0.5000
 30
0.0000
  0
VERTEX
  8
0
 10
-3.3000
 20
-0.5000
 30
0.0000
 42
0.4142
  0
VERTEX
  8
0
 10
-3.0500
 20
-0.7500
 30
0.0000
  0
VERTEX
  8
0
 10
3.0500
 20
-0.7500
 30
0.0000
 42
0.4142
  0
SEQEND
  8
0
  0
SOLID
  8
0
 10
-3.0754
 20
-0.5254
 30
0.0000
 11
3.0754
 21
-0.5254
 31
0.0000
 12
-3.0754
 22
0.5254
 32
0.0000
 13
3.0754
 23
0.5254
 33
0.0000
  0
ENDBLK
  8
0
  0
ENDSEC
  0
SECTION
  2
ENTITIES
  0
LINE
  8
46
 10
42.8607
 20
0.0250
 30
0.0000
 11
60.2500
 21
0.0250
 31
0.0000
  0
LINE
  8
46
 10
60.2500
 20
0.0250
 30
0.0000
 11
68.0250
 21
15.5750
 31
0.0000
  0
LINE
  8
46
 10
45.5750
 20
54.7000
 30
0.0000
 11
43.5750
 21
53.9000
 31
0.0000
  0
LINE
  8
46
 10
43.5750
 20
53.9000
 30
0.0000
 11
26.9500
 21
53.9000
 31
0.0000
  0
LINE
  8
46
 10
26.9500
 20
53.9000
 30
0.0000
 11
19.5250
 21
39.0250
 31
0.0000
  0
LINE
  8
46
 10
19.5250
 20
39.0250
 30
0.0000
 11
17.8500
 21
37.5250
 31
0.0000
  0
LINE
  8
46
 10
9.3250
 20
20.4750
 30
0.0000
 11
11.9000
 21
19.1750
 31
0.0000
  0
LINE
  8
46
 10
80.5500
 20
41.2500
 30
0.0000
 11
80.9250
 21
41.3500
 31
0.0000
  0
LINE
  8
46
 10
80.9250
 20
41.3500
 30
0.0000
 11
87.2000
 21
53.9000
 31
0.0000
  0
LINE
  8
46
 10
87.2000
 20
53.9000
 30
0.0000
 11
72.5675
 21
53.8980
 31
0.0000
  0
LINE
  8
46
 10
64.6583
 20
51.9250
 30
0.0000
 11
64.6583
 21
54.7000
 31
0.0000
  0
LINE
  8
46
 10
6.7500
 20
12.6500
 30
0.0000
 11
6.2750
 21
12.5500
 31
0.0000
  0
LINE
  8
46
 10
6.2750
 20
12.5500
 30
0.0000
 11
0.0250
 21
0.0250
 31
0.0000
  0
LINE
  8
46
 10
72.5675
 20
51.9250
 30
0.0000
 11
64.6583
 21
51.9250
 31
0.0000
  0
LINE
  8
46
 10
64.6583
 20
54.7000
 30
0.0000
 11
45.5750
 21
54.7000
 31
0.0000
  0
LINE
  8
46
 10
17.8500
 20
37.5250
 30
0.0000
 11
9.3250
 21
20.4750
 31
0.0000
  0
LINE
  8
46
 10
72.5675
 20
53.9000
 30
0.0000
 11
72.5675
 21
51.9250
 31
0.0000
  0
LINE
  8
46
 10
80.5500
 20
41.2500
 30
0.0000
 11
79.0500
 21
42.0000
 31
0.0000
  0
LINE
  8
46
 10
69.3750
 20
16.4750
 30
0.0000
 11
77.9250
 21
33.4500
 31
0.0000
  0
LINE
  8
46
 10
79.0500
 20
42.0000
 30
0.0000
 11
75.4000
 21
34.7000
 31
0.0000
  0
LINE
  8
46
 10
75.4000
 20
34.7000
 30
0.0000
 11
77.9250
 21
33.4500
 31
0.0000
  0
LINE
  8
46
 10
69.3750
 20
16.4750
 30
0.0000
 11
68.0250
 21
15.5750
 31
0.0000
  0
LINE
  8
46
 10
11.9000
 20
19.1750
 30
0.0000
 11
8.2500
 21
11.9000
 31
0.0000
  0
LINE
  8
46
 10
6.7500
 20
12.6500
 30
0.0000
 11
8.2500
 21
11.9000
 31
0.0000
  0
LINE
  8
46
 10
14.2972
 20
0.3255
 30
0.0000
 11
14.0310
 21
0.0250
 31
0.0000
  0
LINE
  8
46
 10
14.2972
 20
0.3255
 30
0.0000
 11
14.2985
 21
2.0026
 31
0.0000
  0
LINE
  8
46
 10
14.2985
 20
2.0026
 30
0.0000
 11
22.4602
 21
1.9962
 31
0.0000
  0
LINE
  8
46
 10
41.4513
 20
-0.7789
 30
0.0000
 11
42.8607
 21
0.0250
 31
0.0000
  0
LINE
  8
46
 10
14.0310
 20
0.0250
 30
0.0000
 11
0.0250
 21
0.0250
 31
0.0000
  0
LINE
  8
46
 10
22.4449
 20
-0.7789
 30
0.0000
 11
22.4602
 21
1.9962
 31
0.0000
  0
LINE
  8
46
 10
41.4513
 20
-0.7789
 30
0.0000
 11
22.4449
 21
-0.7789
 31
0.0000
  0
INSERT
  8
32
  2
RECT
 10
38.7511
 20
20.2212
 30
0.0000
 41
0.5500
 42
1.2000
 43
1.0000
 50
206.6000
  0
INSERT
  8
32
  2
RECT
 10
37.9017
 20
19.7958
 30
0.0000
 41
0.5500
 42
1.2000
 43
1.0000
 50
206.6000
  0
INSERT
  8
32
  2
RECT
 10
37.0522
 20
19.3704
 30
0.0000
 41
0.5500
 42
1.2000
 43
1.0000
 50
206.6000
  0
INSERT
  8
32
  2
RECT
 10
35.8880
 20
21.6952
 30
0.0000
 41
0.5500
 42
1.2000
 43
1.0000
 50
206.6000
  0
INSERT
  8
32
  2
RECT
 10
37.5869
 20
22.5460
 30
0.0000
 41
0.5500
 42
1.2000
 43
1.0000
 50
206.6000
  0
INSERT
  8
32
  2
RECT
 10
59.4759
 20
20.1041
 30
0.0000
 41
2.0574
 42
0.6096
 43
1.0000
 50
153.4000
  0
INSERT
  8
32
  2
RECT
 10
58.9072
 20
18.9685
 30
0.0000
 41
2.0574
 42
0.6096
 43
1.0000
 50
153.4000
  0
INSERT
  8
32
  2
RECT
 10
58.3386
 20
17.8329
 30
0.0000
 41
2.0574
 42
0.6096
 43
1.0000
 50
153.4000
  0
INSERT
  8
32
  2
RECT
 10
57.7699
 20
16.6974
 30
0.0000
 41
2.0574
 42
0.6096
 43
1.0000
 50
153.4000
  0
INSERT
  8
32
  2
RECT
 10
57.2013
 20
15.5618
 30
0.0000
 41
2.0574
 42
0.6096
 43
1.0000
 50
153.4000
  0
INSERT
  8
32
  2
RECT
 10
56.6326
 20
14.4262
 30
0.0000
 41
2.0574
 42
0.6096
 43
1.0000
 50
153.4000
  0
INSERT
  8
32
  2
RECT
 10
56.0639
 20
13.2906
 30
0.0000
 41
2.0574
 42
0.6096
 43
1.0000
 50
153.4000
  0
INSERT
  8
32
  2
RECT
 10
55.4953
 20
12.1551
 30
0.0000
 41
2.0574
 42
0.6096
 43
1.0000
 50
153.4000
  0
INSERT
  8
32
  2
RECT
 10
51.2028
 20
14.3046
 30
0.0000
 41
2.0574
 42
0.6096
 43
1.0000
 50
153.4000
  0
INSERT
  8
32
  2
RECT
 10
51.7715
 20
15.4402
 30
0.0000
 41
2.0574
 42
0.6096
 43
1.0000
 50
153.4000
  0
INSERT
  8
32
  2
RECT
 10
52.3401
 20
16.5757
 30
0.0000
 41
2.0574
 42
0.6096
 43
1.0000
 50
153.4000
  0
INSERT
  8
32
  2
RECT
 10
52.9088
 20
17.7113
 30
0.0000
 41
2.0574
 42
0.6096
 43
1.0000
 50
153.4000
  0
INSERT
  8
32
  2
RECT
 10
53.4774
 20
18.8469
 30
0.0000
 41
2.0574
 42
0.6096
 43
1.0000
 50
153.4000
  0
INSERT
  8
32
  2
RECT
 10
54.0461
 20
19.9825
 30
0.0000
 41
2.0574
 42
0.6096
 43
1.0000
 50
153.4000
  0
INSERT
  8
32
  2
RECT
 10
54.6147
 20
21.1180
 30
0.0000
 41
2.0574
 42
0.6096
 43
1.0000
 50
153.4000
  0
INSERT
  8
32
  2
RECT
 10
55.1834
 20
22.2536
 30
0.0000
 41
2.0574
 42
0.6096
 43
1.0000
 50
153.4000
  0
INSERT
  8
32
  2
RECT
 10
54.5758
 20
39.2383
 30
0.0000
 41
0.6000
 42
2.2000
 43
1.0000
 50
296.6000
  0
INSERT
  8
32
  2
RECT
 10
55.1445
 20
38.1027
 30
0.0000
 41
0.6000
 42
2.2000
 43
1.0000
 50
296.6000
  0
INSERT
  8
32
  2
RECT
 10
55.7131
 20
36.9671
 30
0.0000
 41
0.6000
 42
2.2000
 43
1.0000
 50
296.6000
  0
INSERT
  8
32
  2
RECT
 10
56.2818
 20
35.8315
 30
0.0000
 41
0.6000
 42
2.2000
 43
1.0000
 50
296.6000
  0
INSERT
  8
32
  2
RECT
 10
56.8504
 20
34.6960
 30
0.0000
 41
0.6000
 42
2.2000
 43
1.0000
 50
296.6000
  0
INSERT
  8
32
  2
RECT
 10
57.4191
 20
33.5604
 30
0.0000
 41
0.6000
 42
2.2000
 43
1.0000
 50
296.6000
  0
INSERT
  8
32
  2
RECT
 10
57.9877
 20
32.4248
 30
0.0000
 41
0.6000
 42
2.2000
 43
1.0000
 50
296.6000
  0
INSERT
  8
32
  2
RECT
 10
58.5564
 20
31.2892
 30
0.0000
 41
0.6000
 42
2.2000
 43
1.0000
 50
296.6000
  0
INSERT
  8
32
  2
RECT
 10
53.9068
 20
28.9609
 30
0.0000
 41
0.6000
 42
2.2000
 43
1.0000
 50
296.6000
  0
INSERT
  8
32
  2
RECT
 10
53.3381
 20
30.0965
 30
0.0000
 41
0.6000
 42
2.2000
 43
1.0000
 50
296.6000
  0
INSERT
  8
32
  2
RECT
 10
52.7695
 20
31.2320
 30
0.0000
 41
0.6000
 42
2.2000
 43
1.0000
 50
296.6000
  0
INSERT
  8
32
  2
RECT
 10
52.2008
 20
32.3676
 30
0.0000
 41
0.6000
 42
2.2000
 43
1.0000
 50
296.6000
  0
INSERT
  8
32
  2
RECT
 10
51.6322
 20
33.5032
 30
0.0000
 41
0.6000
 42
2.2000
 43
1.0000
 50
296.6000
  0
INSERT
  8
32
  2
RECT
 10
51.0635
 20
34.6388
 30
0.0000
 41
0.6000
 42
2.2000
 43
1.0000
 50
296.6000
  0
INSERT
  8
32
  2
RECT
 10
50.4949
 20
35.7743
 30
0.0000
 41
0.6000
 42
2.2000
 43
1.0000
 50
296.6000
  0
INSERT
  8
32
  2
RECT
 10
49.9262
 20
36.9099
 30
0.0000
 41
0.6000
 42
2.2000
 43
1.0000
 50
296.6000
  0
INSERT
  8
32
  2
RECT
 10
49.5504
 20
39.1795
 30
0.0000
 41
1.3000
 42
1.5000
 43
1.0000
 50
206.6000
  0
INSERT
  8
32
  2
RECT
 10
47.8515
 20
38.3287
 30
0.0000
 41
1.3000
 42
1.5000
 43
1.0000
 50
206.6000
  0
INSERT
  8
32
  2
RECT
 10
41.6472
 20
21.8158
 30
0.0000
 41
1.3000
 42
1.5000
 43
1.0000
 50
26.6000
  0
INSERT
  8
32
  2
RECT
 10
43.3461
 20
22.6665
 30
0.0000
 41
1.3000
 42
1.5000
 43
1.0000
 50
26.6000
  0
INSERT
  8
32
  2
RECT
 10
62.6589
 20
51.2075
 30
0.0000
 41
1.5000
 42
3.8000
 43
1.0000
 50
180.0000
  0
INSERT
  8
32
  2
RECT
 10
59.6582
 20
51.2075
 30
0.0000
 41
1.5000
 42
3.8000
 43
1.0000
 50
180.0000
  0
INSERT
  8
32
  2
RECT
 10
56.6582
 20
51.2075
 30
0.0000
 41
1.5000
 42
3.8000
 43
1.0000
 50
180.0000
  0
INSERT
  8
32
  2
RECT
 10
53.6582
 20
51.2075
 30
0.0000
 41
1.5000
 42
3.8000
 43
1.0000
 50
180.0000
  0
INSERT
  8
32
  2
RECT
 10
50.6582
 20
51.2075
 30
0.0000
 41
1.5000
 42
3.8000
 43
1.0000
 50
180.0000
  0
INSERT
  8
32
  2
RECT
 10
47.6582
 20
51.2075
 30
0.0000
 41
1.5000
 42
3.8000
 43
1.0000
 50
180.0000
  0
INSERT
  8
32
  2
RECT
 10
29.3650
 20
25.0714
 30
0.0000
 41
3.8500
 42
5.5000
 43
1.0000
 50
270.0000
  0
INSERT
  8
32
  2
RECT
 10
29.3650
 20
15.1214
 30
0.0000
 41
3.8500
 42
5.5000
 43
1.0000
 50
270.0000
  0
INSERT
  8
32
  2
RECT
 10
20.1057
 20
34.1861
 30
0.0000
 41
1.5000
 42
3.8000
 43
1.0000
 50
243.4000
  0
INSERT
  8
32
  2
RECT
 10
18.7621
 20
31.5030
 30
0.0000
 41
1.5000
 42
3.8000
 43
1.0000
 50
243.4000
  0
INSERT
  8
32
  2
RECT
 10
17.4188
 20
28.8206
 30
0.0000
 41
1.5000
 42
3.8000
 43
1.0000
 50
243.4000
  0
INSERT
  8
32
  2
RECT
 10
16.0756
 20
26.1381
 30
0.0000
 41
1.5000
 42
3.8000
 43
1.0000
 50
243.4000
  0
INSERT
  8
32
  2
RECT
 10
14.7323
 20
23.4557
 30
0.0000
 41
1.5000
 42
3.8000
 43
1.0000
 50
243.4000
  0
INSERT
  8
32
  2
RECT
 10
13.3890
 20
20.7732
 30
0.0000
 41
1.5000
 42
3.8000
 43
1.0000
 50
243.4000
  0
INSERT
  8
32
  2
RECT
 10
67.1086
 20
19.7422
 30
0.0000
 41
1.5000
 42
3.8000
 43
1.0000
 50
63.4000
  0
INSERT
  8
32
  2
RECT
 10
68.4522
 20
22.4253
 30
0.0000
 41
1.5000
 42
3.8000
 43
1.0000
 50
63.4000
  0
INSERT
  8
32
  2
RECT
 10
69.7954
 20
25.1077
 30
0.0000
 41
1.5000
 42
3.8000
 43
1.0000
 50
63.4000
  0
INSERT
  8
32
  2
RECT
 10
71.1387
 20
27.7902
 30
0.0000
 41
1.5000
 42
3.8000
 43
1.0000
 50
63.4000
  0
INSERT
  8
32
  2
RECT
 10
72.4820
 20
30.4727
 30
0.0000
 41
1.5000
 42
3.8000
 43
1.0000
 50
63.4000
  0
INSERT
  8
32
  2
RECT
 10
73.8253
 20
33.1551
 30
0.0000
 41
1.5000
 42
3.8000
 43
1.0000
 50
63.4000
  0
INSERT
  8
32
  2
RECT
 10
24.5652
 20
2.7263
 30
0.0000
 41
1.5000
 42
3.8000
 43
1.0000
 50
0.0000
  0
INSERT
  8
32
  2
RECT
 10
27.5659
 20
2.7263
 30
0.0000
 41
1.5000
 42
3.8000
 43
1.0000
 50
0.0000
  0
INSERT
  8
32
  2
RECT
 10
30.5659
 20
2.7263
 30
0.0000
 41
1.5000
 42
3.8000
 43
1.0000
 50
0.0000
  0
INSERT
  8
32
  2
RECT
 10
33.5659
 20
2.7263
 30
0.0000
 41
1.5000
 42
3.8000
 43
1.0000
 50
0.0000
  0
INSERT
  8
32
  2
RECT
 10
36.5659
 20
2.7263
 30
0.0000
 41
1.5000
 42
3.8000
 43
1.0000
 50
0.0000
  0
INSERT
  8
32
  2
RECT
 10
39.5659
 20
2.7263
 30
0.0000
 41
1.5000
 42
3.8000
 43
1.0000
 50
0.0000
  0
INSERT
  8
32
  2
RECT
 10
47.3813
 20
34.6775
 30
0.0000
 41
1.0000
 42
1.1000
 43
1.0000
 50
297.0000
  0
INSERT
  8
32
  2
RECT
 10
48.1531
 20
33.1627
 30
0.0000
 41
1.0000
 42
1.1000
 43
1.0000
 50
297.0000
  0
INSERT
  8
32
  2
RECT
 10
58.2750
 20
39.7880
 30
0.0000
 41
1.0000
 42
1.1000
 43
1.0000
 50
117.0000
  0
INSERT
  8
32
  2
RECT
 10
57.5032
 20
41.3028
 30
0.0000
 41
1.0000
 42
1.1000
 43
1.0000
 50
117.0000
  0
INSERT
  8
32
  2
RECT
 10
69.6386
 20
34.6264
 30
0.0000
 41
1.1998
 42
1.1998
 43
1.0000
 50
333.4000
  0
INSERT
  8
32
  2
RECT
 10
68.5572
 20
32.4300
 30
0.0000
 41
1.1998
 42
1.1998
 43
1.0000
 50
333.4000
  0
INSERT
  8
32
  2
RECT
 10
66.7336
 20
29.5587
 30
0.0000
 41
0.8998
 42
0.8998
 43
1.0000
 50
333.4000
  0
INSERT
  8
32
  2
RECT
 10
65.2868
 20
26.8040
 30
0.0000
 41
0.8998
 42
0.8998
 43
1.0000
 50
333.4000
  0
INSERT
  8
32
  2
RECT
 10
64.2773
 20
24.3259
 30
0.0000
 41
1.1998
 42
1.1998
 43
1.0000
 50
333.4000
  0
INSERT
  8
32
  2
RECT
 10
63.2632
 20
22.2166
 30
0.0000
 41
1.1998
 42
1.1998
 43
1.0000
 50
333.4000
  0
INSERT
  8
32
  2
RECT
 10
70.9453
 20
33.9862
 30
0.0000
 41
1.1998
 42
1.1998
 43
1.0000
 50
333.4000
  0
INSERT
  8
32
  2
RECT
 10
69.8725
 20
31.8182
 30
0.0000
 41
1.1998
 42
1.1998
 43
1.0000
 50
333.4000
  0
INSERT
  8
32
  2
RECT
 10
68.4409
 20
29.3328
 30
0.0000
 41
2.0000
 42
2.0000
 43
1.0000
 50
333.4000
  0
INSERT
  8
32
  2
RECT
 10
66.9918
 20
26.5886
 30
0.0000
 41
2.0000
 42
2.0000
 43
1.0000
 50
333.4000
  0
INSERT
  8
32
  2
RECT
 10
65.4840
 20
23.6856
 30
0.0000
 41
1.1998
 42
1.1998
 43
1.0000
 50
333.4000
  0
INSERT
  8
32
  2
RECT
 10
64.4699
 20
21.5764
 30
0.0000
 41
1.1998
 42
1.1998
 43
1.0000
 50
333.4000
  0
INSERT
  8
32
  2
RECT
 10
24.6960
 20
33.4371
 30
0.0000
 41
1.1998
 42
1.1998
 43
1.0000
 50
153.4000
  0
INSERT
  8
32
  2
RECT
 10
23.7672
 20
31.5842
 30
0.0000
 41
1.1998
 42
1.1998
 43
1.0000
 50
153.4000
  0
INSERT
  8
32
  2
RECT
 10
22.7972
 20
29.4139
 30
0.0000
 41
1.1998
 42
1.1998
 43
1.0000
 50
153.4000
  0
INSERT
  8
32
  2
RECT
 10
20.1634
 20
23.5923
 30
0.0000
 41
1.1998
 42
1.1998
 43
1.0000
 50
153.4000
  0
INSERT
  8
32
  2
RECT
 10
19.2346
 20
21.7395
 30
0.0000
 41
1.1998
 42
1.1998
 43
1.0000
 50
153.4000
  0
INSERT
  8
32
  2
RECT
 10
18.3058
 20
19.8866
 30
0.0000
 41
1.1998
 42
1.1998
 43
1.0000
 50
153.4000
  0
INSERT
  8
32
  2
RECT
 10
23.4595
 20
34.0676
 30
0.0000
 41
1.1998
 42
1.1998
 43
1.0000
 50
153.4000
  0
INSERT
  8
32
  2
RECT
 10
22.5307
 20
32.2147
 30
0.0000
 41
1.1998
 42
1.1998
 43
1.0000
 50
153.4000
  0
INSERT
  8
32
  2
RECT
 10
21.6019
 20
30.0444
 30
0.0000
 41
1.1998
 42
1.1998
 43
1.0000
 50
153.4000
  0
INSERT
  8
32
  2
RECT
 10
18.9268
 20
24.2228
 30
0.0000
 41
1.1998
 42
1.1998
 43
1.0000
 50
153.4000
  0
INSERT
  8
32
  2
RECT
 10
17.9980
 20
22.3700
 30
0.0000
 41
1.1998
 42
1.1998
 43
1.0000
 50
153.4000
  0
INSERT
  8
32
  2
RECT
 10
17.0692
 20
20.5171
 30
0.0000
 41
1.1998
 42
1.1998
 43
1.0000
 50
153.4000
  0
INSERT
  8
32
  2
RECT
 10
41.9604
 20
8.3465
 30
0.0000
 41
1.1998
 42
1.1998
 43
1.0000
 50
90.0000
  0
INSERT
  8
32
  2
RECT
 10
40.0554
 20
8.3465
 30
0.0000
 41
1.1998
 42
1.1998
 43
1.0000
 50
90.0000
  0
INSERT
  8
32
  2
RECT
 10
38.1504
 20
8.3465
 30
0.0000
 41
1.1998
 42
1.1998
 43
1.0000
 50
90.0000
  0
INSERT
  8
32
  2
RECT
 10
34.6044
 20
8.2226
 30
0.0000
 41
1.1998
 42
1.1998
 43
1.0000
 50
90.0000
  0
INSERT
  8
32
  2
RECT
 10
32.5407
 20
8.2226
 30
0.0000
 41
1.1998
 42
1.1998
 43
1.0000
 50
90.0000
  0
INSERT
  8
32
  2
RECT
 10
30.6357
 20
8.2226
 30
0.0000
 41
1.1998
 42
1.1998
 43
1.0000
 50
90.0000
  0
INSERT
  8
32
  2
RECT
 10
41.9604
 20
6.9678
 30
0.0000
 41
1.1998
 42
1.1998
 43
1.0000
 50
270.0000
  0
INSERT
  8
32
  2
RECT
 10
40.0554
 20
6.9678
 30
0.0000
 41
1.1998
 42
1.1998
 43
1.0000
 50
270.0000
  0
INSERT
  8
32
  2
RECT
 10
38.1504
 20
6.9678
 30
0.0000
 41
1.1998
 42
1.1998
 43
1.0000
 50
270.0000
  0
INSERT
  8
32
  2
RECT
 10
34.6044
 20
6.8351
 30
0.0000
 41
1.1998
 42
1.1998
 43
1.0000
 50
270.0000
  0
INSERT
  8
32
  2
RECT
 10
32.5407
 20
6.8351
 30
0.0000
 41
1.1998
 42
1.1998
 43
1.0000
 50
270.0000
  0
INSERT
  8
32
  2
RECT
 10
30.6357
 20
6.8351
 30
0.0000
 41
1.1998
 42
1.1998
 43
1.0000
 50
270.0000
  0
INSERT
  8
32
  2
RECT
 10
65.7945
 20
27.7943
 30
0.0000
 41
0.8998
 42
0.8998
 43
1.0000
 50
333.4000
  0
INSERT
  8
32
  2
RECT
 10
67.2383
 20
30.5429
 30
0.0000
 41
0.8998
 42
0.8998
 43
1.0000
 50
333.4000
  0
INSERT
  8
32
  2
RECT1136000X320000R50
 10
16.5617
 20
5.9491
 30
0.0000
 41
1.0000
 42
1.0000
 43
1.0000
 50
270.0000
  0
INSERT
  8
32
  2
RECT1136000X320000R50
 10
20.5617
 20
5.9991
 30
0.0000
 41
1.0000
 42
1.0000
 43
1.0000
 50
270.0000
  0
INSERT
  8
32
  2
RECT1136000X320000R50
 10
72.6794
 20
38.1017
 30
0.0000
 41
1.0000
 42
1.0000
 43
1.0000
 50
333.4000
  0
INSERT
  8
32
  2
RECT1136000X320000R50
 10
74.4257
 20
41.7007
 30
0.0000
 41
1.0000
 42
1.0000
 43
1.0000
 50
333.4000
  0
INSERT
  8
32
  2
RECT1136000X320000R50
 10
70.6675
 20
47.9782
 30
0.0000
 41
1.0000
 42
1.0000
 43
1.0000
 50
90.0000
  0
INSERT
  8
32
  2
RECT1136000X320000R50
 10
66.6675
 20
47.9282
 30
0.0000
 41
1.0000
 42
1.0000
 43
1.0000
 50
90.0000
  0
INSERT
  8
32
  2
RECT1136000X320000R50
 10
14.5354
 20
15.8110
 30
0.0000
 41
1.0000
 42
1.0000
 43
1.0000
 50
153.4000
  0
INSERT
  8
32
  2
RECT1136000X320000R50
 10
12.7891
 20
12.2120
 30
0.0000
 41
1.0000
 42
1.0000
 43
1.0000
 50
153.4000
  0
ENDSEC
  0
EOF
